<?xml version="1.0" encoding="utf-8" standalone="no"?>
<!DOCTYPE svg PUBLIC "-//W3C//DTD SVG 1.1//EN"
  "http://www.w3.org/Graphics/SVG/1.1/DTD/svg11.dtd">
<svg xmlns:xlink="http://www.w3.org/1999/xlink" width="720pt" height="432pt" viewBox="0 0 720 432" xmlns="http://www.w3.org/2000/svg" version="1.1">
 <metadata>
  <rdf:RDF xmlns:dc="http://purl.org/dc/elements/1.1/" xmlns:cc="http://creativecommons.org/ns#" xmlns:rdf="http://www.w3.org/1999/02/22-rdf-syntax-ns#">
   <cc:Work>
    <dc:type rdf:resource="http://purl.org/dc/dcmitype/StillImage"/>
    <dc:date>2025-06-22T15:36:11.090508</dc:date>
    <dc:format>image/svg+xml</dc:format>
    <dc:creator>
     <cc:Agent>
      <dc:title>Matplotlib v3.10.1, https://matplotlib.org/</dc:title>
     </cc:Agent>
    </dc:creator>
   </cc:Work>
  </rdf:RDF>
 </metadata>
 <defs>
  <style type="text/css">*{stroke-linejoin: round; stroke-linecap: butt}</style>
 </defs>
 <g id="figure_1">
  <g id="patch_1">
   <path d="M 0 432 
L 720 432 
L 720 0 
L 0 0 
z
" style="fill: #ffffff"/>
  </g>
  <g id="axes_1">
   <g id="patch_2">
    <path d="M 54.2 390.04 
L 706.968954 390.04 
L 706.968954 25.44 
L 54.2 25.44 
z
" style="fill: #ffffff"/>
   </g>
   <g id="matplotlib.axis_1">
    <g id="xtick_1">
     <g id="line2d_1">
      <path d="M 83.871316 390.04 
L 83.871316 25.44 
" clip-path="url(#p072bcc4855)" style="fill: none; stroke: #b0b0b0; stroke-width: 0.8; stroke-linecap: square"/>
     </g>
     <g id="line2d_2">
      <defs>
       <path id="md3eaddfcd4" d="M 0 0 
L 0 3.5 
" style="stroke: #000000; stroke-width: 0.8"/>
      </defs>
      <g>
       <use xlink:href="#md3eaddfcd4" x="83.871316" y="390.04" style="stroke: #000000; stroke-width: 0.8"/>
      </g>
     </g>
     <g id="text_1">
      <!-- 0 -->
      <g transform="translate(80.690066 404.638438) scale(0.1 -0.1)">
       <defs>
        <path id="DejaVuSans-30" d="M 2034 4250 
Q 1547 4250 1301 3770 
Q 1056 3291 1056 2328 
Q 1056 1369 1301 889 
Q 1547 409 2034 409 
Q 2525 409 2770 889 
Q 3016 1369 3016 2328 
Q 3016 3291 2770 3770 
Q 2525 4250 2034 4250 
z
M 2034 4750 
Q 2819 4750 3233 4129 
Q 3647 3509 3647 2328 
Q 3647 1150 3233 529 
Q 2819 -91 2034 -91 
Q 1250 -91 836 529 
Q 422 1150 422 2328 
Q 422 3509 836 4129 
Q 1250 4750 2034 4750 
z
" transform="scale(0.015625)"/>
       </defs>
       <use xlink:href="#DejaVuSans-30"/>
      </g>
     </g>
    </g>
    <g id="xtick_2">
     <g id="line2d_3">
      <path d="M 171.656275 390.04 
L 171.656275 25.44 
" clip-path="url(#p072bcc4855)" style="fill: none; stroke: #b0b0b0; stroke-width: 0.8; stroke-linecap: square"/>
     </g>
     <g id="line2d_4">
      <g>
       <use xlink:href="#md3eaddfcd4" x="171.656275" y="390.04" style="stroke: #000000; stroke-width: 0.8"/>
      </g>
     </g>
     <g id="text_2">
      <!-- 50 -->
      <g transform="translate(165.293775 404.638438) scale(0.1 -0.1)">
       <defs>
        <path id="DejaVuSans-35" d="M 691 4666 
L 3169 4666 
L 3169 4134 
L 1269 4134 
L 1269 2991 
Q 1406 3038 1543 3061 
Q 1681 3084 1819 3084 
Q 2600 3084 3056 2656 
Q 3513 2228 3513 1497 
Q 3513 744 3044 326 
Q 2575 -91 1722 -91 
Q 1428 -91 1123 -41 
Q 819 9 494 109 
L 494 744 
Q 775 591 1075 516 
Q 1375 441 1709 441 
Q 2250 441 2565 725 
Q 2881 1009 2881 1497 
Q 2881 1984 2565 2268 
Q 2250 2553 1709 2553 
Q 1456 2553 1204 2497 
Q 953 2441 691 2322 
L 691 4666 
z
" transform="scale(0.015625)"/>
       </defs>
       <use xlink:href="#DejaVuSans-35"/>
       <use xlink:href="#DejaVuSans-30" transform="translate(63.623047 0)"/>
      </g>
     </g>
    </g>
    <g id="xtick_3">
     <g id="line2d_5">
      <path d="M 259.441234 390.04 
L 259.441234 25.44 
" clip-path="url(#p072bcc4855)" style="fill: none; stroke: #b0b0b0; stroke-width: 0.8; stroke-linecap: square"/>
     </g>
     <g id="line2d_6">
      <g>
       <use xlink:href="#md3eaddfcd4" x="259.441234" y="390.04" style="stroke: #000000; stroke-width: 0.8"/>
      </g>
     </g>
     <g id="text_3">
      <!-- 100 -->
      <g transform="translate(249.897484 404.638438) scale(0.1 -0.1)">
       <defs>
        <path id="DejaVuSans-31" d="M 794 531 
L 1825 531 
L 1825 4091 
L 703 3866 
L 703 4441 
L 1819 4666 
L 2450 4666 
L 2450 531 
L 3481 531 
L 3481 0 
L 794 0 
L 794 531 
z
" transform="scale(0.015625)"/>
       </defs>
       <use xlink:href="#DejaVuSans-31"/>
       <use xlink:href="#DejaVuSans-30" transform="translate(63.623047 0)"/>
       <use xlink:href="#DejaVuSans-30" transform="translate(127.246094 0)"/>
      </g>
     </g>
    </g>
    <g id="xtick_4">
     <g id="line2d_7">
      <path d="M 347.226193 390.04 
L 347.226193 25.44 
" clip-path="url(#p072bcc4855)" style="fill: none; stroke: #b0b0b0; stroke-width: 0.8; stroke-linecap: square"/>
     </g>
     <g id="line2d_8">
      <g>
       <use xlink:href="#md3eaddfcd4" x="347.226193" y="390.04" style="stroke: #000000; stroke-width: 0.8"/>
      </g>
     </g>
     <g id="text_4">
      <!-- 150 -->
      <g transform="translate(337.682443 404.638438) scale(0.1 -0.1)">
       <use xlink:href="#DejaVuSans-31"/>
       <use xlink:href="#DejaVuSans-35" transform="translate(63.623047 0)"/>
       <use xlink:href="#DejaVuSans-30" transform="translate(127.246094 0)"/>
      </g>
     </g>
    </g>
    <g id="xtick_5">
     <g id="line2d_9">
      <path d="M 435.011151 390.04 
L 435.011151 25.44 
" clip-path="url(#p072bcc4855)" style="fill: none; stroke: #b0b0b0; stroke-width: 0.8; stroke-linecap: square"/>
     </g>
     <g id="line2d_10">
      <g>
       <use xlink:href="#md3eaddfcd4" x="435.011151" y="390.04" style="stroke: #000000; stroke-width: 0.8"/>
      </g>
     </g>
     <g id="text_5">
      <!-- 200 -->
      <g transform="translate(425.467401 404.638438) scale(0.1 -0.1)">
       <defs>
        <path id="DejaVuSans-32" d="M 1228 531 
L 3431 531 
L 3431 0 
L 469 0 
L 469 531 
Q 828 903 1448 1529 
Q 2069 2156 2228 2338 
Q 2531 2678 2651 2914 
Q 2772 3150 2772 3378 
Q 2772 3750 2511 3984 
Q 2250 4219 1831 4219 
Q 1534 4219 1204 4116 
Q 875 4013 500 3803 
L 500 4441 
Q 881 4594 1212 4672 
Q 1544 4750 1819 4750 
Q 2544 4750 2975 4387 
Q 3406 4025 3406 3419 
Q 3406 3131 3298 2873 
Q 3191 2616 2906 2266 
Q 2828 2175 2409 1742 
Q 1991 1309 1228 531 
z
" transform="scale(0.015625)"/>
       </defs>
       <use xlink:href="#DejaVuSans-32"/>
       <use xlink:href="#DejaVuSans-30" transform="translate(63.623047 0)"/>
       <use xlink:href="#DejaVuSans-30" transform="translate(127.246094 0)"/>
      </g>
     </g>
    </g>
    <g id="xtick_6">
     <g id="line2d_11">
      <path d="M 522.79611 390.04 
L 522.79611 25.44 
" clip-path="url(#p072bcc4855)" style="fill: none; stroke: #b0b0b0; stroke-width: 0.8; stroke-linecap: square"/>
     </g>
     <g id="line2d_12">
      <g>
       <use xlink:href="#md3eaddfcd4" x="522.79611" y="390.04" style="stroke: #000000; stroke-width: 0.8"/>
      </g>
     </g>
     <g id="text_6">
      <!-- 250 -->
      <g transform="translate(513.25236 404.638438) scale(0.1 -0.1)">
       <use xlink:href="#DejaVuSans-32"/>
       <use xlink:href="#DejaVuSans-35" transform="translate(63.623047 0)"/>
       <use xlink:href="#DejaVuSans-30" transform="translate(127.246094 0)"/>
      </g>
     </g>
    </g>
    <g id="xtick_7">
     <g id="line2d_13">
      <path d="M 610.581069 390.04 
L 610.581069 25.44 
" clip-path="url(#p072bcc4855)" style="fill: none; stroke: #b0b0b0; stroke-width: 0.8; stroke-linecap: square"/>
     </g>
     <g id="line2d_14">
      <g>
       <use xlink:href="#md3eaddfcd4" x="610.581069" y="390.04" style="stroke: #000000; stroke-width: 0.8"/>
      </g>
     </g>
     <g id="text_7">
      <!-- 300 -->
      <g transform="translate(601.037319 404.638438) scale(0.1 -0.1)">
       <defs>
        <path id="DejaVuSans-33" d="M 2597 2516 
Q 3050 2419 3304 2112 
Q 3559 1806 3559 1356 
Q 3559 666 3084 287 
Q 2609 -91 1734 -91 
Q 1441 -91 1130 -33 
Q 819 25 488 141 
L 488 750 
Q 750 597 1062 519 
Q 1375 441 1716 441 
Q 2309 441 2620 675 
Q 2931 909 2931 1356 
Q 2931 1769 2642 2001 
Q 2353 2234 1838 2234 
L 1294 2234 
L 1294 2753 
L 1863 2753 
Q 2328 2753 2575 2939 
Q 2822 3125 2822 3475 
Q 2822 3834 2567 4026 
Q 2313 4219 1838 4219 
Q 1578 4219 1281 4162 
Q 984 4106 628 3988 
L 628 4550 
Q 988 4650 1302 4700 
Q 1616 4750 1894 4750 
Q 2613 4750 3031 4423 
Q 3450 4097 3450 3541 
Q 3450 3153 3228 2886 
Q 3006 2619 2597 2516 
z
" transform="scale(0.015625)"/>
       </defs>
       <use xlink:href="#DejaVuSans-33"/>
       <use xlink:href="#DejaVuSans-30" transform="translate(63.623047 0)"/>
       <use xlink:href="#DejaVuSans-30" transform="translate(127.246094 0)"/>
      </g>
     </g>
    </g>
    <g id="xtick_8">
     <g id="line2d_15">
      <path d="M 698.366028 390.04 
L 698.366028 25.44 
" clip-path="url(#p072bcc4855)" style="fill: none; stroke: #b0b0b0; stroke-width: 0.8; stroke-linecap: square"/>
     </g>
     <g id="line2d_16">
      <g>
       <use xlink:href="#md3eaddfcd4" x="698.366028" y="390.04" style="stroke: #000000; stroke-width: 0.8"/>
      </g>
     </g>
     <g id="text_8">
      <!-- 350 -->
      <g transform="translate(688.822278 404.638438) scale(0.1 -0.1)">
       <use xlink:href="#DejaVuSans-33"/>
       <use xlink:href="#DejaVuSans-35" transform="translate(63.623047 0)"/>
       <use xlink:href="#DejaVuSans-30" transform="translate(127.246094 0)"/>
      </g>
     </g>
    </g>
    <g id="text_9">
     <!-- Epoch -->
     <g transform="translate(365.273539 418.316562) scale(0.1 -0.1)">
      <defs>
       <path id="DejaVuSans-45" d="M 628 4666 
L 3578 4666 
L 3578 4134 
L 1259 4134 
L 1259 2753 
L 3481 2753 
L 3481 2222 
L 1259 2222 
L 1259 531 
L 3634 531 
L 3634 0 
L 628 0 
L 628 4666 
z
" transform="scale(0.015625)"/>
       <path id="DejaVuSans-70" d="M 1159 525 
L 1159 -1331 
L 581 -1331 
L 581 3500 
L 1159 3500 
L 1159 2969 
Q 1341 3281 1617 3432 
Q 1894 3584 2278 3584 
Q 2916 3584 3314 3078 
Q 3713 2572 3713 1747 
Q 3713 922 3314 415 
Q 2916 -91 2278 -91 
Q 1894 -91 1617 61 
Q 1341 213 1159 525 
z
M 3116 1747 
Q 3116 2381 2855 2742 
Q 2594 3103 2138 3103 
Q 1681 3103 1420 2742 
Q 1159 2381 1159 1747 
Q 1159 1113 1420 752 
Q 1681 391 2138 391 
Q 2594 391 2855 752 
Q 3116 1113 3116 1747 
z
" transform="scale(0.015625)"/>
       <path id="DejaVuSans-6f" d="M 1959 3097 
Q 1497 3097 1228 2736 
Q 959 2375 959 1747 
Q 959 1119 1226 758 
Q 1494 397 1959 397 
Q 2419 397 2687 759 
Q 2956 1122 2956 1747 
Q 2956 2369 2687 2733 
Q 2419 3097 1959 3097 
z
M 1959 3584 
Q 2709 3584 3137 3096 
Q 3566 2609 3566 1747 
Q 3566 888 3137 398 
Q 2709 -91 1959 -91 
Q 1206 -91 779 398 
Q 353 888 353 1747 
Q 353 2609 779 3096 
Q 1206 3584 1959 3584 
z
" transform="scale(0.015625)"/>
       <path id="DejaVuSans-63" d="M 3122 3366 
L 3122 2828 
Q 2878 2963 2633 3030 
Q 2388 3097 2138 3097 
Q 1578 3097 1268 2742 
Q 959 2388 959 1747 
Q 959 1106 1268 751 
Q 1578 397 2138 397 
Q 2388 397 2633 464 
Q 2878 531 3122 666 
L 3122 134 
Q 2881 22 2623 -34 
Q 2366 -91 2075 -91 
Q 1284 -91 818 406 
Q 353 903 353 1747 
Q 353 2603 823 3093 
Q 1294 3584 2113 3584 
Q 2378 3584 2631 3529 
Q 2884 3475 3122 3366 
z
" transform="scale(0.015625)"/>
       <path id="DejaVuSans-68" d="M 3513 2113 
L 3513 0 
L 2938 0 
L 2938 2094 
Q 2938 2591 2744 2837 
Q 2550 3084 2163 3084 
Q 1697 3084 1428 2787 
Q 1159 2491 1159 1978 
L 1159 0 
L 581 0 
L 581 4863 
L 1159 4863 
L 1159 2956 
Q 1366 3272 1645 3428 
Q 1925 3584 2291 3584 
Q 2894 3584 3203 3211 
Q 3513 2838 3513 2113 
z
" transform="scale(0.015625)"/>
      </defs>
      <use xlink:href="#DejaVuSans-45"/>
      <use xlink:href="#DejaVuSans-70" transform="translate(63.183594 0)"/>
      <use xlink:href="#DejaVuSans-6f" transform="translate(126.660156 0)"/>
      <use xlink:href="#DejaVuSans-63" transform="translate(187.841797 0)"/>
      <use xlink:href="#DejaVuSans-68" transform="translate(242.822266 0)"/>
     </g>
    </g>
   </g>
   <g id="matplotlib.axis_2">
    <g id="ytick_1">
     <g id="line2d_17">
      <path d="M 54.2 354.597933 
L 706.968954 354.597933 
" clip-path="url(#p072bcc4855)" style="fill: none; stroke: #b0b0b0; stroke-width: 0.8; stroke-linecap: square"/>
     </g>
     <g id="line2d_18">
      <defs>
       <path id="mb39a27a38c" d="M 0 0 
L -3.5 0 
" style="stroke: #000000; stroke-width: 0.8"/>
      </defs>
      <g>
       <use xlink:href="#mb39a27a38c" x="54.2" y="354.597933" style="stroke: #000000; stroke-width: 0.8"/>
      </g>
     </g>
     <g id="text_10">
      <!-- 0.25 -->
      <g transform="translate(24.934375 358.397152) scale(0.1 -0.1)">
       <defs>
        <path id="DejaVuSans-2e" d="M 684 794 
L 1344 794 
L 1344 0 
L 684 0 
L 684 794 
z
" transform="scale(0.015625)"/>
       </defs>
       <use xlink:href="#DejaVuSans-30"/>
       <use xlink:href="#DejaVuSans-2e" transform="translate(63.623047 0)"/>
       <use xlink:href="#DejaVuSans-32" transform="translate(95.410156 0)"/>
       <use xlink:href="#DejaVuSans-35" transform="translate(159.033203 0)"/>
      </g>
     </g>
    </g>
    <g id="ytick_2">
     <g id="line2d_19">
      <path d="M 54.2 300.944019 
L 706.968954 300.944019 
" clip-path="url(#p072bcc4855)" style="fill: none; stroke: #b0b0b0; stroke-width: 0.8; stroke-linecap: square"/>
     </g>
     <g id="line2d_20">
      <g>
       <use xlink:href="#mb39a27a38c" x="54.2" y="300.944019" style="stroke: #000000; stroke-width: 0.8"/>
      </g>
     </g>
     <g id="text_11">
      <!-- 0.30 -->
      <g transform="translate(24.934375 304.743238) scale(0.1 -0.1)">
       <use xlink:href="#DejaVuSans-30"/>
       <use xlink:href="#DejaVuSans-2e" transform="translate(63.623047 0)"/>
       <use xlink:href="#DejaVuSans-33" transform="translate(95.410156 0)"/>
       <use xlink:href="#DejaVuSans-30" transform="translate(159.033203 0)"/>
      </g>
     </g>
    </g>
    <g id="ytick_3">
     <g id="line2d_21">
      <path d="M 54.2 247.290105 
L 706.968954 247.290105 
" clip-path="url(#p072bcc4855)" style="fill: none; stroke: #b0b0b0; stroke-width: 0.8; stroke-linecap: square"/>
     </g>
     <g id="line2d_22">
      <g>
       <use xlink:href="#mb39a27a38c" x="54.2" y="247.290105" style="stroke: #000000; stroke-width: 0.8"/>
      </g>
     </g>
     <g id="text_12">
      <!-- 0.35 -->
      <g transform="translate(24.934375 251.089324) scale(0.1 -0.1)">
       <use xlink:href="#DejaVuSans-30"/>
       <use xlink:href="#DejaVuSans-2e" transform="translate(63.623047 0)"/>
       <use xlink:href="#DejaVuSans-33" transform="translate(95.410156 0)"/>
       <use xlink:href="#DejaVuSans-35" transform="translate(159.033203 0)"/>
      </g>
     </g>
    </g>
    <g id="ytick_4">
     <g id="line2d_23">
      <path d="M 54.2 193.636192 
L 706.968954 193.636192 
" clip-path="url(#p072bcc4855)" style="fill: none; stroke: #b0b0b0; stroke-width: 0.8; stroke-linecap: square"/>
     </g>
     <g id="line2d_24">
      <g>
       <use xlink:href="#mb39a27a38c" x="54.2" y="193.636192" style="stroke: #000000; stroke-width: 0.8"/>
      </g>
     </g>
     <g id="text_13">
      <!-- 0.40 -->
      <g transform="translate(24.934375 197.43541) scale(0.1 -0.1)">
       <defs>
        <path id="DejaVuSans-34" d="M 2419 4116 
L 825 1625 
L 2419 1625 
L 2419 4116 
z
M 2253 4666 
L 3047 4666 
L 3047 1625 
L 3713 1625 
L 3713 1100 
L 3047 1100 
L 3047 0 
L 2419 0 
L 2419 1100 
L 313 1100 
L 313 1709 
L 2253 4666 
z
" transform="scale(0.015625)"/>
       </defs>
       <use xlink:href="#DejaVuSans-30"/>
       <use xlink:href="#DejaVuSans-2e" transform="translate(63.623047 0)"/>
       <use xlink:href="#DejaVuSans-34" transform="translate(95.410156 0)"/>
       <use xlink:href="#DejaVuSans-30" transform="translate(159.033203 0)"/>
      </g>
     </g>
    </g>
    <g id="ytick_5">
     <g id="line2d_25">
      <path d="M 54.2 139.982278 
L 706.968954 139.982278 
" clip-path="url(#p072bcc4855)" style="fill: none; stroke: #b0b0b0; stroke-width: 0.8; stroke-linecap: square"/>
     </g>
     <g id="line2d_26">
      <g>
       <use xlink:href="#mb39a27a38c" x="54.2" y="139.982278" style="stroke: #000000; stroke-width: 0.8"/>
      </g>
     </g>
     <g id="text_14">
      <!-- 0.45 -->
      <g transform="translate(24.934375 143.781497) scale(0.1 -0.1)">
       <use xlink:href="#DejaVuSans-30"/>
       <use xlink:href="#DejaVuSans-2e" transform="translate(63.623047 0)"/>
       <use xlink:href="#DejaVuSans-34" transform="translate(95.410156 0)"/>
       <use xlink:href="#DejaVuSans-35" transform="translate(159.033203 0)"/>
      </g>
     </g>
    </g>
    <g id="ytick_6">
     <g id="line2d_27">
      <path d="M 54.2 86.328364 
L 706.968954 86.328364 
" clip-path="url(#p072bcc4855)" style="fill: none; stroke: #b0b0b0; stroke-width: 0.8; stroke-linecap: square"/>
     </g>
     <g id="line2d_28">
      <g>
       <use xlink:href="#mb39a27a38c" x="54.2" y="86.328364" style="stroke: #000000; stroke-width: 0.8"/>
      </g>
     </g>
     <g id="text_15">
      <!-- 0.50 -->
      <g transform="translate(24.934375 90.127583) scale(0.1 -0.1)">
       <use xlink:href="#DejaVuSans-30"/>
       <use xlink:href="#DejaVuSans-2e" transform="translate(63.623047 0)"/>
       <use xlink:href="#DejaVuSans-35" transform="translate(95.410156 0)"/>
       <use xlink:href="#DejaVuSans-30" transform="translate(159.033203 0)"/>
      </g>
     </g>
    </g>
    <g id="ytick_7">
     <g id="line2d_29">
      <path d="M 54.2 32.67445 
L 706.968954 32.67445 
" clip-path="url(#p072bcc4855)" style="fill: none; stroke: #b0b0b0; stroke-width: 0.8; stroke-linecap: square"/>
     </g>
     <g id="line2d_30">
      <g>
       <use xlink:href="#mb39a27a38c" x="54.2" y="32.67445" style="stroke: #000000; stroke-width: 0.8"/>
      </g>
     </g>
     <g id="text_16">
      <!-- 0.55 -->
      <g transform="translate(24.934375 36.473669) scale(0.1 -0.1)">
       <use xlink:href="#DejaVuSans-30"/>
       <use xlink:href="#DejaVuSans-2e" transform="translate(63.623047 0)"/>
       <use xlink:href="#DejaVuSans-35" transform="translate(95.410156 0)"/>
       <use xlink:href="#DejaVuSans-35" transform="translate(159.033203 0)"/>
      </g>
     </g>
    </g>
    <g id="text_17">
     <!-- Value -->
     <g transform="translate(18.854688 221.47125) rotate(-90) scale(0.1 -0.1)">
      <defs>
       <path id="DejaVuSans-56" d="M 1831 0 
L 50 4666 
L 709 4666 
L 2188 738 
L 3669 4666 
L 4325 4666 
L 2547 0 
L 1831 0 
z
" transform="scale(0.015625)"/>
       <path id="DejaVuSans-61" d="M 2194 1759 
Q 1497 1759 1228 1600 
Q 959 1441 959 1056 
Q 959 750 1161 570 
Q 1363 391 1709 391 
Q 2188 391 2477 730 
Q 2766 1069 2766 1631 
L 2766 1759 
L 2194 1759 
z
M 3341 1997 
L 3341 0 
L 2766 0 
L 2766 531 
Q 2569 213 2275 61 
Q 1981 -91 1556 -91 
Q 1019 -91 701 211 
Q 384 513 384 1019 
Q 384 1609 779 1909 
Q 1175 2209 1959 2209 
L 2766 2209 
L 2766 2266 
Q 2766 2663 2505 2880 
Q 2244 3097 1772 3097 
Q 1472 3097 1187 3025 
Q 903 2953 641 2809 
L 641 3341 
Q 956 3463 1253 3523 
Q 1550 3584 1831 3584 
Q 2591 3584 2966 3190 
Q 3341 2797 3341 1997 
z
" transform="scale(0.015625)"/>
       <path id="DejaVuSans-6c" d="M 603 4863 
L 1178 4863 
L 1178 0 
L 603 0 
L 603 4863 
z
" transform="scale(0.015625)"/>
       <path id="DejaVuSans-75" d="M 544 1381 
L 544 3500 
L 1119 3500 
L 1119 1403 
Q 1119 906 1312 657 
Q 1506 409 1894 409 
Q 2359 409 2629 706 
Q 2900 1003 2900 1516 
L 2900 3500 
L 3475 3500 
L 3475 0 
L 2900 0 
L 2900 538 
Q 2691 219 2414 64 
Q 2138 -91 1772 -91 
Q 1169 -91 856 284 
Q 544 659 544 1381 
z
M 1991 3584 
L 1991 3584 
z
" transform="scale(0.015625)"/>
       <path id="DejaVuSans-65" d="M 3597 1894 
L 3597 1613 
L 953 1613 
Q 991 1019 1311 708 
Q 1631 397 2203 397 
Q 2534 397 2845 478 
Q 3156 559 3463 722 
L 3463 178 
Q 3153 47 2828 -22 
Q 2503 -91 2169 -91 
Q 1331 -91 842 396 
Q 353 884 353 1716 
Q 353 2575 817 3079 
Q 1281 3584 2069 3584 
Q 2775 3584 3186 3129 
Q 3597 2675 3597 1894 
z
M 3022 2063 
Q 3016 2534 2758 2815 
Q 2500 3097 2075 3097 
Q 1594 3097 1305 2825 
Q 1016 2553 972 2059 
L 3022 2063 
z
" transform="scale(0.015625)"/>
      </defs>
      <use xlink:href="#DejaVuSans-56"/>
      <use xlink:href="#DejaVuSans-61" transform="translate(60.658203 0)"/>
      <use xlink:href="#DejaVuSans-6c" transform="translate(121.9375 0)"/>
      <use xlink:href="#DejaVuSans-75" transform="translate(149.720703 0)"/>
      <use xlink:href="#DejaVuSans-65" transform="translate(213.099609 0)"/>
     </g>
    </g>
   </g>
   <g id="line2d_31">
    <path d="M 83.871316 167.909917 
L 85.627015 187.203971 
L 87.382714 198.11396 
L 90.894113 240.158234 
L 92.649812 246.474328 
L 94.405511 273.697878 
L 96.16121 253.084513 
L 97.916909 270.410727 
L 99.672609 267.231157 
L 101.428308 270.348781 
L 103.184007 237.5419 
L 104.939706 228.856902 
L 106.695405 230.412836 
L 108.451105 226.982189 
L 110.206804 225.683281 
L 111.962503 217.38745 
L 113.718202 221.024945 
L 115.473901 221.406725 
L 117.2296 220.76194 
L 118.9853 226.857339 
L 120.740999 225.280618 
L 122.496698 229.31035 
L 124.252397 228.05762 
L 126.008096 229.467341 
L 127.763795 228.62044 
L 129.519495 233.455914 
L 131.275194 235.08051 
L 133.030893 237.189158 
L 136.542291 242.591961 
L 138.297991 244.173511 
L 140.05369 246.974851 
L 141.809389 241.60681 
L 143.565088 245.786178 
L 145.320787 249.566432 
L 147.076486 245.752247 
L 148.832186 248.322082 
L 150.587885 253.518101 
L 152.343584 250.664249 
L 154.099283 251.447157 
L 155.854982 255.723425 
L 157.610681 256.074312 
L 159.366381 254.523751 
L 161.12208 255.069461 
L 162.877779 253.512536 
L 164.633478 262.96007 
L 166.389177 258.713928 
L 168.144877 259.661214 
L 169.900576 257.453523 
L 171.656275 262.755748 
L 173.411974 264.928741 
L 175.167673 264.917548 
L 176.923372 263.841829 
L 178.679072 262.373521 
L 180.434771 261.839803 
L 182.19047 267.698996 
L 183.946169 266.493853 
L 185.701868 269.269577 
L 187.457567 267.872456 
L 189.213267 263.952097 
L 190.968966 265.01787 
L 192.724665 267.911824 
L 194.480364 271.086117 
L 196.236063 266.108491 
L 197.991763 270.123257 
L 199.747462 278.293724 
L 201.503161 273.488472 
L 203.25886 273.910547 
L 205.014559 271.351457 
L 206.770258 277.122481 
L 208.525958 273.019802 
L 210.281657 273.311109 
L 212.037356 274.923456 
L 213.793055 280.173394 
L 215.548754 279.643833 
L 217.304453 277.985115 
L 219.060153 283.516703 
L 220.815852 278.965885 
L 222.571551 280.641585 
L 224.32725 281.795143 
L 226.082949 279.644537 
L 227.838649 280.046816 
L 229.594348 279.344403 
L 231.350047 283.383793 
L 233.105746 283.542543 
L 234.861445 280.895667 
L 236.617144 285.858774 
L 238.372844 281.482696 
L 240.128543 280.385839 
L 241.884242 284.890381 
L 243.639941 282.015167 
L 245.39564 282.033972 
L 247.151339 285.762226 
L 248.907039 281.267693 
L 250.662738 285.196304 
L 252.418437 287.566838 
L 254.174136 283.006522 
L 255.929835 284.296157 
L 257.685535 291.176446 
L 259.441234 291.681606 
L 261.196933 284.482633 
L 262.952632 288.047245 
L 264.708331 289.58575 
L 266.46403 291.888934 
L 268.21973 293.85802 
L 269.975429 293.288004 
L 271.731128 293.895309 
L 273.486827 288.840291 
L 275.242526 288.879211 
L 276.998225 290.456763 
L 278.753925 294.195251 
L 280.509624 294.129276 
L 282.265323 294.721486 
L 284.021022 294.36657 
L 285.776721 294.877965 
L 287.532421 294.830858 
L 289.28812 293.244511 
L 291.043819 293.67682 
L 292.799518 296.225228 
L 294.555217 292.374329 
L 296.310916 294.242582 
L 298.066616 295.606251 
L 299.822315 294.541086 
L 301.578014 296.32942 
L 303.333713 298.51498 
L 305.089412 297.640385 
L 306.845111 301.901494 
L 308.600811 297.384895 
L 310.35651 299.854952 
L 312.112209 298.258499 
L 313.867908 301.221755 
L 315.623607 300.092213 
L 317.379307 298.096775 
L 319.135006 303.396218 
L 320.890705 304.569317 
L 322.646404 300.969047 
L 324.402103 303.054925 
L 326.157802 304.08181 
L 327.913502 304.512456 
L 329.669201 302.580147 
L 331.4249 301.034063 
L 333.180599 302.208376 
L 334.936298 305.656356 
L 336.691997 304.551504 
L 338.447697 304.750964 
L 340.203396 305.451811 
L 341.959095 305.656484 
L 343.714794 305.098493 
L 345.470493 305.57874 
L 347.226193 302.502978 
L 350.737591 306.467599 
L 352.49329 307.815181 
L 354.248989 310.362662 
L 356.004688 307.358952 
L 357.760388 309.944713 
L 359.516087 309.267723 
L 361.271786 309.457718 
L 363.027485 312.274504 
L 364.783184 312.166475 
L 366.538883 309.488771 
L 368.294583 311.679192 
L 370.050282 310.284247 
L 371.805981 315.804385 
L 373.56168 312.395741 
L 375.317379 312.649632 
L 377.073079 312.327079 
L 378.828778 313.260486 
L 380.584477 316.6533 
L 382.340176 316.737504 
L 384.095875 313.991938 
L 385.851574 311.671869 
L 387.607274 314.364284 
L 389.362973 313.487322 
L 391.118672 315.632587 
L 392.874371 318.72984 
L 394.63007 316.711888 
L 396.385769 319.133686 
L 398.141469 319.355789 
L 399.897168 318.561081 
L 401.652867 313.846652 
L 403.408566 315.7284 
L 405.164265 320.396106 
L 406.919965 321.009103 
L 408.675664 318.649154 
L 410.431363 319.895008 
L 412.187062 322.492729 
L 413.942761 317.101119 
L 415.69846 320.396202 
L 417.45416 318.803523 
L 419.209859 320.68703 
L 420.965558 323.66877 
L 422.721257 323.120629 
L 424.476956 327.790062 
L 426.232655 323.786042 
L 427.988355 324.579119 
L 429.744054 325.1799 
L 431.499753 322.832583 
L 433.255452 325.22205 
L 435.011151 322.811604 
L 436.766851 328.414667 
L 438.52255 321.097528 
L 440.278249 323.715557 
L 442.033948 323.585686 
L 443.789647 324.461848 
L 445.545346 326.301766 
L 447.301046 327.783378 
L 449.056745 325.569355 
L 450.812444 327.188322 
L 452.568143 326.233936 
L 454.323842 324.104661 
L 456.079541 324.375661 
L 457.835241 330.940466 
L 459.59094 327.160403 
L 461.346639 327.889712 
L 463.102338 324.6237 
L 464.858037 324.838223 
L 466.613737 329.989054 
L 468.369436 333.968801 
L 471.880834 329.519744 
L 473.636533 330.006899 
L 475.392232 330.161459 
L 477.147932 329.502539 
L 478.903631 331.882507 
L 480.65933 331.258093 
L 482.415029 329.161182 
L 484.170728 332.532281 
L 485.926427 329.98496 
L 487.682127 331.58282 
L 489.437826 332.911887 
L 491.193525 333.992978 
L 492.949224 333.831606 
L 494.704923 335.102852 
L 496.460623 334.283614 
L 498.216322 333.92163 
L 499.972021 335.293518 
L 501.72772 335.029937 
L 503.483419 336.71312 
L 506.994818 337.772465 
L 508.750517 335.34555 
L 510.506216 331.641024 
L 512.261915 332.768519 
L 514.017614 336.398946 
L 515.773313 338.259588 
L 517.529013 334.636964 
L 519.284712 337.83892 
L 521.040411 338.781025 
L 522.79611 337.533669 
L 526.307509 337.874546 
L 528.063208 339.174254 
L 529.818907 339.780695 
L 531.574606 340.265547 
L 533.330305 338.191534 
L 535.086004 340.291867 
L 536.841704 339.610688 
L 538.597403 339.896847 
L 540.353102 339.363353 
L 542.108801 338.037485 
L 543.8645 340.429094 
L 545.620199 343.095829 
L 547.375899 340.552698 
L 550.887297 337.250644 
L 552.642996 340.471436 
L 554.398695 341.561002 
L 556.154394 340.325286 
L 557.910094 342.271315 
L 559.665793 341.090925 
L 561.421492 341.057378 
L 563.177191 341.81112 
L 566.68859 345.933019 
L 568.444289 344.146603 
L 570.199988 343.364271 
L 571.955687 342.93919 
L 573.711386 344.274045 
L 575.467085 340.642083 
L 577.222785 344.127671 
L 578.978484 346.466353 
L 580.734183 344.731458 
L 582.489882 342.315704 
L 584.245581 345.066547 
L 586.00128 343.381988 
L 587.75698 343.134078 
L 589.512679 344.705554 
L 591.268378 346.906817 
L 593.024077 350.033076 
L 594.779776 349.498718 
L 596.535476 348.460896 
L 598.291175 348.445193 
L 600.046874 349.65686 
L 601.802573 350.647096 
L 603.558272 354.881661 
L 605.313971 355.675011 
L 607.069671 353.97774 
L 608.82537 353.575173 
L 610.581069 350.821964 
L 612.336768 350.368324 
L 614.092467 350.913011 
L 615.848166 349.755295 
L 617.603866 353.993794 
L 619.359565 352.239487 
L 621.115264 352.83595 
L 622.870963 354.250947 
L 624.626662 353.117824 
L 628.138061 353.355789 
L 629.89376 353.930569 
L 631.649459 352.969979 
L 633.405158 356.803209 
L 635.160857 356.111941 
L 636.916557 354.165272 
L 638.672256 353.491065 
L 640.427955 355.198409 
L 642.183654 356.238566 
L 643.939353 355.535225 
L 645.695052 355.288945 
L 647.450752 357.489793 
L 649.206451 355.822871 
L 650.96215 355.082353 
L 652.717849 354.90384 
L 654.473548 352.460407 
L 657.984947 357.971367 
L 659.740646 357.061897 
L 661.496345 356.725321 
L 663.252044 355.736845 
L 665.007743 357.764727 
L 666.763443 357.794324 
L 668.519142 357.641347 
L 670.274841 356.376849 
L 672.03054 357.140505 
L 673.786239 358.118172 
L 675.541938 358.070489 
L 677.297638 360.653452 
L 677.297638 360.653452 
" clip-path="url(#p072bcc4855)" style="fill: none; stroke: #ff0000; stroke-width: 1.5; stroke-linecap: square"/>
   </g>
   <g id="line2d_32">
    <path d="M 83.871316 373.467273 
L 85.627015 331.817363 
L 87.382714 307.557293 
L 89.138414 276.104742 
L 90.894113 238.555609 
L 92.649812 217.104106 
L 94.405511 188.216561 
L 96.16121 194.368564 
L 97.916909 178.242664 
L 99.672609 164.818645 
L 101.428308 165.753811 
L 103.184007 204.000081 
L 104.939706 222.027781 
L 106.695405 222.235109 
L 108.451105 229.062631 
L 110.206804 231.844463 
L 111.962503 240.117043 
L 113.718202 238.111116 
L 115.473901 239.988355 
L 117.2296 239.383097 
L 118.9853 232.429733 
L 120.740999 234.284458 
L 122.496698 228.882103 
L 124.252397 232.561907 
L 126.008096 230.286866 
L 127.763795 229.116677 
L 129.519495 226.852094 
L 131.275194 222.644584 
L 133.030893 217.987016 
L 134.786592 217.502451 
L 136.542291 212.845907 
L 138.297991 212.732185 
L 140.05369 211.006148 
L 141.809389 209.563233 
L 143.565088 209.060312 
L 145.320787 202.317537 
L 147.076486 208.230457 
L 148.832186 205.548307 
L 150.587885 196.773701 
L 152.343584 199.506731 
L 154.099283 199.800981 
L 155.854982 194.835124 
L 157.610681 194.91549 
L 159.366381 191.641739 
L 161.12208 191.742828 
L 162.877779 194.500899 
L 164.633478 184.039783 
L 166.389177 185.296222 
L 168.144877 183.418855 
L 169.900576 189.232732 
L 171.656275 181.697935 
L 173.411974 182.134274 
L 175.167673 178.358177 
L 176.923372 181.213307 
L 178.679072 181.030828 
L 180.434771 180.607538 
L 182.19047 175.095586 
L 183.946169 178.34564 
L 185.701868 174.347217 
L 187.457567 172.33 
L 189.213267 177.729637 
L 190.968966 176.049908 
L 192.724665 173.289631 
L 194.480364 169.207899 
L 196.236063 175.598283 
L 197.991763 169.520346 
L 199.747462 162.679903 
L 201.503161 166.555171 
L 203.25886 166.840115 
L 205.014559 167.398202 
L 206.770258 160.866049 
L 208.525958 166.807911 
L 210.281657 166.041057 
L 212.037356 162.444529 
L 213.793055 160.886005 
L 215.548754 158.180478 
L 217.304453 160.177707 
L 219.060153 153.617731 
L 220.815852 160.130856 
L 222.571551 154.911235 
L 224.32725 154.734193 
L 226.082949 157.042461 
L 227.838649 156.725282 
L 229.594348 158.218886 
L 231.350047 154.247454 
L 233.105746 152.369895 
L 234.861445 156.421821 
L 236.617144 151.284198 
L 238.372844 154.213203 
L 240.128543 155.189047 
L 241.884242 154.132453 
L 243.639941 156.223608 
L 245.39564 152.533601 
L 247.151339 150.698864 
L 248.907039 154.619927 
L 250.662738 151.918654 
L 252.418437 149.553588 
L 254.174136 151.95025 
L 255.929835 150.622943 
L 257.685535 145.203094 
L 259.441234 142.936016 
L 261.196933 149.811733 
L 262.952632 143.241747 
L 264.708331 142.076068 
L 266.46403 143.28201 
L 268.21973 141.129677 
L 271.731128 138.177711 
L 273.486827 141.397096 
L 275.242526 142.643813 
L 276.998225 142.40022 
L 278.753925 138.027627 
L 280.509624 138.766499 
L 282.265323 138.035846 
L 284.021022 136.863227 
L 285.776721 138.329105 
L 287.532421 137.15719 
L 289.28812 134.236308 
L 291.043819 135.010517 
L 292.799518 134.947004 
L 294.555217 136.53607 
L 296.310916 135.422326 
L 298.066616 136.422508 
L 299.822315 135.262969 
L 301.578014 132.038083 
L 303.333713 131.322909 
L 305.089412 132.739985 
L 306.845111 127.881581 
L 308.600811 134.055396 
L 310.35651 131.20906 
L 312.112209 127.526601 
L 313.867908 126.133702 
L 315.623607 127.544318 
L 317.379307 132.520665 
L 319.135006 127.48864 
L 320.890705 124.709751 
L 322.646404 125.79695 
L 324.402103 126.718077 
L 326.157802 124.296694 
L 327.913502 123.779222 
L 329.669201 125.217053 
L 331.4249 123.953322 
L 333.180599 126.157879 
L 334.936298 122.297035 
L 336.691997 123.043261 
L 338.447697 122.553452 
L 341.959095 123.931992 
L 343.714794 123.502241 
L 345.470493 121.195316 
L 347.226193 125.97604 
L 348.981892 122.45927 
L 350.737591 121.009926 
L 352.49329 121.362317 
L 354.248989 118.606868 
L 356.004688 120.506782 
L 357.760388 116.822468 
L 359.516087 117.78584 
L 361.271786 114.790572 
L 363.027485 114.51244 
L 364.783184 112.997601 
L 366.538883 116.323704 
L 368.294583 112.607698 
L 370.050282 115.311338 
L 371.805981 108.160592 
L 373.56168 113.006396 
L 375.317379 112.940548 
L 377.073079 114.292129 
L 378.828778 112.426146 
L 380.584477 107.139655 
L 382.340176 106.757779 
L 384.095875 107.140167 
L 385.851574 111.706975 
L 387.607274 109.311592 
L 389.362973 108.535528 
L 391.118672 107.485553 
L 392.874371 104.903598 
L 394.63007 107.524313 
L 396.385769 106.661903 
L 398.141469 101.183019 
L 399.897168 102.023363 
L 401.652867 107.162137 
L 403.408566 104.785143 
L 405.164265 103.915825 
L 406.919965 102.6496 
L 408.675664 102.791656 
L 410.431363 96.846692 
L 412.187062 98.57001 
L 413.942761 102.89185 
L 415.69846 101.782648 
L 417.45416 103.145421 
L 419.209859 101.037924 
L 420.965558 99.628588 
L 422.721257 97.457546 
L 424.476956 91.873255 
L 426.232655 94.636827 
L 427.988355 94.411878 
L 429.744054 92.301471 
L 431.499753 91.122903 
L 433.255452 93.260174 
L 435.011151 94.370271 
L 436.766851 88.683964 
L 438.52255 96.303732 
L 440.278249 98.36054 
L 442.033948 96.794436 
L 443.789647 96.586405 
L 445.545346 92.794926 
L 447.301046 90.122146 
L 449.056745 96.274406 
L 450.812444 93.170086 
L 452.568143 93.320744 
L 454.323842 91.742488 
L 456.079541 94.225209 
L 457.835241 88.841434 
L 459.59094 88.725826 
L 461.346639 90.969238 
L 463.102338 93.566448 
L 464.858037 92.95326 
L 466.613737 85.538581 
L 468.369436 81.998753 
L 471.880834 87.000077 
L 473.636533 87.698333 
L 475.392232 88.082895 
L 477.147932 86.744491 
L 478.903631 87.074591 
L 482.415029 86.474226 
L 484.170728 84.693599 
L 485.926427 86.834867 
L 487.682127 82.497325 
L 489.437826 82.730525 
L 491.193525 81.521609 
L 492.949224 84.284828 
L 494.704923 82.669954 
L 496.460623 80.403388 
L 498.216322 82.120918 
L 499.972021 79.892344 
L 501.72772 75.499157 
L 503.483419 76.307617 
L 505.239118 77.397631 
L 506.994818 77.019624 
L 508.750517 78.074844 
L 510.506216 79.761225 
L 512.261915 81.682661 
L 514.017614 78.775147 
L 515.773313 76.679866 
L 517.529013 79.541905 
L 519.284712 75.423108 
L 521.040411 72.334841 
L 522.79611 73.169909 
L 524.551809 74.55203 
L 526.307509 73.595246 
L 528.063208 73.139272 
L 529.818907 71.923703 
L 531.574606 71.854115 
L 533.330305 76.115863 
L 535.086004 73.433106 
L 536.841704 72.150827 
L 538.597403 73.043971 
L 540.353102 67.673724 
L 542.108801 71.337442 
L 543.8645 74.077891 
L 545.620199 69.953146 
L 547.375899 67.428499 
L 549.131598 72.766446 
L 550.887297 72.822412 
L 552.642996 70.231374 
L 554.398695 72.19189 
L 556.154394 72.250861 
L 557.910094 69.524163 
L 559.665793 69.766445 
L 561.421492 68.181058 
L 563.177191 72.333178 
L 564.93289 65.675727 
L 566.68859 66.035888 
L 568.444289 68.033885 
L 570.199988 67.296869 
L 571.955687 70.005082 
L 573.711386 63.252393 
L 575.467085 68.641061 
L 577.222785 66.391892 
L 578.978484 63.425662 
L 580.734183 61.620698 
L 582.489882 65.533095 
L 584.245581 65.21745 
L 586.00128 63.300939 
L 587.75698 61.804521 
L 589.512679 62.172293 
L 591.268378 63.176536 
L 593.024077 58.616028 
L 594.779776 60.583836 
L 596.535476 56.57844 
L 598.291175 56.864663 
L 600.046874 53.647005 
L 601.802573 54.047909 
L 603.558272 49.963395 
L 605.313971 50.874703 
L 607.069671 52.683441 
L 608.82537 51.881377 
L 610.581069 53.8685 
L 612.336768 55.433229 
L 614.092467 54.540916 
L 615.848166 52.755908 
L 617.603866 49.698982 
L 619.359565 50.688067 
L 621.115264 49.81296 
L 622.870963 47.401395 
L 624.626662 48.213693 
L 626.382362 46.292577 
L 628.138061 50.800062 
L 629.89376 51.701328 
L 631.649459 51.397004 
L 633.405158 47.446615 
L 635.160857 45.93088 
L 636.916557 48.791512 
L 638.672256 52.11317 
L 640.427955 49.664316 
L 642.183654 50.863127 
L 643.939353 50.907579 
L 647.450752 48.82944 
L 649.206451 45.962861 
L 650.96215 44.992517 
L 652.717849 48.214908 
L 654.473548 50.641248 
L 656.229248 49.389158 
L 657.984947 42.571102 
L 659.740646 46.596709 
L 661.496345 47.080697 
L 663.252044 44.279422 
L 665.007743 46.357689 
L 666.763443 45.342061 
L 668.519142 45.898516 
L 670.274841 44.790466 
L 672.03054 43.070569 
L 673.786239 46.554431 
L 675.541938 43.093851 
L 677.297638 42.012727 
L 677.297638 42.012727 
" clip-path="url(#p072bcc4855)" style="fill: none; stroke: #0000ff; stroke-width: 1.5; stroke-linecap: square"/>
   </g>
   <g id="patch_3">
    <path d="M 54.2 390.04 
L 54.2 25.44 
" style="fill: none; stroke: #000000; stroke-width: 0.8; stroke-linejoin: miter; stroke-linecap: square"/>
   </g>
   <g id="patch_4">
    <path d="M 706.968954 390.04 
L 706.968954 25.44 
" style="fill: none; stroke: #000000; stroke-width: 0.8; stroke-linejoin: miter; stroke-linecap: square"/>
   </g>
   <g id="patch_5">
    <path d="M 54.2 390.04 
L 706.968954 390.04 
" style="fill: none; stroke: #000000; stroke-width: 0.8; stroke-linejoin: miter; stroke-linecap: square"/>
   </g>
   <g id="patch_6">
    <path d="M 54.2 25.44 
L 706.968954 25.44 
" style="fill: none; stroke: #000000; stroke-width: 0.8; stroke-linejoin: miter; stroke-linecap: square"/>
   </g>
   <g id="text_18">
    <!-- gan_IS_FID_mnist_generator_discriminator Trial 7 -->
    <g transform="translate(233.052914 19.44) scale(0.12 -0.12)">
     <defs>
      <path id="DejaVuSans-67" d="M 2906 1791 
Q 2906 2416 2648 2759 
Q 2391 3103 1925 3103 
Q 1463 3103 1205 2759 
Q 947 2416 947 1791 
Q 947 1169 1205 825 
Q 1463 481 1925 481 
Q 2391 481 2648 825 
Q 2906 1169 2906 1791 
z
M 3481 434 
Q 3481 -459 3084 -895 
Q 2688 -1331 1869 -1331 
Q 1566 -1331 1297 -1286 
Q 1028 -1241 775 -1147 
L 775 -588 
Q 1028 -725 1275 -790 
Q 1522 -856 1778 -856 
Q 2344 -856 2625 -561 
Q 2906 -266 2906 331 
L 2906 616 
Q 2728 306 2450 153 
Q 2172 0 1784 0 
Q 1141 0 747 490 
Q 353 981 353 1791 
Q 353 2603 747 3093 
Q 1141 3584 1784 3584 
Q 2172 3584 2450 3431 
Q 2728 3278 2906 2969 
L 2906 3500 
L 3481 3500 
L 3481 434 
z
" transform="scale(0.015625)"/>
      <path id="DejaVuSans-6e" d="M 3513 2113 
L 3513 0 
L 2938 0 
L 2938 2094 
Q 2938 2591 2744 2837 
Q 2550 3084 2163 3084 
Q 1697 3084 1428 2787 
Q 1159 2491 1159 1978 
L 1159 0 
L 581 0 
L 581 3500 
L 1159 3500 
L 1159 2956 
Q 1366 3272 1645 3428 
Q 1925 3584 2291 3584 
Q 2894 3584 3203 3211 
Q 3513 2838 3513 2113 
z
" transform="scale(0.015625)"/>
      <path id="DejaVuSans-5f" d="M 3263 -1063 
L 3263 -1509 
L -63 -1509 
L -63 -1063 
L 3263 -1063 
z
" transform="scale(0.015625)"/>
      <path id="DejaVuSans-49" d="M 628 4666 
L 1259 4666 
L 1259 0 
L 628 0 
L 628 4666 
z
" transform="scale(0.015625)"/>
      <path id="DejaVuSans-53" d="M 3425 4513 
L 3425 3897 
Q 3066 4069 2747 4153 
Q 2428 4238 2131 4238 
Q 1616 4238 1336 4038 
Q 1056 3838 1056 3469 
Q 1056 3159 1242 3001 
Q 1428 2844 1947 2747 
L 2328 2669 
Q 3034 2534 3370 2195 
Q 3706 1856 3706 1288 
Q 3706 609 3251 259 
Q 2797 -91 1919 -91 
Q 1588 -91 1214 -16 
Q 841 59 441 206 
L 441 856 
Q 825 641 1194 531 
Q 1563 422 1919 422 
Q 2459 422 2753 634 
Q 3047 847 3047 1241 
Q 3047 1584 2836 1778 
Q 2625 1972 2144 2069 
L 1759 2144 
Q 1053 2284 737 2584 
Q 422 2884 422 3419 
Q 422 4038 858 4394 
Q 1294 4750 2059 4750 
Q 2388 4750 2728 4690 
Q 3069 4631 3425 4513 
z
" transform="scale(0.015625)"/>
      <path id="DejaVuSans-46" d="M 628 4666 
L 3309 4666 
L 3309 4134 
L 1259 4134 
L 1259 2759 
L 3109 2759 
L 3109 2228 
L 1259 2228 
L 1259 0 
L 628 0 
L 628 4666 
z
" transform="scale(0.015625)"/>
      <path id="DejaVuSans-44" d="M 1259 4147 
L 1259 519 
L 2022 519 
Q 2988 519 3436 956 
Q 3884 1394 3884 2338 
Q 3884 3275 3436 3711 
Q 2988 4147 2022 4147 
L 1259 4147 
z
M 628 4666 
L 1925 4666 
Q 3281 4666 3915 4102 
Q 4550 3538 4550 2338 
Q 4550 1131 3912 565 
Q 3275 0 1925 0 
L 628 0 
L 628 4666 
z
" transform="scale(0.015625)"/>
      <path id="DejaVuSans-6d" d="M 3328 2828 
Q 3544 3216 3844 3400 
Q 4144 3584 4550 3584 
Q 5097 3584 5394 3201 
Q 5691 2819 5691 2113 
L 5691 0 
L 5113 0 
L 5113 2094 
Q 5113 2597 4934 2840 
Q 4756 3084 4391 3084 
Q 3944 3084 3684 2787 
Q 3425 2491 3425 1978 
L 3425 0 
L 2847 0 
L 2847 2094 
Q 2847 2600 2669 2842 
Q 2491 3084 2119 3084 
Q 1678 3084 1418 2786 
Q 1159 2488 1159 1978 
L 1159 0 
L 581 0 
L 581 3500 
L 1159 3500 
L 1159 2956 
Q 1356 3278 1631 3431 
Q 1906 3584 2284 3584 
Q 2666 3584 2933 3390 
Q 3200 3197 3328 2828 
z
" transform="scale(0.015625)"/>
      <path id="DejaVuSans-69" d="M 603 3500 
L 1178 3500 
L 1178 0 
L 603 0 
L 603 3500 
z
M 603 4863 
L 1178 4863 
L 1178 4134 
L 603 4134 
L 603 4863 
z
" transform="scale(0.015625)"/>
      <path id="DejaVuSans-73" d="M 2834 3397 
L 2834 2853 
Q 2591 2978 2328 3040 
Q 2066 3103 1784 3103 
Q 1356 3103 1142 2972 
Q 928 2841 928 2578 
Q 928 2378 1081 2264 
Q 1234 2150 1697 2047 
L 1894 2003 
Q 2506 1872 2764 1633 
Q 3022 1394 3022 966 
Q 3022 478 2636 193 
Q 2250 -91 1575 -91 
Q 1294 -91 989 -36 
Q 684 19 347 128 
L 347 722 
Q 666 556 975 473 
Q 1284 391 1588 391 
Q 1994 391 2212 530 
Q 2431 669 2431 922 
Q 2431 1156 2273 1281 
Q 2116 1406 1581 1522 
L 1381 1569 
Q 847 1681 609 1914 
Q 372 2147 372 2553 
Q 372 3047 722 3315 
Q 1072 3584 1716 3584 
Q 2034 3584 2315 3537 
Q 2597 3491 2834 3397 
z
" transform="scale(0.015625)"/>
      <path id="DejaVuSans-74" d="M 1172 4494 
L 1172 3500 
L 2356 3500 
L 2356 3053 
L 1172 3053 
L 1172 1153 
Q 1172 725 1289 603 
Q 1406 481 1766 481 
L 2356 481 
L 2356 0 
L 1766 0 
Q 1100 0 847 248 
Q 594 497 594 1153 
L 594 3053 
L 172 3053 
L 172 3500 
L 594 3500 
L 594 4494 
L 1172 4494 
z
" transform="scale(0.015625)"/>
      <path id="DejaVuSans-72" d="M 2631 2963 
Q 2534 3019 2420 3045 
Q 2306 3072 2169 3072 
Q 1681 3072 1420 2755 
Q 1159 2438 1159 1844 
L 1159 0 
L 581 0 
L 581 3500 
L 1159 3500 
L 1159 2956 
Q 1341 3275 1631 3429 
Q 1922 3584 2338 3584 
Q 2397 3584 2469 3576 
Q 2541 3569 2628 3553 
L 2631 2963 
z
" transform="scale(0.015625)"/>
      <path id="DejaVuSans-64" d="M 2906 2969 
L 2906 4863 
L 3481 4863 
L 3481 0 
L 2906 0 
L 2906 525 
Q 2725 213 2448 61 
Q 2172 -91 1784 -91 
Q 1150 -91 751 415 
Q 353 922 353 1747 
Q 353 2572 751 3078 
Q 1150 3584 1784 3584 
Q 2172 3584 2448 3432 
Q 2725 3281 2906 2969 
z
M 947 1747 
Q 947 1113 1208 752 
Q 1469 391 1925 391 
Q 2381 391 2643 752 
Q 2906 1113 2906 1747 
Q 2906 2381 2643 2742 
Q 2381 3103 1925 3103 
Q 1469 3103 1208 2742 
Q 947 2381 947 1747 
z
" transform="scale(0.015625)"/>
      <path id="DejaVuSans-20" transform="scale(0.015625)"/>
      <path id="DejaVuSans-54" d="M -19 4666 
L 3928 4666 
L 3928 4134 
L 2272 4134 
L 2272 0 
L 1638 0 
L 1638 4134 
L -19 4134 
L -19 4666 
z
" transform="scale(0.015625)"/>
      <path id="DejaVuSans-37" d="M 525 4666 
L 3525 4666 
L 3525 4397 
L 1831 0 
L 1172 0 
L 2766 4134 
L 525 4134 
L 525 4666 
z
" transform="scale(0.015625)"/>
     </defs>
     <use xlink:href="#DejaVuSans-67"/>
     <use xlink:href="#DejaVuSans-61" transform="translate(63.476562 0)"/>
     <use xlink:href="#DejaVuSans-6e" transform="translate(124.755859 0)"/>
     <use xlink:href="#DejaVuSans-5f" transform="translate(188.134766 0)"/>
     <use xlink:href="#DejaVuSans-49" transform="translate(238.134766 0)"/>
     <use xlink:href="#DejaVuSans-53" transform="translate(267.626953 0)"/>
     <use xlink:href="#DejaVuSans-5f" transform="translate(331.103516 0)"/>
     <use xlink:href="#DejaVuSans-46" transform="translate(381.103516 0)"/>
     <use xlink:href="#DejaVuSans-49" transform="translate(438.623047 0)"/>
     <use xlink:href="#DejaVuSans-44" transform="translate(468.115234 0)"/>
     <use xlink:href="#DejaVuSans-5f" transform="translate(545.117188 0)"/>
     <use xlink:href="#DejaVuSans-6d" transform="translate(595.117188 0)"/>
     <use xlink:href="#DejaVuSans-6e" transform="translate(692.529297 0)"/>
     <use xlink:href="#DejaVuSans-69" transform="translate(755.908203 0)"/>
     <use xlink:href="#DejaVuSans-73" transform="translate(783.691406 0)"/>
     <use xlink:href="#DejaVuSans-74" transform="translate(835.791016 0)"/>
     <use xlink:href="#DejaVuSans-5f" transform="translate(875 0)"/>
     <use xlink:href="#DejaVuSans-67" transform="translate(925 0)"/>
     <use xlink:href="#DejaVuSans-65" transform="translate(988.476562 0)"/>
     <use xlink:href="#DejaVuSans-6e" transform="translate(1050 0)"/>
     <use xlink:href="#DejaVuSans-65" transform="translate(1113.378906 0)"/>
     <use xlink:href="#DejaVuSans-72" transform="translate(1174.902344 0)"/>
     <use xlink:href="#DejaVuSans-61" transform="translate(1216.015625 0)"/>
     <use xlink:href="#DejaVuSans-74" transform="translate(1277.294922 0)"/>
     <use xlink:href="#DejaVuSans-6f" transform="translate(1316.503906 0)"/>
     <use xlink:href="#DejaVuSans-72" transform="translate(1377.685547 0)"/>
     <use xlink:href="#DejaVuSans-5f" transform="translate(1418.798828 0)"/>
     <use xlink:href="#DejaVuSans-64" transform="translate(1468.798828 0)"/>
     <use xlink:href="#DejaVuSans-69" transform="translate(1532.275391 0)"/>
     <use xlink:href="#DejaVuSans-73" transform="translate(1560.058594 0)"/>
     <use xlink:href="#DejaVuSans-63" transform="translate(1612.158203 0)"/>
     <use xlink:href="#DejaVuSans-72" transform="translate(1667.138672 0)"/>
     <use xlink:href="#DejaVuSans-69" transform="translate(1708.251953 0)"/>
     <use xlink:href="#DejaVuSans-6d" transform="translate(1736.035156 0)"/>
     <use xlink:href="#DejaVuSans-69" transform="translate(1833.447266 0)"/>
     <use xlink:href="#DejaVuSans-6e" transform="translate(1861.230469 0)"/>
     <use xlink:href="#DejaVuSans-61" transform="translate(1924.609375 0)"/>
     <use xlink:href="#DejaVuSans-74" transform="translate(1985.888672 0)"/>
     <use xlink:href="#DejaVuSans-6f" transform="translate(2025.097656 0)"/>
     <use xlink:href="#DejaVuSans-72" transform="translate(2086.279297 0)"/>
     <use xlink:href="#DejaVuSans-20" transform="translate(2127.392578 0)"/>
     <use xlink:href="#DejaVuSans-54" transform="translate(2159.179688 0)"/>
     <use xlink:href="#DejaVuSans-72" transform="translate(2205.513672 0)"/>
     <use xlink:href="#DejaVuSans-69" transform="translate(2246.626953 0)"/>
     <use xlink:href="#DejaVuSans-61" transform="translate(2274.410156 0)"/>
     <use xlink:href="#DejaVuSans-6c" transform="translate(2335.689453 0)"/>
     <use xlink:href="#DejaVuSans-20" transform="translate(2363.472656 0)"/>
     <use xlink:href="#DejaVuSans-37" transform="translate(2395.259766 0)"/>
    </g>
   </g>
   <g id="legend_1">
    <g id="patch_7">
     <path d="M 61.2 63.3525 
L 183.373438 63.3525 
Q 185.373438 63.3525 185.373438 61.3525 
L 185.373438 32.44 
Q 185.373438 30.44 183.373438 30.44 
L 61.2 30.44 
Q 59.2 30.44 59.2 32.44 
L 59.2 61.3525 
Q 59.2 63.3525 61.2 63.3525 
z
" style="fill: #ffffff; opacity: 0.8; stroke: #cccccc; stroke-linejoin: miter"/>
    </g>
    <g id="line2d_33">
     <path d="M 63.2 38.538438 
L 73.2 38.538438 
L 83.2 38.538438 
" style="fill: none; stroke: #ff0000; stroke-width: 1.5; stroke-linecap: square"/>
    </g>
    <g id="text_19">
     <!-- discriminator_loss -->
     <g transform="translate(91.2 42.038438) scale(0.1 -0.1)">
      <use xlink:href="#DejaVuSans-64"/>
      <use xlink:href="#DejaVuSans-69" transform="translate(63.476562 0)"/>
      <use xlink:href="#DejaVuSans-73" transform="translate(91.259766 0)"/>
      <use xlink:href="#DejaVuSans-63" transform="translate(143.359375 0)"/>
      <use xlink:href="#DejaVuSans-72" transform="translate(198.339844 0)"/>
      <use xlink:href="#DejaVuSans-69" transform="translate(239.453125 0)"/>
      <use xlink:href="#DejaVuSans-6d" transform="translate(267.236328 0)"/>
      <use xlink:href="#DejaVuSans-69" transform="translate(364.648438 0)"/>
      <use xlink:href="#DejaVuSans-6e" transform="translate(392.431641 0)"/>
      <use xlink:href="#DejaVuSans-61" transform="translate(455.810547 0)"/>
      <use xlink:href="#DejaVuSans-74" transform="translate(517.089844 0)"/>
      <use xlink:href="#DejaVuSans-6f" transform="translate(556.298828 0)"/>
      <use xlink:href="#DejaVuSans-72" transform="translate(617.480469 0)"/>
      <use xlink:href="#DejaVuSans-5f" transform="translate(658.59375 0)"/>
      <use xlink:href="#DejaVuSans-6c" transform="translate(708.59375 0)"/>
      <use xlink:href="#DejaVuSans-6f" transform="translate(736.376953 0)"/>
      <use xlink:href="#DejaVuSans-73" transform="translate(797.558594 0)"/>
      <use xlink:href="#DejaVuSans-73" transform="translate(849.658203 0)"/>
     </g>
    </g>
    <g id="line2d_34">
     <path d="M 63.2 53.494688 
L 73.2 53.494688 
L 83.2 53.494688 
" style="fill: none; stroke: #0000ff; stroke-width: 1.5; stroke-linecap: square"/>
    </g>
    <g id="text_20">
     <!-- generator_loss -->
     <g transform="translate(91.2 56.994688) scale(0.1 -0.1)">
      <use xlink:href="#DejaVuSans-67"/>
      <use xlink:href="#DejaVuSans-65" transform="translate(63.476562 0)"/>
      <use xlink:href="#DejaVuSans-6e" transform="translate(125 0)"/>
      <use xlink:href="#DejaVuSans-65" transform="translate(188.378906 0)"/>
      <use xlink:href="#DejaVuSans-72" transform="translate(249.902344 0)"/>
      <use xlink:href="#DejaVuSans-61" transform="translate(291.015625 0)"/>
      <use xlink:href="#DejaVuSans-74" transform="translate(352.294922 0)"/>
      <use xlink:href="#DejaVuSans-6f" transform="translate(391.503906 0)"/>
      <use xlink:href="#DejaVuSans-72" transform="translate(452.685547 0)"/>
      <use xlink:href="#DejaVuSans-5f" transform="translate(493.798828 0)"/>
      <use xlink:href="#DejaVuSans-6c" transform="translate(543.798828 0)"/>
      <use xlink:href="#DejaVuSans-6f" transform="translate(571.582031 0)"/>
      <use xlink:href="#DejaVuSans-73" transform="translate(632.763672 0)"/>
      <use xlink:href="#DejaVuSans-73" transform="translate(684.863281 0)"/>
     </g>
    </g>
   </g>
  </g>
 </g>
 <defs>
  <clipPath id="p072bcc4855">
   <rect x="54.2" y="25.44" width="652.768954" height="364.6"/>
  </clipPath>
 </defs>
</svg>
