<?xml version="1.0" encoding="utf-8" standalone="no"?>
<!DOCTYPE svg PUBLIC "-//W3C//DTD SVG 1.1//EN"
  "http://www.w3.org/Graphics/SVG/1.1/DTD/svg11.dtd">
<svg xmlns:xlink="http://www.w3.org/1999/xlink" width="720pt" height="432pt" viewBox="0 0 720 432" xmlns="http://www.w3.org/2000/svg" version="1.1">
 <metadata>
  <rdf:RDF xmlns:dc="http://purl.org/dc/elements/1.1/" xmlns:cc="http://creativecommons.org/ns#" xmlns:rdf="http://www.w3.org/1999/02/22-rdf-syntax-ns#">
   <cc:Work>
    <dc:type rdf:resource="http://purl.org/dc/dcmitype/StillImage"/>
    <dc:date>2025-06-21T13:25:14.187065</dc:date>
    <dc:format>image/svg+xml</dc:format>
    <dc:creator>
     <cc:Agent>
      <dc:title>Matplotlib v3.10.1, https://matplotlib.org/</dc:title>
     </cc:Agent>
    </dc:creator>
   </cc:Work>
  </rdf:RDF>
 </metadata>
 <defs>
  <style type="text/css">*{stroke-linejoin: round; stroke-linecap: butt}</style>
 </defs>
 <g id="figure_1">
  <g id="patch_1">
   <path d="M 0 432 
L 720 432 
L 720 0 
L 0 0 
z
" style="fill: #ffffff"/>
  </g>
  <g id="axes_1">
   <g id="patch_2">
    <path d="M 47.81 390.04 
L 709.2 390.04 
L 709.2 25.44 
L 47.81 25.44 
z
" style="fill: #ffffff"/>
   </g>
   <g id="matplotlib.axis_1">
    <g id="xtick_1">
     <g id="line2d_1">
      <path d="M 77.873182 390.04 
L 77.873182 25.44 
" clip-path="url(#pd1ae9c8274)" style="fill: none; stroke: #b0b0b0; stroke-width: 0.8; stroke-linecap: square"/>
     </g>
     <g id="line2d_2">
      <defs>
       <path id="m1355a81eb9" d="M 0 0 
L 0 3.5 
" style="stroke: #000000; stroke-width: 0.8"/>
      </defs>
      <g>
       <use xlink:href="#m1355a81eb9" x="77.873182" y="390.04" style="stroke: #000000; stroke-width: 0.8"/>
      </g>
     </g>
     <g id="text_1">
      <!-- 0 -->
      <g transform="translate(74.691932 404.638438) scale(0.1 -0.1)">
       <defs>
        <path id="DejaVuSans-30" d="M 2034 4250 
Q 1547 4250 1301 3770 
Q 1056 3291 1056 2328 
Q 1056 1369 1301 889 
Q 1547 409 2034 409 
Q 2525 409 2770 889 
Q 3016 1369 3016 2328 
Q 3016 3291 2770 3770 
Q 2525 4250 2034 4250 
z
M 2034 4750 
Q 2819 4750 3233 4129 
Q 3647 3509 3647 2328 
Q 3647 1150 3233 529 
Q 2819 -91 2034 -91 
Q 1250 -91 836 529 
Q 422 1150 422 2328 
Q 422 3509 836 4129 
Q 1250 4750 2034 4750 
z
" transform="scale(0.015625)"/>
       </defs>
       <use xlink:href="#DejaVuSans-30"/>
      </g>
     </g>
    </g>
    <g id="xtick_2">
     <g id="line2d_3">
      <path d="M 165.777222 390.04 
L 165.777222 25.44 
" clip-path="url(#pd1ae9c8274)" style="fill: none; stroke: #b0b0b0; stroke-width: 0.8; stroke-linecap: square"/>
     </g>
     <g id="line2d_4">
      <g>
       <use xlink:href="#m1355a81eb9" x="165.777222" y="390.04" style="stroke: #000000; stroke-width: 0.8"/>
      </g>
     </g>
     <g id="text_2">
      <!-- 25 -->
      <g transform="translate(159.414722 404.638438) scale(0.1 -0.1)">
       <defs>
        <path id="DejaVuSans-32" d="M 1228 531 
L 3431 531 
L 3431 0 
L 469 0 
L 469 531 
Q 828 903 1448 1529 
Q 2069 2156 2228 2338 
Q 2531 2678 2651 2914 
Q 2772 3150 2772 3378 
Q 2772 3750 2511 3984 
Q 2250 4219 1831 4219 
Q 1534 4219 1204 4116 
Q 875 4013 500 3803 
L 500 4441 
Q 881 4594 1212 4672 
Q 1544 4750 1819 4750 
Q 2544 4750 2975 4387 
Q 3406 4025 3406 3419 
Q 3406 3131 3298 2873 
Q 3191 2616 2906 2266 
Q 2828 2175 2409 1742 
Q 1991 1309 1228 531 
z
" transform="scale(0.015625)"/>
        <path id="DejaVuSans-35" d="M 691 4666 
L 3169 4666 
L 3169 4134 
L 1269 4134 
L 1269 2991 
Q 1406 3038 1543 3061 
Q 1681 3084 1819 3084 
Q 2600 3084 3056 2656 
Q 3513 2228 3513 1497 
Q 3513 744 3044 326 
Q 2575 -91 1722 -91 
Q 1428 -91 1123 -41 
Q 819 9 494 109 
L 494 744 
Q 775 591 1075 516 
Q 1375 441 1709 441 
Q 2250 441 2565 725 
Q 2881 1009 2881 1497 
Q 2881 1984 2565 2268 
Q 2250 2553 1709 2553 
Q 1456 2553 1204 2497 
Q 953 2441 691 2322 
L 691 4666 
z
" transform="scale(0.015625)"/>
       </defs>
       <use xlink:href="#DejaVuSans-32"/>
       <use xlink:href="#DejaVuSans-35" transform="translate(63.623047 0)"/>
      </g>
     </g>
    </g>
    <g id="xtick_3">
     <g id="line2d_5">
      <path d="M 253.681263 390.04 
L 253.681263 25.44 
" clip-path="url(#pd1ae9c8274)" style="fill: none; stroke: #b0b0b0; stroke-width: 0.8; stroke-linecap: square"/>
     </g>
     <g id="line2d_6">
      <g>
       <use xlink:href="#m1355a81eb9" x="253.681263" y="390.04" style="stroke: #000000; stroke-width: 0.8"/>
      </g>
     </g>
     <g id="text_3">
      <!-- 50 -->
      <g transform="translate(247.318763 404.638438) scale(0.1 -0.1)">
       <use xlink:href="#DejaVuSans-35"/>
       <use xlink:href="#DejaVuSans-30" transform="translate(63.623047 0)"/>
      </g>
     </g>
    </g>
    <g id="xtick_4">
     <g id="line2d_7">
      <path d="M 341.585303 390.04 
L 341.585303 25.44 
" clip-path="url(#pd1ae9c8274)" style="fill: none; stroke: #b0b0b0; stroke-width: 0.8; stroke-linecap: square"/>
     </g>
     <g id="line2d_8">
      <g>
       <use xlink:href="#m1355a81eb9" x="341.585303" y="390.04" style="stroke: #000000; stroke-width: 0.8"/>
      </g>
     </g>
     <g id="text_4">
      <!-- 75 -->
      <g transform="translate(335.222803 404.638438) scale(0.1 -0.1)">
       <defs>
        <path id="DejaVuSans-37" d="M 525 4666 
L 3525 4666 
L 3525 4397 
L 1831 0 
L 1172 0 
L 2766 4134 
L 525 4134 
L 525 4666 
z
" transform="scale(0.015625)"/>
       </defs>
       <use xlink:href="#DejaVuSans-37"/>
       <use xlink:href="#DejaVuSans-35" transform="translate(63.623047 0)"/>
      </g>
     </g>
    </g>
    <g id="xtick_5">
     <g id="line2d_9">
      <path d="M 429.489343 390.04 
L 429.489343 25.44 
" clip-path="url(#pd1ae9c8274)" style="fill: none; stroke: #b0b0b0; stroke-width: 0.8; stroke-linecap: square"/>
     </g>
     <g id="line2d_10">
      <g>
       <use xlink:href="#m1355a81eb9" x="429.489343" y="390.04" style="stroke: #000000; stroke-width: 0.8"/>
      </g>
     </g>
     <g id="text_5">
      <!-- 100 -->
      <g transform="translate(419.945593 404.638438) scale(0.1 -0.1)">
       <defs>
        <path id="DejaVuSans-31" d="M 794 531 
L 1825 531 
L 1825 4091 
L 703 3866 
L 703 4441 
L 1819 4666 
L 2450 4666 
L 2450 531 
L 3481 531 
L 3481 0 
L 794 0 
L 794 531 
z
" transform="scale(0.015625)"/>
       </defs>
       <use xlink:href="#DejaVuSans-31"/>
       <use xlink:href="#DejaVuSans-30" transform="translate(63.623047 0)"/>
       <use xlink:href="#DejaVuSans-30" transform="translate(127.246094 0)"/>
      </g>
     </g>
    </g>
    <g id="xtick_6">
     <g id="line2d_11">
      <path d="M 517.393384 390.04 
L 517.393384 25.44 
" clip-path="url(#pd1ae9c8274)" style="fill: none; stroke: #b0b0b0; stroke-width: 0.8; stroke-linecap: square"/>
     </g>
     <g id="line2d_12">
      <g>
       <use xlink:href="#m1355a81eb9" x="517.393384" y="390.04" style="stroke: #000000; stroke-width: 0.8"/>
      </g>
     </g>
     <g id="text_6">
      <!-- 125 -->
      <g transform="translate(507.849634 404.638438) scale(0.1 -0.1)">
       <use xlink:href="#DejaVuSans-31"/>
       <use xlink:href="#DejaVuSans-32" transform="translate(63.623047 0)"/>
       <use xlink:href="#DejaVuSans-35" transform="translate(127.246094 0)"/>
      </g>
     </g>
    </g>
    <g id="xtick_7">
     <g id="line2d_13">
      <path d="M 605.297424 390.04 
L 605.297424 25.44 
" clip-path="url(#pd1ae9c8274)" style="fill: none; stroke: #b0b0b0; stroke-width: 0.8; stroke-linecap: square"/>
     </g>
     <g id="line2d_14">
      <g>
       <use xlink:href="#m1355a81eb9" x="605.297424" y="390.04" style="stroke: #000000; stroke-width: 0.8"/>
      </g>
     </g>
     <g id="text_7">
      <!-- 150 -->
      <g transform="translate(595.753674 404.638438) scale(0.1 -0.1)">
       <use xlink:href="#DejaVuSans-31"/>
       <use xlink:href="#DejaVuSans-35" transform="translate(63.623047 0)"/>
       <use xlink:href="#DejaVuSans-30" transform="translate(127.246094 0)"/>
      </g>
     </g>
    </g>
    <g id="xtick_8">
     <g id="line2d_15">
      <path d="M 693.201465 390.04 
L 693.201465 25.44 
" clip-path="url(#pd1ae9c8274)" style="fill: none; stroke: #b0b0b0; stroke-width: 0.8; stroke-linecap: square"/>
     </g>
     <g id="line2d_16">
      <g>
       <use xlink:href="#m1355a81eb9" x="693.201465" y="390.04" style="stroke: #000000; stroke-width: 0.8"/>
      </g>
     </g>
     <g id="text_8">
      <!-- 175 -->
      <g transform="translate(683.657715 404.638438) scale(0.1 -0.1)">
       <use xlink:href="#DejaVuSans-31"/>
       <use xlink:href="#DejaVuSans-37" transform="translate(63.623047 0)"/>
       <use xlink:href="#DejaVuSans-35" transform="translate(127.246094 0)"/>
      </g>
     </g>
    </g>
    <g id="text_9">
     <!-- Epoch -->
     <g transform="translate(363.194063 418.316562) scale(0.1 -0.1)">
      <defs>
       <path id="DejaVuSans-45" d="M 628 4666 
L 3578 4666 
L 3578 4134 
L 1259 4134 
L 1259 2753 
L 3481 2753 
L 3481 2222 
L 1259 2222 
L 1259 531 
L 3634 531 
L 3634 0 
L 628 0 
L 628 4666 
z
" transform="scale(0.015625)"/>
       <path id="DejaVuSans-70" d="M 1159 525 
L 1159 -1331 
L 581 -1331 
L 581 3500 
L 1159 3500 
L 1159 2969 
Q 1341 3281 1617 3432 
Q 1894 3584 2278 3584 
Q 2916 3584 3314 3078 
Q 3713 2572 3713 1747 
Q 3713 922 3314 415 
Q 2916 -91 2278 -91 
Q 1894 -91 1617 61 
Q 1341 213 1159 525 
z
M 3116 1747 
Q 3116 2381 2855 2742 
Q 2594 3103 2138 3103 
Q 1681 3103 1420 2742 
Q 1159 2381 1159 1747 
Q 1159 1113 1420 752 
Q 1681 391 2138 391 
Q 2594 391 2855 752 
Q 3116 1113 3116 1747 
z
" transform="scale(0.015625)"/>
       <path id="DejaVuSans-6f" d="M 1959 3097 
Q 1497 3097 1228 2736 
Q 959 2375 959 1747 
Q 959 1119 1226 758 
Q 1494 397 1959 397 
Q 2419 397 2687 759 
Q 2956 1122 2956 1747 
Q 2956 2369 2687 2733 
Q 2419 3097 1959 3097 
z
M 1959 3584 
Q 2709 3584 3137 3096 
Q 3566 2609 3566 1747 
Q 3566 888 3137 398 
Q 2709 -91 1959 -91 
Q 1206 -91 779 398 
Q 353 888 353 1747 
Q 353 2609 779 3096 
Q 1206 3584 1959 3584 
z
" transform="scale(0.015625)"/>
       <path id="DejaVuSans-63" d="M 3122 3366 
L 3122 2828 
Q 2878 2963 2633 3030 
Q 2388 3097 2138 3097 
Q 1578 3097 1268 2742 
Q 959 2388 959 1747 
Q 959 1106 1268 751 
Q 1578 397 2138 397 
Q 2388 397 2633 464 
Q 2878 531 3122 666 
L 3122 134 
Q 2881 22 2623 -34 
Q 2366 -91 2075 -91 
Q 1284 -91 818 406 
Q 353 903 353 1747 
Q 353 2603 823 3093 
Q 1294 3584 2113 3584 
Q 2378 3584 2631 3529 
Q 2884 3475 3122 3366 
z
" transform="scale(0.015625)"/>
       <path id="DejaVuSans-68" d="M 3513 2113 
L 3513 0 
L 2938 0 
L 2938 2094 
Q 2938 2591 2744 2837 
Q 2550 3084 2163 3084 
Q 1697 3084 1428 2787 
Q 1159 2491 1159 1978 
L 1159 0 
L 581 0 
L 581 4863 
L 1159 4863 
L 1159 2956 
Q 1366 3272 1645 3428 
Q 1925 3584 2291 3584 
Q 2894 3584 3203 3211 
Q 3513 2838 3513 2113 
z
" transform="scale(0.015625)"/>
      </defs>
      <use xlink:href="#DejaVuSans-45"/>
      <use xlink:href="#DejaVuSans-70" transform="translate(63.183594 0)"/>
      <use xlink:href="#DejaVuSans-6f" transform="translate(126.660156 0)"/>
      <use xlink:href="#DejaVuSans-63" transform="translate(187.841797 0)"/>
      <use xlink:href="#DejaVuSans-68" transform="translate(242.822266 0)"/>
     </g>
    </g>
   </g>
   <g id="matplotlib.axis_2">
    <g id="ytick_1">
     <g id="line2d_17">
      <path d="M 47.81 376.82675 
L 709.2 376.82675 
" clip-path="url(#pd1ae9c8274)" style="fill: none; stroke: #b0b0b0; stroke-width: 0.8; stroke-linecap: square"/>
     </g>
     <g id="line2d_18">
      <defs>
       <path id="mef3eef1f83" d="M 0 0 
L -3.5 0 
" style="stroke: #000000; stroke-width: 0.8"/>
      </defs>
      <g>
       <use xlink:href="#mef3eef1f83" x="47.81" y="376.82675" style="stroke: #000000; stroke-width: 0.8"/>
      </g>
     </g>
     <g id="text_10">
      <!-- 0.0 -->
      <g transform="translate(24.906875 380.625969) scale(0.1 -0.1)">
       <defs>
        <path id="DejaVuSans-2e" d="M 684 794 
L 1344 794 
L 1344 0 
L 684 0 
L 684 794 
z
" transform="scale(0.015625)"/>
       </defs>
       <use xlink:href="#DejaVuSans-30"/>
       <use xlink:href="#DejaVuSans-2e" transform="translate(63.623047 0)"/>
       <use xlink:href="#DejaVuSans-30" transform="translate(95.410156 0)"/>
      </g>
     </g>
    </g>
    <g id="ytick_2">
     <g id="line2d_19">
      <path d="M 47.81 309.860333 
L 709.2 309.860333 
" clip-path="url(#pd1ae9c8274)" style="fill: none; stroke: #b0b0b0; stroke-width: 0.8; stroke-linecap: square"/>
     </g>
     <g id="line2d_20">
      <g>
       <use xlink:href="#mef3eef1f83" x="47.81" y="309.860333" style="stroke: #000000; stroke-width: 0.8"/>
      </g>
     </g>
     <g id="text_11">
      <!-- 0.2 -->
      <g transform="translate(24.906875 313.659552) scale(0.1 -0.1)">
       <use xlink:href="#DejaVuSans-30"/>
       <use xlink:href="#DejaVuSans-2e" transform="translate(63.623047 0)"/>
       <use xlink:href="#DejaVuSans-32" transform="translate(95.410156 0)"/>
      </g>
     </g>
    </g>
    <g id="ytick_3">
     <g id="line2d_21">
      <path d="M 47.81 242.893917 
L 709.2 242.893917 
" clip-path="url(#pd1ae9c8274)" style="fill: none; stroke: #b0b0b0; stroke-width: 0.8; stroke-linecap: square"/>
     </g>
     <g id="line2d_22">
      <g>
       <use xlink:href="#mef3eef1f83" x="47.81" y="242.893917" style="stroke: #000000; stroke-width: 0.8"/>
      </g>
     </g>
     <g id="text_12">
      <!-- 0.4 -->
      <g transform="translate(24.906875 246.693135) scale(0.1 -0.1)">
       <defs>
        <path id="DejaVuSans-34" d="M 2419 4116 
L 825 1625 
L 2419 1625 
L 2419 4116 
z
M 2253 4666 
L 3047 4666 
L 3047 1625 
L 3713 1625 
L 3713 1100 
L 3047 1100 
L 3047 0 
L 2419 0 
L 2419 1100 
L 313 1100 
L 313 1709 
L 2253 4666 
z
" transform="scale(0.015625)"/>
       </defs>
       <use xlink:href="#DejaVuSans-30"/>
       <use xlink:href="#DejaVuSans-2e" transform="translate(63.623047 0)"/>
       <use xlink:href="#DejaVuSans-34" transform="translate(95.410156 0)"/>
      </g>
     </g>
    </g>
    <g id="ytick_4">
     <g id="line2d_23">
      <path d="M 47.81 175.9275 
L 709.2 175.9275 
" clip-path="url(#pd1ae9c8274)" style="fill: none; stroke: #b0b0b0; stroke-width: 0.8; stroke-linecap: square"/>
     </g>
     <g id="line2d_24">
      <g>
       <use xlink:href="#mef3eef1f83" x="47.81" y="175.9275" style="stroke: #000000; stroke-width: 0.8"/>
      </g>
     </g>
     <g id="text_13">
      <!-- 0.6 -->
      <g transform="translate(24.906875 179.726718) scale(0.1 -0.1)">
       <defs>
        <path id="DejaVuSans-36" d="M 2113 2584 
Q 1688 2584 1439 2293 
Q 1191 2003 1191 1497 
Q 1191 994 1439 701 
Q 1688 409 2113 409 
Q 2538 409 2786 701 
Q 3034 994 3034 1497 
Q 3034 2003 2786 2293 
Q 2538 2584 2113 2584 
z
M 3366 4563 
L 3366 3988 
Q 3128 4100 2886 4159 
Q 2644 4219 2406 4219 
Q 1781 4219 1451 3797 
Q 1122 3375 1075 2522 
Q 1259 2794 1537 2939 
Q 1816 3084 2150 3084 
Q 2853 3084 3261 2657 
Q 3669 2231 3669 1497 
Q 3669 778 3244 343 
Q 2819 -91 2113 -91 
Q 1303 -91 875 529 
Q 447 1150 447 2328 
Q 447 3434 972 4092 
Q 1497 4750 2381 4750 
Q 2619 4750 2861 4703 
Q 3103 4656 3366 4563 
z
" transform="scale(0.015625)"/>
       </defs>
       <use xlink:href="#DejaVuSans-30"/>
       <use xlink:href="#DejaVuSans-2e" transform="translate(63.623047 0)"/>
       <use xlink:href="#DejaVuSans-36" transform="translate(95.410156 0)"/>
      </g>
     </g>
    </g>
    <g id="ytick_5">
     <g id="line2d_25">
      <path d="M 47.81 108.961083 
L 709.2 108.961083 
" clip-path="url(#pd1ae9c8274)" style="fill: none; stroke: #b0b0b0; stroke-width: 0.8; stroke-linecap: square"/>
     </g>
     <g id="line2d_26">
      <g>
       <use xlink:href="#mef3eef1f83" x="47.81" y="108.961083" style="stroke: #000000; stroke-width: 0.8"/>
      </g>
     </g>
     <g id="text_14">
      <!-- 0.8 -->
      <g transform="translate(24.906875 112.760301) scale(0.1 -0.1)">
       <defs>
        <path id="DejaVuSans-38" d="M 2034 2216 
Q 1584 2216 1326 1975 
Q 1069 1734 1069 1313 
Q 1069 891 1326 650 
Q 1584 409 2034 409 
Q 2484 409 2743 651 
Q 3003 894 3003 1313 
Q 3003 1734 2745 1975 
Q 2488 2216 2034 2216 
z
M 1403 2484 
Q 997 2584 770 2862 
Q 544 3141 544 3541 
Q 544 4100 942 4425 
Q 1341 4750 2034 4750 
Q 2731 4750 3128 4425 
Q 3525 4100 3525 3541 
Q 3525 3141 3298 2862 
Q 3072 2584 2669 2484 
Q 3125 2378 3379 2068 
Q 3634 1759 3634 1313 
Q 3634 634 3220 271 
Q 2806 -91 2034 -91 
Q 1263 -91 848 271 
Q 434 634 434 1313 
Q 434 1759 690 2068 
Q 947 2378 1403 2484 
z
M 1172 3481 
Q 1172 3119 1398 2916 
Q 1625 2713 2034 2713 
Q 2441 2713 2670 2916 
Q 2900 3119 2900 3481 
Q 2900 3844 2670 4047 
Q 2441 4250 2034 4250 
Q 1625 4250 1398 4047 
Q 1172 3844 1172 3481 
z
" transform="scale(0.015625)"/>
       </defs>
       <use xlink:href="#DejaVuSans-30"/>
       <use xlink:href="#DejaVuSans-2e" transform="translate(63.623047 0)"/>
       <use xlink:href="#DejaVuSans-38" transform="translate(95.410156 0)"/>
      </g>
     </g>
    </g>
    <g id="ytick_6">
     <g id="line2d_27">
      <path d="M 47.81 41.994666 
L 709.2 41.994666 
" clip-path="url(#pd1ae9c8274)" style="fill: none; stroke: #b0b0b0; stroke-width: 0.8; stroke-linecap: square"/>
     </g>
     <g id="line2d_28">
      <g>
       <use xlink:href="#mef3eef1f83" x="47.81" y="41.994666" style="stroke: #000000; stroke-width: 0.8"/>
      </g>
     </g>
     <g id="text_15">
      <!-- 1.0 -->
      <g transform="translate(24.906875 45.793884) scale(0.1 -0.1)">
       <use xlink:href="#DejaVuSans-31"/>
       <use xlink:href="#DejaVuSans-2e" transform="translate(63.623047 0)"/>
       <use xlink:href="#DejaVuSans-30" transform="translate(95.410156 0)"/>
      </g>
     </g>
    </g>
    <g id="text_16">
     <!-- Value -->
     <g transform="translate(18.827188 221.47125) rotate(-90) scale(0.1 -0.1)">
      <defs>
       <path id="DejaVuSans-56" d="M 1831 0 
L 50 4666 
L 709 4666 
L 2188 738 
L 3669 4666 
L 4325 4666 
L 2547 0 
L 1831 0 
z
" transform="scale(0.015625)"/>
       <path id="DejaVuSans-61" d="M 2194 1759 
Q 1497 1759 1228 1600 
Q 959 1441 959 1056 
Q 959 750 1161 570 
Q 1363 391 1709 391 
Q 2188 391 2477 730 
Q 2766 1069 2766 1631 
L 2766 1759 
L 2194 1759 
z
M 3341 1997 
L 3341 0 
L 2766 0 
L 2766 531 
Q 2569 213 2275 61 
Q 1981 -91 1556 -91 
Q 1019 -91 701 211 
Q 384 513 384 1019 
Q 384 1609 779 1909 
Q 1175 2209 1959 2209 
L 2766 2209 
L 2766 2266 
Q 2766 2663 2505 2880 
Q 2244 3097 1772 3097 
Q 1472 3097 1187 3025 
Q 903 2953 641 2809 
L 641 3341 
Q 956 3463 1253 3523 
Q 1550 3584 1831 3584 
Q 2591 3584 2966 3190 
Q 3341 2797 3341 1997 
z
" transform="scale(0.015625)"/>
       <path id="DejaVuSans-6c" d="M 603 4863 
L 1178 4863 
L 1178 0 
L 603 0 
L 603 4863 
z
" transform="scale(0.015625)"/>
       <path id="DejaVuSans-75" d="M 544 1381 
L 544 3500 
L 1119 3500 
L 1119 1403 
Q 1119 906 1312 657 
Q 1506 409 1894 409 
Q 2359 409 2629 706 
Q 2900 1003 2900 1516 
L 2900 3500 
L 3475 3500 
L 3475 0 
L 2900 0 
L 2900 538 
Q 2691 219 2414 64 
Q 2138 -91 1772 -91 
Q 1169 -91 856 284 
Q 544 659 544 1381 
z
M 1991 3584 
L 1991 3584 
z
" transform="scale(0.015625)"/>
       <path id="DejaVuSans-65" d="M 3597 1894 
L 3597 1613 
L 953 1613 
Q 991 1019 1311 708 
Q 1631 397 2203 397 
Q 2534 397 2845 478 
Q 3156 559 3463 722 
L 3463 178 
Q 3153 47 2828 -22 
Q 2503 -91 2169 -91 
Q 1331 -91 842 396 
Q 353 884 353 1716 
Q 353 2575 817 3079 
Q 1281 3584 2069 3584 
Q 2775 3584 3186 3129 
Q 3597 2675 3597 1894 
z
M 3022 2063 
Q 3016 2534 2758 2815 
Q 2500 3097 2075 3097 
Q 1594 3097 1305 2825 
Q 1016 2553 972 2059 
L 3022 2063 
z
" transform="scale(0.015625)"/>
      </defs>
      <use xlink:href="#DejaVuSans-56"/>
      <use xlink:href="#DejaVuSans-61" transform="translate(60.658203 0)"/>
      <use xlink:href="#DejaVuSans-6c" transform="translate(121.9375 0)"/>
      <use xlink:href="#DejaVuSans-75" transform="translate(149.720703 0)"/>
      <use xlink:href="#DejaVuSans-65" transform="translate(213.099609 0)"/>
     </g>
    </g>
   </g>
   <g id="line2d_29">
    <path d="M 77.873182 373.117595 
L 81.389343 372.57349 
L 84.905505 372.858006 
L 88.421667 373.352199 
L 91.937828 373.467273 
L 95.45399 372.396458 
L 98.970152 373.000651 
L 102.486313 372.898819 
L 109.518636 373.077104 
L 113.034798 373.378923 
L 116.55096 370.716266 
L 120.067121 373.178592 
L 123.583283 372.885704 
L 127.099444 373.281759 
L 130.615606 373.189057 
L 134.131768 372.28276 
L 137.647929 372.889503 
L 141.164091 372.695473 
L 148.196414 372.628063 
L 151.712576 373.159151 
L 155.228737 372.283783 
L 158.744899 372.154594 
L 165.777222 373.093982 
L 169.293384 371.949899 
L 172.809545 373.150738 
L 176.325707 372.583526 
L 179.841869 372.983759 
L 183.35803 372.663124 
L 186.874192 372.947506 
L 190.390354 372.722649 
L 197.422677 372.882884 
L 200.938838 373.311221 
L 204.455 372.528145 
L 211.487323 373.324355 
L 215.003485 372.389217 
L 218.519646 373.301825 
L 222.035808 372.68669 
L 225.55197 373.159699 
L 239.616616 372.444959 
L 243.132778 372.685826 
L 246.648939 372.171714 
L 250.165101 372.934883 
L 253.681263 372.597543 
L 257.197424 372.875649 
L 260.713586 372.868768 
L 264.229747 372.635044 
L 271.262071 373.193871 
L 274.778232 371.982672 
L 278.294394 372.70589 
L 281.810556 372.847329 
L 285.326717 372.68528 
L 288.842879 372.369054 
L 292.35904 372.294795 
L 295.875202 372.898631 
L 299.391364 372.791418 
L 302.907525 372.502893 
L 306.423687 372.966948 
L 309.939848 372.915412 
L 313.45601 372.439292 
L 316.972172 372.301529 
L 320.488333 373.345777 
L 324.004495 372.987717 
L 327.520657 372.362153 
L 331.036818 373.168573 
L 334.55298 372.182561 
L 338.069141 372.870529 
L 341.585303 372.548406 
L 345.101465 373.044092 
L 348.617626 372.606932 
L 352.133788 373.437138 
L 355.649949 372.372182 
L 359.166111 372.609667 
L 362.682273 372.535795 
L 366.198434 372.60846 
L 369.714596 372.90289 
L 373.230758 372.510426 
L 376.746919 372.788116 
L 380.263081 371.794792 
L 383.779242 372.623039 
L 387.295404 372.45814 
L 390.811566 371.730748 
L 394.327727 372.984283 
L 397.843889 371.823368 
L 401.360051 372.922564 
L 404.876212 371.322209 
L 408.392374 372.009143 
L 411.908535 371.929713 
L 415.424697 370.969791 
L 418.940859 370.896245 
L 422.45702 372.173351 
L 425.973182 370.951743 
L 429.489343 372.440995 
L 433.005505 371.228483 
L 436.521667 371.453269 
L 440.037828 372.166115 
L 443.55399 370.957495 
L 447.070152 371.929595 
L 450.586313 372.242859 
L 454.102475 371.193388 
L 457.618636 372.519208 
L 461.134798 373.142326 
L 464.65096 371.728898 
L 468.167121 371.84175 
L 471.683283 372.718246 
L 475.199444 372.534974 
L 478.715606 372.641803 
L 482.231768 372.597291 
L 489.264091 371.182208 
L 492.780253 372.482031 
L 499.812576 372.146799 
L 503.328737 372.667232 
L 506.844899 370.390613 
L 510.361061 372.160041 
L 513.877222 371.387003 
L 517.393384 371.858026 
L 520.909545 372.044719 
L 524.425707 371.763664 
L 527.941869 372.560183 
L 531.45803 372.952966 
L 534.974192 371.703849 
L 538.490354 371.727027 
L 542.006515 372.496524 
L 549.038838 371.840316 
L 552.555 372.756656 
L 556.071162 371.70692 
L 559.587323 372.079332 
L 563.103485 372.243979 
L 566.619646 372.742712 
L 570.135808 372.113138 
L 573.65197 372.802478 
L 577.168131 372.762818 
L 580.684293 372.273033 
L 584.200455 372.046747 
L 587.716616 372.950839 
L 591.232778 371.489474 
L 598.265101 373.347598 
L 601.781263 372.174781 
L 605.297424 372.727968 
L 608.813586 371.980222 
L 612.329747 372.473301 
L 615.845909 371.94023 
L 619.362071 372.667856 
L 622.878232 370.676524 
L 626.394394 372.066729 
L 629.910556 371.155131 
L 633.426717 371.06699 
L 636.942879 373.206489 
L 640.45904 371.495636 
L 643.975202 372.989611 
L 647.491364 371.565542 
L 651.007525 372.459645 
L 654.523687 370.978485 
L 658.039848 371.777124 
L 661.55601 373.361902 
L 665.072172 372.0851 
L 668.588333 372.190444 
L 672.104495 372.003445 
L 675.620657 372.155274 
L 679.136818 371.830027 
L 679.136818 371.830027 
" clip-path="url(#pd1ae9c8274)" style="fill: none; stroke: #ff0000; stroke-width: 1.5; stroke-linecap: square"/>
   </g>
   <g id="line2d_30">
    <path d="M 77.873182 42.144407 
L 81.389343 42.66031 
L 84.905505 42.501348 
L 88.421667 42.094234 
L 91.937828 42.012727 
L 95.45399 42.761574 
L 98.970152 42.295725 
L 106.002475 42.306223 
L 113.034798 42.121316 
L 116.55096 44.273957 
L 120.067121 42.187955 
L 123.583283 42.281496 
L 127.099444 42.10084 
L 134.131768 42.48133 
L 137.647929 42.311991 
L 141.164091 42.663164 
L 144.680253 42.45806 
L 148.196414 42.577107 
L 151.712576 42.197774 
L 155.228737 42.531025 
L 158.744899 42.407108 
L 162.261061 42.400323 
L 165.777222 42.181728 
L 169.293384 42.933469 
L 172.809545 42.147501 
L 176.325707 42.405552 
L 179.841869 42.290556 
L 186.874192 42.353582 
L 190.390354 42.694118 
L 193.906515 42.331489 
L 200.938838 42.088147 
L 204.455 42.61802 
L 207.971162 42.165303 
L 211.487323 42.123073 
L 215.003485 42.620075 
L 218.519646 42.139897 
L 222.035808 42.252737 
L 229.068131 42.178555 
L 236.100455 42.445966 
L 243.132778 42.304247 
L 246.648939 42.810889 
L 250.165101 42.236471 
L 253.681263 42.376294 
L 257.197424 42.218669 
L 260.713586 42.21368 
L 264.229747 42.428443 
L 267.745909 42.236332 
L 271.262071 42.162848 
L 274.778232 42.764768 
L 278.294394 42.434291 
L 285.326717 42.292891 
L 288.842879 42.89529 
L 292.35904 42.424292 
L 295.875202 42.279739 
L 299.391364 42.486799 
L 306.423687 42.172268 
L 309.939848 42.129898 
L 313.45601 42.578803 
L 316.972172 42.417167 
L 320.488333 42.030011 
L 324.004495 42.209549 
L 327.520657 42.682922 
L 331.036818 42.12876 
L 334.55298 42.676276 
L 338.069141 42.239206 
L 345.101465 42.190409 
L 348.617626 42.532302 
L 352.133788 42.016978 
L 355.649949 42.669271 
L 359.166111 42.42044 
L 369.714596 42.296005 
L 373.230758 42.563875 
L 376.746919 42.225016 
L 380.263081 42.424491 
L 383.779242 42.772511 
L 387.295404 42.262217 
L 390.811566 42.679429 
L 394.327727 42.312849 
L 397.843889 42.507235 
L 401.360051 42.330212 
L 404.876212 43.413627 
L 408.392374 42.41555 
L 411.908535 42.539407 
L 415.424697 43.357547 
L 418.940859 43.333737 
L 422.45702 42.364279 
L 425.973182 43.15855 
L 429.489343 42.637039 
L 433.005505 43.069918 
L 440.037828 42.778359 
L 443.55399 42.805002 
L 450.586313 42.506896 
L 454.102475 42.656977 
L 457.618636 42.552798 
L 461.134798 42.123851 
L 464.65096 42.859905 
L 468.167121 42.962287 
L 471.683283 42.426467 
L 475.199444 42.816138 
L 478.715606 42.31217 
L 482.231768 42.531464 
L 485.747929 42.878566 
L 489.264091 42.419163 
L 492.780253 42.296284 
L 496.296414 42.583852 
L 499.812576 42.456384 
L 503.328737 42.202683 
L 506.844899 43.046828 
L 517.393384 42.53793 
L 520.909545 42.710184 
L 524.425707 42.585728 
L 527.941869 42.337816 
L 531.45803 42.219068 
L 534.974192 42.419482 
L 538.490354 42.798875 
L 542.006515 42.5523 
L 549.038838 42.72154 
L 552.555 42.606145 
L 556.071162 43.297913 
L 559.587323 42.492187 
L 563.103485 42.256948 
L 573.65197 42.213081 
L 577.168131 42.341548 
L 580.684293 42.308139 
L 584.200455 42.450257 
L 587.716616 42.151412 
L 591.232778 42.487378 
L 594.748939 42.436646 
L 598.265101 42.101738 
L 601.781263 42.20412 
L 605.297424 42.158697 
L 608.813586 42.710244 
L 612.329747 42.204779 
L 615.845909 43.015814 
L 619.362071 42.521964 
L 622.878232 43.423167 
L 626.394394 42.789874 
L 629.910556 42.580739 
L 633.426717 42.772591 
L 636.942879 42.179373 
L 640.45904 42.535795 
L 643.975202 42.11942 
L 647.491364 42.441795 
L 651.007525 42.506497 
L 654.523687 43.312263 
L 658.039848 42.471491 
L 661.55601 42.089564 
L 668.588333 42.713097 
L 675.620657 42.393218 
L 679.136818 42.365537 
L 679.136818 42.365537 
" clip-path="url(#pd1ae9c8274)" style="fill: none; stroke: #0000ff; stroke-width: 1.5; stroke-linecap: square"/>
   </g>
   <g id="patch_3">
    <path d="M 47.81 390.04 
L 47.81 25.44 
" style="fill: none; stroke: #000000; stroke-width: 0.8; stroke-linejoin: miter; stroke-linecap: square"/>
   </g>
   <g id="patch_4">
    <path d="M 709.2 390.04 
L 709.2 25.44 
" style="fill: none; stroke: #000000; stroke-width: 0.8; stroke-linejoin: miter; stroke-linecap: square"/>
   </g>
   <g id="patch_5">
    <path d="M 47.81 390.04 
L 709.2 390.04 
" style="fill: none; stroke: #000000; stroke-width: 0.8; stroke-linejoin: miter; stroke-linecap: square"/>
   </g>
   <g id="patch_6">
    <path d="M 47.81 25.44 
L 709.2 25.44 
" style="fill: none; stroke: #000000; stroke-width: 0.8; stroke-linejoin: miter; stroke-linecap: square"/>
   </g>
   <g id="text_17">
    <!-- gan_IS_FID_mnist_generator_discriminator Trial 10 -->
    <g transform="translate(227.155938 19.44) scale(0.12 -0.12)">
     <defs>
      <path id="DejaVuSans-67" d="M 2906 1791 
Q 2906 2416 2648 2759 
Q 2391 3103 1925 3103 
Q 1463 3103 1205 2759 
Q 947 2416 947 1791 
Q 947 1169 1205 825 
Q 1463 481 1925 481 
Q 2391 481 2648 825 
Q 2906 1169 2906 1791 
z
M 3481 434 
Q 3481 -459 3084 -895 
Q 2688 -1331 1869 -1331 
Q 1566 -1331 1297 -1286 
Q 1028 -1241 775 -1147 
L 775 -588 
Q 1028 -725 1275 -790 
Q 1522 -856 1778 -856 
Q 2344 -856 2625 -561 
Q 2906 -266 2906 331 
L 2906 616 
Q 2728 306 2450 153 
Q 2172 0 1784 0 
Q 1141 0 747 490 
Q 353 981 353 1791 
Q 353 2603 747 3093 
Q 1141 3584 1784 3584 
Q 2172 3584 2450 3431 
Q 2728 3278 2906 2969 
L 2906 3500 
L 3481 3500 
L 3481 434 
z
" transform="scale(0.015625)"/>
      <path id="DejaVuSans-6e" d="M 3513 2113 
L 3513 0 
L 2938 0 
L 2938 2094 
Q 2938 2591 2744 2837 
Q 2550 3084 2163 3084 
Q 1697 3084 1428 2787 
Q 1159 2491 1159 1978 
L 1159 0 
L 581 0 
L 581 3500 
L 1159 3500 
L 1159 2956 
Q 1366 3272 1645 3428 
Q 1925 3584 2291 3584 
Q 2894 3584 3203 3211 
Q 3513 2838 3513 2113 
z
" transform="scale(0.015625)"/>
      <path id="DejaVuSans-5f" d="M 3263 -1063 
L 3263 -1509 
L -63 -1509 
L -63 -1063 
L 3263 -1063 
z
" transform="scale(0.015625)"/>
      <path id="DejaVuSans-49" d="M 628 4666 
L 1259 4666 
L 1259 0 
L 628 0 
L 628 4666 
z
" transform="scale(0.015625)"/>
      <path id="DejaVuSans-53" d="M 3425 4513 
L 3425 3897 
Q 3066 4069 2747 4153 
Q 2428 4238 2131 4238 
Q 1616 4238 1336 4038 
Q 1056 3838 1056 3469 
Q 1056 3159 1242 3001 
Q 1428 2844 1947 2747 
L 2328 2669 
Q 3034 2534 3370 2195 
Q 3706 1856 3706 1288 
Q 3706 609 3251 259 
Q 2797 -91 1919 -91 
Q 1588 -91 1214 -16 
Q 841 59 441 206 
L 441 856 
Q 825 641 1194 531 
Q 1563 422 1919 422 
Q 2459 422 2753 634 
Q 3047 847 3047 1241 
Q 3047 1584 2836 1778 
Q 2625 1972 2144 2069 
L 1759 2144 
Q 1053 2284 737 2584 
Q 422 2884 422 3419 
Q 422 4038 858 4394 
Q 1294 4750 2059 4750 
Q 2388 4750 2728 4690 
Q 3069 4631 3425 4513 
z
" transform="scale(0.015625)"/>
      <path id="DejaVuSans-46" d="M 628 4666 
L 3309 4666 
L 3309 4134 
L 1259 4134 
L 1259 2759 
L 3109 2759 
L 3109 2228 
L 1259 2228 
L 1259 0 
L 628 0 
L 628 4666 
z
" transform="scale(0.015625)"/>
      <path id="DejaVuSans-44" d="M 1259 4147 
L 1259 519 
L 2022 519 
Q 2988 519 3436 956 
Q 3884 1394 3884 2338 
Q 3884 3275 3436 3711 
Q 2988 4147 2022 4147 
L 1259 4147 
z
M 628 4666 
L 1925 4666 
Q 3281 4666 3915 4102 
Q 4550 3538 4550 2338 
Q 4550 1131 3912 565 
Q 3275 0 1925 0 
L 628 0 
L 628 4666 
z
" transform="scale(0.015625)"/>
      <path id="DejaVuSans-6d" d="M 3328 2828 
Q 3544 3216 3844 3400 
Q 4144 3584 4550 3584 
Q 5097 3584 5394 3201 
Q 5691 2819 5691 2113 
L 5691 0 
L 5113 0 
L 5113 2094 
Q 5113 2597 4934 2840 
Q 4756 3084 4391 3084 
Q 3944 3084 3684 2787 
Q 3425 2491 3425 1978 
L 3425 0 
L 2847 0 
L 2847 2094 
Q 2847 2600 2669 2842 
Q 2491 3084 2119 3084 
Q 1678 3084 1418 2786 
Q 1159 2488 1159 1978 
L 1159 0 
L 581 0 
L 581 3500 
L 1159 3500 
L 1159 2956 
Q 1356 3278 1631 3431 
Q 1906 3584 2284 3584 
Q 2666 3584 2933 3390 
Q 3200 3197 3328 2828 
z
" transform="scale(0.015625)"/>
      <path id="DejaVuSans-69" d="M 603 3500 
L 1178 3500 
L 1178 0 
L 603 0 
L 603 3500 
z
M 603 4863 
L 1178 4863 
L 1178 4134 
L 603 4134 
L 603 4863 
z
" transform="scale(0.015625)"/>
      <path id="DejaVuSans-73" d="M 2834 3397 
L 2834 2853 
Q 2591 2978 2328 3040 
Q 2066 3103 1784 3103 
Q 1356 3103 1142 2972 
Q 928 2841 928 2578 
Q 928 2378 1081 2264 
Q 1234 2150 1697 2047 
L 1894 2003 
Q 2506 1872 2764 1633 
Q 3022 1394 3022 966 
Q 3022 478 2636 193 
Q 2250 -91 1575 -91 
Q 1294 -91 989 -36 
Q 684 19 347 128 
L 347 722 
Q 666 556 975 473 
Q 1284 391 1588 391 
Q 1994 391 2212 530 
Q 2431 669 2431 922 
Q 2431 1156 2273 1281 
Q 2116 1406 1581 1522 
L 1381 1569 
Q 847 1681 609 1914 
Q 372 2147 372 2553 
Q 372 3047 722 3315 
Q 1072 3584 1716 3584 
Q 2034 3584 2315 3537 
Q 2597 3491 2834 3397 
z
" transform="scale(0.015625)"/>
      <path id="DejaVuSans-74" d="M 1172 4494 
L 1172 3500 
L 2356 3500 
L 2356 3053 
L 1172 3053 
L 1172 1153 
Q 1172 725 1289 603 
Q 1406 481 1766 481 
L 2356 481 
L 2356 0 
L 1766 0 
Q 1100 0 847 248 
Q 594 497 594 1153 
L 594 3053 
L 172 3053 
L 172 3500 
L 594 3500 
L 594 4494 
L 1172 4494 
z
" transform="scale(0.015625)"/>
      <path id="DejaVuSans-72" d="M 2631 2963 
Q 2534 3019 2420 3045 
Q 2306 3072 2169 3072 
Q 1681 3072 1420 2755 
Q 1159 2438 1159 1844 
L 1159 0 
L 581 0 
L 581 3500 
L 1159 3500 
L 1159 2956 
Q 1341 3275 1631 3429 
Q 1922 3584 2338 3584 
Q 2397 3584 2469 3576 
Q 2541 3569 2628 3553 
L 2631 2963 
z
" transform="scale(0.015625)"/>
      <path id="DejaVuSans-64" d="M 2906 2969 
L 2906 4863 
L 3481 4863 
L 3481 0 
L 2906 0 
L 2906 525 
Q 2725 213 2448 61 
Q 2172 -91 1784 -91 
Q 1150 -91 751 415 
Q 353 922 353 1747 
Q 353 2572 751 3078 
Q 1150 3584 1784 3584 
Q 2172 3584 2448 3432 
Q 2725 3281 2906 2969 
z
M 947 1747 
Q 947 1113 1208 752 
Q 1469 391 1925 391 
Q 2381 391 2643 752 
Q 2906 1113 2906 1747 
Q 2906 2381 2643 2742 
Q 2381 3103 1925 3103 
Q 1469 3103 1208 2742 
Q 947 2381 947 1747 
z
" transform="scale(0.015625)"/>
      <path id="DejaVuSans-20" transform="scale(0.015625)"/>
      <path id="DejaVuSans-54" d="M -19 4666 
L 3928 4666 
L 3928 4134 
L 2272 4134 
L 2272 0 
L 1638 0 
L 1638 4134 
L -19 4134 
L -19 4666 
z
" transform="scale(0.015625)"/>
     </defs>
     <use xlink:href="#DejaVuSans-67"/>
     <use xlink:href="#DejaVuSans-61" transform="translate(63.476562 0)"/>
     <use xlink:href="#DejaVuSans-6e" transform="translate(124.755859 0)"/>
     <use xlink:href="#DejaVuSans-5f" transform="translate(188.134766 0)"/>
     <use xlink:href="#DejaVuSans-49" transform="translate(238.134766 0)"/>
     <use xlink:href="#DejaVuSans-53" transform="translate(267.626953 0)"/>
     <use xlink:href="#DejaVuSans-5f" transform="translate(331.103516 0)"/>
     <use xlink:href="#DejaVuSans-46" transform="translate(381.103516 0)"/>
     <use xlink:href="#DejaVuSans-49" transform="translate(438.623047 0)"/>
     <use xlink:href="#DejaVuSans-44" transform="translate(468.115234 0)"/>
     <use xlink:href="#DejaVuSans-5f" transform="translate(545.117188 0)"/>
     <use xlink:href="#DejaVuSans-6d" transform="translate(595.117188 0)"/>
     <use xlink:href="#DejaVuSans-6e" transform="translate(692.529297 0)"/>
     <use xlink:href="#DejaVuSans-69" transform="translate(755.908203 0)"/>
     <use xlink:href="#DejaVuSans-73" transform="translate(783.691406 0)"/>
     <use xlink:href="#DejaVuSans-74" transform="translate(835.791016 0)"/>
     <use xlink:href="#DejaVuSans-5f" transform="translate(875 0)"/>
     <use xlink:href="#DejaVuSans-67" transform="translate(925 0)"/>
     <use xlink:href="#DejaVuSans-65" transform="translate(988.476562 0)"/>
     <use xlink:href="#DejaVuSans-6e" transform="translate(1050 0)"/>
     <use xlink:href="#DejaVuSans-65" transform="translate(1113.378906 0)"/>
     <use xlink:href="#DejaVuSans-72" transform="translate(1174.902344 0)"/>
     <use xlink:href="#DejaVuSans-61" transform="translate(1216.015625 0)"/>
     <use xlink:href="#DejaVuSans-74" transform="translate(1277.294922 0)"/>
     <use xlink:href="#DejaVuSans-6f" transform="translate(1316.503906 0)"/>
     <use xlink:href="#DejaVuSans-72" transform="translate(1377.685547 0)"/>
     <use xlink:href="#DejaVuSans-5f" transform="translate(1418.798828 0)"/>
     <use xlink:href="#DejaVuSans-64" transform="translate(1468.798828 0)"/>
     <use xlink:href="#DejaVuSans-69" transform="translate(1532.275391 0)"/>
     <use xlink:href="#DejaVuSans-73" transform="translate(1560.058594 0)"/>
     <use xlink:href="#DejaVuSans-63" transform="translate(1612.158203 0)"/>
     <use xlink:href="#DejaVuSans-72" transform="translate(1667.138672 0)"/>
     <use xlink:href="#DejaVuSans-69" transform="translate(1708.251953 0)"/>
     <use xlink:href="#DejaVuSans-6d" transform="translate(1736.035156 0)"/>
     <use xlink:href="#DejaVuSans-69" transform="translate(1833.447266 0)"/>
     <use xlink:href="#DejaVuSans-6e" transform="translate(1861.230469 0)"/>
     <use xlink:href="#DejaVuSans-61" transform="translate(1924.609375 0)"/>
     <use xlink:href="#DejaVuSans-74" transform="translate(1985.888672 0)"/>
     <use xlink:href="#DejaVuSans-6f" transform="translate(2025.097656 0)"/>
     <use xlink:href="#DejaVuSans-72" transform="translate(2086.279297 0)"/>
     <use xlink:href="#DejaVuSans-20" transform="translate(2127.392578 0)"/>
     <use xlink:href="#DejaVuSans-54" transform="translate(2159.179688 0)"/>
     <use xlink:href="#DejaVuSans-72" transform="translate(2205.513672 0)"/>
     <use xlink:href="#DejaVuSans-69" transform="translate(2246.626953 0)"/>
     <use xlink:href="#DejaVuSans-61" transform="translate(2274.410156 0)"/>
     <use xlink:href="#DejaVuSans-6c" transform="translate(2335.689453 0)"/>
     <use xlink:href="#DejaVuSans-20" transform="translate(2363.472656 0)"/>
     <use xlink:href="#DejaVuSans-31" transform="translate(2395.259766 0)"/>
     <use xlink:href="#DejaVuSans-30" transform="translate(2458.882812 0)"/>
    </g>
   </g>
   <g id="legend_1">
    <g id="patch_7">
     <path d="M 580.026563 224.19625 
L 702.2 224.19625 
Q 704.2 224.19625 704.2 222.19625 
L 704.2 193.28375 
Q 704.2 191.28375 702.2 191.28375 
L 580.026563 191.28375 
Q 578.026563 191.28375 578.026563 193.28375 
L 578.026563 222.19625 
Q 578.026563 224.19625 580.026563 224.19625 
z
" style="fill: #ffffff; opacity: 0.8; stroke: #cccccc; stroke-linejoin: miter"/>
    </g>
    <g id="line2d_31">
     <path d="M 582.026563 199.382188 
L 592.026563 199.382188 
L 602.026563 199.382188 
" style="fill: none; stroke: #ff0000; stroke-width: 1.5; stroke-linecap: square"/>
    </g>
    <g id="text_18">
     <!-- discriminator_loss -->
     <g transform="translate(610.026563 202.882188) scale(0.1 -0.1)">
      <use xlink:href="#DejaVuSans-64"/>
      <use xlink:href="#DejaVuSans-69" transform="translate(63.476562 0)"/>
      <use xlink:href="#DejaVuSans-73" transform="translate(91.259766 0)"/>
      <use xlink:href="#DejaVuSans-63" transform="translate(143.359375 0)"/>
      <use xlink:href="#DejaVuSans-72" transform="translate(198.339844 0)"/>
      <use xlink:href="#DejaVuSans-69" transform="translate(239.453125 0)"/>
      <use xlink:href="#DejaVuSans-6d" transform="translate(267.236328 0)"/>
      <use xlink:href="#DejaVuSans-69" transform="translate(364.648438 0)"/>
      <use xlink:href="#DejaVuSans-6e" transform="translate(392.431641 0)"/>
      <use xlink:href="#DejaVuSans-61" transform="translate(455.810547 0)"/>
      <use xlink:href="#DejaVuSans-74" transform="translate(517.089844 0)"/>
      <use xlink:href="#DejaVuSans-6f" transform="translate(556.298828 0)"/>
      <use xlink:href="#DejaVuSans-72" transform="translate(617.480469 0)"/>
      <use xlink:href="#DejaVuSans-5f" transform="translate(658.59375 0)"/>
      <use xlink:href="#DejaVuSans-6c" transform="translate(708.59375 0)"/>
      <use xlink:href="#DejaVuSans-6f" transform="translate(736.376953 0)"/>
      <use xlink:href="#DejaVuSans-73" transform="translate(797.558594 0)"/>
      <use xlink:href="#DejaVuSans-73" transform="translate(849.658203 0)"/>
     </g>
    </g>
    <g id="line2d_32">
     <path d="M 582.026563 214.338437 
L 592.026563 214.338437 
L 602.026563 214.338437 
" style="fill: none; stroke: #0000ff; stroke-width: 1.5; stroke-linecap: square"/>
    </g>
    <g id="text_19">
     <!-- generator_loss -->
     <g transform="translate(610.026563 217.838437) scale(0.1 -0.1)">
      <use xlink:href="#DejaVuSans-67"/>
      <use xlink:href="#DejaVuSans-65" transform="translate(63.476562 0)"/>
      <use xlink:href="#DejaVuSans-6e" transform="translate(125 0)"/>
      <use xlink:href="#DejaVuSans-65" transform="translate(188.378906 0)"/>
      <use xlink:href="#DejaVuSans-72" transform="translate(249.902344 0)"/>
      <use xlink:href="#DejaVuSans-61" transform="translate(291.015625 0)"/>
      <use xlink:href="#DejaVuSans-74" transform="translate(352.294922 0)"/>
      <use xlink:href="#DejaVuSans-6f" transform="translate(391.503906 0)"/>
      <use xlink:href="#DejaVuSans-72" transform="translate(452.685547 0)"/>
      <use xlink:href="#DejaVuSans-5f" transform="translate(493.798828 0)"/>
      <use xlink:href="#DejaVuSans-6c" transform="translate(543.798828 0)"/>
      <use xlink:href="#DejaVuSans-6f" transform="translate(571.582031 0)"/>
      <use xlink:href="#DejaVuSans-73" transform="translate(632.763672 0)"/>
      <use xlink:href="#DejaVuSans-73" transform="translate(684.863281 0)"/>
     </g>
    </g>
   </g>
  </g>
 </g>
 <defs>
  <clipPath id="pd1ae9c8274">
   <rect x="47.81" y="25.44" width="661.39" height="364.6"/>
  </clipPath>
 </defs>
</svg>
