<?xml version="1.0" encoding="utf-8" standalone="no"?>
<!DOCTYPE svg PUBLIC "-//W3C//DTD SVG 1.1//EN"
  "http://www.w3.org/Graphics/SVG/1.1/DTD/svg11.dtd">
<svg xmlns:xlink="http://www.w3.org/1999/xlink" width="720pt" height="432pt" viewBox="0 0 720 432" xmlns="http://www.w3.org/2000/svg" version="1.1">
 <metadata>
  <rdf:RDF xmlns:dc="http://purl.org/dc/elements/1.1/" xmlns:cc="http://creativecommons.org/ns#" xmlns:rdf="http://www.w3.org/1999/02/22-rdf-syntax-ns#">
   <cc:Work>
    <dc:type rdf:resource="http://purl.org/dc/dcmitype/StillImage"/>
    <dc:date>2025-06-22T15:36:12.568142</dc:date>
    <dc:format>image/svg+xml</dc:format>
    <dc:creator>
     <cc:Agent>
      <dc:title>Matplotlib v3.10.1, https://matplotlib.org/</dc:title>
     </cc:Agent>
    </dc:creator>
   </cc:Work>
  </rdf:RDF>
 </metadata>
 <defs>
  <style type="text/css">*{stroke-linejoin: round; stroke-linecap: butt}</style>
 </defs>
 <g id="figure_1">
  <g id="patch_1">
   <path d="M 0 432 
L 720 432 
L 720 0 
L 0 0 
z
" style="fill: #ffffff"/>
  </g>
  <g id="axes_1">
   <g id="patch_2">
    <path d="M 47.81 390.04 
L 709.2 390.04 
L 709.2 25.44 
L 47.81 25.44 
z
" style="fill: #ffffff"/>
   </g>
   <g id="matplotlib.axis_1">
    <g id="xtick_1">
     <g id="line2d_1">
      <path d="M 77.873182 390.04 
L 77.873182 25.44 
" clip-path="url(#p404e433a3c)" style="fill: none; stroke: #b0b0b0; stroke-width: 0.8; stroke-linecap: square"/>
     </g>
     <g id="line2d_2">
      <defs>
       <path id="m71e89992a4" d="M 0 0 
L 0 3.5 
" style="stroke: #000000; stroke-width: 0.8"/>
      </defs>
      <g>
       <use xlink:href="#m71e89992a4" x="77.873182" y="390.04" style="stroke: #000000; stroke-width: 0.8"/>
      </g>
     </g>
     <g id="text_1">
      <!-- 0 -->
      <g transform="translate(74.691932 404.638438) scale(0.1 -0.1)">
       <defs>
        <path id="DejaVuSans-30" d="M 2034 4250 
Q 1547 4250 1301 3770 
Q 1056 3291 1056 2328 
Q 1056 1369 1301 889 
Q 1547 409 2034 409 
Q 2525 409 2770 889 
Q 3016 1369 3016 2328 
Q 3016 3291 2770 3770 
Q 2525 4250 2034 4250 
z
M 2034 4750 
Q 2819 4750 3233 4129 
Q 3647 3509 3647 2328 
Q 3647 1150 3233 529 
Q 2819 -91 2034 -91 
Q 1250 -91 836 529 
Q 422 1150 422 2328 
Q 422 3509 836 4129 
Q 1250 4750 2034 4750 
z
" transform="scale(0.015625)"/>
       </defs>
       <use xlink:href="#DejaVuSans-30"/>
      </g>
     </g>
    </g>
    <g id="xtick_2">
     <g id="line2d_3">
      <path d="M 169.529224 390.04 
L 169.529224 25.44 
" clip-path="url(#p404e433a3c)" style="fill: none; stroke: #b0b0b0; stroke-width: 0.8; stroke-linecap: square"/>
     </g>
     <g id="line2d_4">
      <g>
       <use xlink:href="#m71e89992a4" x="169.529224" y="390.04" style="stroke: #000000; stroke-width: 0.8"/>
      </g>
     </g>
     <g id="text_2">
      <!-- 50 -->
      <g transform="translate(163.166724 404.638438) scale(0.1 -0.1)">
       <defs>
        <path id="DejaVuSans-35" d="M 691 4666 
L 3169 4666 
L 3169 4134 
L 1269 4134 
L 1269 2991 
Q 1406 3038 1543 3061 
Q 1681 3084 1819 3084 
Q 2600 3084 3056 2656 
Q 3513 2228 3513 1497 
Q 3513 744 3044 326 
Q 2575 -91 1722 -91 
Q 1428 -91 1123 -41 
Q 819 9 494 109 
L 494 744 
Q 775 591 1075 516 
Q 1375 441 1709 441 
Q 2250 441 2565 725 
Q 2881 1009 2881 1497 
Q 2881 1984 2565 2268 
Q 2250 2553 1709 2553 
Q 1456 2553 1204 2497 
Q 953 2441 691 2322 
L 691 4666 
z
" transform="scale(0.015625)"/>
       </defs>
       <use xlink:href="#DejaVuSans-35"/>
       <use xlink:href="#DejaVuSans-30" transform="translate(63.623047 0)"/>
      </g>
     </g>
    </g>
    <g id="xtick_3">
     <g id="line2d_5">
      <path d="M 261.185266 390.04 
L 261.185266 25.44 
" clip-path="url(#p404e433a3c)" style="fill: none; stroke: #b0b0b0; stroke-width: 0.8; stroke-linecap: square"/>
     </g>
     <g id="line2d_6">
      <g>
       <use xlink:href="#m71e89992a4" x="261.185266" y="390.04" style="stroke: #000000; stroke-width: 0.8"/>
      </g>
     </g>
     <g id="text_3">
      <!-- 100 -->
      <g transform="translate(251.641516 404.638438) scale(0.1 -0.1)">
       <defs>
        <path id="DejaVuSans-31" d="M 794 531 
L 1825 531 
L 1825 4091 
L 703 3866 
L 703 4441 
L 1819 4666 
L 2450 4666 
L 2450 531 
L 3481 531 
L 3481 0 
L 794 0 
L 794 531 
z
" transform="scale(0.015625)"/>
       </defs>
       <use xlink:href="#DejaVuSans-31"/>
       <use xlink:href="#DejaVuSans-30" transform="translate(63.623047 0)"/>
       <use xlink:href="#DejaVuSans-30" transform="translate(127.246094 0)"/>
      </g>
     </g>
    </g>
    <g id="xtick_4">
     <g id="line2d_7">
      <path d="M 352.841308 390.04 
L 352.841308 25.44 
" clip-path="url(#p404e433a3c)" style="fill: none; stroke: #b0b0b0; stroke-width: 0.8; stroke-linecap: square"/>
     </g>
     <g id="line2d_8">
      <g>
       <use xlink:href="#m71e89992a4" x="352.841308" y="390.04" style="stroke: #000000; stroke-width: 0.8"/>
      </g>
     </g>
     <g id="text_4">
      <!-- 150 -->
      <g transform="translate(343.297558 404.638438) scale(0.1 -0.1)">
       <use xlink:href="#DejaVuSans-31"/>
       <use xlink:href="#DejaVuSans-35" transform="translate(63.623047 0)"/>
       <use xlink:href="#DejaVuSans-30" transform="translate(127.246094 0)"/>
      </g>
     </g>
    </g>
    <g id="xtick_5">
     <g id="line2d_9">
      <path d="M 444.49735 390.04 
L 444.49735 25.44 
" clip-path="url(#p404e433a3c)" style="fill: none; stroke: #b0b0b0; stroke-width: 0.8; stroke-linecap: square"/>
     </g>
     <g id="line2d_10">
      <g>
       <use xlink:href="#m71e89992a4" x="444.49735" y="390.04" style="stroke: #000000; stroke-width: 0.8"/>
      </g>
     </g>
     <g id="text_5">
      <!-- 200 -->
      <g transform="translate(434.9536 404.638438) scale(0.1 -0.1)">
       <defs>
        <path id="DejaVuSans-32" d="M 1228 531 
L 3431 531 
L 3431 0 
L 469 0 
L 469 531 
Q 828 903 1448 1529 
Q 2069 2156 2228 2338 
Q 2531 2678 2651 2914 
Q 2772 3150 2772 3378 
Q 2772 3750 2511 3984 
Q 2250 4219 1831 4219 
Q 1534 4219 1204 4116 
Q 875 4013 500 3803 
L 500 4441 
Q 881 4594 1212 4672 
Q 1544 4750 1819 4750 
Q 2544 4750 2975 4387 
Q 3406 4025 3406 3419 
Q 3406 3131 3298 2873 
Q 3191 2616 2906 2266 
Q 2828 2175 2409 1742 
Q 1991 1309 1228 531 
z
" transform="scale(0.015625)"/>
       </defs>
       <use xlink:href="#DejaVuSans-32"/>
       <use xlink:href="#DejaVuSans-30" transform="translate(63.623047 0)"/>
       <use xlink:href="#DejaVuSans-30" transform="translate(127.246094 0)"/>
      </g>
     </g>
    </g>
    <g id="xtick_6">
     <g id="line2d_11">
      <path d="M 536.153392 390.04 
L 536.153392 25.44 
" clip-path="url(#p404e433a3c)" style="fill: none; stroke: #b0b0b0; stroke-width: 0.8; stroke-linecap: square"/>
     </g>
     <g id="line2d_12">
      <g>
       <use xlink:href="#m71e89992a4" x="536.153392" y="390.04" style="stroke: #000000; stroke-width: 0.8"/>
      </g>
     </g>
     <g id="text_6">
      <!-- 250 -->
      <g transform="translate(526.609642 404.638438) scale(0.1 -0.1)">
       <use xlink:href="#DejaVuSans-32"/>
       <use xlink:href="#DejaVuSans-35" transform="translate(63.623047 0)"/>
       <use xlink:href="#DejaVuSans-30" transform="translate(127.246094 0)"/>
      </g>
     </g>
    </g>
    <g id="xtick_7">
     <g id="line2d_13">
      <path d="M 627.809435 390.04 
L 627.809435 25.44 
" clip-path="url(#p404e433a3c)" style="fill: none; stroke: #b0b0b0; stroke-width: 0.8; stroke-linecap: square"/>
     </g>
     <g id="line2d_14">
      <g>
       <use xlink:href="#m71e89992a4" x="627.809435" y="390.04" style="stroke: #000000; stroke-width: 0.8"/>
      </g>
     </g>
     <g id="text_7">
      <!-- 300 -->
      <g transform="translate(618.265685 404.638438) scale(0.1 -0.1)">
       <defs>
        <path id="DejaVuSans-33" d="M 2597 2516 
Q 3050 2419 3304 2112 
Q 3559 1806 3559 1356 
Q 3559 666 3084 287 
Q 2609 -91 1734 -91 
Q 1441 -91 1130 -33 
Q 819 25 488 141 
L 488 750 
Q 750 597 1062 519 
Q 1375 441 1716 441 
Q 2309 441 2620 675 
Q 2931 909 2931 1356 
Q 2931 1769 2642 2001 
Q 2353 2234 1838 2234 
L 1294 2234 
L 1294 2753 
L 1863 2753 
Q 2328 2753 2575 2939 
Q 2822 3125 2822 3475 
Q 2822 3834 2567 4026 
Q 2313 4219 1838 4219 
Q 1578 4219 1281 4162 
Q 984 4106 628 3988 
L 628 4550 
Q 988 4650 1302 4700 
Q 1616 4750 1894 4750 
Q 2613 4750 3031 4423 
Q 3450 4097 3450 3541 
Q 3450 3153 3228 2886 
Q 3006 2619 2597 2516 
z
" transform="scale(0.015625)"/>
       </defs>
       <use xlink:href="#DejaVuSans-33"/>
       <use xlink:href="#DejaVuSans-30" transform="translate(63.623047 0)"/>
       <use xlink:href="#DejaVuSans-30" transform="translate(127.246094 0)"/>
      </g>
     </g>
    </g>
    <g id="text_8">
     <!-- Epoch -->
     <g transform="translate(363.194063 418.316562) scale(0.1 -0.1)">
      <defs>
       <path id="DejaVuSans-45" d="M 628 4666 
L 3578 4666 
L 3578 4134 
L 1259 4134 
L 1259 2753 
L 3481 2753 
L 3481 2222 
L 1259 2222 
L 1259 531 
L 3634 531 
L 3634 0 
L 628 0 
L 628 4666 
z
" transform="scale(0.015625)"/>
       <path id="DejaVuSans-70" d="M 1159 525 
L 1159 -1331 
L 581 -1331 
L 581 3500 
L 1159 3500 
L 1159 2969 
Q 1341 3281 1617 3432 
Q 1894 3584 2278 3584 
Q 2916 3584 3314 3078 
Q 3713 2572 3713 1747 
Q 3713 922 3314 415 
Q 2916 -91 2278 -91 
Q 1894 -91 1617 61 
Q 1341 213 1159 525 
z
M 3116 1747 
Q 3116 2381 2855 2742 
Q 2594 3103 2138 3103 
Q 1681 3103 1420 2742 
Q 1159 2381 1159 1747 
Q 1159 1113 1420 752 
Q 1681 391 2138 391 
Q 2594 391 2855 752 
Q 3116 1113 3116 1747 
z
" transform="scale(0.015625)"/>
       <path id="DejaVuSans-6f" d="M 1959 3097 
Q 1497 3097 1228 2736 
Q 959 2375 959 1747 
Q 959 1119 1226 758 
Q 1494 397 1959 397 
Q 2419 397 2687 759 
Q 2956 1122 2956 1747 
Q 2956 2369 2687 2733 
Q 2419 3097 1959 3097 
z
M 1959 3584 
Q 2709 3584 3137 3096 
Q 3566 2609 3566 1747 
Q 3566 888 3137 398 
Q 2709 -91 1959 -91 
Q 1206 -91 779 398 
Q 353 888 353 1747 
Q 353 2609 779 3096 
Q 1206 3584 1959 3584 
z
" transform="scale(0.015625)"/>
       <path id="DejaVuSans-63" d="M 3122 3366 
L 3122 2828 
Q 2878 2963 2633 3030 
Q 2388 3097 2138 3097 
Q 1578 3097 1268 2742 
Q 959 2388 959 1747 
Q 959 1106 1268 751 
Q 1578 397 2138 397 
Q 2388 397 2633 464 
Q 2878 531 3122 666 
L 3122 134 
Q 2881 22 2623 -34 
Q 2366 -91 2075 -91 
Q 1284 -91 818 406 
Q 353 903 353 1747 
Q 353 2603 823 3093 
Q 1294 3584 2113 3584 
Q 2378 3584 2631 3529 
Q 2884 3475 3122 3366 
z
" transform="scale(0.015625)"/>
       <path id="DejaVuSans-68" d="M 3513 2113 
L 3513 0 
L 2938 0 
L 2938 2094 
Q 2938 2591 2744 2837 
Q 2550 3084 2163 3084 
Q 1697 3084 1428 2787 
Q 1159 2491 1159 1978 
L 1159 0 
L 581 0 
L 581 4863 
L 1159 4863 
L 1159 2956 
Q 1366 3272 1645 3428 
Q 1925 3584 2291 3584 
Q 2894 3584 3203 3211 
Q 3513 2838 3513 2113 
z
" transform="scale(0.015625)"/>
      </defs>
      <use xlink:href="#DejaVuSans-45"/>
      <use xlink:href="#DejaVuSans-70" transform="translate(63.183594 0)"/>
      <use xlink:href="#DejaVuSans-6f" transform="translate(126.660156 0)"/>
      <use xlink:href="#DejaVuSans-63" transform="translate(187.841797 0)"/>
      <use xlink:href="#DejaVuSans-68" transform="translate(242.822266 0)"/>
     </g>
    </g>
   </g>
   <g id="matplotlib.axis_2">
    <g id="ytick_1">
     <g id="line2d_15">
      <path d="M 47.81 357.583295 
L 709.2 357.583295 
" clip-path="url(#p404e433a3c)" style="fill: none; stroke: #b0b0b0; stroke-width: 0.8; stroke-linecap: square"/>
     </g>
     <g id="line2d_16">
      <defs>
       <path id="m870413c754" d="M 0 0 
L -3.5 0 
" style="stroke: #000000; stroke-width: 0.8"/>
      </defs>
      <g>
       <use xlink:href="#m870413c754" x="47.81" y="357.583295" style="stroke: #000000; stroke-width: 0.8"/>
      </g>
     </g>
     <g id="text_9">
      <!-- 0.2 -->
      <g transform="translate(24.906875 361.382514) scale(0.1 -0.1)">
       <defs>
        <path id="DejaVuSans-2e" d="M 684 794 
L 1344 794 
L 1344 0 
L 684 0 
L 684 794 
z
" transform="scale(0.015625)"/>
       </defs>
       <use xlink:href="#DejaVuSans-30"/>
       <use xlink:href="#DejaVuSans-2e" transform="translate(63.623047 0)"/>
       <use xlink:href="#DejaVuSans-32" transform="translate(95.410156 0)"/>
      </g>
     </g>
    </g>
    <g id="ytick_2">
     <g id="line2d_17">
      <path d="M 47.81 293.62665 
L 709.2 293.62665 
" clip-path="url(#p404e433a3c)" style="fill: none; stroke: #b0b0b0; stroke-width: 0.8; stroke-linecap: square"/>
     </g>
     <g id="line2d_18">
      <g>
       <use xlink:href="#m870413c754" x="47.81" y="293.62665" style="stroke: #000000; stroke-width: 0.8"/>
      </g>
     </g>
     <g id="text_10">
      <!-- 0.3 -->
      <g transform="translate(24.906875 297.425868) scale(0.1 -0.1)">
       <use xlink:href="#DejaVuSans-30"/>
       <use xlink:href="#DejaVuSans-2e" transform="translate(63.623047 0)"/>
       <use xlink:href="#DejaVuSans-33" transform="translate(95.410156 0)"/>
      </g>
     </g>
    </g>
    <g id="ytick_3">
     <g id="line2d_19">
      <path d="M 47.81 229.670004 
L 709.2 229.670004 
" clip-path="url(#p404e433a3c)" style="fill: none; stroke: #b0b0b0; stroke-width: 0.8; stroke-linecap: square"/>
     </g>
     <g id="line2d_20">
      <g>
       <use xlink:href="#m870413c754" x="47.81" y="229.670004" style="stroke: #000000; stroke-width: 0.8"/>
      </g>
     </g>
     <g id="text_11">
      <!-- 0.4 -->
      <g transform="translate(24.906875 233.469223) scale(0.1 -0.1)">
       <defs>
        <path id="DejaVuSans-34" d="M 2419 4116 
L 825 1625 
L 2419 1625 
L 2419 4116 
z
M 2253 4666 
L 3047 4666 
L 3047 1625 
L 3713 1625 
L 3713 1100 
L 3047 1100 
L 3047 0 
L 2419 0 
L 2419 1100 
L 313 1100 
L 313 1709 
L 2253 4666 
z
" transform="scale(0.015625)"/>
       </defs>
       <use xlink:href="#DejaVuSans-30"/>
       <use xlink:href="#DejaVuSans-2e" transform="translate(63.623047 0)"/>
       <use xlink:href="#DejaVuSans-34" transform="translate(95.410156 0)"/>
      </g>
     </g>
    </g>
    <g id="ytick_4">
     <g id="line2d_21">
      <path d="M 47.81 165.713359 
L 709.2 165.713359 
" clip-path="url(#p404e433a3c)" style="fill: none; stroke: #b0b0b0; stroke-width: 0.8; stroke-linecap: square"/>
     </g>
     <g id="line2d_22">
      <g>
       <use xlink:href="#m870413c754" x="47.81" y="165.713359" style="stroke: #000000; stroke-width: 0.8"/>
      </g>
     </g>
     <g id="text_12">
      <!-- 0.5 -->
      <g transform="translate(24.906875 169.512577) scale(0.1 -0.1)">
       <use xlink:href="#DejaVuSans-30"/>
       <use xlink:href="#DejaVuSans-2e" transform="translate(63.623047 0)"/>
       <use xlink:href="#DejaVuSans-35" transform="translate(95.410156 0)"/>
      </g>
     </g>
    </g>
    <g id="ytick_5">
     <g id="line2d_23">
      <path d="M 47.81 101.756713 
L 709.2 101.756713 
" clip-path="url(#p404e433a3c)" style="fill: none; stroke: #b0b0b0; stroke-width: 0.8; stroke-linecap: square"/>
     </g>
     <g id="line2d_24">
      <g>
       <use xlink:href="#m870413c754" x="47.81" y="101.756713" style="stroke: #000000; stroke-width: 0.8"/>
      </g>
     </g>
     <g id="text_13">
      <!-- 0.6 -->
      <g transform="translate(24.906875 105.555932) scale(0.1 -0.1)">
       <defs>
        <path id="DejaVuSans-36" d="M 2113 2584 
Q 1688 2584 1439 2293 
Q 1191 2003 1191 1497 
Q 1191 994 1439 701 
Q 1688 409 2113 409 
Q 2538 409 2786 701 
Q 3034 994 3034 1497 
Q 3034 2003 2786 2293 
Q 2538 2584 2113 2584 
z
M 3366 4563 
L 3366 3988 
Q 3128 4100 2886 4159 
Q 2644 4219 2406 4219 
Q 1781 4219 1451 3797 
Q 1122 3375 1075 2522 
Q 1259 2794 1537 2939 
Q 1816 3084 2150 3084 
Q 2853 3084 3261 2657 
Q 3669 2231 3669 1497 
Q 3669 778 3244 343 
Q 2819 -91 2113 -91 
Q 1303 -91 875 529 
Q 447 1150 447 2328 
Q 447 3434 972 4092 
Q 1497 4750 2381 4750 
Q 2619 4750 2861 4703 
Q 3103 4656 3366 4563 
z
" transform="scale(0.015625)"/>
       </defs>
       <use xlink:href="#DejaVuSans-30"/>
       <use xlink:href="#DejaVuSans-2e" transform="translate(63.623047 0)"/>
       <use xlink:href="#DejaVuSans-36" transform="translate(95.410156 0)"/>
      </g>
     </g>
    </g>
    <g id="ytick_6">
     <g id="line2d_25">
      <path d="M 47.81 37.800068 
L 709.2 37.800068 
" clip-path="url(#p404e433a3c)" style="fill: none; stroke: #b0b0b0; stroke-width: 0.8; stroke-linecap: square"/>
     </g>
     <g id="line2d_26">
      <g>
       <use xlink:href="#m870413c754" x="47.81" y="37.800068" style="stroke: #000000; stroke-width: 0.8"/>
      </g>
     </g>
     <g id="text_14">
      <!-- 0.7 -->
      <g transform="translate(24.906875 41.599287) scale(0.1 -0.1)">
       <defs>
        <path id="DejaVuSans-37" d="M 525 4666 
L 3525 4666 
L 3525 4397 
L 1831 0 
L 1172 0 
L 2766 4134 
L 525 4134 
L 525 4666 
z
" transform="scale(0.015625)"/>
       </defs>
       <use xlink:href="#DejaVuSans-30"/>
       <use xlink:href="#DejaVuSans-2e" transform="translate(63.623047 0)"/>
       <use xlink:href="#DejaVuSans-37" transform="translate(95.410156 0)"/>
      </g>
     </g>
    </g>
    <g id="text_15">
     <!-- Value -->
     <g transform="translate(18.827188 221.47125) rotate(-90) scale(0.1 -0.1)">
      <defs>
       <path id="DejaVuSans-56" d="M 1831 0 
L 50 4666 
L 709 4666 
L 2188 738 
L 3669 4666 
L 4325 4666 
L 2547 0 
L 1831 0 
z
" transform="scale(0.015625)"/>
       <path id="DejaVuSans-61" d="M 2194 1759 
Q 1497 1759 1228 1600 
Q 959 1441 959 1056 
Q 959 750 1161 570 
Q 1363 391 1709 391 
Q 2188 391 2477 730 
Q 2766 1069 2766 1631 
L 2766 1759 
L 2194 1759 
z
M 3341 1997 
L 3341 0 
L 2766 0 
L 2766 531 
Q 2569 213 2275 61 
Q 1981 -91 1556 -91 
Q 1019 -91 701 211 
Q 384 513 384 1019 
Q 384 1609 779 1909 
Q 1175 2209 1959 2209 
L 2766 2209 
L 2766 2266 
Q 2766 2663 2505 2880 
Q 2244 3097 1772 3097 
Q 1472 3097 1187 3025 
Q 903 2953 641 2809 
L 641 3341 
Q 956 3463 1253 3523 
Q 1550 3584 1831 3584 
Q 2591 3584 2966 3190 
Q 3341 2797 3341 1997 
z
" transform="scale(0.015625)"/>
       <path id="DejaVuSans-6c" d="M 603 4863 
L 1178 4863 
L 1178 0 
L 603 0 
L 603 4863 
z
" transform="scale(0.015625)"/>
       <path id="DejaVuSans-75" d="M 544 1381 
L 544 3500 
L 1119 3500 
L 1119 1403 
Q 1119 906 1312 657 
Q 1506 409 1894 409 
Q 2359 409 2629 706 
Q 2900 1003 2900 1516 
L 2900 3500 
L 3475 3500 
L 3475 0 
L 2900 0 
L 2900 538 
Q 2691 219 2414 64 
Q 2138 -91 1772 -91 
Q 1169 -91 856 284 
Q 544 659 544 1381 
z
M 1991 3584 
L 1991 3584 
z
" transform="scale(0.015625)"/>
       <path id="DejaVuSans-65" d="M 3597 1894 
L 3597 1613 
L 953 1613 
Q 991 1019 1311 708 
Q 1631 397 2203 397 
Q 2534 397 2845 478 
Q 3156 559 3463 722 
L 3463 178 
Q 3153 47 2828 -22 
Q 2503 -91 2169 -91 
Q 1331 -91 842 396 
Q 353 884 353 1716 
Q 353 2575 817 3079 
Q 1281 3584 2069 3584 
Q 2775 3584 3186 3129 
Q 3597 2675 3597 1894 
z
M 3022 2063 
Q 3016 2534 2758 2815 
Q 2500 3097 2075 3097 
Q 1594 3097 1305 2825 
Q 1016 2553 972 2059 
L 3022 2063 
z
" transform="scale(0.015625)"/>
      </defs>
      <use xlink:href="#DejaVuSans-56"/>
      <use xlink:href="#DejaVuSans-61" transform="translate(60.658203 0)"/>
      <use xlink:href="#DejaVuSans-6c" transform="translate(121.9375 0)"/>
      <use xlink:href="#DejaVuSans-75" transform="translate(149.720703 0)"/>
      <use xlink:href="#DejaVuSans-65" transform="translate(213.099609 0)"/>
     </g>
    </g>
   </g>
   <g id="line2d_27">
    <path d="M 77.873182 312.894339 
L 79.706303 302.596144 
L 81.539424 285.758479 
L 83.372544 287.348911 
L 85.205665 289.865535 
L 87.038786 289.554295 
L 88.871907 288.697961 
L 90.705028 288.762024 
L 92.538149 287.95519 
L 94.371269 287.941828 
L 96.20439 288.074147 
L 98.037511 288.011666 
L 99.870632 287.739939 
L 101.703753 287.09937 
L 103.536874 287.431672 
L 105.369994 286.833437 
L 107.203115 286.60595 
L 109.036236 287.140313 
L 110.869357 287.056637 
L 112.702478 287.531092 
L 114.535599 287.359452 
L 116.36872 286.231047 
L 118.20184 286.220583 
L 120.034961 287.861507 
L 121.868082 287.997905 
L 123.701203 287.493791 
L 125.534324 288.1944 
L 127.367445 288.422726 
L 129.200565 289.281862 
L 131.033686 289.778371 
L 132.866807 289.342246 
L 136.533049 290.757684 
L 138.36617 290.838139 
L 142.032411 292.192868 
L 143.865532 293.628281 
L 145.698653 292.899138 
L 147.531774 293.416156 
L 149.364895 294.665024 
L 151.198016 294.418494 
L 153.031136 295.81409 
L 154.864257 296.199647 
L 156.697378 296.292186 
L 158.530499 297.305579 
L 160.36362 296.704981 
L 162.196741 298.566207 
L 164.029861 298.659565 
L 165.862982 299.075314 
L 167.696103 299.773503 
L 169.529224 299.452332 
L 171.362345 301.12078 
L 173.195466 301.090779 
L 175.028586 300.793224 
L 176.861707 302.278595 
L 178.694828 303.375321 
L 180.527949 303.169695 
L 182.36107 303.154028 
L 184.194191 303.626044 
L 186.027312 304.814641 
L 187.860432 305.655956 
L 189.693553 306.78295 
L 191.526674 306.475446 
L 193.359795 306.430139 
L 195.192916 307.556237 
L 197.026037 308.114483 
L 198.859157 307.615782 
L 200.692278 308.588843 
L 202.525399 307.865285 
L 204.35852 309.611805 
L 206.191641 309.824177 
L 208.024762 309.00991 
L 209.857882 311.413028 
L 213.524124 311.304097 
L 215.357245 312.141428 
L 217.190366 312.455717 
L 219.023487 312.885266 
L 220.856608 313.603907 
L 222.689728 314.443887 
L 224.522849 314.824355 
L 226.35597 314.680924 
L 228.189091 315.76364 
L 230.022212 315.741778 
L 231.855333 316.63162 
L 233.688453 316.842792 
L 235.521574 316.779416 
L 237.354695 317.50347 
L 241.020937 318.618341 
L 242.854058 318.71027 
L 244.687178 319.517333 
L 250.186541 319.970326 
L 252.019662 321.480228 
L 253.852783 320.986045 
L 255.685904 321.095891 
L 257.519024 322.108178 
L 259.352145 321.564304 
L 261.185266 322.415892 
L 263.018387 323.741821 
L 266.684629 324.281216 
L 270.35087 324.114951 
L 272.183991 326.079047 
L 274.017112 325.136635 
L 275.850233 325.107187 
L 277.683354 326.351432 
L 279.516475 326.595579 
L 281.349595 325.855714 
L 283.182716 327.190316 
L 285.015837 327.747761 
L 288.682079 328.225972 
L 290.5152 328.986688 
L 292.34832 330.055719 
L 294.181441 328.533857 
L 296.014562 328.950369 
L 297.847683 330.736143 
L 299.680804 330.563255 
L 301.513925 330.818304 
L 303.347045 331.354182 
L 305.180166 331.616446 
L 307.013287 332.410709 
L 308.846408 332.434106 
L 310.679529 332.840182 
L 312.51265 332.169527 
L 314.345771 332.651749 
L 316.178891 334.11094 
L 318.012012 333.062247 
L 319.845133 333.743758 
L 323.511375 334.750766 
L 325.344496 334.824806 
L 327.177616 335.585418 
L 329.010737 334.57415 
L 330.843858 335.941917 
L 332.676979 336.574195 
L 334.5101 337.67134 
L 336.343221 336.511905 
L 338.176341 337.208025 
L 340.009462 337.378226 
L 343.675704 338.515713 
L 345.508825 338.540016 
L 347.341946 338.701201 
L 349.175067 338.021883 
L 351.008187 339.050372 
L 352.841308 339.824955 
L 354.674429 339.594189 
L 356.50755 340.239141 
L 358.340671 340.730294 
L 360.173792 341.387607 
L 362.006912 340.948356 
L 363.840033 341.565127 
L 365.673154 341.141154 
L 367.506275 343.069959 
L 369.339396 342.392995 
L 371.172517 342.078047 
L 376.671879 344.839876 
L 378.505 343.763802 
L 380.338121 345.094525 
L 382.171242 345.020189 
L 384.004363 345.547146 
L 385.837483 344.824808 
L 387.670604 345.095325 
L 389.503725 346.048744 
L 391.336846 345.685469 
L 393.169967 346.073838 
L 395.003088 346.223139 
L 396.836208 346.89592 
L 398.669329 346.00684 
L 402.335571 348.085413 
L 406.001813 347.282249 
L 407.834933 347.39889 
L 409.668054 347.363504 
L 411.501175 347.564155 
L 413.334296 349.186847 
L 415.167417 348.595874 
L 417.000538 348.903083 
L 418.833659 348.888006 
L 420.666779 348.625266 
L 422.4999 350.565793 
L 424.333021 350.121558 
L 427.999263 350.009759 
L 429.832384 351.187663 
L 431.665504 350.914688 
L 433.498625 351.2352 
L 435.331746 351.911326 
L 437.164867 351.576947 
L 438.997988 351.822294 
L 440.831109 352.678524 
L 442.664229 352.353465 
L 444.49735 352.253454 
L 446.330471 352.800044 
L 448.163592 352.339322 
L 449.996713 354.271415 
L 451.829834 354.061101 
L 453.662955 353.232767 
L 455.496075 354.563671 
L 457.329196 354.712153 
L 459.162317 354.456017 
L 460.995438 353.966446 
L 462.828559 354.495949 
L 464.66168 353.668806 
L 466.4948 356.092195 
L 468.327921 354.688518 
L 470.161042 355.250718 
L 471.994163 356.307017 
L 473.827284 356.162652 
L 475.660405 355.799491 
L 477.493525 356.359138 
L 479.326646 355.955607 
L 481.159767 357.390248 
L 482.992888 356.274233 
L 484.826009 357.62698 
L 488.492251 357.415332 
L 490.325371 358.816579 
L 492.158492 357.646508 
L 493.991613 357.531182 
L 495.824734 359.282505 
L 497.657855 359.216498 
L 499.490976 359.335693 
L 501.324096 359.341754 
L 503.157217 359.628921 
L 504.990338 359.429157 
L 506.823459 359.941171 
L 508.65658 359.58145 
L 510.489701 359.963262 
L 512.322822 359.790431 
L 514.155942 360.208686 
L 515.989063 360.332732 
L 517.822184 359.733382 
L 519.655305 359.832907 
L 521.488426 360.858747 
L 523.321547 360.236991 
L 525.154667 361.528583 
L 528.820909 361.256474 
L 530.65403 361.313818 
L 532.487151 362.202926 
L 534.320272 362.08456 
L 536.153392 361.709687 
L 537.986513 362.58125 
L 539.819634 363.215405 
L 543.485876 363.113621 
L 545.318997 363.460018 
L 547.152118 363.395536 
L 548.985238 364.002596 
L 550.818359 363.699791 
L 552.65148 363.613523 
L 554.484601 363.971918 
L 558.150843 364.237785 
L 559.983963 364.61627 
L 561.817084 364.657841 
L 563.650205 363.994486 
L 565.483326 364.942292 
L 567.316447 364.893611 
L 569.149568 365.748535 
L 570.982688 365.100895 
L 572.815809 365.070436 
L 574.64893 364.765839 
L 576.482051 365.364703 
L 578.315172 366.29542 
L 580.148293 366.119682 
L 581.981414 364.694533 
L 583.814534 366.610187 
L 585.647655 366.100631 
L 587.480776 365.859362 
L 589.313897 366.252734 
L 591.147018 367.272513 
L 594.813259 367.608636 
L 596.64638 367.467245 
L 600.312622 367.582075 
L 602.145743 366.145376 
L 603.978864 367.471352 
L 605.811984 367.596428 
L 607.645105 369.03957 
L 609.478226 367.330342 
L 611.311347 367.223327 
L 613.144468 367.667648 
L 614.977589 368.34994 
L 616.81071 367.943397 
L 618.64383 368.040997 
L 620.476951 368.29881 
L 622.310072 368.442698 
L 625.976314 369.370776 
L 627.809435 369.29786 
L 629.642555 369.992503 
L 631.475676 369.16313 
L 633.308797 370.047312 
L 635.141918 369.601056 
L 636.975039 370.725839 
L 638.80816 370.153555 
L 640.64128 370.122658 
L 642.474401 370.939413 
L 644.307522 371.062535 
L 646.140643 370.543277 
L 647.973764 371.343611 
L 649.806885 370.692779 
L 651.640006 371.984485 
L 653.473126 370.662692 
L 655.306247 371.339408 
L 657.139368 370.461717 
L 660.80561 372.100478 
L 662.638731 371.629939 
L 664.471851 372.373215 
L 668.138093 372.785066 
L 669.971214 373.298606 
L 671.804335 372.412909 
L 673.637456 372.947882 
L 675.470576 372.203004 
L 677.303697 373.005635 
L 679.136818 373.467273 
L 679.136818 373.467273 
" clip-path="url(#p404e433a3c)" style="fill: none; stroke: #ff0000; stroke-width: 1.5; stroke-linecap: square"/>
   </g>
   <g id="line2d_28">
    <path d="M 77.873182 173.947904 
L 79.706303 168.268389 
L 81.539424 195.314798 
L 83.372544 196.182283 
L 85.205665 193.587949 
L 87.038786 191.770086 
L 88.871907 191.834968 
L 90.705028 191.606527 
L 92.538149 191.56772 
L 96.20439 191.031165 
L 98.037511 192.992593 
L 99.870632 192.675615 
L 101.703753 192.861551 
L 103.536874 192.579512 
L 105.369994 193.273488 
L 107.203115 194.18525 
L 109.036236 193.587263 
L 112.702478 193.272211 
L 114.535599 193.017505 
L 116.36872 192.503155 
L 118.20184 193.085379 
L 120.034961 192.688005 
L 121.868082 191.361294 
L 123.701203 189.82608 
L 125.534324 190.439239 
L 127.367445 189.15591 
L 131.033686 187.53622 
L 132.866807 188.635099 
L 134.699928 187.094586 
L 136.533049 187.268209 
L 138.36617 185.410395 
L 140.19929 185.078093 
L 143.865532 180.904744 
L 145.698653 181.407562 
L 147.531774 181.509726 
L 149.364895 180.76137 
L 151.198016 178.612635 
L 153.031136 178.955229 
L 154.864257 178.903785 
L 156.697378 174.755329 
L 158.530499 173.883918 
L 160.36362 174.229791 
L 162.196741 172.64197 
L 164.029861 172.54316 
L 165.862982 170.448994 
L 167.696103 171.158791 
L 169.529224 169.536679 
L 171.362345 170.060959 
L 173.195466 169.37192 
L 175.028586 167.395568 
L 176.861707 167.248001 
L 180.527949 165.094348 
L 182.36107 163.856478 
L 184.194191 162.822519 
L 186.027312 163.991961 
L 187.860432 161.819819 
L 189.693553 162.036957 
L 191.526674 158.986656 
L 193.359795 158.36452 
L 195.192916 159.647296 
L 197.026037 157.934437 
L 198.859157 157.18509 
L 200.692278 155.226007 
L 202.525399 154.67386 
L 204.35852 154.851238 
L 206.191641 154.389553 
L 208.024762 153.401301 
L 209.857882 151.95651 
L 211.691003 151.894449 
L 213.524124 150.12742 
L 215.357245 150.884505 
L 217.190366 148.415743 
L 219.023487 148.457219 
L 220.856608 147.611844 
L 222.689728 146.0326 
L 224.522849 146.431157 
L 226.35597 146.587835 
L 228.189091 144.051255 
L 230.022212 145.388734 
L 231.855333 142.12202 
L 233.688453 142.11108 
L 235.521574 140.683634 
L 237.354695 141.635175 
L 239.187816 141.112878 
L 241.020937 139.859798 
L 242.854058 139.23404 
L 244.687178 138.999747 
L 246.520299 138.649223 
L 248.35342 136.947687 
L 250.186541 136.521797 
L 252.019662 134.520781 
L 253.852783 134.825331 
L 255.685904 132.798621 
L 257.519024 134.849767 
L 259.352145 133.357362 
L 261.185266 133.335252 
L 263.018387 130.696469 
L 264.851508 129.734787 
L 266.684629 131.792414 
L 270.35087 128.124741 
L 272.183991 127.159362 
L 274.017112 127.919993 
L 275.850233 127.556432 
L 277.683354 126.338766 
L 279.516475 126.385617 
L 281.349595 124.022527 
L 283.182716 122.665109 
L 285.015837 123.524665 
L 286.848958 121.445576 
L 288.682079 121.897121 
L 290.5152 122.159585 
L 292.34832 121.427392 
L 294.181441 121.61857 
L 296.014562 119.778539 
L 297.847683 120.021676 
L 299.680804 119.665853 
L 301.513925 118.736002 
L 303.347045 118.733372 
L 307.013287 116.960778 
L 308.846408 117.107315 
L 310.679529 114.922136 
L 312.51265 114.719751 
L 314.345771 114.16688 
L 316.178891 114.943979 
L 318.012012 114.381731 
L 319.845133 112.269934 
L 321.678254 111.181767 
L 323.511375 110.758355 
L 325.344496 109.965817 
L 327.177616 111.85956 
L 329.010737 110.259959 
L 330.843858 109.6894 
L 332.676979 108.376547 
L 336.343221 109.549687 
L 338.176341 107.714802 
L 340.009462 107.739085 
L 341.842583 105.95433 
L 343.675704 106.717096 
L 345.508825 105.575368 
L 347.341946 105.557527 
L 349.175067 103.352639 
L 351.008187 103.374063 
L 352.841308 101.891342 
L 354.674429 101.762607 
L 356.50755 102.246516 
L 358.340671 100.644171 
L 360.173792 100.613064 
L 362.006912 99.987954 
L 363.840033 98.267166 
L 365.673154 99.339704 
L 367.506275 99.56115 
L 369.339396 98.65379 
L 371.172517 97.584378 
L 373.005637 98.628059 
L 374.838758 96.942952 
L 376.671879 97.923847 
L 378.505 97.035434 
L 380.338121 95.277021 
L 382.171242 94.682331 
L 384.004363 93.023261 
L 385.837483 94.725065 
L 387.670604 93.770092 
L 389.503725 93.566716 
L 391.336846 92.7502 
L 393.169967 92.760073 
L 395.003088 90.085647 
L 396.836208 90.159869 
L 398.669329 89.470448 
L 400.50245 90.211599 
L 402.335571 88.029889 
L 404.168692 88.64139 
L 406.001813 88.854715 
L 407.834933 87.645513 
L 409.668054 87.338257 
L 411.501175 87.964663 
L 413.334296 86.631072 
L 415.167417 85.89663 
L 417.000538 83.627737 
L 418.833659 86.156387 
L 420.666779 84.906739 
L 422.4999 84.803507 
L 426.166142 83.059198 
L 427.999263 83.576082 
L 429.832384 83.188505 
L 431.665504 80.904706 
L 433.498625 81.812599 
L 435.331746 81.395172 
L 437.164867 81.820833 
L 438.997988 82.893524 
L 440.831109 80.789428 
L 442.664229 80.875391 
L 446.330471 79.093685 
L 448.163592 80.345698 
L 449.996713 79.398845 
L 451.829834 78.130517 
L 453.662955 77.793297 
L 455.496075 79.655782 
L 457.329196 77.008078 
L 459.162317 77.824519 
L 460.995438 77.260974 
L 462.828559 76.241691 
L 464.66168 76.985663 
L 466.4948 75.155239 
L 468.327921 75.58555 
L 470.161042 75.127067 
L 471.994163 74.851528 
L 475.660405 72.654111 
L 477.493525 73.241253 
L 479.326646 73.392708 
L 481.159767 71.548179 
L 482.992888 72.231501 
L 484.826009 70.500229 
L 486.65913 69.868791 
L 488.492251 71.603112 
L 490.325371 71.524392 
L 492.158492 69.907636 
L 493.991613 70.743976 
L 495.824734 69.303112 
L 497.657855 69.683217 
L 499.490976 69.383395 
L 501.324096 69.732432 
L 503.157217 68.199314 
L 504.990338 66.096362 
L 506.823459 67.265994 
L 508.65658 67.31925 
L 510.489701 67.546147 
L 512.322822 67.053927 
L 514.155942 66.215757 
L 515.989063 66.777282 
L 517.822184 66.083134 
L 519.655305 65.013226 
L 521.488426 65.700245 
L 523.321547 64.027071 
L 525.154667 64.75 
L 526.987788 62.257869 
L 528.820909 63.543695 
L 530.65403 62.901087 
L 532.487151 63.089596 
L 536.153392 62.553041 
L 537.986513 62.638966 
L 539.819634 62.222111 
L 541.652755 62.575304 
L 543.485876 61.093764 
L 545.318997 60.924659 
L 547.152118 59.845602 
L 548.985238 59.690411 
L 550.818359 61.605311 
L 552.65148 59.239857 
L 554.484601 60.111268 
L 556.317722 58.81961 
L 558.150843 59.110855 
L 559.983963 57.683981 
L 561.817084 57.544649 
L 563.650205 57.867763 
L 565.483326 56.570425 
L 567.316447 56.192378 
L 569.149568 57.737351 
L 570.982688 56.838493 
L 572.815809 56.740331 
L 574.64893 56.813142 
L 576.482051 55.234051 
L 578.315172 56.863081 
L 581.981414 55.061133 
L 583.814534 53.901831 
L 585.647655 56.363999 
L 587.480776 53.802678 
L 589.313897 55.340065 
L 591.147018 55.235347 
L 592.980139 54.27702 
L 594.813259 51.995355 
L 596.64638 51.769831 
L 598.479501 52.649857 
L 600.312622 52.784997 
L 602.145743 50.976073 
L 603.978864 52.247565 
L 605.811984 52.776229 
L 607.645105 52.825214 
L 609.478226 52.374318 
L 611.311347 52.631788 
L 613.144468 50.622842 
L 614.977589 50.534249 
L 616.81071 51.031577 
L 618.64383 49.675113 
L 620.476951 50.465669 
L 622.310072 52.100684 
L 624.143193 50.48633 
L 625.976314 50.908293 
L 627.809435 49.109243 
L 629.642555 49.146411 
L 631.475676 48.836829 
L 635.141918 47.278742 
L 636.975039 48.778809 
L 638.80816 48.334621 
L 640.64128 48.111079 
L 642.474401 46.083035 
L 644.307522 46.186229 
L 646.140643 43.967198 
L 647.973764 48.061178 
L 649.806885 46.28035 
L 651.640006 47.016431 
L 653.473126 44.704003 
L 655.306247 46.076859 
L 658.972489 44.687306 
L 660.80561 45.555743 
L 662.638731 45.213949 
L 664.471851 44.214146 
L 666.304972 42.833437 
L 668.138093 44.449773 
L 669.971214 43.873229 
L 671.804335 43.84704 
L 673.637456 42.012727 
L 675.470576 42.452188 
L 679.136818 42.103799 
L 679.136818 42.103799 
" clip-path="url(#p404e433a3c)" style="fill: none; stroke: #0000ff; stroke-width: 1.5; stroke-linecap: square"/>
   </g>
   <g id="patch_3">
    <path d="M 47.81 390.04 
L 47.81 25.44 
" style="fill: none; stroke: #000000; stroke-width: 0.8; stroke-linejoin: miter; stroke-linecap: square"/>
   </g>
   <g id="patch_4">
    <path d="M 709.2 390.04 
L 709.2 25.44 
" style="fill: none; stroke: #000000; stroke-width: 0.8; stroke-linejoin: miter; stroke-linecap: square"/>
   </g>
   <g id="patch_5">
    <path d="M 47.81 390.04 
L 709.2 390.04 
" style="fill: none; stroke: #000000; stroke-width: 0.8; stroke-linejoin: miter; stroke-linecap: square"/>
   </g>
   <g id="patch_6">
    <path d="M 47.81 25.44 
L 709.2 25.44 
" style="fill: none; stroke: #000000; stroke-width: 0.8; stroke-linejoin: miter; stroke-linecap: square"/>
   </g>
   <g id="text_16">
    <!-- gan_IS_FID_mnist_generatorcnn_discriminator Trial 5 -->
    <g transform="translate(220.204375 19.44) scale(0.12 -0.12)">
     <defs>
      <path id="DejaVuSans-67" d="M 2906 1791 
Q 2906 2416 2648 2759 
Q 2391 3103 1925 3103 
Q 1463 3103 1205 2759 
Q 947 2416 947 1791 
Q 947 1169 1205 825 
Q 1463 481 1925 481 
Q 2391 481 2648 825 
Q 2906 1169 2906 1791 
z
M 3481 434 
Q 3481 -459 3084 -895 
Q 2688 -1331 1869 -1331 
Q 1566 -1331 1297 -1286 
Q 1028 -1241 775 -1147 
L 775 -588 
Q 1028 -725 1275 -790 
Q 1522 -856 1778 -856 
Q 2344 -856 2625 -561 
Q 2906 -266 2906 331 
L 2906 616 
Q 2728 306 2450 153 
Q 2172 0 1784 0 
Q 1141 0 747 490 
Q 353 981 353 1791 
Q 353 2603 747 3093 
Q 1141 3584 1784 3584 
Q 2172 3584 2450 3431 
Q 2728 3278 2906 2969 
L 2906 3500 
L 3481 3500 
L 3481 434 
z
" transform="scale(0.015625)"/>
      <path id="DejaVuSans-6e" d="M 3513 2113 
L 3513 0 
L 2938 0 
L 2938 2094 
Q 2938 2591 2744 2837 
Q 2550 3084 2163 3084 
Q 1697 3084 1428 2787 
Q 1159 2491 1159 1978 
L 1159 0 
L 581 0 
L 581 3500 
L 1159 3500 
L 1159 2956 
Q 1366 3272 1645 3428 
Q 1925 3584 2291 3584 
Q 2894 3584 3203 3211 
Q 3513 2838 3513 2113 
z
" transform="scale(0.015625)"/>
      <path id="DejaVuSans-5f" d="M 3263 -1063 
L 3263 -1509 
L -63 -1509 
L -63 -1063 
L 3263 -1063 
z
" transform="scale(0.015625)"/>
      <path id="DejaVuSans-49" d="M 628 4666 
L 1259 4666 
L 1259 0 
L 628 0 
L 628 4666 
z
" transform="scale(0.015625)"/>
      <path id="DejaVuSans-53" d="M 3425 4513 
L 3425 3897 
Q 3066 4069 2747 4153 
Q 2428 4238 2131 4238 
Q 1616 4238 1336 4038 
Q 1056 3838 1056 3469 
Q 1056 3159 1242 3001 
Q 1428 2844 1947 2747 
L 2328 2669 
Q 3034 2534 3370 2195 
Q 3706 1856 3706 1288 
Q 3706 609 3251 259 
Q 2797 -91 1919 -91 
Q 1588 -91 1214 -16 
Q 841 59 441 206 
L 441 856 
Q 825 641 1194 531 
Q 1563 422 1919 422 
Q 2459 422 2753 634 
Q 3047 847 3047 1241 
Q 3047 1584 2836 1778 
Q 2625 1972 2144 2069 
L 1759 2144 
Q 1053 2284 737 2584 
Q 422 2884 422 3419 
Q 422 4038 858 4394 
Q 1294 4750 2059 4750 
Q 2388 4750 2728 4690 
Q 3069 4631 3425 4513 
z
" transform="scale(0.015625)"/>
      <path id="DejaVuSans-46" d="M 628 4666 
L 3309 4666 
L 3309 4134 
L 1259 4134 
L 1259 2759 
L 3109 2759 
L 3109 2228 
L 1259 2228 
L 1259 0 
L 628 0 
L 628 4666 
z
" transform="scale(0.015625)"/>
      <path id="DejaVuSans-44" d="M 1259 4147 
L 1259 519 
L 2022 519 
Q 2988 519 3436 956 
Q 3884 1394 3884 2338 
Q 3884 3275 3436 3711 
Q 2988 4147 2022 4147 
L 1259 4147 
z
M 628 4666 
L 1925 4666 
Q 3281 4666 3915 4102 
Q 4550 3538 4550 2338 
Q 4550 1131 3912 565 
Q 3275 0 1925 0 
L 628 0 
L 628 4666 
z
" transform="scale(0.015625)"/>
      <path id="DejaVuSans-6d" d="M 3328 2828 
Q 3544 3216 3844 3400 
Q 4144 3584 4550 3584 
Q 5097 3584 5394 3201 
Q 5691 2819 5691 2113 
L 5691 0 
L 5113 0 
L 5113 2094 
Q 5113 2597 4934 2840 
Q 4756 3084 4391 3084 
Q 3944 3084 3684 2787 
Q 3425 2491 3425 1978 
L 3425 0 
L 2847 0 
L 2847 2094 
Q 2847 2600 2669 2842 
Q 2491 3084 2119 3084 
Q 1678 3084 1418 2786 
Q 1159 2488 1159 1978 
L 1159 0 
L 581 0 
L 581 3500 
L 1159 3500 
L 1159 2956 
Q 1356 3278 1631 3431 
Q 1906 3584 2284 3584 
Q 2666 3584 2933 3390 
Q 3200 3197 3328 2828 
z
" transform="scale(0.015625)"/>
      <path id="DejaVuSans-69" d="M 603 3500 
L 1178 3500 
L 1178 0 
L 603 0 
L 603 3500 
z
M 603 4863 
L 1178 4863 
L 1178 4134 
L 603 4134 
L 603 4863 
z
" transform="scale(0.015625)"/>
      <path id="DejaVuSans-73" d="M 2834 3397 
L 2834 2853 
Q 2591 2978 2328 3040 
Q 2066 3103 1784 3103 
Q 1356 3103 1142 2972 
Q 928 2841 928 2578 
Q 928 2378 1081 2264 
Q 1234 2150 1697 2047 
L 1894 2003 
Q 2506 1872 2764 1633 
Q 3022 1394 3022 966 
Q 3022 478 2636 193 
Q 2250 -91 1575 -91 
Q 1294 -91 989 -36 
Q 684 19 347 128 
L 347 722 
Q 666 556 975 473 
Q 1284 391 1588 391 
Q 1994 391 2212 530 
Q 2431 669 2431 922 
Q 2431 1156 2273 1281 
Q 2116 1406 1581 1522 
L 1381 1569 
Q 847 1681 609 1914 
Q 372 2147 372 2553 
Q 372 3047 722 3315 
Q 1072 3584 1716 3584 
Q 2034 3584 2315 3537 
Q 2597 3491 2834 3397 
z
" transform="scale(0.015625)"/>
      <path id="DejaVuSans-74" d="M 1172 4494 
L 1172 3500 
L 2356 3500 
L 2356 3053 
L 1172 3053 
L 1172 1153 
Q 1172 725 1289 603 
Q 1406 481 1766 481 
L 2356 481 
L 2356 0 
L 1766 0 
Q 1100 0 847 248 
Q 594 497 594 1153 
L 594 3053 
L 172 3053 
L 172 3500 
L 594 3500 
L 594 4494 
L 1172 4494 
z
" transform="scale(0.015625)"/>
      <path id="DejaVuSans-72" d="M 2631 2963 
Q 2534 3019 2420 3045 
Q 2306 3072 2169 3072 
Q 1681 3072 1420 2755 
Q 1159 2438 1159 1844 
L 1159 0 
L 581 0 
L 581 3500 
L 1159 3500 
L 1159 2956 
Q 1341 3275 1631 3429 
Q 1922 3584 2338 3584 
Q 2397 3584 2469 3576 
Q 2541 3569 2628 3553 
L 2631 2963 
z
" transform="scale(0.015625)"/>
      <path id="DejaVuSans-64" d="M 2906 2969 
L 2906 4863 
L 3481 4863 
L 3481 0 
L 2906 0 
L 2906 525 
Q 2725 213 2448 61 
Q 2172 -91 1784 -91 
Q 1150 -91 751 415 
Q 353 922 353 1747 
Q 353 2572 751 3078 
Q 1150 3584 1784 3584 
Q 2172 3584 2448 3432 
Q 2725 3281 2906 2969 
z
M 947 1747 
Q 947 1113 1208 752 
Q 1469 391 1925 391 
Q 2381 391 2643 752 
Q 2906 1113 2906 1747 
Q 2906 2381 2643 2742 
Q 2381 3103 1925 3103 
Q 1469 3103 1208 2742 
Q 947 2381 947 1747 
z
" transform="scale(0.015625)"/>
      <path id="DejaVuSans-20" transform="scale(0.015625)"/>
      <path id="DejaVuSans-54" d="M -19 4666 
L 3928 4666 
L 3928 4134 
L 2272 4134 
L 2272 0 
L 1638 0 
L 1638 4134 
L -19 4134 
L -19 4666 
z
" transform="scale(0.015625)"/>
     </defs>
     <use xlink:href="#DejaVuSans-67"/>
     <use xlink:href="#DejaVuSans-61" transform="translate(63.476562 0)"/>
     <use xlink:href="#DejaVuSans-6e" transform="translate(124.755859 0)"/>
     <use xlink:href="#DejaVuSans-5f" transform="translate(188.134766 0)"/>
     <use xlink:href="#DejaVuSans-49" transform="translate(238.134766 0)"/>
     <use xlink:href="#DejaVuSans-53" transform="translate(267.626953 0)"/>
     <use xlink:href="#DejaVuSans-5f" transform="translate(331.103516 0)"/>
     <use xlink:href="#DejaVuSans-46" transform="translate(381.103516 0)"/>
     <use xlink:href="#DejaVuSans-49" transform="translate(438.623047 0)"/>
     <use xlink:href="#DejaVuSans-44" transform="translate(468.115234 0)"/>
     <use xlink:href="#DejaVuSans-5f" transform="translate(545.117188 0)"/>
     <use xlink:href="#DejaVuSans-6d" transform="translate(595.117188 0)"/>
     <use xlink:href="#DejaVuSans-6e" transform="translate(692.529297 0)"/>
     <use xlink:href="#DejaVuSans-69" transform="translate(755.908203 0)"/>
     <use xlink:href="#DejaVuSans-73" transform="translate(783.691406 0)"/>
     <use xlink:href="#DejaVuSans-74" transform="translate(835.791016 0)"/>
     <use xlink:href="#DejaVuSans-5f" transform="translate(875 0)"/>
     <use xlink:href="#DejaVuSans-67" transform="translate(925 0)"/>
     <use xlink:href="#DejaVuSans-65" transform="translate(988.476562 0)"/>
     <use xlink:href="#DejaVuSans-6e" transform="translate(1050 0)"/>
     <use xlink:href="#DejaVuSans-65" transform="translate(1113.378906 0)"/>
     <use xlink:href="#DejaVuSans-72" transform="translate(1174.902344 0)"/>
     <use xlink:href="#DejaVuSans-61" transform="translate(1216.015625 0)"/>
     <use xlink:href="#DejaVuSans-74" transform="translate(1277.294922 0)"/>
     <use xlink:href="#DejaVuSans-6f" transform="translate(1316.503906 0)"/>
     <use xlink:href="#DejaVuSans-72" transform="translate(1377.685547 0)"/>
     <use xlink:href="#DejaVuSans-63" transform="translate(1416.548828 0)"/>
     <use xlink:href="#DejaVuSans-6e" transform="translate(1471.529297 0)"/>
     <use xlink:href="#DejaVuSans-6e" transform="translate(1534.908203 0)"/>
     <use xlink:href="#DejaVuSans-5f" transform="translate(1598.287109 0)"/>
     <use xlink:href="#DejaVuSans-64" transform="translate(1648.287109 0)"/>
     <use xlink:href="#DejaVuSans-69" transform="translate(1711.763672 0)"/>
     <use xlink:href="#DejaVuSans-73" transform="translate(1739.546875 0)"/>
     <use xlink:href="#DejaVuSans-63" transform="translate(1791.646484 0)"/>
     <use xlink:href="#DejaVuSans-72" transform="translate(1846.626953 0)"/>
     <use xlink:href="#DejaVuSans-69" transform="translate(1887.740234 0)"/>
     <use xlink:href="#DejaVuSans-6d" transform="translate(1915.523438 0)"/>
     <use xlink:href="#DejaVuSans-69" transform="translate(2012.935547 0)"/>
     <use xlink:href="#DejaVuSans-6e" transform="translate(2040.71875 0)"/>
     <use xlink:href="#DejaVuSans-61" transform="translate(2104.097656 0)"/>
     <use xlink:href="#DejaVuSans-74" transform="translate(2165.376953 0)"/>
     <use xlink:href="#DejaVuSans-6f" transform="translate(2204.585938 0)"/>
     <use xlink:href="#DejaVuSans-72" transform="translate(2265.767578 0)"/>
     <use xlink:href="#DejaVuSans-20" transform="translate(2306.880859 0)"/>
     <use xlink:href="#DejaVuSans-54" transform="translate(2338.667969 0)"/>
     <use xlink:href="#DejaVuSans-72" transform="translate(2385.001953 0)"/>
     <use xlink:href="#DejaVuSans-69" transform="translate(2426.115234 0)"/>
     <use xlink:href="#DejaVuSans-61" transform="translate(2453.898438 0)"/>
     <use xlink:href="#DejaVuSans-6c" transform="translate(2515.177734 0)"/>
     <use xlink:href="#DejaVuSans-20" transform="translate(2542.960938 0)"/>
     <use xlink:href="#DejaVuSans-35" transform="translate(2574.748047 0)"/>
    </g>
   </g>
   <g id="legend_1">
    <g id="patch_7">
     <path d="M 54.81 63.3525 
L 176.983438 63.3525 
Q 178.983438 63.3525 178.983438 61.3525 
L 178.983438 32.44 
Q 178.983438 30.44 176.983438 30.44 
L 54.81 30.44 
Q 52.81 30.44 52.81 32.44 
L 52.81 61.3525 
Q 52.81 63.3525 54.81 63.3525 
z
" style="fill: #ffffff; opacity: 0.8; stroke: #cccccc; stroke-linejoin: miter"/>
    </g>
    <g id="line2d_29">
     <path d="M 56.81 38.538438 
L 66.81 38.538438 
L 76.81 38.538438 
" style="fill: none; stroke: #ff0000; stroke-width: 1.5; stroke-linecap: square"/>
    </g>
    <g id="text_17">
     <!-- discriminator_loss -->
     <g transform="translate(84.81 42.038438) scale(0.1 -0.1)">
      <use xlink:href="#DejaVuSans-64"/>
      <use xlink:href="#DejaVuSans-69" transform="translate(63.476562 0)"/>
      <use xlink:href="#DejaVuSans-73" transform="translate(91.259766 0)"/>
      <use xlink:href="#DejaVuSans-63" transform="translate(143.359375 0)"/>
      <use xlink:href="#DejaVuSans-72" transform="translate(198.339844 0)"/>
      <use xlink:href="#DejaVuSans-69" transform="translate(239.453125 0)"/>
      <use xlink:href="#DejaVuSans-6d" transform="translate(267.236328 0)"/>
      <use xlink:href="#DejaVuSans-69" transform="translate(364.648438 0)"/>
      <use xlink:href="#DejaVuSans-6e" transform="translate(392.431641 0)"/>
      <use xlink:href="#DejaVuSans-61" transform="translate(455.810547 0)"/>
      <use xlink:href="#DejaVuSans-74" transform="translate(517.089844 0)"/>
      <use xlink:href="#DejaVuSans-6f" transform="translate(556.298828 0)"/>
      <use xlink:href="#DejaVuSans-72" transform="translate(617.480469 0)"/>
      <use xlink:href="#DejaVuSans-5f" transform="translate(658.59375 0)"/>
      <use xlink:href="#DejaVuSans-6c" transform="translate(708.59375 0)"/>
      <use xlink:href="#DejaVuSans-6f" transform="translate(736.376953 0)"/>
      <use xlink:href="#DejaVuSans-73" transform="translate(797.558594 0)"/>
      <use xlink:href="#DejaVuSans-73" transform="translate(849.658203 0)"/>
     </g>
    </g>
    <g id="line2d_30">
     <path d="M 56.81 53.494688 
L 66.81 53.494688 
L 76.81 53.494688 
" style="fill: none; stroke: #0000ff; stroke-width: 1.5; stroke-linecap: square"/>
    </g>
    <g id="text_18">
     <!-- generator_loss -->
     <g transform="translate(84.81 56.994688) scale(0.1 -0.1)">
      <use xlink:href="#DejaVuSans-67"/>
      <use xlink:href="#DejaVuSans-65" transform="translate(63.476562 0)"/>
      <use xlink:href="#DejaVuSans-6e" transform="translate(125 0)"/>
      <use xlink:href="#DejaVuSans-65" transform="translate(188.378906 0)"/>
      <use xlink:href="#DejaVuSans-72" transform="translate(249.902344 0)"/>
      <use xlink:href="#DejaVuSans-61" transform="translate(291.015625 0)"/>
      <use xlink:href="#DejaVuSans-74" transform="translate(352.294922 0)"/>
      <use xlink:href="#DejaVuSans-6f" transform="translate(391.503906 0)"/>
      <use xlink:href="#DejaVuSans-72" transform="translate(452.685547 0)"/>
      <use xlink:href="#DejaVuSans-5f" transform="translate(493.798828 0)"/>
      <use xlink:href="#DejaVuSans-6c" transform="translate(543.798828 0)"/>
      <use xlink:href="#DejaVuSans-6f" transform="translate(571.582031 0)"/>
      <use xlink:href="#DejaVuSans-73" transform="translate(632.763672 0)"/>
      <use xlink:href="#DejaVuSans-73" transform="translate(684.863281 0)"/>
     </g>
    </g>
   </g>
  </g>
 </g>
 <defs>
  <clipPath id="p404e433a3c">
   <rect x="47.81" y="25.44" width="661.39" height="364.6"/>
  </clipPath>
 </defs>
</svg>
