<?xml version="1.0" encoding="utf-8" standalone="no"?>
<!DOCTYPE svg PUBLIC "-//W3C//DTD SVG 1.1//EN"
  "http://www.w3.org/Graphics/SVG/1.1/DTD/svg11.dtd">
<svg xmlns:xlink="http://www.w3.org/1999/xlink" width="720pt" height="432pt" viewBox="0 0 720 432" xmlns="http://www.w3.org/2000/svg" version="1.1">
 <metadata>
  <rdf:RDF xmlns:dc="http://purl.org/dc/elements/1.1/" xmlns:cc="http://creativecommons.org/ns#" xmlns:rdf="http://www.w3.org/1999/02/22-rdf-syntax-ns#">
   <cc:Work>
    <dc:type rdf:resource="http://purl.org/dc/dcmitype/StillImage"/>
    <dc:date>2025-06-22T15:36:10.711318</dc:date>
    <dc:format>image/svg+xml</dc:format>
    <dc:creator>
     <cc:Agent>
      <dc:title>Matplotlib v3.10.1, https://matplotlib.org/</dc:title>
     </cc:Agent>
    </dc:creator>
   </cc:Work>
  </rdf:RDF>
 </metadata>
 <defs>
  <style type="text/css">*{stroke-linejoin: round; stroke-linecap: butt}</style>
 </defs>
 <g id="figure_1">
  <g id="patch_1">
   <path d="M 0 432 
L 720 432 
L 720 0 
L 0 0 
z
" style="fill: #ffffff"/>
  </g>
  <g id="axes_1">
   <g id="patch_2">
    <path d="M 47.81 390.04 
L 709.2 390.04 
L 709.2 25.44 
L 47.81 25.44 
z
" style="fill: #ffffff"/>
   </g>
   <g id="matplotlib.axis_1">
    <g id="xtick_1">
     <g id="line2d_1">
      <path d="M 77.873182 390.04 
L 77.873182 25.44 
" clip-path="url(#pc522dabd5a)" style="fill: none; stroke: #b0b0b0; stroke-width: 0.8; stroke-linecap: square"/>
     </g>
     <g id="line2d_2">
      <defs>
       <path id="m9d6cf02838" d="M 0 0 
L 0 3.5 
" style="stroke: #000000; stroke-width: 0.8"/>
      </defs>
      <g>
       <use xlink:href="#m9d6cf02838" x="77.873182" y="390.04" style="stroke: #000000; stroke-width: 0.8"/>
      </g>
     </g>
     <g id="text_1">
      <!-- 0 -->
      <g transform="translate(74.691932 404.638438) scale(0.1 -0.1)">
       <defs>
        <path id="DejaVuSans-30" d="M 2034 4250 
Q 1547 4250 1301 3770 
Q 1056 3291 1056 2328 
Q 1056 1369 1301 889 
Q 1547 409 2034 409 
Q 2525 409 2770 889 
Q 3016 1369 3016 2328 
Q 3016 3291 2770 3770 
Q 2525 4250 2034 4250 
z
M 2034 4750 
Q 2819 4750 3233 4129 
Q 3647 3509 3647 2328 
Q 3647 1150 3233 529 
Q 2819 -91 2034 -91 
Q 1250 -91 836 529 
Q 422 1150 422 2328 
Q 422 3509 836 4129 
Q 1250 4750 2034 4750 
z
" transform="scale(0.015625)"/>
       </defs>
       <use xlink:href="#DejaVuSans-30"/>
      </g>
     </g>
    </g>
    <g id="xtick_2">
     <g id="line2d_3">
      <path d="M 164.014104 390.04 
L 164.014104 25.44 
" clip-path="url(#pc522dabd5a)" style="fill: none; stroke: #b0b0b0; stroke-width: 0.8; stroke-linecap: square"/>
     </g>
     <g id="line2d_4">
      <g>
       <use xlink:href="#m9d6cf02838" x="164.014104" y="390.04" style="stroke: #000000; stroke-width: 0.8"/>
      </g>
     </g>
     <g id="text_2">
      <!-- 50 -->
      <g transform="translate(157.651604 404.638438) scale(0.1 -0.1)">
       <defs>
        <path id="DejaVuSans-35" d="M 691 4666 
L 3169 4666 
L 3169 4134 
L 1269 4134 
L 1269 2991 
Q 1406 3038 1543 3061 
Q 1681 3084 1819 3084 
Q 2600 3084 3056 2656 
Q 3513 2228 3513 1497 
Q 3513 744 3044 326 
Q 2575 -91 1722 -91 
Q 1428 -91 1123 -41 
Q 819 9 494 109 
L 494 744 
Q 775 591 1075 516 
Q 1375 441 1709 441 
Q 2250 441 2565 725 
Q 2881 1009 2881 1497 
Q 2881 1984 2565 2268 
Q 2250 2553 1709 2553 
Q 1456 2553 1204 2497 
Q 953 2441 691 2322 
L 691 4666 
z
" transform="scale(0.015625)"/>
       </defs>
       <use xlink:href="#DejaVuSans-35"/>
       <use xlink:href="#DejaVuSans-30" transform="translate(63.623047 0)"/>
      </g>
     </g>
    </g>
    <g id="xtick_3">
     <g id="line2d_5">
      <path d="M 250.155026 390.04 
L 250.155026 25.44 
" clip-path="url(#pc522dabd5a)" style="fill: none; stroke: #b0b0b0; stroke-width: 0.8; stroke-linecap: square"/>
     </g>
     <g id="line2d_6">
      <g>
       <use xlink:href="#m9d6cf02838" x="250.155026" y="390.04" style="stroke: #000000; stroke-width: 0.8"/>
      </g>
     </g>
     <g id="text_3">
      <!-- 100 -->
      <g transform="translate(240.611276 404.638438) scale(0.1 -0.1)">
       <defs>
        <path id="DejaVuSans-31" d="M 794 531 
L 1825 531 
L 1825 4091 
L 703 3866 
L 703 4441 
L 1819 4666 
L 2450 4666 
L 2450 531 
L 3481 531 
L 3481 0 
L 794 0 
L 794 531 
z
" transform="scale(0.015625)"/>
       </defs>
       <use xlink:href="#DejaVuSans-31"/>
       <use xlink:href="#DejaVuSans-30" transform="translate(63.623047 0)"/>
       <use xlink:href="#DejaVuSans-30" transform="translate(127.246094 0)"/>
      </g>
     </g>
    </g>
    <g id="xtick_4">
     <g id="line2d_7">
      <path d="M 336.295948 390.04 
L 336.295948 25.44 
" clip-path="url(#pc522dabd5a)" style="fill: none; stroke: #b0b0b0; stroke-width: 0.8; stroke-linecap: square"/>
     </g>
     <g id="line2d_8">
      <g>
       <use xlink:href="#m9d6cf02838" x="336.295948" y="390.04" style="stroke: #000000; stroke-width: 0.8"/>
      </g>
     </g>
     <g id="text_4">
      <!-- 150 -->
      <g transform="translate(326.752198 404.638438) scale(0.1 -0.1)">
       <use xlink:href="#DejaVuSans-31"/>
       <use xlink:href="#DejaVuSans-35" transform="translate(63.623047 0)"/>
       <use xlink:href="#DejaVuSans-30" transform="translate(127.246094 0)"/>
      </g>
     </g>
    </g>
    <g id="xtick_5">
     <g id="line2d_9">
      <path d="M 422.43687 390.04 
L 422.43687 25.44 
" clip-path="url(#pc522dabd5a)" style="fill: none; stroke: #b0b0b0; stroke-width: 0.8; stroke-linecap: square"/>
     </g>
     <g id="line2d_10">
      <g>
       <use xlink:href="#m9d6cf02838" x="422.43687" y="390.04" style="stroke: #000000; stroke-width: 0.8"/>
      </g>
     </g>
     <g id="text_5">
      <!-- 200 -->
      <g transform="translate(412.89312 404.638438) scale(0.1 -0.1)">
       <defs>
        <path id="DejaVuSans-32" d="M 1228 531 
L 3431 531 
L 3431 0 
L 469 0 
L 469 531 
Q 828 903 1448 1529 
Q 2069 2156 2228 2338 
Q 2531 2678 2651 2914 
Q 2772 3150 2772 3378 
Q 2772 3750 2511 3984 
Q 2250 4219 1831 4219 
Q 1534 4219 1204 4116 
Q 875 4013 500 3803 
L 500 4441 
Q 881 4594 1212 4672 
Q 1544 4750 1819 4750 
Q 2544 4750 2975 4387 
Q 3406 4025 3406 3419 
Q 3406 3131 3298 2873 
Q 3191 2616 2906 2266 
Q 2828 2175 2409 1742 
Q 1991 1309 1228 531 
z
" transform="scale(0.015625)"/>
       </defs>
       <use xlink:href="#DejaVuSans-32"/>
       <use xlink:href="#DejaVuSans-30" transform="translate(63.623047 0)"/>
       <use xlink:href="#DejaVuSans-30" transform="translate(127.246094 0)"/>
      </g>
     </g>
    </g>
    <g id="xtick_6">
     <g id="line2d_11">
      <path d="M 508.577792 390.04 
L 508.577792 25.44 
" clip-path="url(#pc522dabd5a)" style="fill: none; stroke: #b0b0b0; stroke-width: 0.8; stroke-linecap: square"/>
     </g>
     <g id="line2d_12">
      <g>
       <use xlink:href="#m9d6cf02838" x="508.577792" y="390.04" style="stroke: #000000; stroke-width: 0.8"/>
      </g>
     </g>
     <g id="text_6">
      <!-- 250 -->
      <g transform="translate(499.034042 404.638438) scale(0.1 -0.1)">
       <use xlink:href="#DejaVuSans-32"/>
       <use xlink:href="#DejaVuSans-35" transform="translate(63.623047 0)"/>
       <use xlink:href="#DejaVuSans-30" transform="translate(127.246094 0)"/>
      </g>
     </g>
    </g>
    <g id="xtick_7">
     <g id="line2d_13">
      <path d="M 594.718715 390.04 
L 594.718715 25.44 
" clip-path="url(#pc522dabd5a)" style="fill: none; stroke: #b0b0b0; stroke-width: 0.8; stroke-linecap: square"/>
     </g>
     <g id="line2d_14">
      <g>
       <use xlink:href="#m9d6cf02838" x="594.718715" y="390.04" style="stroke: #000000; stroke-width: 0.8"/>
      </g>
     </g>
     <g id="text_7">
      <!-- 300 -->
      <g transform="translate(585.174965 404.638438) scale(0.1 -0.1)">
       <defs>
        <path id="DejaVuSans-33" d="M 2597 2516 
Q 3050 2419 3304 2112 
Q 3559 1806 3559 1356 
Q 3559 666 3084 287 
Q 2609 -91 1734 -91 
Q 1441 -91 1130 -33 
Q 819 25 488 141 
L 488 750 
Q 750 597 1062 519 
Q 1375 441 1716 441 
Q 2309 441 2620 675 
Q 2931 909 2931 1356 
Q 2931 1769 2642 2001 
Q 2353 2234 1838 2234 
L 1294 2234 
L 1294 2753 
L 1863 2753 
Q 2328 2753 2575 2939 
Q 2822 3125 2822 3475 
Q 2822 3834 2567 4026 
Q 2313 4219 1838 4219 
Q 1578 4219 1281 4162 
Q 984 4106 628 3988 
L 628 4550 
Q 988 4650 1302 4700 
Q 1616 4750 1894 4750 
Q 2613 4750 3031 4423 
Q 3450 4097 3450 3541 
Q 3450 3153 3228 2886 
Q 3006 2619 2597 2516 
z
" transform="scale(0.015625)"/>
       </defs>
       <use xlink:href="#DejaVuSans-33"/>
       <use xlink:href="#DejaVuSans-30" transform="translate(63.623047 0)"/>
       <use xlink:href="#DejaVuSans-30" transform="translate(127.246094 0)"/>
      </g>
     </g>
    </g>
    <g id="xtick_8">
     <g id="line2d_15">
      <path d="M 680.859637 390.04 
L 680.859637 25.44 
" clip-path="url(#pc522dabd5a)" style="fill: none; stroke: #b0b0b0; stroke-width: 0.8; stroke-linecap: square"/>
     </g>
     <g id="line2d_16">
      <g>
       <use xlink:href="#m9d6cf02838" x="680.859637" y="390.04" style="stroke: #000000; stroke-width: 0.8"/>
      </g>
     </g>
     <g id="text_8">
      <!-- 350 -->
      <g transform="translate(671.315887 404.638438) scale(0.1 -0.1)">
       <use xlink:href="#DejaVuSans-33"/>
       <use xlink:href="#DejaVuSans-35" transform="translate(63.623047 0)"/>
       <use xlink:href="#DejaVuSans-30" transform="translate(127.246094 0)"/>
      </g>
     </g>
    </g>
    <g id="text_9">
     <!-- Epoch -->
     <g transform="translate(363.194063 418.316562) scale(0.1 -0.1)">
      <defs>
       <path id="DejaVuSans-45" d="M 628 4666 
L 3578 4666 
L 3578 4134 
L 1259 4134 
L 1259 2753 
L 3481 2753 
L 3481 2222 
L 1259 2222 
L 1259 531 
L 3634 531 
L 3634 0 
L 628 0 
L 628 4666 
z
" transform="scale(0.015625)"/>
       <path id="DejaVuSans-70" d="M 1159 525 
L 1159 -1331 
L 581 -1331 
L 581 3500 
L 1159 3500 
L 1159 2969 
Q 1341 3281 1617 3432 
Q 1894 3584 2278 3584 
Q 2916 3584 3314 3078 
Q 3713 2572 3713 1747 
Q 3713 922 3314 415 
Q 2916 -91 2278 -91 
Q 1894 -91 1617 61 
Q 1341 213 1159 525 
z
M 3116 1747 
Q 3116 2381 2855 2742 
Q 2594 3103 2138 3103 
Q 1681 3103 1420 2742 
Q 1159 2381 1159 1747 
Q 1159 1113 1420 752 
Q 1681 391 2138 391 
Q 2594 391 2855 752 
Q 3116 1113 3116 1747 
z
" transform="scale(0.015625)"/>
       <path id="DejaVuSans-6f" d="M 1959 3097 
Q 1497 3097 1228 2736 
Q 959 2375 959 1747 
Q 959 1119 1226 758 
Q 1494 397 1959 397 
Q 2419 397 2687 759 
Q 2956 1122 2956 1747 
Q 2956 2369 2687 2733 
Q 2419 3097 1959 3097 
z
M 1959 3584 
Q 2709 3584 3137 3096 
Q 3566 2609 3566 1747 
Q 3566 888 3137 398 
Q 2709 -91 1959 -91 
Q 1206 -91 779 398 
Q 353 888 353 1747 
Q 353 2609 779 3096 
Q 1206 3584 1959 3584 
z
" transform="scale(0.015625)"/>
       <path id="DejaVuSans-63" d="M 3122 3366 
L 3122 2828 
Q 2878 2963 2633 3030 
Q 2388 3097 2138 3097 
Q 1578 3097 1268 2742 
Q 959 2388 959 1747 
Q 959 1106 1268 751 
Q 1578 397 2138 397 
Q 2388 397 2633 464 
Q 2878 531 3122 666 
L 3122 134 
Q 2881 22 2623 -34 
Q 2366 -91 2075 -91 
Q 1284 -91 818 406 
Q 353 903 353 1747 
Q 353 2603 823 3093 
Q 1294 3584 2113 3584 
Q 2378 3584 2631 3529 
Q 2884 3475 3122 3366 
z
" transform="scale(0.015625)"/>
       <path id="DejaVuSans-68" d="M 3513 2113 
L 3513 0 
L 2938 0 
L 2938 2094 
Q 2938 2591 2744 2837 
Q 2550 3084 2163 3084 
Q 1697 3084 1428 2787 
Q 1159 2491 1159 1978 
L 1159 0 
L 581 0 
L 581 4863 
L 1159 4863 
L 1159 2956 
Q 1366 3272 1645 3428 
Q 1925 3584 2291 3584 
Q 2894 3584 3203 3211 
Q 3513 2838 3513 2113 
z
" transform="scale(0.015625)"/>
      </defs>
      <use xlink:href="#DejaVuSans-45"/>
      <use xlink:href="#DejaVuSans-70" transform="translate(63.183594 0)"/>
      <use xlink:href="#DejaVuSans-6f" transform="translate(126.660156 0)"/>
      <use xlink:href="#DejaVuSans-63" transform="translate(187.841797 0)"/>
      <use xlink:href="#DejaVuSans-68" transform="translate(242.822266 0)"/>
     </g>
    </g>
   </g>
   <g id="matplotlib.axis_2">
    <g id="ytick_1">
     <g id="line2d_17">
      <path d="M 47.81 374.325849 
L 709.2 374.325849 
" clip-path="url(#pc522dabd5a)" style="fill: none; stroke: #b0b0b0; stroke-width: 0.8; stroke-linecap: square"/>
     </g>
     <g id="line2d_18">
      <defs>
       <path id="maf9ca1a9d4" d="M 0 0 
L -3.5 0 
" style="stroke: #000000; stroke-width: 0.8"/>
      </defs>
      <g>
       <use xlink:href="#maf9ca1a9d4" x="47.81" y="374.325849" style="stroke: #000000; stroke-width: 0.8"/>
      </g>
     </g>
     <g id="text_10">
      <!-- 0.0 -->
      <g transform="translate(24.906875 378.125068) scale(0.1 -0.1)">
       <defs>
        <path id="DejaVuSans-2e" d="M 684 794 
L 1344 794 
L 1344 0 
L 684 0 
L 684 794 
z
" transform="scale(0.015625)"/>
       </defs>
       <use xlink:href="#DejaVuSans-30"/>
       <use xlink:href="#DejaVuSans-2e" transform="translate(63.623047 0)"/>
       <use xlink:href="#DejaVuSans-30" transform="translate(95.410156 0)"/>
      </g>
     </g>
    </g>
    <g id="ytick_2">
     <g id="line2d_19">
      <path d="M 47.81 307.29989 
L 709.2 307.29989 
" clip-path="url(#pc522dabd5a)" style="fill: none; stroke: #b0b0b0; stroke-width: 0.8; stroke-linecap: square"/>
     </g>
     <g id="line2d_20">
      <g>
       <use xlink:href="#maf9ca1a9d4" x="47.81" y="307.29989" style="stroke: #000000; stroke-width: 0.8"/>
      </g>
     </g>
     <g id="text_11">
      <!-- 0.2 -->
      <g transform="translate(24.906875 311.099108) scale(0.1 -0.1)">
       <use xlink:href="#DejaVuSans-30"/>
       <use xlink:href="#DejaVuSans-2e" transform="translate(63.623047 0)"/>
       <use xlink:href="#DejaVuSans-32" transform="translate(95.410156 0)"/>
      </g>
     </g>
    </g>
    <g id="ytick_3">
     <g id="line2d_21">
      <path d="M 47.81 240.27393 
L 709.2 240.27393 
" clip-path="url(#pc522dabd5a)" style="fill: none; stroke: #b0b0b0; stroke-width: 0.8; stroke-linecap: square"/>
     </g>
     <g id="line2d_22">
      <g>
       <use xlink:href="#maf9ca1a9d4" x="47.81" y="240.27393" style="stroke: #000000; stroke-width: 0.8"/>
      </g>
     </g>
     <g id="text_12">
      <!-- 0.4 -->
      <g transform="translate(24.906875 244.073149) scale(0.1 -0.1)">
       <defs>
        <path id="DejaVuSans-34" d="M 2419 4116 
L 825 1625 
L 2419 1625 
L 2419 4116 
z
M 2253 4666 
L 3047 4666 
L 3047 1625 
L 3713 1625 
L 3713 1100 
L 3047 1100 
L 3047 0 
L 2419 0 
L 2419 1100 
L 313 1100 
L 313 1709 
L 2253 4666 
z
" transform="scale(0.015625)"/>
       </defs>
       <use xlink:href="#DejaVuSans-30"/>
       <use xlink:href="#DejaVuSans-2e" transform="translate(63.623047 0)"/>
       <use xlink:href="#DejaVuSans-34" transform="translate(95.410156 0)"/>
      </g>
     </g>
    </g>
    <g id="ytick_4">
     <g id="line2d_23">
      <path d="M 47.81 173.24797 
L 709.2 173.24797 
" clip-path="url(#pc522dabd5a)" style="fill: none; stroke: #b0b0b0; stroke-width: 0.8; stroke-linecap: square"/>
     </g>
     <g id="line2d_24">
      <g>
       <use xlink:href="#maf9ca1a9d4" x="47.81" y="173.24797" style="stroke: #000000; stroke-width: 0.8"/>
      </g>
     </g>
     <g id="text_13">
      <!-- 0.6 -->
      <g transform="translate(24.906875 177.047189) scale(0.1 -0.1)">
       <defs>
        <path id="DejaVuSans-36" d="M 2113 2584 
Q 1688 2584 1439 2293 
Q 1191 2003 1191 1497 
Q 1191 994 1439 701 
Q 1688 409 2113 409 
Q 2538 409 2786 701 
Q 3034 994 3034 1497 
Q 3034 2003 2786 2293 
Q 2538 2584 2113 2584 
z
M 3366 4563 
L 3366 3988 
Q 3128 4100 2886 4159 
Q 2644 4219 2406 4219 
Q 1781 4219 1451 3797 
Q 1122 3375 1075 2522 
Q 1259 2794 1537 2939 
Q 1816 3084 2150 3084 
Q 2853 3084 3261 2657 
Q 3669 2231 3669 1497 
Q 3669 778 3244 343 
Q 2819 -91 2113 -91 
Q 1303 -91 875 529 
Q 447 1150 447 2328 
Q 447 3434 972 4092 
Q 1497 4750 2381 4750 
Q 2619 4750 2861 4703 
Q 3103 4656 3366 4563 
z
" transform="scale(0.015625)"/>
       </defs>
       <use xlink:href="#DejaVuSans-30"/>
       <use xlink:href="#DejaVuSans-2e" transform="translate(63.623047 0)"/>
       <use xlink:href="#DejaVuSans-36" transform="translate(95.410156 0)"/>
      </g>
     </g>
    </g>
    <g id="ytick_5">
     <g id="line2d_25">
      <path d="M 47.81 106.222011 
L 709.2 106.222011 
" clip-path="url(#pc522dabd5a)" style="fill: none; stroke: #b0b0b0; stroke-width: 0.8; stroke-linecap: square"/>
     </g>
     <g id="line2d_26">
      <g>
       <use xlink:href="#maf9ca1a9d4" x="47.81" y="106.222011" style="stroke: #000000; stroke-width: 0.8"/>
      </g>
     </g>
     <g id="text_14">
      <!-- 0.8 -->
      <g transform="translate(24.906875 110.02123) scale(0.1 -0.1)">
       <defs>
        <path id="DejaVuSans-38" d="M 2034 2216 
Q 1584 2216 1326 1975 
Q 1069 1734 1069 1313 
Q 1069 891 1326 650 
Q 1584 409 2034 409 
Q 2484 409 2743 651 
Q 3003 894 3003 1313 
Q 3003 1734 2745 1975 
Q 2488 2216 2034 2216 
z
M 1403 2484 
Q 997 2584 770 2862 
Q 544 3141 544 3541 
Q 544 4100 942 4425 
Q 1341 4750 2034 4750 
Q 2731 4750 3128 4425 
Q 3525 4100 3525 3541 
Q 3525 3141 3298 2862 
Q 3072 2584 2669 2484 
Q 3125 2378 3379 2068 
Q 3634 1759 3634 1313 
Q 3634 634 3220 271 
Q 2806 -91 2034 -91 
Q 1263 -91 848 271 
Q 434 634 434 1313 
Q 434 1759 690 2068 
Q 947 2378 1403 2484 
z
M 1172 3481 
Q 1172 3119 1398 2916 
Q 1625 2713 2034 2713 
Q 2441 2713 2670 2916 
Q 2900 3119 2900 3481 
Q 2900 3844 2670 4047 
Q 2441 4250 2034 4250 
Q 1625 4250 1398 4047 
Q 1172 3844 1172 3481 
z
" transform="scale(0.015625)"/>
       </defs>
       <use xlink:href="#DejaVuSans-30"/>
       <use xlink:href="#DejaVuSans-2e" transform="translate(63.623047 0)"/>
       <use xlink:href="#DejaVuSans-38" transform="translate(95.410156 0)"/>
      </g>
     </g>
    </g>
    <g id="ytick_6">
     <g id="line2d_27">
      <path d="M 47.81 39.196051 
L 709.2 39.196051 
" clip-path="url(#pc522dabd5a)" style="fill: none; stroke: #b0b0b0; stroke-width: 0.8; stroke-linecap: square"/>
     </g>
     <g id="line2d_28">
      <g>
       <use xlink:href="#maf9ca1a9d4" x="47.81" y="39.196051" style="stroke: #000000; stroke-width: 0.8"/>
      </g>
     </g>
     <g id="text_15">
      <!-- 1.0 -->
      <g transform="translate(24.906875 42.99527) scale(0.1 -0.1)">
       <use xlink:href="#DejaVuSans-31"/>
       <use xlink:href="#DejaVuSans-2e" transform="translate(63.623047 0)"/>
       <use xlink:href="#DejaVuSans-30" transform="translate(95.410156 0)"/>
      </g>
     </g>
    </g>
    <g id="text_16">
     <!-- Value -->
     <g transform="translate(18.827188 221.47125) rotate(-90) scale(0.1 -0.1)">
      <defs>
       <path id="DejaVuSans-56" d="M 1831 0 
L 50 4666 
L 709 4666 
L 2188 738 
L 3669 4666 
L 4325 4666 
L 2547 0 
L 1831 0 
z
" transform="scale(0.015625)"/>
       <path id="DejaVuSans-61" d="M 2194 1759 
Q 1497 1759 1228 1600 
Q 959 1441 959 1056 
Q 959 750 1161 570 
Q 1363 391 1709 391 
Q 2188 391 2477 730 
Q 2766 1069 2766 1631 
L 2766 1759 
L 2194 1759 
z
M 3341 1997 
L 3341 0 
L 2766 0 
L 2766 531 
Q 2569 213 2275 61 
Q 1981 -91 1556 -91 
Q 1019 -91 701 211 
Q 384 513 384 1019 
Q 384 1609 779 1909 
Q 1175 2209 1959 2209 
L 2766 2209 
L 2766 2266 
Q 2766 2663 2505 2880 
Q 2244 3097 1772 3097 
Q 1472 3097 1187 3025 
Q 903 2953 641 2809 
L 641 3341 
Q 956 3463 1253 3523 
Q 1550 3584 1831 3584 
Q 2591 3584 2966 3190 
Q 3341 2797 3341 1997 
z
" transform="scale(0.015625)"/>
       <path id="DejaVuSans-6c" d="M 603 4863 
L 1178 4863 
L 1178 0 
L 603 0 
L 603 4863 
z
" transform="scale(0.015625)"/>
       <path id="DejaVuSans-75" d="M 544 1381 
L 544 3500 
L 1119 3500 
L 1119 1403 
Q 1119 906 1312 657 
Q 1506 409 1894 409 
Q 2359 409 2629 706 
Q 2900 1003 2900 1516 
L 2900 3500 
L 3475 3500 
L 3475 0 
L 2900 0 
L 2900 538 
Q 2691 219 2414 64 
Q 2138 -91 1772 -91 
Q 1169 -91 856 284 
Q 544 659 544 1381 
z
M 1991 3584 
L 1991 3584 
z
" transform="scale(0.015625)"/>
       <path id="DejaVuSans-65" d="M 3597 1894 
L 3597 1613 
L 953 1613 
Q 991 1019 1311 708 
Q 1631 397 2203 397 
Q 2534 397 2845 478 
Q 3156 559 3463 722 
L 3463 178 
Q 3153 47 2828 -22 
Q 2503 -91 2169 -91 
Q 1331 -91 842 396 
Q 353 884 353 1716 
Q 353 2575 817 3079 
Q 1281 3584 2069 3584 
Q 2775 3584 3186 3129 
Q 3597 2675 3597 1894 
z
M 3022 2063 
Q 3016 2534 2758 2815 
Q 2500 3097 2075 3097 
Q 1594 3097 1305 2825 
Q 1016 2553 972 2059 
L 3022 2063 
z
" transform="scale(0.015625)"/>
      </defs>
      <use xlink:href="#DejaVuSans-56"/>
      <use xlink:href="#DejaVuSans-61" transform="translate(60.658203 0)"/>
      <use xlink:href="#DejaVuSans-6c" transform="translate(121.9375 0)"/>
      <use xlink:href="#DejaVuSans-75" transform="translate(149.720703 0)"/>
      <use xlink:href="#DejaVuSans-65" transform="translate(213.099609 0)"/>
     </g>
    </g>
   </g>
   <g id="line2d_29">
    <path d="M 77.873182 373.467273 
L 79.596 352.18098 
L 81.318819 284.611087 
L 83.041637 285.238861 
L 84.764456 267.490544 
L 86.487274 263.72647 
L 88.210092 259.612948 
L 89.932911 261.68103 
L 91.655729 267.299001 
L 93.378548 269.08593 
L 95.101366 271.607132 
L 96.824185 270.71106 
L 98.547003 272.49028 
L 100.269822 274.677364 
L 101.99264 276.091505 
L 103.715458 277.722038 
L 105.438277 280.802758 
L 107.161095 282.958821 
L 110.606732 288.302122 
L 112.329551 290.864098 
L 114.052369 290.944249 
L 115.775188 293.098564 
L 117.498006 293.621288 
L 119.220824 296.680659 
L 120.943643 298.70858 
L 122.666461 299.537914 
L 124.38928 302.270035 
L 126.112098 303.920878 
L 127.834917 306.398014 
L 129.557735 308.514506 
L 131.280554 309.511243 
L 133.003372 310.102707 
L 134.72619 309.602186 
L 136.449009 310.677096 
L 138.171827 312.249432 
L 139.894646 313.567321 
L 141.617464 313.815754 
L 143.340283 315.307699 
L 145.063101 315.970374 
L 146.78592 318.096369 
L 148.508738 318.087625 
L 150.231556 319.2438 
L 151.954375 319.677384 
L 153.677193 320.792689 
L 155.400012 320.613985 
L 157.12283 322.290302 
L 158.845649 325.319365 
L 160.568467 324.758349 
L 162.291285 326.112724 
L 165.736922 327.331551 
L 169.182559 329.087035 
L 170.905378 330.002043 
L 172.628196 332.236185 
L 174.351015 331.459141 
L 177.796651 333.224472 
L 179.51947 333.106978 
L 181.242288 335.102015 
L 182.965107 334.324357 
L 184.687925 335.71626 
L 186.410744 336.717225 
L 188.133562 336.280193 
L 189.856381 337.489637 
L 191.579199 337.764979 
L 193.302017 338.628376 
L 195.024836 338.183998 
L 196.747654 340.090755 
L 198.470473 339.371824 
L 200.193291 342.43304 
L 201.91611 340.981428 
L 203.638928 342.29993 
L 205.361747 342.867665 
L 207.084565 344.189492 
L 208.807383 343.174695 
L 210.530202 344.950766 
L 212.25302 344.107661 
L 213.975839 344.56538 
L 215.698657 345.452548 
L 217.421476 345.252076 
L 219.144294 345.384497 
L 220.867113 346.008677 
L 222.589931 346.071527 
L 224.312749 346.48327 
L 226.035568 348.151412 
L 227.758386 347.698904 
L 229.481205 348.078542 
L 231.204023 349.641868 
L 232.926842 349.145859 
L 234.64966 347.746393 
L 236.372479 349.200906 
L 238.095297 349.550843 
L 239.818115 348.581045 
L 241.540934 350.312966 
L 243.263752 350.882716 
L 244.986571 350.3113 
L 246.709389 350.922886 
L 248.432208 349.672171 
L 250.155026 350.898005 
L 251.877844 351.862594 
L 253.600663 350.766665 
L 255.323481 352.910273 
L 257.0463 352.605258 
L 258.769118 351.865605 
L 262.214755 353.033626 
L 263.937574 352.444791 
L 265.660392 353.795968 
L 267.38321 352.760918 
L 269.106029 352.377777 
L 272.551666 353.594054 
L 274.274484 352.989602 
L 275.997303 353.604247 
L 281.165758 354.987023 
L 282.888576 354.643674 
L 284.611395 355.008331 
L 286.334213 354.986083 
L 288.057032 355.248065 
L 289.77985 355.131795 
L 293.225487 355.302751 
L 294.948306 355.322391 
L 296.671124 354.7032 
L 298.393942 355.641913 
L 300.116761 355.699065 
L 301.839579 356.234121 
L 303.562398 356.487136 
L 305.285216 355.768957 
L 307.008035 355.51717 
L 308.730853 356.337947 
L 310.453672 356.413482 
L 312.17649 356.19524 
L 313.899308 356.283061 
L 315.622127 356.647451 
L 317.344945 357.637472 
L 319.067764 356.870758 
L 320.790582 356.780112 
L 322.513401 358.201512 
L 324.236219 357.959796 
L 325.959038 358.287691 
L 327.681856 357.367808 
L 329.404674 357.052863 
L 331.127493 357.850039 
L 332.850311 358.071368 
L 334.57313 359.257144 
L 336.295948 357.825131 
L 338.018767 357.885056 
L 339.741585 357.622084 
L 341.464403 359.533151 
L 343.187222 357.51935 
L 344.91004 358.26526 
L 346.632859 358.39342 
L 348.355677 359.019766 
L 350.078496 357.6768 
L 351.801314 359.229035 
L 353.524133 358.703204 
L 355.246951 358.54549 
L 358.692588 358.767978 
L 360.415406 359.692784 
L 362.138225 358.785941 
L 363.861043 359.661325 
L 365.583862 358.948357 
L 367.30668 358.568028 
L 369.029499 359.064807 
L 370.752317 360.243374 
L 372.475135 360.308596 
L 374.197954 359.838786 
L 375.920772 359.105387 
L 377.643591 359.675093 
L 379.366409 359.133331 
L 381.089228 359.257371 
L 382.812046 358.882178 
L 384.534865 360.539909 
L 386.257683 360.405115 
L 387.980501 360.125074 
L 389.70332 361.021703 
L 391.426138 360.486336 
L 393.148957 359.581409 
L 394.871775 360.764205 
L 396.594594 359.848691 
L 398.317412 360.637108 
L 400.040231 361.157995 
L 401.763049 360.070117 
L 403.485867 360.920161 
L 405.208686 360.575895 
L 406.931504 360.019397 
L 408.654323 362.39516 
L 410.377141 361.283645 
L 412.09996 360.943 
L 413.822778 361.253889 
L 415.545597 360.276513 
L 417.268415 360.892177 
L 418.991233 360.55246 
L 420.714052 362.291049 
L 424.159689 360.983499 
L 425.882507 361.368927 
L 427.605326 360.464806 
L 429.328144 362.166779 
L 431.050962 361.090537 
L 432.773781 361.676015 
L 434.496599 361.980346 
L 436.219418 362.588239 
L 437.942236 361.436467 
L 439.665055 361.705147 
L 441.387873 361.426935 
L 443.110692 361.46122 
L 444.83351 361.949365 
L 446.556328 362.09274 
L 448.279147 361.731681 
L 450.001965 362.622418 
L 451.724784 362.093618 
L 453.447602 362.091325 
L 455.170421 362.665326 
L 456.893239 362.983736 
L 458.616058 361.65021 
L 460.338876 362.778546 
L 462.061694 361.87294 
L 463.784513 362.520319 
L 465.507331 363.03312 
L 467.23015 362.397255 
L 468.952968 361.882378 
L 470.675787 361.99176 
L 472.398605 362.398843 
L 474.121424 362.990482 
L 475.844242 362.025823 
L 477.56706 363.960269 
L 479.289879 362.600309 
L 481.012697 363.366311 
L 482.735516 362.153262 
L 484.458334 362.812376 
L 486.181153 362.233214 
L 489.62679 363.484379 
L 491.349608 363.605731 
L 493.072426 363.167435 
L 494.795245 362.600057 
L 496.518063 363.00172 
L 498.240882 363.974517 
L 499.9637 362.407422 
L 503.409337 363.008981 
L 505.132156 363.850656 
L 506.854974 363.12059 
L 508.577792 363.271913 
L 510.300611 363.140608 
L 512.023429 363.686789 
L 513.746248 363.759217 
L 515.469066 363.448075 
L 517.191885 364.136839 
L 518.914703 362.876053 
L 520.637521 363.988334 
L 524.083158 363.819793 
L 525.805977 364.605821 
L 529.251614 362.388696 
L 530.974432 363.464526 
L 532.697251 363.90627 
L 534.420069 364.188604 
L 536.142887 363.432236 
L 537.865706 364.478414 
L 541.311343 364.23658 
L 543.034161 364.531568 
L 544.75698 363.313758 
L 546.479798 364.409713 
L 548.202617 362.986445 
L 549.925435 364.329582 
L 551.648253 365.40092 
L 553.371072 363.731767 
L 555.09389 363.357396 
L 556.816709 364.718534 
L 558.539527 364.694702 
L 560.262346 364.278917 
L 561.985164 362.988791 
L 563.707983 364.390621 
L 565.430801 364.533033 
L 567.153619 363.950228 
L 568.876438 365.448925 
L 570.599256 363.983455 
L 574.044893 364.477825 
L 575.767712 364.031364 
L 577.49053 364.740046 
L 579.213349 366.868873 
L 580.936167 363.750372 
L 582.658985 364.187637 
L 584.381804 364.207126 
L 587.827441 364.530755 
L 589.550259 364.480981 
L 591.273078 364.832041 
L 592.995896 364.330933 
L 594.718715 365.147835 
L 596.441533 363.651387 
L 598.164351 365.162981 
L 599.88717 364.476926 
L 601.609988 364.564448 
L 603.332807 364.484913 
L 606.778444 364.868293 
L 608.501262 366.154463 
L 610.22408 364.882467 
L 611.946899 364.063704 
L 613.669717 365.732844 
L 615.392536 364.929163 
L 617.115354 364.978015 
L 618.838173 365.258947 
L 620.560991 364.22457 
L 622.28381 365.589732 
L 624.006628 364.627941 
L 625.729446 366.10371 
L 627.452265 365.163957 
L 629.175083 365.802754 
L 630.897902 366.602197 
L 632.62072 365.058858 
L 634.343539 365.84142 
L 636.066357 365.178019 
L 637.789176 366.855073 
L 639.511994 366.395149 
L 641.234812 365.813694 
L 642.957631 365.895319 
L 644.680449 365.484742 
L 646.403268 365.308116 
L 648.126086 365.306584 
L 649.848905 365.96527 
L 651.571723 365.848678 
L 653.294542 366.743033 
L 655.01736 367.902598 
L 656.740178 365.662231 
L 658.462997 367.589511 
L 660.185815 367.663912 
L 661.908634 364.938633 
L 663.631452 366.293838 
L 665.354271 366.360423 
L 667.077089 366.092946 
L 668.799908 365.489156 
L 670.522726 366.49075 
L 672.245544 365.189708 
L 673.968363 366.693191 
L 675.691181 366.915772 
L 677.414 365.89474 
L 679.136818 367.04677 
L 679.136818 367.04677 
" clip-path="url(#pc522dabd5a)" style="fill: none; stroke: #ff0000; stroke-width: 1.5; stroke-linecap: square"/>
   </g>
   <g id="line2d_30">
    <path d="M 77.873182 42.012727 
L 79.596 63.403189 
L 81.318819 159.365414 
L 83.041637 173.623678 
L 84.764456 201.850963 
L 86.487274 210.515346 
L 88.210092 221.114227 
L 89.932911 222.155619 
L 91.655729 219.488917 
L 93.378548 218.355339 
L 95.101366 215.279354 
L 96.824185 214.019822 
L 98.547003 215.40352 
L 100.269822 212.116965 
L 101.99264 211.504073 
L 103.715458 210.382461 
L 105.438277 207.946773 
L 107.161095 206.449935 
L 108.883914 203.020996 
L 110.606732 200.628276 
L 112.329551 197.819949 
L 114.052369 195.817886 
L 115.775188 194.48829 
L 117.498006 190.998846 
L 119.220824 187.993184 
L 122.666461 184.199896 
L 124.38928 181.528081 
L 126.112098 179.17607 
L 127.834917 175.454893 
L 129.557735 173.768179 
L 131.280554 170.450762 
L 133.003372 169.109461 
L 134.72619 170.504156 
L 136.449009 167.108117 
L 138.171827 167.205596 
L 139.894646 165.70701 
L 141.617464 165.685476 
L 143.340283 161.240255 
L 145.063101 160.648846 
L 146.78592 157.599158 
L 148.508738 158.332092 
L 150.231556 157.647299 
L 151.954375 156.029859 
L 153.677193 154.602665 
L 155.400012 153.629189 
L 157.12283 149.474588 
L 158.845649 149.631913 
L 160.568467 147.851076 
L 162.291285 145.733195 
L 164.014104 145.346494 
L 165.736922 145.579166 
L 167.459741 142.538926 
L 169.182559 141.045394 
L 170.905378 137.699972 
L 172.628196 137.816807 
L 174.351015 135.38949 
L 176.073833 135.88226 
L 177.796651 134.384732 
L 179.51947 133.293163 
L 181.242288 133.163663 
L 182.965107 132.331292 
L 184.687925 130.304739 
L 186.410744 129.109278 
L 188.133562 126.09195 
L 189.856381 126.945194 
L 195.024836 124.018315 
L 196.747654 121.193928 
L 198.470473 121.561893 
L 200.193291 120.581406 
L 201.91611 119.07417 
L 203.638928 118.573809 
L 205.361747 117.324454 
L 207.084565 114.854489 
L 208.807383 115.704818 
L 210.530202 113.050201 
L 212.25302 112.924756 
L 213.975839 111.441371 
L 215.698657 110.602129 
L 217.421476 113.634159 
L 219.144294 112.008549 
L 220.867113 112.049339 
L 222.589931 110.368578 
L 224.312749 110.67372 
L 227.758386 106.614262 
L 229.481205 106.038534 
L 231.204023 105.58861 
L 232.926842 103.645514 
L 234.64966 105.577704 
L 236.372479 106.589652 
L 238.095297 104.024625 
L 239.818115 104.057204 
L 241.540934 102.850936 
L 243.263752 100.481487 
L 244.986571 101.935788 
L 246.709389 101.521701 
L 248.432208 101.759107 
L 250.155026 101.042973 
L 251.877844 100.676286 
L 253.600663 100.806905 
L 255.323481 97.083111 
L 257.0463 97.080074 
L 258.769118 98.027423 
L 260.491937 98.802764 
L 262.214755 95.811863 
L 263.937574 96.686601 
L 265.660392 96.001788 
L 267.38321 95.471085 
L 269.106029 96.109475 
L 270.828847 96.147848 
L 274.274484 92.165693 
L 275.997303 93.966945 
L 279.44294 91.407611 
L 281.165758 91.636767 
L 282.888576 93.999245 
L 284.611395 91.443087 
L 286.334213 90.94764 
L 288.057032 91.037528 
L 289.77985 90.173697 
L 291.502669 90.192554 
L 293.225487 91.544082 
L 294.948306 89.293985 
L 296.671124 91.509425 
L 298.393942 88.534984 
L 300.116761 89.363239 
L 301.839579 88.411257 
L 305.285216 87.957698 
L 307.008035 90.869596 
L 308.730853 88.067802 
L 310.453672 88.6027 
L 312.17649 87.999546 
L 313.899308 87.889123 
L 315.622127 87.627606 
L 317.344945 86.270445 
L 319.067764 88.26326 
L 320.790582 85.884562 
L 322.513401 85.580698 
L 324.236219 84.849742 
L 325.959038 85.68451 
L 329.404674 85.096297 
L 331.127493 85.990731 
L 332.850311 84.721301 
L 334.57313 82.662827 
L 336.295948 83.276408 
L 338.018767 84.032513 
L 339.741585 82.893642 
L 341.464403 83.381778 
L 343.187222 81.996571 
L 344.91004 83.408804 
L 346.632859 80.940438 
L 348.355677 80.764635 
L 350.078496 83.667105 
L 351.801314 82.953488 
L 353.524133 82.592454 
L 355.246951 82.532009 
L 356.969769 81.163242 
L 360.415406 80.182455 
L 362.138225 82.115025 
L 363.861043 80.991754 
L 365.583862 79.419439 
L 367.30668 79.320002 
L 369.029499 80.902684 
L 370.752317 79.454895 
L 372.475135 78.788559 
L 375.920772 80.748095 
L 377.643591 80.456316 
L 379.366409 80.578585 
L 381.089228 79.198852 
L 382.812046 80.847053 
L 384.534865 79.236146 
L 386.257683 78.38376 
L 387.980501 77.739737 
L 389.70332 77.575819 
L 391.426138 78.072545 
L 393.148957 78.230829 
L 394.871775 77.303057 
L 396.594594 77.233103 
L 398.317412 77.733904 
L 400.040231 76.240371 
L 401.763049 77.573882 
L 403.485867 77.244849 
L 405.208686 77.137382 
L 406.931504 76.587861 
L 408.654323 75.233616 
L 410.377141 75.132841 
L 412.09996 76.649705 
L 413.822778 75.732699 
L 415.545597 74.989299 
L 417.268415 76.150003 
L 418.991233 76.08764 
L 420.714052 74.6647 
L 422.43687 73.65429 
L 424.159689 76.03115 
L 425.882507 74.707247 
L 427.605326 75.925401 
L 429.328144 75.348095 
L 431.050962 74.958796 
L 432.773781 73.291918 
L 434.496599 73.862313 
L 436.219418 71.740078 
L 437.942236 74.031303 
L 439.665055 74.225423 
L 441.387873 74.211061 
L 443.110692 74.563525 
L 444.83351 72.640983 
L 446.556328 72.160398 
L 448.279147 73.399405 
L 450.001965 73.048939 
L 451.724784 74.218412 
L 453.447602 73.243258 
L 455.170421 71.43925 
L 456.893239 71.556644 
L 458.616058 73.703829 
L 460.338876 71.588885 
L 462.061694 71.363403 
L 463.784513 72.811632 
L 465.507331 70.991723 
L 470.675787 72.765589 
L 475.844242 71.351099 
L 477.56706 70.41226 
L 479.289879 70.254335 
L 481.012697 66.93558 
L 482.735516 72.23125 
L 484.458334 72.298886 
L 486.181153 71.394445 
L 487.903971 72.22296 
L 489.62679 68.566743 
L 491.349608 70.76812 
L 494.795245 71.242293 
L 496.518063 71.161154 
L 498.240882 69.923205 
L 499.9637 70.049229 
L 501.686519 71.071744 
L 505.132156 69.714203 
L 506.854974 68.826801 
L 508.577792 69.406224 
L 510.300611 70.337652 
L 512.023429 68.457837 
L 513.746248 70.518588 
L 515.469066 71.208855 
L 517.191885 67.852766 
L 518.914703 69.456422 
L 520.637521 68.419485 
L 522.36034 66.004292 
L 524.083158 70.748804 
L 525.805977 66.161777 
L 527.528795 70.881 
L 529.251614 71.201743 
L 530.974432 68.520899 
L 532.697251 67.762058 
L 534.420069 67.314132 
L 536.142887 69.933033 
L 537.865706 66.57169 
L 539.588524 64.088062 
L 541.311343 67.672728 
L 543.034161 64.728051 
L 544.75698 68.477133 
L 546.479798 68.113084 
L 548.202617 69.260005 
L 549.925435 67.541611 
L 551.648253 58.805456 
L 553.371072 69.402769 
L 555.09389 69.406644 
L 556.816709 64.078914 
L 558.539527 66.130236 
L 560.262346 66.469117 
L 561.985164 67.321203 
L 563.707983 66.406774 
L 565.430801 66.967521 
L 567.153619 66.614977 
L 568.876438 62.701018 
L 570.599256 65.923732 
L 572.322075 67.949766 
L 574.044893 67.844456 
L 577.49053 65.501234 
L 579.213349 53.795873 
L 580.936167 64.224753 
L 582.658985 68.395335 
L 584.381804 68.712382 
L 586.104622 66.884423 
L 587.827441 65.428444 
L 589.550259 67.034218 
L 591.273078 65.665212 
L 592.995896 64.862125 
L 594.718715 66.877991 
L 596.441533 67.45288 
L 598.164351 65.056285 
L 601.609988 65.60181 
L 603.332807 66.595361 
L 605.055625 65.322016 
L 608.501262 62.28663 
L 610.22408 64.619805 
L 611.946899 66.033116 
L 613.669717 64.878305 
L 615.392536 62.509695 
L 617.115354 65.25414 
L 618.838173 62.573835 
L 620.560991 65.211553 
L 622.28381 62.613246 
L 624.006628 63.559097 
L 625.729446 62.322007 
L 627.452265 62.608592 
L 629.175083 62.146224 
L 630.897902 57.780424 
L 632.62072 63.985689 
L 634.343539 61.16348 
L 636.066357 63.610593 
L 637.789176 59.074783 
L 639.511994 57.941345 
L 641.234812 62.622535 
L 642.957631 61.067359 
L 644.680449 63.037182 
L 646.403268 62.979394 
L 648.126086 63.68584 
L 649.848905 61.34901 
L 651.571723 59.334322 
L 655.01736 48.402763 
L 656.740178 57.99364 
L 658.462997 52.071366 
L 660.185815 51.491083 
L 661.908634 63.115026 
L 663.631452 63.115525 
L 665.354271 60.319084 
L 667.077089 60.519456 
L 668.799908 62.207648 
L 670.522726 58.742994 
L 672.245544 62.01219 
L 673.968363 59.579139 
L 675.691181 53.585173 
L 677.414 58.441147 
L 679.136818 55.047405 
L 679.136818 55.047405 
" clip-path="url(#pc522dabd5a)" style="fill: none; stroke: #0000ff; stroke-width: 1.5; stroke-linecap: square"/>
   </g>
   <g id="patch_3">
    <path d="M 47.81 390.04 
L 47.81 25.44 
" style="fill: none; stroke: #000000; stroke-width: 0.8; stroke-linejoin: miter; stroke-linecap: square"/>
   </g>
   <g id="patch_4">
    <path d="M 709.2 390.04 
L 709.2 25.44 
" style="fill: none; stroke: #000000; stroke-width: 0.8; stroke-linejoin: miter; stroke-linecap: square"/>
   </g>
   <g id="patch_5">
    <path d="M 47.81 390.04 
L 709.2 390.04 
" style="fill: none; stroke: #000000; stroke-width: 0.8; stroke-linejoin: miter; stroke-linecap: square"/>
   </g>
   <g id="patch_6">
    <path d="M 47.81 25.44 
L 709.2 25.44 
" style="fill: none; stroke: #000000; stroke-width: 0.8; stroke-linejoin: miter; stroke-linecap: square"/>
   </g>
   <g id="text_17">
    <!-- gan_IS_FID_cifar10_generatorcnn2_discriminatorcnn Trial 1 -->
    <g transform="translate(201.552813 19.44) scale(0.12 -0.12)">
     <defs>
      <path id="DejaVuSans-67" d="M 2906 1791 
Q 2906 2416 2648 2759 
Q 2391 3103 1925 3103 
Q 1463 3103 1205 2759 
Q 947 2416 947 1791 
Q 947 1169 1205 825 
Q 1463 481 1925 481 
Q 2391 481 2648 825 
Q 2906 1169 2906 1791 
z
M 3481 434 
Q 3481 -459 3084 -895 
Q 2688 -1331 1869 -1331 
Q 1566 -1331 1297 -1286 
Q 1028 -1241 775 -1147 
L 775 -588 
Q 1028 -725 1275 -790 
Q 1522 -856 1778 -856 
Q 2344 -856 2625 -561 
Q 2906 -266 2906 331 
L 2906 616 
Q 2728 306 2450 153 
Q 2172 0 1784 0 
Q 1141 0 747 490 
Q 353 981 353 1791 
Q 353 2603 747 3093 
Q 1141 3584 1784 3584 
Q 2172 3584 2450 3431 
Q 2728 3278 2906 2969 
L 2906 3500 
L 3481 3500 
L 3481 434 
z
" transform="scale(0.015625)"/>
      <path id="DejaVuSans-6e" d="M 3513 2113 
L 3513 0 
L 2938 0 
L 2938 2094 
Q 2938 2591 2744 2837 
Q 2550 3084 2163 3084 
Q 1697 3084 1428 2787 
Q 1159 2491 1159 1978 
L 1159 0 
L 581 0 
L 581 3500 
L 1159 3500 
L 1159 2956 
Q 1366 3272 1645 3428 
Q 1925 3584 2291 3584 
Q 2894 3584 3203 3211 
Q 3513 2838 3513 2113 
z
" transform="scale(0.015625)"/>
      <path id="DejaVuSans-5f" d="M 3263 -1063 
L 3263 -1509 
L -63 -1509 
L -63 -1063 
L 3263 -1063 
z
" transform="scale(0.015625)"/>
      <path id="DejaVuSans-49" d="M 628 4666 
L 1259 4666 
L 1259 0 
L 628 0 
L 628 4666 
z
" transform="scale(0.015625)"/>
      <path id="DejaVuSans-53" d="M 3425 4513 
L 3425 3897 
Q 3066 4069 2747 4153 
Q 2428 4238 2131 4238 
Q 1616 4238 1336 4038 
Q 1056 3838 1056 3469 
Q 1056 3159 1242 3001 
Q 1428 2844 1947 2747 
L 2328 2669 
Q 3034 2534 3370 2195 
Q 3706 1856 3706 1288 
Q 3706 609 3251 259 
Q 2797 -91 1919 -91 
Q 1588 -91 1214 -16 
Q 841 59 441 206 
L 441 856 
Q 825 641 1194 531 
Q 1563 422 1919 422 
Q 2459 422 2753 634 
Q 3047 847 3047 1241 
Q 3047 1584 2836 1778 
Q 2625 1972 2144 2069 
L 1759 2144 
Q 1053 2284 737 2584 
Q 422 2884 422 3419 
Q 422 4038 858 4394 
Q 1294 4750 2059 4750 
Q 2388 4750 2728 4690 
Q 3069 4631 3425 4513 
z
" transform="scale(0.015625)"/>
      <path id="DejaVuSans-46" d="M 628 4666 
L 3309 4666 
L 3309 4134 
L 1259 4134 
L 1259 2759 
L 3109 2759 
L 3109 2228 
L 1259 2228 
L 1259 0 
L 628 0 
L 628 4666 
z
" transform="scale(0.015625)"/>
      <path id="DejaVuSans-44" d="M 1259 4147 
L 1259 519 
L 2022 519 
Q 2988 519 3436 956 
Q 3884 1394 3884 2338 
Q 3884 3275 3436 3711 
Q 2988 4147 2022 4147 
L 1259 4147 
z
M 628 4666 
L 1925 4666 
Q 3281 4666 3915 4102 
Q 4550 3538 4550 2338 
Q 4550 1131 3912 565 
Q 3275 0 1925 0 
L 628 0 
L 628 4666 
z
" transform="scale(0.015625)"/>
      <path id="DejaVuSans-69" d="M 603 3500 
L 1178 3500 
L 1178 0 
L 603 0 
L 603 3500 
z
M 603 4863 
L 1178 4863 
L 1178 4134 
L 603 4134 
L 603 4863 
z
" transform="scale(0.015625)"/>
      <path id="DejaVuSans-66" d="M 2375 4863 
L 2375 4384 
L 1825 4384 
Q 1516 4384 1395 4259 
Q 1275 4134 1275 3809 
L 1275 3500 
L 2222 3500 
L 2222 3053 
L 1275 3053 
L 1275 0 
L 697 0 
L 697 3053 
L 147 3053 
L 147 3500 
L 697 3500 
L 697 3744 
Q 697 4328 969 4595 
Q 1241 4863 1831 4863 
L 2375 4863 
z
" transform="scale(0.015625)"/>
      <path id="DejaVuSans-72" d="M 2631 2963 
Q 2534 3019 2420 3045 
Q 2306 3072 2169 3072 
Q 1681 3072 1420 2755 
Q 1159 2438 1159 1844 
L 1159 0 
L 581 0 
L 581 3500 
L 1159 3500 
L 1159 2956 
Q 1341 3275 1631 3429 
Q 1922 3584 2338 3584 
Q 2397 3584 2469 3576 
Q 2541 3569 2628 3553 
L 2631 2963 
z
" transform="scale(0.015625)"/>
      <path id="DejaVuSans-74" d="M 1172 4494 
L 1172 3500 
L 2356 3500 
L 2356 3053 
L 1172 3053 
L 1172 1153 
Q 1172 725 1289 603 
Q 1406 481 1766 481 
L 2356 481 
L 2356 0 
L 1766 0 
Q 1100 0 847 248 
Q 594 497 594 1153 
L 594 3053 
L 172 3053 
L 172 3500 
L 594 3500 
L 594 4494 
L 1172 4494 
z
" transform="scale(0.015625)"/>
      <path id="DejaVuSans-64" d="M 2906 2969 
L 2906 4863 
L 3481 4863 
L 3481 0 
L 2906 0 
L 2906 525 
Q 2725 213 2448 61 
Q 2172 -91 1784 -91 
Q 1150 -91 751 415 
Q 353 922 353 1747 
Q 353 2572 751 3078 
Q 1150 3584 1784 3584 
Q 2172 3584 2448 3432 
Q 2725 3281 2906 2969 
z
M 947 1747 
Q 947 1113 1208 752 
Q 1469 391 1925 391 
Q 2381 391 2643 752 
Q 2906 1113 2906 1747 
Q 2906 2381 2643 2742 
Q 2381 3103 1925 3103 
Q 1469 3103 1208 2742 
Q 947 2381 947 1747 
z
" transform="scale(0.015625)"/>
      <path id="DejaVuSans-73" d="M 2834 3397 
L 2834 2853 
Q 2591 2978 2328 3040 
Q 2066 3103 1784 3103 
Q 1356 3103 1142 2972 
Q 928 2841 928 2578 
Q 928 2378 1081 2264 
Q 1234 2150 1697 2047 
L 1894 2003 
Q 2506 1872 2764 1633 
Q 3022 1394 3022 966 
Q 3022 478 2636 193 
Q 2250 -91 1575 -91 
Q 1294 -91 989 -36 
Q 684 19 347 128 
L 347 722 
Q 666 556 975 473 
Q 1284 391 1588 391 
Q 1994 391 2212 530 
Q 2431 669 2431 922 
Q 2431 1156 2273 1281 
Q 2116 1406 1581 1522 
L 1381 1569 
Q 847 1681 609 1914 
Q 372 2147 372 2553 
Q 372 3047 722 3315 
Q 1072 3584 1716 3584 
Q 2034 3584 2315 3537 
Q 2597 3491 2834 3397 
z
" transform="scale(0.015625)"/>
      <path id="DejaVuSans-6d" d="M 3328 2828 
Q 3544 3216 3844 3400 
Q 4144 3584 4550 3584 
Q 5097 3584 5394 3201 
Q 5691 2819 5691 2113 
L 5691 0 
L 5113 0 
L 5113 2094 
Q 5113 2597 4934 2840 
Q 4756 3084 4391 3084 
Q 3944 3084 3684 2787 
Q 3425 2491 3425 1978 
L 3425 0 
L 2847 0 
L 2847 2094 
Q 2847 2600 2669 2842 
Q 2491 3084 2119 3084 
Q 1678 3084 1418 2786 
Q 1159 2488 1159 1978 
L 1159 0 
L 581 0 
L 581 3500 
L 1159 3500 
L 1159 2956 
Q 1356 3278 1631 3431 
Q 1906 3584 2284 3584 
Q 2666 3584 2933 3390 
Q 3200 3197 3328 2828 
z
" transform="scale(0.015625)"/>
      <path id="DejaVuSans-20" transform="scale(0.015625)"/>
      <path id="DejaVuSans-54" d="M -19 4666 
L 3928 4666 
L 3928 4134 
L 2272 4134 
L 2272 0 
L 1638 0 
L 1638 4134 
L -19 4134 
L -19 4666 
z
" transform="scale(0.015625)"/>
     </defs>
     <use xlink:href="#DejaVuSans-67"/>
     <use xlink:href="#DejaVuSans-61" transform="translate(63.476562 0)"/>
     <use xlink:href="#DejaVuSans-6e" transform="translate(124.755859 0)"/>
     <use xlink:href="#DejaVuSans-5f" transform="translate(188.134766 0)"/>
     <use xlink:href="#DejaVuSans-49" transform="translate(238.134766 0)"/>
     <use xlink:href="#DejaVuSans-53" transform="translate(267.626953 0)"/>
     <use xlink:href="#DejaVuSans-5f" transform="translate(331.103516 0)"/>
     <use xlink:href="#DejaVuSans-46" transform="translate(381.103516 0)"/>
     <use xlink:href="#DejaVuSans-49" transform="translate(438.623047 0)"/>
     <use xlink:href="#DejaVuSans-44" transform="translate(468.115234 0)"/>
     <use xlink:href="#DejaVuSans-5f" transform="translate(545.117188 0)"/>
     <use xlink:href="#DejaVuSans-63" transform="translate(595.117188 0)"/>
     <use xlink:href="#DejaVuSans-69" transform="translate(650.097656 0)"/>
     <use xlink:href="#DejaVuSans-66" transform="translate(677.880859 0)"/>
     <use xlink:href="#DejaVuSans-61" transform="translate(713.085938 0)"/>
     <use xlink:href="#DejaVuSans-72" transform="translate(774.365234 0)"/>
     <use xlink:href="#DejaVuSans-31" transform="translate(815.478516 0)"/>
     <use xlink:href="#DejaVuSans-30" transform="translate(879.101562 0)"/>
     <use xlink:href="#DejaVuSans-5f" transform="translate(942.724609 0)"/>
     <use xlink:href="#DejaVuSans-67" transform="translate(992.724609 0)"/>
     <use xlink:href="#DejaVuSans-65" transform="translate(1056.201172 0)"/>
     <use xlink:href="#DejaVuSans-6e" transform="translate(1117.724609 0)"/>
     <use xlink:href="#DejaVuSans-65" transform="translate(1181.103516 0)"/>
     <use xlink:href="#DejaVuSans-72" transform="translate(1242.626953 0)"/>
     <use xlink:href="#DejaVuSans-61" transform="translate(1283.740234 0)"/>
     <use xlink:href="#DejaVuSans-74" transform="translate(1345.019531 0)"/>
     <use xlink:href="#DejaVuSans-6f" transform="translate(1384.228516 0)"/>
     <use xlink:href="#DejaVuSans-72" transform="translate(1445.410156 0)"/>
     <use xlink:href="#DejaVuSans-63" transform="translate(1484.273438 0)"/>
     <use xlink:href="#DejaVuSans-6e" transform="translate(1539.253906 0)"/>
     <use xlink:href="#DejaVuSans-6e" transform="translate(1602.632812 0)"/>
     <use xlink:href="#DejaVuSans-32" transform="translate(1666.011719 0)"/>
     <use xlink:href="#DejaVuSans-5f" transform="translate(1729.634766 0)"/>
     <use xlink:href="#DejaVuSans-64" transform="translate(1779.634766 0)"/>
     <use xlink:href="#DejaVuSans-69" transform="translate(1843.111328 0)"/>
     <use xlink:href="#DejaVuSans-73" transform="translate(1870.894531 0)"/>
     <use xlink:href="#DejaVuSans-63" transform="translate(1922.994141 0)"/>
     <use xlink:href="#DejaVuSans-72" transform="translate(1977.974609 0)"/>
     <use xlink:href="#DejaVuSans-69" transform="translate(2019.087891 0)"/>
     <use xlink:href="#DejaVuSans-6d" transform="translate(2046.871094 0)"/>
     <use xlink:href="#DejaVuSans-69" transform="translate(2144.283203 0)"/>
     <use xlink:href="#DejaVuSans-6e" transform="translate(2172.066406 0)"/>
     <use xlink:href="#DejaVuSans-61" transform="translate(2235.445312 0)"/>
     <use xlink:href="#DejaVuSans-74" transform="translate(2296.724609 0)"/>
     <use xlink:href="#DejaVuSans-6f" transform="translate(2335.933594 0)"/>
     <use xlink:href="#DejaVuSans-72" transform="translate(2397.115234 0)"/>
     <use xlink:href="#DejaVuSans-63" transform="translate(2435.978516 0)"/>
     <use xlink:href="#DejaVuSans-6e" transform="translate(2490.958984 0)"/>
     <use xlink:href="#DejaVuSans-6e" transform="translate(2554.337891 0)"/>
     <use xlink:href="#DejaVuSans-20" transform="translate(2617.716797 0)"/>
     <use xlink:href="#DejaVuSans-54" transform="translate(2649.503906 0)"/>
     <use xlink:href="#DejaVuSans-72" transform="translate(2695.837891 0)"/>
     <use xlink:href="#DejaVuSans-69" transform="translate(2736.951172 0)"/>
     <use xlink:href="#DejaVuSans-61" transform="translate(2764.734375 0)"/>
     <use xlink:href="#DejaVuSans-6c" transform="translate(2826.013672 0)"/>
     <use xlink:href="#DejaVuSans-20" transform="translate(2853.796875 0)"/>
     <use xlink:href="#DejaVuSans-31" transform="translate(2885.583984 0)"/>
    </g>
   </g>
   <g id="legend_1">
    <g id="patch_7">
     <path d="M 580.026563 224.19625 
L 702.2 224.19625 
Q 704.2 224.19625 704.2 222.19625 
L 704.2 193.28375 
Q 704.2 191.28375 702.2 191.28375 
L 580.026563 191.28375 
Q 578.026563 191.28375 578.026563 193.28375 
L 578.026563 222.19625 
Q 578.026563 224.19625 580.026563 224.19625 
z
" style="fill: #ffffff; opacity: 0.8; stroke: #cccccc; stroke-linejoin: miter"/>
    </g>
    <g id="line2d_31">
     <path d="M 582.026563 199.382188 
L 592.026563 199.382188 
L 602.026563 199.382188 
" style="fill: none; stroke: #ff0000; stroke-width: 1.5; stroke-linecap: square"/>
    </g>
    <g id="text_18">
     <!-- discriminator_loss -->
     <g transform="translate(610.026563 202.882188) scale(0.1 -0.1)">
      <use xlink:href="#DejaVuSans-64"/>
      <use xlink:href="#DejaVuSans-69" transform="translate(63.476562 0)"/>
      <use xlink:href="#DejaVuSans-73" transform="translate(91.259766 0)"/>
      <use xlink:href="#DejaVuSans-63" transform="translate(143.359375 0)"/>
      <use xlink:href="#DejaVuSans-72" transform="translate(198.339844 0)"/>
      <use xlink:href="#DejaVuSans-69" transform="translate(239.453125 0)"/>
      <use xlink:href="#DejaVuSans-6d" transform="translate(267.236328 0)"/>
      <use xlink:href="#DejaVuSans-69" transform="translate(364.648438 0)"/>
      <use xlink:href="#DejaVuSans-6e" transform="translate(392.431641 0)"/>
      <use xlink:href="#DejaVuSans-61" transform="translate(455.810547 0)"/>
      <use xlink:href="#DejaVuSans-74" transform="translate(517.089844 0)"/>
      <use xlink:href="#DejaVuSans-6f" transform="translate(556.298828 0)"/>
      <use xlink:href="#DejaVuSans-72" transform="translate(617.480469 0)"/>
      <use xlink:href="#DejaVuSans-5f" transform="translate(658.59375 0)"/>
      <use xlink:href="#DejaVuSans-6c" transform="translate(708.59375 0)"/>
      <use xlink:href="#DejaVuSans-6f" transform="translate(736.376953 0)"/>
      <use xlink:href="#DejaVuSans-73" transform="translate(797.558594 0)"/>
      <use xlink:href="#DejaVuSans-73" transform="translate(849.658203 0)"/>
     </g>
    </g>
    <g id="line2d_32">
     <path d="M 582.026563 214.338437 
L 592.026563 214.338437 
L 602.026563 214.338437 
" style="fill: none; stroke: #0000ff; stroke-width: 1.5; stroke-linecap: square"/>
    </g>
    <g id="text_19">
     <!-- generator_loss -->
     <g transform="translate(610.026563 217.838437) scale(0.1 -0.1)">
      <use xlink:href="#DejaVuSans-67"/>
      <use xlink:href="#DejaVuSans-65" transform="translate(63.476562 0)"/>
      <use xlink:href="#DejaVuSans-6e" transform="translate(125 0)"/>
      <use xlink:href="#DejaVuSans-65" transform="translate(188.378906 0)"/>
      <use xlink:href="#DejaVuSans-72" transform="translate(249.902344 0)"/>
      <use xlink:href="#DejaVuSans-61" transform="translate(291.015625 0)"/>
      <use xlink:href="#DejaVuSans-74" transform="translate(352.294922 0)"/>
      <use xlink:href="#DejaVuSans-6f" transform="translate(391.503906 0)"/>
      <use xlink:href="#DejaVuSans-72" transform="translate(452.685547 0)"/>
      <use xlink:href="#DejaVuSans-5f" transform="translate(493.798828 0)"/>
      <use xlink:href="#DejaVuSans-6c" transform="translate(543.798828 0)"/>
      <use xlink:href="#DejaVuSans-6f" transform="translate(571.582031 0)"/>
      <use xlink:href="#DejaVuSans-73" transform="translate(632.763672 0)"/>
      <use xlink:href="#DejaVuSans-73" transform="translate(684.863281 0)"/>
     </g>
    </g>
   </g>
  </g>
 </g>
 <defs>
  <clipPath id="pc522dabd5a">
   <rect x="47.81" y="25.44" width="661.39" height="364.6"/>
  </clipPath>
 </defs>
</svg>
