<?xml version="1.0" encoding="utf-8" standalone="no"?>
<!DOCTYPE svg PUBLIC "-//W3C//DTD SVG 1.1//EN"
  "http://www.w3.org/Graphics/SVG/1.1/DTD/svg11.dtd">
<svg xmlns:xlink="http://www.w3.org/1999/xlink" width="720pt" height="432pt" viewBox="0 0 720 432" xmlns="http://www.w3.org/2000/svg" version="1.1">
 <metadata>
  <rdf:RDF xmlns:dc="http://purl.org/dc/elements/1.1/" xmlns:cc="http://creativecommons.org/ns#" xmlns:rdf="http://www.w3.org/1999/02/22-rdf-syntax-ns#">
   <cc:Work>
    <dc:type rdf:resource="http://purl.org/dc/dcmitype/StillImage"/>
    <dc:date>2025-06-22T15:36:14.465681</dc:date>
    <dc:format>image/svg+xml</dc:format>
    <dc:creator>
     <cc:Agent>
      <dc:title>Matplotlib v3.10.1, https://matplotlib.org/</dc:title>
     </cc:Agent>
    </dc:creator>
   </cc:Work>
  </rdf:RDF>
 </metadata>
 <defs>
  <style type="text/css">*{stroke-linejoin: round; stroke-linecap: butt}</style>
 </defs>
 <g id="figure_1">
  <g id="patch_1">
   <path d="M 0 432 
L 720 432 
L 720 0 
L 0 0 
z
" style="fill: #ffffff"/>
  </g>
  <g id="axes_1">
   <g id="patch_2">
    <path d="M 47.81 390.04 
L 709.2 390.04 
L 709.2 25.44 
L 47.81 25.44 
z
" style="fill: #ffffff"/>
   </g>
   <g id="matplotlib.axis_1">
    <g id="xtick_1">
     <g id="line2d_1">
      <path d="M 77.873182 390.04 
L 77.873182 25.44 
" clip-path="url(#p49c0a09d54)" style="fill: none; stroke: #b0b0b0; stroke-width: 0.8; stroke-linecap: square"/>
     </g>
     <g id="line2d_2">
      <defs>
       <path id="md6bc9332ea" d="M 0 0 
L 0 3.5 
" style="stroke: #000000; stroke-width: 0.8"/>
      </defs>
      <g>
       <use xlink:href="#md6bc9332ea" x="77.873182" y="390.04" style="stroke: #000000; stroke-width: 0.8"/>
      </g>
     </g>
     <g id="text_1">
      <!-- 0 -->
      <g transform="translate(74.691932 404.638438) scale(0.1 -0.1)">
       <defs>
        <path id="DejaVuSans-30" d="M 2034 4250 
Q 1547 4250 1301 3770 
Q 1056 3291 1056 2328 
Q 1056 1369 1301 889 
Q 1547 409 2034 409 
Q 2525 409 2770 889 
Q 3016 1369 3016 2328 
Q 3016 3291 2770 3770 
Q 2525 4250 2034 4250 
z
M 2034 4750 
Q 2819 4750 3233 4129 
Q 3647 3509 3647 2328 
Q 3647 1150 3233 529 
Q 2819 -91 2034 -91 
Q 1250 -91 836 529 
Q 422 1150 422 2328 
Q 422 3509 836 4129 
Q 1250 4750 2034 4750 
z
" transform="scale(0.015625)"/>
       </defs>
       <use xlink:href="#DejaVuSans-30"/>
      </g>
     </g>
    </g>
    <g id="xtick_2">
     <g id="line2d_3">
      <path d="M 164.014104 390.04 
L 164.014104 25.44 
" clip-path="url(#p49c0a09d54)" style="fill: none; stroke: #b0b0b0; stroke-width: 0.8; stroke-linecap: square"/>
     </g>
     <g id="line2d_4">
      <g>
       <use xlink:href="#md6bc9332ea" x="164.014104" y="390.04" style="stroke: #000000; stroke-width: 0.8"/>
      </g>
     </g>
     <g id="text_2">
      <!-- 50 -->
      <g transform="translate(157.651604 404.638438) scale(0.1 -0.1)">
       <defs>
        <path id="DejaVuSans-35" d="M 691 4666 
L 3169 4666 
L 3169 4134 
L 1269 4134 
L 1269 2991 
Q 1406 3038 1543 3061 
Q 1681 3084 1819 3084 
Q 2600 3084 3056 2656 
Q 3513 2228 3513 1497 
Q 3513 744 3044 326 
Q 2575 -91 1722 -91 
Q 1428 -91 1123 -41 
Q 819 9 494 109 
L 494 744 
Q 775 591 1075 516 
Q 1375 441 1709 441 
Q 2250 441 2565 725 
Q 2881 1009 2881 1497 
Q 2881 1984 2565 2268 
Q 2250 2553 1709 2553 
Q 1456 2553 1204 2497 
Q 953 2441 691 2322 
L 691 4666 
z
" transform="scale(0.015625)"/>
       </defs>
       <use xlink:href="#DejaVuSans-35"/>
       <use xlink:href="#DejaVuSans-30" transform="translate(63.623047 0)"/>
      </g>
     </g>
    </g>
    <g id="xtick_3">
     <g id="line2d_5">
      <path d="M 250.155026 390.04 
L 250.155026 25.44 
" clip-path="url(#p49c0a09d54)" style="fill: none; stroke: #b0b0b0; stroke-width: 0.8; stroke-linecap: square"/>
     </g>
     <g id="line2d_6">
      <g>
       <use xlink:href="#md6bc9332ea" x="250.155026" y="390.04" style="stroke: #000000; stroke-width: 0.8"/>
      </g>
     </g>
     <g id="text_3">
      <!-- 100 -->
      <g transform="translate(240.611276 404.638438) scale(0.1 -0.1)">
       <defs>
        <path id="DejaVuSans-31" d="M 794 531 
L 1825 531 
L 1825 4091 
L 703 3866 
L 703 4441 
L 1819 4666 
L 2450 4666 
L 2450 531 
L 3481 531 
L 3481 0 
L 794 0 
L 794 531 
z
" transform="scale(0.015625)"/>
       </defs>
       <use xlink:href="#DejaVuSans-31"/>
       <use xlink:href="#DejaVuSans-30" transform="translate(63.623047 0)"/>
       <use xlink:href="#DejaVuSans-30" transform="translate(127.246094 0)"/>
      </g>
     </g>
    </g>
    <g id="xtick_4">
     <g id="line2d_7">
      <path d="M 336.295948 390.04 
L 336.295948 25.44 
" clip-path="url(#p49c0a09d54)" style="fill: none; stroke: #b0b0b0; stroke-width: 0.8; stroke-linecap: square"/>
     </g>
     <g id="line2d_8">
      <g>
       <use xlink:href="#md6bc9332ea" x="336.295948" y="390.04" style="stroke: #000000; stroke-width: 0.8"/>
      </g>
     </g>
     <g id="text_4">
      <!-- 150 -->
      <g transform="translate(326.752198 404.638438) scale(0.1 -0.1)">
       <use xlink:href="#DejaVuSans-31"/>
       <use xlink:href="#DejaVuSans-35" transform="translate(63.623047 0)"/>
       <use xlink:href="#DejaVuSans-30" transform="translate(127.246094 0)"/>
      </g>
     </g>
    </g>
    <g id="xtick_5">
     <g id="line2d_9">
      <path d="M 422.43687 390.04 
L 422.43687 25.44 
" clip-path="url(#p49c0a09d54)" style="fill: none; stroke: #b0b0b0; stroke-width: 0.8; stroke-linecap: square"/>
     </g>
     <g id="line2d_10">
      <g>
       <use xlink:href="#md6bc9332ea" x="422.43687" y="390.04" style="stroke: #000000; stroke-width: 0.8"/>
      </g>
     </g>
     <g id="text_5">
      <!-- 200 -->
      <g transform="translate(412.89312 404.638438) scale(0.1 -0.1)">
       <defs>
        <path id="DejaVuSans-32" d="M 1228 531 
L 3431 531 
L 3431 0 
L 469 0 
L 469 531 
Q 828 903 1448 1529 
Q 2069 2156 2228 2338 
Q 2531 2678 2651 2914 
Q 2772 3150 2772 3378 
Q 2772 3750 2511 3984 
Q 2250 4219 1831 4219 
Q 1534 4219 1204 4116 
Q 875 4013 500 3803 
L 500 4441 
Q 881 4594 1212 4672 
Q 1544 4750 1819 4750 
Q 2544 4750 2975 4387 
Q 3406 4025 3406 3419 
Q 3406 3131 3298 2873 
Q 3191 2616 2906 2266 
Q 2828 2175 2409 1742 
Q 1991 1309 1228 531 
z
" transform="scale(0.015625)"/>
       </defs>
       <use xlink:href="#DejaVuSans-32"/>
       <use xlink:href="#DejaVuSans-30" transform="translate(63.623047 0)"/>
       <use xlink:href="#DejaVuSans-30" transform="translate(127.246094 0)"/>
      </g>
     </g>
    </g>
    <g id="xtick_6">
     <g id="line2d_11">
      <path d="M 508.577792 390.04 
L 508.577792 25.44 
" clip-path="url(#p49c0a09d54)" style="fill: none; stroke: #b0b0b0; stroke-width: 0.8; stroke-linecap: square"/>
     </g>
     <g id="line2d_12">
      <g>
       <use xlink:href="#md6bc9332ea" x="508.577792" y="390.04" style="stroke: #000000; stroke-width: 0.8"/>
      </g>
     </g>
     <g id="text_6">
      <!-- 250 -->
      <g transform="translate(499.034042 404.638438) scale(0.1 -0.1)">
       <use xlink:href="#DejaVuSans-32"/>
       <use xlink:href="#DejaVuSans-35" transform="translate(63.623047 0)"/>
       <use xlink:href="#DejaVuSans-30" transform="translate(127.246094 0)"/>
      </g>
     </g>
    </g>
    <g id="xtick_7">
     <g id="line2d_13">
      <path d="M 594.718715 390.04 
L 594.718715 25.44 
" clip-path="url(#p49c0a09d54)" style="fill: none; stroke: #b0b0b0; stroke-width: 0.8; stroke-linecap: square"/>
     </g>
     <g id="line2d_14">
      <g>
       <use xlink:href="#md6bc9332ea" x="594.718715" y="390.04" style="stroke: #000000; stroke-width: 0.8"/>
      </g>
     </g>
     <g id="text_7">
      <!-- 300 -->
      <g transform="translate(585.174965 404.638438) scale(0.1 -0.1)">
       <defs>
        <path id="DejaVuSans-33" d="M 2597 2516 
Q 3050 2419 3304 2112 
Q 3559 1806 3559 1356 
Q 3559 666 3084 287 
Q 2609 -91 1734 -91 
Q 1441 -91 1130 -33 
Q 819 25 488 141 
L 488 750 
Q 750 597 1062 519 
Q 1375 441 1716 441 
Q 2309 441 2620 675 
Q 2931 909 2931 1356 
Q 2931 1769 2642 2001 
Q 2353 2234 1838 2234 
L 1294 2234 
L 1294 2753 
L 1863 2753 
Q 2328 2753 2575 2939 
Q 2822 3125 2822 3475 
Q 2822 3834 2567 4026 
Q 2313 4219 1838 4219 
Q 1578 4219 1281 4162 
Q 984 4106 628 3988 
L 628 4550 
Q 988 4650 1302 4700 
Q 1616 4750 1894 4750 
Q 2613 4750 3031 4423 
Q 3450 4097 3450 3541 
Q 3450 3153 3228 2886 
Q 3006 2619 2597 2516 
z
" transform="scale(0.015625)"/>
       </defs>
       <use xlink:href="#DejaVuSans-33"/>
       <use xlink:href="#DejaVuSans-30" transform="translate(63.623047 0)"/>
       <use xlink:href="#DejaVuSans-30" transform="translate(127.246094 0)"/>
      </g>
     </g>
    </g>
    <g id="xtick_8">
     <g id="line2d_15">
      <path d="M 680.859637 390.04 
L 680.859637 25.44 
" clip-path="url(#p49c0a09d54)" style="fill: none; stroke: #b0b0b0; stroke-width: 0.8; stroke-linecap: square"/>
     </g>
     <g id="line2d_16">
      <g>
       <use xlink:href="#md6bc9332ea" x="680.859637" y="390.04" style="stroke: #000000; stroke-width: 0.8"/>
      </g>
     </g>
     <g id="text_8">
      <!-- 350 -->
      <g transform="translate(671.315887 404.638438) scale(0.1 -0.1)">
       <use xlink:href="#DejaVuSans-33"/>
       <use xlink:href="#DejaVuSans-35" transform="translate(63.623047 0)"/>
       <use xlink:href="#DejaVuSans-30" transform="translate(127.246094 0)"/>
      </g>
     </g>
    </g>
    <g id="text_9">
     <!-- Epoch -->
     <g transform="translate(363.194063 418.316562) scale(0.1 -0.1)">
      <defs>
       <path id="DejaVuSans-45" d="M 628 4666 
L 3578 4666 
L 3578 4134 
L 1259 4134 
L 1259 2753 
L 3481 2753 
L 3481 2222 
L 1259 2222 
L 1259 531 
L 3634 531 
L 3634 0 
L 628 0 
L 628 4666 
z
" transform="scale(0.015625)"/>
       <path id="DejaVuSans-70" d="M 1159 525 
L 1159 -1331 
L 581 -1331 
L 581 3500 
L 1159 3500 
L 1159 2969 
Q 1341 3281 1617 3432 
Q 1894 3584 2278 3584 
Q 2916 3584 3314 3078 
Q 3713 2572 3713 1747 
Q 3713 922 3314 415 
Q 2916 -91 2278 -91 
Q 1894 -91 1617 61 
Q 1341 213 1159 525 
z
M 3116 1747 
Q 3116 2381 2855 2742 
Q 2594 3103 2138 3103 
Q 1681 3103 1420 2742 
Q 1159 2381 1159 1747 
Q 1159 1113 1420 752 
Q 1681 391 2138 391 
Q 2594 391 2855 752 
Q 3116 1113 3116 1747 
z
" transform="scale(0.015625)"/>
       <path id="DejaVuSans-6f" d="M 1959 3097 
Q 1497 3097 1228 2736 
Q 959 2375 959 1747 
Q 959 1119 1226 758 
Q 1494 397 1959 397 
Q 2419 397 2687 759 
Q 2956 1122 2956 1747 
Q 2956 2369 2687 2733 
Q 2419 3097 1959 3097 
z
M 1959 3584 
Q 2709 3584 3137 3096 
Q 3566 2609 3566 1747 
Q 3566 888 3137 398 
Q 2709 -91 1959 -91 
Q 1206 -91 779 398 
Q 353 888 353 1747 
Q 353 2609 779 3096 
Q 1206 3584 1959 3584 
z
" transform="scale(0.015625)"/>
       <path id="DejaVuSans-63" d="M 3122 3366 
L 3122 2828 
Q 2878 2963 2633 3030 
Q 2388 3097 2138 3097 
Q 1578 3097 1268 2742 
Q 959 2388 959 1747 
Q 959 1106 1268 751 
Q 1578 397 2138 397 
Q 2388 397 2633 464 
Q 2878 531 3122 666 
L 3122 134 
Q 2881 22 2623 -34 
Q 2366 -91 2075 -91 
Q 1284 -91 818 406 
Q 353 903 353 1747 
Q 353 2603 823 3093 
Q 1294 3584 2113 3584 
Q 2378 3584 2631 3529 
Q 2884 3475 3122 3366 
z
" transform="scale(0.015625)"/>
       <path id="DejaVuSans-68" d="M 3513 2113 
L 3513 0 
L 2938 0 
L 2938 2094 
Q 2938 2591 2744 2837 
Q 2550 3084 2163 3084 
Q 1697 3084 1428 2787 
Q 1159 2491 1159 1978 
L 1159 0 
L 581 0 
L 581 4863 
L 1159 4863 
L 1159 2956 
Q 1366 3272 1645 3428 
Q 1925 3584 2291 3584 
Q 2894 3584 3203 3211 
Q 3513 2838 3513 2113 
z
" transform="scale(0.015625)"/>
      </defs>
      <use xlink:href="#DejaVuSans-45"/>
      <use xlink:href="#DejaVuSans-70" transform="translate(63.183594 0)"/>
      <use xlink:href="#DejaVuSans-6f" transform="translate(126.660156 0)"/>
      <use xlink:href="#DejaVuSans-63" transform="translate(187.841797 0)"/>
      <use xlink:href="#DejaVuSans-68" transform="translate(242.822266 0)"/>
     </g>
    </g>
   </g>
   <g id="matplotlib.axis_2">
    <g id="ytick_1">
     <g id="line2d_17">
      <path d="M 47.81 355.063349 
L 709.2 355.063349 
" clip-path="url(#p49c0a09d54)" style="fill: none; stroke: #b0b0b0; stroke-width: 0.8; stroke-linecap: square"/>
     </g>
     <g id="line2d_18">
      <defs>
       <path id="m535fb27122" d="M 0 0 
L -3.5 0 
" style="stroke: #000000; stroke-width: 0.8"/>
      </defs>
      <g>
       <use xlink:href="#m535fb27122" x="47.81" y="355.063349" style="stroke: #000000; stroke-width: 0.8"/>
      </g>
     </g>
     <g id="text_10">
      <!-- 0.4 -->
      <g transform="translate(24.906875 358.862568) scale(0.1 -0.1)">
       <defs>
        <path id="DejaVuSans-2e" d="M 684 794 
L 1344 794 
L 1344 0 
L 684 0 
L 684 794 
z
" transform="scale(0.015625)"/>
        <path id="DejaVuSans-34" d="M 2419 4116 
L 825 1625 
L 2419 1625 
L 2419 4116 
z
M 2253 4666 
L 3047 4666 
L 3047 1625 
L 3713 1625 
L 3713 1100 
L 3047 1100 
L 3047 0 
L 2419 0 
L 2419 1100 
L 313 1100 
L 313 1709 
L 2253 4666 
z
" transform="scale(0.015625)"/>
       </defs>
       <use xlink:href="#DejaVuSans-30"/>
       <use xlink:href="#DejaVuSans-2e" transform="translate(63.623047 0)"/>
       <use xlink:href="#DejaVuSans-34" transform="translate(95.410156 0)"/>
      </g>
     </g>
    </g>
    <g id="ytick_2">
     <g id="line2d_19">
      <path d="M 47.81 290.130454 
L 709.2 290.130454 
" clip-path="url(#p49c0a09d54)" style="fill: none; stroke: #b0b0b0; stroke-width: 0.8; stroke-linecap: square"/>
     </g>
     <g id="line2d_20">
      <g>
       <use xlink:href="#m535fb27122" x="47.81" y="290.130454" style="stroke: #000000; stroke-width: 0.8"/>
      </g>
     </g>
     <g id="text_11">
      <!-- 0.6 -->
      <g transform="translate(24.906875 293.929672) scale(0.1 -0.1)">
       <defs>
        <path id="DejaVuSans-36" d="M 2113 2584 
Q 1688 2584 1439 2293 
Q 1191 2003 1191 1497 
Q 1191 994 1439 701 
Q 1688 409 2113 409 
Q 2538 409 2786 701 
Q 3034 994 3034 1497 
Q 3034 2003 2786 2293 
Q 2538 2584 2113 2584 
z
M 3366 4563 
L 3366 3988 
Q 3128 4100 2886 4159 
Q 2644 4219 2406 4219 
Q 1781 4219 1451 3797 
Q 1122 3375 1075 2522 
Q 1259 2794 1537 2939 
Q 1816 3084 2150 3084 
Q 2853 3084 3261 2657 
Q 3669 2231 3669 1497 
Q 3669 778 3244 343 
Q 2819 -91 2113 -91 
Q 1303 -91 875 529 
Q 447 1150 447 2328 
Q 447 3434 972 4092 
Q 1497 4750 2381 4750 
Q 2619 4750 2861 4703 
Q 3103 4656 3366 4563 
z
" transform="scale(0.015625)"/>
       </defs>
       <use xlink:href="#DejaVuSans-30"/>
       <use xlink:href="#DejaVuSans-2e" transform="translate(63.623047 0)"/>
       <use xlink:href="#DejaVuSans-36" transform="translate(95.410156 0)"/>
      </g>
     </g>
    </g>
    <g id="ytick_3">
     <g id="line2d_21">
      <path d="M 47.81 225.197558 
L 709.2 225.197558 
" clip-path="url(#p49c0a09d54)" style="fill: none; stroke: #b0b0b0; stroke-width: 0.8; stroke-linecap: square"/>
     </g>
     <g id="line2d_22">
      <g>
       <use xlink:href="#m535fb27122" x="47.81" y="225.197558" style="stroke: #000000; stroke-width: 0.8"/>
      </g>
     </g>
     <g id="text_12">
      <!-- 0.8 -->
      <g transform="translate(24.906875 228.996777) scale(0.1 -0.1)">
       <defs>
        <path id="DejaVuSans-38" d="M 2034 2216 
Q 1584 2216 1326 1975 
Q 1069 1734 1069 1313 
Q 1069 891 1326 650 
Q 1584 409 2034 409 
Q 2484 409 2743 651 
Q 3003 894 3003 1313 
Q 3003 1734 2745 1975 
Q 2488 2216 2034 2216 
z
M 1403 2484 
Q 997 2584 770 2862 
Q 544 3141 544 3541 
Q 544 4100 942 4425 
Q 1341 4750 2034 4750 
Q 2731 4750 3128 4425 
Q 3525 4100 3525 3541 
Q 3525 3141 3298 2862 
Q 3072 2584 2669 2484 
Q 3125 2378 3379 2068 
Q 3634 1759 3634 1313 
Q 3634 634 3220 271 
Q 2806 -91 2034 -91 
Q 1263 -91 848 271 
Q 434 634 434 1313 
Q 434 1759 690 2068 
Q 947 2378 1403 2484 
z
M 1172 3481 
Q 1172 3119 1398 2916 
Q 1625 2713 2034 2713 
Q 2441 2713 2670 2916 
Q 2900 3119 2900 3481 
Q 2900 3844 2670 4047 
Q 2441 4250 2034 4250 
Q 1625 4250 1398 4047 
Q 1172 3844 1172 3481 
z
" transform="scale(0.015625)"/>
       </defs>
       <use xlink:href="#DejaVuSans-30"/>
       <use xlink:href="#DejaVuSans-2e" transform="translate(63.623047 0)"/>
       <use xlink:href="#DejaVuSans-38" transform="translate(95.410156 0)"/>
      </g>
     </g>
    </g>
    <g id="ytick_4">
     <g id="line2d_23">
      <path d="M 47.81 160.264663 
L 709.2 160.264663 
" clip-path="url(#p49c0a09d54)" style="fill: none; stroke: #b0b0b0; stroke-width: 0.8; stroke-linecap: square"/>
     </g>
     <g id="line2d_24">
      <g>
       <use xlink:href="#m535fb27122" x="47.81" y="160.264663" style="stroke: #000000; stroke-width: 0.8"/>
      </g>
     </g>
     <g id="text_13">
      <!-- 1.0 -->
      <g transform="translate(24.906875 164.063881) scale(0.1 -0.1)">
       <use xlink:href="#DejaVuSans-31"/>
       <use xlink:href="#DejaVuSans-2e" transform="translate(63.623047 0)"/>
       <use xlink:href="#DejaVuSans-30" transform="translate(95.410156 0)"/>
      </g>
     </g>
    </g>
    <g id="ytick_5">
     <g id="line2d_25">
      <path d="M 47.81 95.331767 
L 709.2 95.331767 
" clip-path="url(#p49c0a09d54)" style="fill: none; stroke: #b0b0b0; stroke-width: 0.8; stroke-linecap: square"/>
     </g>
     <g id="line2d_26">
      <g>
       <use xlink:href="#m535fb27122" x="47.81" y="95.331767" style="stroke: #000000; stroke-width: 0.8"/>
      </g>
     </g>
     <g id="text_14">
      <!-- 1.2 -->
      <g transform="translate(24.906875 99.130986) scale(0.1 -0.1)">
       <use xlink:href="#DejaVuSans-31"/>
       <use xlink:href="#DejaVuSans-2e" transform="translate(63.623047 0)"/>
       <use xlink:href="#DejaVuSans-32" transform="translate(95.410156 0)"/>
      </g>
     </g>
    </g>
    <g id="ytick_6">
     <g id="line2d_27">
      <path d="M 47.81 30.398872 
L 709.2 30.398872 
" clip-path="url(#p49c0a09d54)" style="fill: none; stroke: #b0b0b0; stroke-width: 0.8; stroke-linecap: square"/>
     </g>
     <g id="line2d_28">
      <g>
       <use xlink:href="#m535fb27122" x="47.81" y="30.398872" style="stroke: #000000; stroke-width: 0.8"/>
      </g>
     </g>
     <g id="text_15">
      <!-- 1.4 -->
      <g transform="translate(24.906875 34.19809) scale(0.1 -0.1)">
       <use xlink:href="#DejaVuSans-31"/>
       <use xlink:href="#DejaVuSans-2e" transform="translate(63.623047 0)"/>
       <use xlink:href="#DejaVuSans-34" transform="translate(95.410156 0)"/>
      </g>
     </g>
    </g>
    <g id="text_16">
     <!-- Value -->
     <g transform="translate(18.827188 221.47125) rotate(-90) scale(0.1 -0.1)">
      <defs>
       <path id="DejaVuSans-56" d="M 1831 0 
L 50 4666 
L 709 4666 
L 2188 738 
L 3669 4666 
L 4325 4666 
L 2547 0 
L 1831 0 
z
" transform="scale(0.015625)"/>
       <path id="DejaVuSans-61" d="M 2194 1759 
Q 1497 1759 1228 1600 
Q 959 1441 959 1056 
Q 959 750 1161 570 
Q 1363 391 1709 391 
Q 2188 391 2477 730 
Q 2766 1069 2766 1631 
L 2766 1759 
L 2194 1759 
z
M 3341 1997 
L 3341 0 
L 2766 0 
L 2766 531 
Q 2569 213 2275 61 
Q 1981 -91 1556 -91 
Q 1019 -91 701 211 
Q 384 513 384 1019 
Q 384 1609 779 1909 
Q 1175 2209 1959 2209 
L 2766 2209 
L 2766 2266 
Q 2766 2663 2505 2880 
Q 2244 3097 1772 3097 
Q 1472 3097 1187 3025 
Q 903 2953 641 2809 
L 641 3341 
Q 956 3463 1253 3523 
Q 1550 3584 1831 3584 
Q 2591 3584 2966 3190 
Q 3341 2797 3341 1997 
z
" transform="scale(0.015625)"/>
       <path id="DejaVuSans-6c" d="M 603 4863 
L 1178 4863 
L 1178 0 
L 603 0 
L 603 4863 
z
" transform="scale(0.015625)"/>
       <path id="DejaVuSans-75" d="M 544 1381 
L 544 3500 
L 1119 3500 
L 1119 1403 
Q 1119 906 1312 657 
Q 1506 409 1894 409 
Q 2359 409 2629 706 
Q 2900 1003 2900 1516 
L 2900 3500 
L 3475 3500 
L 3475 0 
L 2900 0 
L 2900 538 
Q 2691 219 2414 64 
Q 2138 -91 1772 -91 
Q 1169 -91 856 284 
Q 544 659 544 1381 
z
M 1991 3584 
L 1991 3584 
z
" transform="scale(0.015625)"/>
       <path id="DejaVuSans-65" d="M 3597 1894 
L 3597 1613 
L 953 1613 
Q 991 1019 1311 708 
Q 1631 397 2203 397 
Q 2534 397 2845 478 
Q 3156 559 3463 722 
L 3463 178 
Q 3153 47 2828 -22 
Q 2503 -91 2169 -91 
Q 1331 -91 842 396 
Q 353 884 353 1716 
Q 353 2575 817 3079 
Q 1281 3584 2069 3584 
Q 2775 3584 3186 3129 
Q 3597 2675 3597 1894 
z
M 3022 2063 
Q 3016 2534 2758 2815 
Q 2500 3097 2075 3097 
Q 1594 3097 1305 2825 
Q 1016 2553 972 2059 
L 3022 2063 
z
" transform="scale(0.015625)"/>
      </defs>
      <use xlink:href="#DejaVuSans-56"/>
      <use xlink:href="#DejaVuSans-61" transform="translate(60.658203 0)"/>
      <use xlink:href="#DejaVuSans-6c" transform="translate(121.9375 0)"/>
      <use xlink:href="#DejaVuSans-75" transform="translate(149.720703 0)"/>
      <use xlink:href="#DejaVuSans-65" transform="translate(213.099609 0)"/>
     </g>
    </g>
   </g>
   <g id="line2d_29">
    <path d="M 77.873182 373.467273 
L 79.596 371.087385 
L 81.318819 58.092981 
L 83.041637 42.012727 
L 84.764456 153.646059 
L 86.487274 205.387122 
L 88.210092 232.276221 
L 89.932911 280.864072 
L 91.655729 239.149665 
L 93.378548 250.417333 
L 95.101366 234.209534 
L 96.824185 238.455584 
L 98.547003 231.467424 
L 100.269822 239.752735 
L 101.99264 243.091858 
L 103.715458 244.190695 
L 105.438277 245.578295 
L 107.161095 243.722233 
L 108.883914 250.419946 
L 110.606732 246.232531 
L 112.329551 256.654441 
L 114.052369 256.862257 
L 115.775188 263.91956 
L 117.498006 266.654006 
L 119.220824 260.887197 
L 120.943643 267.997968 
L 122.666461 277.42049 
L 124.38928 268.565606 
L 126.112098 267.61297 
L 127.834917 278.446487 
L 129.557735 279.771737 
L 131.280554 288.462868 
L 133.003372 283.081794 
L 134.72619 289.300769 
L 136.449009 288.080811 
L 138.171827 282.103401 
L 139.894646 304.390497 
L 141.617464 287.385125 
L 143.340283 297.088727 
L 145.063101 292.634957 
L 146.78592 296.233313 
L 148.508738 298.361205 
L 150.231556 302.37196 
L 151.954375 307.591837 
L 153.677193 309.640039 
L 155.400012 303.507371 
L 157.12283 303.706286 
L 158.845649 311.713476 
L 160.568467 312.857228 
L 162.291285 312.022868 
L 164.014104 298.025611 
L 165.736922 320.277139 
L 167.459741 307.135431 
L 169.182559 323.226174 
L 170.905378 315.845662 
L 172.628196 324.851294 
L 176.073833 308.755482 
L 177.796651 321.678111 
L 179.51947 323.669749 
L 181.242288 319.836892 
L 182.965107 313.564332 
L 184.687925 328.285046 
L 186.410744 329.956958 
L 188.133562 326.90837 
L 189.856381 303.458064 
L 191.579199 335.148427 
L 193.302017 319.475387 
L 195.024836 332.330915 
L 196.747654 313.035107 
L 198.470473 338.157742 
L 200.193291 327.333455 
L 201.91611 317.653887 
L 203.638928 335.144411 
L 205.361747 333.828035 
L 207.084565 326.68127 
L 208.807383 335.678958 
L 210.530202 329.11986 
L 212.25302 326.913624 
L 213.975839 340.741304 
L 215.698657 335.303355 
L 217.421476 330.282393 
L 219.144294 335.97373 
L 222.589931 336.646108 
L 224.312749 316.870248 
L 226.035568 339.243313 
L 227.758386 342.699038 
L 229.481205 341.332783 
L 231.204023 325.478032 
L 232.926842 337.009046 
L 234.64966 342.210606 
L 236.372479 338.79997 
L 238.095297 340.974383 
L 239.818115 317.300199 
L 241.540934 345.241314 
L 243.263752 343.43963 
L 244.986571 315.365861 
L 246.709389 346.744713 
L 248.432208 343.702114 
L 250.155026 342.530844 
L 251.877844 321.501799 
L 253.600663 349.943208 
L 255.323481 346.089607 
L 257.0463 343.277 
L 258.769118 341.457165 
L 260.491937 342.778302 
L 262.214755 313.71988 
L 263.937574 350.850311 
L 265.660392 348.069566 
L 267.38321 338.259569 
L 269.106029 335.696955 
L 270.828847 348.18495 
L 274.274484 343.117389 
L 275.997303 345.027334 
L 277.720121 345.848206 
L 279.44294 345.034156 
L 281.165758 320.923286 
L 282.888576 349.50568 
L 284.611395 351.101512 
L 286.334213 328.932064 
L 288.057032 349.265209 
L 289.77985 349.054355 
L 291.502669 346.414615 
L 293.225487 318.786957 
L 294.948306 349.937219 
L 296.671124 350.876706 
L 298.393942 336.656693 
L 300.116761 351.503337 
L 301.839579 348.423757 
L 303.562398 349.173609 
L 305.285216 346.876933 
L 307.008035 344.201364 
L 308.730853 349.411922 
L 310.453672 349.827612 
L 312.17649 348.047447 
L 313.899308 346.650075 
L 315.622127 349.425701 
L 317.344945 348.048957 
L 319.067764 333.685356 
L 320.790582 354.516899 
L 322.513401 350.026672 
L 324.236219 333.416234 
L 325.959038 354.049386 
L 327.681856 351.892186 
L 329.404674 348.366012 
L 331.127493 348.388286 
L 332.850311 345.921964 
L 334.57313 350.145316 
L 336.295948 326.966386 
L 338.018767 356.223122 
L 339.741585 353.107761 
L 341.464403 350.329455 
L 343.187222 331.434688 
L 344.91004 354.052869 
L 346.632859 353.879441 
L 348.355677 337.209866 
L 350.078496 355.832821 
L 351.801314 349.715402 
L 353.524133 351.335346 
L 356.969769 350.016618 
L 358.692588 351.537473 
L 360.415406 350.60175 
L 362.138225 331.240544 
L 363.861043 357.710266 
L 365.583862 354.238557 
L 367.30668 351.655924 
L 369.029499 351.257679 
L 370.752317 352.086437 
L 372.475135 351.341607 
L 374.197954 351.717326 
L 375.920772 330.426532 
L 377.643591 354.937495 
L 379.366409 355.44105 
L 381.089228 354.667386 
L 382.812046 353.147451 
L 384.534865 350.866856 
L 386.257683 353.11079 
L 387.980501 349.775131 
L 389.70332 353.603895 
L 391.426138 353.61002 
L 393.148957 352.216247 
L 394.871775 353.683381 
L 396.594594 355.58579 
L 398.317412 325.59207 
L 400.040231 357.242802 
L 401.763049 355.974871 
L 403.485867 354.946561 
L 405.208686 340.827737 
L 406.931504 353.569053 
L 408.654323 356.875036 
L 410.377141 356.109074 
L 412.09996 353.646439 
L 413.822778 352.605947 
L 415.545597 354.417462 
L 417.268415 354.287216 
L 418.991233 353.947201 
L 420.714052 334.852436 
L 422.43687 359.667943 
L 424.159689 356.726097 
L 425.882507 355.559655 
L 427.605326 353.498836 
L 429.328144 353.066426 
L 431.050962 355.47089 
L 432.773781 354.866465 
L 434.496599 354.504592 
L 436.219418 354.405677 
L 439.665055 354.758087 
L 441.387873 353.063214 
L 443.110692 355.939226 
L 444.83351 355.922332 
L 446.556328 354.163144 
L 448.279147 353.593823 
L 450.001965 356.583205 
L 451.724784 354.471007 
L 453.447602 355.784984 
L 455.170421 355.33632 
L 456.893239 357.467279 
L 458.616058 356.43713 
L 460.338876 355.051543 
L 462.061694 356.861819 
L 463.784513 356.180965 
L 465.507331 356.359918 
L 467.23015 354.207711 
L 468.952968 340.714889 
L 470.675787 359.741072 
L 472.398605 358.542265 
L 474.121424 358.372049 
L 475.844242 357.332331 
L 477.56706 356.626543 
L 479.289879 326.976758 
L 481.012697 361.925983 
L 482.735516 359.335629 
L 484.458334 356.281854 
L 486.181153 357.796893 
L 487.903971 356.883812 
L 489.62679 358.085202 
L 491.349608 356.817571 
L 493.072426 356.514914 
L 494.795245 357.825592 
L 498.240882 356.491702 
L 499.9637 357.527985 
L 501.686519 359.204851 
L 503.409337 339.474922 
L 505.132156 360.504373 
L 506.854974 359.063527 
L 508.577792 359.407858 
L 510.300611 357.160132 
L 512.023429 357.248491 
L 513.746248 357.705283 
L 515.469066 357.883017 
L 517.191885 358.391188 
L 518.914703 356.588953 
L 520.637521 357.735859 
L 522.36034 356.957309 
L 524.083158 357.310416 
L 525.805977 359.398066 
L 527.528795 356.902795 
L 529.251614 357.832607 
L 530.974432 358.267164 
L 532.697251 360.377166 
L 534.420069 356.899728 
L 536.142887 358.03961 
L 537.865706 358.979271 
L 539.588524 359.060247 
L 541.311343 357.669628 
L 543.034161 359.013591 
L 544.75698 358.438251 
L 546.479798 357.108628 
L 548.202617 359.162723 
L 549.925435 359.096483 
L 551.648253 359.236152 
L 553.371072 357.237441 
L 555.09389 358.163856 
L 556.816709 359.642002 
L 558.539527 359.926875 
L 560.262346 359.267134 
L 561.985164 359.180081 
L 563.707983 357.615841 
L 565.430801 363.112405 
L 567.153619 358.4738 
L 568.876438 358.677029 
L 570.599256 358.638926 
L 572.322075 359.684237 
L 574.044893 359.239181 
L 577.49053 359.772063 
L 579.213349 361.00578 
L 580.936167 345.865487 
L 582.658985 366.2724 
L 584.381804 362.061686 
L 586.104622 359.45018 
L 589.550259 360.417814 
L 591.273078 360.104609 
L 592.995896 360.168566 
L 594.718715 359.613574 
L 596.441533 359.472173 
L 598.164351 360.076917 
L 599.88717 359.643831 
L 601.609988 359.645504 
L 603.332807 360.315938 
L 605.055625 360.660965 
L 606.778444 361.980197 
L 608.501262 360.993502 
L 610.22408 359.479294 
L 611.946899 346.934774 
L 613.669717 362.962857 
L 615.392536 362.855485 
L 617.115354 365.224971 
L 618.838173 370.486298 
L 620.560991 367.974511 
L 622.28381 331.113289 
L 624.006628 363.035483 
L 625.729446 363.226298 
L 627.452265 360.982549 
L 629.175083 362.252424 
L 630.897902 360.705929 
L 632.62072 360.208005 
L 634.343539 360.755343 
L 636.066357 360.927174 
L 637.789176 360.048219 
L 639.511994 360.951373 
L 641.234812 359.889005 
L 642.957631 361.005625 
L 644.680449 361.075349 
L 646.403268 360.828511 
L 648.126086 346.333532 
L 649.848905 363.464902 
L 651.571723 362.66465 
L 653.294542 364.998142 
L 655.01736 360.040246 
L 656.740178 359.231314 
L 658.462997 360.545717 
L 660.185815 361.599359 
L 661.908634 360.557203 
L 663.631452 361.341452 
L 665.354271 361.220379 
L 667.077089 361.665193 
L 668.799908 359.952865 
L 670.522726 359.809363 
L 672.245544 360.985258 
L 673.968363 361.523898 
L 675.691181 361.430227 
L 677.414 360.385903 
L 679.136818 360.424412 
L 679.136818 360.424412 
" clip-path="url(#p49c0a09d54)" style="fill: none; stroke: #ff0000; stroke-width: 1.5; stroke-linecap: square"/>
   </g>
   <g id="line2d_30">
    <path d="M 77.873182 161.019159 
L 79.596 160.350448 
L 81.318819 351.059723 
L 83.041637 368.894859 
L 84.764456 271.959977 
L 86.487274 238.945913 
L 88.210092 234.619669 
L 89.932911 206.745269 
L 91.655729 238.547175 
L 93.378548 238.296011 
L 95.101366 246.880825 
L 96.824185 247.512807 
L 98.547003 251.262008 
L 100.269822 246.896384 
L 101.99264 245.172087 
L 103.715458 244.96909 
L 105.438277 245.408775 
L 107.161095 245.377871 
L 108.883914 243.263196 
L 110.606732 242.249893 
L 112.329551 238.005584 
L 114.052369 238.636811 
L 115.775188 233.189225 
L 117.498006 233.820452 
L 119.220824 232.994897 
L 120.943643 231.329661 
L 122.666461 227.889388 
L 124.38928 228.383432 
L 126.112098 227.139304 
L 127.834917 224.374631 
L 129.557735 223.089923 
L 131.280554 221.41685 
L 133.003372 221.785419 
L 134.72619 218.32235 
L 136.449009 218.644378 
L 138.171827 217.514656 
L 139.894646 212.835306 
L 141.617464 215.72977 
L 143.340283 212.967806 
L 145.063101 214.317787 
L 146.78592 213.009973 
L 148.508738 211.311452 
L 150.231556 208.504264 
L 151.954375 208.774837 
L 153.677193 207.147665 
L 155.400012 207.383714 
L 157.12283 205.786828 
L 158.845649 204.476344 
L 160.568467 203.385731 
L 162.291285 201.901412 
L 164.014104 204.296607 
L 165.736922 201.118353 
L 167.459741 200.984073 
L 169.182559 198.622202 
L 170.905378 198.67449 
L 172.628196 196.674105 
L 174.351015 197.437077 
L 176.073833 198.626711 
L 177.796651 197.287799 
L 179.51947 195.777936 
L 181.242288 196.2308 
L 182.965107 196.242876 
L 184.687925 195.242364 
L 186.410744 192.646784 
L 188.133562 193.568729 
L 189.856381 195.850969 
L 191.579199 190.901317 
L 193.302017 191.138644 
L 195.024836 192.017976 
L 196.747654 195.333316 
L 198.470473 188.447448 
L 200.193291 191.765536 
L 201.91611 192.078353 
L 203.638928 188.698573 
L 205.361747 188.809476 
L 207.084565 190.135635 
L 208.807383 188.547999 
L 210.530202 189.252703 
L 212.25302 188.232608 
L 213.975839 185.228402 
L 215.698657 185.867215 
L 217.421476 187.93564 
L 219.144294 185.935332 
L 220.867113 186.291109 
L 222.589931 186.02671 
L 224.312749 190.118838 
L 226.035568 184.789742 
L 227.758386 183.149605 
L 229.481205 183.39773 
L 231.204023 186.128712 
L 232.926842 184.736235 
L 234.64966 183.045726 
L 236.372479 183.494952 
L 238.095297 183.10738 
L 239.818115 187.925112 
L 241.540934 181.874205 
L 243.263752 181.440518 
L 244.986571 188.02903 
L 246.709389 181.938335 
L 248.432208 181.086811 
L 250.155026 181.703157 
L 251.877844 186.472085 
L 253.600663 179.904143 
L 255.323481 180.321749 
L 257.0463 181.365066 
L 258.769118 181.98147 
L 260.491937 180.65475 
L 262.214755 186.046758 
L 263.937574 179.381672 
L 265.660392 179.154853 
L 267.38321 180.058336 
L 269.106029 182.972364 
L 270.828847 178.935871 
L 272.551666 179.335867 
L 274.274484 180.661194 
L 275.997303 179.388039 
L 277.720121 178.699976 
L 279.44294 178.818311 
L 281.165758 183.981894 
L 282.888576 179.517965 
L 284.611395 177.244955 
L 286.334213 182.663572 
L 288.057032 178.584815 
L 289.77985 177.3075 
L 291.502669 178.5238 
L 293.225487 182.932306 
L 294.948306 179.329887 
L 296.671124 177.055291 
L 298.393942 180.711276 
L 300.116761 177.329734 
L 301.839579 177.837537 
L 303.562398 178.083921 
L 305.285216 177.651995 
L 307.008035 179.2764 
L 308.730853 176.198987 
L 310.453672 177.478973 
L 312.17649 176.968635 
L 313.899308 178.415838 
L 315.622127 176.986187 
L 317.344945 177.311776 
L 319.067764 180.074282 
L 320.790582 174.713855 
L 322.513401 176.381085 
L 324.236219 180.29129 
L 325.959038 175.625447 
L 327.681856 175.740588 
L 329.404674 176.957199 
L 331.127493 176.811694 
L 332.850311 178.030124 
L 334.57313 176.086574 
L 336.295948 181.579171 
L 338.018767 174.072469 
L 339.741585 174.66567 
L 341.464403 176.026604 
L 343.187222 179.956373 
L 344.91004 175.883228 
L 346.632859 174.50064 
L 348.355677 179.011439 
L 350.078496 174.021419 
L 351.801314 175.904747 
L 353.524133 175.732635 
L 355.246951 175.910591 
L 356.969769 175.800617 
L 358.692588 175.175834 
L 360.415406 175.709374 
L 362.138225 178.802346 
L 363.861043 172.296039 
L 365.583862 174.424357 
L 367.30668 175.009024 
L 369.029499 175.110523 
L 370.752317 174.904777 
L 372.475135 174.935817 
L 374.197954 174.414623 
L 375.920772 177.08397 
L 377.643591 171.789378 
L 379.366409 173.820551 
L 381.089228 174.179289 
L 382.812046 174.377971 
L 384.534865 175.385024 
L 386.257683 174.378997 
L 387.980501 175.305605 
L 389.70332 174.27415 
L 391.426138 172.976593 
L 393.148957 174.327541 
L 394.871775 173.815171 
L 396.594594 172.88895 
L 398.317412 179.707764 
L 400.040231 173.089277 
L 401.763049 173.481222 
L 403.485867 173.270968 
L 405.208686 175.335677 
L 406.931504 175.153754 
L 408.654323 173.084864 
L 410.377141 173.042949 
L 413.822778 174.266332 
L 415.545597 173.296454 
L 417.268415 173.368828 
L 418.991233 173.209295 
L 420.714052 177.945403 
L 422.43687 171.249954 
L 424.159689 172.359376 
L 425.882507 172.883222 
L 427.605326 173.612561 
L 429.328144 173.537806 
L 432.773781 171.805652 
L 434.496599 173.2372 
L 436.219418 173.383613 
L 437.942236 172.771718 
L 441.387873 173.148318 
L 443.110692 172.407426 
L 444.83351 172.495882 
L 446.556328 173.430869 
L 448.279147 173.57109 
L 450.001965 172.126984 
L 451.724784 171.293611 
L 453.447602 172.644289 
L 456.893239 171.678377 
L 460.338876 172.738124 
L 462.061694 170.833297 
L 463.784513 172.389545 
L 465.507331 171.518476 
L 467.23015 172.759604 
L 468.952968 175.542023 
L 470.675787 171.060155 
L 472.398605 170.393959 
L 474.121424 171.068553 
L 475.844242 170.770114 
L 477.56706 171.809232 
L 479.289879 177.965064 
L 481.012697 170.023823 
L 482.735516 171.232131 
L 484.458334 172.847209 
L 486.181153 171.56252 
L 487.903971 171.842749 
L 489.62679 171.392981 
L 491.349608 171.684705 
L 493.072426 171.298855 
L 494.795245 169.565134 
L 496.518063 171.459802 
L 499.9637 171.496241 
L 501.686519 169.296168 
L 503.409337 176.117517 
L 505.132156 170.950838 
L 506.854974 171.280201 
L 508.577792 171.073836 
L 510.300611 170.484196 
L 512.023429 171.441205 
L 513.746248 171.758241 
L 515.469066 171.151668 
L 517.191885 171.114765 
L 518.914703 171.424814 
L 520.637521 171.352033 
L 522.36034 171.580691 
L 524.083158 171.587754 
L 525.805977 170.054205 
L 529.251614 171.365754 
L 530.974432 170.738184 
L 532.697251 167.501508 
L 534.420069 172.134338 
L 537.865706 170.593744 
L 539.588524 170.377008 
L 541.311343 171.066289 
L 543.034161 170.680226 
L 544.75698 170.104693 
L 546.479798 171.68097 
L 548.202617 169.988468 
L 549.925435 170.446692 
L 551.648253 170.325745 
L 553.371072 170.630609 
L 555.09389 171.100541 
L 556.816709 170.373602 
L 558.539527 170.096507 
L 563.707983 170.479454 
L 565.430801 165.363979 
L 567.153619 170.912967 
L 570.599256 170.911322 
L 572.322075 170.045303 
L 574.044893 170.214455 
L 575.767712 169.746206 
L 577.49053 169.520432 
L 579.213349 166.337747 
L 580.936167 168.671191 
L 582.658985 163.241564 
L 584.381804 171.451249 
L 586.104622 171.229616 
L 587.827441 170.506721 
L 589.550259 170.848023 
L 591.273078 170.478371 
L 596.441533 169.938967 
L 598.164351 170.133275 
L 599.88717 170.1397 
L 601.609988 170.343704 
L 603.332807 169.397299 
L 605.055625 169.697808 
L 606.778444 169.069794 
L 608.501262 168.892147 
L 610.22408 170.357462 
L 611.946899 174.035624 
L 613.669717 169.580345 
L 615.392536 168.170761 
L 617.115354 163.837319 
L 618.838173 160.269442 
L 620.560991 161.917901 
L 622.28381 181.091688 
L 624.006628 171.644028 
L 625.729446 170.328784 
L 627.452265 170.456252 
L 629.175083 167.857286 
L 630.897902 170.962275 
L 632.62072 170.160929 
L 634.343539 169.653764 
L 636.066357 169.64194 
L 637.789176 170.758116 
L 639.511994 169.765035 
L 641.234812 170.182409 
L 642.957631 169.539281 
L 644.680449 168.760034 
L 646.403268 169.865741 
L 648.126086 174.076204 
L 649.848905 169.491947 
L 651.571723 169.009688 
L 653.294542 165.019019 
L 655.01736 170.372537 
L 656.740178 170.364332 
L 658.462997 169.802597 
L 660.185815 169.561961 
L 661.908634 169.779375 
L 663.631452 168.446791 
L 665.354271 169.773318 
L 667.077089 167.848849 
L 668.799908 170.58583 
L 670.522726 170.156903 
L 672.245544 169.310584 
L 673.968363 169.698621 
L 675.691181 168.859694 
L 677.414 170.156245 
L 679.136818 169.77593 
L 679.136818 169.77593 
" clip-path="url(#p49c0a09d54)" style="fill: none; stroke: #0000ff; stroke-width: 1.5; stroke-linecap: square"/>
   </g>
   <g id="patch_3">
    <path d="M 47.81 390.04 
L 47.81 25.44 
" style="fill: none; stroke: #000000; stroke-width: 0.8; stroke-linejoin: miter; stroke-linecap: square"/>
   </g>
   <g id="patch_4">
    <path d="M 709.2 390.04 
L 709.2 25.44 
" style="fill: none; stroke: #000000; stroke-width: 0.8; stroke-linejoin: miter; stroke-linecap: square"/>
   </g>
   <g id="patch_5">
    <path d="M 47.81 390.04 
L 709.2 390.04 
" style="fill: none; stroke: #000000; stroke-width: 0.8; stroke-linejoin: miter; stroke-linecap: square"/>
   </g>
   <g id="patch_6">
    <path d="M 47.81 25.44 
L 709.2 25.44 
" style="fill: none; stroke: #000000; stroke-width: 0.8; stroke-linejoin: miter; stroke-linecap: square"/>
   </g>
   <g id="text_17">
    <!-- dcgan Trial 0 -->
    <g transform="translate(340.220313 19.44) scale(0.12 -0.12)">
     <defs>
      <path id="DejaVuSans-64" d="M 2906 2969 
L 2906 4863 
L 3481 4863 
L 3481 0 
L 2906 0 
L 2906 525 
Q 2725 213 2448 61 
Q 2172 -91 1784 -91 
Q 1150 -91 751 415 
Q 353 922 353 1747 
Q 353 2572 751 3078 
Q 1150 3584 1784 3584 
Q 2172 3584 2448 3432 
Q 2725 3281 2906 2969 
z
M 947 1747 
Q 947 1113 1208 752 
Q 1469 391 1925 391 
Q 2381 391 2643 752 
Q 2906 1113 2906 1747 
Q 2906 2381 2643 2742 
Q 2381 3103 1925 3103 
Q 1469 3103 1208 2742 
Q 947 2381 947 1747 
z
" transform="scale(0.015625)"/>
      <path id="DejaVuSans-67" d="M 2906 1791 
Q 2906 2416 2648 2759 
Q 2391 3103 1925 3103 
Q 1463 3103 1205 2759 
Q 947 2416 947 1791 
Q 947 1169 1205 825 
Q 1463 481 1925 481 
Q 2391 481 2648 825 
Q 2906 1169 2906 1791 
z
M 3481 434 
Q 3481 -459 3084 -895 
Q 2688 -1331 1869 -1331 
Q 1566 -1331 1297 -1286 
Q 1028 -1241 775 -1147 
L 775 -588 
Q 1028 -725 1275 -790 
Q 1522 -856 1778 -856 
Q 2344 -856 2625 -561 
Q 2906 -266 2906 331 
L 2906 616 
Q 2728 306 2450 153 
Q 2172 0 1784 0 
Q 1141 0 747 490 
Q 353 981 353 1791 
Q 353 2603 747 3093 
Q 1141 3584 1784 3584 
Q 2172 3584 2450 3431 
Q 2728 3278 2906 2969 
L 2906 3500 
L 3481 3500 
L 3481 434 
z
" transform="scale(0.015625)"/>
      <path id="DejaVuSans-6e" d="M 3513 2113 
L 3513 0 
L 2938 0 
L 2938 2094 
Q 2938 2591 2744 2837 
Q 2550 3084 2163 3084 
Q 1697 3084 1428 2787 
Q 1159 2491 1159 1978 
L 1159 0 
L 581 0 
L 581 3500 
L 1159 3500 
L 1159 2956 
Q 1366 3272 1645 3428 
Q 1925 3584 2291 3584 
Q 2894 3584 3203 3211 
Q 3513 2838 3513 2113 
z
" transform="scale(0.015625)"/>
      <path id="DejaVuSans-20" transform="scale(0.015625)"/>
      <path id="DejaVuSans-54" d="M -19 4666 
L 3928 4666 
L 3928 4134 
L 2272 4134 
L 2272 0 
L 1638 0 
L 1638 4134 
L -19 4134 
L -19 4666 
z
" transform="scale(0.015625)"/>
      <path id="DejaVuSans-72" d="M 2631 2963 
Q 2534 3019 2420 3045 
Q 2306 3072 2169 3072 
Q 1681 3072 1420 2755 
Q 1159 2438 1159 1844 
L 1159 0 
L 581 0 
L 581 3500 
L 1159 3500 
L 1159 2956 
Q 1341 3275 1631 3429 
Q 1922 3584 2338 3584 
Q 2397 3584 2469 3576 
Q 2541 3569 2628 3553 
L 2631 2963 
z
" transform="scale(0.015625)"/>
      <path id="DejaVuSans-69" d="M 603 3500 
L 1178 3500 
L 1178 0 
L 603 0 
L 603 3500 
z
M 603 4863 
L 1178 4863 
L 1178 4134 
L 603 4134 
L 603 4863 
z
" transform="scale(0.015625)"/>
     </defs>
     <use xlink:href="#DejaVuSans-64"/>
     <use xlink:href="#DejaVuSans-63" transform="translate(63.476562 0)"/>
     <use xlink:href="#DejaVuSans-67" transform="translate(118.457031 0)"/>
     <use xlink:href="#DejaVuSans-61" transform="translate(181.933594 0)"/>
     <use xlink:href="#DejaVuSans-6e" transform="translate(243.212891 0)"/>
     <use xlink:href="#DejaVuSans-20" transform="translate(306.591797 0)"/>
     <use xlink:href="#DejaVuSans-54" transform="translate(338.378906 0)"/>
     <use xlink:href="#DejaVuSans-72" transform="translate(384.712891 0)"/>
     <use xlink:href="#DejaVuSans-69" transform="translate(425.826172 0)"/>
     <use xlink:href="#DejaVuSans-61" transform="translate(453.609375 0)"/>
     <use xlink:href="#DejaVuSans-6c" transform="translate(514.888672 0)"/>
     <use xlink:href="#DejaVuSans-20" transform="translate(542.671875 0)"/>
     <use xlink:href="#DejaVuSans-30" transform="translate(574.458984 0)"/>
    </g>
   </g>
   <g id="legend_1">
    <g id="patch_7">
     <path d="M 580.026563 63.3525 
L 702.2 63.3525 
Q 704.2 63.3525 704.2 61.3525 
L 704.2 32.44 
Q 704.2 30.44 702.2 30.44 
L 580.026563 30.44 
Q 578.026563 30.44 578.026563 32.44 
L 578.026563 61.3525 
Q 578.026563 63.3525 580.026563 63.3525 
z
" style="fill: #ffffff; opacity: 0.8; stroke: #cccccc; stroke-linejoin: miter"/>
    </g>
    <g id="line2d_31">
     <path d="M 582.026563 38.538438 
L 592.026563 38.538438 
L 602.026563 38.538438 
" style="fill: none; stroke: #ff0000; stroke-width: 1.5; stroke-linecap: square"/>
    </g>
    <g id="text_18">
     <!-- discriminator_loss -->
     <g transform="translate(610.026563 42.038438) scale(0.1 -0.1)">
      <defs>
       <path id="DejaVuSans-73" d="M 2834 3397 
L 2834 2853 
Q 2591 2978 2328 3040 
Q 2066 3103 1784 3103 
Q 1356 3103 1142 2972 
Q 928 2841 928 2578 
Q 928 2378 1081 2264 
Q 1234 2150 1697 2047 
L 1894 2003 
Q 2506 1872 2764 1633 
Q 3022 1394 3022 966 
Q 3022 478 2636 193 
Q 2250 -91 1575 -91 
Q 1294 -91 989 -36 
Q 684 19 347 128 
L 347 722 
Q 666 556 975 473 
Q 1284 391 1588 391 
Q 1994 391 2212 530 
Q 2431 669 2431 922 
Q 2431 1156 2273 1281 
Q 2116 1406 1581 1522 
L 1381 1569 
Q 847 1681 609 1914 
Q 372 2147 372 2553 
Q 372 3047 722 3315 
Q 1072 3584 1716 3584 
Q 2034 3584 2315 3537 
Q 2597 3491 2834 3397 
z
" transform="scale(0.015625)"/>
       <path id="DejaVuSans-6d" d="M 3328 2828 
Q 3544 3216 3844 3400 
Q 4144 3584 4550 3584 
Q 5097 3584 5394 3201 
Q 5691 2819 5691 2113 
L 5691 0 
L 5113 0 
L 5113 2094 
Q 5113 2597 4934 2840 
Q 4756 3084 4391 3084 
Q 3944 3084 3684 2787 
Q 3425 2491 3425 1978 
L 3425 0 
L 2847 0 
L 2847 2094 
Q 2847 2600 2669 2842 
Q 2491 3084 2119 3084 
Q 1678 3084 1418 2786 
Q 1159 2488 1159 1978 
L 1159 0 
L 581 0 
L 581 3500 
L 1159 3500 
L 1159 2956 
Q 1356 3278 1631 3431 
Q 1906 3584 2284 3584 
Q 2666 3584 2933 3390 
Q 3200 3197 3328 2828 
z
" transform="scale(0.015625)"/>
       <path id="DejaVuSans-74" d="M 1172 4494 
L 1172 3500 
L 2356 3500 
L 2356 3053 
L 1172 3053 
L 1172 1153 
Q 1172 725 1289 603 
Q 1406 481 1766 481 
L 2356 481 
L 2356 0 
L 1766 0 
Q 1100 0 847 248 
Q 594 497 594 1153 
L 594 3053 
L 172 3053 
L 172 3500 
L 594 3500 
L 594 4494 
L 1172 4494 
z
" transform="scale(0.015625)"/>
       <path id="DejaVuSans-5f" d="M 3263 -1063 
L 3263 -1509 
L -63 -1509 
L -63 -1063 
L 3263 -1063 
z
" transform="scale(0.015625)"/>
      </defs>
      <use xlink:href="#DejaVuSans-64"/>
      <use xlink:href="#DejaVuSans-69" transform="translate(63.476562 0)"/>
      <use xlink:href="#DejaVuSans-73" transform="translate(91.259766 0)"/>
      <use xlink:href="#DejaVuSans-63" transform="translate(143.359375 0)"/>
      <use xlink:href="#DejaVuSans-72" transform="translate(198.339844 0)"/>
      <use xlink:href="#DejaVuSans-69" transform="translate(239.453125 0)"/>
      <use xlink:href="#DejaVuSans-6d" transform="translate(267.236328 0)"/>
      <use xlink:href="#DejaVuSans-69" transform="translate(364.648438 0)"/>
      <use xlink:href="#DejaVuSans-6e" transform="translate(392.431641 0)"/>
      <use xlink:href="#DejaVuSans-61" transform="translate(455.810547 0)"/>
      <use xlink:href="#DejaVuSans-74" transform="translate(517.089844 0)"/>
      <use xlink:href="#DejaVuSans-6f" transform="translate(556.298828 0)"/>
      <use xlink:href="#DejaVuSans-72" transform="translate(617.480469 0)"/>
      <use xlink:href="#DejaVuSans-5f" transform="translate(658.59375 0)"/>
      <use xlink:href="#DejaVuSans-6c" transform="translate(708.59375 0)"/>
      <use xlink:href="#DejaVuSans-6f" transform="translate(736.376953 0)"/>
      <use xlink:href="#DejaVuSans-73" transform="translate(797.558594 0)"/>
      <use xlink:href="#DejaVuSans-73" transform="translate(849.658203 0)"/>
     </g>
    </g>
    <g id="line2d_32">
     <path d="M 582.026563 53.494688 
L 592.026563 53.494688 
L 602.026563 53.494688 
" style="fill: none; stroke: #0000ff; stroke-width: 1.5; stroke-linecap: square"/>
    </g>
    <g id="text_19">
     <!-- generator_loss -->
     <g transform="translate(610.026563 56.994688) scale(0.1 -0.1)">
      <use xlink:href="#DejaVuSans-67"/>
      <use xlink:href="#DejaVuSans-65" transform="translate(63.476562 0)"/>
      <use xlink:href="#DejaVuSans-6e" transform="translate(125 0)"/>
      <use xlink:href="#DejaVuSans-65" transform="translate(188.378906 0)"/>
      <use xlink:href="#DejaVuSans-72" transform="translate(249.902344 0)"/>
      <use xlink:href="#DejaVuSans-61" transform="translate(291.015625 0)"/>
      <use xlink:href="#DejaVuSans-74" transform="translate(352.294922 0)"/>
      <use xlink:href="#DejaVuSans-6f" transform="translate(391.503906 0)"/>
      <use xlink:href="#DejaVuSans-72" transform="translate(452.685547 0)"/>
      <use xlink:href="#DejaVuSans-5f" transform="translate(493.798828 0)"/>
      <use xlink:href="#DejaVuSans-6c" transform="translate(543.798828 0)"/>
      <use xlink:href="#DejaVuSans-6f" transform="translate(571.582031 0)"/>
      <use xlink:href="#DejaVuSans-73" transform="translate(632.763672 0)"/>
      <use xlink:href="#DejaVuSans-73" transform="translate(684.863281 0)"/>
     </g>
    </g>
   </g>
  </g>
 </g>
 <defs>
  <clipPath id="p49c0a09d54">
   <rect x="47.81" y="25.44" width="661.39" height="364.6"/>
  </clipPath>
 </defs>
</svg>
