<?xml version="1.0" encoding="utf-8" standalone="no"?>
<!DOCTYPE svg PUBLIC "-//W3C//DTD SVG 1.1//EN"
  "http://www.w3.org/Graphics/SVG/1.1/DTD/svg11.dtd">
<svg xmlns:xlink="http://www.w3.org/1999/xlink" width="720pt" height="432pt" viewBox="0 0 720 432" xmlns="http://www.w3.org/2000/svg" version="1.1">
 <metadata>
  <rdf:RDF xmlns:dc="http://purl.org/dc/elements/1.1/" xmlns:cc="http://creativecommons.org/ns#" xmlns:rdf="http://www.w3.org/1999/02/22-rdf-syntax-ns#">
   <cc:Work>
    <dc:type rdf:resource="http://purl.org/dc/dcmitype/StillImage"/>
    <dc:date>2025-06-22T15:36:13.442084</dc:date>
    <dc:format>image/svg+xml</dc:format>
    <dc:creator>
     <cc:Agent>
      <dc:title>Matplotlib v3.10.1, https://matplotlib.org/</dc:title>
     </cc:Agent>
    </dc:creator>
   </cc:Work>
  </rdf:RDF>
 </metadata>
 <defs>
  <style type="text/css">*{stroke-linejoin: round; stroke-linecap: butt}</style>
 </defs>
 <g id="figure_1">
  <g id="patch_1">
   <path d="M 0 432 
L 720 432 
L 720 0 
L 0 0 
z
" style="fill: #ffffff"/>
  </g>
  <g id="axes_1">
   <g id="patch_2">
    <path d="M 47.81 390.04 
L 706.968954 390.04 
L 706.968954 25.44 
L 47.81 25.44 
z
" style="fill: #ffffff"/>
   </g>
   <g id="matplotlib.axis_1">
    <g id="xtick_1">
     <g id="line2d_1">
      <path d="M 77.771771 390.04 
L 77.771771 25.44 
" clip-path="url(#pc4b3499124)" style="fill: none; stroke: #b0b0b0; stroke-width: 0.8; stroke-linecap: square"/>
     </g>
     <g id="line2d_2">
      <defs>
       <path id="m742a81bc04" d="M 0 0 
L 0 3.5 
" style="stroke: #000000; stroke-width: 0.8"/>
      </defs>
      <g>
       <use xlink:href="#m742a81bc04" x="77.771771" y="390.04" style="stroke: #000000; stroke-width: 0.8"/>
      </g>
     </g>
     <g id="text_1">
      <!-- 0 -->
      <g transform="translate(74.590521 404.638438) scale(0.1 -0.1)">
       <defs>
        <path id="DejaVuSans-30" d="M 2034 4250 
Q 1547 4250 1301 3770 
Q 1056 3291 1056 2328 
Q 1056 1369 1301 889 
Q 1547 409 2034 409 
Q 2525 409 2770 889 
Q 3016 1369 3016 2328 
Q 3016 3291 2770 3770 
Q 2525 4250 2034 4250 
z
M 2034 4750 
Q 2819 4750 3233 4129 
Q 3647 3509 3647 2328 
Q 3647 1150 3233 529 
Q 2819 -91 2034 -91 
Q 1250 -91 836 529 
Q 422 1150 422 2328 
Q 422 3509 836 4129 
Q 1250 4750 2034 4750 
z
" transform="scale(0.015625)"/>
       </defs>
       <use xlink:href="#DejaVuSans-30"/>
      </g>
     </g>
    </g>
    <g id="xtick_2">
     <g id="line2d_3">
      <path d="M 166.416062 390.04 
L 166.416062 25.44 
" clip-path="url(#pc4b3499124)" style="fill: none; stroke: #b0b0b0; stroke-width: 0.8; stroke-linecap: square"/>
     </g>
     <g id="line2d_4">
      <g>
       <use xlink:href="#m742a81bc04" x="166.416062" y="390.04" style="stroke: #000000; stroke-width: 0.8"/>
      </g>
     </g>
     <g id="text_2">
      <!-- 50 -->
      <g transform="translate(160.053562 404.638438) scale(0.1 -0.1)">
       <defs>
        <path id="DejaVuSans-35" d="M 691 4666 
L 3169 4666 
L 3169 4134 
L 1269 4134 
L 1269 2991 
Q 1406 3038 1543 3061 
Q 1681 3084 1819 3084 
Q 2600 3084 3056 2656 
Q 3513 2228 3513 1497 
Q 3513 744 3044 326 
Q 2575 -91 1722 -91 
Q 1428 -91 1123 -41 
Q 819 9 494 109 
L 494 744 
Q 775 591 1075 516 
Q 1375 441 1709 441 
Q 2250 441 2565 725 
Q 2881 1009 2881 1497 
Q 2881 1984 2565 2268 
Q 2250 2553 1709 2553 
Q 1456 2553 1204 2497 
Q 953 2441 691 2322 
L 691 4666 
z
" transform="scale(0.015625)"/>
       </defs>
       <use xlink:href="#DejaVuSans-35"/>
       <use xlink:href="#DejaVuSans-30" transform="translate(63.623047 0)"/>
      </g>
     </g>
    </g>
    <g id="xtick_3">
     <g id="line2d_5">
      <path d="M 255.060354 390.04 
L 255.060354 25.44 
" clip-path="url(#pc4b3499124)" style="fill: none; stroke: #b0b0b0; stroke-width: 0.8; stroke-linecap: square"/>
     </g>
     <g id="line2d_6">
      <g>
       <use xlink:href="#m742a81bc04" x="255.060354" y="390.04" style="stroke: #000000; stroke-width: 0.8"/>
      </g>
     </g>
     <g id="text_3">
      <!-- 100 -->
      <g transform="translate(245.516604 404.638438) scale(0.1 -0.1)">
       <defs>
        <path id="DejaVuSans-31" d="M 794 531 
L 1825 531 
L 1825 4091 
L 703 3866 
L 703 4441 
L 1819 4666 
L 2450 4666 
L 2450 531 
L 3481 531 
L 3481 0 
L 794 0 
L 794 531 
z
" transform="scale(0.015625)"/>
       </defs>
       <use xlink:href="#DejaVuSans-31"/>
       <use xlink:href="#DejaVuSans-30" transform="translate(63.623047 0)"/>
       <use xlink:href="#DejaVuSans-30" transform="translate(127.246094 0)"/>
      </g>
     </g>
    </g>
    <g id="xtick_4">
     <g id="line2d_7">
      <path d="M 343.704646 390.04 
L 343.704646 25.44 
" clip-path="url(#pc4b3499124)" style="fill: none; stroke: #b0b0b0; stroke-width: 0.8; stroke-linecap: square"/>
     </g>
     <g id="line2d_8">
      <g>
       <use xlink:href="#m742a81bc04" x="343.704646" y="390.04" style="stroke: #000000; stroke-width: 0.8"/>
      </g>
     </g>
     <g id="text_4">
      <!-- 150 -->
      <g transform="translate(334.160896 404.638438) scale(0.1 -0.1)">
       <use xlink:href="#DejaVuSans-31"/>
       <use xlink:href="#DejaVuSans-35" transform="translate(63.623047 0)"/>
       <use xlink:href="#DejaVuSans-30" transform="translate(127.246094 0)"/>
      </g>
     </g>
    </g>
    <g id="xtick_5">
     <g id="line2d_9">
      <path d="M 432.348938 390.04 
L 432.348938 25.44 
" clip-path="url(#pc4b3499124)" style="fill: none; stroke: #b0b0b0; stroke-width: 0.8; stroke-linecap: square"/>
     </g>
     <g id="line2d_10">
      <g>
       <use xlink:href="#m742a81bc04" x="432.348938" y="390.04" style="stroke: #000000; stroke-width: 0.8"/>
      </g>
     </g>
     <g id="text_5">
      <!-- 200 -->
      <g transform="translate(422.805188 404.638438) scale(0.1 -0.1)">
       <defs>
        <path id="DejaVuSans-32" d="M 1228 531 
L 3431 531 
L 3431 0 
L 469 0 
L 469 531 
Q 828 903 1448 1529 
Q 2069 2156 2228 2338 
Q 2531 2678 2651 2914 
Q 2772 3150 2772 3378 
Q 2772 3750 2511 3984 
Q 2250 4219 1831 4219 
Q 1534 4219 1204 4116 
Q 875 4013 500 3803 
L 500 4441 
Q 881 4594 1212 4672 
Q 1544 4750 1819 4750 
Q 2544 4750 2975 4387 
Q 3406 4025 3406 3419 
Q 3406 3131 3298 2873 
Q 3191 2616 2906 2266 
Q 2828 2175 2409 1742 
Q 1991 1309 1228 531 
z
" transform="scale(0.015625)"/>
       </defs>
       <use xlink:href="#DejaVuSans-32"/>
       <use xlink:href="#DejaVuSans-30" transform="translate(63.623047 0)"/>
       <use xlink:href="#DejaVuSans-30" transform="translate(127.246094 0)"/>
      </g>
     </g>
    </g>
    <g id="xtick_6">
     <g id="line2d_11">
      <path d="M 520.99323 390.04 
L 520.99323 25.44 
" clip-path="url(#pc4b3499124)" style="fill: none; stroke: #b0b0b0; stroke-width: 0.8; stroke-linecap: square"/>
     </g>
     <g id="line2d_12">
      <g>
       <use xlink:href="#m742a81bc04" x="520.99323" y="390.04" style="stroke: #000000; stroke-width: 0.8"/>
      </g>
     </g>
     <g id="text_6">
      <!-- 250 -->
      <g transform="translate(511.44948 404.638438) scale(0.1 -0.1)">
       <use xlink:href="#DejaVuSans-32"/>
       <use xlink:href="#DejaVuSans-35" transform="translate(63.623047 0)"/>
       <use xlink:href="#DejaVuSans-30" transform="translate(127.246094 0)"/>
      </g>
     </g>
    </g>
    <g id="xtick_7">
     <g id="line2d_13">
      <path d="M 609.637521 390.04 
L 609.637521 25.44 
" clip-path="url(#pc4b3499124)" style="fill: none; stroke: #b0b0b0; stroke-width: 0.8; stroke-linecap: square"/>
     </g>
     <g id="line2d_14">
      <g>
       <use xlink:href="#m742a81bc04" x="609.637521" y="390.04" style="stroke: #000000; stroke-width: 0.8"/>
      </g>
     </g>
     <g id="text_7">
      <!-- 300 -->
      <g transform="translate(600.093771 404.638438) scale(0.1 -0.1)">
       <defs>
        <path id="DejaVuSans-33" d="M 2597 2516 
Q 3050 2419 3304 2112 
Q 3559 1806 3559 1356 
Q 3559 666 3084 287 
Q 2609 -91 1734 -91 
Q 1441 -91 1130 -33 
Q 819 25 488 141 
L 488 750 
Q 750 597 1062 519 
Q 1375 441 1716 441 
Q 2309 441 2620 675 
Q 2931 909 2931 1356 
Q 2931 1769 2642 2001 
Q 2353 2234 1838 2234 
L 1294 2234 
L 1294 2753 
L 1863 2753 
Q 2328 2753 2575 2939 
Q 2822 3125 2822 3475 
Q 2822 3834 2567 4026 
Q 2313 4219 1838 4219 
Q 1578 4219 1281 4162 
Q 984 4106 628 3988 
L 628 4550 
Q 988 4650 1302 4700 
Q 1616 4750 1894 4750 
Q 2613 4750 3031 4423 
Q 3450 4097 3450 3541 
Q 3450 3153 3228 2886 
Q 3006 2619 2597 2516 
z
" transform="scale(0.015625)"/>
       </defs>
       <use xlink:href="#DejaVuSans-33"/>
       <use xlink:href="#DejaVuSans-30" transform="translate(63.623047 0)"/>
       <use xlink:href="#DejaVuSans-30" transform="translate(127.246094 0)"/>
      </g>
     </g>
    </g>
    <g id="xtick_8">
     <g id="line2d_15">
      <path d="M 698.281813 390.04 
L 698.281813 25.44 
" clip-path="url(#pc4b3499124)" style="fill: none; stroke: #b0b0b0; stroke-width: 0.8; stroke-linecap: square"/>
     </g>
     <g id="line2d_16">
      <g>
       <use xlink:href="#m742a81bc04" x="698.281813" y="390.04" style="stroke: #000000; stroke-width: 0.8"/>
      </g>
     </g>
     <g id="text_8">
      <!-- 350 -->
      <g transform="translate(688.738063 404.638438) scale(0.1 -0.1)">
       <use xlink:href="#DejaVuSans-33"/>
       <use xlink:href="#DejaVuSans-35" transform="translate(63.623047 0)"/>
       <use xlink:href="#DejaVuSans-30" transform="translate(127.246094 0)"/>
      </g>
     </g>
    </g>
    <g id="text_9">
     <!-- Epoch -->
     <g transform="translate(362.078539 418.316562) scale(0.1 -0.1)">
      <defs>
       <path id="DejaVuSans-45" d="M 628 4666 
L 3578 4666 
L 3578 4134 
L 1259 4134 
L 1259 2753 
L 3481 2753 
L 3481 2222 
L 1259 2222 
L 1259 531 
L 3634 531 
L 3634 0 
L 628 0 
L 628 4666 
z
" transform="scale(0.015625)"/>
       <path id="DejaVuSans-70" d="M 1159 525 
L 1159 -1331 
L 581 -1331 
L 581 3500 
L 1159 3500 
L 1159 2969 
Q 1341 3281 1617 3432 
Q 1894 3584 2278 3584 
Q 2916 3584 3314 3078 
Q 3713 2572 3713 1747 
Q 3713 922 3314 415 
Q 2916 -91 2278 -91 
Q 1894 -91 1617 61 
Q 1341 213 1159 525 
z
M 3116 1747 
Q 3116 2381 2855 2742 
Q 2594 3103 2138 3103 
Q 1681 3103 1420 2742 
Q 1159 2381 1159 1747 
Q 1159 1113 1420 752 
Q 1681 391 2138 391 
Q 2594 391 2855 752 
Q 3116 1113 3116 1747 
z
" transform="scale(0.015625)"/>
       <path id="DejaVuSans-6f" d="M 1959 3097 
Q 1497 3097 1228 2736 
Q 959 2375 959 1747 
Q 959 1119 1226 758 
Q 1494 397 1959 397 
Q 2419 397 2687 759 
Q 2956 1122 2956 1747 
Q 2956 2369 2687 2733 
Q 2419 3097 1959 3097 
z
M 1959 3584 
Q 2709 3584 3137 3096 
Q 3566 2609 3566 1747 
Q 3566 888 3137 398 
Q 2709 -91 1959 -91 
Q 1206 -91 779 398 
Q 353 888 353 1747 
Q 353 2609 779 3096 
Q 1206 3584 1959 3584 
z
" transform="scale(0.015625)"/>
       <path id="DejaVuSans-63" d="M 3122 3366 
L 3122 2828 
Q 2878 2963 2633 3030 
Q 2388 3097 2138 3097 
Q 1578 3097 1268 2742 
Q 959 2388 959 1747 
Q 959 1106 1268 751 
Q 1578 397 2138 397 
Q 2388 397 2633 464 
Q 2878 531 3122 666 
L 3122 134 
Q 2881 22 2623 -34 
Q 2366 -91 2075 -91 
Q 1284 -91 818 406 
Q 353 903 353 1747 
Q 353 2603 823 3093 
Q 1294 3584 2113 3584 
Q 2378 3584 2631 3529 
Q 2884 3475 3122 3366 
z
" transform="scale(0.015625)"/>
       <path id="DejaVuSans-68" d="M 3513 2113 
L 3513 0 
L 2938 0 
L 2938 2094 
Q 2938 2591 2744 2837 
Q 2550 3084 2163 3084 
Q 1697 3084 1428 2787 
Q 1159 2491 1159 1978 
L 1159 0 
L 581 0 
L 581 4863 
L 1159 4863 
L 1159 2956 
Q 1366 3272 1645 3428 
Q 1925 3584 2291 3584 
Q 2894 3584 3203 3211 
Q 3513 2838 3513 2113 
z
" transform="scale(0.015625)"/>
      </defs>
      <use xlink:href="#DejaVuSans-45"/>
      <use xlink:href="#DejaVuSans-70" transform="translate(63.183594 0)"/>
      <use xlink:href="#DejaVuSans-6f" transform="translate(126.660156 0)"/>
      <use xlink:href="#DejaVuSans-63" transform="translate(187.841797 0)"/>
      <use xlink:href="#DejaVuSans-68" transform="translate(242.822266 0)"/>
     </g>
    </g>
   </g>
   <g id="matplotlib.axis_2">
    <g id="ytick_1">
     <g id="line2d_17">
      <path d="M 47.81 376.051723 
L 706.968954 376.051723 
" clip-path="url(#pc4b3499124)" style="fill: none; stroke: #b0b0b0; stroke-width: 0.8; stroke-linecap: square"/>
     </g>
     <g id="line2d_18">
      <defs>
       <path id="m0033f000f7" d="M 0 0 
L -3.5 0 
" style="stroke: #000000; stroke-width: 0.8"/>
      </defs>
      <g>
       <use xlink:href="#m0033f000f7" x="47.81" y="376.051723" style="stroke: #000000; stroke-width: 0.8"/>
      </g>
     </g>
     <g id="text_10">
      <!-- 0.0 -->
      <g transform="translate(24.906875 379.850942) scale(0.1 -0.1)">
       <defs>
        <path id="DejaVuSans-2e" d="M 684 794 
L 1344 794 
L 1344 0 
L 684 0 
L 684 794 
z
" transform="scale(0.015625)"/>
       </defs>
       <use xlink:href="#DejaVuSans-30"/>
       <use xlink:href="#DejaVuSans-2e" transform="translate(63.623047 0)"/>
       <use xlink:href="#DejaVuSans-30" transform="translate(95.410156 0)"/>
      </g>
     </g>
    </g>
    <g id="ytick_2">
     <g id="line2d_19">
      <path d="M 47.81 307.479792 
L 706.968954 307.479792 
" clip-path="url(#pc4b3499124)" style="fill: none; stroke: #b0b0b0; stroke-width: 0.8; stroke-linecap: square"/>
     </g>
     <g id="line2d_20">
      <g>
       <use xlink:href="#m0033f000f7" x="47.81" y="307.479792" style="stroke: #000000; stroke-width: 0.8"/>
      </g>
     </g>
     <g id="text_11">
      <!-- 0.2 -->
      <g transform="translate(24.906875 311.279011) scale(0.1 -0.1)">
       <use xlink:href="#DejaVuSans-30"/>
       <use xlink:href="#DejaVuSans-2e" transform="translate(63.623047 0)"/>
       <use xlink:href="#DejaVuSans-32" transform="translate(95.410156 0)"/>
      </g>
     </g>
    </g>
    <g id="ytick_3">
     <g id="line2d_21">
      <path d="M 47.81 238.907861 
L 706.968954 238.907861 
" clip-path="url(#pc4b3499124)" style="fill: none; stroke: #b0b0b0; stroke-width: 0.8; stroke-linecap: square"/>
     </g>
     <g id="line2d_22">
      <g>
       <use xlink:href="#m0033f000f7" x="47.81" y="238.907861" style="stroke: #000000; stroke-width: 0.8"/>
      </g>
     </g>
     <g id="text_12">
      <!-- 0.4 -->
      <g transform="translate(24.906875 242.70708) scale(0.1 -0.1)">
       <defs>
        <path id="DejaVuSans-34" d="M 2419 4116 
L 825 1625 
L 2419 1625 
L 2419 4116 
z
M 2253 4666 
L 3047 4666 
L 3047 1625 
L 3713 1625 
L 3713 1100 
L 3047 1100 
L 3047 0 
L 2419 0 
L 2419 1100 
L 313 1100 
L 313 1709 
L 2253 4666 
z
" transform="scale(0.015625)"/>
       </defs>
       <use xlink:href="#DejaVuSans-30"/>
       <use xlink:href="#DejaVuSans-2e" transform="translate(63.623047 0)"/>
       <use xlink:href="#DejaVuSans-34" transform="translate(95.410156 0)"/>
      </g>
     </g>
    </g>
    <g id="ytick_4">
     <g id="line2d_23">
      <path d="M 47.81 170.33593 
L 706.968954 170.33593 
" clip-path="url(#pc4b3499124)" style="fill: none; stroke: #b0b0b0; stroke-width: 0.8; stroke-linecap: square"/>
     </g>
     <g id="line2d_24">
      <g>
       <use xlink:href="#m0033f000f7" x="47.81" y="170.33593" style="stroke: #000000; stroke-width: 0.8"/>
      </g>
     </g>
     <g id="text_13">
      <!-- 0.6 -->
      <g transform="translate(24.906875 174.135149) scale(0.1 -0.1)">
       <defs>
        <path id="DejaVuSans-36" d="M 2113 2584 
Q 1688 2584 1439 2293 
Q 1191 2003 1191 1497 
Q 1191 994 1439 701 
Q 1688 409 2113 409 
Q 2538 409 2786 701 
Q 3034 994 3034 1497 
Q 3034 2003 2786 2293 
Q 2538 2584 2113 2584 
z
M 3366 4563 
L 3366 3988 
Q 3128 4100 2886 4159 
Q 2644 4219 2406 4219 
Q 1781 4219 1451 3797 
Q 1122 3375 1075 2522 
Q 1259 2794 1537 2939 
Q 1816 3084 2150 3084 
Q 2853 3084 3261 2657 
Q 3669 2231 3669 1497 
Q 3669 778 3244 343 
Q 2819 -91 2113 -91 
Q 1303 -91 875 529 
Q 447 1150 447 2328 
Q 447 3434 972 4092 
Q 1497 4750 2381 4750 
Q 2619 4750 2861 4703 
Q 3103 4656 3366 4563 
z
" transform="scale(0.015625)"/>
       </defs>
       <use xlink:href="#DejaVuSans-30"/>
       <use xlink:href="#DejaVuSans-2e" transform="translate(63.623047 0)"/>
       <use xlink:href="#DejaVuSans-36" transform="translate(95.410156 0)"/>
      </g>
     </g>
    </g>
    <g id="ytick_5">
     <g id="line2d_25">
      <path d="M 47.81 101.763999 
L 706.968954 101.763999 
" clip-path="url(#pc4b3499124)" style="fill: none; stroke: #b0b0b0; stroke-width: 0.8; stroke-linecap: square"/>
     </g>
     <g id="line2d_26">
      <g>
       <use xlink:href="#m0033f000f7" x="47.81" y="101.763999" style="stroke: #000000; stroke-width: 0.8"/>
      </g>
     </g>
     <g id="text_14">
      <!-- 0.8 -->
      <g transform="translate(24.906875 105.563217) scale(0.1 -0.1)">
       <defs>
        <path id="DejaVuSans-38" d="M 2034 2216 
Q 1584 2216 1326 1975 
Q 1069 1734 1069 1313 
Q 1069 891 1326 650 
Q 1584 409 2034 409 
Q 2484 409 2743 651 
Q 3003 894 3003 1313 
Q 3003 1734 2745 1975 
Q 2488 2216 2034 2216 
z
M 1403 2484 
Q 997 2584 770 2862 
Q 544 3141 544 3541 
Q 544 4100 942 4425 
Q 1341 4750 2034 4750 
Q 2731 4750 3128 4425 
Q 3525 4100 3525 3541 
Q 3525 3141 3298 2862 
Q 3072 2584 2669 2484 
Q 3125 2378 3379 2068 
Q 3634 1759 3634 1313 
Q 3634 634 3220 271 
Q 2806 -91 2034 -91 
Q 1263 -91 848 271 
Q 434 634 434 1313 
Q 434 1759 690 2068 
Q 947 2378 1403 2484 
z
M 1172 3481 
Q 1172 3119 1398 2916 
Q 1625 2713 2034 2713 
Q 2441 2713 2670 2916 
Q 2900 3119 2900 3481 
Q 2900 3844 2670 4047 
Q 2441 4250 2034 4250 
Q 1625 4250 1398 4047 
Q 1172 3844 1172 3481 
z
" transform="scale(0.015625)"/>
       </defs>
       <use xlink:href="#DejaVuSans-30"/>
       <use xlink:href="#DejaVuSans-2e" transform="translate(63.623047 0)"/>
       <use xlink:href="#DejaVuSans-38" transform="translate(95.410156 0)"/>
      </g>
     </g>
    </g>
    <g id="ytick_6">
     <g id="line2d_27">
      <path d="M 47.81 33.192068 
L 706.968954 33.192068 
" clip-path="url(#pc4b3499124)" style="fill: none; stroke: #b0b0b0; stroke-width: 0.8; stroke-linecap: square"/>
     </g>
     <g id="line2d_28">
      <g>
       <use xlink:href="#m0033f000f7" x="47.81" y="33.192068" style="stroke: #000000; stroke-width: 0.8"/>
      </g>
     </g>
     <g id="text_15">
      <!-- 1.0 -->
      <g transform="translate(24.906875 36.991286) scale(0.1 -0.1)">
       <use xlink:href="#DejaVuSans-31"/>
       <use xlink:href="#DejaVuSans-2e" transform="translate(63.623047 0)"/>
       <use xlink:href="#DejaVuSans-30" transform="translate(95.410156 0)"/>
      </g>
     </g>
    </g>
    <g id="text_16">
     <!-- Value -->
     <g transform="translate(18.827188 221.47125) rotate(-90) scale(0.1 -0.1)">
      <defs>
       <path id="DejaVuSans-56" d="M 1831 0 
L 50 4666 
L 709 4666 
L 2188 738 
L 3669 4666 
L 4325 4666 
L 2547 0 
L 1831 0 
z
" transform="scale(0.015625)"/>
       <path id="DejaVuSans-61" d="M 2194 1759 
Q 1497 1759 1228 1600 
Q 959 1441 959 1056 
Q 959 750 1161 570 
Q 1363 391 1709 391 
Q 2188 391 2477 730 
Q 2766 1069 2766 1631 
L 2766 1759 
L 2194 1759 
z
M 3341 1997 
L 3341 0 
L 2766 0 
L 2766 531 
Q 2569 213 2275 61 
Q 1981 -91 1556 -91 
Q 1019 -91 701 211 
Q 384 513 384 1019 
Q 384 1609 779 1909 
Q 1175 2209 1959 2209 
L 2766 2209 
L 2766 2266 
Q 2766 2663 2505 2880 
Q 2244 3097 1772 3097 
Q 1472 3097 1187 3025 
Q 903 2953 641 2809 
L 641 3341 
Q 956 3463 1253 3523 
Q 1550 3584 1831 3584 
Q 2591 3584 2966 3190 
Q 3341 2797 3341 1997 
z
" transform="scale(0.015625)"/>
       <path id="DejaVuSans-6c" d="M 603 4863 
L 1178 4863 
L 1178 0 
L 603 0 
L 603 4863 
z
" transform="scale(0.015625)"/>
       <path id="DejaVuSans-75" d="M 544 1381 
L 544 3500 
L 1119 3500 
L 1119 1403 
Q 1119 906 1312 657 
Q 1506 409 1894 409 
Q 2359 409 2629 706 
Q 2900 1003 2900 1516 
L 2900 3500 
L 3475 3500 
L 3475 0 
L 2900 0 
L 2900 538 
Q 2691 219 2414 64 
Q 2138 -91 1772 -91 
Q 1169 -91 856 284 
Q 544 659 544 1381 
z
M 1991 3584 
L 1991 3584 
z
" transform="scale(0.015625)"/>
       <path id="DejaVuSans-65" d="M 3597 1894 
L 3597 1613 
L 953 1613 
Q 991 1019 1311 708 
Q 1631 397 2203 397 
Q 2534 397 2845 478 
Q 3156 559 3463 722 
L 3463 178 
Q 3153 47 2828 -22 
Q 2503 -91 2169 -91 
Q 1331 -91 842 396 
Q 353 884 353 1716 
Q 353 2575 817 3079 
Q 1281 3584 2069 3584 
Q 2775 3584 3186 3129 
Q 3597 2675 3597 1894 
z
M 3022 2063 
Q 3016 2534 2758 2815 
Q 2500 3097 2075 3097 
Q 1594 3097 1305 2825 
Q 1016 2553 972 2059 
L 3022 2063 
z
" transform="scale(0.015625)"/>
      </defs>
      <use xlink:href="#DejaVuSans-56"/>
      <use xlink:href="#DejaVuSans-61" transform="translate(60.658203 0)"/>
      <use xlink:href="#DejaVuSans-6c" transform="translate(121.9375 0)"/>
      <use xlink:href="#DejaVuSans-75" transform="translate(149.720703 0)"/>
      <use xlink:href="#DejaVuSans-65" transform="translate(213.099609 0)"/>
     </g>
    </g>
   </g>
   <g id="line2d_29">
    <path d="M 77.771771 257.831784 
L 79.544656 124.806291 
L 81.317542 349.819959 
L 83.090428 332.277654 
L 84.863314 360.067042 
L 86.6362 355.450657 
L 88.409086 367.616762 
L 90.181971 366.053437 
L 91.954857 365.620093 
L 93.727743 367.755455 
L 95.500629 367.522981 
L 97.273515 367.938042 
L 99.046401 367.319403 
L 100.819286 367.736737 
L 102.592172 368.805428 
L 104.365058 368.402924 
L 106.137944 368.6615 
L 109.683716 368.546096 
L 111.456602 369.309223 
L 113.229487 368.608776 
L 115.002373 369.597528 
L 116.775259 368.82473 
L 118.548145 369.970172 
L 120.321031 367.946712 
L 122.093917 369.62731 
L 123.866802 368.947879 
L 125.639688 369.255025 
L 127.412574 369.305163 
L 129.18546 370.042413 
L 130.958346 369.02261 
L 132.731232 370.12762 
L 134.504117 369.7971 
L 136.277003 370.311357 
L 138.049889 369.697221 
L 139.822775 370.085219 
L 141.595661 367.457697 
L 143.368547 370.052478 
L 145.141432 369.987478 
L 146.914318 370.582803 
L 150.46009 368.579912 
L 152.232976 370.690359 
L 154.005862 370.039955 
L 155.778747 370.747039 
L 157.551633 369.405096 
L 159.324519 370.642304 
L 162.870291 370.731317 
L 164.643177 370.139006 
L 166.416062 369.800609 
L 168.188948 370.717023 
L 169.961834 370.764369 
L 173.507606 370.449285 
L 175.280492 370.780905 
L 177.053377 369.709915 
L 178.826263 371.095411 
L 180.599149 370.435097 
L 182.372035 370.79964 
L 184.144921 370.415703 
L 185.917807 371.213239 
L 187.690692 370.254767 
L 189.463578 371.028585 
L 193.00935 371.143586 
L 194.782236 370.310699 
L 196.555122 371.489765 
L 198.328007 370.16325 
L 200.100893 370.966679 
L 201.873779 371.12843 
L 203.646665 370.73228 
L 205.419551 370.883578 
L 207.192437 370.781094 
L 208.965322 370.938246 
L 210.738208 371.572255 
L 212.511094 371.445166 
L 214.28398 370.871443 
L 216.056866 371.360992 
L 217.829752 371.117338 
L 219.602637 371.188971 
L 221.375523 370.06865 
L 223.148409 371.323755 
L 224.921295 371.405983 
L 226.694181 371.338929 
L 228.467067 371.595385 
L 230.239953 370.864357 
L 232.012838 371.649714 
L 233.785724 370.612828 
L 237.331496 371.199426 
L 239.104382 370.892371 
L 240.877268 371.722713 
L 242.650153 371.158778 
L 244.423039 371.286769 
L 246.195925 371.940407 
L 247.968811 371.379589 
L 249.741697 370.165067 
L 251.514583 371.72733 
L 255.060354 371.326373 
L 256.83324 371.592037 
L 258.606126 371.179057 
L 260.379012 371.247827 
L 262.151898 371.788222 
L 263.924783 370.836787 
L 265.697669 371.626801 
L 267.470555 370.957047 
L 269.243441 371.657041 
L 271.016327 371.223145 
L 272.789213 371.236793 
L 274.562098 371.002974 
L 276.334984 371.902921 
L 279.880756 371.921272 
L 281.653642 370.950894 
L 283.426528 371.709978 
L 286.972299 371.633584 
L 288.745185 371.512027 
L 290.518071 372.008845 
L 292.290957 371.502113 
L 294.063843 371.856795 
L 295.836728 371.47962 
L 297.609614 372.034488 
L 299.3825 371.424557 
L 301.155386 371.882886 
L 302.928272 371.212686 
L 304.701158 371.28613 
L 306.474043 372.116491 
L 311.792701 371.36079 
L 313.565587 372.143999 
L 315.338473 371.690482 
L 322.430016 372.153501 
L 327.748673 371.900123 
L 329.521559 371.567389 
L 331.294445 371.705351 
L 333.067331 372.230755 
L 336.613103 371.627913 
L 338.385988 372.017174 
L 340.158874 371.765893 
L 341.93176 372.288951 
L 343.704646 371.874234 
L 345.477532 372.152248 
L 350.796189 371.974112 
L 352.569075 372.525773 
L 354.341961 371.962044 
L 356.114847 371.953383 
L 357.887733 372.3487 
L 359.660619 371.826674 
L 361.433504 372.644044 
L 363.20639 372.164191 
L 364.979276 372.396776 
L 366.752162 372.415284 
L 368.525048 372.096741 
L 372.070819 372.078725 
L 373.843705 371.829667 
L 375.616591 371.963079 
L 377.389477 372.759115 
L 379.162363 372.119134 
L 380.935249 371.767481 
L 382.708134 372.646689 
L 384.48102 372.638325 
L 386.253906 371.753144 
L 388.026792 372.3113 
L 389.799678 371.810139 
L 391.572564 372.10955 
L 393.345449 372.959144 
L 396.891221 372.024069 
L 398.664107 372.056685 
L 400.436993 372.597778 
L 402.209879 372.549086 
L 403.982764 371.989719 
L 405.75565 372.586789 
L 407.528536 372.626303 
L 409.301422 371.961138 
L 411.074308 372.107254 
L 414.620079 372.758926 
L 416.392965 372.682454 
L 418.165851 372.87845 
L 419.938737 372.329305 
L 421.711623 372.471742 
L 423.484509 372.242627 
L 425.257394 372.280234 
L 427.03028 372.763892 
L 428.803166 372.523688 
L 430.576052 372.853271 
L 432.348938 372.177755 
L 434.121824 372.684111 
L 435.894709 372.382732 
L 437.667595 372.411584 
L 439.440481 372.218392 
L 441.213367 372.166125 
L 442.986253 372.907935 
L 444.759139 372.532167 
L 446.532024 372.528682 
L 448.30491 372.797115 
L 450.077796 372.639387 
L 451.850682 372.349994 
L 453.623568 372.546761 
L 455.396454 372.241399 
L 457.169339 372.502742 
L 458.942225 372.378788 
L 464.260883 372.92348 
L 466.033769 372.503267 
L 467.806654 372.36604 
L 469.57954 372.986826 
L 471.352426 372.631779 
L 473.125312 372.94975 
L 474.898198 372.042158 
L 476.671084 372.722964 
L 478.44397 372.626655 
L 480.216855 372.687581 
L 481.989741 372.924342 
L 483.762627 372.526052 
L 485.535513 372.639862 
L 487.308399 372.87595 
L 489.081285 372.557625 
L 490.85417 372.417881 
L 492.627056 371.938525 
L 494.399942 372.68123 
L 496.172828 372.820132 
L 497.945714 372.55799 
L 499.7186 372.657619 
L 501.491485 373.081846 
L 503.264371 373.030769 
L 505.037257 372.462698 
L 508.583029 372.78894 
L 510.355915 372.462304 
L 512.1288 373.198733 
L 513.901686 372.300676 
L 515.674572 373.008661 
L 517.447458 372.778136 
L 520.99323 372.699405 
L 522.766115 373.081586 
L 524.539001 372.879303 
L 528.084773 372.793689 
L 529.857659 372.820388 
L 531.630545 372.417559 
L 535.176316 373.004203 
L 536.949202 372.497355 
L 538.722088 372.71348 
L 540.494974 372.644299 
L 542.26786 372.972696 
L 544.040745 372.731272 
L 545.813631 372.936624 
L 547.586517 372.891666 
L 549.359403 373.147561 
L 552.905175 372.61224 
L 554.67806 372.639523 
L 556.450946 373.011079 
L 558.223832 372.59354 
L 559.996718 372.892628 
L 561.769604 372.923538 
L 563.54249 373.127267 
L 565.315375 372.51107 
L 567.088261 373.245957 
L 568.861147 372.424562 
L 570.634033 373.072932 
L 572.406919 373.071592 
L 574.179805 372.69485 
L 575.95269 373.035739 
L 577.725576 373.148737 
L 579.498462 372.653588 
L 581.271348 372.934746 
L 583.044234 372.784534 
L 584.81712 373.135822 
L 586.590005 373.144817 
L 588.362891 372.824796 
L 590.135777 372.815612 
L 591.908663 373.355341 
L 595.454435 372.713574 
L 597.227321 372.734824 
L 599.000206 373.163707 
L 600.773092 373.191979 
L 602.545978 372.78561 
L 604.318864 373.259261 
L 606.09175 373.070013 
L 607.864636 372.517793 
L 609.637521 372.945037 
L 613.183293 373.418525 
L 614.956179 372.655411 
L 616.729065 373.173481 
L 618.501951 372.876027 
L 620.274836 372.848008 
L 622.047722 372.993158 
L 623.820608 373.281895 
L 627.36638 373.05386 
L 629.139266 373.066577 
L 632.685037 373.421783 
L 634.457923 372.899981 
L 638.003695 373.235604 
L 639.776581 373.145985 
L 643.322352 372.719336 
L 645.095238 372.941635 
L 648.64101 372.728091 
L 650.413896 373.12006 
L 652.186781 373.296211 
L 653.959667 372.922147 
L 655.732553 373.214348 
L 657.505439 373.1443 
L 659.278325 373.342998 
L 662.824096 372.75382 
L 664.596982 373.467273 
L 666.369868 373.008747 
L 668.142754 373.257744 
L 669.91564 373.096062 
L 671.688526 372.67752 
L 673.461411 373.398577 
L 675.234297 373.003887 
L 677.007183 372.781786 
L 677.007183 372.781786 
" clip-path="url(#pc4b3499124)" style="fill: none; stroke: #ff0000; stroke-width: 1.5; stroke-linecap: square"/>
   </g>
   <g id="line2d_30">
    <path d="M 77.771771 70.685374 
L 79.544656 42.012727 
L 81.317542 97.912089 
L 83.090428 78.64255 
L 84.863314 76.524233 
L 88.409086 71.857625 
L 90.181971 71.842564 
L 91.954857 72.390331 
L 93.727743 68.81934 
L 95.500629 68.958775 
L 97.273515 67.006746 
L 99.046401 69.030485 
L 100.819286 67.425398 
L 102.592172 66.554026 
L 104.365058 66.194536 
L 106.137944 63.981376 
L 107.91083 64.668169 
L 109.683716 63.728194 
L 111.456602 63.652989 
L 113.229487 64.578189 
L 115.002373 63.521994 
L 116.775259 64.80742 
L 118.548145 61.835388 
L 120.321031 65.570297 
L 122.093917 63.802356 
L 123.866802 63.130092 
L 127.412574 61.535326 
L 129.18546 60.194743 
L 130.958346 61.841233 
L 132.731232 59.672112 
L 134.504117 60.499996 
L 136.277003 58.223259 
L 138.049889 61.883454 
L 139.822775 60.337366 
L 141.595661 62.257229 
L 143.368547 58.59638 
L 145.141432 60.893819 
L 146.914318 58.143947 
L 148.687204 60.80719 
L 150.46009 59.067962 
L 152.232976 58.638008 
L 154.005862 59.243446 
L 155.778747 57.196757 
L 157.551633 58.61046 
L 159.324519 57.155844 
L 161.097405 57.489442 
L 162.870291 57.402712 
L 164.643177 58.468818 
L 166.416062 58.510712 
L 168.188948 56.605809 
L 169.961834 56.525577 
L 171.73472 55.439566 
L 173.507606 57.110252 
L 175.280492 55.317889 
L 177.053377 58.844882 
L 178.826263 54.531041 
L 180.599149 56.177449 
L 182.372035 56.097953 
L 184.144921 56.900782 
L 185.917807 55.630601 
L 187.690692 56.809536 
L 189.463578 54.867847 
L 191.236464 55.320219 
L 193.00935 55.465928 
L 196.555122 53.979309 
L 198.328007 55.534695 
L 200.100893 53.742272 
L 201.873779 55.209701 
L 203.646665 55.134721 
L 205.419551 53.67187 
L 207.192437 55.868129 
L 208.965322 53.913362 
L 210.738208 54.685476 
L 212.511094 53.132195 
L 214.28398 55.372351 
L 216.056866 55.336997 
L 217.829752 54.20574 
L 219.602637 53.427639 
L 221.375523 55.142405 
L 223.148409 53.984806 
L 224.921295 52.429706 
L 226.694181 54.239664 
L 228.467067 51.852348 
L 230.239953 55.033563 
L 232.012838 54.17339 
L 233.785724 55.58601 
L 235.55861 55.413223 
L 237.331496 53.192583 
L 239.104382 53.446501 
L 240.877268 53.486474 
L 242.650153 52.481123 
L 244.423039 51.841598 
L 246.195925 50.714368 
L 247.968811 52.981091 
L 249.741697 54.760088 
L 251.514583 52.464672 
L 255.060354 52.504482 
L 256.83324 52.179917 
L 258.606126 53.269729 
L 260.379012 52.01273 
L 262.151898 52.660715 
L 263.924783 53.645916 
L 265.697669 52.899326 
L 267.470555 52.63609 
L 269.243441 51.702184 
L 271.016327 52.910444 
L 272.789213 52.291477 
L 274.562098 52.365946 
L 276.334984 51.073265 
L 278.10787 50.612474 
L 279.880756 50.311594 
L 281.653642 52.072137 
L 283.426528 50.704313 
L 285.199413 52.3563 
L 286.972299 52.183309 
L 288.745185 50.635341 
L 290.518071 50.31374 
L 292.290957 50.877529 
L 294.063843 50.634054 
L 295.836728 52.091408 
L 297.609614 52.520912 
L 299.3825 52.1688 
L 301.155386 50.863264 
L 302.928272 51.876605 
L 304.701158 51.59281 
L 306.474043 52.199965 
L 308.246929 50.501465 
L 311.792701 51.797681 
L 313.565587 49.579637 
L 315.338473 50.343331 
L 317.111358 50.00675 
L 318.884244 50.360559 
L 320.65713 51.351052 
L 322.430016 50.315518 
L 324.202902 49.52307 
L 325.975788 50.625001 
L 327.748673 48.482283 
L 329.521559 50.407275 
L 331.294445 50.742263 
L 333.067331 50.031702 
L 334.840217 50.716472 
L 336.613103 50.93009 
L 338.385988 50.223106 
L 340.158874 50.84524 
L 341.93176 49.529854 
L 343.704646 49.741347 
L 345.477532 50.250122 
L 347.250418 51.242169 
L 349.023303 49.487286 
L 350.796189 50.122581 
L 352.569075 49.111325 
L 354.341961 48.963654 
L 356.114847 50.029372 
L 357.887733 49.266638 
L 359.660619 50.310327 
L 361.433504 48.069823 
L 363.20639 47.941546 
L 364.979276 48.502331 
L 366.752162 48.933429 
L 368.525048 50.299291 
L 370.297934 49.548022 
L 372.070819 49.592 
L 373.843705 48.928729 
L 375.616591 49.147312 
L 377.389477 48.333325 
L 379.162363 50.196089 
L 380.935249 50.742692 
L 382.708134 47.857206 
L 384.48102 49.37311 
L 386.253906 49.817328 
L 388.026792 49.523111 
L 389.799678 51.005029 
L 391.572564 48.455819 
L 393.345449 48.515308 
L 395.118335 47.662492 
L 396.891221 49.489718 
L 398.664107 47.509447 
L 400.436993 47.343159 
L 402.209879 48.677284 
L 403.982764 50.309796 
L 405.75565 50.429121 
L 407.528536 48.498591 
L 409.301422 50.201995 
L 411.074308 47.984114 
L 412.847194 48.228815 
L 414.620079 48.018283 
L 418.165851 48.140327 
L 419.938737 49.135419 
L 421.711623 48.124878 
L 423.484509 48.431725 
L 425.257394 49.445924 
L 427.03028 48.881522 
L 428.803166 49.561224 
L 430.576052 48.743864 
L 432.348938 49.109526 
L 434.121824 49.237047 
L 435.894709 48.793647 
L 437.667595 47.53115 
L 439.440481 48.665124 
L 441.213367 48.988668 
L 442.986253 47.326912 
L 444.759139 48.493564 
L 446.532024 47.564276 
L 448.30491 46.836917 
L 450.077796 49.481401 
L 451.850682 47.852241 
L 453.623568 48.437017 
L 455.396454 48.874839 
L 457.169339 46.870535 
L 458.942225 48.613891 
L 460.715111 47.573391 
L 462.487997 48.35887 
L 464.260883 47.068253 
L 466.033769 48.552297 
L 467.806654 48.648571 
L 469.57954 48.616098 
L 471.352426 47.867179 
L 474.898198 47.683235 
L 476.671084 47.93703 
L 478.44397 47.785517 
L 480.216855 48.684498 
L 481.989741 47.423145 
L 483.762627 47.270202 
L 485.535513 48.576514 
L 489.081285 46.892135 
L 490.85417 48.643278 
L 492.627056 49.006222 
L 494.399942 46.949704 
L 496.172828 46.988267 
L 497.945714 48.220661 
L 499.7186 47.727806 
L 501.491485 46.749717 
L 503.264371 48.225729 
L 505.037257 47.494671 
L 508.583029 47.159071 
L 510.355915 48.399354 
L 512.1288 46.389859 
L 513.901686 48.245838 
L 515.674572 46.984282 
L 517.447458 47.752758 
L 519.220344 47.32589 
L 520.99323 47.690673 
L 522.766115 46.194061 
L 524.539001 45.466927 
L 526.311887 46.247931 
L 528.084773 48.824689 
L 529.857659 46.776263 
L 531.630545 47.016938 
L 533.40343 47.585183 
L 535.176316 47.452921 
L 536.949202 47.697683 
L 538.722088 46.966584 
L 540.494974 48.70757 
L 542.26786 46.644451 
L 544.040745 46.503115 
L 545.813631 47.006189 
L 547.586517 47.294664 
L 549.359403 45.957371 
L 551.132289 46.256698 
L 552.905175 46.95608 
L 554.67806 46.554553 
L 556.450946 46.497025 
L 558.223832 45.824128 
L 559.996718 47.2626 
L 561.769604 46.753171 
L 563.54249 47.243533 
L 567.088261 47.309644 
L 568.861147 47.659488 
L 570.634033 47.219235 
L 572.406919 47.657873 
L 574.179805 47.774665 
L 575.95269 46.525227 
L 577.725576 46.250771 
L 579.498462 47.064963 
L 581.271348 47.081823 
L 583.044234 47.458827 
L 584.81712 46.522284 
L 586.590005 46.571944 
L 588.362891 46.913593 
L 590.135777 45.974353 
L 591.908663 47.517294 
L 593.681549 47.65209 
L 595.454435 48.388216 
L 599.000206 46.807673 
L 602.545978 46.518279 
L 604.318864 46.391739 
L 606.09175 47.428826 
L 607.864636 47.910136 
L 609.637521 46.299675 
L 611.410407 48.083862 
L 613.183293 45.850368 
L 614.956179 47.416463 
L 616.729065 47.134997 
L 618.501951 46.148959 
L 620.274836 46.932946 
L 622.047722 47.376572 
L 623.820608 46.914411 
L 625.593494 47.205461 
L 627.36638 48.155695 
L 629.139266 45.87904 
L 630.912151 45.835552 
L 632.685037 46.473054 
L 634.457923 47.481592 
L 636.230809 45.379542 
L 638.003695 46.715098 
L 639.776581 46.36462 
L 641.549466 46.913185 
L 645.095238 46.401385 
L 646.868124 45.962971 
L 648.64101 47.156843 
L 650.413896 46.060798 
L 652.186781 46.843171 
L 653.959667 47.45664 
L 655.732553 46.500316 
L 657.505439 46.516828 
L 659.278325 47.0011 
L 661.051211 46.409927 
L 662.824096 46.801808 
L 664.596982 46.259967 
L 666.369868 47.479324 
L 669.91564 45.821799 
L 671.688526 48.253706 
L 673.461411 45.455278 
L 675.234297 47.866607 
L 677.007183 47.513472 
L 677.007183 47.513472 
" clip-path="url(#pc4b3499124)" style="fill: none; stroke: #0000ff; stroke-width: 1.5; stroke-linecap: square"/>
   </g>
   <g id="patch_3">
    <path d="M 47.81 390.04 
L 47.81 25.44 
" style="fill: none; stroke: #000000; stroke-width: 0.8; stroke-linejoin: miter; stroke-linecap: square"/>
   </g>
   <g id="patch_4">
    <path d="M 706.968954 390.04 
L 706.968954 25.44 
" style="fill: none; stroke: #000000; stroke-width: 0.8; stroke-linejoin: miter; stroke-linecap: square"/>
   </g>
   <g id="patch_5">
    <path d="M 47.81 390.04 
L 706.968954 390.04 
" style="fill: none; stroke: #000000; stroke-width: 0.8; stroke-linejoin: miter; stroke-linecap: square"/>
   </g>
   <g id="patch_6">
    <path d="M 47.81 25.44 
L 706.968954 25.44 
" style="fill: none; stroke: #000000; stroke-width: 0.8; stroke-linejoin: miter; stroke-linecap: square"/>
   </g>
   <g id="text_17">
    <!-- gan_IS_FID_mnist_generatorcnn_discriminatorcnn Trial 5 -->
    <g transform="translate(208.319789 19.44) scale(0.12 -0.12)">
     <defs>
      <path id="DejaVuSans-67" d="M 2906 1791 
Q 2906 2416 2648 2759 
Q 2391 3103 1925 3103 
Q 1463 3103 1205 2759 
Q 947 2416 947 1791 
Q 947 1169 1205 825 
Q 1463 481 1925 481 
Q 2391 481 2648 825 
Q 2906 1169 2906 1791 
z
M 3481 434 
Q 3481 -459 3084 -895 
Q 2688 -1331 1869 -1331 
Q 1566 -1331 1297 -1286 
Q 1028 -1241 775 -1147 
L 775 -588 
Q 1028 -725 1275 -790 
Q 1522 -856 1778 -856 
Q 2344 -856 2625 -561 
Q 2906 -266 2906 331 
L 2906 616 
Q 2728 306 2450 153 
Q 2172 0 1784 0 
Q 1141 0 747 490 
Q 353 981 353 1791 
Q 353 2603 747 3093 
Q 1141 3584 1784 3584 
Q 2172 3584 2450 3431 
Q 2728 3278 2906 2969 
L 2906 3500 
L 3481 3500 
L 3481 434 
z
" transform="scale(0.015625)"/>
      <path id="DejaVuSans-6e" d="M 3513 2113 
L 3513 0 
L 2938 0 
L 2938 2094 
Q 2938 2591 2744 2837 
Q 2550 3084 2163 3084 
Q 1697 3084 1428 2787 
Q 1159 2491 1159 1978 
L 1159 0 
L 581 0 
L 581 3500 
L 1159 3500 
L 1159 2956 
Q 1366 3272 1645 3428 
Q 1925 3584 2291 3584 
Q 2894 3584 3203 3211 
Q 3513 2838 3513 2113 
z
" transform="scale(0.015625)"/>
      <path id="DejaVuSans-5f" d="M 3263 -1063 
L 3263 -1509 
L -63 -1509 
L -63 -1063 
L 3263 -1063 
z
" transform="scale(0.015625)"/>
      <path id="DejaVuSans-49" d="M 628 4666 
L 1259 4666 
L 1259 0 
L 628 0 
L 628 4666 
z
" transform="scale(0.015625)"/>
      <path id="DejaVuSans-53" d="M 3425 4513 
L 3425 3897 
Q 3066 4069 2747 4153 
Q 2428 4238 2131 4238 
Q 1616 4238 1336 4038 
Q 1056 3838 1056 3469 
Q 1056 3159 1242 3001 
Q 1428 2844 1947 2747 
L 2328 2669 
Q 3034 2534 3370 2195 
Q 3706 1856 3706 1288 
Q 3706 609 3251 259 
Q 2797 -91 1919 -91 
Q 1588 -91 1214 -16 
Q 841 59 441 206 
L 441 856 
Q 825 641 1194 531 
Q 1563 422 1919 422 
Q 2459 422 2753 634 
Q 3047 847 3047 1241 
Q 3047 1584 2836 1778 
Q 2625 1972 2144 2069 
L 1759 2144 
Q 1053 2284 737 2584 
Q 422 2884 422 3419 
Q 422 4038 858 4394 
Q 1294 4750 2059 4750 
Q 2388 4750 2728 4690 
Q 3069 4631 3425 4513 
z
" transform="scale(0.015625)"/>
      <path id="DejaVuSans-46" d="M 628 4666 
L 3309 4666 
L 3309 4134 
L 1259 4134 
L 1259 2759 
L 3109 2759 
L 3109 2228 
L 1259 2228 
L 1259 0 
L 628 0 
L 628 4666 
z
" transform="scale(0.015625)"/>
      <path id="DejaVuSans-44" d="M 1259 4147 
L 1259 519 
L 2022 519 
Q 2988 519 3436 956 
Q 3884 1394 3884 2338 
Q 3884 3275 3436 3711 
Q 2988 4147 2022 4147 
L 1259 4147 
z
M 628 4666 
L 1925 4666 
Q 3281 4666 3915 4102 
Q 4550 3538 4550 2338 
Q 4550 1131 3912 565 
Q 3275 0 1925 0 
L 628 0 
L 628 4666 
z
" transform="scale(0.015625)"/>
      <path id="DejaVuSans-6d" d="M 3328 2828 
Q 3544 3216 3844 3400 
Q 4144 3584 4550 3584 
Q 5097 3584 5394 3201 
Q 5691 2819 5691 2113 
L 5691 0 
L 5113 0 
L 5113 2094 
Q 5113 2597 4934 2840 
Q 4756 3084 4391 3084 
Q 3944 3084 3684 2787 
Q 3425 2491 3425 1978 
L 3425 0 
L 2847 0 
L 2847 2094 
Q 2847 2600 2669 2842 
Q 2491 3084 2119 3084 
Q 1678 3084 1418 2786 
Q 1159 2488 1159 1978 
L 1159 0 
L 581 0 
L 581 3500 
L 1159 3500 
L 1159 2956 
Q 1356 3278 1631 3431 
Q 1906 3584 2284 3584 
Q 2666 3584 2933 3390 
Q 3200 3197 3328 2828 
z
" transform="scale(0.015625)"/>
      <path id="DejaVuSans-69" d="M 603 3500 
L 1178 3500 
L 1178 0 
L 603 0 
L 603 3500 
z
M 603 4863 
L 1178 4863 
L 1178 4134 
L 603 4134 
L 603 4863 
z
" transform="scale(0.015625)"/>
      <path id="DejaVuSans-73" d="M 2834 3397 
L 2834 2853 
Q 2591 2978 2328 3040 
Q 2066 3103 1784 3103 
Q 1356 3103 1142 2972 
Q 928 2841 928 2578 
Q 928 2378 1081 2264 
Q 1234 2150 1697 2047 
L 1894 2003 
Q 2506 1872 2764 1633 
Q 3022 1394 3022 966 
Q 3022 478 2636 193 
Q 2250 -91 1575 -91 
Q 1294 -91 989 -36 
Q 684 19 347 128 
L 347 722 
Q 666 556 975 473 
Q 1284 391 1588 391 
Q 1994 391 2212 530 
Q 2431 669 2431 922 
Q 2431 1156 2273 1281 
Q 2116 1406 1581 1522 
L 1381 1569 
Q 847 1681 609 1914 
Q 372 2147 372 2553 
Q 372 3047 722 3315 
Q 1072 3584 1716 3584 
Q 2034 3584 2315 3537 
Q 2597 3491 2834 3397 
z
" transform="scale(0.015625)"/>
      <path id="DejaVuSans-74" d="M 1172 4494 
L 1172 3500 
L 2356 3500 
L 2356 3053 
L 1172 3053 
L 1172 1153 
Q 1172 725 1289 603 
Q 1406 481 1766 481 
L 2356 481 
L 2356 0 
L 1766 0 
Q 1100 0 847 248 
Q 594 497 594 1153 
L 594 3053 
L 172 3053 
L 172 3500 
L 594 3500 
L 594 4494 
L 1172 4494 
z
" transform="scale(0.015625)"/>
      <path id="DejaVuSans-72" d="M 2631 2963 
Q 2534 3019 2420 3045 
Q 2306 3072 2169 3072 
Q 1681 3072 1420 2755 
Q 1159 2438 1159 1844 
L 1159 0 
L 581 0 
L 581 3500 
L 1159 3500 
L 1159 2956 
Q 1341 3275 1631 3429 
Q 1922 3584 2338 3584 
Q 2397 3584 2469 3576 
Q 2541 3569 2628 3553 
L 2631 2963 
z
" transform="scale(0.015625)"/>
      <path id="DejaVuSans-64" d="M 2906 2969 
L 2906 4863 
L 3481 4863 
L 3481 0 
L 2906 0 
L 2906 525 
Q 2725 213 2448 61 
Q 2172 -91 1784 -91 
Q 1150 -91 751 415 
Q 353 922 353 1747 
Q 353 2572 751 3078 
Q 1150 3584 1784 3584 
Q 2172 3584 2448 3432 
Q 2725 3281 2906 2969 
z
M 947 1747 
Q 947 1113 1208 752 
Q 1469 391 1925 391 
Q 2381 391 2643 752 
Q 2906 1113 2906 1747 
Q 2906 2381 2643 2742 
Q 2381 3103 1925 3103 
Q 1469 3103 1208 2742 
Q 947 2381 947 1747 
z
" transform="scale(0.015625)"/>
      <path id="DejaVuSans-20" transform="scale(0.015625)"/>
      <path id="DejaVuSans-54" d="M -19 4666 
L 3928 4666 
L 3928 4134 
L 2272 4134 
L 2272 0 
L 1638 0 
L 1638 4134 
L -19 4134 
L -19 4666 
z
" transform="scale(0.015625)"/>
     </defs>
     <use xlink:href="#DejaVuSans-67"/>
     <use xlink:href="#DejaVuSans-61" transform="translate(63.476562 0)"/>
     <use xlink:href="#DejaVuSans-6e" transform="translate(124.755859 0)"/>
     <use xlink:href="#DejaVuSans-5f" transform="translate(188.134766 0)"/>
     <use xlink:href="#DejaVuSans-49" transform="translate(238.134766 0)"/>
     <use xlink:href="#DejaVuSans-53" transform="translate(267.626953 0)"/>
     <use xlink:href="#DejaVuSans-5f" transform="translate(331.103516 0)"/>
     <use xlink:href="#DejaVuSans-46" transform="translate(381.103516 0)"/>
     <use xlink:href="#DejaVuSans-49" transform="translate(438.623047 0)"/>
     <use xlink:href="#DejaVuSans-44" transform="translate(468.115234 0)"/>
     <use xlink:href="#DejaVuSans-5f" transform="translate(545.117188 0)"/>
     <use xlink:href="#DejaVuSans-6d" transform="translate(595.117188 0)"/>
     <use xlink:href="#DejaVuSans-6e" transform="translate(692.529297 0)"/>
     <use xlink:href="#DejaVuSans-69" transform="translate(755.908203 0)"/>
     <use xlink:href="#DejaVuSans-73" transform="translate(783.691406 0)"/>
     <use xlink:href="#DejaVuSans-74" transform="translate(835.791016 0)"/>
     <use xlink:href="#DejaVuSans-5f" transform="translate(875 0)"/>
     <use xlink:href="#DejaVuSans-67" transform="translate(925 0)"/>
     <use xlink:href="#DejaVuSans-65" transform="translate(988.476562 0)"/>
     <use xlink:href="#DejaVuSans-6e" transform="translate(1050 0)"/>
     <use xlink:href="#DejaVuSans-65" transform="translate(1113.378906 0)"/>
     <use xlink:href="#DejaVuSans-72" transform="translate(1174.902344 0)"/>
     <use xlink:href="#DejaVuSans-61" transform="translate(1216.015625 0)"/>
     <use xlink:href="#DejaVuSans-74" transform="translate(1277.294922 0)"/>
     <use xlink:href="#DejaVuSans-6f" transform="translate(1316.503906 0)"/>
     <use xlink:href="#DejaVuSans-72" transform="translate(1377.685547 0)"/>
     <use xlink:href="#DejaVuSans-63" transform="translate(1416.548828 0)"/>
     <use xlink:href="#DejaVuSans-6e" transform="translate(1471.529297 0)"/>
     <use xlink:href="#DejaVuSans-6e" transform="translate(1534.908203 0)"/>
     <use xlink:href="#DejaVuSans-5f" transform="translate(1598.287109 0)"/>
     <use xlink:href="#DejaVuSans-64" transform="translate(1648.287109 0)"/>
     <use xlink:href="#DejaVuSans-69" transform="translate(1711.763672 0)"/>
     <use xlink:href="#DejaVuSans-73" transform="translate(1739.546875 0)"/>
     <use xlink:href="#DejaVuSans-63" transform="translate(1791.646484 0)"/>
     <use xlink:href="#DejaVuSans-72" transform="translate(1846.626953 0)"/>
     <use xlink:href="#DejaVuSans-69" transform="translate(1887.740234 0)"/>
     <use xlink:href="#DejaVuSans-6d" transform="translate(1915.523438 0)"/>
     <use xlink:href="#DejaVuSans-69" transform="translate(2012.935547 0)"/>
     <use xlink:href="#DejaVuSans-6e" transform="translate(2040.71875 0)"/>
     <use xlink:href="#DejaVuSans-61" transform="translate(2104.097656 0)"/>
     <use xlink:href="#DejaVuSans-74" transform="translate(2165.376953 0)"/>
     <use xlink:href="#DejaVuSans-6f" transform="translate(2204.585938 0)"/>
     <use xlink:href="#DejaVuSans-72" transform="translate(2265.767578 0)"/>
     <use xlink:href="#DejaVuSans-63" transform="translate(2304.630859 0)"/>
     <use xlink:href="#DejaVuSans-6e" transform="translate(2359.611328 0)"/>
     <use xlink:href="#DejaVuSans-6e" transform="translate(2422.990234 0)"/>
     <use xlink:href="#DejaVuSans-20" transform="translate(2486.369141 0)"/>
     <use xlink:href="#DejaVuSans-54" transform="translate(2518.15625 0)"/>
     <use xlink:href="#DejaVuSans-72" transform="translate(2564.490234 0)"/>
     <use xlink:href="#DejaVuSans-69" transform="translate(2605.603516 0)"/>
     <use xlink:href="#DejaVuSans-61" transform="translate(2633.386719 0)"/>
     <use xlink:href="#DejaVuSans-6c" transform="translate(2694.666016 0)"/>
     <use xlink:href="#DejaVuSans-20" transform="translate(2722.449219 0)"/>
     <use xlink:href="#DejaVuSans-35" transform="translate(2754.236328 0)"/>
    </g>
   </g>
   <g id="legend_1">
    <g id="patch_7">
     <path d="M 577.795516 224.19625 
L 699.968954 224.19625 
Q 701.968954 224.19625 701.968954 222.19625 
L 701.968954 193.28375 
Q 701.968954 191.28375 699.968954 191.28375 
L 577.795516 191.28375 
Q 575.795516 191.28375 575.795516 193.28375 
L 575.795516 222.19625 
Q 575.795516 224.19625 577.795516 224.19625 
z
" style="fill: #ffffff; opacity: 0.8; stroke: #cccccc; stroke-linejoin: miter"/>
    </g>
    <g id="line2d_31">
     <path d="M 579.795516 199.382188 
L 589.795516 199.382188 
L 599.795516 199.382188 
" style="fill: none; stroke: #ff0000; stroke-width: 1.5; stroke-linecap: square"/>
    </g>
    <g id="text_18">
     <!-- discriminator_loss -->
     <g transform="translate(607.795516 202.882188) scale(0.1 -0.1)">
      <use xlink:href="#DejaVuSans-64"/>
      <use xlink:href="#DejaVuSans-69" transform="translate(63.476562 0)"/>
      <use xlink:href="#DejaVuSans-73" transform="translate(91.259766 0)"/>
      <use xlink:href="#DejaVuSans-63" transform="translate(143.359375 0)"/>
      <use xlink:href="#DejaVuSans-72" transform="translate(198.339844 0)"/>
      <use xlink:href="#DejaVuSans-69" transform="translate(239.453125 0)"/>
      <use xlink:href="#DejaVuSans-6d" transform="translate(267.236328 0)"/>
      <use xlink:href="#DejaVuSans-69" transform="translate(364.648438 0)"/>
      <use xlink:href="#DejaVuSans-6e" transform="translate(392.431641 0)"/>
      <use xlink:href="#DejaVuSans-61" transform="translate(455.810547 0)"/>
      <use xlink:href="#DejaVuSans-74" transform="translate(517.089844 0)"/>
      <use xlink:href="#DejaVuSans-6f" transform="translate(556.298828 0)"/>
      <use xlink:href="#DejaVuSans-72" transform="translate(617.480469 0)"/>
      <use xlink:href="#DejaVuSans-5f" transform="translate(658.59375 0)"/>
      <use xlink:href="#DejaVuSans-6c" transform="translate(708.59375 0)"/>
      <use xlink:href="#DejaVuSans-6f" transform="translate(736.376953 0)"/>
      <use xlink:href="#DejaVuSans-73" transform="translate(797.558594 0)"/>
      <use xlink:href="#DejaVuSans-73" transform="translate(849.658203 0)"/>
     </g>
    </g>
    <g id="line2d_32">
     <path d="M 579.795516 214.338437 
L 589.795516 214.338437 
L 599.795516 214.338437 
" style="fill: none; stroke: #0000ff; stroke-width: 1.5; stroke-linecap: square"/>
    </g>
    <g id="text_19">
     <!-- generator_loss -->
     <g transform="translate(607.795516 217.838437) scale(0.1 -0.1)">
      <use xlink:href="#DejaVuSans-67"/>
      <use xlink:href="#DejaVuSans-65" transform="translate(63.476562 0)"/>
      <use xlink:href="#DejaVuSans-6e" transform="translate(125 0)"/>
      <use xlink:href="#DejaVuSans-65" transform="translate(188.378906 0)"/>
      <use xlink:href="#DejaVuSans-72" transform="translate(249.902344 0)"/>
      <use xlink:href="#DejaVuSans-61" transform="translate(291.015625 0)"/>
      <use xlink:href="#DejaVuSans-74" transform="translate(352.294922 0)"/>
      <use xlink:href="#DejaVuSans-6f" transform="translate(391.503906 0)"/>
      <use xlink:href="#DejaVuSans-72" transform="translate(452.685547 0)"/>
      <use xlink:href="#DejaVuSans-5f" transform="translate(493.798828 0)"/>
      <use xlink:href="#DejaVuSans-6c" transform="translate(543.798828 0)"/>
      <use xlink:href="#DejaVuSans-6f" transform="translate(571.582031 0)"/>
      <use xlink:href="#DejaVuSans-73" transform="translate(632.763672 0)"/>
      <use xlink:href="#DejaVuSans-73" transform="translate(684.863281 0)"/>
     </g>
    </g>
   </g>
  </g>
 </g>
 <defs>
  <clipPath id="pc4b3499124">
   <rect x="47.81" y="25.44" width="659.158954" height="364.6"/>
  </clipPath>
 </defs>
</svg>
