<?xml version="1.0" encoding="utf-8" standalone="no"?>
<!DOCTYPE svg PUBLIC "-//W3C//DTD SVG 1.1//EN"
  "http://www.w3.org/Graphics/SVG/1.1/DTD/svg11.dtd">
<svg xmlns:xlink="http://www.w3.org/1999/xlink" width="720pt" height="432pt" viewBox="0 0 720 432" xmlns="http://www.w3.org/2000/svg" version="1.1">
 <metadata>
  <rdf:RDF xmlns:dc="http://purl.org/dc/elements/1.1/" xmlns:cc="http://creativecommons.org/ns#" xmlns:rdf="http://www.w3.org/1999/02/22-rdf-syntax-ns#">
   <cc:Work>
    <dc:type rdf:resource="http://purl.org/dc/dcmitype/StillImage"/>
    <dc:date>2025-06-22T15:36:10.530395</dc:date>
    <dc:format>image/svg+xml</dc:format>
    <dc:creator>
     <cc:Agent>
      <dc:title>Matplotlib v3.10.1, https://matplotlib.org/</dc:title>
     </cc:Agent>
    </dc:creator>
   </cc:Work>
  </rdf:RDF>
 </metadata>
 <defs>
  <style type="text/css">*{stroke-linejoin: round; stroke-linecap: butt}</style>
 </defs>
 <g id="figure_1">
  <g id="patch_1">
   <path d="M 0 432 
L 720 432 
L 720 0 
L 0 0 
z
" style="fill: #ffffff"/>
  </g>
  <g id="axes_1">
   <g id="patch_2">
    <path d="M 47.81 390.04 
L 709.2 390.04 
L 709.2 25.44 
L 47.81 25.44 
z
" style="fill: #ffffff"/>
   </g>
   <g id="matplotlib.axis_1">
    <g id="xtick_1">
     <g id="line2d_1">
      <path d="M 77.873182 390.04 
L 77.873182 25.44 
" clip-path="url(#peb94b56692)" style="fill: none; stroke: #b0b0b0; stroke-width: 0.8; stroke-linecap: square"/>
     </g>
     <g id="line2d_2">
      <defs>
       <path id="m42d54f3052" d="M 0 0 
L 0 3.5 
" style="stroke: #000000; stroke-width: 0.8"/>
      </defs>
      <g>
       <use xlink:href="#m42d54f3052" x="77.873182" y="390.04" style="stroke: #000000; stroke-width: 0.8"/>
      </g>
     </g>
     <g id="text_1">
      <!-- 0 -->
      <g transform="translate(74.691932 404.638438) scale(0.1 -0.1)">
       <defs>
        <path id="DejaVuSans-30" d="M 2034 4250 
Q 1547 4250 1301 3770 
Q 1056 3291 1056 2328 
Q 1056 1369 1301 889 
Q 1547 409 2034 409 
Q 2525 409 2770 889 
Q 3016 1369 3016 2328 
Q 3016 3291 2770 3770 
Q 2525 4250 2034 4250 
z
M 2034 4750 
Q 2819 4750 3233 4129 
Q 3647 3509 3647 2328 
Q 3647 1150 3233 529 
Q 2819 -91 2034 -91 
Q 1250 -91 836 529 
Q 422 1150 422 2328 
Q 422 3509 836 4129 
Q 1250 4750 2034 4750 
z
" transform="scale(0.015625)"/>
       </defs>
       <use xlink:href="#DejaVuSans-30"/>
      </g>
     </g>
    </g>
    <g id="xtick_2">
     <g id="line2d_3">
      <path d="M 157.405409 390.04 
L 157.405409 25.44 
" clip-path="url(#peb94b56692)" style="fill: none; stroke: #b0b0b0; stroke-width: 0.8; stroke-linecap: square"/>
     </g>
     <g id="line2d_4">
      <g>
       <use xlink:href="#m42d54f3052" x="157.405409" y="390.04" style="stroke: #000000; stroke-width: 0.8"/>
      </g>
     </g>
     <g id="text_2">
      <!-- 50 -->
      <g transform="translate(151.042909 404.638438) scale(0.1 -0.1)">
       <defs>
        <path id="DejaVuSans-35" d="M 691 4666 
L 3169 4666 
L 3169 4134 
L 1269 4134 
L 1269 2991 
Q 1406 3038 1543 3061 
Q 1681 3084 1819 3084 
Q 2600 3084 3056 2656 
Q 3513 2228 3513 1497 
Q 3513 744 3044 326 
Q 2575 -91 1722 -91 
Q 1428 -91 1123 -41 
Q 819 9 494 109 
L 494 744 
Q 775 591 1075 516 
Q 1375 441 1709 441 
Q 2250 441 2565 725 
Q 2881 1009 2881 1497 
Q 2881 1984 2565 2268 
Q 2250 2553 1709 2553 
Q 1456 2553 1204 2497 
Q 953 2441 691 2322 
L 691 4666 
z
" transform="scale(0.015625)"/>
       </defs>
       <use xlink:href="#DejaVuSans-35"/>
       <use xlink:href="#DejaVuSans-30" transform="translate(63.623047 0)"/>
      </g>
     </g>
    </g>
    <g id="xtick_3">
     <g id="line2d_5">
      <path d="M 236.937636 390.04 
L 236.937636 25.44 
" clip-path="url(#peb94b56692)" style="fill: none; stroke: #b0b0b0; stroke-width: 0.8; stroke-linecap: square"/>
     </g>
     <g id="line2d_6">
      <g>
       <use xlink:href="#m42d54f3052" x="236.937636" y="390.04" style="stroke: #000000; stroke-width: 0.8"/>
      </g>
     </g>
     <g id="text_3">
      <!-- 100 -->
      <g transform="translate(227.393886 404.638438) scale(0.1 -0.1)">
       <defs>
        <path id="DejaVuSans-31" d="M 794 531 
L 1825 531 
L 1825 4091 
L 703 3866 
L 703 4441 
L 1819 4666 
L 2450 4666 
L 2450 531 
L 3481 531 
L 3481 0 
L 794 0 
L 794 531 
z
" transform="scale(0.015625)"/>
       </defs>
       <use xlink:href="#DejaVuSans-31"/>
       <use xlink:href="#DejaVuSans-30" transform="translate(63.623047 0)"/>
       <use xlink:href="#DejaVuSans-30" transform="translate(127.246094 0)"/>
      </g>
     </g>
    </g>
    <g id="xtick_4">
     <g id="line2d_7">
      <path d="M 316.469863 390.04 
L 316.469863 25.44 
" clip-path="url(#peb94b56692)" style="fill: none; stroke: #b0b0b0; stroke-width: 0.8; stroke-linecap: square"/>
     </g>
     <g id="line2d_8">
      <g>
       <use xlink:href="#m42d54f3052" x="316.469863" y="390.04" style="stroke: #000000; stroke-width: 0.8"/>
      </g>
     </g>
     <g id="text_4">
      <!-- 150 -->
      <g transform="translate(306.926113 404.638438) scale(0.1 -0.1)">
       <use xlink:href="#DejaVuSans-31"/>
       <use xlink:href="#DejaVuSans-35" transform="translate(63.623047 0)"/>
       <use xlink:href="#DejaVuSans-30" transform="translate(127.246094 0)"/>
      </g>
     </g>
    </g>
    <g id="xtick_5">
     <g id="line2d_9">
      <path d="M 396.00209 390.04 
L 396.00209 25.44 
" clip-path="url(#peb94b56692)" style="fill: none; stroke: #b0b0b0; stroke-width: 0.8; stroke-linecap: square"/>
     </g>
     <g id="line2d_10">
      <g>
       <use xlink:href="#m42d54f3052" x="396.00209" y="390.04" style="stroke: #000000; stroke-width: 0.8"/>
      </g>
     </g>
     <g id="text_5">
      <!-- 200 -->
      <g transform="translate(386.45834 404.638438) scale(0.1 -0.1)">
       <defs>
        <path id="DejaVuSans-32" d="M 1228 531 
L 3431 531 
L 3431 0 
L 469 0 
L 469 531 
Q 828 903 1448 1529 
Q 2069 2156 2228 2338 
Q 2531 2678 2651 2914 
Q 2772 3150 2772 3378 
Q 2772 3750 2511 3984 
Q 2250 4219 1831 4219 
Q 1534 4219 1204 4116 
Q 875 4013 500 3803 
L 500 4441 
Q 881 4594 1212 4672 
Q 1544 4750 1819 4750 
Q 2544 4750 2975 4387 
Q 3406 4025 3406 3419 
Q 3406 3131 3298 2873 
Q 3191 2616 2906 2266 
Q 2828 2175 2409 1742 
Q 1991 1309 1228 531 
z
" transform="scale(0.015625)"/>
       </defs>
       <use xlink:href="#DejaVuSans-32"/>
       <use xlink:href="#DejaVuSans-30" transform="translate(63.623047 0)"/>
       <use xlink:href="#DejaVuSans-30" transform="translate(127.246094 0)"/>
      </g>
     </g>
    </g>
    <g id="xtick_6">
     <g id="line2d_11">
      <path d="M 475.534317 390.04 
L 475.534317 25.44 
" clip-path="url(#peb94b56692)" style="fill: none; stroke: #b0b0b0; stroke-width: 0.8; stroke-linecap: square"/>
     </g>
     <g id="line2d_12">
      <g>
       <use xlink:href="#m42d54f3052" x="475.534317" y="390.04" style="stroke: #000000; stroke-width: 0.8"/>
      </g>
     </g>
     <g id="text_6">
      <!-- 250 -->
      <g transform="translate(465.990567 404.638438) scale(0.1 -0.1)">
       <use xlink:href="#DejaVuSans-32"/>
       <use xlink:href="#DejaVuSans-35" transform="translate(63.623047 0)"/>
       <use xlink:href="#DejaVuSans-30" transform="translate(127.246094 0)"/>
      </g>
     </g>
    </g>
    <g id="xtick_7">
     <g id="line2d_13">
      <path d="M 555.066544 390.04 
L 555.066544 25.44 
" clip-path="url(#peb94b56692)" style="fill: none; stroke: #b0b0b0; stroke-width: 0.8; stroke-linecap: square"/>
     </g>
     <g id="line2d_14">
      <g>
       <use xlink:href="#m42d54f3052" x="555.066544" y="390.04" style="stroke: #000000; stroke-width: 0.8"/>
      </g>
     </g>
     <g id="text_7">
      <!-- 300 -->
      <g transform="translate(545.522794 404.638438) scale(0.1 -0.1)">
       <defs>
        <path id="DejaVuSans-33" d="M 2597 2516 
Q 3050 2419 3304 2112 
Q 3559 1806 3559 1356 
Q 3559 666 3084 287 
Q 2609 -91 1734 -91 
Q 1441 -91 1130 -33 
Q 819 25 488 141 
L 488 750 
Q 750 597 1062 519 
Q 1375 441 1716 441 
Q 2309 441 2620 675 
Q 2931 909 2931 1356 
Q 2931 1769 2642 2001 
Q 2353 2234 1838 2234 
L 1294 2234 
L 1294 2753 
L 1863 2753 
Q 2328 2753 2575 2939 
Q 2822 3125 2822 3475 
Q 2822 3834 2567 4026 
Q 2313 4219 1838 4219 
Q 1578 4219 1281 4162 
Q 984 4106 628 3988 
L 628 4550 
Q 988 4650 1302 4700 
Q 1616 4750 1894 4750 
Q 2613 4750 3031 4423 
Q 3450 4097 3450 3541 
Q 3450 3153 3228 2886 
Q 3006 2619 2597 2516 
z
" transform="scale(0.015625)"/>
       </defs>
       <use xlink:href="#DejaVuSans-33"/>
       <use xlink:href="#DejaVuSans-30" transform="translate(63.623047 0)"/>
       <use xlink:href="#DejaVuSans-30" transform="translate(127.246094 0)"/>
      </g>
     </g>
    </g>
    <g id="xtick_8">
     <g id="line2d_15">
      <path d="M 634.598771 390.04 
L 634.598771 25.44 
" clip-path="url(#peb94b56692)" style="fill: none; stroke: #b0b0b0; stroke-width: 0.8; stroke-linecap: square"/>
     </g>
     <g id="line2d_16">
      <g>
       <use xlink:href="#m42d54f3052" x="634.598771" y="390.04" style="stroke: #000000; stroke-width: 0.8"/>
      </g>
     </g>
     <g id="text_8">
      <!-- 350 -->
      <g transform="translate(625.055021 404.638438) scale(0.1 -0.1)">
       <use xlink:href="#DejaVuSans-33"/>
       <use xlink:href="#DejaVuSans-35" transform="translate(63.623047 0)"/>
       <use xlink:href="#DejaVuSans-30" transform="translate(127.246094 0)"/>
      </g>
     </g>
    </g>
    <g id="text_9">
     <!-- Epoch -->
     <g transform="translate(363.194063 418.316562) scale(0.1 -0.1)">
      <defs>
       <path id="DejaVuSans-45" d="M 628 4666 
L 3578 4666 
L 3578 4134 
L 1259 4134 
L 1259 2753 
L 3481 2753 
L 3481 2222 
L 1259 2222 
L 1259 531 
L 3634 531 
L 3634 0 
L 628 0 
L 628 4666 
z
" transform="scale(0.015625)"/>
       <path id="DejaVuSans-70" d="M 1159 525 
L 1159 -1331 
L 581 -1331 
L 581 3500 
L 1159 3500 
L 1159 2969 
Q 1341 3281 1617 3432 
Q 1894 3584 2278 3584 
Q 2916 3584 3314 3078 
Q 3713 2572 3713 1747 
Q 3713 922 3314 415 
Q 2916 -91 2278 -91 
Q 1894 -91 1617 61 
Q 1341 213 1159 525 
z
M 3116 1747 
Q 3116 2381 2855 2742 
Q 2594 3103 2138 3103 
Q 1681 3103 1420 2742 
Q 1159 2381 1159 1747 
Q 1159 1113 1420 752 
Q 1681 391 2138 391 
Q 2594 391 2855 752 
Q 3116 1113 3116 1747 
z
" transform="scale(0.015625)"/>
       <path id="DejaVuSans-6f" d="M 1959 3097 
Q 1497 3097 1228 2736 
Q 959 2375 959 1747 
Q 959 1119 1226 758 
Q 1494 397 1959 397 
Q 2419 397 2687 759 
Q 2956 1122 2956 1747 
Q 2956 2369 2687 2733 
Q 2419 3097 1959 3097 
z
M 1959 3584 
Q 2709 3584 3137 3096 
Q 3566 2609 3566 1747 
Q 3566 888 3137 398 
Q 2709 -91 1959 -91 
Q 1206 -91 779 398 
Q 353 888 353 1747 
Q 353 2609 779 3096 
Q 1206 3584 1959 3584 
z
" transform="scale(0.015625)"/>
       <path id="DejaVuSans-63" d="M 3122 3366 
L 3122 2828 
Q 2878 2963 2633 3030 
Q 2388 3097 2138 3097 
Q 1578 3097 1268 2742 
Q 959 2388 959 1747 
Q 959 1106 1268 751 
Q 1578 397 2138 397 
Q 2388 397 2633 464 
Q 2878 531 3122 666 
L 3122 134 
Q 2881 22 2623 -34 
Q 2366 -91 2075 -91 
Q 1284 -91 818 406 
Q 353 903 353 1747 
Q 353 2603 823 3093 
Q 1294 3584 2113 3584 
Q 2378 3584 2631 3529 
Q 2884 3475 3122 3366 
z
" transform="scale(0.015625)"/>
       <path id="DejaVuSans-68" d="M 3513 2113 
L 3513 0 
L 2938 0 
L 2938 2094 
Q 2938 2591 2744 2837 
Q 2550 3084 2163 3084 
Q 1697 3084 1428 2787 
Q 1159 2491 1159 1978 
L 1159 0 
L 581 0 
L 581 4863 
L 1159 4863 
L 1159 2956 
Q 1366 3272 1645 3428 
Q 1925 3584 2291 3584 
Q 2894 3584 3203 3211 
Q 3513 2838 3513 2113 
z
" transform="scale(0.015625)"/>
      </defs>
      <use xlink:href="#DejaVuSans-45"/>
      <use xlink:href="#DejaVuSans-70" transform="translate(63.183594 0)"/>
      <use xlink:href="#DejaVuSans-6f" transform="translate(126.660156 0)"/>
      <use xlink:href="#DejaVuSans-63" transform="translate(187.841797 0)"/>
      <use xlink:href="#DejaVuSans-68" transform="translate(242.822266 0)"/>
     </g>
    </g>
   </g>
   <g id="matplotlib.axis_2">
    <g id="ytick_1">
     <g id="line2d_17">
      <path d="M 47.81 374.600329 
L 709.2 374.600329 
" clip-path="url(#peb94b56692)" style="fill: none; stroke: #b0b0b0; stroke-width: 0.8; stroke-linecap: square"/>
     </g>
     <g id="line2d_18">
      <defs>
       <path id="md904ca6303" d="M 0 0 
L -3.5 0 
" style="stroke: #000000; stroke-width: 0.8"/>
      </defs>
      <g>
       <use xlink:href="#md904ca6303" x="47.81" y="374.600329" style="stroke: #000000; stroke-width: 0.8"/>
      </g>
     </g>
     <g id="text_10">
      <!-- 0.0 -->
      <g transform="translate(24.906875 378.399548) scale(0.1 -0.1)">
       <defs>
        <path id="DejaVuSans-2e" d="M 684 794 
L 1344 794 
L 1344 0 
L 684 0 
L 684 794 
z
" transform="scale(0.015625)"/>
       </defs>
       <use xlink:href="#DejaVuSans-30"/>
       <use xlink:href="#DejaVuSans-2e" transform="translate(63.623047 0)"/>
       <use xlink:href="#DejaVuSans-30" transform="translate(95.410156 0)"/>
      </g>
     </g>
    </g>
    <g id="ytick_2">
     <g id="line2d_19">
      <path d="M 47.81 307.757083 
L 709.2 307.757083 
" clip-path="url(#peb94b56692)" style="fill: none; stroke: #b0b0b0; stroke-width: 0.8; stroke-linecap: square"/>
     </g>
     <g id="line2d_20">
      <g>
       <use xlink:href="#md904ca6303" x="47.81" y="307.757083" style="stroke: #000000; stroke-width: 0.8"/>
      </g>
     </g>
     <g id="text_11">
      <!-- 0.2 -->
      <g transform="translate(24.906875 311.556302) scale(0.1 -0.1)">
       <use xlink:href="#DejaVuSans-30"/>
       <use xlink:href="#DejaVuSans-2e" transform="translate(63.623047 0)"/>
       <use xlink:href="#DejaVuSans-32" transform="translate(95.410156 0)"/>
      </g>
     </g>
    </g>
    <g id="ytick_3">
     <g id="line2d_21">
      <path d="M 47.81 240.913837 
L 709.2 240.913837 
" clip-path="url(#peb94b56692)" style="fill: none; stroke: #b0b0b0; stroke-width: 0.8; stroke-linecap: square"/>
     </g>
     <g id="line2d_22">
      <g>
       <use xlink:href="#md904ca6303" x="47.81" y="240.913837" style="stroke: #000000; stroke-width: 0.8"/>
      </g>
     </g>
     <g id="text_12">
      <!-- 0.4 -->
      <g transform="translate(24.906875 244.713056) scale(0.1 -0.1)">
       <defs>
        <path id="DejaVuSans-34" d="M 2419 4116 
L 825 1625 
L 2419 1625 
L 2419 4116 
z
M 2253 4666 
L 3047 4666 
L 3047 1625 
L 3713 1625 
L 3713 1100 
L 3047 1100 
L 3047 0 
L 2419 0 
L 2419 1100 
L 313 1100 
L 313 1709 
L 2253 4666 
z
" transform="scale(0.015625)"/>
       </defs>
       <use xlink:href="#DejaVuSans-30"/>
       <use xlink:href="#DejaVuSans-2e" transform="translate(63.623047 0)"/>
       <use xlink:href="#DejaVuSans-34" transform="translate(95.410156 0)"/>
      </g>
     </g>
    </g>
    <g id="ytick_4">
     <g id="line2d_23">
      <path d="M 47.81 174.070591 
L 709.2 174.070591 
" clip-path="url(#peb94b56692)" style="fill: none; stroke: #b0b0b0; stroke-width: 0.8; stroke-linecap: square"/>
     </g>
     <g id="line2d_24">
      <g>
       <use xlink:href="#md904ca6303" x="47.81" y="174.070591" style="stroke: #000000; stroke-width: 0.8"/>
      </g>
     </g>
     <g id="text_13">
      <!-- 0.6 -->
      <g transform="translate(24.906875 177.86981) scale(0.1 -0.1)">
       <defs>
        <path id="DejaVuSans-36" d="M 2113 2584 
Q 1688 2584 1439 2293 
Q 1191 2003 1191 1497 
Q 1191 994 1439 701 
Q 1688 409 2113 409 
Q 2538 409 2786 701 
Q 3034 994 3034 1497 
Q 3034 2003 2786 2293 
Q 2538 2584 2113 2584 
z
M 3366 4563 
L 3366 3988 
Q 3128 4100 2886 4159 
Q 2644 4219 2406 4219 
Q 1781 4219 1451 3797 
Q 1122 3375 1075 2522 
Q 1259 2794 1537 2939 
Q 1816 3084 2150 3084 
Q 2853 3084 3261 2657 
Q 3669 2231 3669 1497 
Q 3669 778 3244 343 
Q 2819 -91 2113 -91 
Q 1303 -91 875 529 
Q 447 1150 447 2328 
Q 447 3434 972 4092 
Q 1497 4750 2381 4750 
Q 2619 4750 2861 4703 
Q 3103 4656 3366 4563 
z
" transform="scale(0.015625)"/>
       </defs>
       <use xlink:href="#DejaVuSans-30"/>
       <use xlink:href="#DejaVuSans-2e" transform="translate(63.623047 0)"/>
       <use xlink:href="#DejaVuSans-36" transform="translate(95.410156 0)"/>
      </g>
     </g>
    </g>
    <g id="ytick_5">
     <g id="line2d_25">
      <path d="M 47.81 107.227345 
L 709.2 107.227345 
" clip-path="url(#peb94b56692)" style="fill: none; stroke: #b0b0b0; stroke-width: 0.8; stroke-linecap: square"/>
     </g>
     <g id="line2d_26">
      <g>
       <use xlink:href="#md904ca6303" x="47.81" y="107.227345" style="stroke: #000000; stroke-width: 0.8"/>
      </g>
     </g>
     <g id="text_14">
      <!-- 0.8 -->
      <g transform="translate(24.906875 111.026564) scale(0.1 -0.1)">
       <defs>
        <path id="DejaVuSans-38" d="M 2034 2216 
Q 1584 2216 1326 1975 
Q 1069 1734 1069 1313 
Q 1069 891 1326 650 
Q 1584 409 2034 409 
Q 2484 409 2743 651 
Q 3003 894 3003 1313 
Q 3003 1734 2745 1975 
Q 2488 2216 2034 2216 
z
M 1403 2484 
Q 997 2584 770 2862 
Q 544 3141 544 3541 
Q 544 4100 942 4425 
Q 1341 4750 2034 4750 
Q 2731 4750 3128 4425 
Q 3525 4100 3525 3541 
Q 3525 3141 3298 2862 
Q 3072 2584 2669 2484 
Q 3125 2378 3379 2068 
Q 3634 1759 3634 1313 
Q 3634 634 3220 271 
Q 2806 -91 2034 -91 
Q 1263 -91 848 271 
Q 434 634 434 1313 
Q 434 1759 690 2068 
Q 947 2378 1403 2484 
z
M 1172 3481 
Q 1172 3119 1398 2916 
Q 1625 2713 2034 2713 
Q 2441 2713 2670 2916 
Q 2900 3119 2900 3481 
Q 2900 3844 2670 4047 
Q 2441 4250 2034 4250 
Q 1625 4250 1398 4047 
Q 1172 3844 1172 3481 
z
" transform="scale(0.015625)"/>
       </defs>
       <use xlink:href="#DejaVuSans-30"/>
       <use xlink:href="#DejaVuSans-2e" transform="translate(63.623047 0)"/>
       <use xlink:href="#DejaVuSans-38" transform="translate(95.410156 0)"/>
      </g>
     </g>
    </g>
    <g id="ytick_6">
     <g id="line2d_27">
      <path d="M 47.81 40.384099 
L 709.2 40.384099 
" clip-path="url(#peb94b56692)" style="fill: none; stroke: #b0b0b0; stroke-width: 0.8; stroke-linecap: square"/>
     </g>
     <g id="line2d_28">
      <g>
       <use xlink:href="#md904ca6303" x="47.81" y="40.384099" style="stroke: #000000; stroke-width: 0.8"/>
      </g>
     </g>
     <g id="text_15">
      <!-- 1.0 -->
      <g transform="translate(24.906875 44.183318) scale(0.1 -0.1)">
       <use xlink:href="#DejaVuSans-31"/>
       <use xlink:href="#DejaVuSans-2e" transform="translate(63.623047 0)"/>
       <use xlink:href="#DejaVuSans-30" transform="translate(95.410156 0)"/>
      </g>
     </g>
    </g>
    <g id="text_16">
     <!-- Value -->
     <g transform="translate(18.827188 221.47125) rotate(-90) scale(0.1 -0.1)">
      <defs>
       <path id="DejaVuSans-56" d="M 1831 0 
L 50 4666 
L 709 4666 
L 2188 738 
L 3669 4666 
L 4325 4666 
L 2547 0 
L 1831 0 
z
" transform="scale(0.015625)"/>
       <path id="DejaVuSans-61" d="M 2194 1759 
Q 1497 1759 1228 1600 
Q 959 1441 959 1056 
Q 959 750 1161 570 
Q 1363 391 1709 391 
Q 2188 391 2477 730 
Q 2766 1069 2766 1631 
L 2766 1759 
L 2194 1759 
z
M 3341 1997 
L 3341 0 
L 2766 0 
L 2766 531 
Q 2569 213 2275 61 
Q 1981 -91 1556 -91 
Q 1019 -91 701 211 
Q 384 513 384 1019 
Q 384 1609 779 1909 
Q 1175 2209 1959 2209 
L 2766 2209 
L 2766 2266 
Q 2766 2663 2505 2880 
Q 2244 3097 1772 3097 
Q 1472 3097 1187 3025 
Q 903 2953 641 2809 
L 641 3341 
Q 956 3463 1253 3523 
Q 1550 3584 1831 3584 
Q 2591 3584 2966 3190 
Q 3341 2797 3341 1997 
z
" transform="scale(0.015625)"/>
       <path id="DejaVuSans-6c" d="M 603 4863 
L 1178 4863 
L 1178 0 
L 603 0 
L 603 4863 
z
" transform="scale(0.015625)"/>
       <path id="DejaVuSans-75" d="M 544 1381 
L 544 3500 
L 1119 3500 
L 1119 1403 
Q 1119 906 1312 657 
Q 1506 409 1894 409 
Q 2359 409 2629 706 
Q 2900 1003 2900 1516 
L 2900 3500 
L 3475 3500 
L 3475 0 
L 2900 0 
L 2900 538 
Q 2691 219 2414 64 
Q 2138 -91 1772 -91 
Q 1169 -91 856 284 
Q 544 659 544 1381 
z
M 1991 3584 
L 1991 3584 
z
" transform="scale(0.015625)"/>
       <path id="DejaVuSans-65" d="M 3597 1894 
L 3597 1613 
L 953 1613 
Q 991 1019 1311 708 
Q 1631 397 2203 397 
Q 2534 397 2845 478 
Q 3156 559 3463 722 
L 3463 178 
Q 3153 47 2828 -22 
Q 2503 -91 2169 -91 
Q 1331 -91 842 396 
Q 353 884 353 1716 
Q 353 2575 817 3079 
Q 1281 3584 2069 3584 
Q 2775 3584 3186 3129 
Q 3597 2675 3597 1894 
z
M 3022 2063 
Q 3016 2534 2758 2815 
Q 2500 3097 2075 3097 
Q 1594 3097 1305 2825 
Q 1016 2553 972 2059 
L 3022 2063 
z
" transform="scale(0.015625)"/>
      </defs>
      <use xlink:href="#DejaVuSans-56"/>
      <use xlink:href="#DejaVuSans-61" transform="translate(60.658203 0)"/>
      <use xlink:href="#DejaVuSans-6c" transform="translate(121.9375 0)"/>
      <use xlink:href="#DejaVuSans-75" transform="translate(149.720703 0)"/>
      <use xlink:href="#DejaVuSans-65" transform="translate(213.099609 0)"/>
     </g>
    </g>
   </g>
   <g id="line2d_29">
    <path d="M 77.873182 369.918664 
L 79.463826 364.458418 
L 81.054471 369.263253 
L 82.645115 363.394035 
L 84.23576 371.302754 
L 85.826405 369.02395 
L 87.417049 371.821288 
L 89.007694 372.10921 
L 90.598338 371.483588 
L 92.188983 372.958705 
L 93.779627 372.084871 
L 95.370272 372.443082 
L 96.960916 370.926596 
L 98.551561 372.930106 
L 100.142205 372.414934 
L 103.323494 372.143054 
L 104.914139 372.638927 
L 106.504784 373.467273 
L 108.095428 371.86235 
L 109.686073 372.586129 
L 111.276717 371.905753 
L 112.867362 370.832876 
L 114.458006 372.774308 
L 116.048651 371.516697 
L 117.639295 372.315308 
L 119.22994 371.731866 
L 120.820584 371.390966 
L 122.411229 371.742785 
L 124.001873 371.755682 
L 127.183163 370.8415 
L 128.773807 371.904174 
L 130.364452 370.316418 
L 131.955096 371.587497 
L 133.545741 370.868315 
L 135.136385 370.403113 
L 136.72703 369.376327 
L 139.908319 367.801898 
L 143.089608 366.889932 
L 144.680253 369.922538 
L 146.270897 368.92079 
L 149.452186 369.872689 
L 151.042831 366.334896 
L 152.633475 368.920454 
L 154.22412 367.889634 
L 155.814764 368.694332 
L 157.405409 367.407038 
L 160.586698 368.641419 
L 162.177342 371.53552 
L 163.767987 366.567309 
L 165.358632 368.739196 
L 166.949276 369.327836 
L 168.539921 367.693733 
L 170.130565 366.87051 
L 171.72121 365.282711 
L 173.311854 367.005872 
L 174.902499 367.449886 
L 176.493143 366.360116 
L 178.083788 366.223521 
L 179.674432 362.725397 
L 181.265077 366.338939 
L 184.446366 367.143789 
L 186.037011 365.50957 
L 187.627655 366.850033 
L 189.2183 365.783714 
L 190.808944 361.975552 
L 192.399589 366.988124 
L 193.990233 363.843307 
L 195.580878 361.956857 
L 197.171522 364.772873 
L 198.762167 364.610649 
L 200.352811 365.609372 
L 201.943456 365.392508 
L 203.534101 366.022153 
L 205.124745 364.575129 
L 206.71539 365.850362 
L 208.306034 366.62043 
L 209.896679 364.974019 
L 211.487323 366.352848 
L 213.077968 365.441883 
L 214.668612 365.787026 
L 216.259257 365.08008 
L 217.849901 365.375286 
L 219.440546 366.041258 
L 221.03119 366.24324 
L 222.621835 365.201635 
L 224.21248 365.27095 
L 225.803124 365.152292 
L 227.393769 366.690661 
L 228.984413 366.220012 
L 230.575058 367.24541 
L 232.165702 365.940083 
L 233.756347 366.800985 
L 235.346991 366.077907 
L 238.52828 365.754841 
L 240.118925 366.996414 
L 241.70957 365.27688 
L 243.300214 365.850646 
L 244.890859 366.737369 
L 246.481503 367.006013 
L 248.072148 365.636246 
L 249.662792 366.707501 
L 251.253437 366.791415 
L 252.844081 366.174 
L 254.434726 366.817042 
L 256.02537 368.003857 
L 257.616015 367.214519 
L 259.206659 365.953081 
L 260.797304 367.722456 
L 262.387949 367.158682 
L 263.978593 366.820851 
L 265.569238 366.270926 
L 267.159882 366.082334 
L 268.750527 368.011341 
L 270.341171 366.862303 
L 271.931816 367.465932 
L 273.52246 366.41329 
L 275.113105 367.518762 
L 276.703749 368.308379 
L 278.294394 365.341156 
L 279.885038 366.98045 
L 281.475683 368.859518 
L 283.066328 365.894339 
L 284.656972 367.298815 
L 287.838261 366.418059 
L 289.428906 367.58043 
L 291.01955 367.127719 
L 292.610195 367.085727 
L 294.200839 367.248895 
L 295.791484 367.656028 
L 297.382128 363.993419 
L 298.972773 368.0289 
L 300.563418 367.500397 
L 302.154062 367.48907 
L 303.744707 367.876365 
L 306.925996 367.708354 
L 308.51664 368.028225 
L 310.107285 367.194645 
L 311.697929 367.914347 
L 313.288574 368.247499 
L 314.879218 368.985069 
L 316.469863 367.244573 
L 318.060507 368.465835 
L 319.651152 367.426975 
L 321.241797 368.829216 
L 322.832441 368.024327 
L 326.01373 367.962057 
L 327.604375 366.524678 
L 329.195019 368.866182 
L 330.785664 369.150487 
L 332.376308 367.751156 
L 333.966953 367.972674 
L 335.557597 367.578927 
L 337.148242 368.094404 
L 338.738886 367.362262 
L 340.329531 369.29882 
L 341.920176 368.866555 
L 343.51082 368.061258 
L 345.101465 368.125731 
L 346.692109 369.107772 
L 348.282754 368.029678 
L 349.873398 369.187511 
L 351.464043 368.206696 
L 353.054687 369.386183 
L 354.645332 367.901825 
L 356.235976 369.119923 
L 357.826621 368.962057 
L 359.417266 368.42928 
L 361.00791 369.182696 
L 362.598555 368.740186 
L 364.189199 369.412569 
L 365.779844 368.644787 
L 367.370488 368.249018 
L 368.961133 368.136959 
L 370.551777 369.733818 
L 372.142422 368.888492 
L 373.733066 369.362952 
L 376.914355 368.986261 
L 378.505 369.046115 
L 380.095645 368.07534 
L 381.686289 368.6177 
L 383.276934 368.961468 
L 384.867578 368.864162 
L 389.639512 369.593252 
L 391.230156 369.395503 
L 392.820801 368.168812 
L 394.411445 369.040716 
L 396.00209 369.054246 
L 397.592734 369.688089 
L 399.183379 369.627668 
L 400.774024 368.863914 
L 402.364668 368.420883 
L 403.955313 369.795491 
L 405.545957 368.89056 
L 407.136602 369.041847 
L 408.727246 369.0495 
L 410.317891 369.846938 
L 411.908535 369.339978 
L 413.49918 368.555578 
L 415.089824 369.18041 
L 416.680469 369.42396 
L 418.271114 369.046684 
L 419.861758 369.451275 
L 423.043047 369.398959 
L 424.633692 369.207289 
L 426.224336 369.314446 
L 427.814981 369.611518 
L 429.405625 369.416075 
L 430.99627 369.849801 
L 432.586914 369.384612 
L 434.177559 369.05311 
L 435.768203 369.703167 
L 437.358848 370.150453 
L 438.949493 369.573366 
L 440.540137 369.265173 
L 442.130782 369.1194 
L 443.721426 369.888178 
L 445.312071 369.270561 
L 446.902715 369.988817 
L 448.49336 369.371637 
L 450.084004 369.387592 
L 453.265293 369.981252 
L 454.855938 369.170657 
L 456.446582 369.948357 
L 458.037227 369.78561 
L 459.627872 369.882923 
L 461.218516 369.674732 
L 462.809161 369.935981 
L 464.399805 368.962218 
L 467.581094 369.532695 
L 469.171739 369.411298 
L 470.762383 369.837508 
L 473.943672 369.648135 
L 475.534317 369.746307 
L 477.124962 370.037521 
L 478.715606 369.712697 
L 480.306251 369.90644 
L 481.896895 369.395389 
L 483.48754 370.010185 
L 485.078184 368.73804 
L 486.668829 369.610602 
L 488.259473 369.642016 
L 489.850118 370.232472 
L 491.440762 370.466549 
L 493.031407 369.473867 
L 494.622051 370.080206 
L 496.212696 370.170903 
L 497.803341 369.416661 
L 499.393985 369.464311 
L 500.98463 370.065951 
L 502.575274 369.969267 
L 504.165919 370.445031 
L 505.756563 370.014599 
L 508.937852 369.679156 
L 513.709786 370.374895 
L 515.30043 369.850466 
L 516.891075 370.588708 
L 518.48172 370.621789 
L 520.072364 369.573936 
L 521.663009 370.569468 
L 523.253653 370.216751 
L 524.844298 370.040692 
L 526.434942 370.125707 
L 528.025587 370.343379 
L 529.616231 369.877336 
L 531.206876 369.933781 
L 532.79752 370.500029 
L 534.388165 369.677993 
L 535.97881 370.469697 
L 537.569454 370.248415 
L 539.160099 370.24071 
L 540.750743 370.464747 
L 542.341388 370.373489 
L 543.932032 369.648688 
L 545.522677 369.883226 
L 547.113321 370.450047 
L 548.703966 370.07813 
L 551.885255 370.169922 
L 553.475899 370.252905 
L 555.066544 369.933036 
L 556.657189 369.763223 
L 558.247833 370.080849 
L 561.429122 369.984944 
L 563.019767 370.69897 
L 564.610411 369.91666 
L 566.201056 370.398176 
L 570.972989 370.704306 
L 572.563634 370.573657 
L 574.154278 370.263567 
L 575.744923 370.247756 
L 577.335568 370.552085 
L 580.516857 370.355233 
L 582.107501 370.47714 
L 583.698146 369.805532 
L 585.28879 369.983632 
L 588.470079 370.746029 
L 590.060724 370.469903 
L 591.651368 370.321282 
L 593.242013 370.935623 
L 594.832658 370.199871 
L 596.423302 370.861741 
L 598.013947 370.355905 
L 599.604591 370.2816 
L 601.195236 369.654028 
L 602.78588 370.740898 
L 604.376525 370.878748 
L 605.967169 369.066173 
L 607.557814 371.131134 
L 609.148458 370.450398 
L 610.739103 369.978668 
L 612.329747 370.379325 
L 613.920392 370.109957 
L 615.511037 370.646671 
L 617.101681 369.913887 
L 620.28297 369.723536 
L 621.873615 370.178602 
L 623.464259 370.46914 
L 625.054904 370.540955 
L 626.645548 370.397053 
L 628.236193 370.602189 
L 629.826837 370.674864 
L 633.008127 370.056226 
L 634.598771 370.139653 
L 636.189416 370.042638 
L 637.78006 370.930026 
L 639.370705 370.428149 
L 642.551994 370.435382 
L 644.142638 370.136387 
L 650.505216 370.752183 
L 652.095861 370.443627 
L 656.867795 370.679443 
L 658.458439 370.305712 
L 660.049084 370.772528 
L 661.639728 370.715445 
L 663.230373 369.840014 
L 664.821017 370.274853 
L 666.411662 370.415706 
L 668.002306 369.977643 
L 669.592951 370.800477 
L 671.183595 370.725424 
L 672.77424 370.428037 
L 675.955529 370.807755 
L 677.546174 370.402887 
L 679.136818 370.39112 
L 679.136818 370.39112 
" clip-path="url(#peb94b56692)" style="fill: none; stroke: #ff0000; stroke-width: 1.5; stroke-linecap: square"/>
   </g>
   <g id="line2d_30">
    <path d="M 77.873182 51.88183 
L 79.463826 52.208631 
L 81.054471 44.477513 
L 82.645115 45.696011 
L 84.23576 43.413541 
L 85.826405 45.614515 
L 87.417049 44.603891 
L 89.007694 43.839767 
L 90.598338 45.473156 
L 92.188983 42.77197 
L 93.779627 43.37607 
L 95.370272 44.311333 
L 96.960916 44.589966 
L 98.551561 42.969904 
L 100.142205 43.425035 
L 101.73285 44.834534 
L 103.323494 44.521359 
L 104.914139 43.954153 
L 106.504784 42.554196 
L 108.095428 44.379741 
L 109.686073 44.69457 
L 111.276717 47.044552 
L 112.867362 50.199854 
L 114.458006 42.012727 
L 116.048651 49.475771 
L 117.639295 44.212267 
L 119.22994 49.736057 
L 120.820584 46.813948 
L 122.411229 51.440663 
L 124.001873 50.397548 
L 125.592518 51.209302 
L 127.183163 53.645023 
L 128.773807 44.74991 
L 130.364452 51.948107 
L 131.955096 50.785686 
L 133.545741 50.652634 
L 135.136385 47.793297 
L 136.72703 60.441934 
L 138.317674 52.145462 
L 139.908319 46.330111 
L 141.498963 66.364201 
L 143.089608 56.913037 
L 144.680253 51.103981 
L 146.270897 52.54105 
L 147.861542 52.846138 
L 149.452186 52.693525 
L 151.042831 66.082062 
L 152.633475 58.261519 
L 154.22412 58.808386 
L 155.814764 55.634677 
L 157.405409 54.285618 
L 158.996053 60.959099 
L 160.586698 50.342387 
L 162.177342 49.191242 
L 163.767987 61.371759 
L 165.358632 64.331359 
L 166.949276 53.771142 
L 168.539921 66.781263 
L 170.130565 55.154445 
L 171.72121 66.34422 
L 173.311854 60.743396 
L 174.902499 64.103683 
L 176.493143 65.321325 
L 178.083788 55.424791 
L 179.674432 59.954093 
L 181.265077 67.17458 
L 182.855722 65.189827 
L 184.446366 66.73421 
L 186.037011 68.651133 
L 187.627655 64.9954 
L 189.2183 69.833395 
L 190.808944 71.605334 
L 192.399589 68.930662 
L 193.990233 68.967456 
L 195.580878 67.795413 
L 197.171522 68.96403 
L 198.762167 66.60341 
L 200.352811 67.265081 
L 201.943456 69.053474 
L 203.534101 68.966121 
L 205.124745 67.468971 
L 206.71539 67.71336 
L 208.306034 63.96605 
L 209.896679 67.725611 
L 211.487323 67.019915 
L 213.077968 64.339287 
L 214.668612 68.251979 
L 216.259257 64.985738 
L 217.849901 63.643134 
L 219.440546 67.623995 
L 221.03119 62.963056 
L 224.21248 66.649427 
L 225.803124 63.907603 
L 227.393769 63.123359 
L 228.984413 66.959774 
L 230.575058 64.02151 
L 232.165702 63.951648 
L 233.756347 65.301265 
L 235.346991 63.133718 
L 236.937636 66.794152 
L 240.118925 64.082089 
L 241.70957 68.089306 
L 243.300214 61.577103 
L 244.890859 62.941541 
L 246.481503 61.139961 
L 248.072148 64.013581 
L 249.662792 63.843716 
L 251.253437 61.594076 
L 252.844081 64.986734 
L 254.434726 64.315143 
L 256.02537 61.769838 
L 257.616015 63.538728 
L 259.206659 61.476862 
L 260.797304 60.335856 
L 262.387949 59.448283 
L 263.978593 64.297135 
L 265.569238 63.727239 
L 267.159882 63.70706 
L 268.750527 61.002308 
L 270.341171 61.181316 
L 271.931816 60.013895 
L 273.52246 63.536457 
L 275.113105 62.219809 
L 276.703749 60.37006 
L 278.294394 61.635312 
L 279.885038 61.483655 
L 281.475683 58.761532 
L 283.066328 63.019233 
L 284.656972 62.759804 
L 286.247617 63.606937 
L 287.838261 61.816612 
L 289.428906 60.635186 
L 291.01955 62.615975 
L 292.610195 59.95226 
L 294.200839 61.015933 
L 295.791484 58.832151 
L 297.382128 59.329754 
L 298.972773 61.998987 
L 300.563418 58.664577 
L 302.154062 58.555431 
L 303.744707 60.933601 
L 305.335351 60.954498 
L 306.925996 59.416629 
L 308.51664 59.559003 
L 310.107285 58.063267 
L 311.697929 54.852744 
L 313.288574 58.141197 
L 314.879218 54.660966 
L 316.469863 59.7559 
L 318.060507 57.747222 
L 319.651152 60.503968 
L 321.241797 57.842703 
L 322.832441 56.320591 
L 324.423086 60.230773 
L 326.01373 58.818227 
L 327.604375 58.612265 
L 329.195019 59.422864 
L 330.785664 56.063374 
L 332.376308 56.545299 
L 333.966953 57.484506 
L 335.557597 59.326507 
L 337.148242 57.047563 
L 338.738886 56.219314 
L 340.329531 54.507556 
L 341.920176 55.427421 
L 345.101465 58.607524 
L 346.692109 56.640799 
L 348.282754 58.445786 
L 349.873398 55.43268 
L 351.464043 54.186273 
L 353.054687 53.335493 
L 354.645332 55.704739 
L 356.235976 57.613733 
L 357.826621 54.00081 
L 359.417266 56.438822 
L 361.00791 55.432799 
L 362.598555 56.43167 
L 364.189199 57.178084 
L 365.779844 53.376869 
L 367.370488 56.528944 
L 370.551777 52.627865 
L 372.142422 54.732582 
L 373.733066 54.678258 
L 375.323711 52.853907 
L 376.914355 57.318944 
L 378.505 53.262165 
L 380.095645 55.780816 
L 381.686289 54.126829 
L 383.276934 55.267158 
L 384.867578 55.874066 
L 386.458223 54.282112 
L 388.048867 56.111622 
L 389.639512 54.104338 
L 391.230156 54.451638 
L 392.820801 56.815306 
L 394.411445 51.807585 
L 396.00209 56.762874 
L 397.592734 54.196213 
L 399.183379 53.590839 
L 400.774024 51.955836 
L 402.364668 55.310326 
L 403.955313 54.380381 
L 407.136602 55.15574 
L 408.727246 56.022655 
L 410.317891 54.321695 
L 411.908535 52.380508 
L 413.49918 56.017974 
L 415.089824 52.340149 
L 416.680469 54.95207 
L 418.271114 54.076529 
L 419.861758 53.503904 
L 421.452403 53.600281 
L 423.043047 55.763445 
L 424.633692 52.312001 
L 426.224336 54.085174 
L 427.814981 54.338667 
L 429.405625 54.109558 
L 430.99627 52.646631 
L 432.586914 53.667574 
L 434.177559 53.760943 
L 435.768203 54.520624 
L 437.358848 55.134564 
L 438.949493 54.111908 
L 440.540137 50.85768 
L 442.130782 56.57767 
L 443.721426 53.976865 
L 445.312071 52.192316 
L 446.902715 51.285559 
L 448.49336 54.228505 
L 450.084004 54.529748 
L 451.674649 53.855388 
L 453.265293 51.487895 
L 454.855938 54.390641 
L 456.446582 51.751229 
L 458.037227 53.176605 
L 459.627872 53.111245 
L 461.218516 52.235644 
L 462.809161 50.879075 
L 464.399805 54.737343 
L 465.99045 54.704693 
L 467.581094 53.358303 
L 469.171739 54.163563 
L 472.353028 53.675024 
L 473.943672 52.942415 
L 475.534317 50.558309 
L 477.124962 53.090188 
L 478.715606 53.102141 
L 480.306251 55.010657 
L 481.896895 51.86418 
L 483.48754 54.62489 
L 485.078184 51.666645 
L 486.668829 51.133663 
L 488.259473 54.652301 
L 489.850118 53.349119 
L 491.440762 51.883224 
L 493.031407 53.573727 
L 494.622051 52.290147 
L 496.212696 51.573953 
L 497.803341 54.501739 
L 499.393985 54.522078 
L 500.98463 55.123927 
L 502.575274 52.616232 
L 504.165919 52.594498 
L 505.756563 53.476533 
L 507.347208 52.034344 
L 508.937852 48.790454 
L 510.528497 51.885894 
L 512.119141 49.373537 
L 513.709786 48.231535 
L 515.30043 48.092787 
L 516.891075 49.401267 
L 518.48172 50.895689 
L 520.072364 52.012351 
L 521.663009 52.074783 
L 523.253653 52.520273 
L 524.844298 52.414095 
L 526.434942 53.559543 
L 528.025587 51.321377 
L 529.616231 51.723738 
L 531.206876 52.328933 
L 532.79752 51.787764 
L 534.388165 53.333103 
L 535.97881 49.602627 
L 537.569454 51.950836 
L 539.160099 52.886219 
L 540.750743 50.382608 
L 542.341388 49.985067 
L 543.932032 51.49182 
L 545.522677 49.575833 
L 547.113321 53.164035 
L 548.703966 53.195589 
L 550.29461 49.737511 
L 551.885255 51.025274 
L 553.475899 52.795898 
L 555.066544 51.93974 
L 556.657189 51.420443 
L 558.247833 52.220962 
L 559.838478 53.861842 
L 561.429122 53.111703 
L 563.019767 50.778873 
L 564.610411 52.776037 
L 566.201056 50.693811 
L 567.7917 50.465618 
L 569.382345 49.610655 
L 570.972989 50.578987 
L 572.563634 50.660364 
L 574.154278 52.458 
L 575.744923 51.981155 
L 577.335568 50.421951 
L 578.926212 52.154208 
L 580.516857 51.324684 
L 582.107501 48.47943 
L 583.698146 50.331471 
L 585.28879 51.602281 
L 586.879435 51.404865 
L 588.470079 50.628351 
L 590.060724 50.602275 
L 591.651368 51.810015 
L 593.242013 49.191282 
L 594.832658 48.382595 
L 596.423302 50.385416 
L 598.013947 53.209614 
L 599.604591 50.869074 
L 601.195236 50.032857 
L 602.78588 49.916978 
L 604.376525 47.397868 
L 605.967169 53.931704 
L 607.557814 49.429256 
L 609.148458 49.108132 
L 610.739103 52.369831 
L 612.329747 50.385456 
L 613.920392 49.866917 
L 615.511037 48.012107 
L 617.101681 53.089969 
L 618.692326 50.527073 
L 620.28297 51.970039 
L 621.873615 51.30817 
L 623.464259 51.745691 
L 625.054904 51.512677 
L 626.645548 50.653033 
L 629.826837 51.760632 
L 631.417482 49.640596 
L 633.008127 49.831497 
L 634.598771 52.719501 
L 636.189416 53.39685 
L 637.78006 50.169295 
L 639.370705 51.876989 
L 640.961349 53.027398 
L 642.551994 52.181678 
L 644.142638 51.107188 
L 645.733283 50.820846 
L 647.323927 51.79627 
L 650.505216 49.091359 
L 652.095861 48.762744 
L 653.686506 50.167243 
L 655.27715 50.662137 
L 656.867795 51.638636 
L 658.458439 50.057579 
L 660.049084 50.329917 
L 661.639728 50.373265 
L 663.230373 52.353296 
L 664.821017 50.509742 
L 666.411662 52.475869 
L 668.002306 51.765433 
L 669.592951 49.983155 
L 671.183595 52.531727 
L 672.77424 51.458054 
L 674.364885 51.001907 
L 675.955529 46.381746 
L 677.546174 50.377627 
L 679.136818 51.664374 
L 679.136818 51.664374 
" clip-path="url(#peb94b56692)" style="fill: none; stroke: #0000ff; stroke-width: 1.5; stroke-linecap: square"/>
   </g>
   <g id="patch_3">
    <path d="M 47.81 390.04 
L 47.81 25.44 
" style="fill: none; stroke: #000000; stroke-width: 0.8; stroke-linejoin: miter; stroke-linecap: square"/>
   </g>
   <g id="patch_4">
    <path d="M 709.2 390.04 
L 709.2 25.44 
" style="fill: none; stroke: #000000; stroke-width: 0.8; stroke-linejoin: miter; stroke-linecap: square"/>
   </g>
   <g id="patch_5">
    <path d="M 47.81 390.04 
L 709.2 390.04 
" style="fill: none; stroke: #000000; stroke-width: 0.8; stroke-linejoin: miter; stroke-linecap: square"/>
   </g>
   <g id="patch_6">
    <path d="M 47.81 25.44 
L 709.2 25.44 
" style="fill: none; stroke: #000000; stroke-width: 0.8; stroke-linejoin: miter; stroke-linecap: square"/>
   </g>
   <g id="text_17">
    <!-- gan_IS_FID_cifar10_generatorcnn_discriminatorcnn Trial 11 -->
    <g transform="translate(201.552813 19.44) scale(0.12 -0.12)">
     <defs>
      <path id="DejaVuSans-67" d="M 2906 1791 
Q 2906 2416 2648 2759 
Q 2391 3103 1925 3103 
Q 1463 3103 1205 2759 
Q 947 2416 947 1791 
Q 947 1169 1205 825 
Q 1463 481 1925 481 
Q 2391 481 2648 825 
Q 2906 1169 2906 1791 
z
M 3481 434 
Q 3481 -459 3084 -895 
Q 2688 -1331 1869 -1331 
Q 1566 -1331 1297 -1286 
Q 1028 -1241 775 -1147 
L 775 -588 
Q 1028 -725 1275 -790 
Q 1522 -856 1778 -856 
Q 2344 -856 2625 -561 
Q 2906 -266 2906 331 
L 2906 616 
Q 2728 306 2450 153 
Q 2172 0 1784 0 
Q 1141 0 747 490 
Q 353 981 353 1791 
Q 353 2603 747 3093 
Q 1141 3584 1784 3584 
Q 2172 3584 2450 3431 
Q 2728 3278 2906 2969 
L 2906 3500 
L 3481 3500 
L 3481 434 
z
" transform="scale(0.015625)"/>
      <path id="DejaVuSans-6e" d="M 3513 2113 
L 3513 0 
L 2938 0 
L 2938 2094 
Q 2938 2591 2744 2837 
Q 2550 3084 2163 3084 
Q 1697 3084 1428 2787 
Q 1159 2491 1159 1978 
L 1159 0 
L 581 0 
L 581 3500 
L 1159 3500 
L 1159 2956 
Q 1366 3272 1645 3428 
Q 1925 3584 2291 3584 
Q 2894 3584 3203 3211 
Q 3513 2838 3513 2113 
z
" transform="scale(0.015625)"/>
      <path id="DejaVuSans-5f" d="M 3263 -1063 
L 3263 -1509 
L -63 -1509 
L -63 -1063 
L 3263 -1063 
z
" transform="scale(0.015625)"/>
      <path id="DejaVuSans-49" d="M 628 4666 
L 1259 4666 
L 1259 0 
L 628 0 
L 628 4666 
z
" transform="scale(0.015625)"/>
      <path id="DejaVuSans-53" d="M 3425 4513 
L 3425 3897 
Q 3066 4069 2747 4153 
Q 2428 4238 2131 4238 
Q 1616 4238 1336 4038 
Q 1056 3838 1056 3469 
Q 1056 3159 1242 3001 
Q 1428 2844 1947 2747 
L 2328 2669 
Q 3034 2534 3370 2195 
Q 3706 1856 3706 1288 
Q 3706 609 3251 259 
Q 2797 -91 1919 -91 
Q 1588 -91 1214 -16 
Q 841 59 441 206 
L 441 856 
Q 825 641 1194 531 
Q 1563 422 1919 422 
Q 2459 422 2753 634 
Q 3047 847 3047 1241 
Q 3047 1584 2836 1778 
Q 2625 1972 2144 2069 
L 1759 2144 
Q 1053 2284 737 2584 
Q 422 2884 422 3419 
Q 422 4038 858 4394 
Q 1294 4750 2059 4750 
Q 2388 4750 2728 4690 
Q 3069 4631 3425 4513 
z
" transform="scale(0.015625)"/>
      <path id="DejaVuSans-46" d="M 628 4666 
L 3309 4666 
L 3309 4134 
L 1259 4134 
L 1259 2759 
L 3109 2759 
L 3109 2228 
L 1259 2228 
L 1259 0 
L 628 0 
L 628 4666 
z
" transform="scale(0.015625)"/>
      <path id="DejaVuSans-44" d="M 1259 4147 
L 1259 519 
L 2022 519 
Q 2988 519 3436 956 
Q 3884 1394 3884 2338 
Q 3884 3275 3436 3711 
Q 2988 4147 2022 4147 
L 1259 4147 
z
M 628 4666 
L 1925 4666 
Q 3281 4666 3915 4102 
Q 4550 3538 4550 2338 
Q 4550 1131 3912 565 
Q 3275 0 1925 0 
L 628 0 
L 628 4666 
z
" transform="scale(0.015625)"/>
      <path id="DejaVuSans-69" d="M 603 3500 
L 1178 3500 
L 1178 0 
L 603 0 
L 603 3500 
z
M 603 4863 
L 1178 4863 
L 1178 4134 
L 603 4134 
L 603 4863 
z
" transform="scale(0.015625)"/>
      <path id="DejaVuSans-66" d="M 2375 4863 
L 2375 4384 
L 1825 4384 
Q 1516 4384 1395 4259 
Q 1275 4134 1275 3809 
L 1275 3500 
L 2222 3500 
L 2222 3053 
L 1275 3053 
L 1275 0 
L 697 0 
L 697 3053 
L 147 3053 
L 147 3500 
L 697 3500 
L 697 3744 
Q 697 4328 969 4595 
Q 1241 4863 1831 4863 
L 2375 4863 
z
" transform="scale(0.015625)"/>
      <path id="DejaVuSans-72" d="M 2631 2963 
Q 2534 3019 2420 3045 
Q 2306 3072 2169 3072 
Q 1681 3072 1420 2755 
Q 1159 2438 1159 1844 
L 1159 0 
L 581 0 
L 581 3500 
L 1159 3500 
L 1159 2956 
Q 1341 3275 1631 3429 
Q 1922 3584 2338 3584 
Q 2397 3584 2469 3576 
Q 2541 3569 2628 3553 
L 2631 2963 
z
" transform="scale(0.015625)"/>
      <path id="DejaVuSans-74" d="M 1172 4494 
L 1172 3500 
L 2356 3500 
L 2356 3053 
L 1172 3053 
L 1172 1153 
Q 1172 725 1289 603 
Q 1406 481 1766 481 
L 2356 481 
L 2356 0 
L 1766 0 
Q 1100 0 847 248 
Q 594 497 594 1153 
L 594 3053 
L 172 3053 
L 172 3500 
L 594 3500 
L 594 4494 
L 1172 4494 
z
" transform="scale(0.015625)"/>
      <path id="DejaVuSans-64" d="M 2906 2969 
L 2906 4863 
L 3481 4863 
L 3481 0 
L 2906 0 
L 2906 525 
Q 2725 213 2448 61 
Q 2172 -91 1784 -91 
Q 1150 -91 751 415 
Q 353 922 353 1747 
Q 353 2572 751 3078 
Q 1150 3584 1784 3584 
Q 2172 3584 2448 3432 
Q 2725 3281 2906 2969 
z
M 947 1747 
Q 947 1113 1208 752 
Q 1469 391 1925 391 
Q 2381 391 2643 752 
Q 2906 1113 2906 1747 
Q 2906 2381 2643 2742 
Q 2381 3103 1925 3103 
Q 1469 3103 1208 2742 
Q 947 2381 947 1747 
z
" transform="scale(0.015625)"/>
      <path id="DejaVuSans-73" d="M 2834 3397 
L 2834 2853 
Q 2591 2978 2328 3040 
Q 2066 3103 1784 3103 
Q 1356 3103 1142 2972 
Q 928 2841 928 2578 
Q 928 2378 1081 2264 
Q 1234 2150 1697 2047 
L 1894 2003 
Q 2506 1872 2764 1633 
Q 3022 1394 3022 966 
Q 3022 478 2636 193 
Q 2250 -91 1575 -91 
Q 1294 -91 989 -36 
Q 684 19 347 128 
L 347 722 
Q 666 556 975 473 
Q 1284 391 1588 391 
Q 1994 391 2212 530 
Q 2431 669 2431 922 
Q 2431 1156 2273 1281 
Q 2116 1406 1581 1522 
L 1381 1569 
Q 847 1681 609 1914 
Q 372 2147 372 2553 
Q 372 3047 722 3315 
Q 1072 3584 1716 3584 
Q 2034 3584 2315 3537 
Q 2597 3491 2834 3397 
z
" transform="scale(0.015625)"/>
      <path id="DejaVuSans-6d" d="M 3328 2828 
Q 3544 3216 3844 3400 
Q 4144 3584 4550 3584 
Q 5097 3584 5394 3201 
Q 5691 2819 5691 2113 
L 5691 0 
L 5113 0 
L 5113 2094 
Q 5113 2597 4934 2840 
Q 4756 3084 4391 3084 
Q 3944 3084 3684 2787 
Q 3425 2491 3425 1978 
L 3425 0 
L 2847 0 
L 2847 2094 
Q 2847 2600 2669 2842 
Q 2491 3084 2119 3084 
Q 1678 3084 1418 2786 
Q 1159 2488 1159 1978 
L 1159 0 
L 581 0 
L 581 3500 
L 1159 3500 
L 1159 2956 
Q 1356 3278 1631 3431 
Q 1906 3584 2284 3584 
Q 2666 3584 2933 3390 
Q 3200 3197 3328 2828 
z
" transform="scale(0.015625)"/>
      <path id="DejaVuSans-20" transform="scale(0.015625)"/>
      <path id="DejaVuSans-54" d="M -19 4666 
L 3928 4666 
L 3928 4134 
L 2272 4134 
L 2272 0 
L 1638 0 
L 1638 4134 
L -19 4134 
L -19 4666 
z
" transform="scale(0.015625)"/>
     </defs>
     <use xlink:href="#DejaVuSans-67"/>
     <use xlink:href="#DejaVuSans-61" transform="translate(63.476562 0)"/>
     <use xlink:href="#DejaVuSans-6e" transform="translate(124.755859 0)"/>
     <use xlink:href="#DejaVuSans-5f" transform="translate(188.134766 0)"/>
     <use xlink:href="#DejaVuSans-49" transform="translate(238.134766 0)"/>
     <use xlink:href="#DejaVuSans-53" transform="translate(267.626953 0)"/>
     <use xlink:href="#DejaVuSans-5f" transform="translate(331.103516 0)"/>
     <use xlink:href="#DejaVuSans-46" transform="translate(381.103516 0)"/>
     <use xlink:href="#DejaVuSans-49" transform="translate(438.623047 0)"/>
     <use xlink:href="#DejaVuSans-44" transform="translate(468.115234 0)"/>
     <use xlink:href="#DejaVuSans-5f" transform="translate(545.117188 0)"/>
     <use xlink:href="#DejaVuSans-63" transform="translate(595.117188 0)"/>
     <use xlink:href="#DejaVuSans-69" transform="translate(650.097656 0)"/>
     <use xlink:href="#DejaVuSans-66" transform="translate(677.880859 0)"/>
     <use xlink:href="#DejaVuSans-61" transform="translate(713.085938 0)"/>
     <use xlink:href="#DejaVuSans-72" transform="translate(774.365234 0)"/>
     <use xlink:href="#DejaVuSans-31" transform="translate(815.478516 0)"/>
     <use xlink:href="#DejaVuSans-30" transform="translate(879.101562 0)"/>
     <use xlink:href="#DejaVuSans-5f" transform="translate(942.724609 0)"/>
     <use xlink:href="#DejaVuSans-67" transform="translate(992.724609 0)"/>
     <use xlink:href="#DejaVuSans-65" transform="translate(1056.201172 0)"/>
     <use xlink:href="#DejaVuSans-6e" transform="translate(1117.724609 0)"/>
     <use xlink:href="#DejaVuSans-65" transform="translate(1181.103516 0)"/>
     <use xlink:href="#DejaVuSans-72" transform="translate(1242.626953 0)"/>
     <use xlink:href="#DejaVuSans-61" transform="translate(1283.740234 0)"/>
     <use xlink:href="#DejaVuSans-74" transform="translate(1345.019531 0)"/>
     <use xlink:href="#DejaVuSans-6f" transform="translate(1384.228516 0)"/>
     <use xlink:href="#DejaVuSans-72" transform="translate(1445.410156 0)"/>
     <use xlink:href="#DejaVuSans-63" transform="translate(1484.273438 0)"/>
     <use xlink:href="#DejaVuSans-6e" transform="translate(1539.253906 0)"/>
     <use xlink:href="#DejaVuSans-6e" transform="translate(1602.632812 0)"/>
     <use xlink:href="#DejaVuSans-5f" transform="translate(1666.011719 0)"/>
     <use xlink:href="#DejaVuSans-64" transform="translate(1716.011719 0)"/>
     <use xlink:href="#DejaVuSans-69" transform="translate(1779.488281 0)"/>
     <use xlink:href="#DejaVuSans-73" transform="translate(1807.271484 0)"/>
     <use xlink:href="#DejaVuSans-63" transform="translate(1859.371094 0)"/>
     <use xlink:href="#DejaVuSans-72" transform="translate(1914.351562 0)"/>
     <use xlink:href="#DejaVuSans-69" transform="translate(1955.464844 0)"/>
     <use xlink:href="#DejaVuSans-6d" transform="translate(1983.248047 0)"/>
     <use xlink:href="#DejaVuSans-69" transform="translate(2080.660156 0)"/>
     <use xlink:href="#DejaVuSans-6e" transform="translate(2108.443359 0)"/>
     <use xlink:href="#DejaVuSans-61" transform="translate(2171.822266 0)"/>
     <use xlink:href="#DejaVuSans-74" transform="translate(2233.101562 0)"/>
     <use xlink:href="#DejaVuSans-6f" transform="translate(2272.310547 0)"/>
     <use xlink:href="#DejaVuSans-72" transform="translate(2333.492188 0)"/>
     <use xlink:href="#DejaVuSans-63" transform="translate(2372.355469 0)"/>
     <use xlink:href="#DejaVuSans-6e" transform="translate(2427.335938 0)"/>
     <use xlink:href="#DejaVuSans-6e" transform="translate(2490.714844 0)"/>
     <use xlink:href="#DejaVuSans-20" transform="translate(2554.09375 0)"/>
     <use xlink:href="#DejaVuSans-54" transform="translate(2585.880859 0)"/>
     <use xlink:href="#DejaVuSans-72" transform="translate(2632.214844 0)"/>
     <use xlink:href="#DejaVuSans-69" transform="translate(2673.328125 0)"/>
     <use xlink:href="#DejaVuSans-61" transform="translate(2701.111328 0)"/>
     <use xlink:href="#DejaVuSans-6c" transform="translate(2762.390625 0)"/>
     <use xlink:href="#DejaVuSans-20" transform="translate(2790.173828 0)"/>
     <use xlink:href="#DejaVuSans-31" transform="translate(2821.960938 0)"/>
     <use xlink:href="#DejaVuSans-31" transform="translate(2885.583984 0)"/>
    </g>
   </g>
   <g id="legend_1">
    <g id="patch_7">
     <path d="M 580.026563 224.19625 
L 702.2 224.19625 
Q 704.2 224.19625 704.2 222.19625 
L 704.2 193.28375 
Q 704.2 191.28375 702.2 191.28375 
L 580.026563 191.28375 
Q 578.026563 191.28375 578.026563 193.28375 
L 578.026563 222.19625 
Q 578.026563 224.19625 580.026563 224.19625 
z
" style="fill: #ffffff; opacity: 0.8; stroke: #cccccc; stroke-linejoin: miter"/>
    </g>
    <g id="line2d_31">
     <path d="M 582.026563 199.382188 
L 592.026563 199.382188 
L 602.026563 199.382188 
" style="fill: none; stroke: #ff0000; stroke-width: 1.5; stroke-linecap: square"/>
    </g>
    <g id="text_18">
     <!-- discriminator_loss -->
     <g transform="translate(610.026563 202.882188) scale(0.1 -0.1)">
      <use xlink:href="#DejaVuSans-64"/>
      <use xlink:href="#DejaVuSans-69" transform="translate(63.476562 0)"/>
      <use xlink:href="#DejaVuSans-73" transform="translate(91.259766 0)"/>
      <use xlink:href="#DejaVuSans-63" transform="translate(143.359375 0)"/>
      <use xlink:href="#DejaVuSans-72" transform="translate(198.339844 0)"/>
      <use xlink:href="#DejaVuSans-69" transform="translate(239.453125 0)"/>
      <use xlink:href="#DejaVuSans-6d" transform="translate(267.236328 0)"/>
      <use xlink:href="#DejaVuSans-69" transform="translate(364.648438 0)"/>
      <use xlink:href="#DejaVuSans-6e" transform="translate(392.431641 0)"/>
      <use xlink:href="#DejaVuSans-61" transform="translate(455.810547 0)"/>
      <use xlink:href="#DejaVuSans-74" transform="translate(517.089844 0)"/>
      <use xlink:href="#DejaVuSans-6f" transform="translate(556.298828 0)"/>
      <use xlink:href="#DejaVuSans-72" transform="translate(617.480469 0)"/>
      <use xlink:href="#DejaVuSans-5f" transform="translate(658.59375 0)"/>
      <use xlink:href="#DejaVuSans-6c" transform="translate(708.59375 0)"/>
      <use xlink:href="#DejaVuSans-6f" transform="translate(736.376953 0)"/>
      <use xlink:href="#DejaVuSans-73" transform="translate(797.558594 0)"/>
      <use xlink:href="#DejaVuSans-73" transform="translate(849.658203 0)"/>
     </g>
    </g>
    <g id="line2d_32">
     <path d="M 582.026563 214.338437 
L 592.026563 214.338437 
L 602.026563 214.338437 
" style="fill: none; stroke: #0000ff; stroke-width: 1.5; stroke-linecap: square"/>
    </g>
    <g id="text_19">
     <!-- generator_loss -->
     <g transform="translate(610.026563 217.838437) scale(0.1 -0.1)">
      <use xlink:href="#DejaVuSans-67"/>
      <use xlink:href="#DejaVuSans-65" transform="translate(63.476562 0)"/>
      <use xlink:href="#DejaVuSans-6e" transform="translate(125 0)"/>
      <use xlink:href="#DejaVuSans-65" transform="translate(188.378906 0)"/>
      <use xlink:href="#DejaVuSans-72" transform="translate(249.902344 0)"/>
      <use xlink:href="#DejaVuSans-61" transform="translate(291.015625 0)"/>
      <use xlink:href="#DejaVuSans-74" transform="translate(352.294922 0)"/>
      <use xlink:href="#DejaVuSans-6f" transform="translate(391.503906 0)"/>
      <use xlink:href="#DejaVuSans-72" transform="translate(452.685547 0)"/>
      <use xlink:href="#DejaVuSans-5f" transform="translate(493.798828 0)"/>
      <use xlink:href="#DejaVuSans-6c" transform="translate(543.798828 0)"/>
      <use xlink:href="#DejaVuSans-6f" transform="translate(571.582031 0)"/>
      <use xlink:href="#DejaVuSans-73" transform="translate(632.763672 0)"/>
      <use xlink:href="#DejaVuSans-73" transform="translate(684.863281 0)"/>
     </g>
    </g>
   </g>
  </g>
 </g>
 <defs>
  <clipPath id="peb94b56692">
   <rect x="47.81" y="25.44" width="661.39" height="364.6"/>
  </clipPath>
 </defs>
</svg>
