<?xml version="1.0" encoding="utf-8" standalone="no"?>
<!DOCTYPE svg PUBLIC "-//W3C//DTD SVG 1.1//EN"
  "http://www.w3.org/Graphics/SVG/1.1/DTD/svg11.dtd">
<svg xmlns:xlink="http://www.w3.org/1999/xlink" width="720pt" height="432pt" viewBox="0 0 720 432" xmlns="http://www.w3.org/2000/svg" version="1.1">
 <metadata>
  <rdf:RDF xmlns:dc="http://purl.org/dc/elements/1.1/" xmlns:cc="http://creativecommons.org/ns#" xmlns:rdf="http://www.w3.org/1999/02/22-rdf-syntax-ns#">
   <cc:Work>
    <dc:type rdf:resource="http://purl.org/dc/dcmitype/StillImage"/>
    <dc:date>2025-06-22T15:36:13.767245</dc:date>
    <dc:format>image/svg+xml</dc:format>
    <dc:creator>
     <cc:Agent>
      <dc:title>Matplotlib v3.10.1, https://matplotlib.org/</dc:title>
     </cc:Agent>
    </dc:creator>
   </cc:Work>
  </rdf:RDF>
 </metadata>
 <defs>
  <style type="text/css">*{stroke-linejoin: round; stroke-linecap: butt}</style>
 </defs>
 <g id="figure_1">
  <g id="patch_1">
   <path d="M 0 432 
L 720 432 
L 720 0 
L 0 0 
z
" style="fill: #ffffff"/>
  </g>
  <g id="axes_1">
   <g id="patch_2">
    <path d="M 47.81 390.04 
L 709.2 390.04 
L 709.2 25.44 
L 47.81 25.44 
z
" style="fill: #ffffff"/>
   </g>
   <g id="matplotlib.axis_1">
    <g id="xtick_1">
     <g id="line2d_1">
      <path d="M 77.873182 390.04 
L 77.873182 25.44 
" clip-path="url(#p30cdd64753)" style="fill: none; stroke: #b0b0b0; stroke-width: 0.8; stroke-linecap: square"/>
     </g>
     <g id="line2d_2">
      <defs>
       <path id="m0c79e3fa7f" d="M 0 0 
L 0 3.5 
" style="stroke: #000000; stroke-width: 0.8"/>
      </defs>
      <g>
       <use xlink:href="#m0c79e3fa7f" x="77.873182" y="390.04" style="stroke: #000000; stroke-width: 0.8"/>
      </g>
     </g>
     <g id="text_1">
      <!-- 0 -->
      <g transform="translate(74.691932 404.638438) scale(0.1 -0.1)">
       <defs>
        <path id="DejaVuSans-30" d="M 2034 4250 
Q 1547 4250 1301 3770 
Q 1056 3291 1056 2328 
Q 1056 1369 1301 889 
Q 1547 409 2034 409 
Q 2525 409 2770 889 
Q 3016 1369 3016 2328 
Q 3016 3291 2770 3770 
Q 2525 4250 2034 4250 
z
M 2034 4750 
Q 2819 4750 3233 4129 
Q 3647 3509 3647 2328 
Q 3647 1150 3233 529 
Q 2819 -91 2034 -91 
Q 1250 -91 836 529 
Q 422 1150 422 2328 
Q 422 3509 836 4129 
Q 1250 4750 2034 4750 
z
" transform="scale(0.015625)"/>
       </defs>
       <use xlink:href="#DejaVuSans-30"/>
      </g>
     </g>
    </g>
    <g id="xtick_2">
     <g id="line2d_3">
      <path d="M 163.767987 390.04 
L 163.767987 25.44 
" clip-path="url(#p30cdd64753)" style="fill: none; stroke: #b0b0b0; stroke-width: 0.8; stroke-linecap: square"/>
     </g>
     <g id="line2d_4">
      <g>
       <use xlink:href="#m0c79e3fa7f" x="163.767987" y="390.04" style="stroke: #000000; stroke-width: 0.8"/>
      </g>
     </g>
     <g id="text_2">
      <!-- 25 -->
      <g transform="translate(157.405487 404.638438) scale(0.1 -0.1)">
       <defs>
        <path id="DejaVuSans-32" d="M 1228 531 
L 3431 531 
L 3431 0 
L 469 0 
L 469 531 
Q 828 903 1448 1529 
Q 2069 2156 2228 2338 
Q 2531 2678 2651 2914 
Q 2772 3150 2772 3378 
Q 2772 3750 2511 3984 
Q 2250 4219 1831 4219 
Q 1534 4219 1204 4116 
Q 875 4013 500 3803 
L 500 4441 
Q 881 4594 1212 4672 
Q 1544 4750 1819 4750 
Q 2544 4750 2975 4387 
Q 3406 4025 3406 3419 
Q 3406 3131 3298 2873 
Q 3191 2616 2906 2266 
Q 2828 2175 2409 1742 
Q 1991 1309 1228 531 
z
" transform="scale(0.015625)"/>
        <path id="DejaVuSans-35" d="M 691 4666 
L 3169 4666 
L 3169 4134 
L 1269 4134 
L 1269 2991 
Q 1406 3038 1543 3061 
Q 1681 3084 1819 3084 
Q 2600 3084 3056 2656 
Q 3513 2228 3513 1497 
Q 3513 744 3044 326 
Q 2575 -91 1722 -91 
Q 1428 -91 1123 -41 
Q 819 9 494 109 
L 494 744 
Q 775 591 1075 516 
Q 1375 441 1709 441 
Q 2250 441 2565 725 
Q 2881 1009 2881 1497 
Q 2881 1984 2565 2268 
Q 2250 2553 1709 2553 
Q 1456 2553 1204 2497 
Q 953 2441 691 2322 
L 691 4666 
z
" transform="scale(0.015625)"/>
       </defs>
       <use xlink:href="#DejaVuSans-32"/>
       <use xlink:href="#DejaVuSans-35" transform="translate(63.623047 0)"/>
      </g>
     </g>
    </g>
    <g id="xtick_3">
     <g id="line2d_5">
      <path d="M 249.662792 390.04 
L 249.662792 25.44 
" clip-path="url(#p30cdd64753)" style="fill: none; stroke: #b0b0b0; stroke-width: 0.8; stroke-linecap: square"/>
     </g>
     <g id="line2d_6">
      <g>
       <use xlink:href="#m0c79e3fa7f" x="249.662792" y="390.04" style="stroke: #000000; stroke-width: 0.8"/>
      </g>
     </g>
     <g id="text_3">
      <!-- 50 -->
      <g transform="translate(243.300292 404.638438) scale(0.1 -0.1)">
       <use xlink:href="#DejaVuSans-35"/>
       <use xlink:href="#DejaVuSans-30" transform="translate(63.623047 0)"/>
      </g>
     </g>
    </g>
    <g id="xtick_4">
     <g id="line2d_7">
      <path d="M 335.557597 390.04 
L 335.557597 25.44 
" clip-path="url(#p30cdd64753)" style="fill: none; stroke: #b0b0b0; stroke-width: 0.8; stroke-linecap: square"/>
     </g>
     <g id="line2d_8">
      <g>
       <use xlink:href="#m0c79e3fa7f" x="335.557597" y="390.04" style="stroke: #000000; stroke-width: 0.8"/>
      </g>
     </g>
     <g id="text_4">
      <!-- 75 -->
      <g transform="translate(329.195097 404.638438) scale(0.1 -0.1)">
       <defs>
        <path id="DejaVuSans-37" d="M 525 4666 
L 3525 4666 
L 3525 4397 
L 1831 0 
L 1172 0 
L 2766 4134 
L 525 4134 
L 525 4666 
z
" transform="scale(0.015625)"/>
       </defs>
       <use xlink:href="#DejaVuSans-37"/>
       <use xlink:href="#DejaVuSans-35" transform="translate(63.623047 0)"/>
      </g>
     </g>
    </g>
    <g id="xtick_5">
     <g id="line2d_9">
      <path d="M 421.452403 390.04 
L 421.452403 25.44 
" clip-path="url(#p30cdd64753)" style="fill: none; stroke: #b0b0b0; stroke-width: 0.8; stroke-linecap: square"/>
     </g>
     <g id="line2d_10">
      <g>
       <use xlink:href="#m0c79e3fa7f" x="421.452403" y="390.04" style="stroke: #000000; stroke-width: 0.8"/>
      </g>
     </g>
     <g id="text_5">
      <!-- 100 -->
      <g transform="translate(411.908653 404.638438) scale(0.1 -0.1)">
       <defs>
        <path id="DejaVuSans-31" d="M 794 531 
L 1825 531 
L 1825 4091 
L 703 3866 
L 703 4441 
L 1819 4666 
L 2450 4666 
L 2450 531 
L 3481 531 
L 3481 0 
L 794 0 
L 794 531 
z
" transform="scale(0.015625)"/>
       </defs>
       <use xlink:href="#DejaVuSans-31"/>
       <use xlink:href="#DejaVuSans-30" transform="translate(63.623047 0)"/>
       <use xlink:href="#DejaVuSans-30" transform="translate(127.246094 0)"/>
      </g>
     </g>
    </g>
    <g id="xtick_6">
     <g id="line2d_11">
      <path d="M 507.347208 390.04 
L 507.347208 25.44 
" clip-path="url(#p30cdd64753)" style="fill: none; stroke: #b0b0b0; stroke-width: 0.8; stroke-linecap: square"/>
     </g>
     <g id="line2d_12">
      <g>
       <use xlink:href="#m0c79e3fa7f" x="507.347208" y="390.04" style="stroke: #000000; stroke-width: 0.8"/>
      </g>
     </g>
     <g id="text_6">
      <!-- 125 -->
      <g transform="translate(497.803458 404.638438) scale(0.1 -0.1)">
       <use xlink:href="#DejaVuSans-31"/>
       <use xlink:href="#DejaVuSans-32" transform="translate(63.623047 0)"/>
       <use xlink:href="#DejaVuSans-35" transform="translate(127.246094 0)"/>
      </g>
     </g>
    </g>
    <g id="xtick_7">
     <g id="line2d_13">
      <path d="M 593.242013 390.04 
L 593.242013 25.44 
" clip-path="url(#p30cdd64753)" style="fill: none; stroke: #b0b0b0; stroke-width: 0.8; stroke-linecap: square"/>
     </g>
     <g id="line2d_14">
      <g>
       <use xlink:href="#m0c79e3fa7f" x="593.242013" y="390.04" style="stroke: #000000; stroke-width: 0.8"/>
      </g>
     </g>
     <g id="text_7">
      <!-- 150 -->
      <g transform="translate(583.698263 404.638438) scale(0.1 -0.1)">
       <use xlink:href="#DejaVuSans-31"/>
       <use xlink:href="#DejaVuSans-35" transform="translate(63.623047 0)"/>
       <use xlink:href="#DejaVuSans-30" transform="translate(127.246094 0)"/>
      </g>
     </g>
    </g>
    <g id="xtick_8">
     <g id="line2d_15">
      <path d="M 679.136818 390.04 
L 679.136818 25.44 
" clip-path="url(#p30cdd64753)" style="fill: none; stroke: #b0b0b0; stroke-width: 0.8; stroke-linecap: square"/>
     </g>
     <g id="line2d_16">
      <g>
       <use xlink:href="#m0c79e3fa7f" x="679.136818" y="390.04" style="stroke: #000000; stroke-width: 0.8"/>
      </g>
     </g>
     <g id="text_8">
      <!-- 175 -->
      <g transform="translate(669.593068 404.638438) scale(0.1 -0.1)">
       <use xlink:href="#DejaVuSans-31"/>
       <use xlink:href="#DejaVuSans-37" transform="translate(63.623047 0)"/>
       <use xlink:href="#DejaVuSans-35" transform="translate(127.246094 0)"/>
      </g>
     </g>
    </g>
    <g id="text_9">
     <!-- Epoch -->
     <g transform="translate(363.194062 418.316562) scale(0.1 -0.1)">
      <defs>
       <path id="DejaVuSans-45" d="M 628 4666 
L 3578 4666 
L 3578 4134 
L 1259 4134 
L 1259 2753 
L 3481 2753 
L 3481 2222 
L 1259 2222 
L 1259 531 
L 3634 531 
L 3634 0 
L 628 0 
L 628 4666 
z
" transform="scale(0.015625)"/>
       <path id="DejaVuSans-70" d="M 1159 525 
L 1159 -1331 
L 581 -1331 
L 581 3500 
L 1159 3500 
L 1159 2969 
Q 1341 3281 1617 3432 
Q 1894 3584 2278 3584 
Q 2916 3584 3314 3078 
Q 3713 2572 3713 1747 
Q 3713 922 3314 415 
Q 2916 -91 2278 -91 
Q 1894 -91 1617 61 
Q 1341 213 1159 525 
z
M 3116 1747 
Q 3116 2381 2855 2742 
Q 2594 3103 2138 3103 
Q 1681 3103 1420 2742 
Q 1159 2381 1159 1747 
Q 1159 1113 1420 752 
Q 1681 391 2138 391 
Q 2594 391 2855 752 
Q 3116 1113 3116 1747 
z
" transform="scale(0.015625)"/>
       <path id="DejaVuSans-6f" d="M 1959 3097 
Q 1497 3097 1228 2736 
Q 959 2375 959 1747 
Q 959 1119 1226 758 
Q 1494 397 1959 397 
Q 2419 397 2687 759 
Q 2956 1122 2956 1747 
Q 2956 2369 2687 2733 
Q 2419 3097 1959 3097 
z
M 1959 3584 
Q 2709 3584 3137 3096 
Q 3566 2609 3566 1747 
Q 3566 888 3137 398 
Q 2709 -91 1959 -91 
Q 1206 -91 779 398 
Q 353 888 353 1747 
Q 353 2609 779 3096 
Q 1206 3584 1959 3584 
z
" transform="scale(0.015625)"/>
       <path id="DejaVuSans-63" d="M 3122 3366 
L 3122 2828 
Q 2878 2963 2633 3030 
Q 2388 3097 2138 3097 
Q 1578 3097 1268 2742 
Q 959 2388 959 1747 
Q 959 1106 1268 751 
Q 1578 397 2138 397 
Q 2388 397 2633 464 
Q 2878 531 3122 666 
L 3122 134 
Q 2881 22 2623 -34 
Q 2366 -91 2075 -91 
Q 1284 -91 818 406 
Q 353 903 353 1747 
Q 353 2603 823 3093 
Q 1294 3584 2113 3584 
Q 2378 3584 2631 3529 
Q 2884 3475 3122 3366 
z
" transform="scale(0.015625)"/>
       <path id="DejaVuSans-68" d="M 3513 2113 
L 3513 0 
L 2938 0 
L 2938 2094 
Q 2938 2591 2744 2837 
Q 2550 3084 2163 3084 
Q 1697 3084 1428 2787 
Q 1159 2491 1159 1978 
L 1159 0 
L 581 0 
L 581 4863 
L 1159 4863 
L 1159 2956 
Q 1366 3272 1645 3428 
Q 1925 3584 2291 3584 
Q 2894 3584 3203 3211 
Q 3513 2838 3513 2113 
z
" transform="scale(0.015625)"/>
      </defs>
      <use xlink:href="#DejaVuSans-45"/>
      <use xlink:href="#DejaVuSans-70" transform="translate(63.183594 0)"/>
      <use xlink:href="#DejaVuSans-6f" transform="translate(126.660156 0)"/>
      <use xlink:href="#DejaVuSans-63" transform="translate(187.841797 0)"/>
      <use xlink:href="#DejaVuSans-68" transform="translate(242.822266 0)"/>
     </g>
    </g>
   </g>
   <g id="matplotlib.axis_2">
    <g id="ytick_1">
     <g id="line2d_17">
      <path d="M 47.81 361.723904 
L 709.2 361.723904 
" clip-path="url(#p30cdd64753)" style="fill: none; stroke: #b0b0b0; stroke-width: 0.8; stroke-linecap: square"/>
     </g>
     <g id="line2d_18">
      <defs>
       <path id="me5270a4a30" d="M 0 0 
L -3.5 0 
" style="stroke: #000000; stroke-width: 0.8"/>
      </defs>
      <g>
       <use xlink:href="#me5270a4a30" x="47.81" y="361.723904" style="stroke: #000000; stroke-width: 0.8"/>
      </g>
     </g>
     <g id="text_10">
      <!-- 0.4 -->
      <g transform="translate(24.906875 365.523123) scale(0.1 -0.1)">
       <defs>
        <path id="DejaVuSans-2e" d="M 684 794 
L 1344 794 
L 1344 0 
L 684 0 
L 684 794 
z
" transform="scale(0.015625)"/>
        <path id="DejaVuSans-34" d="M 2419 4116 
L 825 1625 
L 2419 1625 
L 2419 4116 
z
M 2253 4666 
L 3047 4666 
L 3047 1625 
L 3713 1625 
L 3713 1100 
L 3047 1100 
L 3047 0 
L 2419 0 
L 2419 1100 
L 313 1100 
L 313 1709 
L 2253 4666 
z
" transform="scale(0.015625)"/>
       </defs>
       <use xlink:href="#DejaVuSans-30"/>
       <use xlink:href="#DejaVuSans-2e" transform="translate(63.623047 0)"/>
       <use xlink:href="#DejaVuSans-34" transform="translate(95.410156 0)"/>
      </g>
     </g>
    </g>
    <g id="ytick_2">
     <g id="line2d_19">
      <path d="M 47.81 305.693029 
L 709.2 305.693029 
" clip-path="url(#p30cdd64753)" style="fill: none; stroke: #b0b0b0; stroke-width: 0.8; stroke-linecap: square"/>
     </g>
     <g id="line2d_20">
      <g>
       <use xlink:href="#me5270a4a30" x="47.81" y="305.693029" style="stroke: #000000; stroke-width: 0.8"/>
      </g>
     </g>
     <g id="text_11">
      <!-- 0.5 -->
      <g transform="translate(24.906875 309.492248) scale(0.1 -0.1)">
       <use xlink:href="#DejaVuSans-30"/>
       <use xlink:href="#DejaVuSans-2e" transform="translate(63.623047 0)"/>
       <use xlink:href="#DejaVuSans-35" transform="translate(95.410156 0)"/>
      </g>
     </g>
    </g>
    <g id="ytick_3">
     <g id="line2d_21">
      <path d="M 47.81 249.662154 
L 709.2 249.662154 
" clip-path="url(#p30cdd64753)" style="fill: none; stroke: #b0b0b0; stroke-width: 0.8; stroke-linecap: square"/>
     </g>
     <g id="line2d_22">
      <g>
       <use xlink:href="#me5270a4a30" x="47.81" y="249.662154" style="stroke: #000000; stroke-width: 0.8"/>
      </g>
     </g>
     <g id="text_12">
      <!-- 0.6 -->
      <g transform="translate(24.906875 253.461373) scale(0.1 -0.1)">
       <defs>
        <path id="DejaVuSans-36" d="M 2113 2584 
Q 1688 2584 1439 2293 
Q 1191 2003 1191 1497 
Q 1191 994 1439 701 
Q 1688 409 2113 409 
Q 2538 409 2786 701 
Q 3034 994 3034 1497 
Q 3034 2003 2786 2293 
Q 2538 2584 2113 2584 
z
M 3366 4563 
L 3366 3988 
Q 3128 4100 2886 4159 
Q 2644 4219 2406 4219 
Q 1781 4219 1451 3797 
Q 1122 3375 1075 2522 
Q 1259 2794 1537 2939 
Q 1816 3084 2150 3084 
Q 2853 3084 3261 2657 
Q 3669 2231 3669 1497 
Q 3669 778 3244 343 
Q 2819 -91 2113 -91 
Q 1303 -91 875 529 
Q 447 1150 447 2328 
Q 447 3434 972 4092 
Q 1497 4750 2381 4750 
Q 2619 4750 2861 4703 
Q 3103 4656 3366 4563 
z
" transform="scale(0.015625)"/>
       </defs>
       <use xlink:href="#DejaVuSans-30"/>
       <use xlink:href="#DejaVuSans-2e" transform="translate(63.623047 0)"/>
       <use xlink:href="#DejaVuSans-36" transform="translate(95.410156 0)"/>
      </g>
     </g>
    </g>
    <g id="ytick_4">
     <g id="line2d_23">
      <path d="M 47.81 193.631279 
L 709.2 193.631279 
" clip-path="url(#p30cdd64753)" style="fill: none; stroke: #b0b0b0; stroke-width: 0.8; stroke-linecap: square"/>
     </g>
     <g id="line2d_24">
      <g>
       <use xlink:href="#me5270a4a30" x="47.81" y="193.631279" style="stroke: #000000; stroke-width: 0.8"/>
      </g>
     </g>
     <g id="text_13">
      <!-- 0.7 -->
      <g transform="translate(24.906875 197.430497) scale(0.1 -0.1)">
       <use xlink:href="#DejaVuSans-30"/>
       <use xlink:href="#DejaVuSans-2e" transform="translate(63.623047 0)"/>
       <use xlink:href="#DejaVuSans-37" transform="translate(95.410156 0)"/>
      </g>
     </g>
    </g>
    <g id="ytick_5">
     <g id="line2d_25">
      <path d="M 47.81 137.600403 
L 709.2 137.600403 
" clip-path="url(#p30cdd64753)" style="fill: none; stroke: #b0b0b0; stroke-width: 0.8; stroke-linecap: square"/>
     </g>
     <g id="line2d_26">
      <g>
       <use xlink:href="#me5270a4a30" x="47.81" y="137.600403" style="stroke: #000000; stroke-width: 0.8"/>
      </g>
     </g>
     <g id="text_14">
      <!-- 0.8 -->
      <g transform="translate(24.906875 141.399622) scale(0.1 -0.1)">
       <defs>
        <path id="DejaVuSans-38" d="M 2034 2216 
Q 1584 2216 1326 1975 
Q 1069 1734 1069 1313 
Q 1069 891 1326 650 
Q 1584 409 2034 409 
Q 2484 409 2743 651 
Q 3003 894 3003 1313 
Q 3003 1734 2745 1975 
Q 2488 2216 2034 2216 
z
M 1403 2484 
Q 997 2584 770 2862 
Q 544 3141 544 3541 
Q 544 4100 942 4425 
Q 1341 4750 2034 4750 
Q 2731 4750 3128 4425 
Q 3525 4100 3525 3541 
Q 3525 3141 3298 2862 
Q 3072 2584 2669 2484 
Q 3125 2378 3379 2068 
Q 3634 1759 3634 1313 
Q 3634 634 3220 271 
Q 2806 -91 2034 -91 
Q 1263 -91 848 271 
Q 434 634 434 1313 
Q 434 1759 690 2068 
Q 947 2378 1403 2484 
z
M 1172 3481 
Q 1172 3119 1398 2916 
Q 1625 2713 2034 2713 
Q 2441 2713 2670 2916 
Q 2900 3119 2900 3481 
Q 2900 3844 2670 4047 
Q 2441 4250 2034 4250 
Q 1625 4250 1398 4047 
Q 1172 3844 1172 3481 
z
" transform="scale(0.015625)"/>
       </defs>
       <use xlink:href="#DejaVuSans-30"/>
       <use xlink:href="#DejaVuSans-2e" transform="translate(63.623047 0)"/>
       <use xlink:href="#DejaVuSans-38" transform="translate(95.410156 0)"/>
      </g>
     </g>
    </g>
    <g id="ytick_6">
     <g id="line2d_27">
      <path d="M 47.81 81.569528 
L 709.2 81.569528 
" clip-path="url(#p30cdd64753)" style="fill: none; stroke: #b0b0b0; stroke-width: 0.8; stroke-linecap: square"/>
     </g>
     <g id="line2d_28">
      <g>
       <use xlink:href="#me5270a4a30" x="47.81" y="81.569528" style="stroke: #000000; stroke-width: 0.8"/>
      </g>
     </g>
     <g id="text_15">
      <!-- 0.9 -->
      <g transform="translate(24.906875 85.368747) scale(0.1 -0.1)">
       <defs>
        <path id="DejaVuSans-39" d="M 703 97 
L 703 672 
Q 941 559 1184 500 
Q 1428 441 1663 441 
Q 2288 441 2617 861 
Q 2947 1281 2994 2138 
Q 2813 1869 2534 1725 
Q 2256 1581 1919 1581 
Q 1219 1581 811 2004 
Q 403 2428 403 3163 
Q 403 3881 828 4315 
Q 1253 4750 1959 4750 
Q 2769 4750 3195 4129 
Q 3622 3509 3622 2328 
Q 3622 1225 3098 567 
Q 2575 -91 1691 -91 
Q 1453 -91 1209 -44 
Q 966 3 703 97 
z
M 1959 2075 
Q 2384 2075 2632 2365 
Q 2881 2656 2881 3163 
Q 2881 3666 2632 3958 
Q 2384 4250 1959 4250 
Q 1534 4250 1286 3958 
Q 1038 3666 1038 3163 
Q 1038 2656 1286 2365 
Q 1534 2075 1959 2075 
z
" transform="scale(0.015625)"/>
       </defs>
       <use xlink:href="#DejaVuSans-30"/>
       <use xlink:href="#DejaVuSans-2e" transform="translate(63.623047 0)"/>
       <use xlink:href="#DejaVuSans-39" transform="translate(95.410156 0)"/>
      </g>
     </g>
    </g>
    <g id="ytick_7">
     <g id="line2d_29">
      <path d="M 47.81 25.538653 
L 709.2 25.538653 
" clip-path="url(#p30cdd64753)" style="fill: none; stroke: #b0b0b0; stroke-width: 0.8; stroke-linecap: square"/>
     </g>
     <g id="line2d_30">
      <g>
       <use xlink:href="#me5270a4a30" x="47.81" y="25.538653" style="stroke: #000000; stroke-width: 0.8"/>
      </g>
     </g>
     <g id="text_16">
      <!-- 1.0 -->
      <g transform="translate(24.906875 29.337872) scale(0.1 -0.1)">
       <use xlink:href="#DejaVuSans-31"/>
       <use xlink:href="#DejaVuSans-2e" transform="translate(63.623047 0)"/>
       <use xlink:href="#DejaVuSans-30" transform="translate(95.410156 0)"/>
      </g>
     </g>
    </g>
    <g id="text_17">
     <!-- Value -->
     <g transform="translate(18.827188 221.47125) rotate(-90) scale(0.1 -0.1)">
      <defs>
       <path id="DejaVuSans-56" d="M 1831 0 
L 50 4666 
L 709 4666 
L 2188 738 
L 3669 4666 
L 4325 4666 
L 2547 0 
L 1831 0 
z
" transform="scale(0.015625)"/>
       <path id="DejaVuSans-61" d="M 2194 1759 
Q 1497 1759 1228 1600 
Q 959 1441 959 1056 
Q 959 750 1161 570 
Q 1363 391 1709 391 
Q 2188 391 2477 730 
Q 2766 1069 2766 1631 
L 2766 1759 
L 2194 1759 
z
M 3341 1997 
L 3341 0 
L 2766 0 
L 2766 531 
Q 2569 213 2275 61 
Q 1981 -91 1556 -91 
Q 1019 -91 701 211 
Q 384 513 384 1019 
Q 384 1609 779 1909 
Q 1175 2209 1959 2209 
L 2766 2209 
L 2766 2266 
Q 2766 2663 2505 2880 
Q 2244 3097 1772 3097 
Q 1472 3097 1187 3025 
Q 903 2953 641 2809 
L 641 3341 
Q 956 3463 1253 3523 
Q 1550 3584 1831 3584 
Q 2591 3584 2966 3190 
Q 3341 2797 3341 1997 
z
" transform="scale(0.015625)"/>
       <path id="DejaVuSans-6c" d="M 603 4863 
L 1178 4863 
L 1178 0 
L 603 0 
L 603 4863 
z
" transform="scale(0.015625)"/>
       <path id="DejaVuSans-75" d="M 544 1381 
L 544 3500 
L 1119 3500 
L 1119 1403 
Q 1119 906 1312 657 
Q 1506 409 1894 409 
Q 2359 409 2629 706 
Q 2900 1003 2900 1516 
L 2900 3500 
L 3475 3500 
L 3475 0 
L 2900 0 
L 2900 538 
Q 2691 219 2414 64 
Q 2138 -91 1772 -91 
Q 1169 -91 856 284 
Q 544 659 544 1381 
z
M 1991 3584 
L 1991 3584 
z
" transform="scale(0.015625)"/>
       <path id="DejaVuSans-65" d="M 3597 1894 
L 3597 1613 
L 953 1613 
Q 991 1019 1311 708 
Q 1631 397 2203 397 
Q 2534 397 2845 478 
Q 3156 559 3463 722 
L 3463 178 
Q 3153 47 2828 -22 
Q 2503 -91 2169 -91 
Q 1331 -91 842 396 
Q 353 884 353 1716 
Q 353 2575 817 3079 
Q 1281 3584 2069 3584 
Q 2775 3584 3186 3129 
Q 3597 2675 3597 1894 
z
M 3022 2063 
Q 3016 2534 2758 2815 
Q 2500 3097 2075 3097 
Q 1594 3097 1305 2825 
Q 1016 2553 972 2059 
L 3022 2063 
z
" transform="scale(0.015625)"/>
      </defs>
      <use xlink:href="#DejaVuSans-56"/>
      <use xlink:href="#DejaVuSans-61" transform="translate(60.658203 0)"/>
      <use xlink:href="#DejaVuSans-6c" transform="translate(121.9375 0)"/>
      <use xlink:href="#DejaVuSans-75" transform="translate(149.720703 0)"/>
      <use xlink:href="#DejaVuSans-65" transform="translate(213.099609 0)"/>
     </g>
    </g>
   </g>
   <g id="line2d_31">
    <path d="M 77.873182 291.775462 
L 81.308974 270.291637 
L 84.744766 302.87175 
L 88.180558 315.198818 
L 91.616351 325.876976 
L 95.052143 333.253122 
L 98.487935 334.568179 
L 101.923727 340.504029 
L 105.359519 335.767399 
L 108.795312 341.133228 
L 112.231104 335.251248 
L 115.666896 342.92249 
L 119.102688 342.34751 
L 122.538481 339.942308 
L 125.974273 346.897718 
L 129.410065 344.753113 
L 132.845857 343.967933 
L 136.281649 345.575297 
L 139.717442 346.662537 
L 143.153234 348.783297 
L 146.589026 346.680705 
L 150.024818 348.275395 
L 153.46061 347.808121 
L 156.896403 348.953204 
L 160.332195 352.802108 
L 163.767987 349.906955 
L 167.203779 346.568474 
L 170.639571 347.906625 
L 174.075364 352.346356 
L 177.511156 352.46216 
L 180.946948 349.536883 
L 184.38274 352.779382 
L 187.818532 350.600411 
L 191.254325 352.081518 
L 194.690117 351.185259 
L 198.125909 353.609331 
L 201.561701 353.057161 
L 204.997494 354.651668 
L 208.433286 353.368956 
L 215.30487 356.73686 
L 218.740662 354.822928 
L 222.176455 354.811305 
L 225.612247 356.943654 
L 229.048039 355.323282 
L 232.483831 353.463018 
L 235.919623 358.010087 
L 242.791208 354.879953 
L 246.227 356.908404 
L 249.662792 359.213481 
L 253.098584 356.833027 
L 259.970169 358.518089 
L 263.405961 356.717773 
L 266.841753 357.687556 
L 270.277545 356.354247 
L 273.713338 359.371583 
L 277.14913 358.229272 
L 280.584922 358.58338 
L 284.020714 358.546844 
L 287.456506 361.240663 
L 290.892299 360.521575 
L 294.328091 359.006019 
L 297.763883 359.100366 
L 301.199675 358.809144 
L 304.635468 360.959226 
L 308.07126 359.777023 
L 311.507052 360.105532 
L 314.942844 361.200403 
L 318.378636 361.964126 
L 321.814429 358.703776 
L 325.250221 361.112502 
L 328.686013 361.338533 
L 332.121805 362.715441 
L 335.557597 361.740466 
L 338.99339 361.528762 
L 342.429182 362.245228 
L 345.864974 361.294098 
L 349.300766 363.191415 
L 352.736558 361.446071 
L 356.172351 360.828444 
L 359.608143 362.268856 
L 363.043935 362.16596 
L 366.479727 363.985229 
L 369.915519 362.879671 
L 373.351312 363.418782 
L 376.787104 361.348769 
L 380.222896 363.727621 
L 383.658688 361.440778 
L 387.094481 365.48437 
L 390.530273 362.701114 
L 393.966065 364.132777 
L 397.401857 364.471489 
L 400.837649 363.215561 
L 404.273442 364.510129 
L 407.709234 365.536887 
L 411.145026 363.519758 
L 414.580818 365.314079 
L 418.01661 362.731205 
L 421.452403 365.174329 
L 424.888195 364.473276 
L 428.323987 365.285875 
L 431.759779 364.272159 
L 435.195571 364.1448 
L 438.631364 364.419189 
L 442.067156 365.73777 
L 445.502948 365.787081 
L 448.93874 366.861128 
L 452.374532 365.295043 
L 455.810325 367.278474 
L 459.246117 365.296262 
L 462.681909 367.037281 
L 466.117701 367.631146 
L 469.553494 366.784549 
L 472.989286 366.497251 
L 476.425078 365.708197 
L 479.86087 366.269166 
L 483.296662 367.510199 
L 486.732455 367.270475 
L 490.168247 368.579621 
L 493.604039 365.685403 
L 497.039831 368.431589 
L 500.475623 367.137488 
L 503.911416 367.838107 
L 507.347208 365.800055 
L 510.783 368.255019 
L 514.218792 368.599158 
L 517.654584 367.488073 
L 521.090377 369.700224 
L 524.526169 367.265967 
L 527.961961 366.940062 
L 531.397753 367.458183 
L 534.833545 369.642698 
L 538.269338 369.672805 
L 541.70513 368.999839 
L 545.140922 370.057539 
L 548.576714 368.408027 
L 552.012506 371.305101 
L 555.448299 369.817231 
L 558.884091 368.520358 
L 562.319883 369.852615 
L 565.755675 370.222921 
L 569.191468 369.85026 
L 572.62726 369.08101 
L 576.063052 368.728171 
L 579.498844 368.154895 
L 582.934636 370.726464 
L 586.370429 369.139522 
L 589.806221 369.975365 
L 593.242013 369.514453 
L 596.677805 369.237993 
L 600.113597 370.167983 
L 603.54939 370.451289 
L 606.985182 369.975082 
L 610.420974 372.936411 
L 613.856766 370.381907 
L 617.292558 372.037113 
L 620.728351 371.180229 
L 624.164143 371.248042 
L 627.599935 371.080906 
L 631.035727 371.283476 
L 634.471519 371.265575 
L 637.907312 370.424121 
L 641.343104 370.62467 
L 644.778896 368.350852 
L 648.214688 371.180964 
L 651.650481 368.984009 
L 655.086273 370.850384 
L 658.522065 371.122803 
L 661.957857 372.369981 
L 665.393649 371.90441 
L 672.265234 371.865269 
L 675.701026 373.467273 
L 679.136818 371.192302 
L 679.136818 371.192302 
" clip-path="url(#p30cdd64753)" style="fill: none; stroke: #ff0000; stroke-width: 1.5; stroke-linecap: square"/>
   </g>
   <g id="line2d_32">
    <path d="M 77.873182 102.607918 
L 81.308974 124.669478 
L 84.744766 101.251699 
L 88.180558 90.362939 
L 95.052143 77.554053 
L 98.487935 76.108664 
L 101.923727 72.974923 
L 105.359519 75.823654 
L 108.795312 73.189165 
L 112.231104 74.924106 
L 115.666896 70.292442 
L 119.102688 71.686066 
L 122.538481 72.193867 
L 125.974273 68.463655 
L 129.410065 67.138529 
L 132.845857 66.149544 
L 136.281649 68.095621 
L 139.717442 65.08261 
L 143.153234 65.793131 
L 146.589026 65.733083 
L 150.024818 63.410455 
L 153.46061 63.455508 
L 156.896403 62.671513 
L 160.332195 61.358209 
L 163.767987 61.083919 
L 167.203779 64.076024 
L 170.639571 62.753937 
L 174.075364 61.579564 
L 177.511156 61.168982 
L 180.946948 61.593625 
L 184.38274 60.685527 
L 187.818532 61.350094 
L 191.254325 59.813865 
L 194.690117 60.65734 
L 198.125909 59.154641 
L 201.561701 59.308435 
L 204.997494 59.331612 
L 208.433286 58.941836 
L 211.869078 57.60816 
L 215.30487 56.888454 
L 218.740662 59.173077 
L 222.176455 56.762347 
L 225.612247 54.575278 
L 229.048039 56.727848 
L 232.483831 58.010293 
L 235.919623 55.232931 
L 239.355416 55.583967 
L 242.791208 57.267109 
L 246.227 55.498872 
L 249.662792 53.862585 
L 253.098584 53.693096 
L 256.534377 54.416007 
L 259.970169 54.828794 
L 263.405961 54.821079 
L 266.841753 55.978052 
L 270.277545 56.255147 
L 273.713338 55.199033 
L 277.14913 53.643601 
L 280.584922 54.704324 
L 284.020714 54.291904 
L 287.456506 52.794883 
L 290.892299 52.902756 
L 294.328091 54.171107 
L 297.763883 52.659291 
L 301.199675 53.687485 
L 304.635468 52.727054 
L 308.07126 52.113117 
L 311.507052 52.99964 
L 314.942844 52.322349 
L 318.378636 50.633162 
L 321.814429 53.02923 
L 325.250221 51.610325 
L 328.686013 52.620818 
L 332.121805 51.042008 
L 335.557597 52.196275 
L 338.99339 52.236519 
L 342.429182 49.970432 
L 345.864974 52.88068 
L 349.300766 50.383419 
L 352.736558 51.010415 
L 356.172351 51.448383 
L 359.608143 49.38565 
L 363.043935 50.210456 
L 369.915519 49.002086 
L 373.351312 49.336724 
L 376.787104 50.344846 
L 380.222896 50.100914 
L 383.658688 49.410832 
L 387.094481 50.38205 
L 390.530273 49.640236 
L 393.966065 48.205935 
L 397.401857 49.851672 
L 400.837649 49.006461 
L 404.273442 48.01467 
L 411.145026 47.975495 
L 414.580818 48.935926 
L 418.01661 49.709735 
L 421.452403 49.727001 
L 424.888195 49.600259 
L 428.323987 49.357029 
L 431.759779 48.599518 
L 435.195571 49.026265 
L 438.631364 49.043765 
L 442.067156 46.491967 
L 445.502948 47.86091 
L 448.93874 47.232278 
L 452.374532 46.83826 
L 455.810325 48.159012 
L 459.246117 47.81342 
L 462.681909 46.602277 
L 466.117701 47.7157 
L 469.553494 47.844445 
L 472.989286 47.317875 
L 476.425078 47.235885 
L 479.86087 46.400092 
L 483.296662 46.811509 
L 486.732455 46.500149 
L 490.168247 45.856856 
L 493.604039 46.402763 
L 497.039831 45.876326 
L 500.475623 46.740474 
L 503.911416 46.545602 
L 510.783 45.842562 
L 514.218792 44.715213 
L 517.654584 46.143369 
L 521.090377 45.43425 
L 524.526169 45.696183 
L 527.961961 46.654644 
L 531.397753 46.609023 
L 534.833545 45.498673 
L 538.269338 45.804323 
L 545.140922 44.399411 
L 548.576714 44.94081 
L 552.012506 44.694073 
L 555.448299 46.08439 
L 562.319883 44.567932 
L 565.755675 44.566596 
L 569.191468 43.759023 
L 572.62726 44.67006 
L 576.063052 45.392237 
L 579.498844 45.519513 
L 582.934636 46.563937 
L 586.370429 44.217364 
L 589.806221 43.620392 
L 593.242013 44.300255 
L 596.677805 45.159326 
L 600.113597 43.711165 
L 603.54939 44.703991 
L 606.985182 43.62253 
L 610.420974 42.81322 
L 613.856766 44.299854 
L 617.292558 44.484106 
L 620.728351 43.428126 
L 624.164143 44.03515 
L 627.599935 44.378638 
L 631.035727 46.054466 
L 634.471519 43.845855 
L 637.907312 45.354365 
L 641.343104 43.918928 
L 644.778896 44.4636 
L 648.214688 43.943575 
L 651.650481 45.789361 
L 655.086273 43.415034 
L 658.522065 43.725192 
L 661.957857 42.933149 
L 665.393649 43.448665 
L 668.829442 44.410933 
L 672.265234 43.124079 
L 675.701026 42.012727 
L 679.136818 43.416504 
L 679.136818 43.416504 
" clip-path="url(#p30cdd64753)" style="fill: none; stroke: #0000ff; stroke-width: 1.5; stroke-linecap: square"/>
   </g>
   <g id="patch_3">
    <path d="M 47.81 390.04 
L 47.81 25.44 
" style="fill: none; stroke: #000000; stroke-width: 0.8; stroke-linejoin: miter; stroke-linecap: square"/>
   </g>
   <g id="patch_4">
    <path d="M 709.2 390.04 
L 709.2 25.44 
" style="fill: none; stroke: #000000; stroke-width: 0.8; stroke-linejoin: miter; stroke-linecap: square"/>
   </g>
   <g id="patch_5">
    <path d="M 47.81 390.04 
L 709.2 390.04 
" style="fill: none; stroke: #000000; stroke-width: 0.8; stroke-linejoin: miter; stroke-linecap: square"/>
   </g>
   <g id="patch_6">
    <path d="M 47.81 25.44 
L 709.2 25.44 
" style="fill: none; stroke: #000000; stroke-width: 0.8; stroke-linejoin: miter; stroke-linecap: square"/>
   </g>
   <g id="text_18">
    <!-- gan_IS_FID_mnist_generatorcnn_discriminatorcnn Trial 6 -->
    <g transform="translate(209.435312 19.44) scale(0.12 -0.12)">
     <defs>
      <path id="DejaVuSans-67" d="M 2906 1791 
Q 2906 2416 2648 2759 
Q 2391 3103 1925 3103 
Q 1463 3103 1205 2759 
Q 947 2416 947 1791 
Q 947 1169 1205 825 
Q 1463 481 1925 481 
Q 2391 481 2648 825 
Q 2906 1169 2906 1791 
z
M 3481 434 
Q 3481 -459 3084 -895 
Q 2688 -1331 1869 -1331 
Q 1566 -1331 1297 -1286 
Q 1028 -1241 775 -1147 
L 775 -588 
Q 1028 -725 1275 -790 
Q 1522 -856 1778 -856 
Q 2344 -856 2625 -561 
Q 2906 -266 2906 331 
L 2906 616 
Q 2728 306 2450 153 
Q 2172 0 1784 0 
Q 1141 0 747 490 
Q 353 981 353 1791 
Q 353 2603 747 3093 
Q 1141 3584 1784 3584 
Q 2172 3584 2450 3431 
Q 2728 3278 2906 2969 
L 2906 3500 
L 3481 3500 
L 3481 434 
z
" transform="scale(0.015625)"/>
      <path id="DejaVuSans-6e" d="M 3513 2113 
L 3513 0 
L 2938 0 
L 2938 2094 
Q 2938 2591 2744 2837 
Q 2550 3084 2163 3084 
Q 1697 3084 1428 2787 
Q 1159 2491 1159 1978 
L 1159 0 
L 581 0 
L 581 3500 
L 1159 3500 
L 1159 2956 
Q 1366 3272 1645 3428 
Q 1925 3584 2291 3584 
Q 2894 3584 3203 3211 
Q 3513 2838 3513 2113 
z
" transform="scale(0.015625)"/>
      <path id="DejaVuSans-5f" d="M 3263 -1063 
L 3263 -1509 
L -63 -1509 
L -63 -1063 
L 3263 -1063 
z
" transform="scale(0.015625)"/>
      <path id="DejaVuSans-49" d="M 628 4666 
L 1259 4666 
L 1259 0 
L 628 0 
L 628 4666 
z
" transform="scale(0.015625)"/>
      <path id="DejaVuSans-53" d="M 3425 4513 
L 3425 3897 
Q 3066 4069 2747 4153 
Q 2428 4238 2131 4238 
Q 1616 4238 1336 4038 
Q 1056 3838 1056 3469 
Q 1056 3159 1242 3001 
Q 1428 2844 1947 2747 
L 2328 2669 
Q 3034 2534 3370 2195 
Q 3706 1856 3706 1288 
Q 3706 609 3251 259 
Q 2797 -91 1919 -91 
Q 1588 -91 1214 -16 
Q 841 59 441 206 
L 441 856 
Q 825 641 1194 531 
Q 1563 422 1919 422 
Q 2459 422 2753 634 
Q 3047 847 3047 1241 
Q 3047 1584 2836 1778 
Q 2625 1972 2144 2069 
L 1759 2144 
Q 1053 2284 737 2584 
Q 422 2884 422 3419 
Q 422 4038 858 4394 
Q 1294 4750 2059 4750 
Q 2388 4750 2728 4690 
Q 3069 4631 3425 4513 
z
" transform="scale(0.015625)"/>
      <path id="DejaVuSans-46" d="M 628 4666 
L 3309 4666 
L 3309 4134 
L 1259 4134 
L 1259 2759 
L 3109 2759 
L 3109 2228 
L 1259 2228 
L 1259 0 
L 628 0 
L 628 4666 
z
" transform="scale(0.015625)"/>
      <path id="DejaVuSans-44" d="M 1259 4147 
L 1259 519 
L 2022 519 
Q 2988 519 3436 956 
Q 3884 1394 3884 2338 
Q 3884 3275 3436 3711 
Q 2988 4147 2022 4147 
L 1259 4147 
z
M 628 4666 
L 1925 4666 
Q 3281 4666 3915 4102 
Q 4550 3538 4550 2338 
Q 4550 1131 3912 565 
Q 3275 0 1925 0 
L 628 0 
L 628 4666 
z
" transform="scale(0.015625)"/>
      <path id="DejaVuSans-6d" d="M 3328 2828 
Q 3544 3216 3844 3400 
Q 4144 3584 4550 3584 
Q 5097 3584 5394 3201 
Q 5691 2819 5691 2113 
L 5691 0 
L 5113 0 
L 5113 2094 
Q 5113 2597 4934 2840 
Q 4756 3084 4391 3084 
Q 3944 3084 3684 2787 
Q 3425 2491 3425 1978 
L 3425 0 
L 2847 0 
L 2847 2094 
Q 2847 2600 2669 2842 
Q 2491 3084 2119 3084 
Q 1678 3084 1418 2786 
Q 1159 2488 1159 1978 
L 1159 0 
L 581 0 
L 581 3500 
L 1159 3500 
L 1159 2956 
Q 1356 3278 1631 3431 
Q 1906 3584 2284 3584 
Q 2666 3584 2933 3390 
Q 3200 3197 3328 2828 
z
" transform="scale(0.015625)"/>
      <path id="DejaVuSans-69" d="M 603 3500 
L 1178 3500 
L 1178 0 
L 603 0 
L 603 3500 
z
M 603 4863 
L 1178 4863 
L 1178 4134 
L 603 4134 
L 603 4863 
z
" transform="scale(0.015625)"/>
      <path id="DejaVuSans-73" d="M 2834 3397 
L 2834 2853 
Q 2591 2978 2328 3040 
Q 2066 3103 1784 3103 
Q 1356 3103 1142 2972 
Q 928 2841 928 2578 
Q 928 2378 1081 2264 
Q 1234 2150 1697 2047 
L 1894 2003 
Q 2506 1872 2764 1633 
Q 3022 1394 3022 966 
Q 3022 478 2636 193 
Q 2250 -91 1575 -91 
Q 1294 -91 989 -36 
Q 684 19 347 128 
L 347 722 
Q 666 556 975 473 
Q 1284 391 1588 391 
Q 1994 391 2212 530 
Q 2431 669 2431 922 
Q 2431 1156 2273 1281 
Q 2116 1406 1581 1522 
L 1381 1569 
Q 847 1681 609 1914 
Q 372 2147 372 2553 
Q 372 3047 722 3315 
Q 1072 3584 1716 3584 
Q 2034 3584 2315 3537 
Q 2597 3491 2834 3397 
z
" transform="scale(0.015625)"/>
      <path id="DejaVuSans-74" d="M 1172 4494 
L 1172 3500 
L 2356 3500 
L 2356 3053 
L 1172 3053 
L 1172 1153 
Q 1172 725 1289 603 
Q 1406 481 1766 481 
L 2356 481 
L 2356 0 
L 1766 0 
Q 1100 0 847 248 
Q 594 497 594 1153 
L 594 3053 
L 172 3053 
L 172 3500 
L 594 3500 
L 594 4494 
L 1172 4494 
z
" transform="scale(0.015625)"/>
      <path id="DejaVuSans-72" d="M 2631 2963 
Q 2534 3019 2420 3045 
Q 2306 3072 2169 3072 
Q 1681 3072 1420 2755 
Q 1159 2438 1159 1844 
L 1159 0 
L 581 0 
L 581 3500 
L 1159 3500 
L 1159 2956 
Q 1341 3275 1631 3429 
Q 1922 3584 2338 3584 
Q 2397 3584 2469 3576 
Q 2541 3569 2628 3553 
L 2631 2963 
z
" transform="scale(0.015625)"/>
      <path id="DejaVuSans-64" d="M 2906 2969 
L 2906 4863 
L 3481 4863 
L 3481 0 
L 2906 0 
L 2906 525 
Q 2725 213 2448 61 
Q 2172 -91 1784 -91 
Q 1150 -91 751 415 
Q 353 922 353 1747 
Q 353 2572 751 3078 
Q 1150 3584 1784 3584 
Q 2172 3584 2448 3432 
Q 2725 3281 2906 2969 
z
M 947 1747 
Q 947 1113 1208 752 
Q 1469 391 1925 391 
Q 2381 391 2643 752 
Q 2906 1113 2906 1747 
Q 2906 2381 2643 2742 
Q 2381 3103 1925 3103 
Q 1469 3103 1208 2742 
Q 947 2381 947 1747 
z
" transform="scale(0.015625)"/>
      <path id="DejaVuSans-20" transform="scale(0.015625)"/>
      <path id="DejaVuSans-54" d="M -19 4666 
L 3928 4666 
L 3928 4134 
L 2272 4134 
L 2272 0 
L 1638 0 
L 1638 4134 
L -19 4134 
L -19 4666 
z
" transform="scale(0.015625)"/>
     </defs>
     <use xlink:href="#DejaVuSans-67"/>
     <use xlink:href="#DejaVuSans-61" transform="translate(63.476562 0)"/>
     <use xlink:href="#DejaVuSans-6e" transform="translate(124.755859 0)"/>
     <use xlink:href="#DejaVuSans-5f" transform="translate(188.134766 0)"/>
     <use xlink:href="#DejaVuSans-49" transform="translate(238.134766 0)"/>
     <use xlink:href="#DejaVuSans-53" transform="translate(267.626953 0)"/>
     <use xlink:href="#DejaVuSans-5f" transform="translate(331.103516 0)"/>
     <use xlink:href="#DejaVuSans-46" transform="translate(381.103516 0)"/>
     <use xlink:href="#DejaVuSans-49" transform="translate(438.623047 0)"/>
     <use xlink:href="#DejaVuSans-44" transform="translate(468.115234 0)"/>
     <use xlink:href="#DejaVuSans-5f" transform="translate(545.117188 0)"/>
     <use xlink:href="#DejaVuSans-6d" transform="translate(595.117188 0)"/>
     <use xlink:href="#DejaVuSans-6e" transform="translate(692.529297 0)"/>
     <use xlink:href="#DejaVuSans-69" transform="translate(755.908203 0)"/>
     <use xlink:href="#DejaVuSans-73" transform="translate(783.691406 0)"/>
     <use xlink:href="#DejaVuSans-74" transform="translate(835.791016 0)"/>
     <use xlink:href="#DejaVuSans-5f" transform="translate(875 0)"/>
     <use xlink:href="#DejaVuSans-67" transform="translate(925 0)"/>
     <use xlink:href="#DejaVuSans-65" transform="translate(988.476562 0)"/>
     <use xlink:href="#DejaVuSans-6e" transform="translate(1050 0)"/>
     <use xlink:href="#DejaVuSans-65" transform="translate(1113.378906 0)"/>
     <use xlink:href="#DejaVuSans-72" transform="translate(1174.902344 0)"/>
     <use xlink:href="#DejaVuSans-61" transform="translate(1216.015625 0)"/>
     <use xlink:href="#DejaVuSans-74" transform="translate(1277.294922 0)"/>
     <use xlink:href="#DejaVuSans-6f" transform="translate(1316.503906 0)"/>
     <use xlink:href="#DejaVuSans-72" transform="translate(1377.685547 0)"/>
     <use xlink:href="#DejaVuSans-63" transform="translate(1416.548828 0)"/>
     <use xlink:href="#DejaVuSans-6e" transform="translate(1471.529297 0)"/>
     <use xlink:href="#DejaVuSans-6e" transform="translate(1534.908203 0)"/>
     <use xlink:href="#DejaVuSans-5f" transform="translate(1598.287109 0)"/>
     <use xlink:href="#DejaVuSans-64" transform="translate(1648.287109 0)"/>
     <use xlink:href="#DejaVuSans-69" transform="translate(1711.763672 0)"/>
     <use xlink:href="#DejaVuSans-73" transform="translate(1739.546875 0)"/>
     <use xlink:href="#DejaVuSans-63" transform="translate(1791.646484 0)"/>
     <use xlink:href="#DejaVuSans-72" transform="translate(1846.626953 0)"/>
     <use xlink:href="#DejaVuSans-69" transform="translate(1887.740234 0)"/>
     <use xlink:href="#DejaVuSans-6d" transform="translate(1915.523438 0)"/>
     <use xlink:href="#DejaVuSans-69" transform="translate(2012.935547 0)"/>
     <use xlink:href="#DejaVuSans-6e" transform="translate(2040.71875 0)"/>
     <use xlink:href="#DejaVuSans-61" transform="translate(2104.097656 0)"/>
     <use xlink:href="#DejaVuSans-74" transform="translate(2165.376953 0)"/>
     <use xlink:href="#DejaVuSans-6f" transform="translate(2204.585938 0)"/>
     <use xlink:href="#DejaVuSans-72" transform="translate(2265.767578 0)"/>
     <use xlink:href="#DejaVuSans-63" transform="translate(2304.630859 0)"/>
     <use xlink:href="#DejaVuSans-6e" transform="translate(2359.611328 0)"/>
     <use xlink:href="#DejaVuSans-6e" transform="translate(2422.990234 0)"/>
     <use xlink:href="#DejaVuSans-20" transform="translate(2486.369141 0)"/>
     <use xlink:href="#DejaVuSans-54" transform="translate(2518.15625 0)"/>
     <use xlink:href="#DejaVuSans-72" transform="translate(2564.490234 0)"/>
     <use xlink:href="#DejaVuSans-69" transform="translate(2605.603516 0)"/>
     <use xlink:href="#DejaVuSans-61" transform="translate(2633.386719 0)"/>
     <use xlink:href="#DejaVuSans-6c" transform="translate(2694.666016 0)"/>
     <use xlink:href="#DejaVuSans-20" transform="translate(2722.449219 0)"/>
     <use xlink:href="#DejaVuSans-36" transform="translate(2754.236328 0)"/>
    </g>
   </g>
   <g id="legend_1">
    <g id="patch_7">
     <path d="M 580.026562 224.19625 
L 702.2 224.19625 
Q 704.2 224.19625 704.2 222.19625 
L 704.2 193.28375 
Q 704.2 191.28375 702.2 191.28375 
L 580.026562 191.28375 
Q 578.026562 191.28375 578.026562 193.28375 
L 578.026562 222.19625 
Q 578.026562 224.19625 580.026562 224.19625 
z
" style="fill: #ffffff; opacity: 0.8; stroke: #cccccc; stroke-linejoin: miter"/>
    </g>
    <g id="line2d_33">
     <path d="M 582.026562 199.382188 
L 592.026562 199.382188 
L 602.026562 199.382188 
" style="fill: none; stroke: #ff0000; stroke-width: 1.5; stroke-linecap: square"/>
    </g>
    <g id="text_19">
     <!-- discriminator_loss -->
     <g transform="translate(610.026562 202.882188) scale(0.1 -0.1)">
      <use xlink:href="#DejaVuSans-64"/>
      <use xlink:href="#DejaVuSans-69" transform="translate(63.476562 0)"/>
      <use xlink:href="#DejaVuSans-73" transform="translate(91.259766 0)"/>
      <use xlink:href="#DejaVuSans-63" transform="translate(143.359375 0)"/>
      <use xlink:href="#DejaVuSans-72" transform="translate(198.339844 0)"/>
      <use xlink:href="#DejaVuSans-69" transform="translate(239.453125 0)"/>
      <use xlink:href="#DejaVuSans-6d" transform="translate(267.236328 0)"/>
      <use xlink:href="#DejaVuSans-69" transform="translate(364.648438 0)"/>
      <use xlink:href="#DejaVuSans-6e" transform="translate(392.431641 0)"/>
      <use xlink:href="#DejaVuSans-61" transform="translate(455.810547 0)"/>
      <use xlink:href="#DejaVuSans-74" transform="translate(517.089844 0)"/>
      <use xlink:href="#DejaVuSans-6f" transform="translate(556.298828 0)"/>
      <use xlink:href="#DejaVuSans-72" transform="translate(617.480469 0)"/>
      <use xlink:href="#DejaVuSans-5f" transform="translate(658.59375 0)"/>
      <use xlink:href="#DejaVuSans-6c" transform="translate(708.59375 0)"/>
      <use xlink:href="#DejaVuSans-6f" transform="translate(736.376953 0)"/>
      <use xlink:href="#DejaVuSans-73" transform="translate(797.558594 0)"/>
      <use xlink:href="#DejaVuSans-73" transform="translate(849.658203 0)"/>
     </g>
    </g>
    <g id="line2d_34">
     <path d="M 582.026562 214.338437 
L 592.026562 214.338437 
L 602.026562 214.338437 
" style="fill: none; stroke: #0000ff; stroke-width: 1.5; stroke-linecap: square"/>
    </g>
    <g id="text_20">
     <!-- generator_loss -->
     <g transform="translate(610.026562 217.838437) scale(0.1 -0.1)">
      <use xlink:href="#DejaVuSans-67"/>
      <use xlink:href="#DejaVuSans-65" transform="translate(63.476562 0)"/>
      <use xlink:href="#DejaVuSans-6e" transform="translate(125 0)"/>
      <use xlink:href="#DejaVuSans-65" transform="translate(188.378906 0)"/>
      <use xlink:href="#DejaVuSans-72" transform="translate(249.902344 0)"/>
      <use xlink:href="#DejaVuSans-61" transform="translate(291.015625 0)"/>
      <use xlink:href="#DejaVuSans-74" transform="translate(352.294922 0)"/>
      <use xlink:href="#DejaVuSans-6f" transform="translate(391.503906 0)"/>
      <use xlink:href="#DejaVuSans-72" transform="translate(452.685547 0)"/>
      <use xlink:href="#DejaVuSans-5f" transform="translate(493.798828 0)"/>
      <use xlink:href="#DejaVuSans-6c" transform="translate(543.798828 0)"/>
      <use xlink:href="#DejaVuSans-6f" transform="translate(571.582031 0)"/>
      <use xlink:href="#DejaVuSans-73" transform="translate(632.763672 0)"/>
      <use xlink:href="#DejaVuSans-73" transform="translate(684.863281 0)"/>
     </g>
    </g>
   </g>
  </g>
 </g>
 <defs>
  <clipPath id="p30cdd64753">
   <rect x="47.81" y="25.44" width="661.39" height="364.6"/>
  </clipPath>
 </defs>
</svg>
