<?xml version="1.0" encoding="utf-8" standalone="no"?>
<!DOCTYPE svg PUBLIC "-//W3C//DTD SVG 1.1//EN"
  "http://www.w3.org/Graphics/SVG/1.1/DTD/svg11.dtd">
<svg xmlns:xlink="http://www.w3.org/1999/xlink" width="720pt" height="432pt" viewBox="0 0 720 432" xmlns="http://www.w3.org/2000/svg" version="1.1">
 <metadata>
  <rdf:RDF xmlns:dc="http://purl.org/dc/elements/1.1/" xmlns:cc="http://creativecommons.org/ns#" xmlns:rdf="http://www.w3.org/1999/02/22-rdf-syntax-ns#">
   <cc:Work>
    <dc:type rdf:resource="http://purl.org/dc/dcmitype/StillImage"/>
    <dc:date>2025-06-22T15:36:14.281452</dc:date>
    <dc:format>image/svg+xml</dc:format>
    <dc:creator>
     <cc:Agent>
      <dc:title>Matplotlib v3.10.1, https://matplotlib.org/</dc:title>
     </cc:Agent>
    </dc:creator>
   </cc:Work>
  </rdf:RDF>
 </metadata>
 <defs>
  <style type="text/css">*{stroke-linejoin: round; stroke-linecap: butt}</style>
 </defs>
 <g id="figure_1">
  <g id="patch_1">
   <path d="M 0 432 
L 720 432 
L 720 0 
L 0 0 
z
" style="fill: #ffffff"/>
  </g>
  <g id="axes_1">
   <g id="patch_2">
    <path d="M 47.81 390.04 
L 709.2 390.04 
L 709.2 25.44 
L 47.81 25.44 
z
" style="fill: #ffffff"/>
   </g>
   <g id="matplotlib.axis_1">
    <g id="xtick_1">
     <g id="line2d_1">
      <path d="M 77.873182 390.04 
L 77.873182 25.44 
" clip-path="url(#paf548b5f7e)" style="fill: none; stroke: #b0b0b0; stroke-width: 0.8; stroke-linecap: square"/>
     </g>
     <g id="line2d_2">
      <defs>
       <path id="m6eb9679a92" d="M 0 0 
L 0 3.5 
" style="stroke: #000000; stroke-width: 0.8"/>
      </defs>
      <g>
       <use xlink:href="#m6eb9679a92" x="77.873182" y="390.04" style="stroke: #000000; stroke-width: 0.8"/>
      </g>
     </g>
     <g id="text_1">
      <!-- 0 -->
      <g transform="translate(74.691932 404.638438) scale(0.1 -0.1)">
       <defs>
        <path id="DejaVuSans-30" d="M 2034 4250 
Q 1547 4250 1301 3770 
Q 1056 3291 1056 2328 
Q 1056 1369 1301 889 
Q 1547 409 2034 409 
Q 2525 409 2770 889 
Q 3016 1369 3016 2328 
Q 3016 3291 2770 3770 
Q 2525 4250 2034 4250 
z
M 2034 4750 
Q 2819 4750 3233 4129 
Q 3647 3509 3647 2328 
Q 3647 1150 3233 529 
Q 2819 -91 2034 -91 
Q 1250 -91 836 529 
Q 422 1150 422 2328 
Q 422 3509 836 4129 
Q 1250 4750 2034 4750 
z
" transform="scale(0.015625)"/>
       </defs>
       <use xlink:href="#DejaVuSans-30"/>
      </g>
     </g>
    </g>
    <g id="xtick_2">
     <g id="line2d_3">
      <path d="M 157.405409 390.04 
L 157.405409 25.44 
" clip-path="url(#paf548b5f7e)" style="fill: none; stroke: #b0b0b0; stroke-width: 0.8; stroke-linecap: square"/>
     </g>
     <g id="line2d_4">
      <g>
       <use xlink:href="#m6eb9679a92" x="157.405409" y="390.04" style="stroke: #000000; stroke-width: 0.8"/>
      </g>
     </g>
     <g id="text_2">
      <!-- 50 -->
      <g transform="translate(151.042909 404.638438) scale(0.1 -0.1)">
       <defs>
        <path id="DejaVuSans-35" d="M 691 4666 
L 3169 4666 
L 3169 4134 
L 1269 4134 
L 1269 2991 
Q 1406 3038 1543 3061 
Q 1681 3084 1819 3084 
Q 2600 3084 3056 2656 
Q 3513 2228 3513 1497 
Q 3513 744 3044 326 
Q 2575 -91 1722 -91 
Q 1428 -91 1123 -41 
Q 819 9 494 109 
L 494 744 
Q 775 591 1075 516 
Q 1375 441 1709 441 
Q 2250 441 2565 725 
Q 2881 1009 2881 1497 
Q 2881 1984 2565 2268 
Q 2250 2553 1709 2553 
Q 1456 2553 1204 2497 
Q 953 2441 691 2322 
L 691 4666 
z
" transform="scale(0.015625)"/>
       </defs>
       <use xlink:href="#DejaVuSans-35"/>
       <use xlink:href="#DejaVuSans-30" transform="translate(63.623047 0)"/>
      </g>
     </g>
    </g>
    <g id="xtick_3">
     <g id="line2d_5">
      <path d="M 236.937636 390.04 
L 236.937636 25.44 
" clip-path="url(#paf548b5f7e)" style="fill: none; stroke: #b0b0b0; stroke-width: 0.8; stroke-linecap: square"/>
     </g>
     <g id="line2d_6">
      <g>
       <use xlink:href="#m6eb9679a92" x="236.937636" y="390.04" style="stroke: #000000; stroke-width: 0.8"/>
      </g>
     </g>
     <g id="text_3">
      <!-- 100 -->
      <g transform="translate(227.393886 404.638438) scale(0.1 -0.1)">
       <defs>
        <path id="DejaVuSans-31" d="M 794 531 
L 1825 531 
L 1825 4091 
L 703 3866 
L 703 4441 
L 1819 4666 
L 2450 4666 
L 2450 531 
L 3481 531 
L 3481 0 
L 794 0 
L 794 531 
z
" transform="scale(0.015625)"/>
       </defs>
       <use xlink:href="#DejaVuSans-31"/>
       <use xlink:href="#DejaVuSans-30" transform="translate(63.623047 0)"/>
       <use xlink:href="#DejaVuSans-30" transform="translate(127.246094 0)"/>
      </g>
     </g>
    </g>
    <g id="xtick_4">
     <g id="line2d_7">
      <path d="M 316.469863 390.04 
L 316.469863 25.44 
" clip-path="url(#paf548b5f7e)" style="fill: none; stroke: #b0b0b0; stroke-width: 0.8; stroke-linecap: square"/>
     </g>
     <g id="line2d_8">
      <g>
       <use xlink:href="#m6eb9679a92" x="316.469863" y="390.04" style="stroke: #000000; stroke-width: 0.8"/>
      </g>
     </g>
     <g id="text_4">
      <!-- 150 -->
      <g transform="translate(306.926113 404.638438) scale(0.1 -0.1)">
       <use xlink:href="#DejaVuSans-31"/>
       <use xlink:href="#DejaVuSans-35" transform="translate(63.623047 0)"/>
       <use xlink:href="#DejaVuSans-30" transform="translate(127.246094 0)"/>
      </g>
     </g>
    </g>
    <g id="xtick_5">
     <g id="line2d_9">
      <path d="M 396.00209 390.04 
L 396.00209 25.44 
" clip-path="url(#paf548b5f7e)" style="fill: none; stroke: #b0b0b0; stroke-width: 0.8; stroke-linecap: square"/>
     </g>
     <g id="line2d_10">
      <g>
       <use xlink:href="#m6eb9679a92" x="396.00209" y="390.04" style="stroke: #000000; stroke-width: 0.8"/>
      </g>
     </g>
     <g id="text_5">
      <!-- 200 -->
      <g transform="translate(386.45834 404.638438) scale(0.1 -0.1)">
       <defs>
        <path id="DejaVuSans-32" d="M 1228 531 
L 3431 531 
L 3431 0 
L 469 0 
L 469 531 
Q 828 903 1448 1529 
Q 2069 2156 2228 2338 
Q 2531 2678 2651 2914 
Q 2772 3150 2772 3378 
Q 2772 3750 2511 3984 
Q 2250 4219 1831 4219 
Q 1534 4219 1204 4116 
Q 875 4013 500 3803 
L 500 4441 
Q 881 4594 1212 4672 
Q 1544 4750 1819 4750 
Q 2544 4750 2975 4387 
Q 3406 4025 3406 3419 
Q 3406 3131 3298 2873 
Q 3191 2616 2906 2266 
Q 2828 2175 2409 1742 
Q 1991 1309 1228 531 
z
" transform="scale(0.015625)"/>
       </defs>
       <use xlink:href="#DejaVuSans-32"/>
       <use xlink:href="#DejaVuSans-30" transform="translate(63.623047 0)"/>
       <use xlink:href="#DejaVuSans-30" transform="translate(127.246094 0)"/>
      </g>
     </g>
    </g>
    <g id="xtick_6">
     <g id="line2d_11">
      <path d="M 475.534317 390.04 
L 475.534317 25.44 
" clip-path="url(#paf548b5f7e)" style="fill: none; stroke: #b0b0b0; stroke-width: 0.8; stroke-linecap: square"/>
     </g>
     <g id="line2d_12">
      <g>
       <use xlink:href="#m6eb9679a92" x="475.534317" y="390.04" style="stroke: #000000; stroke-width: 0.8"/>
      </g>
     </g>
     <g id="text_6">
      <!-- 250 -->
      <g transform="translate(465.990567 404.638438) scale(0.1 -0.1)">
       <use xlink:href="#DejaVuSans-32"/>
       <use xlink:href="#DejaVuSans-35" transform="translate(63.623047 0)"/>
       <use xlink:href="#DejaVuSans-30" transform="translate(127.246094 0)"/>
      </g>
     </g>
    </g>
    <g id="xtick_7">
     <g id="line2d_13">
      <path d="M 555.066544 390.04 
L 555.066544 25.44 
" clip-path="url(#paf548b5f7e)" style="fill: none; stroke: #b0b0b0; stroke-width: 0.8; stroke-linecap: square"/>
     </g>
     <g id="line2d_14">
      <g>
       <use xlink:href="#m6eb9679a92" x="555.066544" y="390.04" style="stroke: #000000; stroke-width: 0.8"/>
      </g>
     </g>
     <g id="text_7">
      <!-- 300 -->
      <g transform="translate(545.522794 404.638438) scale(0.1 -0.1)">
       <defs>
        <path id="DejaVuSans-33" d="M 2597 2516 
Q 3050 2419 3304 2112 
Q 3559 1806 3559 1356 
Q 3559 666 3084 287 
Q 2609 -91 1734 -91 
Q 1441 -91 1130 -33 
Q 819 25 488 141 
L 488 750 
Q 750 597 1062 519 
Q 1375 441 1716 441 
Q 2309 441 2620 675 
Q 2931 909 2931 1356 
Q 2931 1769 2642 2001 
Q 2353 2234 1838 2234 
L 1294 2234 
L 1294 2753 
L 1863 2753 
Q 2328 2753 2575 2939 
Q 2822 3125 2822 3475 
Q 2822 3834 2567 4026 
Q 2313 4219 1838 4219 
Q 1578 4219 1281 4162 
Q 984 4106 628 3988 
L 628 4550 
Q 988 4650 1302 4700 
Q 1616 4750 1894 4750 
Q 2613 4750 3031 4423 
Q 3450 4097 3450 3541 
Q 3450 3153 3228 2886 
Q 3006 2619 2597 2516 
z
" transform="scale(0.015625)"/>
       </defs>
       <use xlink:href="#DejaVuSans-33"/>
       <use xlink:href="#DejaVuSans-30" transform="translate(63.623047 0)"/>
       <use xlink:href="#DejaVuSans-30" transform="translate(127.246094 0)"/>
      </g>
     </g>
    </g>
    <g id="xtick_8">
     <g id="line2d_15">
      <path d="M 634.598771 390.04 
L 634.598771 25.44 
" clip-path="url(#paf548b5f7e)" style="fill: none; stroke: #b0b0b0; stroke-width: 0.8; stroke-linecap: square"/>
     </g>
     <g id="line2d_16">
      <g>
       <use xlink:href="#m6eb9679a92" x="634.598771" y="390.04" style="stroke: #000000; stroke-width: 0.8"/>
      </g>
     </g>
     <g id="text_8">
      <!-- 350 -->
      <g transform="translate(625.055021 404.638438) scale(0.1 -0.1)">
       <use xlink:href="#DejaVuSans-33"/>
       <use xlink:href="#DejaVuSans-35" transform="translate(63.623047 0)"/>
       <use xlink:href="#DejaVuSans-30" transform="translate(127.246094 0)"/>
      </g>
     </g>
    </g>
    <g id="text_9">
     <!-- Epoch -->
     <g transform="translate(363.194063 418.316562) scale(0.1 -0.1)">
      <defs>
       <path id="DejaVuSans-45" d="M 628 4666 
L 3578 4666 
L 3578 4134 
L 1259 4134 
L 1259 2753 
L 3481 2753 
L 3481 2222 
L 1259 2222 
L 1259 531 
L 3634 531 
L 3634 0 
L 628 0 
L 628 4666 
z
" transform="scale(0.015625)"/>
       <path id="DejaVuSans-70" d="M 1159 525 
L 1159 -1331 
L 581 -1331 
L 581 3500 
L 1159 3500 
L 1159 2969 
Q 1341 3281 1617 3432 
Q 1894 3584 2278 3584 
Q 2916 3584 3314 3078 
Q 3713 2572 3713 1747 
Q 3713 922 3314 415 
Q 2916 -91 2278 -91 
Q 1894 -91 1617 61 
Q 1341 213 1159 525 
z
M 3116 1747 
Q 3116 2381 2855 2742 
Q 2594 3103 2138 3103 
Q 1681 3103 1420 2742 
Q 1159 2381 1159 1747 
Q 1159 1113 1420 752 
Q 1681 391 2138 391 
Q 2594 391 2855 752 
Q 3116 1113 3116 1747 
z
" transform="scale(0.015625)"/>
       <path id="DejaVuSans-6f" d="M 1959 3097 
Q 1497 3097 1228 2736 
Q 959 2375 959 1747 
Q 959 1119 1226 758 
Q 1494 397 1959 397 
Q 2419 397 2687 759 
Q 2956 1122 2956 1747 
Q 2956 2369 2687 2733 
Q 2419 3097 1959 3097 
z
M 1959 3584 
Q 2709 3584 3137 3096 
Q 3566 2609 3566 1747 
Q 3566 888 3137 398 
Q 2709 -91 1959 -91 
Q 1206 -91 779 398 
Q 353 888 353 1747 
Q 353 2609 779 3096 
Q 1206 3584 1959 3584 
z
" transform="scale(0.015625)"/>
       <path id="DejaVuSans-63" d="M 3122 3366 
L 3122 2828 
Q 2878 2963 2633 3030 
Q 2388 3097 2138 3097 
Q 1578 3097 1268 2742 
Q 959 2388 959 1747 
Q 959 1106 1268 751 
Q 1578 397 2138 397 
Q 2388 397 2633 464 
Q 2878 531 3122 666 
L 3122 134 
Q 2881 22 2623 -34 
Q 2366 -91 2075 -91 
Q 1284 -91 818 406 
Q 353 903 353 1747 
Q 353 2603 823 3093 
Q 1294 3584 2113 3584 
Q 2378 3584 2631 3529 
Q 2884 3475 3122 3366 
z
" transform="scale(0.015625)"/>
       <path id="DejaVuSans-68" d="M 3513 2113 
L 3513 0 
L 2938 0 
L 2938 2094 
Q 2938 2591 2744 2837 
Q 2550 3084 2163 3084 
Q 1697 3084 1428 2787 
Q 1159 2491 1159 1978 
L 1159 0 
L 581 0 
L 581 4863 
L 1159 4863 
L 1159 2956 
Q 1366 3272 1645 3428 
Q 1925 3584 2291 3584 
Q 2894 3584 3203 3211 
Q 3513 2838 3513 2113 
z
" transform="scale(0.015625)"/>
      </defs>
      <use xlink:href="#DejaVuSans-45"/>
      <use xlink:href="#DejaVuSans-70" transform="translate(63.183594 0)"/>
      <use xlink:href="#DejaVuSans-6f" transform="translate(126.660156 0)"/>
      <use xlink:href="#DejaVuSans-63" transform="translate(187.841797 0)"/>
      <use xlink:href="#DejaVuSans-68" transform="translate(242.822266 0)"/>
     </g>
    </g>
   </g>
   <g id="matplotlib.axis_2">
    <g id="ytick_1">
     <g id="line2d_17">
      <path d="M 47.81 348.700885 
L 709.2 348.700885 
" clip-path="url(#paf548b5f7e)" style="fill: none; stroke: #b0b0b0; stroke-width: 0.8; stroke-linecap: square"/>
     </g>
     <g id="line2d_18">
      <defs>
       <path id="m70b2e32605" d="M 0 0 
L -3.5 0 
" style="stroke: #000000; stroke-width: 0.8"/>
      </defs>
      <g>
       <use xlink:href="#m70b2e32605" x="47.81" y="348.700885" style="stroke: #000000; stroke-width: 0.8"/>
      </g>
     </g>
     <g id="text_10">
      <!-- 0.4 -->
      <g transform="translate(24.906875 352.500103) scale(0.1 -0.1)">
       <defs>
        <path id="DejaVuSans-2e" d="M 684 794 
L 1344 794 
L 1344 0 
L 684 0 
L 684 794 
z
" transform="scale(0.015625)"/>
        <path id="DejaVuSans-34" d="M 2419 4116 
L 825 1625 
L 2419 1625 
L 2419 4116 
z
M 2253 4666 
L 3047 4666 
L 3047 1625 
L 3713 1625 
L 3713 1100 
L 3047 1100 
L 3047 0 
L 2419 0 
L 2419 1100 
L 313 1100 
L 313 1709 
L 2253 4666 
z
" transform="scale(0.015625)"/>
       </defs>
       <use xlink:href="#DejaVuSans-30"/>
       <use xlink:href="#DejaVuSans-2e" transform="translate(63.623047 0)"/>
       <use xlink:href="#DejaVuSans-34" transform="translate(95.410156 0)"/>
      </g>
     </g>
    </g>
    <g id="ytick_2">
     <g id="line2d_19">
      <path d="M 47.81 296.556189 
L 709.2 296.556189 
" clip-path="url(#paf548b5f7e)" style="fill: none; stroke: #b0b0b0; stroke-width: 0.8; stroke-linecap: square"/>
     </g>
     <g id="line2d_20">
      <g>
       <use xlink:href="#m70b2e32605" x="47.81" y="296.556189" style="stroke: #000000; stroke-width: 0.8"/>
      </g>
     </g>
     <g id="text_11">
      <!-- 0.5 -->
      <g transform="translate(24.906875 300.355408) scale(0.1 -0.1)">
       <use xlink:href="#DejaVuSans-30"/>
       <use xlink:href="#DejaVuSans-2e" transform="translate(63.623047 0)"/>
       <use xlink:href="#DejaVuSans-35" transform="translate(95.410156 0)"/>
      </g>
     </g>
    </g>
    <g id="ytick_3">
     <g id="line2d_21">
      <path d="M 47.81 244.411493 
L 709.2 244.411493 
" clip-path="url(#paf548b5f7e)" style="fill: none; stroke: #b0b0b0; stroke-width: 0.8; stroke-linecap: square"/>
     </g>
     <g id="line2d_22">
      <g>
       <use xlink:href="#m70b2e32605" x="47.81" y="244.411493" style="stroke: #000000; stroke-width: 0.8"/>
      </g>
     </g>
     <g id="text_12">
      <!-- 0.6 -->
      <g transform="translate(24.906875 248.210712) scale(0.1 -0.1)">
       <defs>
        <path id="DejaVuSans-36" d="M 2113 2584 
Q 1688 2584 1439 2293 
Q 1191 2003 1191 1497 
Q 1191 994 1439 701 
Q 1688 409 2113 409 
Q 2538 409 2786 701 
Q 3034 994 3034 1497 
Q 3034 2003 2786 2293 
Q 2538 2584 2113 2584 
z
M 3366 4563 
L 3366 3988 
Q 3128 4100 2886 4159 
Q 2644 4219 2406 4219 
Q 1781 4219 1451 3797 
Q 1122 3375 1075 2522 
Q 1259 2794 1537 2939 
Q 1816 3084 2150 3084 
Q 2853 3084 3261 2657 
Q 3669 2231 3669 1497 
Q 3669 778 3244 343 
Q 2819 -91 2113 -91 
Q 1303 -91 875 529 
Q 447 1150 447 2328 
Q 447 3434 972 4092 
Q 1497 4750 2381 4750 
Q 2619 4750 2861 4703 
Q 3103 4656 3366 4563 
z
" transform="scale(0.015625)"/>
       </defs>
       <use xlink:href="#DejaVuSans-30"/>
       <use xlink:href="#DejaVuSans-2e" transform="translate(63.623047 0)"/>
       <use xlink:href="#DejaVuSans-36" transform="translate(95.410156 0)"/>
      </g>
     </g>
    </g>
    <g id="ytick_4">
     <g id="line2d_23">
      <path d="M 47.81 192.266798 
L 709.2 192.266798 
" clip-path="url(#paf548b5f7e)" style="fill: none; stroke: #b0b0b0; stroke-width: 0.8; stroke-linecap: square"/>
     </g>
     <g id="line2d_24">
      <g>
       <use xlink:href="#m70b2e32605" x="47.81" y="192.266798" style="stroke: #000000; stroke-width: 0.8"/>
      </g>
     </g>
     <g id="text_13">
      <!-- 0.7 -->
      <g transform="translate(24.906875 196.066016) scale(0.1 -0.1)">
       <defs>
        <path id="DejaVuSans-37" d="M 525 4666 
L 3525 4666 
L 3525 4397 
L 1831 0 
L 1172 0 
L 2766 4134 
L 525 4134 
L 525 4666 
z
" transform="scale(0.015625)"/>
       </defs>
       <use xlink:href="#DejaVuSans-30"/>
       <use xlink:href="#DejaVuSans-2e" transform="translate(63.623047 0)"/>
       <use xlink:href="#DejaVuSans-37" transform="translate(95.410156 0)"/>
      </g>
     </g>
    </g>
    <g id="ytick_5">
     <g id="line2d_25">
      <path d="M 47.81 140.122102 
L 709.2 140.122102 
" clip-path="url(#paf548b5f7e)" style="fill: none; stroke: #b0b0b0; stroke-width: 0.8; stroke-linecap: square"/>
     </g>
     <g id="line2d_26">
      <g>
       <use xlink:href="#m70b2e32605" x="47.81" y="140.122102" style="stroke: #000000; stroke-width: 0.8"/>
      </g>
     </g>
     <g id="text_14">
      <!-- 0.8 -->
      <g transform="translate(24.906875 143.921321) scale(0.1 -0.1)">
       <defs>
        <path id="DejaVuSans-38" d="M 2034 2216 
Q 1584 2216 1326 1975 
Q 1069 1734 1069 1313 
Q 1069 891 1326 650 
Q 1584 409 2034 409 
Q 2484 409 2743 651 
Q 3003 894 3003 1313 
Q 3003 1734 2745 1975 
Q 2488 2216 2034 2216 
z
M 1403 2484 
Q 997 2584 770 2862 
Q 544 3141 544 3541 
Q 544 4100 942 4425 
Q 1341 4750 2034 4750 
Q 2731 4750 3128 4425 
Q 3525 4100 3525 3541 
Q 3525 3141 3298 2862 
Q 3072 2584 2669 2484 
Q 3125 2378 3379 2068 
Q 3634 1759 3634 1313 
Q 3634 634 3220 271 
Q 2806 -91 2034 -91 
Q 1263 -91 848 271 
Q 434 634 434 1313 
Q 434 1759 690 2068 
Q 947 2378 1403 2484 
z
M 1172 3481 
Q 1172 3119 1398 2916 
Q 1625 2713 2034 2713 
Q 2441 2713 2670 2916 
Q 2900 3119 2900 3481 
Q 2900 3844 2670 4047 
Q 2441 4250 2034 4250 
Q 1625 4250 1398 4047 
Q 1172 3844 1172 3481 
z
" transform="scale(0.015625)"/>
       </defs>
       <use xlink:href="#DejaVuSans-30"/>
       <use xlink:href="#DejaVuSans-2e" transform="translate(63.623047 0)"/>
       <use xlink:href="#DejaVuSans-38" transform="translate(95.410156 0)"/>
      </g>
     </g>
    </g>
    <g id="ytick_6">
     <g id="line2d_27">
      <path d="M 47.81 87.977406 
L 709.2 87.977406 
" clip-path="url(#paf548b5f7e)" style="fill: none; stroke: #b0b0b0; stroke-width: 0.8; stroke-linecap: square"/>
     </g>
     <g id="line2d_28">
      <g>
       <use xlink:href="#m70b2e32605" x="47.81" y="87.977406" style="stroke: #000000; stroke-width: 0.8"/>
      </g>
     </g>
     <g id="text_15">
      <!-- 0.9 -->
      <g transform="translate(24.906875 91.776625) scale(0.1 -0.1)">
       <defs>
        <path id="DejaVuSans-39" d="M 703 97 
L 703 672 
Q 941 559 1184 500 
Q 1428 441 1663 441 
Q 2288 441 2617 861 
Q 2947 1281 2994 2138 
Q 2813 1869 2534 1725 
Q 2256 1581 1919 1581 
Q 1219 1581 811 2004 
Q 403 2428 403 3163 
Q 403 3881 828 4315 
Q 1253 4750 1959 4750 
Q 2769 4750 3195 4129 
Q 3622 3509 3622 2328 
Q 3622 1225 3098 567 
Q 2575 -91 1691 -91 
Q 1453 -91 1209 -44 
Q 966 3 703 97 
z
M 1959 2075 
Q 2384 2075 2632 2365 
Q 2881 2656 2881 3163 
Q 2881 3666 2632 3958 
Q 2384 4250 1959 4250 
Q 1534 4250 1286 3958 
Q 1038 3666 1038 3163 
Q 1038 2656 1286 2365 
Q 1534 2075 1959 2075 
z
" transform="scale(0.015625)"/>
       </defs>
       <use xlink:href="#DejaVuSans-30"/>
       <use xlink:href="#DejaVuSans-2e" transform="translate(63.623047 0)"/>
       <use xlink:href="#DejaVuSans-39" transform="translate(95.410156 0)"/>
      </g>
     </g>
    </g>
    <g id="ytick_7">
     <g id="line2d_29">
      <path d="M 47.81 35.832711 
L 709.2 35.832711 
" clip-path="url(#paf548b5f7e)" style="fill: none; stroke: #b0b0b0; stroke-width: 0.8; stroke-linecap: square"/>
     </g>
     <g id="line2d_30">
      <g>
       <use xlink:href="#m70b2e32605" x="47.81" y="35.832711" style="stroke: #000000; stroke-width: 0.8"/>
      </g>
     </g>
     <g id="text_16">
      <!-- 1.0 -->
      <g transform="translate(24.906875 39.63193) scale(0.1 -0.1)">
       <use xlink:href="#DejaVuSans-31"/>
       <use xlink:href="#DejaVuSans-2e" transform="translate(63.623047 0)"/>
       <use xlink:href="#DejaVuSans-30" transform="translate(95.410156 0)"/>
      </g>
     </g>
    </g>
    <g id="text_17">
     <!-- Value -->
     <g transform="translate(18.827188 221.47125) rotate(-90) scale(0.1 -0.1)">
      <defs>
       <path id="DejaVuSans-56" d="M 1831 0 
L 50 4666 
L 709 4666 
L 2188 738 
L 3669 4666 
L 4325 4666 
L 2547 0 
L 1831 0 
z
" transform="scale(0.015625)"/>
       <path id="DejaVuSans-61" d="M 2194 1759 
Q 1497 1759 1228 1600 
Q 959 1441 959 1056 
Q 959 750 1161 570 
Q 1363 391 1709 391 
Q 2188 391 2477 730 
Q 2766 1069 2766 1631 
L 2766 1759 
L 2194 1759 
z
M 3341 1997 
L 3341 0 
L 2766 0 
L 2766 531 
Q 2569 213 2275 61 
Q 1981 -91 1556 -91 
Q 1019 -91 701 211 
Q 384 513 384 1019 
Q 384 1609 779 1909 
Q 1175 2209 1959 2209 
L 2766 2209 
L 2766 2266 
Q 2766 2663 2505 2880 
Q 2244 3097 1772 3097 
Q 1472 3097 1187 3025 
Q 903 2953 641 2809 
L 641 3341 
Q 956 3463 1253 3523 
Q 1550 3584 1831 3584 
Q 2591 3584 2966 3190 
Q 3341 2797 3341 1997 
z
" transform="scale(0.015625)"/>
       <path id="DejaVuSans-6c" d="M 603 4863 
L 1178 4863 
L 1178 0 
L 603 0 
L 603 4863 
z
" transform="scale(0.015625)"/>
       <path id="DejaVuSans-75" d="M 544 1381 
L 544 3500 
L 1119 3500 
L 1119 1403 
Q 1119 906 1312 657 
Q 1506 409 1894 409 
Q 2359 409 2629 706 
Q 2900 1003 2900 1516 
L 2900 3500 
L 3475 3500 
L 3475 0 
L 2900 0 
L 2900 538 
Q 2691 219 2414 64 
Q 2138 -91 1772 -91 
Q 1169 -91 856 284 
Q 544 659 544 1381 
z
M 1991 3584 
L 1991 3584 
z
" transform="scale(0.015625)"/>
       <path id="DejaVuSans-65" d="M 3597 1894 
L 3597 1613 
L 953 1613 
Q 991 1019 1311 708 
Q 1631 397 2203 397 
Q 2534 397 2845 478 
Q 3156 559 3463 722 
L 3463 178 
Q 3153 47 2828 -22 
Q 2503 -91 2169 -91 
Q 1331 -91 842 396 
Q 353 884 353 1716 
Q 353 2575 817 3079 
Q 1281 3584 2069 3584 
Q 2775 3584 3186 3129 
Q 3597 2675 3597 1894 
z
M 3022 2063 
Q 3016 2534 2758 2815 
Q 2500 3097 2075 3097 
Q 1594 3097 1305 2825 
Q 1016 2553 972 2059 
L 3022 2063 
z
" transform="scale(0.015625)"/>
      </defs>
      <use xlink:href="#DejaVuSans-56"/>
      <use xlink:href="#DejaVuSans-61" transform="translate(60.658203 0)"/>
      <use xlink:href="#DejaVuSans-6c" transform="translate(121.9375 0)"/>
      <use xlink:href="#DejaVuSans-75" transform="translate(149.720703 0)"/>
      <use xlink:href="#DejaVuSans-65" transform="translate(213.099609 0)"/>
     </g>
    </g>
   </g>
   <g id="line2d_31">
    <path d="M 77.873182 356.416314 
L 79.463826 353.562798 
L 81.054471 353.80574 
L 82.645115 343.73657 
L 84.23576 358.418234 
L 85.826405 353.118189 
L 87.417049 353.334122 
L 89.007694 355.459899 
L 90.598338 352.202537 
L 92.188983 356.91707 
L 93.779627 352.510531 
L 95.370272 355.216709 
L 96.960916 356.596317 
L 98.551561 351.878522 
L 100.142205 358.465741 
L 101.73285 357.190331 
L 103.323494 353.955487 
L 104.914139 353.674626 
L 106.504784 358.750362 
L 108.095428 355.72783 
L 109.686073 356.302714 
L 111.276717 357.934075 
L 112.867362 357.821066 
L 114.458006 356.56432 
L 116.048651 356.405886 
L 117.639295 358.060869 
L 119.22994 357.069613 
L 120.820584 355.918308 
L 122.411229 359.152375 
L 124.001873 358.160451 
L 125.592518 359.855047 
L 127.183163 359.752652 
L 128.773807 357.419224 
L 130.364452 358.404761 
L 131.955096 358.321776 
L 135.136385 356.741371 
L 136.72703 358.827209 
L 138.317674 359.427284 
L 139.908319 359.569649 
L 141.498963 358.606366 
L 144.680253 360.462674 
L 146.270897 359.389443 
L 147.861542 359.44099 
L 149.452186 360.002618 
L 151.042831 358.947196 
L 152.633475 361.098195 
L 154.22412 360.171324 
L 157.405409 360.469978 
L 158.996053 360.902776 
L 160.586698 362.0874 
L 162.177342 359.563215 
L 163.767987 360.855518 
L 165.358632 360.773915 
L 166.949276 360.913809 
L 168.539921 362.619749 
L 170.130565 360.712609 
L 171.72121 361.998183 
L 173.311854 361.247445 
L 174.902499 360.880398 
L 176.493143 361.994686 
L 179.674432 362.230231 
L 181.265077 361.090285 
L 182.855722 362.938 
L 184.446366 360.179529 
L 186.037011 362.994753 
L 187.627655 362.564286 
L 189.2183 362.296619 
L 190.808944 362.853802 
L 192.399589 362.620884 
L 193.990233 363.638651 
L 195.580878 362.036707 
L 197.171522 362.536204 
L 198.762167 360.664636 
L 200.352811 363.258814 
L 201.943456 362.363536 
L 203.534101 362.598304 
L 205.124745 362.448775 
L 206.71539 363.777721 
L 208.306034 360.905666 
L 209.896679 363.042664 
L 211.487323 364.704469 
L 213.077968 361.733904 
L 214.668612 363.686857 
L 216.259257 362.561893 
L 217.849901 362.397725 
L 219.440546 362.564985 
L 221.03119 364.482227 
L 222.621835 364.414549 
L 224.21248 363.095423 
L 225.803124 362.461284 
L 227.393769 364.713778 
L 228.984413 364.537115 
L 230.575058 361.488584 
L 232.165702 363.550273 
L 233.756347 363.768211 
L 235.346991 364.363732 
L 236.937636 363.754504 
L 238.52828 364.266123 
L 240.118925 363.585923 
L 241.70957 364.627809 
L 243.300214 364.244848 
L 244.890859 365.452612 
L 246.481503 363.693757 
L 248.072148 365.154051 
L 249.662792 363.933202 
L 251.253437 365.048579 
L 252.844081 363.354822 
L 256.02537 364.825746 
L 257.616015 365.009091 
L 259.206659 365.367963 
L 260.797304 365.227401 
L 262.387949 365.21329 
L 263.978593 364.878117 
L 265.569238 364.657895 
L 267.159882 363.9783 
L 268.750527 363.7856 
L 270.341171 364.614537 
L 271.931816 364.447852 
L 273.52246 365.860841 
L 275.113105 363.987516 
L 276.703749 366.290717 
L 278.294394 365.678754 
L 279.885038 364.121955 
L 281.475683 365.537586 
L 283.066328 365.461594 
L 284.656972 364.137527 
L 286.247617 366.541041 
L 287.838261 366.509945 
L 289.428906 364.935274 
L 291.01955 365.158355 
L 292.610195 366.073727 
L 294.200839 365.499279 
L 295.791484 365.239227 
L 297.382128 366.097629 
L 298.972773 365.753084 
L 300.563418 365.699858 
L 302.154062 366.169036 
L 303.744707 367.067501 
L 305.335351 365.493156 
L 306.925996 366.311153 
L 308.51664 366.461101 
L 310.107285 365.8384 
L 311.697929 367.076079 
L 313.288574 366.165773 
L 314.879218 364.833485 
L 316.469863 368.080015 
L 318.060507 365.748422 
L 319.651152 365.748717 
L 321.241797 366.05971 
L 322.832441 366.936744 
L 324.423086 365.518984 
L 326.01373 366.750882 
L 327.604375 366.947529 
L 329.195019 365.968597 
L 330.785664 366.533442 
L 332.376308 365.366596 
L 333.966953 367.34272 
L 335.557597 368.020154 
L 337.148242 366.165819 
L 338.738886 368.254642 
L 340.329531 367.391874 
L 341.920176 366.743438 
L 343.51082 365.831392 
L 345.101465 366.230156 
L 346.692109 367.562429 
L 348.282754 368.418188 
L 349.873398 365.890429 
L 351.464043 368.252016 
L 353.054687 367.980837 
L 354.645332 367.90803 
L 356.235976 366.765086 
L 357.826621 368.185534 
L 359.417266 366.660033 
L 361.00791 366.343088 
L 362.598555 367.374422 
L 364.189199 367.234699 
L 365.779844 367.683923 
L 367.370488 365.964324 
L 368.961133 369.319434 
L 372.142422 367.758377 
L 373.733066 366.012809 
L 375.323711 368.115805 
L 376.914355 367.741702 
L 378.505 367.064253 
L 380.095645 368.423239 
L 381.686289 368.834654 
L 383.276934 367.840119 
L 384.867578 367.56434 
L 386.458223 368.768483 
L 388.048867 366.521118 
L 389.639512 368.519403 
L 392.820801 367.455216 
L 394.411445 369.135887 
L 396.00209 369.492491 
L 397.592734 367.823071 
L 399.183379 368.915992 
L 400.774024 367.241335 
L 402.364668 367.173066 
L 403.955313 368.619715 
L 405.545957 368.882129 
L 407.136602 369.541319 
L 408.727246 368.948673 
L 410.317891 371.319537 
L 411.908535 367.194372 
L 413.49918 368.691434 
L 415.089824 369.210947 
L 416.680469 368.032073 
L 418.271114 367.626129 
L 419.861758 369.095125 
L 421.452403 368.405834 
L 423.043047 370.120476 
L 424.633692 369.002287 
L 426.224336 369.436298 
L 427.814981 369.094006 
L 429.405625 370.097849 
L 430.99627 369.035466 
L 432.586914 368.214253 
L 434.177559 368.516869 
L 435.768203 369.393593 
L 437.358848 369.415893 
L 438.949493 369.30694 
L 440.540137 368.277952 
L 442.130782 369.864371 
L 443.721426 368.684348 
L 445.312071 368.402306 
L 446.902715 369.736506 
L 448.49336 368.305801 
L 451.674649 369.891878 
L 453.265293 369.761168 
L 454.855938 367.832924 
L 456.446582 369.52309 
L 458.037227 369.326427 
L 462.809161 369.262697 
L 464.399805 367.787266 
L 465.99045 370.476552 
L 467.581094 370.400668 
L 469.171739 368.842206 
L 470.762383 369.006592 
L 472.353028 370.095301 
L 475.534317 367.888854 
L 477.124962 371.094016 
L 478.715606 369.735729 
L 480.306251 370.188481 
L 481.896895 368.660788 
L 483.48754 370.946041 
L 485.078184 370.316875 
L 486.668829 369.022971 
L 488.259473 369.540744 
L 489.850118 370.343356 
L 491.440762 368.936893 
L 493.031407 370.561728 
L 494.622051 370.266602 
L 496.212696 370.683829 
L 497.803341 370.721374 
L 499.393985 369.358782 
L 500.98463 369.637793 
L 502.575274 371.265286 
L 504.165919 371.259924 
L 505.756563 368.689445 
L 507.347208 370.172785 
L 510.528497 369.388029 
L 512.119141 370.313347 
L 513.709786 369.827261 
L 515.30043 371.207693 
L 516.891075 370.019355 
L 518.48172 369.990932 
L 520.072364 370.554626 
L 521.663009 369.568748 
L 523.253653 370.411531 
L 524.844298 371.06539 
L 526.434942 370.430739 
L 528.025587 370.173173 
L 529.616231 370.275786 
L 531.206876 371.781023 
L 532.79752 371.292559 
L 534.388165 369.798092 
L 535.97881 371.049291 
L 537.569454 371.355466 
L 539.160099 370.447165 
L 540.750743 370.466606 
L 542.341388 370.610432 
L 543.932032 369.727446 
L 545.522677 371.829058 
L 547.113321 370.527167 
L 548.703966 370.293036 
L 550.29461 370.959265 
L 551.885255 370.22946 
L 553.475899 370.98371 
L 555.066544 370.89569 
L 556.657189 370.162155 
L 558.247833 370.371561 
L 559.838478 371.289187 
L 561.429122 371.348799 
L 563.019767 371.6675 
L 564.610411 370.757536 
L 566.201056 371.153551 
L 569.382345 370.390318 
L 570.972989 371.559697 
L 572.563634 370.405315 
L 574.154278 371.980234 
L 575.744923 370.211993 
L 577.335568 371.774216 
L 580.516857 371.119315 
L 582.107501 370.558605 
L 583.698146 370.748663 
L 585.28879 370.33801 
L 586.879435 371.308503 
L 588.470079 371.795926 
L 590.060724 370.041547 
L 591.651368 371.489843 
L 593.242013 371.080713 
L 594.832658 370.38864 
L 596.423302 371.072306 
L 598.013947 371.935493 
L 599.604591 370.444943 
L 601.195236 371.634617 
L 602.78588 372.220208 
L 604.376525 370.593508 
L 605.967169 370.715407 
L 607.557814 371.891172 
L 610.739103 371.013905 
L 612.329747 371.909215 
L 613.920392 371.77145 
L 615.511037 372.19741 
L 617.101681 370.364055 
L 620.28297 371.989325 
L 621.873615 371.032662 
L 623.464259 370.824033 
L 625.054904 372.127385 
L 626.645548 370.810607 
L 628.236193 371.374488 
L 629.826837 371.163901 
L 631.417482 371.900512 
L 633.008127 371.877326 
L 634.598771 370.394001 
L 636.189416 372.295268 
L 637.78006 372.434898 
L 639.370705 371.930241 
L 640.961349 372.36652 
L 644.142638 372.224559 
L 645.733283 371.804473 
L 647.323927 372.0805 
L 648.914572 372.650411 
L 650.505216 371.964725 
L 652.095861 371.759219 
L 653.686506 372.060174 
L 655.27715 370.952459 
L 656.867795 372.046234 
L 658.458439 372.59386 
L 660.049084 371.727859 
L 663.230373 372.666293 
L 664.821017 372.451681 
L 666.411662 372.931566 
L 668.002306 371.759453 
L 669.592951 371.193598 
L 671.183595 372.44071 
L 672.77424 371.270398 
L 674.364885 372.402092 
L 675.955529 371.807985 
L 677.546174 371.66433 
L 679.136818 373.467273 
L 679.136818 373.467273 
" clip-path="url(#paf548b5f7e)" style="fill: none; stroke: #ff0000; stroke-width: 1.5; stroke-linecap: square"/>
   </g>
   <g id="line2d_32">
    <path d="M 77.873182 50.480374 
L 79.463826 51.358216 
L 81.054471 53.153248 
L 82.645115 53.277633 
L 84.23576 51.038675 
L 85.826405 51.96721 
L 87.417049 53.088663 
L 89.007694 51.968516 
L 90.598338 53.928462 
L 92.188983 51.052071 
L 93.779627 52.730303 
L 95.370272 51.756763 
L 96.960916 51.533324 
L 98.551561 53.18551 
L 100.142205 50.277665 
L 101.73285 51.431131 
L 103.323494 50.857475 
L 104.914139 51.427339 
L 106.504784 50.121485 
L 108.095428 52.19643 
L 109.686073 51.688417 
L 111.276717 50.360837 
L 112.867362 49.915451 
L 114.458006 49.729434 
L 116.048651 51.681983 
L 117.639295 50.738996 
L 119.22994 51.7443 
L 120.820584 50.940989 
L 122.411229 49.103718 
L 124.001873 50.569326 
L 125.592518 49.678524 
L 127.183163 49.668516 
L 128.773807 50.72877 
L 130.364452 49.681601 
L 131.955096 51.113238 
L 133.545741 50.012827 
L 135.136385 50.474406 
L 136.72703 50.074056 
L 138.317674 49.947589 
L 139.908319 49.032108 
L 141.498963 49.642719 
L 143.089608 49.857144 
L 144.680253 49.585996 
L 146.270897 49.489709 
L 147.861542 49.941248 
L 154.22412 48.362972 
L 155.814764 49.696675 
L 157.405409 48.691899 
L 158.996053 49.008518 
L 160.586698 48.753408 
L 162.177342 49.537977 
L 163.767987 49.258779 
L 165.358632 48.450371 
L 166.949276 50.391017 
L 168.539921 49.241032 
L 170.130565 49.311243 
L 171.72121 48.51937 
L 173.311854 48.645123 
L 174.902499 49.503011 
L 176.493143 48.384138 
L 178.083788 47.724047 
L 179.674432 48.201104 
L 181.265077 49.026234 
L 182.855722 48.445181 
L 184.446366 49.309689 
L 186.037011 48.121818 
L 187.627655 47.840631 
L 189.2183 48.462617 
L 190.808944 48.173753 
L 192.399589 48.359864 
L 193.990233 47.842682 
L 195.580878 48.582495 
L 197.171522 47.55385 
L 198.762167 50.019882 
L 200.352811 47.579895 
L 201.943456 48.63269 
L 203.534101 48.597258 
L 205.124745 47.464182 
L 206.71539 46.84462 
L 208.306034 48.013564 
L 209.896679 47.860336 
L 211.487323 46.486105 
L 213.077968 48.224788 
L 214.668612 47.892473 
L 216.259257 48.307587 
L 217.849901 48.078056 
L 219.440546 47.392199 
L 221.03119 47.063304 
L 222.621835 47.290565 
L 224.21248 48.039796 
L 225.803124 48.147956 
L 227.393769 48.029726 
L 228.984413 47.201675 
L 230.575058 48.852244 
L 232.165702 47.591084 
L 233.756347 48.542152 
L 235.346991 47.372121 
L 236.937636 47.908169 
L 238.52828 47.540081 
L 240.118925 47.473475 
L 241.70957 46.025489 
L 243.300214 46.950387 
L 244.890859 46.940411 
L 246.481503 47.849613 
L 248.072148 46.229534 
L 249.662792 47.056839 
L 251.253437 46.011534 
L 252.844081 46.955143 
L 254.434726 47.301319 
L 257.616015 47.094571 
L 259.206659 46.03528 
L 260.797304 46.088614 
L 262.387949 47.028649 
L 263.978593 46.464876 
L 267.159882 47.343931 
L 268.750527 48.058724 
L 270.341171 47.222623 
L 271.931816 47.053855 
L 273.52246 46.677593 
L 275.113105 46.85152 
L 278.294394 46.33095 
L 279.885038 46.454433 
L 281.475683 46.791752 
L 283.066328 46.352831 
L 284.656972 46.923503 
L 286.247617 44.898007 
L 287.838261 46.412412 
L 289.428906 46.722939 
L 291.01955 47.298708 
L 292.610195 46.972362 
L 294.200839 45.864802 
L 295.791484 46.009545 
L 297.382128 45.947974 
L 298.972773 46.530674 
L 300.563418 45.913879 
L 302.154062 46.704757 
L 303.744707 45.128191 
L 305.335351 46.231399 
L 308.51664 45.870925 
L 310.107285 46.342947 
L 311.697929 45.195325 
L 313.288574 45.909652 
L 314.879218 46.422949 
L 316.469863 45.819828 
L 318.060507 45.635147 
L 319.651152 46.024899 
L 321.241797 45.917546 
L 322.832441 45.009369 
L 324.423086 45.875836 
L 326.01373 45.9536 
L 327.604375 45.648605 
L 329.195019 46.010477 
L 330.785664 46.577513 
L 332.376308 46.998345 
L 333.966953 45.705358 
L 335.557597 45.414692 
L 337.148242 45.445307 
L 338.738886 44.874448 
L 340.329531 45.123746 
L 343.51082 46.654997 
L 345.101465 46.418784 
L 346.692109 45.520677 
L 348.282754 44.403483 
L 349.873398 46.231399 
L 351.464043 44.988048 
L 356.235976 45.575721 
L 357.826621 44.734989 
L 359.417266 45.13335 
L 361.00791 45.378856 
L 364.189199 45.412299 
L 365.779844 45.121477 
L 367.370488 45.695723 
L 368.961133 44.409233 
L 370.551777 45.055493 
L 372.142422 44.771789 
L 373.733066 45.563164 
L 375.323711 45.029696 
L 376.914355 44.829692 
L 378.505 45.772679 
L 380.095645 45.554835 
L 381.686289 44.837804 
L 383.276934 45.178386 
L 386.458223 45.341466 
L 388.048867 45.214688 
L 389.639512 44.711088 
L 391.230156 45.217423 
L 392.820801 45.869122 
L 394.411445 44.690388 
L 396.00209 43.893263 
L 397.592734 44.751244 
L 399.183379 44.361648 
L 400.774024 45.595861 
L 402.364668 45.967151 
L 403.955313 43.883068 
L 405.545957 44.650294 
L 407.136602 44.237978 
L 408.727246 44.818223 
L 410.317891 42.228458 
L 411.908535 45.575317 
L 413.49918 45.470575 
L 415.089824 44.418557 
L 416.680469 44.883399 
L 418.271114 45.5268 
L 419.861758 44.80433 
L 421.452403 44.266075 
L 423.043047 44.933626 
L 424.633692 44.572655 
L 426.224336 44.386419 
L 427.814981 44.52967 
L 429.405625 44.356116 
L 430.99627 44.854836 
L 435.768203 44.947208 
L 437.358848 44.600037 
L 440.540137 44.809925 
L 442.130782 44.515777 
L 443.721426 43.961174 
L 445.312071 44.752394 
L 446.902715 44.245313 
L 448.49336 45.033177 
L 450.084004 44.92396 
L 453.265293 44.016435 
L 454.855938 45.134935 
L 456.446582 43.585005 
L 458.037227 44.656169 
L 459.627872 44.173828 
L 461.218516 44.701204 
L 462.809161 44.288702 
L 464.399805 44.488457 
L 465.99045 43.748365 
L 467.581094 43.800456 
L 469.171739 44.550215 
L 470.762383 44.81266 
L 472.353028 44.581295 
L 473.943672 44.06461 
L 475.534317 44.891884 
L 477.124962 43.311837 
L 478.715606 43.918624 
L 480.306251 43.2498 
L 481.896895 45.109138 
L 483.48754 43.506712 
L 485.078184 43.71716 
L 486.668829 45.165643 
L 488.259473 44.385487 
L 489.850118 44.368672 
L 491.440762 44.588817 
L 493.031407 43.643871 
L 494.622051 44.614116 
L 496.212696 43.663079 
L 497.803341 44.209446 
L 499.393985 44.609392 
L 500.98463 44.860524 
L 502.575274 43.444924 
L 504.165919 43.614562 
L 505.756563 44.41865 
L 507.347208 44.148124 
L 508.937852 44.490726 
L 510.528497 44.533835 
L 512.119141 43.676226 
L 513.709786 44.112848 
L 515.30043 43.448188 
L 516.891075 44.118597 
L 518.48172 44.301694 
L 520.072364 44.226696 
L 521.663009 43.180832 
L 523.253653 44.298306 
L 524.844298 44.051525 
L 526.434942 44.28202 
L 528.025587 43.267422 
L 529.616231 43.461304 
L 531.206876 43.186955 
L 532.79752 43.524055 
L 534.388165 44.381726 
L 535.97881 43.316157 
L 539.160099 44.004687 
L 540.750743 43.679707 
L 542.341388 43.587305 
L 543.932032 44.413304 
L 545.522677 43.177568 
L 547.113321 44.026941 
L 548.703966 43.96394 
L 550.29461 43.187825 
L 551.885255 43.602099 
L 555.066544 43.797721 
L 556.657189 43.234632 
L 558.247833 43.977864 
L 559.838478 43.153947 
L 563.019767 43.397961 
L 564.610411 43.084109 
L 566.201056 43.847077 
L 567.7917 43.624943 
L 569.382345 44.007267 
L 570.972989 43.278518 
L 572.563634 43.768381 
L 574.154278 43.423945 
L 575.744923 43.749421 
L 580.516857 43.010479 
L 582.107501 43.704261 
L 583.698146 43.39389 
L 585.28879 43.927731 
L 586.879435 43.299249 
L 588.470079 43.043704 
L 590.060724 43.426338 
L 591.651368 43.368248 
L 593.242013 42.971099 
L 596.423302 43.957382 
L 598.013947 43.496984 
L 599.604591 43.90585 
L 601.195236 42.997021 
L 602.78588 43.940754 
L 604.376525 43.462485 
L 605.967169 44.260108 
L 607.557814 42.699983 
L 610.739103 43.491576 
L 612.329747 43.373967 
L 613.920392 42.562948 
L 615.511037 42.703992 
L 617.101681 44.28923 
L 618.692326 43.58401 
L 620.28297 43.149627 
L 621.873615 43.243863 
L 623.464259 43.88198 
L 625.054904 43.425157 
L 626.645548 43.143535 
L 628.236193 43.951725 
L 629.826837 43.572572 
L 631.417482 43.437682 
L 633.008127 42.834531 
L 634.598771 43.570801 
L 636.189416 42.423614 
L 637.78006 42.796115 
L 639.370705 42.462216 
L 640.961349 42.658801 
L 642.551994 42.595738 
L 645.733283 42.968862 
L 648.914572 42.73327 
L 650.505216 43.061544 
L 652.095861 42.730784 
L 653.686506 42.744148 
L 655.27715 43.327595 
L 656.867795 43.155346 
L 658.458439 42.852651 
L 661.639728 42.957269 
L 663.230373 42.143608 
L 664.821017 42.858183 
L 666.411662 42.252079 
L 668.002306 43.063129 
L 669.592951 43.674983 
L 671.183595 42.562296 
L 672.77424 43.13533 
L 674.364885 43.190436 
L 675.955529 42.978963 
L 677.546174 43.470503 
L 679.136818 42.012727 
L 679.136818 42.012727 
" clip-path="url(#paf548b5f7e)" style="fill: none; stroke: #0000ff; stroke-width: 1.5; stroke-linecap: square"/>
   </g>
   <g id="patch_3">
    <path d="M 47.81 390.04 
L 47.81 25.44 
" style="fill: none; stroke: #000000; stroke-width: 0.8; stroke-linejoin: miter; stroke-linecap: square"/>
   </g>
   <g id="patch_4">
    <path d="M 709.2 390.04 
L 709.2 25.44 
" style="fill: none; stroke: #000000; stroke-width: 0.8; stroke-linejoin: miter; stroke-linecap: square"/>
   </g>
   <g id="patch_5">
    <path d="M 47.81 390.04 
L 709.2 390.04 
" style="fill: none; stroke: #000000; stroke-width: 0.8; stroke-linejoin: miter; stroke-linecap: square"/>
   </g>
   <g id="patch_6">
    <path d="M 47.81 25.44 
L 709.2 25.44 
" style="fill: none; stroke: #000000; stroke-width: 0.8; stroke-linejoin: miter; stroke-linecap: square"/>
   </g>
   <g id="text_18">
    <!-- gan_IS_FID_mnist_generatorcnn_discriminatorcnn Trial 9 -->
    <g transform="translate(209.435313 19.44) scale(0.12 -0.12)">
     <defs>
      <path id="DejaVuSans-67" d="M 2906 1791 
Q 2906 2416 2648 2759 
Q 2391 3103 1925 3103 
Q 1463 3103 1205 2759 
Q 947 2416 947 1791 
Q 947 1169 1205 825 
Q 1463 481 1925 481 
Q 2391 481 2648 825 
Q 2906 1169 2906 1791 
z
M 3481 434 
Q 3481 -459 3084 -895 
Q 2688 -1331 1869 -1331 
Q 1566 -1331 1297 -1286 
Q 1028 -1241 775 -1147 
L 775 -588 
Q 1028 -725 1275 -790 
Q 1522 -856 1778 -856 
Q 2344 -856 2625 -561 
Q 2906 -266 2906 331 
L 2906 616 
Q 2728 306 2450 153 
Q 2172 0 1784 0 
Q 1141 0 747 490 
Q 353 981 353 1791 
Q 353 2603 747 3093 
Q 1141 3584 1784 3584 
Q 2172 3584 2450 3431 
Q 2728 3278 2906 2969 
L 2906 3500 
L 3481 3500 
L 3481 434 
z
" transform="scale(0.015625)"/>
      <path id="DejaVuSans-6e" d="M 3513 2113 
L 3513 0 
L 2938 0 
L 2938 2094 
Q 2938 2591 2744 2837 
Q 2550 3084 2163 3084 
Q 1697 3084 1428 2787 
Q 1159 2491 1159 1978 
L 1159 0 
L 581 0 
L 581 3500 
L 1159 3500 
L 1159 2956 
Q 1366 3272 1645 3428 
Q 1925 3584 2291 3584 
Q 2894 3584 3203 3211 
Q 3513 2838 3513 2113 
z
" transform="scale(0.015625)"/>
      <path id="DejaVuSans-5f" d="M 3263 -1063 
L 3263 -1509 
L -63 -1509 
L -63 -1063 
L 3263 -1063 
z
" transform="scale(0.015625)"/>
      <path id="DejaVuSans-49" d="M 628 4666 
L 1259 4666 
L 1259 0 
L 628 0 
L 628 4666 
z
" transform="scale(0.015625)"/>
      <path id="DejaVuSans-53" d="M 3425 4513 
L 3425 3897 
Q 3066 4069 2747 4153 
Q 2428 4238 2131 4238 
Q 1616 4238 1336 4038 
Q 1056 3838 1056 3469 
Q 1056 3159 1242 3001 
Q 1428 2844 1947 2747 
L 2328 2669 
Q 3034 2534 3370 2195 
Q 3706 1856 3706 1288 
Q 3706 609 3251 259 
Q 2797 -91 1919 -91 
Q 1588 -91 1214 -16 
Q 841 59 441 206 
L 441 856 
Q 825 641 1194 531 
Q 1563 422 1919 422 
Q 2459 422 2753 634 
Q 3047 847 3047 1241 
Q 3047 1584 2836 1778 
Q 2625 1972 2144 2069 
L 1759 2144 
Q 1053 2284 737 2584 
Q 422 2884 422 3419 
Q 422 4038 858 4394 
Q 1294 4750 2059 4750 
Q 2388 4750 2728 4690 
Q 3069 4631 3425 4513 
z
" transform="scale(0.015625)"/>
      <path id="DejaVuSans-46" d="M 628 4666 
L 3309 4666 
L 3309 4134 
L 1259 4134 
L 1259 2759 
L 3109 2759 
L 3109 2228 
L 1259 2228 
L 1259 0 
L 628 0 
L 628 4666 
z
" transform="scale(0.015625)"/>
      <path id="DejaVuSans-44" d="M 1259 4147 
L 1259 519 
L 2022 519 
Q 2988 519 3436 956 
Q 3884 1394 3884 2338 
Q 3884 3275 3436 3711 
Q 2988 4147 2022 4147 
L 1259 4147 
z
M 628 4666 
L 1925 4666 
Q 3281 4666 3915 4102 
Q 4550 3538 4550 2338 
Q 4550 1131 3912 565 
Q 3275 0 1925 0 
L 628 0 
L 628 4666 
z
" transform="scale(0.015625)"/>
      <path id="DejaVuSans-6d" d="M 3328 2828 
Q 3544 3216 3844 3400 
Q 4144 3584 4550 3584 
Q 5097 3584 5394 3201 
Q 5691 2819 5691 2113 
L 5691 0 
L 5113 0 
L 5113 2094 
Q 5113 2597 4934 2840 
Q 4756 3084 4391 3084 
Q 3944 3084 3684 2787 
Q 3425 2491 3425 1978 
L 3425 0 
L 2847 0 
L 2847 2094 
Q 2847 2600 2669 2842 
Q 2491 3084 2119 3084 
Q 1678 3084 1418 2786 
Q 1159 2488 1159 1978 
L 1159 0 
L 581 0 
L 581 3500 
L 1159 3500 
L 1159 2956 
Q 1356 3278 1631 3431 
Q 1906 3584 2284 3584 
Q 2666 3584 2933 3390 
Q 3200 3197 3328 2828 
z
" transform="scale(0.015625)"/>
      <path id="DejaVuSans-69" d="M 603 3500 
L 1178 3500 
L 1178 0 
L 603 0 
L 603 3500 
z
M 603 4863 
L 1178 4863 
L 1178 4134 
L 603 4134 
L 603 4863 
z
" transform="scale(0.015625)"/>
      <path id="DejaVuSans-73" d="M 2834 3397 
L 2834 2853 
Q 2591 2978 2328 3040 
Q 2066 3103 1784 3103 
Q 1356 3103 1142 2972 
Q 928 2841 928 2578 
Q 928 2378 1081 2264 
Q 1234 2150 1697 2047 
L 1894 2003 
Q 2506 1872 2764 1633 
Q 3022 1394 3022 966 
Q 3022 478 2636 193 
Q 2250 -91 1575 -91 
Q 1294 -91 989 -36 
Q 684 19 347 128 
L 347 722 
Q 666 556 975 473 
Q 1284 391 1588 391 
Q 1994 391 2212 530 
Q 2431 669 2431 922 
Q 2431 1156 2273 1281 
Q 2116 1406 1581 1522 
L 1381 1569 
Q 847 1681 609 1914 
Q 372 2147 372 2553 
Q 372 3047 722 3315 
Q 1072 3584 1716 3584 
Q 2034 3584 2315 3537 
Q 2597 3491 2834 3397 
z
" transform="scale(0.015625)"/>
      <path id="DejaVuSans-74" d="M 1172 4494 
L 1172 3500 
L 2356 3500 
L 2356 3053 
L 1172 3053 
L 1172 1153 
Q 1172 725 1289 603 
Q 1406 481 1766 481 
L 2356 481 
L 2356 0 
L 1766 0 
Q 1100 0 847 248 
Q 594 497 594 1153 
L 594 3053 
L 172 3053 
L 172 3500 
L 594 3500 
L 594 4494 
L 1172 4494 
z
" transform="scale(0.015625)"/>
      <path id="DejaVuSans-72" d="M 2631 2963 
Q 2534 3019 2420 3045 
Q 2306 3072 2169 3072 
Q 1681 3072 1420 2755 
Q 1159 2438 1159 1844 
L 1159 0 
L 581 0 
L 581 3500 
L 1159 3500 
L 1159 2956 
Q 1341 3275 1631 3429 
Q 1922 3584 2338 3584 
Q 2397 3584 2469 3576 
Q 2541 3569 2628 3553 
L 2631 2963 
z
" transform="scale(0.015625)"/>
      <path id="DejaVuSans-64" d="M 2906 2969 
L 2906 4863 
L 3481 4863 
L 3481 0 
L 2906 0 
L 2906 525 
Q 2725 213 2448 61 
Q 2172 -91 1784 -91 
Q 1150 -91 751 415 
Q 353 922 353 1747 
Q 353 2572 751 3078 
Q 1150 3584 1784 3584 
Q 2172 3584 2448 3432 
Q 2725 3281 2906 2969 
z
M 947 1747 
Q 947 1113 1208 752 
Q 1469 391 1925 391 
Q 2381 391 2643 752 
Q 2906 1113 2906 1747 
Q 2906 2381 2643 2742 
Q 2381 3103 1925 3103 
Q 1469 3103 1208 2742 
Q 947 2381 947 1747 
z
" transform="scale(0.015625)"/>
      <path id="DejaVuSans-20" transform="scale(0.015625)"/>
      <path id="DejaVuSans-54" d="M -19 4666 
L 3928 4666 
L 3928 4134 
L 2272 4134 
L 2272 0 
L 1638 0 
L 1638 4134 
L -19 4134 
L -19 4666 
z
" transform="scale(0.015625)"/>
     </defs>
     <use xlink:href="#DejaVuSans-67"/>
     <use xlink:href="#DejaVuSans-61" transform="translate(63.476562 0)"/>
     <use xlink:href="#DejaVuSans-6e" transform="translate(124.755859 0)"/>
     <use xlink:href="#DejaVuSans-5f" transform="translate(188.134766 0)"/>
     <use xlink:href="#DejaVuSans-49" transform="translate(238.134766 0)"/>
     <use xlink:href="#DejaVuSans-53" transform="translate(267.626953 0)"/>
     <use xlink:href="#DejaVuSans-5f" transform="translate(331.103516 0)"/>
     <use xlink:href="#DejaVuSans-46" transform="translate(381.103516 0)"/>
     <use xlink:href="#DejaVuSans-49" transform="translate(438.623047 0)"/>
     <use xlink:href="#DejaVuSans-44" transform="translate(468.115234 0)"/>
     <use xlink:href="#DejaVuSans-5f" transform="translate(545.117188 0)"/>
     <use xlink:href="#DejaVuSans-6d" transform="translate(595.117188 0)"/>
     <use xlink:href="#DejaVuSans-6e" transform="translate(692.529297 0)"/>
     <use xlink:href="#DejaVuSans-69" transform="translate(755.908203 0)"/>
     <use xlink:href="#DejaVuSans-73" transform="translate(783.691406 0)"/>
     <use xlink:href="#DejaVuSans-74" transform="translate(835.791016 0)"/>
     <use xlink:href="#DejaVuSans-5f" transform="translate(875 0)"/>
     <use xlink:href="#DejaVuSans-67" transform="translate(925 0)"/>
     <use xlink:href="#DejaVuSans-65" transform="translate(988.476562 0)"/>
     <use xlink:href="#DejaVuSans-6e" transform="translate(1050 0)"/>
     <use xlink:href="#DejaVuSans-65" transform="translate(1113.378906 0)"/>
     <use xlink:href="#DejaVuSans-72" transform="translate(1174.902344 0)"/>
     <use xlink:href="#DejaVuSans-61" transform="translate(1216.015625 0)"/>
     <use xlink:href="#DejaVuSans-74" transform="translate(1277.294922 0)"/>
     <use xlink:href="#DejaVuSans-6f" transform="translate(1316.503906 0)"/>
     <use xlink:href="#DejaVuSans-72" transform="translate(1377.685547 0)"/>
     <use xlink:href="#DejaVuSans-63" transform="translate(1416.548828 0)"/>
     <use xlink:href="#DejaVuSans-6e" transform="translate(1471.529297 0)"/>
     <use xlink:href="#DejaVuSans-6e" transform="translate(1534.908203 0)"/>
     <use xlink:href="#DejaVuSans-5f" transform="translate(1598.287109 0)"/>
     <use xlink:href="#DejaVuSans-64" transform="translate(1648.287109 0)"/>
     <use xlink:href="#DejaVuSans-69" transform="translate(1711.763672 0)"/>
     <use xlink:href="#DejaVuSans-73" transform="translate(1739.546875 0)"/>
     <use xlink:href="#DejaVuSans-63" transform="translate(1791.646484 0)"/>
     <use xlink:href="#DejaVuSans-72" transform="translate(1846.626953 0)"/>
     <use xlink:href="#DejaVuSans-69" transform="translate(1887.740234 0)"/>
     <use xlink:href="#DejaVuSans-6d" transform="translate(1915.523438 0)"/>
     <use xlink:href="#DejaVuSans-69" transform="translate(2012.935547 0)"/>
     <use xlink:href="#DejaVuSans-6e" transform="translate(2040.71875 0)"/>
     <use xlink:href="#DejaVuSans-61" transform="translate(2104.097656 0)"/>
     <use xlink:href="#DejaVuSans-74" transform="translate(2165.376953 0)"/>
     <use xlink:href="#DejaVuSans-6f" transform="translate(2204.585938 0)"/>
     <use xlink:href="#DejaVuSans-72" transform="translate(2265.767578 0)"/>
     <use xlink:href="#DejaVuSans-63" transform="translate(2304.630859 0)"/>
     <use xlink:href="#DejaVuSans-6e" transform="translate(2359.611328 0)"/>
     <use xlink:href="#DejaVuSans-6e" transform="translate(2422.990234 0)"/>
     <use xlink:href="#DejaVuSans-20" transform="translate(2486.369141 0)"/>
     <use xlink:href="#DejaVuSans-54" transform="translate(2518.15625 0)"/>
     <use xlink:href="#DejaVuSans-72" transform="translate(2564.490234 0)"/>
     <use xlink:href="#DejaVuSans-69" transform="translate(2605.603516 0)"/>
     <use xlink:href="#DejaVuSans-61" transform="translate(2633.386719 0)"/>
     <use xlink:href="#DejaVuSans-6c" transform="translate(2694.666016 0)"/>
     <use xlink:href="#DejaVuSans-20" transform="translate(2722.449219 0)"/>
     <use xlink:href="#DejaVuSans-39" transform="translate(2754.236328 0)"/>
    </g>
   </g>
   <g id="legend_1">
    <g id="patch_7">
     <path d="M 580.026563 224.19625 
L 702.2 224.19625 
Q 704.2 224.19625 704.2 222.19625 
L 704.2 193.28375 
Q 704.2 191.28375 702.2 191.28375 
L 580.026563 191.28375 
Q 578.026563 191.28375 578.026563 193.28375 
L 578.026563 222.19625 
Q 578.026563 224.19625 580.026563 224.19625 
z
" style="fill: #ffffff; opacity: 0.8; stroke: #cccccc; stroke-linejoin: miter"/>
    </g>
    <g id="line2d_33">
     <path d="M 582.026563 199.382188 
L 592.026563 199.382188 
L 602.026563 199.382188 
" style="fill: none; stroke: #ff0000; stroke-width: 1.5; stroke-linecap: square"/>
    </g>
    <g id="text_19">
     <!-- discriminator_loss -->
     <g transform="translate(610.026563 202.882188) scale(0.1 -0.1)">
      <use xlink:href="#DejaVuSans-64"/>
      <use xlink:href="#DejaVuSans-69" transform="translate(63.476562 0)"/>
      <use xlink:href="#DejaVuSans-73" transform="translate(91.259766 0)"/>
      <use xlink:href="#DejaVuSans-63" transform="translate(143.359375 0)"/>
      <use xlink:href="#DejaVuSans-72" transform="translate(198.339844 0)"/>
      <use xlink:href="#DejaVuSans-69" transform="translate(239.453125 0)"/>
      <use xlink:href="#DejaVuSans-6d" transform="translate(267.236328 0)"/>
      <use xlink:href="#DejaVuSans-69" transform="translate(364.648438 0)"/>
      <use xlink:href="#DejaVuSans-6e" transform="translate(392.431641 0)"/>
      <use xlink:href="#DejaVuSans-61" transform="translate(455.810547 0)"/>
      <use xlink:href="#DejaVuSans-74" transform="translate(517.089844 0)"/>
      <use xlink:href="#DejaVuSans-6f" transform="translate(556.298828 0)"/>
      <use xlink:href="#DejaVuSans-72" transform="translate(617.480469 0)"/>
      <use xlink:href="#DejaVuSans-5f" transform="translate(658.59375 0)"/>
      <use xlink:href="#DejaVuSans-6c" transform="translate(708.59375 0)"/>
      <use xlink:href="#DejaVuSans-6f" transform="translate(736.376953 0)"/>
      <use xlink:href="#DejaVuSans-73" transform="translate(797.558594 0)"/>
      <use xlink:href="#DejaVuSans-73" transform="translate(849.658203 0)"/>
     </g>
    </g>
    <g id="line2d_34">
     <path d="M 582.026563 214.338437 
L 592.026563 214.338437 
L 602.026563 214.338437 
" style="fill: none; stroke: #0000ff; stroke-width: 1.5; stroke-linecap: square"/>
    </g>
    <g id="text_20">
     <!-- generator_loss -->
     <g transform="translate(610.026563 217.838437) scale(0.1 -0.1)">
      <use xlink:href="#DejaVuSans-67"/>
      <use xlink:href="#DejaVuSans-65" transform="translate(63.476562 0)"/>
      <use xlink:href="#DejaVuSans-6e" transform="translate(125 0)"/>
      <use xlink:href="#DejaVuSans-65" transform="translate(188.378906 0)"/>
      <use xlink:href="#DejaVuSans-72" transform="translate(249.902344 0)"/>
      <use xlink:href="#DejaVuSans-61" transform="translate(291.015625 0)"/>
      <use xlink:href="#DejaVuSans-74" transform="translate(352.294922 0)"/>
      <use xlink:href="#DejaVuSans-6f" transform="translate(391.503906 0)"/>
      <use xlink:href="#DejaVuSans-72" transform="translate(452.685547 0)"/>
      <use xlink:href="#DejaVuSans-5f" transform="translate(493.798828 0)"/>
      <use xlink:href="#DejaVuSans-6c" transform="translate(543.798828 0)"/>
      <use xlink:href="#DejaVuSans-6f" transform="translate(571.582031 0)"/>
      <use xlink:href="#DejaVuSans-73" transform="translate(632.763672 0)"/>
      <use xlink:href="#DejaVuSans-73" transform="translate(684.863281 0)"/>
     </g>
    </g>
   </g>
  </g>
 </g>
 <defs>
  <clipPath id="paf548b5f7e">
   <rect x="47.81" y="25.44" width="661.39" height="364.6"/>
  </clipPath>
 </defs>
</svg>
