<?xml version="1.0" encoding="utf-8" standalone="no"?>
<!DOCTYPE svg PUBLIC "-//W3C//DTD SVG 1.1//EN"
  "http://www.w3.org/Graphics/SVG/1.1/DTD/svg11.dtd">
<svg xmlns:xlink="http://www.w3.org/1999/xlink" width="720pt" height="432pt" viewBox="0 0 720 432" xmlns="http://www.w3.org/2000/svg" version="1.1">
 <metadata>
  <rdf:RDF xmlns:dc="http://purl.org/dc/elements/1.1/" xmlns:cc="http://creativecommons.org/ns#" xmlns:rdf="http://www.w3.org/1999/02/22-rdf-syntax-ns#">
   <cc:Work>
    <dc:type rdf:resource="http://purl.org/dc/dcmitype/StillImage"/>
    <dc:date>2025-06-22T15:36:10.899028</dc:date>
    <dc:format>image/svg+xml</dc:format>
    <dc:creator>
     <cc:Agent>
      <dc:title>Matplotlib v3.10.1, https://matplotlib.org/</dc:title>
     </cc:Agent>
    </dc:creator>
   </cc:Work>
  </rdf:RDF>
 </metadata>
 <defs>
  <style type="text/css">*{stroke-linejoin: round; stroke-linecap: butt}</style>
 </defs>
 <g id="figure_1">
  <g id="patch_1">
   <path d="M 0 432 
L 720 432 
L 720 0 
L 0 0 
z
" style="fill: #ffffff"/>
  </g>
  <g id="axes_1">
   <g id="patch_2">
    <path d="M 47.81 390.04 
L 709.2 390.04 
L 709.2 25.44 
L 47.81 25.44 
z
" style="fill: #ffffff"/>
   </g>
   <g id="matplotlib.axis_1">
    <g id="xtick_1">
     <g id="line2d_1">
      <path d="M 77.873182 390.04 
L 77.873182 25.44 
" clip-path="url(#p8b5fc06c90)" style="fill: none; stroke: #b0b0b0; stroke-width: 0.8; stroke-linecap: square"/>
     </g>
     <g id="line2d_2">
      <defs>
       <path id="m050880612f" d="M 0 0 
L 0 3.5 
" style="stroke: #000000; stroke-width: 0.8"/>
      </defs>
      <g>
       <use xlink:href="#m050880612f" x="77.873182" y="390.04" style="stroke: #000000; stroke-width: 0.8"/>
      </g>
     </g>
     <g id="text_1">
      <!-- 0 -->
      <g transform="translate(74.691932 404.638438) scale(0.1 -0.1)">
       <defs>
        <path id="DejaVuSans-30" d="M 2034 4250 
Q 1547 4250 1301 3770 
Q 1056 3291 1056 2328 
Q 1056 1369 1301 889 
Q 1547 409 2034 409 
Q 2525 409 2770 889 
Q 3016 1369 3016 2328 
Q 3016 3291 2770 3770 
Q 2525 4250 2034 4250 
z
M 2034 4750 
Q 2819 4750 3233 4129 
Q 3647 3509 3647 2328 
Q 3647 1150 3233 529 
Q 2819 -91 2034 -91 
Q 1250 -91 836 529 
Q 422 1150 422 2328 
Q 422 3509 836 4129 
Q 1250 4750 2034 4750 
z
" transform="scale(0.015625)"/>
       </defs>
       <use xlink:href="#DejaVuSans-30"/>
      </g>
     </g>
    </g>
    <g id="xtick_2">
     <g id="line2d_3">
      <path d="M 164.014104 390.04 
L 164.014104 25.44 
" clip-path="url(#p8b5fc06c90)" style="fill: none; stroke: #b0b0b0; stroke-width: 0.8; stroke-linecap: square"/>
     </g>
     <g id="line2d_4">
      <g>
       <use xlink:href="#m050880612f" x="164.014104" y="390.04" style="stroke: #000000; stroke-width: 0.8"/>
      </g>
     </g>
     <g id="text_2">
      <!-- 50 -->
      <g transform="translate(157.651604 404.638438) scale(0.1 -0.1)">
       <defs>
        <path id="DejaVuSans-35" d="M 691 4666 
L 3169 4666 
L 3169 4134 
L 1269 4134 
L 1269 2991 
Q 1406 3038 1543 3061 
Q 1681 3084 1819 3084 
Q 2600 3084 3056 2656 
Q 3513 2228 3513 1497 
Q 3513 744 3044 326 
Q 2575 -91 1722 -91 
Q 1428 -91 1123 -41 
Q 819 9 494 109 
L 494 744 
Q 775 591 1075 516 
Q 1375 441 1709 441 
Q 2250 441 2565 725 
Q 2881 1009 2881 1497 
Q 2881 1984 2565 2268 
Q 2250 2553 1709 2553 
Q 1456 2553 1204 2497 
Q 953 2441 691 2322 
L 691 4666 
z
" transform="scale(0.015625)"/>
       </defs>
       <use xlink:href="#DejaVuSans-35"/>
       <use xlink:href="#DejaVuSans-30" transform="translate(63.623047 0)"/>
      </g>
     </g>
    </g>
    <g id="xtick_3">
     <g id="line2d_5">
      <path d="M 250.155026 390.04 
L 250.155026 25.44 
" clip-path="url(#p8b5fc06c90)" style="fill: none; stroke: #b0b0b0; stroke-width: 0.8; stroke-linecap: square"/>
     </g>
     <g id="line2d_6">
      <g>
       <use xlink:href="#m050880612f" x="250.155026" y="390.04" style="stroke: #000000; stroke-width: 0.8"/>
      </g>
     </g>
     <g id="text_3">
      <!-- 100 -->
      <g transform="translate(240.611276 404.638438) scale(0.1 -0.1)">
       <defs>
        <path id="DejaVuSans-31" d="M 794 531 
L 1825 531 
L 1825 4091 
L 703 3866 
L 703 4441 
L 1819 4666 
L 2450 4666 
L 2450 531 
L 3481 531 
L 3481 0 
L 794 0 
L 794 531 
z
" transform="scale(0.015625)"/>
       </defs>
       <use xlink:href="#DejaVuSans-31"/>
       <use xlink:href="#DejaVuSans-30" transform="translate(63.623047 0)"/>
       <use xlink:href="#DejaVuSans-30" transform="translate(127.246094 0)"/>
      </g>
     </g>
    </g>
    <g id="xtick_4">
     <g id="line2d_7">
      <path d="M 336.295948 390.04 
L 336.295948 25.44 
" clip-path="url(#p8b5fc06c90)" style="fill: none; stroke: #b0b0b0; stroke-width: 0.8; stroke-linecap: square"/>
     </g>
     <g id="line2d_8">
      <g>
       <use xlink:href="#m050880612f" x="336.295948" y="390.04" style="stroke: #000000; stroke-width: 0.8"/>
      </g>
     </g>
     <g id="text_4">
      <!-- 150 -->
      <g transform="translate(326.752198 404.638438) scale(0.1 -0.1)">
       <use xlink:href="#DejaVuSans-31"/>
       <use xlink:href="#DejaVuSans-35" transform="translate(63.623047 0)"/>
       <use xlink:href="#DejaVuSans-30" transform="translate(127.246094 0)"/>
      </g>
     </g>
    </g>
    <g id="xtick_5">
     <g id="line2d_9">
      <path d="M 422.43687 390.04 
L 422.43687 25.44 
" clip-path="url(#p8b5fc06c90)" style="fill: none; stroke: #b0b0b0; stroke-width: 0.8; stroke-linecap: square"/>
     </g>
     <g id="line2d_10">
      <g>
       <use xlink:href="#m050880612f" x="422.43687" y="390.04" style="stroke: #000000; stroke-width: 0.8"/>
      </g>
     </g>
     <g id="text_5">
      <!-- 200 -->
      <g transform="translate(412.89312 404.638438) scale(0.1 -0.1)">
       <defs>
        <path id="DejaVuSans-32" d="M 1228 531 
L 3431 531 
L 3431 0 
L 469 0 
L 469 531 
Q 828 903 1448 1529 
Q 2069 2156 2228 2338 
Q 2531 2678 2651 2914 
Q 2772 3150 2772 3378 
Q 2772 3750 2511 3984 
Q 2250 4219 1831 4219 
Q 1534 4219 1204 4116 
Q 875 4013 500 3803 
L 500 4441 
Q 881 4594 1212 4672 
Q 1544 4750 1819 4750 
Q 2544 4750 2975 4387 
Q 3406 4025 3406 3419 
Q 3406 3131 3298 2873 
Q 3191 2616 2906 2266 
Q 2828 2175 2409 1742 
Q 1991 1309 1228 531 
z
" transform="scale(0.015625)"/>
       </defs>
       <use xlink:href="#DejaVuSans-32"/>
       <use xlink:href="#DejaVuSans-30" transform="translate(63.623047 0)"/>
       <use xlink:href="#DejaVuSans-30" transform="translate(127.246094 0)"/>
      </g>
     </g>
    </g>
    <g id="xtick_6">
     <g id="line2d_11">
      <path d="M 508.577792 390.04 
L 508.577792 25.44 
" clip-path="url(#p8b5fc06c90)" style="fill: none; stroke: #b0b0b0; stroke-width: 0.8; stroke-linecap: square"/>
     </g>
     <g id="line2d_12">
      <g>
       <use xlink:href="#m050880612f" x="508.577792" y="390.04" style="stroke: #000000; stroke-width: 0.8"/>
      </g>
     </g>
     <g id="text_6">
      <!-- 250 -->
      <g transform="translate(499.034042 404.638438) scale(0.1 -0.1)">
       <use xlink:href="#DejaVuSans-32"/>
       <use xlink:href="#DejaVuSans-35" transform="translate(63.623047 0)"/>
       <use xlink:href="#DejaVuSans-30" transform="translate(127.246094 0)"/>
      </g>
     </g>
    </g>
    <g id="xtick_7">
     <g id="line2d_13">
      <path d="M 594.718715 390.04 
L 594.718715 25.44 
" clip-path="url(#p8b5fc06c90)" style="fill: none; stroke: #b0b0b0; stroke-width: 0.8; stroke-linecap: square"/>
     </g>
     <g id="line2d_14">
      <g>
       <use xlink:href="#m050880612f" x="594.718715" y="390.04" style="stroke: #000000; stroke-width: 0.8"/>
      </g>
     </g>
     <g id="text_7">
      <!-- 300 -->
      <g transform="translate(585.174965 404.638438) scale(0.1 -0.1)">
       <defs>
        <path id="DejaVuSans-33" d="M 2597 2516 
Q 3050 2419 3304 2112 
Q 3559 1806 3559 1356 
Q 3559 666 3084 287 
Q 2609 -91 1734 -91 
Q 1441 -91 1130 -33 
Q 819 25 488 141 
L 488 750 
Q 750 597 1062 519 
Q 1375 441 1716 441 
Q 2309 441 2620 675 
Q 2931 909 2931 1356 
Q 2931 1769 2642 2001 
Q 2353 2234 1838 2234 
L 1294 2234 
L 1294 2753 
L 1863 2753 
Q 2328 2753 2575 2939 
Q 2822 3125 2822 3475 
Q 2822 3834 2567 4026 
Q 2313 4219 1838 4219 
Q 1578 4219 1281 4162 
Q 984 4106 628 3988 
L 628 4550 
Q 988 4650 1302 4700 
Q 1616 4750 1894 4750 
Q 2613 4750 3031 4423 
Q 3450 4097 3450 3541 
Q 3450 3153 3228 2886 
Q 3006 2619 2597 2516 
z
" transform="scale(0.015625)"/>
       </defs>
       <use xlink:href="#DejaVuSans-33"/>
       <use xlink:href="#DejaVuSans-30" transform="translate(63.623047 0)"/>
       <use xlink:href="#DejaVuSans-30" transform="translate(127.246094 0)"/>
      </g>
     </g>
    </g>
    <g id="xtick_8">
     <g id="line2d_15">
      <path d="M 680.859637 390.04 
L 680.859637 25.44 
" clip-path="url(#p8b5fc06c90)" style="fill: none; stroke: #b0b0b0; stroke-width: 0.8; stroke-linecap: square"/>
     </g>
     <g id="line2d_16">
      <g>
       <use xlink:href="#m050880612f" x="680.859637" y="390.04" style="stroke: #000000; stroke-width: 0.8"/>
      </g>
     </g>
     <g id="text_8">
      <!-- 350 -->
      <g transform="translate(671.315887 404.638438) scale(0.1 -0.1)">
       <use xlink:href="#DejaVuSans-33"/>
       <use xlink:href="#DejaVuSans-35" transform="translate(63.623047 0)"/>
       <use xlink:href="#DejaVuSans-30" transform="translate(127.246094 0)"/>
      </g>
     </g>
    </g>
    <g id="text_9">
     <!-- Epoch -->
     <g transform="translate(363.194063 418.316562) scale(0.1 -0.1)">
      <defs>
       <path id="DejaVuSans-45" d="M 628 4666 
L 3578 4666 
L 3578 4134 
L 1259 4134 
L 1259 2753 
L 3481 2753 
L 3481 2222 
L 1259 2222 
L 1259 531 
L 3634 531 
L 3634 0 
L 628 0 
L 628 4666 
z
" transform="scale(0.015625)"/>
       <path id="DejaVuSans-70" d="M 1159 525 
L 1159 -1331 
L 581 -1331 
L 581 3500 
L 1159 3500 
L 1159 2969 
Q 1341 3281 1617 3432 
Q 1894 3584 2278 3584 
Q 2916 3584 3314 3078 
Q 3713 2572 3713 1747 
Q 3713 922 3314 415 
Q 2916 -91 2278 -91 
Q 1894 -91 1617 61 
Q 1341 213 1159 525 
z
M 3116 1747 
Q 3116 2381 2855 2742 
Q 2594 3103 2138 3103 
Q 1681 3103 1420 2742 
Q 1159 2381 1159 1747 
Q 1159 1113 1420 752 
Q 1681 391 2138 391 
Q 2594 391 2855 752 
Q 3116 1113 3116 1747 
z
" transform="scale(0.015625)"/>
       <path id="DejaVuSans-6f" d="M 1959 3097 
Q 1497 3097 1228 2736 
Q 959 2375 959 1747 
Q 959 1119 1226 758 
Q 1494 397 1959 397 
Q 2419 397 2687 759 
Q 2956 1122 2956 1747 
Q 2956 2369 2687 2733 
Q 2419 3097 1959 3097 
z
M 1959 3584 
Q 2709 3584 3137 3096 
Q 3566 2609 3566 1747 
Q 3566 888 3137 398 
Q 2709 -91 1959 -91 
Q 1206 -91 779 398 
Q 353 888 353 1747 
Q 353 2609 779 3096 
Q 1206 3584 1959 3584 
z
" transform="scale(0.015625)"/>
       <path id="DejaVuSans-63" d="M 3122 3366 
L 3122 2828 
Q 2878 2963 2633 3030 
Q 2388 3097 2138 3097 
Q 1578 3097 1268 2742 
Q 959 2388 959 1747 
Q 959 1106 1268 751 
Q 1578 397 2138 397 
Q 2388 397 2633 464 
Q 2878 531 3122 666 
L 3122 134 
Q 2881 22 2623 -34 
Q 2366 -91 2075 -91 
Q 1284 -91 818 406 
Q 353 903 353 1747 
Q 353 2603 823 3093 
Q 1294 3584 2113 3584 
Q 2378 3584 2631 3529 
Q 2884 3475 3122 3366 
z
" transform="scale(0.015625)"/>
       <path id="DejaVuSans-68" d="M 3513 2113 
L 3513 0 
L 2938 0 
L 2938 2094 
Q 2938 2591 2744 2837 
Q 2550 3084 2163 3084 
Q 1697 3084 1428 2787 
Q 1159 2491 1159 1978 
L 1159 0 
L 581 0 
L 581 4863 
L 1159 4863 
L 1159 2956 
Q 1366 3272 1645 3428 
Q 1925 3584 2291 3584 
Q 2894 3584 3203 3211 
Q 3513 2838 3513 2113 
z
" transform="scale(0.015625)"/>
      </defs>
      <use xlink:href="#DejaVuSans-45"/>
      <use xlink:href="#DejaVuSans-70" transform="translate(63.183594 0)"/>
      <use xlink:href="#DejaVuSans-6f" transform="translate(126.660156 0)"/>
      <use xlink:href="#DejaVuSans-63" transform="translate(187.841797 0)"/>
      <use xlink:href="#DejaVuSans-68" transform="translate(242.822266 0)"/>
     </g>
    </g>
   </g>
   <g id="matplotlib.axis_2">
    <g id="ytick_1">
     <g id="line2d_17">
      <path d="M 47.81 383.367108 
L 709.2 383.367108 
" clip-path="url(#p8b5fc06c90)" style="fill: none; stroke: #b0b0b0; stroke-width: 0.8; stroke-linecap: square"/>
     </g>
     <g id="line2d_18">
      <defs>
       <path id="mc2deecba49" d="M 0 0 
L -3.5 0 
" style="stroke: #000000; stroke-width: 0.8"/>
      </defs>
      <g>
       <use xlink:href="#mc2deecba49" x="47.81" y="383.367108" style="stroke: #000000; stroke-width: 0.8"/>
      </g>
     </g>
     <g id="text_10">
      <!-- 0.0 -->
      <g transform="translate(24.906875 387.166326) scale(0.1 -0.1)">
       <defs>
        <path id="DejaVuSans-2e" d="M 684 794 
L 1344 794 
L 1344 0 
L 684 0 
L 684 794 
z
" transform="scale(0.015625)"/>
       </defs>
       <use xlink:href="#DejaVuSans-30"/>
       <use xlink:href="#DejaVuSans-2e" transform="translate(63.623047 0)"/>
       <use xlink:href="#DejaVuSans-30" transform="translate(95.410156 0)"/>
      </g>
     </g>
    </g>
    <g id="ytick_2">
     <g id="line2d_19">
      <path d="M 47.81 339.560822 
L 709.2 339.560822 
" clip-path="url(#p8b5fc06c90)" style="fill: none; stroke: #b0b0b0; stroke-width: 0.8; stroke-linecap: square"/>
     </g>
     <g id="line2d_20">
      <g>
       <use xlink:href="#mc2deecba49" x="47.81" y="339.560822" style="stroke: #000000; stroke-width: 0.8"/>
      </g>
     </g>
     <g id="text_11">
      <!-- 0.1 -->
      <g transform="translate(24.906875 343.360041) scale(0.1 -0.1)">
       <use xlink:href="#DejaVuSans-30"/>
       <use xlink:href="#DejaVuSans-2e" transform="translate(63.623047 0)"/>
       <use xlink:href="#DejaVuSans-31" transform="translate(95.410156 0)"/>
      </g>
     </g>
    </g>
    <g id="ytick_3">
     <g id="line2d_21">
      <path d="M 47.81 295.754537 
L 709.2 295.754537 
" clip-path="url(#p8b5fc06c90)" style="fill: none; stroke: #b0b0b0; stroke-width: 0.8; stroke-linecap: square"/>
     </g>
     <g id="line2d_22">
      <g>
       <use xlink:href="#mc2deecba49" x="47.81" y="295.754537" style="stroke: #000000; stroke-width: 0.8"/>
      </g>
     </g>
     <g id="text_12">
      <!-- 0.2 -->
      <g transform="translate(24.906875 299.553756) scale(0.1 -0.1)">
       <use xlink:href="#DejaVuSans-30"/>
       <use xlink:href="#DejaVuSans-2e" transform="translate(63.623047 0)"/>
       <use xlink:href="#DejaVuSans-32" transform="translate(95.410156 0)"/>
      </g>
     </g>
    </g>
    <g id="ytick_4">
     <g id="line2d_23">
      <path d="M 47.81 251.948251 
L 709.2 251.948251 
" clip-path="url(#p8b5fc06c90)" style="fill: none; stroke: #b0b0b0; stroke-width: 0.8; stroke-linecap: square"/>
     </g>
     <g id="line2d_24">
      <g>
       <use xlink:href="#mc2deecba49" x="47.81" y="251.948251" style="stroke: #000000; stroke-width: 0.8"/>
      </g>
     </g>
     <g id="text_13">
      <!-- 0.3 -->
      <g transform="translate(24.906875 255.74747) scale(0.1 -0.1)">
       <use xlink:href="#DejaVuSans-30"/>
       <use xlink:href="#DejaVuSans-2e" transform="translate(63.623047 0)"/>
       <use xlink:href="#DejaVuSans-33" transform="translate(95.410156 0)"/>
      </g>
     </g>
    </g>
    <g id="ytick_5">
     <g id="line2d_25">
      <path d="M 47.81 208.141966 
L 709.2 208.141966 
" clip-path="url(#p8b5fc06c90)" style="fill: none; stroke: #b0b0b0; stroke-width: 0.8; stroke-linecap: square"/>
     </g>
     <g id="line2d_26">
      <g>
       <use xlink:href="#mc2deecba49" x="47.81" y="208.141966" style="stroke: #000000; stroke-width: 0.8"/>
      </g>
     </g>
     <g id="text_14">
      <!-- 0.4 -->
      <g transform="translate(24.906875 211.941185) scale(0.1 -0.1)">
       <defs>
        <path id="DejaVuSans-34" d="M 2419 4116 
L 825 1625 
L 2419 1625 
L 2419 4116 
z
M 2253 4666 
L 3047 4666 
L 3047 1625 
L 3713 1625 
L 3713 1100 
L 3047 1100 
L 3047 0 
L 2419 0 
L 2419 1100 
L 313 1100 
L 313 1709 
L 2253 4666 
z
" transform="scale(0.015625)"/>
       </defs>
       <use xlink:href="#DejaVuSans-30"/>
       <use xlink:href="#DejaVuSans-2e" transform="translate(63.623047 0)"/>
       <use xlink:href="#DejaVuSans-34" transform="translate(95.410156 0)"/>
      </g>
     </g>
    </g>
    <g id="ytick_6">
     <g id="line2d_27">
      <path d="M 47.81 164.335681 
L 709.2 164.335681 
" clip-path="url(#p8b5fc06c90)" style="fill: none; stroke: #b0b0b0; stroke-width: 0.8; stroke-linecap: square"/>
     </g>
     <g id="line2d_28">
      <g>
       <use xlink:href="#mc2deecba49" x="47.81" y="164.335681" style="stroke: #000000; stroke-width: 0.8"/>
      </g>
     </g>
     <g id="text_15">
      <!-- 0.5 -->
      <g transform="translate(24.906875 168.134899) scale(0.1 -0.1)">
       <use xlink:href="#DejaVuSans-30"/>
       <use xlink:href="#DejaVuSans-2e" transform="translate(63.623047 0)"/>
       <use xlink:href="#DejaVuSans-35" transform="translate(95.410156 0)"/>
      </g>
     </g>
    </g>
    <g id="ytick_7">
     <g id="line2d_29">
      <path d="M 47.81 120.529395 
L 709.2 120.529395 
" clip-path="url(#p8b5fc06c90)" style="fill: none; stroke: #b0b0b0; stroke-width: 0.8; stroke-linecap: square"/>
     </g>
     <g id="line2d_30">
      <g>
       <use xlink:href="#mc2deecba49" x="47.81" y="120.529395" style="stroke: #000000; stroke-width: 0.8"/>
      </g>
     </g>
     <g id="text_16">
      <!-- 0.6 -->
      <g transform="translate(24.906875 124.328614) scale(0.1 -0.1)">
       <defs>
        <path id="DejaVuSans-36" d="M 2113 2584 
Q 1688 2584 1439 2293 
Q 1191 2003 1191 1497 
Q 1191 994 1439 701 
Q 1688 409 2113 409 
Q 2538 409 2786 701 
Q 3034 994 3034 1497 
Q 3034 2003 2786 2293 
Q 2538 2584 2113 2584 
z
M 3366 4563 
L 3366 3988 
Q 3128 4100 2886 4159 
Q 2644 4219 2406 4219 
Q 1781 4219 1451 3797 
Q 1122 3375 1075 2522 
Q 1259 2794 1537 2939 
Q 1816 3084 2150 3084 
Q 2853 3084 3261 2657 
Q 3669 2231 3669 1497 
Q 3669 778 3244 343 
Q 2819 -91 2113 -91 
Q 1303 -91 875 529 
Q 447 1150 447 2328 
Q 447 3434 972 4092 
Q 1497 4750 2381 4750 
Q 2619 4750 2861 4703 
Q 3103 4656 3366 4563 
z
" transform="scale(0.015625)"/>
       </defs>
       <use xlink:href="#DejaVuSans-30"/>
       <use xlink:href="#DejaVuSans-2e" transform="translate(63.623047 0)"/>
       <use xlink:href="#DejaVuSans-36" transform="translate(95.410156 0)"/>
      </g>
     </g>
    </g>
    <g id="ytick_8">
     <g id="line2d_31">
      <path d="M 47.81 76.72311 
L 709.2 76.72311 
" clip-path="url(#p8b5fc06c90)" style="fill: none; stroke: #b0b0b0; stroke-width: 0.8; stroke-linecap: square"/>
     </g>
     <g id="line2d_32">
      <g>
       <use xlink:href="#mc2deecba49" x="47.81" y="76.72311" style="stroke: #000000; stroke-width: 0.8"/>
      </g>
     </g>
     <g id="text_17">
      <!-- 0.7 -->
      <g transform="translate(24.906875 80.522329) scale(0.1 -0.1)">
       <defs>
        <path id="DejaVuSans-37" d="M 525 4666 
L 3525 4666 
L 3525 4397 
L 1831 0 
L 1172 0 
L 2766 4134 
L 525 4134 
L 525 4666 
z
" transform="scale(0.015625)"/>
       </defs>
       <use xlink:href="#DejaVuSans-30"/>
       <use xlink:href="#DejaVuSans-2e" transform="translate(63.623047 0)"/>
       <use xlink:href="#DejaVuSans-37" transform="translate(95.410156 0)"/>
      </g>
     </g>
    </g>
    <g id="ytick_9">
     <g id="line2d_33">
      <path d="M 47.81 32.916824 
L 709.2 32.916824 
" clip-path="url(#p8b5fc06c90)" style="fill: none; stroke: #b0b0b0; stroke-width: 0.8; stroke-linecap: square"/>
     </g>
     <g id="line2d_34">
      <g>
       <use xlink:href="#mc2deecba49" x="47.81" y="32.916824" style="stroke: #000000; stroke-width: 0.8"/>
      </g>
     </g>
     <g id="text_18">
      <!-- 0.8 -->
      <g transform="translate(24.906875 36.716043) scale(0.1 -0.1)">
       <defs>
        <path id="DejaVuSans-38" d="M 2034 2216 
Q 1584 2216 1326 1975 
Q 1069 1734 1069 1313 
Q 1069 891 1326 650 
Q 1584 409 2034 409 
Q 2484 409 2743 651 
Q 3003 894 3003 1313 
Q 3003 1734 2745 1975 
Q 2488 2216 2034 2216 
z
M 1403 2484 
Q 997 2584 770 2862 
Q 544 3141 544 3541 
Q 544 4100 942 4425 
Q 1341 4750 2034 4750 
Q 2731 4750 3128 4425 
Q 3525 4100 3525 3541 
Q 3525 3141 3298 2862 
Q 3072 2584 2669 2484 
Q 3125 2378 3379 2068 
Q 3634 1759 3634 1313 
Q 3634 634 3220 271 
Q 2806 -91 2034 -91 
Q 1263 -91 848 271 
Q 434 634 434 1313 
Q 434 1759 690 2068 
Q 947 2378 1403 2484 
z
M 1172 3481 
Q 1172 3119 1398 2916 
Q 1625 2713 2034 2713 
Q 2441 2713 2670 2916 
Q 2900 3119 2900 3481 
Q 2900 3844 2670 4047 
Q 2441 4250 2034 4250 
Q 1625 4250 1398 4047 
Q 1172 3844 1172 3481 
z
" transform="scale(0.015625)"/>
       </defs>
       <use xlink:href="#DejaVuSans-30"/>
       <use xlink:href="#DejaVuSans-2e" transform="translate(63.623047 0)"/>
       <use xlink:href="#DejaVuSans-38" transform="translate(95.410156 0)"/>
      </g>
     </g>
    </g>
    <g id="text_19">
     <!-- Value -->
     <g transform="translate(18.827188 221.47125) rotate(-90) scale(0.1 -0.1)">
      <defs>
       <path id="DejaVuSans-56" d="M 1831 0 
L 50 4666 
L 709 4666 
L 2188 738 
L 3669 4666 
L 4325 4666 
L 2547 0 
L 1831 0 
z
" transform="scale(0.015625)"/>
       <path id="DejaVuSans-61" d="M 2194 1759 
Q 1497 1759 1228 1600 
Q 959 1441 959 1056 
Q 959 750 1161 570 
Q 1363 391 1709 391 
Q 2188 391 2477 730 
Q 2766 1069 2766 1631 
L 2766 1759 
L 2194 1759 
z
M 3341 1997 
L 3341 0 
L 2766 0 
L 2766 531 
Q 2569 213 2275 61 
Q 1981 -91 1556 -91 
Q 1019 -91 701 211 
Q 384 513 384 1019 
Q 384 1609 779 1909 
Q 1175 2209 1959 2209 
L 2766 2209 
L 2766 2266 
Q 2766 2663 2505 2880 
Q 2244 3097 1772 3097 
Q 1472 3097 1187 3025 
Q 903 2953 641 2809 
L 641 3341 
Q 956 3463 1253 3523 
Q 1550 3584 1831 3584 
Q 2591 3584 2966 3190 
Q 3341 2797 3341 1997 
z
" transform="scale(0.015625)"/>
       <path id="DejaVuSans-6c" d="M 603 4863 
L 1178 4863 
L 1178 0 
L 603 0 
L 603 4863 
z
" transform="scale(0.015625)"/>
       <path id="DejaVuSans-75" d="M 544 1381 
L 544 3500 
L 1119 3500 
L 1119 1403 
Q 1119 906 1312 657 
Q 1506 409 1894 409 
Q 2359 409 2629 706 
Q 2900 1003 2900 1516 
L 2900 3500 
L 3475 3500 
L 3475 0 
L 2900 0 
L 2900 538 
Q 2691 219 2414 64 
Q 2138 -91 1772 -91 
Q 1169 -91 856 284 
Q 544 659 544 1381 
z
M 1991 3584 
L 1991 3584 
z
" transform="scale(0.015625)"/>
       <path id="DejaVuSans-65" d="M 3597 1894 
L 3597 1613 
L 953 1613 
Q 991 1019 1311 708 
Q 1631 397 2203 397 
Q 2534 397 2845 478 
Q 3156 559 3463 722 
L 3463 178 
Q 3153 47 2828 -22 
Q 2503 -91 2169 -91 
Q 1331 -91 842 396 
Q 353 884 353 1716 
Q 353 2575 817 3079 
Q 1281 3584 2069 3584 
Q 2775 3584 3186 3129 
Q 3597 2675 3597 1894 
z
M 3022 2063 
Q 3016 2534 2758 2815 
Q 2500 3097 2075 3097 
Q 1594 3097 1305 2825 
Q 1016 2553 972 2059 
L 3022 2063 
z
" transform="scale(0.015625)"/>
      </defs>
      <use xlink:href="#DejaVuSans-56"/>
      <use xlink:href="#DejaVuSans-61" transform="translate(60.658203 0)"/>
      <use xlink:href="#DejaVuSans-6c" transform="translate(121.9375 0)"/>
      <use xlink:href="#DejaVuSans-75" transform="translate(149.720703 0)"/>
      <use xlink:href="#DejaVuSans-65" transform="translate(213.099609 0)"/>
     </g>
    </g>
   </g>
   <g id="line2d_35">
    <path d="M 77.873182 362.343645 
L 79.596 297.691784 
L 81.318819 295.858978 
L 83.041637 313.495311 
L 84.764456 319.591675 
L 86.487274 299.650835 
L 88.210092 291.922566 
L 91.655729 286.309921 
L 93.378548 285.521499 
L 95.101366 282.924671 
L 96.824185 281.654633 
L 98.547003 284.448641 
L 100.269822 288.334411 
L 101.99264 291.789866 
L 103.715458 292.157581 
L 105.438277 295.003556 
L 107.161095 296.10304 
L 108.883914 296.021144 
L 110.606732 295.287032 
L 112.329551 295.840002 
L 114.052369 298.164718 
L 115.775188 297.784359 
L 117.498006 297.755109 
L 119.220824 299.904042 
L 122.666461 299.763482 
L 124.38928 302.229868 
L 126.112098 300.750371 
L 127.834917 302.395266 
L 129.557735 305.835433 
L 131.280554 307.036558 
L 133.003372 307.217799 
L 134.72619 308.530932 
L 136.449009 310.547368 
L 138.171827 312.049672 
L 139.894646 310.450106 
L 141.617464 313.088554 
L 143.340283 313.649709 
L 145.063101 315.172054 
L 148.508738 318.650362 
L 150.231556 318.665343 
L 151.954375 319.447459 
L 153.677193 320.847711 
L 155.400012 322.45703 
L 157.12283 322.808452 
L 158.845649 324.827375 
L 160.568467 325.508972 
L 162.291285 327.272024 
L 164.014104 325.159253 
L 167.459741 328.267437 
L 169.182559 329.059629 
L 170.905378 331.37349 
L 172.628196 330.317552 
L 174.351015 331.070872 
L 176.073833 331.40462 
L 177.796651 331.186094 
L 179.51947 333.475056 
L 181.242288 335.033655 
L 182.965107 335.034627 
L 184.687925 334.466553 
L 186.410744 337.025592 
L 188.133562 334.549914 
L 189.856381 338.402354 
L 193.302017 339.951668 
L 195.024836 339.304314 
L 196.747654 341.854868 
L 198.470473 341.748245 
L 200.193291 341.441743 
L 201.91611 341.772039 
L 203.638928 341.896971 
L 205.361747 342.523315 
L 207.084565 342.713518 
L 208.807383 344.391645 
L 210.530202 343.92905 
L 212.25302 345.35945 
L 213.975839 346.381042 
L 215.698657 345.472515 
L 217.421476 346.992963 
L 219.144294 347.130367 
L 220.867113 348.539888 
L 222.589931 346.397766 
L 224.312749 347.977695 
L 226.035568 346.901305 
L 227.758386 350.096343 
L 229.481205 349.49501 
L 231.204023 350.603642 
L 232.926842 349.759663 
L 234.64966 352.00519 
L 236.372479 350.087139 
L 238.095297 350.61987 
L 239.818115 352.667938 
L 241.540934 349.798307 
L 243.263752 350.03903 
L 244.986571 354.730269 
L 246.709389 352.622764 
L 248.432208 353.436539 
L 250.155026 352.082105 
L 251.877844 353.880141 
L 253.600663 353.015992 
L 255.323481 354.544418 
L 257.0463 353.797567 
L 258.769118 355.351796 
L 260.491937 354.423823 
L 262.214755 354.034608 
L 263.937574 355.050179 
L 265.660392 355.511449 
L 267.38321 355.076153 
L 270.828847 355.706097 
L 272.551666 358.014367 
L 274.274484 356.409834 
L 275.997303 357.47293 
L 277.720121 357.886508 
L 279.44294 358.648932 
L 281.165758 356.536457 
L 282.888576 358.862261 
L 284.611395 359.201861 
L 286.334213 357.75965 
L 288.057032 358.113649 
L 289.77985 359.23982 
L 291.502669 360.529704 
L 293.225487 356.809892 
L 294.948306 360.789992 
L 296.671124 358.196527 
L 298.393942 361.799494 
L 300.116761 359.112093 
L 301.839579 360.482997 
L 305.285216 359.400325 
L 307.008035 361.256325 
L 308.730853 361.159998 
L 310.453672 360.676471 
L 312.17649 359.633786 
L 313.899308 360.121146 
L 315.622127 363.019049 
L 317.344945 359.783187 
L 319.067764 363.14043 
L 320.790582 361.539643 
L 327.681856 363.509014 
L 329.404674 362.480404 
L 331.127493 362.22658 
L 332.850311 361.208135 
L 334.57313 363.935365 
L 336.295948 363.565927 
L 338.018767 360.82605 
L 339.741585 362.379111 
L 343.187222 364.137634 
L 344.91004 363.327421 
L 346.632859 363.112004 
L 348.355677 365.010282 
L 350.078496 363.193779 
L 351.801314 364.506241 
L 353.524133 361.40673 
L 355.246951 365.66087 
L 356.969769 363.300106 
L 358.692588 363.944173 
L 360.415406 365.558486 
L 362.138225 364.668947 
L 363.861043 364.208386 
L 365.583862 365.692147 
L 367.30668 362.450747 
L 369.029499 367.433597 
L 370.752317 362.594029 
L 372.475135 364.838135 
L 374.197954 365.118607 
L 375.920772 364.874374 
L 377.643591 365.775314 
L 379.366409 365.524503 
L 381.089228 367.142244 
L 382.812046 364.230319 
L 384.534865 365.102773 
L 386.257683 364.773278 
L 387.980501 366.575861 
L 389.70332 364.924349 
L 391.426138 366.067206 
L 393.148957 367.412683 
L 394.871775 365.637478 
L 396.594594 368.105064 
L 398.317412 365.473564 
L 400.040231 365.764248 
L 401.763049 367.787846 
L 403.485867 365.854317 
L 405.208686 367.500049 
L 406.931504 367.477368 
L 408.654323 356.963848 
L 410.377141 367.312079 
L 412.09996 366.781613 
L 413.822778 367.353133 
L 415.545597 367.473937 
L 418.991233 367.210154 
L 420.714052 367.600186 
L 422.43687 366.761911 
L 424.159689 368.080103 
L 425.882507 367.834871 
L 427.605326 365.93898 
L 429.328144 370.332992 
L 431.050962 367.272402 
L 432.773781 367.497789 
L 434.496599 366.819565 
L 436.219418 368.25002 
L 437.942236 367.886711 
L 439.665055 368.456422 
L 441.387873 367.505811 
L 443.110692 366.91903 
L 444.83351 369.462711 
L 446.556328 365.672721 
L 448.279147 367.014361 
L 450.001965 369.262973 
L 451.724784 369.103733 
L 453.447602 367.833176 
L 455.170421 369.497466 
L 456.893239 369.672338 
L 458.616058 368.344041 
L 460.338876 368.565135 
L 462.061694 369.173042 
L 463.784513 366.693313 
L 465.507331 369.206649 
L 467.23015 368.91325 
L 468.952968 367.696559 
L 470.675787 368.343791 
L 472.398605 369.650242 
L 474.121424 367.755683 
L 475.844242 369.743482 
L 477.56706 368.085743 
L 479.289879 369.822657 
L 481.012697 368.968767 
L 482.735516 370.459902 
L 484.458334 368.937559 
L 486.181153 367.229199 
L 487.903971 370.300284 
L 489.62679 368.4955 
L 491.349608 370.969185 
L 493.072426 369.65168 
L 494.795245 369.608715 
L 496.518063 368.677079 
L 499.9637 369.875805 
L 501.686519 368.825089 
L 503.409337 368.979624 
L 505.132156 369.275066 
L 506.854974 370.214701 
L 508.577792 370.172165 
L 510.300611 369.075067 
L 512.023429 369.751094 
L 513.746248 369.161227 
L 515.469066 371.035235 
L 517.191885 371.005988 
L 518.914703 370.20302 
L 520.637521 369.228698 
L 522.36034 370.341441 
L 524.083158 369.404824 
L 527.528795 369.844519 
L 529.251614 369.352634 
L 530.974432 370.598506 
L 532.697251 369.758819 
L 534.420069 369.449326 
L 536.142887 370.179592 
L 537.865706 370.149679 
L 539.588524 370.860538 
L 541.311343 370.22259 
L 543.034161 371.709473 
L 544.75698 369.710779 
L 546.479798 370.145881 
L 548.202617 371.920996 
L 549.925435 369.996676 
L 551.648253 371.630346 
L 553.371072 369.617929 
L 555.09389 371.371953 
L 556.816709 372.012662 
L 558.539527 370.03679 
L 560.262346 370.911889 
L 561.985164 370.707762 
L 563.707983 370.179435 
L 565.430801 371.743579 
L 567.153619 371.32421 
L 568.876438 370.484699 
L 570.599256 370.208891 
L 572.322075 372.357797 
L 574.044893 369.1992 
L 575.767712 370.154858 
L 577.49053 372.17884 
L 579.213349 371.736716 
L 580.936167 370.277785 
L 582.658985 371.704884 
L 584.381804 372.004223 
L 586.104622 371.268477 
L 587.827441 371.61955 
L 589.550259 371.100814 
L 591.273078 371.614896 
L 592.995896 371.614492 
L 594.718715 371.731341 
L 596.441533 370.559154 
L 598.164351 370.050214 
L 599.88717 372.406211 
L 601.609988 371.321949 
L 603.332807 371.366404 
L 605.055625 372.90379 
L 606.778444 372.436673 
L 608.501262 370.114764 
L 610.22408 372.858356 
L 611.946899 371.374643 
L 613.669717 372.360139 
L 615.392536 370.410825 
L 617.115354 372.085466 
L 618.838173 371.443165 
L 620.560991 372.055993 
L 622.28381 371.674943 
L 624.006628 371.461757 
L 625.729446 371.960514 
L 627.452265 373.122806 
L 629.175083 371.403807 
L 630.897902 373.202923 
L 632.62072 372.037052 
L 634.343539 371.423231 
L 636.066357 372.776121 
L 637.789176 371.049998 
L 639.511994 373.007711 
L 641.234812 372.196113 
L 642.957631 371.927067 
L 644.680449 372.544731 
L 648.126086 371.063822 
L 649.848905 372.553963 
L 651.571723 372.227192 
L 653.294542 372.407713 
L 655.01736 372.16151 
L 656.740178 372.76336 
L 658.462997 372.518519 
L 660.185815 372.09052 
L 661.908634 372.44909 
L 663.631452 373.122211 
L 665.354271 372.390383 
L 667.077089 372.036665 
L 668.799908 373.467273 
L 670.522726 371.579175 
L 672.245544 372.973916 
L 673.968363 372.686595 
L 675.691181 371.74393 
L 677.414 372.017244 
L 679.136818 372.547383 
L 679.136818 372.547383 
" clip-path="url(#p8b5fc06c90)" style="fill: none; stroke: #ff0000; stroke-width: 1.5; stroke-linecap: square"/>
   </g>
   <g id="line2d_36">
    <path d="M 77.873182 42.012727 
L 79.596 103.916162 
L 81.318819 116.600656 
L 83.041637 115.350534 
L 84.764456 118.465082 
L 86.487274 132.372491 
L 88.210092 150.470832 
L 89.932911 159.606767 
L 91.655729 164.556602 
L 93.378548 170.852869 
L 96.824185 178.059833 
L 98.547003 178.099168 
L 100.269822 175.980177 
L 101.99264 175.795575 
L 103.715458 173.929152 
L 105.438277 172.24075 
L 107.161095 169.023587 
L 108.883914 171.681997 
L 110.606732 172.612121 
L 112.329551 171.599853 
L 114.052369 171.285717 
L 115.775188 169.975292 
L 117.498006 169.157208 
L 119.220824 170.015528 
L 120.943643 169.085365 
L 122.666461 170.083011 
L 124.38928 169.837572 
L 126.112098 166.697396 
L 127.834917 169.05197 
L 129.557735 164.175779 
L 131.280554 164.313957 
L 133.003372 162.200357 
L 134.72619 161.001151 
L 136.449009 160.957703 
L 138.171827 159.727842 
L 139.894646 158.801543 
L 141.617464 156.022124 
L 143.340283 154.870151 
L 145.063101 155.04739 
L 146.78592 153.207717 
L 148.508738 152.005586 
L 150.231556 148.994983 
L 151.954375 148.090643 
L 153.677193 145.121792 
L 155.400012 145.15289 
L 157.12283 144.626344 
L 158.845649 142.170435 
L 160.568467 141.062328 
L 162.291285 140.648005 
L 164.014104 140.069708 
L 165.736922 138.300977 
L 167.459741 137.018582 
L 169.182559 137.928536 
L 170.905378 136.796773 
L 174.351015 133.327434 
L 176.073833 132.619706 
L 177.796651 134.013985 
L 179.51947 131.180282 
L 182.965107 128.736436 
L 184.687925 130.508535 
L 186.410744 128.524889 
L 188.133562 126.101566 
L 189.856381 124.381714 
L 191.579199 125.87597 
L 193.302017 121.391817 
L 195.024836 122.525643 
L 196.747654 122.028184 
L 198.470473 120.881538 
L 200.193291 119.918162 
L 201.91611 118.687257 
L 203.638928 118.988991 
L 205.361747 116.272551 
L 207.084565 116.818001 
L 208.807383 115.610804 
L 210.530202 113.760922 
L 212.25302 113.904138 
L 213.975839 112.309852 
L 215.698657 114.464759 
L 217.421476 111.717482 
L 219.144294 110.157923 
L 220.867113 109.353612 
L 222.589931 109.231363 
L 224.312749 108.678654 
L 226.035568 108.244696 
L 227.758386 105.895945 
L 229.481205 106.3316 
L 231.204023 103.925092 
L 232.926842 105.071582 
L 234.64966 103.802033 
L 236.372479 104.245521 
L 238.095297 104.188522 
L 239.818115 101.588508 
L 241.540934 101.94215 
L 243.263752 100.200992 
L 244.986571 101.117395 
L 246.709389 101.520308 
L 248.432208 99.493108 
L 251.877844 98.553336 
L 253.600663 97.568236 
L 255.323481 97.96013 
L 257.0463 96.749252 
L 258.769118 97.209425 
L 260.491937 95.29813 
L 262.214755 96.221374 
L 263.937574 95.940294 
L 265.660392 94.91796 
L 267.38321 95.587331 
L 269.106029 93.828496 
L 270.828847 93.730451 
L 272.551666 92.245229 
L 274.274484 93.56175 
L 275.997303 92.944836 
L 277.720121 91.092264 
L 279.44294 90.721024 
L 281.165758 90.591489 
L 282.888576 88.44875 
L 284.611395 90.474148 
L 286.334213 87.993068 
L 288.057032 90.050948 
L 289.77985 88.666069 
L 291.502669 88.577737 
L 293.225487 89.555212 
L 294.948306 86.534087 
L 296.671124 88.745471 
L 298.393942 85.533739 
L 300.116761 86.997785 
L 301.839579 86.315464 
L 303.562398 86.152481 
L 305.285216 84.74721 
L 307.008035 84.629843 
L 308.730853 85.187382 
L 310.453672 86.194989 
L 312.17649 85.341931 
L 313.899308 83.442542 
L 315.622127 82.465093 
L 317.344945 84.377406 
L 319.067764 81.159877 
L 320.790582 83.671846 
L 322.513401 83.762267 
L 324.236219 80.630328 
L 325.959038 81.884759 
L 327.681856 80.157257 
L 329.404674 80.203969 
L 332.850311 82.531335 
L 334.57313 79.861189 
L 336.295948 79.385742 
L 338.018767 80.789342 
L 339.741585 80.098769 
L 341.464403 79.903175 
L 343.187222 78.116585 
L 344.91004 78.604174 
L 346.632859 78.279384 
L 348.355677 77.825582 
L 350.078496 80.10796 
L 351.801314 77.574868 
L 353.524133 79.340152 
L 355.246951 76.254091 
L 356.969769 78.101702 
L 358.692588 77.877621 
L 360.415406 76.132546 
L 362.138225 77.674689 
L 365.583862 76.901398 
L 367.30668 77.582414 
L 369.029499 74.668682 
L 370.752317 76.739225 
L 372.475135 75.724255 
L 374.197954 75.578297 
L 375.920772 73.951869 
L 377.643591 74.024822 
L 379.366409 75.020836 
L 381.089228 72.9675 
L 382.812046 76.210068 
L 384.534865 73.908917 
L 386.257683 76.10466 
L 387.980501 72.445445 
L 389.70332 73.050322 
L 391.426138 73.233097 
L 393.148957 71.113361 
L 394.871775 72.427794 
L 396.594594 70.457698 
L 398.317412 72.657828 
L 400.040231 73.114084 
L 401.763049 71.325249 
L 403.485867 73.559374 
L 405.208686 72.14392 
L 406.931504 71.504419 
L 408.654323 77.566931 
L 410.377141 71.682467 
L 412.09996 70.62243 
L 413.822778 70.375215 
L 415.545597 71.455854 
L 417.268415 70.926253 
L 418.991233 70.705279 
L 420.714052 69.341967 
L 422.43687 69.897679 
L 424.159689 69.412387 
L 425.882507 69.910368 
L 427.605326 70.724 
L 429.328144 68.19036 
L 431.050962 68.942345 
L 432.773781 69.158854 
L 434.496599 69.260946 
L 436.219418 69.908932 
L 437.942236 69.171021 
L 439.665055 68.652491 
L 443.110692 68.008134 
L 444.83351 66.953998 
L 446.556328 70.242704 
L 448.279147 68.28616 
L 450.001965 66.025976 
L 451.724784 66.79723 
L 453.447602 68.141272 
L 455.170421 66.494556 
L 456.893239 66.433431 
L 458.616058 69.648975 
L 460.338876 67.995941 
L 462.061694 67.243825 
L 463.784513 69.470013 
L 465.507331 65.375535 
L 467.23015 69.100262 
L 468.952968 66.772399 
L 470.675787 66.428 
L 472.398605 67.803871 
L 474.121424 66.79253 
L 475.844242 66.504713 
L 477.56706 65.6445 
L 479.289879 65.215555 
L 481.012697 66.789084 
L 482.735516 64.007889 
L 484.458334 64.157372 
L 486.181153 67.336179 
L 487.903971 63.483145 
L 489.62679 67.716792 
L 491.349608 62.901792 
L 493.072426 66.967393 
L 494.795245 65.479847 
L 496.518063 66.346117 
L 498.240882 65.294436 
L 499.9637 65.971613 
L 501.686519 65.753068 
L 503.409337 64.90484 
L 505.132156 64.749429 
L 506.854974 63.885587 
L 508.577792 63.354811 
L 510.300611 65.63732 
L 512.023429 64.897502 
L 513.746248 64.711543 
L 515.469066 64.291215 
L 518.914703 63.151958 
L 520.637521 64.230273 
L 522.36034 64.524356 
L 524.083158 64.618276 
L 525.805977 63.306924 
L 527.528795 64.487932 
L 529.251614 63.102243 
L 530.974432 62.890487 
L 532.697251 64.819354 
L 534.420069 65.126858 
L 536.142887 64.294531 
L 537.865706 62.788185 
L 539.588524 62.739672 
L 541.311343 64.116091 
L 543.034161 61.789221 
L 544.75698 63.06078 
L 546.479798 62.341094 
L 548.202617 60.640642 
L 549.925435 63.050074 
L 551.648253 61.632479 
L 553.371072 63.348179 
L 555.09389 61.523075 
L 556.816709 62.392271 
L 558.539527 63.489019 
L 560.262346 61.702298 
L 561.985164 61.340328 
L 563.707983 61.778359 
L 565.430801 60.309064 
L 567.153619 61.444143 
L 568.876438 62.178582 
L 570.599256 61.439965 
L 572.322075 59.201793 
L 574.044893 62.409686 
L 575.767712 62.838605 
L 577.49053 60.278697 
L 579.213349 61.198547 
L 580.936167 60.73981 
L 582.658985 61.614541 
L 584.381804 60.684926 
L 586.104622 61.411374 
L 587.827441 60.007513 
L 589.550259 60.149763 
L 591.273078 58.756947 
L 592.995896 60.230941 
L 594.718715 59.727268 
L 596.441533 60.96269 
L 598.164351 61.094392 
L 599.88717 59.476084 
L 601.609988 60.883497 
L 603.332807 61.350563 
L 605.055625 59.202132 
L 606.778444 59.5558 
L 608.501262 61.777366 
L 610.22408 58.79841 
L 611.946899 60.018949 
L 613.669717 60.85266 
L 615.392536 61.245442 
L 617.115354 58.996537 
L 618.838173 60.050334 
L 620.560991 59.19738 
L 622.28381 58.694542 
L 624.006628 60.711297 
L 625.729446 58.877316 
L 627.452265 57.841692 
L 629.175083 59.474988 
L 630.897902 57.320421 
L 632.62072 58.930138 
L 634.343539 59.235841 
L 636.066357 57.92697 
L 637.789176 59.037896 
L 639.511994 56.895001 
L 641.234812 57.41562 
L 642.957631 59.106802 
L 644.680449 56.792099 
L 646.403268 58.683602 
L 648.126086 58.859613 
L 649.848905 57.605809 
L 651.571723 58.603756 
L 653.294542 57.893183 
L 655.01736 57.876211 
L 656.740178 57.42972 
L 658.462997 56.314824 
L 660.185815 57.373713 
L 661.908634 58.103686 
L 663.631452 56.272525 
L 665.354271 57.755345 
L 667.077089 58.137081 
L 668.799908 56.595382 
L 670.522726 58.706188 
L 672.245544 56.505718 
L 673.968363 57.421103 
L 677.414 57.297391 
L 679.136818 56.430389 
L 679.136818 56.430389 
" clip-path="url(#p8b5fc06c90)" style="fill: none; stroke: #0000ff; stroke-width: 1.5; stroke-linecap: square"/>
   </g>
   <g id="patch_3">
    <path d="M 47.81 390.04 
L 47.81 25.44 
" style="fill: none; stroke: #000000; stroke-width: 0.8; stroke-linejoin: miter; stroke-linecap: square"/>
   </g>
   <g id="patch_4">
    <path d="M 709.2 390.04 
L 709.2 25.44 
" style="fill: none; stroke: #000000; stroke-width: 0.8; stroke-linejoin: miter; stroke-linecap: square"/>
   </g>
   <g id="patch_5">
    <path d="M 47.81 390.04 
L 709.2 390.04 
" style="fill: none; stroke: #000000; stroke-width: 0.8; stroke-linejoin: miter; stroke-linecap: square"/>
   </g>
   <g id="patch_6">
    <path d="M 47.81 25.44 
L 709.2 25.44 
" style="fill: none; stroke: #000000; stroke-width: 0.8; stroke-linejoin: miter; stroke-linecap: square"/>
   </g>
   <g id="text_20">
    <!-- gan_IS_FID_cifar10_generatorcnn2_discriminatorcnn Trial 3 -->
    <g transform="translate(201.552813 19.44) scale(0.12 -0.12)">
     <defs>
      <path id="DejaVuSans-67" d="M 2906 1791 
Q 2906 2416 2648 2759 
Q 2391 3103 1925 3103 
Q 1463 3103 1205 2759 
Q 947 2416 947 1791 
Q 947 1169 1205 825 
Q 1463 481 1925 481 
Q 2391 481 2648 825 
Q 2906 1169 2906 1791 
z
M 3481 434 
Q 3481 -459 3084 -895 
Q 2688 -1331 1869 -1331 
Q 1566 -1331 1297 -1286 
Q 1028 -1241 775 -1147 
L 775 -588 
Q 1028 -725 1275 -790 
Q 1522 -856 1778 -856 
Q 2344 -856 2625 -561 
Q 2906 -266 2906 331 
L 2906 616 
Q 2728 306 2450 153 
Q 2172 0 1784 0 
Q 1141 0 747 490 
Q 353 981 353 1791 
Q 353 2603 747 3093 
Q 1141 3584 1784 3584 
Q 2172 3584 2450 3431 
Q 2728 3278 2906 2969 
L 2906 3500 
L 3481 3500 
L 3481 434 
z
" transform="scale(0.015625)"/>
      <path id="DejaVuSans-6e" d="M 3513 2113 
L 3513 0 
L 2938 0 
L 2938 2094 
Q 2938 2591 2744 2837 
Q 2550 3084 2163 3084 
Q 1697 3084 1428 2787 
Q 1159 2491 1159 1978 
L 1159 0 
L 581 0 
L 581 3500 
L 1159 3500 
L 1159 2956 
Q 1366 3272 1645 3428 
Q 1925 3584 2291 3584 
Q 2894 3584 3203 3211 
Q 3513 2838 3513 2113 
z
" transform="scale(0.015625)"/>
      <path id="DejaVuSans-5f" d="M 3263 -1063 
L 3263 -1509 
L -63 -1509 
L -63 -1063 
L 3263 -1063 
z
" transform="scale(0.015625)"/>
      <path id="DejaVuSans-49" d="M 628 4666 
L 1259 4666 
L 1259 0 
L 628 0 
L 628 4666 
z
" transform="scale(0.015625)"/>
      <path id="DejaVuSans-53" d="M 3425 4513 
L 3425 3897 
Q 3066 4069 2747 4153 
Q 2428 4238 2131 4238 
Q 1616 4238 1336 4038 
Q 1056 3838 1056 3469 
Q 1056 3159 1242 3001 
Q 1428 2844 1947 2747 
L 2328 2669 
Q 3034 2534 3370 2195 
Q 3706 1856 3706 1288 
Q 3706 609 3251 259 
Q 2797 -91 1919 -91 
Q 1588 -91 1214 -16 
Q 841 59 441 206 
L 441 856 
Q 825 641 1194 531 
Q 1563 422 1919 422 
Q 2459 422 2753 634 
Q 3047 847 3047 1241 
Q 3047 1584 2836 1778 
Q 2625 1972 2144 2069 
L 1759 2144 
Q 1053 2284 737 2584 
Q 422 2884 422 3419 
Q 422 4038 858 4394 
Q 1294 4750 2059 4750 
Q 2388 4750 2728 4690 
Q 3069 4631 3425 4513 
z
" transform="scale(0.015625)"/>
      <path id="DejaVuSans-46" d="M 628 4666 
L 3309 4666 
L 3309 4134 
L 1259 4134 
L 1259 2759 
L 3109 2759 
L 3109 2228 
L 1259 2228 
L 1259 0 
L 628 0 
L 628 4666 
z
" transform="scale(0.015625)"/>
      <path id="DejaVuSans-44" d="M 1259 4147 
L 1259 519 
L 2022 519 
Q 2988 519 3436 956 
Q 3884 1394 3884 2338 
Q 3884 3275 3436 3711 
Q 2988 4147 2022 4147 
L 1259 4147 
z
M 628 4666 
L 1925 4666 
Q 3281 4666 3915 4102 
Q 4550 3538 4550 2338 
Q 4550 1131 3912 565 
Q 3275 0 1925 0 
L 628 0 
L 628 4666 
z
" transform="scale(0.015625)"/>
      <path id="DejaVuSans-69" d="M 603 3500 
L 1178 3500 
L 1178 0 
L 603 0 
L 603 3500 
z
M 603 4863 
L 1178 4863 
L 1178 4134 
L 603 4134 
L 603 4863 
z
" transform="scale(0.015625)"/>
      <path id="DejaVuSans-66" d="M 2375 4863 
L 2375 4384 
L 1825 4384 
Q 1516 4384 1395 4259 
Q 1275 4134 1275 3809 
L 1275 3500 
L 2222 3500 
L 2222 3053 
L 1275 3053 
L 1275 0 
L 697 0 
L 697 3053 
L 147 3053 
L 147 3500 
L 697 3500 
L 697 3744 
Q 697 4328 969 4595 
Q 1241 4863 1831 4863 
L 2375 4863 
z
" transform="scale(0.015625)"/>
      <path id="DejaVuSans-72" d="M 2631 2963 
Q 2534 3019 2420 3045 
Q 2306 3072 2169 3072 
Q 1681 3072 1420 2755 
Q 1159 2438 1159 1844 
L 1159 0 
L 581 0 
L 581 3500 
L 1159 3500 
L 1159 2956 
Q 1341 3275 1631 3429 
Q 1922 3584 2338 3584 
Q 2397 3584 2469 3576 
Q 2541 3569 2628 3553 
L 2631 2963 
z
" transform="scale(0.015625)"/>
      <path id="DejaVuSans-74" d="M 1172 4494 
L 1172 3500 
L 2356 3500 
L 2356 3053 
L 1172 3053 
L 1172 1153 
Q 1172 725 1289 603 
Q 1406 481 1766 481 
L 2356 481 
L 2356 0 
L 1766 0 
Q 1100 0 847 248 
Q 594 497 594 1153 
L 594 3053 
L 172 3053 
L 172 3500 
L 594 3500 
L 594 4494 
L 1172 4494 
z
" transform="scale(0.015625)"/>
      <path id="DejaVuSans-64" d="M 2906 2969 
L 2906 4863 
L 3481 4863 
L 3481 0 
L 2906 0 
L 2906 525 
Q 2725 213 2448 61 
Q 2172 -91 1784 -91 
Q 1150 -91 751 415 
Q 353 922 353 1747 
Q 353 2572 751 3078 
Q 1150 3584 1784 3584 
Q 2172 3584 2448 3432 
Q 2725 3281 2906 2969 
z
M 947 1747 
Q 947 1113 1208 752 
Q 1469 391 1925 391 
Q 2381 391 2643 752 
Q 2906 1113 2906 1747 
Q 2906 2381 2643 2742 
Q 2381 3103 1925 3103 
Q 1469 3103 1208 2742 
Q 947 2381 947 1747 
z
" transform="scale(0.015625)"/>
      <path id="DejaVuSans-73" d="M 2834 3397 
L 2834 2853 
Q 2591 2978 2328 3040 
Q 2066 3103 1784 3103 
Q 1356 3103 1142 2972 
Q 928 2841 928 2578 
Q 928 2378 1081 2264 
Q 1234 2150 1697 2047 
L 1894 2003 
Q 2506 1872 2764 1633 
Q 3022 1394 3022 966 
Q 3022 478 2636 193 
Q 2250 -91 1575 -91 
Q 1294 -91 989 -36 
Q 684 19 347 128 
L 347 722 
Q 666 556 975 473 
Q 1284 391 1588 391 
Q 1994 391 2212 530 
Q 2431 669 2431 922 
Q 2431 1156 2273 1281 
Q 2116 1406 1581 1522 
L 1381 1569 
Q 847 1681 609 1914 
Q 372 2147 372 2553 
Q 372 3047 722 3315 
Q 1072 3584 1716 3584 
Q 2034 3584 2315 3537 
Q 2597 3491 2834 3397 
z
" transform="scale(0.015625)"/>
      <path id="DejaVuSans-6d" d="M 3328 2828 
Q 3544 3216 3844 3400 
Q 4144 3584 4550 3584 
Q 5097 3584 5394 3201 
Q 5691 2819 5691 2113 
L 5691 0 
L 5113 0 
L 5113 2094 
Q 5113 2597 4934 2840 
Q 4756 3084 4391 3084 
Q 3944 3084 3684 2787 
Q 3425 2491 3425 1978 
L 3425 0 
L 2847 0 
L 2847 2094 
Q 2847 2600 2669 2842 
Q 2491 3084 2119 3084 
Q 1678 3084 1418 2786 
Q 1159 2488 1159 1978 
L 1159 0 
L 581 0 
L 581 3500 
L 1159 3500 
L 1159 2956 
Q 1356 3278 1631 3431 
Q 1906 3584 2284 3584 
Q 2666 3584 2933 3390 
Q 3200 3197 3328 2828 
z
" transform="scale(0.015625)"/>
      <path id="DejaVuSans-20" transform="scale(0.015625)"/>
      <path id="DejaVuSans-54" d="M -19 4666 
L 3928 4666 
L 3928 4134 
L 2272 4134 
L 2272 0 
L 1638 0 
L 1638 4134 
L -19 4134 
L -19 4666 
z
" transform="scale(0.015625)"/>
     </defs>
     <use xlink:href="#DejaVuSans-67"/>
     <use xlink:href="#DejaVuSans-61" transform="translate(63.476562 0)"/>
     <use xlink:href="#DejaVuSans-6e" transform="translate(124.755859 0)"/>
     <use xlink:href="#DejaVuSans-5f" transform="translate(188.134766 0)"/>
     <use xlink:href="#DejaVuSans-49" transform="translate(238.134766 0)"/>
     <use xlink:href="#DejaVuSans-53" transform="translate(267.626953 0)"/>
     <use xlink:href="#DejaVuSans-5f" transform="translate(331.103516 0)"/>
     <use xlink:href="#DejaVuSans-46" transform="translate(381.103516 0)"/>
     <use xlink:href="#DejaVuSans-49" transform="translate(438.623047 0)"/>
     <use xlink:href="#DejaVuSans-44" transform="translate(468.115234 0)"/>
     <use xlink:href="#DejaVuSans-5f" transform="translate(545.117188 0)"/>
     <use xlink:href="#DejaVuSans-63" transform="translate(595.117188 0)"/>
     <use xlink:href="#DejaVuSans-69" transform="translate(650.097656 0)"/>
     <use xlink:href="#DejaVuSans-66" transform="translate(677.880859 0)"/>
     <use xlink:href="#DejaVuSans-61" transform="translate(713.085938 0)"/>
     <use xlink:href="#DejaVuSans-72" transform="translate(774.365234 0)"/>
     <use xlink:href="#DejaVuSans-31" transform="translate(815.478516 0)"/>
     <use xlink:href="#DejaVuSans-30" transform="translate(879.101562 0)"/>
     <use xlink:href="#DejaVuSans-5f" transform="translate(942.724609 0)"/>
     <use xlink:href="#DejaVuSans-67" transform="translate(992.724609 0)"/>
     <use xlink:href="#DejaVuSans-65" transform="translate(1056.201172 0)"/>
     <use xlink:href="#DejaVuSans-6e" transform="translate(1117.724609 0)"/>
     <use xlink:href="#DejaVuSans-65" transform="translate(1181.103516 0)"/>
     <use xlink:href="#DejaVuSans-72" transform="translate(1242.626953 0)"/>
     <use xlink:href="#DejaVuSans-61" transform="translate(1283.740234 0)"/>
     <use xlink:href="#DejaVuSans-74" transform="translate(1345.019531 0)"/>
     <use xlink:href="#DejaVuSans-6f" transform="translate(1384.228516 0)"/>
     <use xlink:href="#DejaVuSans-72" transform="translate(1445.410156 0)"/>
     <use xlink:href="#DejaVuSans-63" transform="translate(1484.273438 0)"/>
     <use xlink:href="#DejaVuSans-6e" transform="translate(1539.253906 0)"/>
     <use xlink:href="#DejaVuSans-6e" transform="translate(1602.632812 0)"/>
     <use xlink:href="#DejaVuSans-32" transform="translate(1666.011719 0)"/>
     <use xlink:href="#DejaVuSans-5f" transform="translate(1729.634766 0)"/>
     <use xlink:href="#DejaVuSans-64" transform="translate(1779.634766 0)"/>
     <use xlink:href="#DejaVuSans-69" transform="translate(1843.111328 0)"/>
     <use xlink:href="#DejaVuSans-73" transform="translate(1870.894531 0)"/>
     <use xlink:href="#DejaVuSans-63" transform="translate(1922.994141 0)"/>
     <use xlink:href="#DejaVuSans-72" transform="translate(1977.974609 0)"/>
     <use xlink:href="#DejaVuSans-69" transform="translate(2019.087891 0)"/>
     <use xlink:href="#DejaVuSans-6d" transform="translate(2046.871094 0)"/>
     <use xlink:href="#DejaVuSans-69" transform="translate(2144.283203 0)"/>
     <use xlink:href="#DejaVuSans-6e" transform="translate(2172.066406 0)"/>
     <use xlink:href="#DejaVuSans-61" transform="translate(2235.445312 0)"/>
     <use xlink:href="#DejaVuSans-74" transform="translate(2296.724609 0)"/>
     <use xlink:href="#DejaVuSans-6f" transform="translate(2335.933594 0)"/>
     <use xlink:href="#DejaVuSans-72" transform="translate(2397.115234 0)"/>
     <use xlink:href="#DejaVuSans-63" transform="translate(2435.978516 0)"/>
     <use xlink:href="#DejaVuSans-6e" transform="translate(2490.958984 0)"/>
     <use xlink:href="#DejaVuSans-6e" transform="translate(2554.337891 0)"/>
     <use xlink:href="#DejaVuSans-20" transform="translate(2617.716797 0)"/>
     <use xlink:href="#DejaVuSans-54" transform="translate(2649.503906 0)"/>
     <use xlink:href="#DejaVuSans-72" transform="translate(2695.837891 0)"/>
     <use xlink:href="#DejaVuSans-69" transform="translate(2736.951172 0)"/>
     <use xlink:href="#DejaVuSans-61" transform="translate(2764.734375 0)"/>
     <use xlink:href="#DejaVuSans-6c" transform="translate(2826.013672 0)"/>
     <use xlink:href="#DejaVuSans-20" transform="translate(2853.796875 0)"/>
     <use xlink:href="#DejaVuSans-33" transform="translate(2885.583984 0)"/>
    </g>
   </g>
   <g id="legend_1">
    <g id="patch_7">
     <path d="M 580.026563 224.19625 
L 702.2 224.19625 
Q 704.2 224.19625 704.2 222.19625 
L 704.2 193.28375 
Q 704.2 191.28375 702.2 191.28375 
L 580.026563 191.28375 
Q 578.026563 191.28375 578.026563 193.28375 
L 578.026563 222.19625 
Q 578.026563 224.19625 580.026563 224.19625 
z
" style="fill: #ffffff; opacity: 0.8; stroke: #cccccc; stroke-linejoin: miter"/>
    </g>
    <g id="line2d_37">
     <path d="M 582.026563 199.382188 
L 592.026563 199.382188 
L 602.026563 199.382188 
" style="fill: none; stroke: #ff0000; stroke-width: 1.5; stroke-linecap: square"/>
    </g>
    <g id="text_21">
     <!-- discriminator_loss -->
     <g transform="translate(610.026563 202.882188) scale(0.1 -0.1)">
      <use xlink:href="#DejaVuSans-64"/>
      <use xlink:href="#DejaVuSans-69" transform="translate(63.476562 0)"/>
      <use xlink:href="#DejaVuSans-73" transform="translate(91.259766 0)"/>
      <use xlink:href="#DejaVuSans-63" transform="translate(143.359375 0)"/>
      <use xlink:href="#DejaVuSans-72" transform="translate(198.339844 0)"/>
      <use xlink:href="#DejaVuSans-69" transform="translate(239.453125 0)"/>
      <use xlink:href="#DejaVuSans-6d" transform="translate(267.236328 0)"/>
      <use xlink:href="#DejaVuSans-69" transform="translate(364.648438 0)"/>
      <use xlink:href="#DejaVuSans-6e" transform="translate(392.431641 0)"/>
      <use xlink:href="#DejaVuSans-61" transform="translate(455.810547 0)"/>
      <use xlink:href="#DejaVuSans-74" transform="translate(517.089844 0)"/>
      <use xlink:href="#DejaVuSans-6f" transform="translate(556.298828 0)"/>
      <use xlink:href="#DejaVuSans-72" transform="translate(617.480469 0)"/>
      <use xlink:href="#DejaVuSans-5f" transform="translate(658.59375 0)"/>
      <use xlink:href="#DejaVuSans-6c" transform="translate(708.59375 0)"/>
      <use xlink:href="#DejaVuSans-6f" transform="translate(736.376953 0)"/>
      <use xlink:href="#DejaVuSans-73" transform="translate(797.558594 0)"/>
      <use xlink:href="#DejaVuSans-73" transform="translate(849.658203 0)"/>
     </g>
    </g>
    <g id="line2d_38">
     <path d="M 582.026563 214.338437 
L 592.026563 214.338437 
L 602.026563 214.338437 
" style="fill: none; stroke: #0000ff; stroke-width: 1.5; stroke-linecap: square"/>
    </g>
    <g id="text_22">
     <!-- generator_loss -->
     <g transform="translate(610.026563 217.838437) scale(0.1 -0.1)">
      <use xlink:href="#DejaVuSans-67"/>
      <use xlink:href="#DejaVuSans-65" transform="translate(63.476562 0)"/>
      <use xlink:href="#DejaVuSans-6e" transform="translate(125 0)"/>
      <use xlink:href="#DejaVuSans-65" transform="translate(188.378906 0)"/>
      <use xlink:href="#DejaVuSans-72" transform="translate(249.902344 0)"/>
      <use xlink:href="#DejaVuSans-61" transform="translate(291.015625 0)"/>
      <use xlink:href="#DejaVuSans-74" transform="translate(352.294922 0)"/>
      <use xlink:href="#DejaVuSans-6f" transform="translate(391.503906 0)"/>
      <use xlink:href="#DejaVuSans-72" transform="translate(452.685547 0)"/>
      <use xlink:href="#DejaVuSans-5f" transform="translate(493.798828 0)"/>
      <use xlink:href="#DejaVuSans-6c" transform="translate(543.798828 0)"/>
      <use xlink:href="#DejaVuSans-6f" transform="translate(571.582031 0)"/>
      <use xlink:href="#DejaVuSans-73" transform="translate(632.763672 0)"/>
      <use xlink:href="#DejaVuSans-73" transform="translate(684.863281 0)"/>
     </g>
    </g>
   </g>
  </g>
 </g>
 <defs>
  <clipPath id="p8b5fc06c90">
   <rect x="47.81" y="25.44" width="661.39" height="364.6"/>
  </clipPath>
 </defs>
</svg>
