<?xml version="1.0" encoding="utf-8" standalone="no"?>
<!DOCTYPE svg PUBLIC "-//W3C//DTD SVG 1.1//EN"
  "http://www.w3.org/Graphics/SVG/1.1/DTD/svg11.dtd">
<svg xmlns:xlink="http://www.w3.org/1999/xlink" width="720pt" height="432pt" viewBox="0 0 720 432" xmlns="http://www.w3.org/2000/svg" version="1.1">
 <metadata>
  <rdf:RDF xmlns:dc="http://purl.org/dc/elements/1.1/" xmlns:cc="http://creativecommons.org/ns#" xmlns:rdf="http://www.w3.org/1999/02/22-rdf-syntax-ns#">
   <cc:Work>
    <dc:type rdf:resource="http://purl.org/dc/dcmitype/StillImage"/>
    <dc:date>2025-06-22T15:36:12.400040</dc:date>
    <dc:format>image/svg+xml</dc:format>
    <dc:creator>
     <cc:Agent>
      <dc:title>Matplotlib v3.10.1, https://matplotlib.org/</dc:title>
     </cc:Agent>
    </dc:creator>
   </cc:Work>
  </rdf:RDF>
 </metadata>
 <defs>
  <style type="text/css">*{stroke-linejoin: round; stroke-linecap: butt}</style>
 </defs>
 <g id="figure_1">
  <g id="patch_1">
   <path d="M 0 432 
L 720 432 
L 720 0 
L 0 0 
z
" style="fill: #ffffff"/>
  </g>
  <g id="axes_1">
   <g id="patch_2">
    <path d="M 47.81 390.04 
L 709.2 390.04 
L 709.2 25.44 
L 47.81 25.44 
z
" style="fill: #ffffff"/>
   </g>
   <g id="matplotlib.axis_1">
    <g id="xtick_1">
     <g id="line2d_1">
      <path d="M 77.873182 390.04 
L 77.873182 25.44 
" clip-path="url(#pfa8b3d89e9)" style="fill: none; stroke: #b0b0b0; stroke-width: 0.8; stroke-linecap: square"/>
     </g>
     <g id="line2d_2">
      <defs>
       <path id="m130539d03e" d="M 0 0 
L 0 3.5 
" style="stroke: #000000; stroke-width: 0.8"/>
      </defs>
      <g>
       <use xlink:href="#m130539d03e" x="77.873182" y="390.04" style="stroke: #000000; stroke-width: 0.8"/>
      </g>
     </g>
     <g id="text_1">
      <!-- 0 -->
      <g transform="translate(74.691932 404.638438) scale(0.1 -0.1)">
       <defs>
        <path id="DejaVuSans-30" d="M 2034 4250 
Q 1547 4250 1301 3770 
Q 1056 3291 1056 2328 
Q 1056 1369 1301 889 
Q 1547 409 2034 409 
Q 2525 409 2770 889 
Q 3016 1369 3016 2328 
Q 3016 3291 2770 3770 
Q 2525 4250 2034 4250 
z
M 2034 4750 
Q 2819 4750 3233 4129 
Q 3647 3509 3647 2328 
Q 3647 1150 3233 529 
Q 2819 -91 2034 -91 
Q 1250 -91 836 529 
Q 422 1150 422 2328 
Q 422 3509 836 4129 
Q 1250 4750 2034 4750 
z
" transform="scale(0.015625)"/>
       </defs>
       <use xlink:href="#DejaVuSans-30"/>
      </g>
     </g>
    </g>
    <g id="xtick_2">
     <g id="line2d_3">
      <path d="M 187.994727 390.04 
L 187.994727 25.44 
" clip-path="url(#pfa8b3d89e9)" style="fill: none; stroke: #b0b0b0; stroke-width: 0.8; stroke-linecap: square"/>
     </g>
     <g id="line2d_4">
      <g>
       <use xlink:href="#m130539d03e" x="187.994727" y="390.04" style="stroke: #000000; stroke-width: 0.8"/>
      </g>
     </g>
     <g id="text_2">
      <!-- 50 -->
      <g transform="translate(181.632227 404.638438) scale(0.1 -0.1)">
       <defs>
        <path id="DejaVuSans-35" d="M 691 4666 
L 3169 4666 
L 3169 4134 
L 1269 4134 
L 1269 2991 
Q 1406 3038 1543 3061 
Q 1681 3084 1819 3084 
Q 2600 3084 3056 2656 
Q 3513 2228 3513 1497 
Q 3513 744 3044 326 
Q 2575 -91 1722 -91 
Q 1428 -91 1123 -41 
Q 819 9 494 109 
L 494 744 
Q 775 591 1075 516 
Q 1375 441 1709 441 
Q 2250 441 2565 725 
Q 2881 1009 2881 1497 
Q 2881 1984 2565 2268 
Q 2250 2553 1709 2553 
Q 1456 2553 1204 2497 
Q 953 2441 691 2322 
L 691 4666 
z
" transform="scale(0.015625)"/>
       </defs>
       <use xlink:href="#DejaVuSans-35"/>
       <use xlink:href="#DejaVuSans-30" transform="translate(63.623047 0)"/>
      </g>
     </g>
    </g>
    <g id="xtick_3">
     <g id="line2d_5">
      <path d="M 298.116272 390.04 
L 298.116272 25.44 
" clip-path="url(#pfa8b3d89e9)" style="fill: none; stroke: #b0b0b0; stroke-width: 0.8; stroke-linecap: square"/>
     </g>
     <g id="line2d_6">
      <g>
       <use xlink:href="#m130539d03e" x="298.116272" y="390.04" style="stroke: #000000; stroke-width: 0.8"/>
      </g>
     </g>
     <g id="text_3">
      <!-- 100 -->
      <g transform="translate(288.572522 404.638438) scale(0.1 -0.1)">
       <defs>
        <path id="DejaVuSans-31" d="M 794 531 
L 1825 531 
L 1825 4091 
L 703 3866 
L 703 4441 
L 1819 4666 
L 2450 4666 
L 2450 531 
L 3481 531 
L 3481 0 
L 794 0 
L 794 531 
z
" transform="scale(0.015625)"/>
       </defs>
       <use xlink:href="#DejaVuSans-31"/>
       <use xlink:href="#DejaVuSans-30" transform="translate(63.623047 0)"/>
       <use xlink:href="#DejaVuSans-30" transform="translate(127.246094 0)"/>
      </g>
     </g>
    </g>
    <g id="xtick_4">
     <g id="line2d_7">
      <path d="M 408.237817 390.04 
L 408.237817 25.44 
" clip-path="url(#pfa8b3d89e9)" style="fill: none; stroke: #b0b0b0; stroke-width: 0.8; stroke-linecap: square"/>
     </g>
     <g id="line2d_8">
      <g>
       <use xlink:href="#m130539d03e" x="408.237817" y="390.04" style="stroke: #000000; stroke-width: 0.8"/>
      </g>
     </g>
     <g id="text_4">
      <!-- 150 -->
      <g transform="translate(398.694067 404.638438) scale(0.1 -0.1)">
       <use xlink:href="#DejaVuSans-31"/>
       <use xlink:href="#DejaVuSans-35" transform="translate(63.623047 0)"/>
       <use xlink:href="#DejaVuSans-30" transform="translate(127.246094 0)"/>
      </g>
     </g>
    </g>
    <g id="xtick_5">
     <g id="line2d_9">
      <path d="M 518.359362 390.04 
L 518.359362 25.44 
" clip-path="url(#pfa8b3d89e9)" style="fill: none; stroke: #b0b0b0; stroke-width: 0.8; stroke-linecap: square"/>
     </g>
     <g id="line2d_10">
      <g>
       <use xlink:href="#m130539d03e" x="518.359362" y="390.04" style="stroke: #000000; stroke-width: 0.8"/>
      </g>
     </g>
     <g id="text_5">
      <!-- 200 -->
      <g transform="translate(508.815612 404.638438) scale(0.1 -0.1)">
       <defs>
        <path id="DejaVuSans-32" d="M 1228 531 
L 3431 531 
L 3431 0 
L 469 0 
L 469 531 
Q 828 903 1448 1529 
Q 2069 2156 2228 2338 
Q 2531 2678 2651 2914 
Q 2772 3150 2772 3378 
Q 2772 3750 2511 3984 
Q 2250 4219 1831 4219 
Q 1534 4219 1204 4116 
Q 875 4013 500 3803 
L 500 4441 
Q 881 4594 1212 4672 
Q 1544 4750 1819 4750 
Q 2544 4750 2975 4387 
Q 3406 4025 3406 3419 
Q 3406 3131 3298 2873 
Q 3191 2616 2906 2266 
Q 2828 2175 2409 1742 
Q 1991 1309 1228 531 
z
" transform="scale(0.015625)"/>
       </defs>
       <use xlink:href="#DejaVuSans-32"/>
       <use xlink:href="#DejaVuSans-30" transform="translate(63.623047 0)"/>
       <use xlink:href="#DejaVuSans-30" transform="translate(127.246094 0)"/>
      </g>
     </g>
    </g>
    <g id="xtick_6">
     <g id="line2d_11">
      <path d="M 628.480907 390.04 
L 628.480907 25.44 
" clip-path="url(#pfa8b3d89e9)" style="fill: none; stroke: #b0b0b0; stroke-width: 0.8; stroke-linecap: square"/>
     </g>
     <g id="line2d_12">
      <g>
       <use xlink:href="#m130539d03e" x="628.480907" y="390.04" style="stroke: #000000; stroke-width: 0.8"/>
      </g>
     </g>
     <g id="text_6">
      <!-- 250 -->
      <g transform="translate(618.937157 404.638438) scale(0.1 -0.1)">
       <use xlink:href="#DejaVuSans-32"/>
       <use xlink:href="#DejaVuSans-35" transform="translate(63.623047 0)"/>
       <use xlink:href="#DejaVuSans-30" transform="translate(127.246094 0)"/>
      </g>
     </g>
    </g>
    <g id="text_7">
     <!-- Epoch -->
     <g transform="translate(363.194063 418.316562) scale(0.1 -0.1)">
      <defs>
       <path id="DejaVuSans-45" d="M 628 4666 
L 3578 4666 
L 3578 4134 
L 1259 4134 
L 1259 2753 
L 3481 2753 
L 3481 2222 
L 1259 2222 
L 1259 531 
L 3634 531 
L 3634 0 
L 628 0 
L 628 4666 
z
" transform="scale(0.015625)"/>
       <path id="DejaVuSans-70" d="M 1159 525 
L 1159 -1331 
L 581 -1331 
L 581 3500 
L 1159 3500 
L 1159 2969 
Q 1341 3281 1617 3432 
Q 1894 3584 2278 3584 
Q 2916 3584 3314 3078 
Q 3713 2572 3713 1747 
Q 3713 922 3314 415 
Q 2916 -91 2278 -91 
Q 1894 -91 1617 61 
Q 1341 213 1159 525 
z
M 3116 1747 
Q 3116 2381 2855 2742 
Q 2594 3103 2138 3103 
Q 1681 3103 1420 2742 
Q 1159 2381 1159 1747 
Q 1159 1113 1420 752 
Q 1681 391 2138 391 
Q 2594 391 2855 752 
Q 3116 1113 3116 1747 
z
" transform="scale(0.015625)"/>
       <path id="DejaVuSans-6f" d="M 1959 3097 
Q 1497 3097 1228 2736 
Q 959 2375 959 1747 
Q 959 1119 1226 758 
Q 1494 397 1959 397 
Q 2419 397 2687 759 
Q 2956 1122 2956 1747 
Q 2956 2369 2687 2733 
Q 2419 3097 1959 3097 
z
M 1959 3584 
Q 2709 3584 3137 3096 
Q 3566 2609 3566 1747 
Q 3566 888 3137 398 
Q 2709 -91 1959 -91 
Q 1206 -91 779 398 
Q 353 888 353 1747 
Q 353 2609 779 3096 
Q 1206 3584 1959 3584 
z
" transform="scale(0.015625)"/>
       <path id="DejaVuSans-63" d="M 3122 3366 
L 3122 2828 
Q 2878 2963 2633 3030 
Q 2388 3097 2138 3097 
Q 1578 3097 1268 2742 
Q 959 2388 959 1747 
Q 959 1106 1268 751 
Q 1578 397 2138 397 
Q 2388 397 2633 464 
Q 2878 531 3122 666 
L 3122 134 
Q 2881 22 2623 -34 
Q 2366 -91 2075 -91 
Q 1284 -91 818 406 
Q 353 903 353 1747 
Q 353 2603 823 3093 
Q 1294 3584 2113 3584 
Q 2378 3584 2631 3529 
Q 2884 3475 3122 3366 
z
" transform="scale(0.015625)"/>
       <path id="DejaVuSans-68" d="M 3513 2113 
L 3513 0 
L 2938 0 
L 2938 2094 
Q 2938 2591 2744 2837 
Q 2550 3084 2163 3084 
Q 1697 3084 1428 2787 
Q 1159 2491 1159 1978 
L 1159 0 
L 581 0 
L 581 4863 
L 1159 4863 
L 1159 2956 
Q 1366 3272 1645 3428 
Q 1925 3584 2291 3584 
Q 2894 3584 3203 3211 
Q 3513 2838 3513 2113 
z
" transform="scale(0.015625)"/>
      </defs>
      <use xlink:href="#DejaVuSans-45"/>
      <use xlink:href="#DejaVuSans-70" transform="translate(63.183594 0)"/>
      <use xlink:href="#DejaVuSans-6f" transform="translate(126.660156 0)"/>
      <use xlink:href="#DejaVuSans-63" transform="translate(187.841797 0)"/>
      <use xlink:href="#DejaVuSans-68" transform="translate(242.822266 0)"/>
     </g>
    </g>
   </g>
   <g id="matplotlib.axis_2">
    <g id="ytick_1">
     <g id="line2d_13">
      <path d="M 47.81 369.316412 
L 709.2 369.316412 
" clip-path="url(#pfa8b3d89e9)" style="fill: none; stroke: #b0b0b0; stroke-width: 0.8; stroke-linecap: square"/>
     </g>
     <g id="line2d_14">
      <defs>
       <path id="md1a6163eb7" d="M 0 0 
L -3.5 0 
" style="stroke: #000000; stroke-width: 0.8"/>
      </defs>
      <g>
       <use xlink:href="#md1a6163eb7" x="47.81" y="369.316412" style="stroke: #000000; stroke-width: 0.8"/>
      </g>
     </g>
     <g id="text_8">
      <!-- 0.1 -->
      <g transform="translate(24.906875 373.115631) scale(0.1 -0.1)">
       <defs>
        <path id="DejaVuSans-2e" d="M 684 794 
L 1344 794 
L 1344 0 
L 684 0 
L 684 794 
z
" transform="scale(0.015625)"/>
       </defs>
       <use xlink:href="#DejaVuSans-30"/>
       <use xlink:href="#DejaVuSans-2e" transform="translate(63.623047 0)"/>
       <use xlink:href="#DejaVuSans-31" transform="translate(95.410156 0)"/>
      </g>
     </g>
    </g>
    <g id="ytick_2">
     <g id="line2d_15">
      <path d="M 47.81 325.654249 
L 709.2 325.654249 
" clip-path="url(#pfa8b3d89e9)" style="fill: none; stroke: #b0b0b0; stroke-width: 0.8; stroke-linecap: square"/>
     </g>
     <g id="line2d_16">
      <g>
       <use xlink:href="#md1a6163eb7" x="47.81" y="325.654249" style="stroke: #000000; stroke-width: 0.8"/>
      </g>
     </g>
     <g id="text_9">
      <!-- 0.2 -->
      <g transform="translate(24.906875 329.453468) scale(0.1 -0.1)">
       <use xlink:href="#DejaVuSans-30"/>
       <use xlink:href="#DejaVuSans-2e" transform="translate(63.623047 0)"/>
       <use xlink:href="#DejaVuSans-32" transform="translate(95.410156 0)"/>
      </g>
     </g>
    </g>
    <g id="ytick_3">
     <g id="line2d_17">
      <path d="M 47.81 281.992086 
L 709.2 281.992086 
" clip-path="url(#pfa8b3d89e9)" style="fill: none; stroke: #b0b0b0; stroke-width: 0.8; stroke-linecap: square"/>
     </g>
     <g id="line2d_18">
      <g>
       <use xlink:href="#md1a6163eb7" x="47.81" y="281.992086" style="stroke: #000000; stroke-width: 0.8"/>
      </g>
     </g>
     <g id="text_10">
      <!-- 0.3 -->
      <g transform="translate(24.906875 285.791304) scale(0.1 -0.1)">
       <defs>
        <path id="DejaVuSans-33" d="M 2597 2516 
Q 3050 2419 3304 2112 
Q 3559 1806 3559 1356 
Q 3559 666 3084 287 
Q 2609 -91 1734 -91 
Q 1441 -91 1130 -33 
Q 819 25 488 141 
L 488 750 
Q 750 597 1062 519 
Q 1375 441 1716 441 
Q 2309 441 2620 675 
Q 2931 909 2931 1356 
Q 2931 1769 2642 2001 
Q 2353 2234 1838 2234 
L 1294 2234 
L 1294 2753 
L 1863 2753 
Q 2328 2753 2575 2939 
Q 2822 3125 2822 3475 
Q 2822 3834 2567 4026 
Q 2313 4219 1838 4219 
Q 1578 4219 1281 4162 
Q 984 4106 628 3988 
L 628 4550 
Q 988 4650 1302 4700 
Q 1616 4750 1894 4750 
Q 2613 4750 3031 4423 
Q 3450 4097 3450 3541 
Q 3450 3153 3228 2886 
Q 3006 2619 2597 2516 
z
" transform="scale(0.015625)"/>
       </defs>
       <use xlink:href="#DejaVuSans-30"/>
       <use xlink:href="#DejaVuSans-2e" transform="translate(63.623047 0)"/>
       <use xlink:href="#DejaVuSans-33" transform="translate(95.410156 0)"/>
      </g>
     </g>
    </g>
    <g id="ytick_4">
     <g id="line2d_19">
      <path d="M 47.81 238.329922 
L 709.2 238.329922 
" clip-path="url(#pfa8b3d89e9)" style="fill: none; stroke: #b0b0b0; stroke-width: 0.8; stroke-linecap: square"/>
     </g>
     <g id="line2d_20">
      <g>
       <use xlink:href="#md1a6163eb7" x="47.81" y="238.329922" style="stroke: #000000; stroke-width: 0.8"/>
      </g>
     </g>
     <g id="text_11">
      <!-- 0.4 -->
      <g transform="translate(24.906875 242.129141) scale(0.1 -0.1)">
       <defs>
        <path id="DejaVuSans-34" d="M 2419 4116 
L 825 1625 
L 2419 1625 
L 2419 4116 
z
M 2253 4666 
L 3047 4666 
L 3047 1625 
L 3713 1625 
L 3713 1100 
L 3047 1100 
L 3047 0 
L 2419 0 
L 2419 1100 
L 313 1100 
L 313 1709 
L 2253 4666 
z
" transform="scale(0.015625)"/>
       </defs>
       <use xlink:href="#DejaVuSans-30"/>
       <use xlink:href="#DejaVuSans-2e" transform="translate(63.623047 0)"/>
       <use xlink:href="#DejaVuSans-34" transform="translate(95.410156 0)"/>
      </g>
     </g>
    </g>
    <g id="ytick_5">
     <g id="line2d_21">
      <path d="M 47.81 194.667759 
L 709.2 194.667759 
" clip-path="url(#pfa8b3d89e9)" style="fill: none; stroke: #b0b0b0; stroke-width: 0.8; stroke-linecap: square"/>
     </g>
     <g id="line2d_22">
      <g>
       <use xlink:href="#md1a6163eb7" x="47.81" y="194.667759" style="stroke: #000000; stroke-width: 0.8"/>
      </g>
     </g>
     <g id="text_12">
      <!-- 0.5 -->
      <g transform="translate(24.906875 198.466978) scale(0.1 -0.1)">
       <use xlink:href="#DejaVuSans-30"/>
       <use xlink:href="#DejaVuSans-2e" transform="translate(63.623047 0)"/>
       <use xlink:href="#DejaVuSans-35" transform="translate(95.410156 0)"/>
      </g>
     </g>
    </g>
    <g id="ytick_6">
     <g id="line2d_23">
      <path d="M 47.81 151.005596 
L 709.2 151.005596 
" clip-path="url(#pfa8b3d89e9)" style="fill: none; stroke: #b0b0b0; stroke-width: 0.8; stroke-linecap: square"/>
     </g>
     <g id="line2d_24">
      <g>
       <use xlink:href="#md1a6163eb7" x="47.81" y="151.005596" style="stroke: #000000; stroke-width: 0.8"/>
      </g>
     </g>
     <g id="text_13">
      <!-- 0.6 -->
      <g transform="translate(24.906875 154.804815) scale(0.1 -0.1)">
       <defs>
        <path id="DejaVuSans-36" d="M 2113 2584 
Q 1688 2584 1439 2293 
Q 1191 2003 1191 1497 
Q 1191 994 1439 701 
Q 1688 409 2113 409 
Q 2538 409 2786 701 
Q 3034 994 3034 1497 
Q 3034 2003 2786 2293 
Q 2538 2584 2113 2584 
z
M 3366 4563 
L 3366 3988 
Q 3128 4100 2886 4159 
Q 2644 4219 2406 4219 
Q 1781 4219 1451 3797 
Q 1122 3375 1075 2522 
Q 1259 2794 1537 2939 
Q 1816 3084 2150 3084 
Q 2853 3084 3261 2657 
Q 3669 2231 3669 1497 
Q 3669 778 3244 343 
Q 2819 -91 2113 -91 
Q 1303 -91 875 529 
Q 447 1150 447 2328 
Q 447 3434 972 4092 
Q 1497 4750 2381 4750 
Q 2619 4750 2861 4703 
Q 3103 4656 3366 4563 
z
" transform="scale(0.015625)"/>
       </defs>
       <use xlink:href="#DejaVuSans-30"/>
       <use xlink:href="#DejaVuSans-2e" transform="translate(63.623047 0)"/>
       <use xlink:href="#DejaVuSans-36" transform="translate(95.410156 0)"/>
      </g>
     </g>
    </g>
    <g id="ytick_7">
     <g id="line2d_25">
      <path d="M 47.81 107.343432 
L 709.2 107.343432 
" clip-path="url(#pfa8b3d89e9)" style="fill: none; stroke: #b0b0b0; stroke-width: 0.8; stroke-linecap: square"/>
     </g>
     <g id="line2d_26">
      <g>
       <use xlink:href="#md1a6163eb7" x="47.81" y="107.343432" style="stroke: #000000; stroke-width: 0.8"/>
      </g>
     </g>
     <g id="text_14">
      <!-- 0.7 -->
      <g transform="translate(24.906875 111.142651) scale(0.1 -0.1)">
       <defs>
        <path id="DejaVuSans-37" d="M 525 4666 
L 3525 4666 
L 3525 4397 
L 1831 0 
L 1172 0 
L 2766 4134 
L 525 4134 
L 525 4666 
z
" transform="scale(0.015625)"/>
       </defs>
       <use xlink:href="#DejaVuSans-30"/>
       <use xlink:href="#DejaVuSans-2e" transform="translate(63.623047 0)"/>
       <use xlink:href="#DejaVuSans-37" transform="translate(95.410156 0)"/>
      </g>
     </g>
    </g>
    <g id="ytick_8">
     <g id="line2d_27">
      <path d="M 47.81 63.681269 
L 709.2 63.681269 
" clip-path="url(#pfa8b3d89e9)" style="fill: none; stroke: #b0b0b0; stroke-width: 0.8; stroke-linecap: square"/>
     </g>
     <g id="line2d_28">
      <g>
       <use xlink:href="#md1a6163eb7" x="47.81" y="63.681269" style="stroke: #000000; stroke-width: 0.8"/>
      </g>
     </g>
     <g id="text_15">
      <!-- 0.8 -->
      <g transform="translate(24.906875 67.480488) scale(0.1 -0.1)">
       <defs>
        <path id="DejaVuSans-38" d="M 2034 2216 
Q 1584 2216 1326 1975 
Q 1069 1734 1069 1313 
Q 1069 891 1326 650 
Q 1584 409 2034 409 
Q 2484 409 2743 651 
Q 3003 894 3003 1313 
Q 3003 1734 2745 1975 
Q 2488 2216 2034 2216 
z
M 1403 2484 
Q 997 2584 770 2862 
Q 544 3141 544 3541 
Q 544 4100 942 4425 
Q 1341 4750 2034 4750 
Q 2731 4750 3128 4425 
Q 3525 4100 3525 3541 
Q 3525 3141 3298 2862 
Q 3072 2584 2669 2484 
Q 3125 2378 3379 2068 
Q 3634 1759 3634 1313 
Q 3634 634 3220 271 
Q 2806 -91 2034 -91 
Q 1263 -91 848 271 
Q 434 634 434 1313 
Q 434 1759 690 2068 
Q 947 2378 1403 2484 
z
M 1172 3481 
Q 1172 3119 1398 2916 
Q 1625 2713 2034 2713 
Q 2441 2713 2670 2916 
Q 2900 3119 2900 3481 
Q 2900 3844 2670 4047 
Q 2441 4250 2034 4250 
Q 1625 4250 1398 4047 
Q 1172 3844 1172 3481 
z
" transform="scale(0.015625)"/>
       </defs>
       <use xlink:href="#DejaVuSans-30"/>
       <use xlink:href="#DejaVuSans-2e" transform="translate(63.623047 0)"/>
       <use xlink:href="#DejaVuSans-38" transform="translate(95.410156 0)"/>
      </g>
     </g>
    </g>
    <g id="text_16">
     <!-- Value -->
     <g transform="translate(18.827188 221.47125) rotate(-90) scale(0.1 -0.1)">
      <defs>
       <path id="DejaVuSans-56" d="M 1831 0 
L 50 4666 
L 709 4666 
L 2188 738 
L 3669 4666 
L 4325 4666 
L 2547 0 
L 1831 0 
z
" transform="scale(0.015625)"/>
       <path id="DejaVuSans-61" d="M 2194 1759 
Q 1497 1759 1228 1600 
Q 959 1441 959 1056 
Q 959 750 1161 570 
Q 1363 391 1709 391 
Q 2188 391 2477 730 
Q 2766 1069 2766 1631 
L 2766 1759 
L 2194 1759 
z
M 3341 1997 
L 3341 0 
L 2766 0 
L 2766 531 
Q 2569 213 2275 61 
Q 1981 -91 1556 -91 
Q 1019 -91 701 211 
Q 384 513 384 1019 
Q 384 1609 779 1909 
Q 1175 2209 1959 2209 
L 2766 2209 
L 2766 2266 
Q 2766 2663 2505 2880 
Q 2244 3097 1772 3097 
Q 1472 3097 1187 3025 
Q 903 2953 641 2809 
L 641 3341 
Q 956 3463 1253 3523 
Q 1550 3584 1831 3584 
Q 2591 3584 2966 3190 
Q 3341 2797 3341 1997 
z
" transform="scale(0.015625)"/>
       <path id="DejaVuSans-6c" d="M 603 4863 
L 1178 4863 
L 1178 0 
L 603 0 
L 603 4863 
z
" transform="scale(0.015625)"/>
       <path id="DejaVuSans-75" d="M 544 1381 
L 544 3500 
L 1119 3500 
L 1119 1403 
Q 1119 906 1312 657 
Q 1506 409 1894 409 
Q 2359 409 2629 706 
Q 2900 1003 2900 1516 
L 2900 3500 
L 3475 3500 
L 3475 0 
L 2900 0 
L 2900 538 
Q 2691 219 2414 64 
Q 2138 -91 1772 -91 
Q 1169 -91 856 284 
Q 544 659 544 1381 
z
M 1991 3584 
L 1991 3584 
z
" transform="scale(0.015625)"/>
       <path id="DejaVuSans-65" d="M 3597 1894 
L 3597 1613 
L 953 1613 
Q 991 1019 1311 708 
Q 1631 397 2203 397 
Q 2534 397 2845 478 
Q 3156 559 3463 722 
L 3463 178 
Q 3153 47 2828 -22 
Q 2503 -91 2169 -91 
Q 1331 -91 842 396 
Q 353 884 353 1716 
Q 353 2575 817 3079 
Q 1281 3584 2069 3584 
Q 2775 3584 3186 3129 
Q 3597 2675 3597 1894 
z
M 3022 2063 
Q 3016 2534 2758 2815 
Q 2500 3097 2075 3097 
Q 1594 3097 1305 2825 
Q 1016 2553 972 2059 
L 3022 2063 
z
" transform="scale(0.015625)"/>
      </defs>
      <use xlink:href="#DejaVuSans-56"/>
      <use xlink:href="#DejaVuSans-61" transform="translate(60.658203 0)"/>
      <use xlink:href="#DejaVuSans-6c" transform="translate(121.9375 0)"/>
      <use xlink:href="#DejaVuSans-75" transform="translate(149.720703 0)"/>
      <use xlink:href="#DejaVuSans-65" transform="translate(213.099609 0)"/>
     </g>
    </g>
   </g>
   <g id="line2d_29">
    <path d="M 77.873182 356.951759 
L 80.075613 357.142721 
L 82.278044 357.850111 
L 84.480475 357.57222 
L 86.682905 357.513651 
L 88.885336 358.277684 
L 91.087767 358.901245 
L 93.290198 358.940057 
L 95.492629 359.195841 
L 97.69506 359.301901 
L 99.897491 360.172199 
L 102.099922 359.748328 
L 104.302353 360.022108 
L 106.504784 359.991057 
L 108.707214 360.61361 
L 110.909645 360.237322 
L 113.112076 360.813561 
L 115.314507 361.020613 
L 117.516938 360.795415 
L 119.719369 361.06261 
L 121.9218 361.180551 
L 124.124231 361.180701 
L 126.326662 361.642053 
L 128.529093 361.223052 
L 130.731523 361.259409 
L 132.933954 361.877209 
L 137.338816 361.911727 
L 141.743678 361.854336 
L 143.946109 362.735971 
L 146.14854 363.120437 
L 148.350971 363.201468 
L 150.553402 362.981979 
L 152.755833 363.102018 
L 154.958263 362.730187 
L 157.160694 363.061745 
L 159.363125 363.558243 
L 161.565556 363.308218 
L 163.767987 363.673126 
L 165.970418 364.326847 
L 168.172849 364.203486 
L 170.37528 363.654717 
L 174.780142 364.269677 
L 176.982572 364.4029 
L 179.185003 364.243831 
L 181.387434 364.729032 
L 183.589865 364.853697 
L 185.792296 364.59967 
L 190.197158 365.07518 
L 192.399589 364.963687 
L 196.804451 365.50608 
L 199.006881 365.6812 
L 203.411743 365.0591 
L 205.614174 365.573676 
L 210.019036 365.59607 
L 212.221467 366.209068 
L 214.423898 366.082335 
L 216.626329 365.796805 
L 218.82876 366.032852 
L 221.03119 365.535065 
L 223.233621 366.23888 
L 225.436052 365.912976 
L 227.638483 365.900045 
L 229.840914 366.417959 
L 232.043345 366.099394 
L 236.448207 366.317246 
L 238.650638 366.216489 
L 240.853069 366.569175 
L 243.0555 366.802646 
L 245.25793 366.8007 
L 247.460361 366.573703 
L 249.662792 367.091659 
L 254.067654 366.684416 
L 258.472516 367.516753 
L 260.674947 367.066516 
L 262.877378 366.811881 
L 265.079809 367.611538 
L 267.282239 367.608877 
L 269.48467 367.412209 
L 271.687101 367.415498 
L 273.889532 367.697133 
L 276.091963 367.5616 
L 278.294394 367.307381 
L 280.496825 367.888506 
L 282.699256 367.441438 
L 284.901687 367.399193 
L 287.104118 368.21694 
L 289.306548 368.512607 
L 291.508979 367.976472 
L 293.71141 367.678574 
L 295.913841 368.299784 
L 298.116272 368.649402 
L 300.318703 367.995581 
L 302.521134 368.600603 
L 304.723565 368.652886 
L 306.925996 368.128232 
L 309.128427 368.260789 
L 311.330857 368.560183 
L 313.533288 368.032318 
L 315.735719 368.484692 
L 317.93815 368.656185 
L 320.140581 369.049935 
L 322.343012 368.70693 
L 324.545443 368.887941 
L 326.747874 368.33845 
L 328.950305 369.037541 
L 331.152736 368.955573 
L 333.355167 368.650746 
L 335.557597 369.204671 
L 337.760028 369.406899 
L 339.962459 368.998865 
L 342.16489 369.095683 
L 344.367321 368.95906 
L 346.569752 369.604475 
L 348.772183 369.23457 
L 350.974614 369.518718 
L 353.177045 369.251532 
L 355.379476 369.349778 
L 361.986768 369.23092 
L 364.189199 369.576011 
L 368.594061 369.960278 
L 370.796492 370.274159 
L 372.998923 369.73778 
L 375.201354 369.709622 
L 377.403785 370.164923 
L 379.606215 369.630601 
L 381.808646 369.916911 
L 384.011077 369.967995 
L 388.415939 369.649332 
L 392.820801 369.851131 
L 397.225663 370.474991 
L 399.428094 369.843314 
L 401.630524 370.322291 
L 403.832955 370.059312 
L 406.035386 370.025415 
L 408.237817 370.633751 
L 410.440248 370.604288 
L 414.84511 370.257217 
L 419.249972 370.291338 
L 421.452403 370.684168 
L 423.654833 370.732154 
L 425.857264 371.061389 
L 428.059695 370.670648 
L 432.464557 370.691412 
L 434.666988 370.039621 
L 436.869419 370.625996 
L 439.07185 370.226521 
L 441.274281 370.674896 
L 443.476712 370.734675 
L 445.679143 370.378641 
L 447.881573 370.698839 
L 450.084004 371.152348 
L 452.286435 371.05349 
L 454.488866 370.45179 
L 456.691297 371.011695 
L 458.893728 370.695238 
L 461.096159 371.407924 
L 463.29859 371.277361 
L 469.905882 371.717094 
L 472.108313 371.486951 
L 474.310744 370.990654 
L 476.513175 371.608343 
L 478.715606 371.503753 
L 480.918037 371.561115 
L 485.322899 371.356177 
L 487.52533 371.333636 
L 489.727761 371.579273 
L 491.930191 371.390464 
L 496.335053 371.5559 
L 500.739915 371.29349 
L 502.942346 371.816114 
L 505.144777 371.178933 
L 507.347208 371.55943 
L 509.549639 371.553841 
L 511.75207 371.134492 
L 513.9545 371.792386 
L 516.156931 371.670428 
L 518.359362 371.997272 
L 522.764224 371.669495 
L 524.966655 371.380461 
L 527.169086 372.006862 
L 529.371517 371.145237 
L 533.776379 371.37349 
L 540.383671 371.313659 
L 542.586102 371.559329 
L 544.788533 372.173235 
L 546.990964 372.077308 
L 549.193395 371.535432 
L 553.598257 371.673463 
L 555.800688 372.277311 
L 558.003119 371.802149 
L 560.205549 372.065688 
L 562.40798 371.9348 
L 564.610411 371.59835 
L 566.812842 372.148667 
L 571.217704 371.855037 
L 573.420135 372.055808 
L 575.622566 372.034504 
L 577.824997 371.273591 
L 580.027428 372.217805 
L 584.432289 372.096638 
L 586.63472 372.221741 
L 588.837151 371.504846 
L 591.039582 372.25854 
L 593.242013 371.480523 
L 595.444444 371.500152 
L 597.646875 372.266488 
L 599.849306 371.769637 
L 602.051737 371.902607 
L 604.254167 372.229497 
L 606.456598 371.413298 
L 608.659029 371.468974 
L 610.86146 371.754176 
L 615.266322 372.040567 
L 617.468753 371.474313 
L 619.671184 371.876134 
L 621.873615 372.010167 
L 624.076046 372.454724 
L 626.278477 372.179295 
L 628.480907 372.419383 
L 630.683338 372.431351 
L 632.885769 372.737251 
L 635.0882 372.429366 
L 637.290631 372.856581 
L 639.493062 372.757586 
L 641.695493 373.051802 
L 643.897924 373.01024 
L 646.100355 373.323021 
L 652.707647 373.041945 
L 654.910078 373.327982 
L 657.112509 373.467273 
L 659.31494 373.373893 
L 663.719802 372.759558 
L 665.922233 373.219531 
L 668.124664 372.902267 
L 670.327095 373.0931 
L 672.529525 372.261676 
L 674.731956 373.308457 
L 676.934387 373.40835 
L 679.136818 373.034765 
L 679.136818 373.034765 
" clip-path="url(#pfa8b3d89e9)" style="fill: none; stroke: #ff0000; stroke-width: 1.5; stroke-linecap: square"/>
   </g>
   <g id="line2d_30">
    <path d="M 77.873182 80.603342 
L 80.075613 78.81287 
L 82.278044 79.436421 
L 84.480475 77.860861 
L 86.682905 78.868069 
L 88.885336 77.017324 
L 91.087767 75.828178 
L 93.290198 75.807645 
L 95.492629 75.514763 
L 99.897491 73.33517 
L 102.099922 74.058552 
L 104.302353 73.940947 
L 106.504784 72.706076 
L 108.707214 71.913052 
L 110.909645 71.567626 
L 113.112076 72.226467 
L 115.314507 70.473158 
L 117.516938 71.697854 
L 119.719369 71.367054 
L 121.9218 69.698768 
L 124.124231 70.126848 
L 126.326662 70.87956 
L 128.529093 69.60016 
L 130.731523 68.91048 
L 132.933954 68.589362 
L 135.136385 70.124011 
L 137.338816 68.573123 
L 139.541247 68.626499 
L 141.743678 68.050287 
L 143.946109 67.892291 
L 146.14854 64.574977 
L 148.350971 66.404382 
L 150.553402 65.420884 
L 152.755833 66.659008 
L 154.958263 65.661612 
L 157.160694 65.81763 
L 159.363125 64.585517 
L 161.565556 65.605529 
L 163.767987 65.024293 
L 165.970418 64.638504 
L 168.172849 62.857921 
L 170.37528 63.959962 
L 172.577711 64.41987 
L 174.780142 63.124154 
L 176.982572 62.969931 
L 179.185003 62.98958 
L 181.387434 61.910024 
L 183.589865 61.390962 
L 185.792296 61.569283 
L 187.994727 62.350909 
L 190.197158 61.821098 
L 192.399589 61.528294 
L 194.60202 60.624588 
L 196.804451 61.84603 
L 199.006881 60.114478 
L 201.209312 60.543547 
L 203.411743 59.779358 
L 205.614174 60.417093 
L 207.816605 60.217041 
L 210.019036 59.211265 
L 212.221467 58.889444 
L 214.423898 58.958097 
L 216.626329 59.818005 
L 218.82876 60.113827 
L 221.03119 58.823862 
L 223.233621 59.815584 
L 225.436052 58.938058 
L 227.638483 59.11932 
L 229.840914 58.067299 
L 232.043345 57.804632 
L 234.245776 59.211448 
L 236.448207 57.794326 
L 238.650638 58.592815 
L 240.853069 58.381469 
L 243.0555 57.680182 
L 245.25793 56.765753 
L 247.460361 57.88562 
L 249.662792 56.201928 
L 251.865223 55.37705 
L 254.067654 57.618711 
L 256.270085 55.558364 
L 258.472516 56.454419 
L 260.674947 56.717737 
L 262.877378 57.264151 
L 265.079809 56.308083 
L 267.282239 54.794175 
L 269.48467 56.047966 
L 271.687101 55.745559 
L 273.889532 55.010804 
L 276.091963 56.375669 
L 280.496825 54.961774 
L 282.699256 55.04854 
L 284.901687 55.57567 
L 287.104118 55.392144 
L 289.306548 54.125939 
L 291.508979 53.782778 
L 293.71141 55.697726 
L 295.913841 53.969037 
L 298.116272 53.403182 
L 300.318703 55.605807 
L 302.521134 52.67155 
L 304.723565 51.857498 
L 306.925996 53.065434 
L 309.128427 53.429857 
L 311.330857 53.240918 
L 313.533288 53.851691 
L 315.735719 52.57807 
L 317.93815 52.787048 
L 320.140581 52.586762 
L 322.343012 51.864213 
L 324.545443 52.305201 
L 326.747874 52.147335 
L 328.950305 52.884302 
L 331.152736 51.819711 
L 333.355167 51.432541 
L 335.557597 51.358085 
L 337.760028 51.46921 
L 339.962459 52.254635 
L 342.16489 51.741194 
L 344.367321 51.982729 
L 346.569752 51.671084 
L 348.772183 51.988402 
L 350.974614 51.507623 
L 353.177045 52.441935 
L 355.379476 51.032048 
L 357.581906 51.699971 
L 359.784337 51.79811 
L 361.986768 50.439414 
L 364.189199 50.355276 
L 368.594061 50.522667 
L 370.796492 49.551061 
L 372.998923 50.147937 
L 375.201354 49.318947 
L 377.403785 50.219635 
L 379.606215 50.294222 
L 381.808646 51.003525 
L 384.011077 50.046571 
L 386.213508 50.273663 
L 388.415939 49.566702 
L 390.61837 50.769745 
L 392.820801 49.429682 
L 395.023232 50.753349 
L 397.225663 49.814041 
L 399.428094 49.506507 
L 401.630524 50.370709 
L 403.832955 49.127926 
L 406.035386 49.393013 
L 408.237817 49.461276 
L 410.440248 49.177061 
L 412.642679 49.583904 
L 414.84511 50.40337 
L 417.047541 49.131778 
L 419.249972 48.511167 
L 421.452403 49.059247 
L 423.654833 48.422007 
L 425.857264 48.120875 
L 428.059695 48.264922 
L 430.262126 49.013964 
L 432.464557 47.426615 
L 434.666988 49.783748 
L 436.869419 50.076994 
L 439.07185 48.681863 
L 441.274281 48.368422 
L 443.476712 48.28837 
L 445.679143 47.314553 
L 447.881573 48.202515 
L 450.084004 48.013393 
L 454.488866 48.10323 
L 456.691297 48.630204 
L 458.893728 48.286288 
L 461.096159 47.724623 
L 463.29859 47.020161 
L 465.501021 47.318899 
L 467.703452 47.249699 
L 469.905882 47.746588 
L 472.108313 47.399107 
L 474.310744 47.529985 
L 476.513175 46.088114 
L 478.715606 46.036923 
L 480.918037 47.143597 
L 483.120468 46.714033 
L 485.322899 46.503207 
L 487.52533 46.828047 
L 489.727761 46.080306 
L 491.930191 47.938963 
L 494.132622 46.263104 
L 496.335053 46.872393 
L 498.537484 47.06508 
L 500.739915 46.3081 
L 502.942346 46.177222 
L 505.144777 46.550598 
L 507.347208 46.553695 
L 509.549639 46.298445 
L 511.75207 47.280903 
L 513.9545 46.251731 
L 516.156931 45.89475 
L 520.561793 46.349636 
L 522.764224 45.811107 
L 524.966655 46.945054 
L 527.169086 44.92187 
L 529.371517 45.583625 
L 531.573948 45.563899 
L 533.776379 46.834059 
L 535.97881 46.358354 
L 538.18124 46.473019 
L 540.383671 46.845328 
L 542.586102 45.80002 
L 544.788533 45.855817 
L 546.990964 45.033073 
L 549.193395 46.363299 
L 551.395826 46.3792 
L 553.598257 45.753124 
L 555.800688 45.809546 
L 558.003119 46.066956 
L 560.205549 45.841452 
L 562.40798 47.781357 
L 564.610411 45.484862 
L 566.812842 46.596037 
L 569.015273 46.016468 
L 571.217704 46.608009 
L 573.420135 46.311223 
L 575.622566 45.447204 
L 577.824997 46.672472 
L 580.027428 46.547189 
L 582.229858 45.417874 
L 584.432289 46.884989 
L 586.63472 45.33306 
L 591.039582 46.045745 
L 593.242013 46.774098 
L 595.444444 46.253344 
L 597.646875 46.500266 
L 599.849306 45.536729 
L 602.051737 46.827839 
L 604.254167 45.311251 
L 606.456598 46.954813 
L 608.659029 45.83963 
L 610.86146 46.992575 
L 613.063891 46.367541 
L 615.266322 45.998979 
L 617.468753 45.972798 
L 619.671184 46.233279 
L 621.873615 46.370481 
L 624.076046 44.828571 
L 626.278477 43.580037 
L 628.480907 46.148881 
L 630.683338 45.3925 
L 632.885769 44.096081 
L 637.290631 44.823002 
L 639.493062 44.397212 
L 641.695493 43.811397 
L 643.897924 44.119659 
L 646.100355 43.892255 
L 648.302786 43.381573 
L 650.505216 44.196952 
L 652.707647 42.936707 
L 654.910078 43.406245 
L 657.112509 42.158986 
L 659.31494 42.191152 
L 661.517371 43.290018 
L 663.719802 43.020064 
L 665.922233 44.260244 
L 668.124664 42.555108 
L 670.327095 42.471646 
L 672.529525 43.944981 
L 674.731956 42.012727 
L 676.934387 43.417019 
L 679.136818 43.718046 
L 679.136818 43.718046 
" clip-path="url(#pfa8b3d89e9)" style="fill: none; stroke: #0000ff; stroke-width: 1.5; stroke-linecap: square"/>
   </g>
   <g id="patch_3">
    <path d="M 47.81 390.04 
L 47.81 25.44 
" style="fill: none; stroke: #000000; stroke-width: 0.8; stroke-linejoin: miter; stroke-linecap: square"/>
   </g>
   <g id="patch_4">
    <path d="M 709.2 390.04 
L 709.2 25.44 
" style="fill: none; stroke: #000000; stroke-width: 0.8; stroke-linejoin: miter; stroke-linecap: square"/>
   </g>
   <g id="patch_5">
    <path d="M 47.81 390.04 
L 709.2 390.04 
" style="fill: none; stroke: #000000; stroke-width: 0.8; stroke-linejoin: miter; stroke-linecap: square"/>
   </g>
   <g id="patch_6">
    <path d="M 47.81 25.44 
L 709.2 25.44 
" style="fill: none; stroke: #000000; stroke-width: 0.8; stroke-linejoin: miter; stroke-linecap: square"/>
   </g>
   <g id="text_17">
    <!-- gan_IS_FID_mnist_generator_discriminator Trial 14 -->
    <g transform="translate(227.155938 19.44) scale(0.12 -0.12)">
     <defs>
      <path id="DejaVuSans-67" d="M 2906 1791 
Q 2906 2416 2648 2759 
Q 2391 3103 1925 3103 
Q 1463 3103 1205 2759 
Q 947 2416 947 1791 
Q 947 1169 1205 825 
Q 1463 481 1925 481 
Q 2391 481 2648 825 
Q 2906 1169 2906 1791 
z
M 3481 434 
Q 3481 -459 3084 -895 
Q 2688 -1331 1869 -1331 
Q 1566 -1331 1297 -1286 
Q 1028 -1241 775 -1147 
L 775 -588 
Q 1028 -725 1275 -790 
Q 1522 -856 1778 -856 
Q 2344 -856 2625 -561 
Q 2906 -266 2906 331 
L 2906 616 
Q 2728 306 2450 153 
Q 2172 0 1784 0 
Q 1141 0 747 490 
Q 353 981 353 1791 
Q 353 2603 747 3093 
Q 1141 3584 1784 3584 
Q 2172 3584 2450 3431 
Q 2728 3278 2906 2969 
L 2906 3500 
L 3481 3500 
L 3481 434 
z
" transform="scale(0.015625)"/>
      <path id="DejaVuSans-6e" d="M 3513 2113 
L 3513 0 
L 2938 0 
L 2938 2094 
Q 2938 2591 2744 2837 
Q 2550 3084 2163 3084 
Q 1697 3084 1428 2787 
Q 1159 2491 1159 1978 
L 1159 0 
L 581 0 
L 581 3500 
L 1159 3500 
L 1159 2956 
Q 1366 3272 1645 3428 
Q 1925 3584 2291 3584 
Q 2894 3584 3203 3211 
Q 3513 2838 3513 2113 
z
" transform="scale(0.015625)"/>
      <path id="DejaVuSans-5f" d="M 3263 -1063 
L 3263 -1509 
L -63 -1509 
L -63 -1063 
L 3263 -1063 
z
" transform="scale(0.015625)"/>
      <path id="DejaVuSans-49" d="M 628 4666 
L 1259 4666 
L 1259 0 
L 628 0 
L 628 4666 
z
" transform="scale(0.015625)"/>
      <path id="DejaVuSans-53" d="M 3425 4513 
L 3425 3897 
Q 3066 4069 2747 4153 
Q 2428 4238 2131 4238 
Q 1616 4238 1336 4038 
Q 1056 3838 1056 3469 
Q 1056 3159 1242 3001 
Q 1428 2844 1947 2747 
L 2328 2669 
Q 3034 2534 3370 2195 
Q 3706 1856 3706 1288 
Q 3706 609 3251 259 
Q 2797 -91 1919 -91 
Q 1588 -91 1214 -16 
Q 841 59 441 206 
L 441 856 
Q 825 641 1194 531 
Q 1563 422 1919 422 
Q 2459 422 2753 634 
Q 3047 847 3047 1241 
Q 3047 1584 2836 1778 
Q 2625 1972 2144 2069 
L 1759 2144 
Q 1053 2284 737 2584 
Q 422 2884 422 3419 
Q 422 4038 858 4394 
Q 1294 4750 2059 4750 
Q 2388 4750 2728 4690 
Q 3069 4631 3425 4513 
z
" transform="scale(0.015625)"/>
      <path id="DejaVuSans-46" d="M 628 4666 
L 3309 4666 
L 3309 4134 
L 1259 4134 
L 1259 2759 
L 3109 2759 
L 3109 2228 
L 1259 2228 
L 1259 0 
L 628 0 
L 628 4666 
z
" transform="scale(0.015625)"/>
      <path id="DejaVuSans-44" d="M 1259 4147 
L 1259 519 
L 2022 519 
Q 2988 519 3436 956 
Q 3884 1394 3884 2338 
Q 3884 3275 3436 3711 
Q 2988 4147 2022 4147 
L 1259 4147 
z
M 628 4666 
L 1925 4666 
Q 3281 4666 3915 4102 
Q 4550 3538 4550 2338 
Q 4550 1131 3912 565 
Q 3275 0 1925 0 
L 628 0 
L 628 4666 
z
" transform="scale(0.015625)"/>
      <path id="DejaVuSans-6d" d="M 3328 2828 
Q 3544 3216 3844 3400 
Q 4144 3584 4550 3584 
Q 5097 3584 5394 3201 
Q 5691 2819 5691 2113 
L 5691 0 
L 5113 0 
L 5113 2094 
Q 5113 2597 4934 2840 
Q 4756 3084 4391 3084 
Q 3944 3084 3684 2787 
Q 3425 2491 3425 1978 
L 3425 0 
L 2847 0 
L 2847 2094 
Q 2847 2600 2669 2842 
Q 2491 3084 2119 3084 
Q 1678 3084 1418 2786 
Q 1159 2488 1159 1978 
L 1159 0 
L 581 0 
L 581 3500 
L 1159 3500 
L 1159 2956 
Q 1356 3278 1631 3431 
Q 1906 3584 2284 3584 
Q 2666 3584 2933 3390 
Q 3200 3197 3328 2828 
z
" transform="scale(0.015625)"/>
      <path id="DejaVuSans-69" d="M 603 3500 
L 1178 3500 
L 1178 0 
L 603 0 
L 603 3500 
z
M 603 4863 
L 1178 4863 
L 1178 4134 
L 603 4134 
L 603 4863 
z
" transform="scale(0.015625)"/>
      <path id="DejaVuSans-73" d="M 2834 3397 
L 2834 2853 
Q 2591 2978 2328 3040 
Q 2066 3103 1784 3103 
Q 1356 3103 1142 2972 
Q 928 2841 928 2578 
Q 928 2378 1081 2264 
Q 1234 2150 1697 2047 
L 1894 2003 
Q 2506 1872 2764 1633 
Q 3022 1394 3022 966 
Q 3022 478 2636 193 
Q 2250 -91 1575 -91 
Q 1294 -91 989 -36 
Q 684 19 347 128 
L 347 722 
Q 666 556 975 473 
Q 1284 391 1588 391 
Q 1994 391 2212 530 
Q 2431 669 2431 922 
Q 2431 1156 2273 1281 
Q 2116 1406 1581 1522 
L 1381 1569 
Q 847 1681 609 1914 
Q 372 2147 372 2553 
Q 372 3047 722 3315 
Q 1072 3584 1716 3584 
Q 2034 3584 2315 3537 
Q 2597 3491 2834 3397 
z
" transform="scale(0.015625)"/>
      <path id="DejaVuSans-74" d="M 1172 4494 
L 1172 3500 
L 2356 3500 
L 2356 3053 
L 1172 3053 
L 1172 1153 
Q 1172 725 1289 603 
Q 1406 481 1766 481 
L 2356 481 
L 2356 0 
L 1766 0 
Q 1100 0 847 248 
Q 594 497 594 1153 
L 594 3053 
L 172 3053 
L 172 3500 
L 594 3500 
L 594 4494 
L 1172 4494 
z
" transform="scale(0.015625)"/>
      <path id="DejaVuSans-72" d="M 2631 2963 
Q 2534 3019 2420 3045 
Q 2306 3072 2169 3072 
Q 1681 3072 1420 2755 
Q 1159 2438 1159 1844 
L 1159 0 
L 581 0 
L 581 3500 
L 1159 3500 
L 1159 2956 
Q 1341 3275 1631 3429 
Q 1922 3584 2338 3584 
Q 2397 3584 2469 3576 
Q 2541 3569 2628 3553 
L 2631 2963 
z
" transform="scale(0.015625)"/>
      <path id="DejaVuSans-64" d="M 2906 2969 
L 2906 4863 
L 3481 4863 
L 3481 0 
L 2906 0 
L 2906 525 
Q 2725 213 2448 61 
Q 2172 -91 1784 -91 
Q 1150 -91 751 415 
Q 353 922 353 1747 
Q 353 2572 751 3078 
Q 1150 3584 1784 3584 
Q 2172 3584 2448 3432 
Q 2725 3281 2906 2969 
z
M 947 1747 
Q 947 1113 1208 752 
Q 1469 391 1925 391 
Q 2381 391 2643 752 
Q 2906 1113 2906 1747 
Q 2906 2381 2643 2742 
Q 2381 3103 1925 3103 
Q 1469 3103 1208 2742 
Q 947 2381 947 1747 
z
" transform="scale(0.015625)"/>
      <path id="DejaVuSans-20" transform="scale(0.015625)"/>
      <path id="DejaVuSans-54" d="M -19 4666 
L 3928 4666 
L 3928 4134 
L 2272 4134 
L 2272 0 
L 1638 0 
L 1638 4134 
L -19 4134 
L -19 4666 
z
" transform="scale(0.015625)"/>
     </defs>
     <use xlink:href="#DejaVuSans-67"/>
     <use xlink:href="#DejaVuSans-61" transform="translate(63.476562 0)"/>
     <use xlink:href="#DejaVuSans-6e" transform="translate(124.755859 0)"/>
     <use xlink:href="#DejaVuSans-5f" transform="translate(188.134766 0)"/>
     <use xlink:href="#DejaVuSans-49" transform="translate(238.134766 0)"/>
     <use xlink:href="#DejaVuSans-53" transform="translate(267.626953 0)"/>
     <use xlink:href="#DejaVuSans-5f" transform="translate(331.103516 0)"/>
     <use xlink:href="#DejaVuSans-46" transform="translate(381.103516 0)"/>
     <use xlink:href="#DejaVuSans-49" transform="translate(438.623047 0)"/>
     <use xlink:href="#DejaVuSans-44" transform="translate(468.115234 0)"/>
     <use xlink:href="#DejaVuSans-5f" transform="translate(545.117188 0)"/>
     <use xlink:href="#DejaVuSans-6d" transform="translate(595.117188 0)"/>
     <use xlink:href="#DejaVuSans-6e" transform="translate(692.529297 0)"/>
     <use xlink:href="#DejaVuSans-69" transform="translate(755.908203 0)"/>
     <use xlink:href="#DejaVuSans-73" transform="translate(783.691406 0)"/>
     <use xlink:href="#DejaVuSans-74" transform="translate(835.791016 0)"/>
     <use xlink:href="#DejaVuSans-5f" transform="translate(875 0)"/>
     <use xlink:href="#DejaVuSans-67" transform="translate(925 0)"/>
     <use xlink:href="#DejaVuSans-65" transform="translate(988.476562 0)"/>
     <use xlink:href="#DejaVuSans-6e" transform="translate(1050 0)"/>
     <use xlink:href="#DejaVuSans-65" transform="translate(1113.378906 0)"/>
     <use xlink:href="#DejaVuSans-72" transform="translate(1174.902344 0)"/>
     <use xlink:href="#DejaVuSans-61" transform="translate(1216.015625 0)"/>
     <use xlink:href="#DejaVuSans-74" transform="translate(1277.294922 0)"/>
     <use xlink:href="#DejaVuSans-6f" transform="translate(1316.503906 0)"/>
     <use xlink:href="#DejaVuSans-72" transform="translate(1377.685547 0)"/>
     <use xlink:href="#DejaVuSans-5f" transform="translate(1418.798828 0)"/>
     <use xlink:href="#DejaVuSans-64" transform="translate(1468.798828 0)"/>
     <use xlink:href="#DejaVuSans-69" transform="translate(1532.275391 0)"/>
     <use xlink:href="#DejaVuSans-73" transform="translate(1560.058594 0)"/>
     <use xlink:href="#DejaVuSans-63" transform="translate(1612.158203 0)"/>
     <use xlink:href="#DejaVuSans-72" transform="translate(1667.138672 0)"/>
     <use xlink:href="#DejaVuSans-69" transform="translate(1708.251953 0)"/>
     <use xlink:href="#DejaVuSans-6d" transform="translate(1736.035156 0)"/>
     <use xlink:href="#DejaVuSans-69" transform="translate(1833.447266 0)"/>
     <use xlink:href="#DejaVuSans-6e" transform="translate(1861.230469 0)"/>
     <use xlink:href="#DejaVuSans-61" transform="translate(1924.609375 0)"/>
     <use xlink:href="#DejaVuSans-74" transform="translate(1985.888672 0)"/>
     <use xlink:href="#DejaVuSans-6f" transform="translate(2025.097656 0)"/>
     <use xlink:href="#DejaVuSans-72" transform="translate(2086.279297 0)"/>
     <use xlink:href="#DejaVuSans-20" transform="translate(2127.392578 0)"/>
     <use xlink:href="#DejaVuSans-54" transform="translate(2159.179688 0)"/>
     <use xlink:href="#DejaVuSans-72" transform="translate(2205.513672 0)"/>
     <use xlink:href="#DejaVuSans-69" transform="translate(2246.626953 0)"/>
     <use xlink:href="#DejaVuSans-61" transform="translate(2274.410156 0)"/>
     <use xlink:href="#DejaVuSans-6c" transform="translate(2335.689453 0)"/>
     <use xlink:href="#DejaVuSans-20" transform="translate(2363.472656 0)"/>
     <use xlink:href="#DejaVuSans-31" transform="translate(2395.259766 0)"/>
     <use xlink:href="#DejaVuSans-34" transform="translate(2458.882812 0)"/>
    </g>
   </g>
   <g id="legend_1">
    <g id="patch_7">
     <path d="M 580.026563 224.19625 
L 702.2 224.19625 
Q 704.2 224.19625 704.2 222.19625 
L 704.2 193.28375 
Q 704.2 191.28375 702.2 191.28375 
L 580.026563 191.28375 
Q 578.026563 191.28375 578.026563 193.28375 
L 578.026563 222.19625 
Q 578.026563 224.19625 580.026563 224.19625 
z
" style="fill: #ffffff; opacity: 0.8; stroke: #cccccc; stroke-linejoin: miter"/>
    </g>
    <g id="line2d_31">
     <path d="M 582.026563 199.382188 
L 592.026563 199.382188 
L 602.026563 199.382188 
" style="fill: none; stroke: #ff0000; stroke-width: 1.5; stroke-linecap: square"/>
    </g>
    <g id="text_18">
     <!-- discriminator_loss -->
     <g transform="translate(610.026563 202.882188) scale(0.1 -0.1)">
      <use xlink:href="#DejaVuSans-64"/>
      <use xlink:href="#DejaVuSans-69" transform="translate(63.476562 0)"/>
      <use xlink:href="#DejaVuSans-73" transform="translate(91.259766 0)"/>
      <use xlink:href="#DejaVuSans-63" transform="translate(143.359375 0)"/>
      <use xlink:href="#DejaVuSans-72" transform="translate(198.339844 0)"/>
      <use xlink:href="#DejaVuSans-69" transform="translate(239.453125 0)"/>
      <use xlink:href="#DejaVuSans-6d" transform="translate(267.236328 0)"/>
      <use xlink:href="#DejaVuSans-69" transform="translate(364.648438 0)"/>
      <use xlink:href="#DejaVuSans-6e" transform="translate(392.431641 0)"/>
      <use xlink:href="#DejaVuSans-61" transform="translate(455.810547 0)"/>
      <use xlink:href="#DejaVuSans-74" transform="translate(517.089844 0)"/>
      <use xlink:href="#DejaVuSans-6f" transform="translate(556.298828 0)"/>
      <use xlink:href="#DejaVuSans-72" transform="translate(617.480469 0)"/>
      <use xlink:href="#DejaVuSans-5f" transform="translate(658.59375 0)"/>
      <use xlink:href="#DejaVuSans-6c" transform="translate(708.59375 0)"/>
      <use xlink:href="#DejaVuSans-6f" transform="translate(736.376953 0)"/>
      <use xlink:href="#DejaVuSans-73" transform="translate(797.558594 0)"/>
      <use xlink:href="#DejaVuSans-73" transform="translate(849.658203 0)"/>
     </g>
    </g>
    <g id="line2d_32">
     <path d="M 582.026563 214.338437 
L 592.026563 214.338437 
L 602.026563 214.338437 
" style="fill: none; stroke: #0000ff; stroke-width: 1.5; stroke-linecap: square"/>
    </g>
    <g id="text_19">
     <!-- generator_loss -->
     <g transform="translate(610.026563 217.838437) scale(0.1 -0.1)">
      <use xlink:href="#DejaVuSans-67"/>
      <use xlink:href="#DejaVuSans-65" transform="translate(63.476562 0)"/>
      <use xlink:href="#DejaVuSans-6e" transform="translate(125 0)"/>
      <use xlink:href="#DejaVuSans-65" transform="translate(188.378906 0)"/>
      <use xlink:href="#DejaVuSans-72" transform="translate(249.902344 0)"/>
      <use xlink:href="#DejaVuSans-61" transform="translate(291.015625 0)"/>
      <use xlink:href="#DejaVuSans-74" transform="translate(352.294922 0)"/>
      <use xlink:href="#DejaVuSans-6f" transform="translate(391.503906 0)"/>
      <use xlink:href="#DejaVuSans-72" transform="translate(452.685547 0)"/>
      <use xlink:href="#DejaVuSans-5f" transform="translate(493.798828 0)"/>
      <use xlink:href="#DejaVuSans-6c" transform="translate(543.798828 0)"/>
      <use xlink:href="#DejaVuSans-6f" transform="translate(571.582031 0)"/>
      <use xlink:href="#DejaVuSans-73" transform="translate(632.763672 0)"/>
      <use xlink:href="#DejaVuSans-73" transform="translate(684.863281 0)"/>
     </g>
    </g>
   </g>
  </g>
 </g>
 <defs>
  <clipPath id="pfa8b3d89e9">
   <rect x="47.81" y="25.44" width="661.39" height="364.6"/>
  </clipPath>
 </defs>
</svg>
