<?xml version="1.0" encoding="utf-8" standalone="no"?>
<!DOCTYPE svg PUBLIC "-//W3C//DTD SVG 1.1//EN"
  "http://www.w3.org/Graphics/SVG/1.1/DTD/svg11.dtd">
<svg xmlns:xlink="http://www.w3.org/1999/xlink" width="720pt" height="432pt" viewBox="0 0 720 432" xmlns="http://www.w3.org/2000/svg" version="1.1">
 <metadata>
  <rdf:RDF xmlns:dc="http://purl.org/dc/elements/1.1/" xmlns:cc="http://creativecommons.org/ns#" xmlns:rdf="http://www.w3.org/1999/02/22-rdf-syntax-ns#">
   <cc:Work>
    <dc:type rdf:resource="http://purl.org/dc/dcmitype/StillImage"/>
    <dc:date>2025-06-22T15:36:13.086699</dc:date>
    <dc:format>image/svg+xml</dc:format>
    <dc:creator>
     <cc:Agent>
      <dc:title>Matplotlib v3.10.1, https://matplotlib.org/</dc:title>
     </cc:Agent>
    </dc:creator>
   </cc:Work>
  </rdf:RDF>
 </metadata>
 <defs>
  <style type="text/css">*{stroke-linejoin: round; stroke-linecap: butt}</style>
 </defs>
 <g id="figure_1">
  <g id="patch_1">
   <path d="M 0 432 
L 720 432 
L 720 0 
L 0 0 
z
" style="fill: #ffffff"/>
  </g>
  <g id="axes_1">
   <g id="patch_2">
    <path d="M 54.2 390.04 
L 709.2 390.04 
L 709.2 25.44 
L 54.2 25.44 
z
" style="fill: #ffffff"/>
   </g>
   <g id="matplotlib.axis_1">
    <g id="xtick_1">
     <g id="line2d_1">
      <path d="M 83.972727 390.04 
L 83.972727 25.44 
" clip-path="url(#pcacb23f87a)" style="fill: none; stroke: #b0b0b0; stroke-width: 0.8; stroke-linecap: square"/>
     </g>
     <g id="line2d_2">
      <defs>
       <path id="m97daba961e" d="M 0 0 
L 0 3.5 
" style="stroke: #000000; stroke-width: 0.8"/>
      </defs>
      <g>
       <use xlink:href="#m97daba961e" x="83.972727" y="390.04" style="stroke: #000000; stroke-width: 0.8"/>
      </g>
     </g>
     <g id="text_1">
      <!-- 0 -->
      <g transform="translate(80.791477 404.638438) scale(0.1 -0.1)">
       <defs>
        <path id="DejaVuSans-30" d="M 2034 4250 
Q 1547 4250 1301 3770 
Q 1056 3291 1056 2328 
Q 1056 1369 1301 889 
Q 1547 409 2034 409 
Q 2525 409 2770 889 
Q 3016 1369 3016 2328 
Q 3016 3291 2770 3770 
Q 2525 4250 2034 4250 
z
M 2034 4750 
Q 2819 4750 3233 4129 
Q 3647 3509 3647 2328 
Q 3647 1150 3233 529 
Q 2819 -91 2034 -91 
Q 1250 -91 836 529 
Q 422 1150 422 2328 
Q 422 3509 836 4129 
Q 1250 4750 2034 4750 
z
" transform="scale(0.015625)"/>
       </defs>
       <use xlink:href="#DejaVuSans-30"/>
      </g>
     </g>
    </g>
    <g id="xtick_2">
     <g id="line2d_3">
      <path d="M 171.027485 390.04 
L 171.027485 25.44 
" clip-path="url(#pcacb23f87a)" style="fill: none; stroke: #b0b0b0; stroke-width: 0.8; stroke-linecap: square"/>
     </g>
     <g id="line2d_4">
      <g>
       <use xlink:href="#m97daba961e" x="171.027485" y="390.04" style="stroke: #000000; stroke-width: 0.8"/>
      </g>
     </g>
     <g id="text_2">
      <!-- 50 -->
      <g transform="translate(164.664985 404.638438) scale(0.1 -0.1)">
       <defs>
        <path id="DejaVuSans-35" d="M 691 4666 
L 3169 4666 
L 3169 4134 
L 1269 4134 
L 1269 2991 
Q 1406 3038 1543 3061 
Q 1681 3084 1819 3084 
Q 2600 3084 3056 2656 
Q 3513 2228 3513 1497 
Q 3513 744 3044 326 
Q 2575 -91 1722 -91 
Q 1428 -91 1123 -41 
Q 819 9 494 109 
L 494 744 
Q 775 591 1075 516 
Q 1375 441 1709 441 
Q 2250 441 2565 725 
Q 2881 1009 2881 1497 
Q 2881 1984 2565 2268 
Q 2250 2553 1709 2553 
Q 1456 2553 1204 2497 
Q 953 2441 691 2322 
L 691 4666 
z
" transform="scale(0.015625)"/>
       </defs>
       <use xlink:href="#DejaVuSans-35"/>
       <use xlink:href="#DejaVuSans-30" transform="translate(63.623047 0)"/>
      </g>
     </g>
    </g>
    <g id="xtick_3">
     <g id="line2d_5">
      <path d="M 258.082243 390.04 
L 258.082243 25.44 
" clip-path="url(#pcacb23f87a)" style="fill: none; stroke: #b0b0b0; stroke-width: 0.8; stroke-linecap: square"/>
     </g>
     <g id="line2d_6">
      <g>
       <use xlink:href="#m97daba961e" x="258.082243" y="390.04" style="stroke: #000000; stroke-width: 0.8"/>
      </g>
     </g>
     <g id="text_3">
      <!-- 100 -->
      <g transform="translate(248.538493 404.638438) scale(0.1 -0.1)">
       <defs>
        <path id="DejaVuSans-31" d="M 794 531 
L 1825 531 
L 1825 4091 
L 703 3866 
L 703 4441 
L 1819 4666 
L 2450 4666 
L 2450 531 
L 3481 531 
L 3481 0 
L 794 0 
L 794 531 
z
" transform="scale(0.015625)"/>
       </defs>
       <use xlink:href="#DejaVuSans-31"/>
       <use xlink:href="#DejaVuSans-30" transform="translate(63.623047 0)"/>
       <use xlink:href="#DejaVuSans-30" transform="translate(127.246094 0)"/>
      </g>
     </g>
    </g>
    <g id="xtick_4">
     <g id="line2d_7">
      <path d="M 345.137002 390.04 
L 345.137002 25.44 
" clip-path="url(#pcacb23f87a)" style="fill: none; stroke: #b0b0b0; stroke-width: 0.8; stroke-linecap: square"/>
     </g>
     <g id="line2d_8">
      <g>
       <use xlink:href="#m97daba961e" x="345.137002" y="390.04" style="stroke: #000000; stroke-width: 0.8"/>
      </g>
     </g>
     <g id="text_4">
      <!-- 150 -->
      <g transform="translate(335.593252 404.638438) scale(0.1 -0.1)">
       <use xlink:href="#DejaVuSans-31"/>
       <use xlink:href="#DejaVuSans-35" transform="translate(63.623047 0)"/>
       <use xlink:href="#DejaVuSans-30" transform="translate(127.246094 0)"/>
      </g>
     </g>
    </g>
    <g id="xtick_5">
     <g id="line2d_9">
      <path d="M 432.19176 390.04 
L 432.19176 25.44 
" clip-path="url(#pcacb23f87a)" style="fill: none; stroke: #b0b0b0; stroke-width: 0.8; stroke-linecap: square"/>
     </g>
     <g id="line2d_10">
      <g>
       <use xlink:href="#m97daba961e" x="432.19176" y="390.04" style="stroke: #000000; stroke-width: 0.8"/>
      </g>
     </g>
     <g id="text_5">
      <!-- 200 -->
      <g transform="translate(422.64801 404.638438) scale(0.1 -0.1)">
       <defs>
        <path id="DejaVuSans-32" d="M 1228 531 
L 3431 531 
L 3431 0 
L 469 0 
L 469 531 
Q 828 903 1448 1529 
Q 2069 2156 2228 2338 
Q 2531 2678 2651 2914 
Q 2772 3150 2772 3378 
Q 2772 3750 2511 3984 
Q 2250 4219 1831 4219 
Q 1534 4219 1204 4116 
Q 875 4013 500 3803 
L 500 4441 
Q 881 4594 1212 4672 
Q 1544 4750 1819 4750 
Q 2544 4750 2975 4387 
Q 3406 4025 3406 3419 
Q 3406 3131 3298 2873 
Q 3191 2616 2906 2266 
Q 2828 2175 2409 1742 
Q 1991 1309 1228 531 
z
" transform="scale(0.015625)"/>
       </defs>
       <use xlink:href="#DejaVuSans-32"/>
       <use xlink:href="#DejaVuSans-30" transform="translate(63.623047 0)"/>
       <use xlink:href="#DejaVuSans-30" transform="translate(127.246094 0)"/>
      </g>
     </g>
    </g>
    <g id="xtick_6">
     <g id="line2d_11">
      <path d="M 519.246518 390.04 
L 519.246518 25.44 
" clip-path="url(#pcacb23f87a)" style="fill: none; stroke: #b0b0b0; stroke-width: 0.8; stroke-linecap: square"/>
     </g>
     <g id="line2d_12">
      <g>
       <use xlink:href="#m97daba961e" x="519.246518" y="390.04" style="stroke: #000000; stroke-width: 0.8"/>
      </g>
     </g>
     <g id="text_6">
      <!-- 250 -->
      <g transform="translate(509.702768 404.638438) scale(0.1 -0.1)">
       <use xlink:href="#DejaVuSans-32"/>
       <use xlink:href="#DejaVuSans-35" transform="translate(63.623047 0)"/>
       <use xlink:href="#DejaVuSans-30" transform="translate(127.246094 0)"/>
      </g>
     </g>
    </g>
    <g id="xtick_7">
     <g id="line2d_13">
      <path d="M 606.301276 390.04 
L 606.301276 25.44 
" clip-path="url(#pcacb23f87a)" style="fill: none; stroke: #b0b0b0; stroke-width: 0.8; stroke-linecap: square"/>
     </g>
     <g id="line2d_14">
      <g>
       <use xlink:href="#m97daba961e" x="606.301276" y="390.04" style="stroke: #000000; stroke-width: 0.8"/>
      </g>
     </g>
     <g id="text_7">
      <!-- 300 -->
      <g transform="translate(596.757526 404.638438) scale(0.1 -0.1)">
       <defs>
        <path id="DejaVuSans-33" d="M 2597 2516 
Q 3050 2419 3304 2112 
Q 3559 1806 3559 1356 
Q 3559 666 3084 287 
Q 2609 -91 1734 -91 
Q 1441 -91 1130 -33 
Q 819 25 488 141 
L 488 750 
Q 750 597 1062 519 
Q 1375 441 1716 441 
Q 2309 441 2620 675 
Q 2931 909 2931 1356 
Q 2931 1769 2642 2001 
Q 2353 2234 1838 2234 
L 1294 2234 
L 1294 2753 
L 1863 2753 
Q 2328 2753 2575 2939 
Q 2822 3125 2822 3475 
Q 2822 3834 2567 4026 
Q 2313 4219 1838 4219 
Q 1578 4219 1281 4162 
Q 984 4106 628 3988 
L 628 4550 
Q 988 4650 1302 4700 
Q 1616 4750 1894 4750 
Q 2613 4750 3031 4423 
Q 3450 4097 3450 3541 
Q 3450 3153 3228 2886 
Q 3006 2619 2597 2516 
z
" transform="scale(0.015625)"/>
       </defs>
       <use xlink:href="#DejaVuSans-33"/>
       <use xlink:href="#DejaVuSans-30" transform="translate(63.623047 0)"/>
       <use xlink:href="#DejaVuSans-30" transform="translate(127.246094 0)"/>
      </g>
     </g>
    </g>
    <g id="xtick_8">
     <g id="line2d_15">
      <path d="M 693.356034 390.04 
L 693.356034 25.44 
" clip-path="url(#pcacb23f87a)" style="fill: none; stroke: #b0b0b0; stroke-width: 0.8; stroke-linecap: square"/>
     </g>
     <g id="line2d_16">
      <g>
       <use xlink:href="#m97daba961e" x="693.356034" y="390.04" style="stroke: #000000; stroke-width: 0.8"/>
      </g>
     </g>
     <g id="text_8">
      <!-- 350 -->
      <g transform="translate(683.812284 404.638438) scale(0.1 -0.1)">
       <use xlink:href="#DejaVuSans-33"/>
       <use xlink:href="#DejaVuSans-35" transform="translate(63.623047 0)"/>
       <use xlink:href="#DejaVuSans-30" transform="translate(127.246094 0)"/>
      </g>
     </g>
    </g>
    <g id="text_9">
     <!-- Epoch -->
     <g transform="translate(366.389062 418.316562) scale(0.1 -0.1)">
      <defs>
       <path id="DejaVuSans-45" d="M 628 4666 
L 3578 4666 
L 3578 4134 
L 1259 4134 
L 1259 2753 
L 3481 2753 
L 3481 2222 
L 1259 2222 
L 1259 531 
L 3634 531 
L 3634 0 
L 628 0 
L 628 4666 
z
" transform="scale(0.015625)"/>
       <path id="DejaVuSans-70" d="M 1159 525 
L 1159 -1331 
L 581 -1331 
L 581 3500 
L 1159 3500 
L 1159 2969 
Q 1341 3281 1617 3432 
Q 1894 3584 2278 3584 
Q 2916 3584 3314 3078 
Q 3713 2572 3713 1747 
Q 3713 922 3314 415 
Q 2916 -91 2278 -91 
Q 1894 -91 1617 61 
Q 1341 213 1159 525 
z
M 3116 1747 
Q 3116 2381 2855 2742 
Q 2594 3103 2138 3103 
Q 1681 3103 1420 2742 
Q 1159 2381 1159 1747 
Q 1159 1113 1420 752 
Q 1681 391 2138 391 
Q 2594 391 2855 752 
Q 3116 1113 3116 1747 
z
" transform="scale(0.015625)"/>
       <path id="DejaVuSans-6f" d="M 1959 3097 
Q 1497 3097 1228 2736 
Q 959 2375 959 1747 
Q 959 1119 1226 758 
Q 1494 397 1959 397 
Q 2419 397 2687 759 
Q 2956 1122 2956 1747 
Q 2956 2369 2687 2733 
Q 2419 3097 1959 3097 
z
M 1959 3584 
Q 2709 3584 3137 3096 
Q 3566 2609 3566 1747 
Q 3566 888 3137 398 
Q 2709 -91 1959 -91 
Q 1206 -91 779 398 
Q 353 888 353 1747 
Q 353 2609 779 3096 
Q 1206 3584 1959 3584 
z
" transform="scale(0.015625)"/>
       <path id="DejaVuSans-63" d="M 3122 3366 
L 3122 2828 
Q 2878 2963 2633 3030 
Q 2388 3097 2138 3097 
Q 1578 3097 1268 2742 
Q 959 2388 959 1747 
Q 959 1106 1268 751 
Q 1578 397 2138 397 
Q 2388 397 2633 464 
Q 2878 531 3122 666 
L 3122 134 
Q 2881 22 2623 -34 
Q 2366 -91 2075 -91 
Q 1284 -91 818 406 
Q 353 903 353 1747 
Q 353 2603 823 3093 
Q 1294 3584 2113 3584 
Q 2378 3584 2631 3529 
Q 2884 3475 3122 3366 
z
" transform="scale(0.015625)"/>
       <path id="DejaVuSans-68" d="M 3513 2113 
L 3513 0 
L 2938 0 
L 2938 2094 
Q 2938 2591 2744 2837 
Q 2550 3084 2163 3084 
Q 1697 3084 1428 2787 
Q 1159 2491 1159 1978 
L 1159 0 
L 581 0 
L 581 4863 
L 1159 4863 
L 1159 2956 
Q 1366 3272 1645 3428 
Q 1925 3584 2291 3584 
Q 2894 3584 3203 3211 
Q 3513 2838 3513 2113 
z
" transform="scale(0.015625)"/>
      </defs>
      <use xlink:href="#DejaVuSans-45"/>
      <use xlink:href="#DejaVuSans-70" transform="translate(63.183594 0)"/>
      <use xlink:href="#DejaVuSans-6f" transform="translate(126.660156 0)"/>
      <use xlink:href="#DejaVuSans-63" transform="translate(187.841797 0)"/>
      <use xlink:href="#DejaVuSans-68" transform="translate(242.822266 0)"/>
     </g>
    </g>
   </g>
   <g id="matplotlib.axis_2">
    <g id="ytick_1">
     <g id="line2d_17">
      <path d="M 54.2 384.029235 
L 709.2 384.029235 
" clip-path="url(#pcacb23f87a)" style="fill: none; stroke: #b0b0b0; stroke-width: 0.8; stroke-linecap: square"/>
     </g>
     <g id="line2d_18">
      <defs>
       <path id="mdac599e383" d="M 0 0 
L -3.5 0 
" style="stroke: #000000; stroke-width: 0.8"/>
      </defs>
      <g>
       <use xlink:href="#mdac599e383" x="54.2" y="384.029235" style="stroke: #000000; stroke-width: 0.8"/>
      </g>
     </g>
     <g id="text_10">
      <!-- 0.60 -->
      <g transform="translate(24.934375 387.828453) scale(0.1 -0.1)">
       <defs>
        <path id="DejaVuSans-2e" d="M 684 794 
L 1344 794 
L 1344 0 
L 684 0 
L 684 794 
z
" transform="scale(0.015625)"/>
        <path id="DejaVuSans-36" d="M 2113 2584 
Q 1688 2584 1439 2293 
Q 1191 2003 1191 1497 
Q 1191 994 1439 701 
Q 1688 409 2113 409 
Q 2538 409 2786 701 
Q 3034 994 3034 1497 
Q 3034 2003 2786 2293 
Q 2538 2584 2113 2584 
z
M 3366 4563 
L 3366 3988 
Q 3128 4100 2886 4159 
Q 2644 4219 2406 4219 
Q 1781 4219 1451 3797 
Q 1122 3375 1075 2522 
Q 1259 2794 1537 2939 
Q 1816 3084 2150 3084 
Q 2853 3084 3261 2657 
Q 3669 2231 3669 1497 
Q 3669 778 3244 343 
Q 2819 -91 2113 -91 
Q 1303 -91 875 529 
Q 447 1150 447 2328 
Q 447 3434 972 4092 
Q 1497 4750 2381 4750 
Q 2619 4750 2861 4703 
Q 3103 4656 3366 4563 
z
" transform="scale(0.015625)"/>
       </defs>
       <use xlink:href="#DejaVuSans-30"/>
       <use xlink:href="#DejaVuSans-2e" transform="translate(63.623047 0)"/>
       <use xlink:href="#DejaVuSans-36" transform="translate(95.410156 0)"/>
       <use xlink:href="#DejaVuSans-30" transform="translate(159.033203 0)"/>
      </g>
     </g>
    </g>
    <g id="ytick_2">
     <g id="line2d_19">
      <path d="M 54.2 310.521897 
L 709.2 310.521897 
" clip-path="url(#pcacb23f87a)" style="fill: none; stroke: #b0b0b0; stroke-width: 0.8; stroke-linecap: square"/>
     </g>
     <g id="line2d_20">
      <g>
       <use xlink:href="#mdac599e383" x="54.2" y="310.521897" style="stroke: #000000; stroke-width: 0.8"/>
      </g>
     </g>
     <g id="text_11">
      <!-- 0.65 -->
      <g transform="translate(24.934375 314.321116) scale(0.1 -0.1)">
       <use xlink:href="#DejaVuSans-30"/>
       <use xlink:href="#DejaVuSans-2e" transform="translate(63.623047 0)"/>
       <use xlink:href="#DejaVuSans-36" transform="translate(95.410156 0)"/>
       <use xlink:href="#DejaVuSans-35" transform="translate(159.033203 0)"/>
      </g>
     </g>
    </g>
    <g id="ytick_3">
     <g id="line2d_21">
      <path d="M 54.2 237.014559 
L 709.2 237.014559 
" clip-path="url(#pcacb23f87a)" style="fill: none; stroke: #b0b0b0; stroke-width: 0.8; stroke-linecap: square"/>
     </g>
     <g id="line2d_22">
      <g>
       <use xlink:href="#mdac599e383" x="54.2" y="237.014559" style="stroke: #000000; stroke-width: 0.8"/>
      </g>
     </g>
     <g id="text_12">
      <!-- 0.70 -->
      <g transform="translate(24.934375 240.813778) scale(0.1 -0.1)">
       <defs>
        <path id="DejaVuSans-37" d="M 525 4666 
L 3525 4666 
L 3525 4397 
L 1831 0 
L 1172 0 
L 2766 4134 
L 525 4134 
L 525 4666 
z
" transform="scale(0.015625)"/>
       </defs>
       <use xlink:href="#DejaVuSans-30"/>
       <use xlink:href="#DejaVuSans-2e" transform="translate(63.623047 0)"/>
       <use xlink:href="#DejaVuSans-37" transform="translate(95.410156 0)"/>
       <use xlink:href="#DejaVuSans-30" transform="translate(159.033203 0)"/>
      </g>
     </g>
    </g>
    <g id="ytick_4">
     <g id="line2d_23">
      <path d="M 54.2 163.507221 
L 709.2 163.507221 
" clip-path="url(#pcacb23f87a)" style="fill: none; stroke: #b0b0b0; stroke-width: 0.8; stroke-linecap: square"/>
     </g>
     <g id="line2d_24">
      <g>
       <use xlink:href="#mdac599e383" x="54.2" y="163.507221" style="stroke: #000000; stroke-width: 0.8"/>
      </g>
     </g>
     <g id="text_13">
      <!-- 0.75 -->
      <g transform="translate(24.934375 167.30644) scale(0.1 -0.1)">
       <use xlink:href="#DejaVuSans-30"/>
       <use xlink:href="#DejaVuSans-2e" transform="translate(63.623047 0)"/>
       <use xlink:href="#DejaVuSans-37" transform="translate(95.410156 0)"/>
       <use xlink:href="#DejaVuSans-35" transform="translate(159.033203 0)"/>
      </g>
     </g>
    </g>
    <g id="ytick_5">
     <g id="line2d_25">
      <path d="M 54.2 89.999883 
L 709.2 89.999883 
" clip-path="url(#pcacb23f87a)" style="fill: none; stroke: #b0b0b0; stroke-width: 0.8; stroke-linecap: square"/>
     </g>
     <g id="line2d_26">
      <g>
       <use xlink:href="#mdac599e383" x="54.2" y="89.999883" style="stroke: #000000; stroke-width: 0.8"/>
      </g>
     </g>
     <g id="text_14">
      <!-- 0.80 -->
      <g transform="translate(24.934375 93.799102) scale(0.1 -0.1)">
       <defs>
        <path id="DejaVuSans-38" d="M 2034 2216 
Q 1584 2216 1326 1975 
Q 1069 1734 1069 1313 
Q 1069 891 1326 650 
Q 1584 409 2034 409 
Q 2484 409 2743 651 
Q 3003 894 3003 1313 
Q 3003 1734 2745 1975 
Q 2488 2216 2034 2216 
z
M 1403 2484 
Q 997 2584 770 2862 
Q 544 3141 544 3541 
Q 544 4100 942 4425 
Q 1341 4750 2034 4750 
Q 2731 4750 3128 4425 
Q 3525 4100 3525 3541 
Q 3525 3141 3298 2862 
Q 3072 2584 2669 2484 
Q 3125 2378 3379 2068 
Q 3634 1759 3634 1313 
Q 3634 634 3220 271 
Q 2806 -91 2034 -91 
Q 1263 -91 848 271 
Q 434 634 434 1313 
Q 434 1759 690 2068 
Q 947 2378 1403 2484 
z
M 1172 3481 
Q 1172 3119 1398 2916 
Q 1625 2713 2034 2713 
Q 2441 2713 2670 2916 
Q 2900 3119 2900 3481 
Q 2900 3844 2670 4047 
Q 2441 4250 2034 4250 
Q 1625 4250 1398 4047 
Q 1172 3844 1172 3481 
z
" transform="scale(0.015625)"/>
       </defs>
       <use xlink:href="#DejaVuSans-30"/>
       <use xlink:href="#DejaVuSans-2e" transform="translate(63.623047 0)"/>
       <use xlink:href="#DejaVuSans-38" transform="translate(95.410156 0)"/>
       <use xlink:href="#DejaVuSans-30" transform="translate(159.033203 0)"/>
      </g>
     </g>
    </g>
    <g id="text_15">
     <!-- Value -->
     <g transform="translate(18.854688 221.47125) rotate(-90) scale(0.1 -0.1)">
      <defs>
       <path id="DejaVuSans-56" d="M 1831 0 
L 50 4666 
L 709 4666 
L 2188 738 
L 3669 4666 
L 4325 4666 
L 2547 0 
L 1831 0 
z
" transform="scale(0.015625)"/>
       <path id="DejaVuSans-61" d="M 2194 1759 
Q 1497 1759 1228 1600 
Q 959 1441 959 1056 
Q 959 750 1161 570 
Q 1363 391 1709 391 
Q 2188 391 2477 730 
Q 2766 1069 2766 1631 
L 2766 1759 
L 2194 1759 
z
M 3341 1997 
L 3341 0 
L 2766 0 
L 2766 531 
Q 2569 213 2275 61 
Q 1981 -91 1556 -91 
Q 1019 -91 701 211 
Q 384 513 384 1019 
Q 384 1609 779 1909 
Q 1175 2209 1959 2209 
L 2766 2209 
L 2766 2266 
Q 2766 2663 2505 2880 
Q 2244 3097 1772 3097 
Q 1472 3097 1187 3025 
Q 903 2953 641 2809 
L 641 3341 
Q 956 3463 1253 3523 
Q 1550 3584 1831 3584 
Q 2591 3584 2966 3190 
Q 3341 2797 3341 1997 
z
" transform="scale(0.015625)"/>
       <path id="DejaVuSans-6c" d="M 603 4863 
L 1178 4863 
L 1178 0 
L 603 0 
L 603 4863 
z
" transform="scale(0.015625)"/>
       <path id="DejaVuSans-75" d="M 544 1381 
L 544 3500 
L 1119 3500 
L 1119 1403 
Q 1119 906 1312 657 
Q 1506 409 1894 409 
Q 2359 409 2629 706 
Q 2900 1003 2900 1516 
L 2900 3500 
L 3475 3500 
L 3475 0 
L 2900 0 
L 2900 538 
Q 2691 219 2414 64 
Q 2138 -91 1772 -91 
Q 1169 -91 856 284 
Q 544 659 544 1381 
z
M 1991 3584 
L 1991 3584 
z
" transform="scale(0.015625)"/>
       <path id="DejaVuSans-65" d="M 3597 1894 
L 3597 1613 
L 953 1613 
Q 991 1019 1311 708 
Q 1631 397 2203 397 
Q 2534 397 2845 478 
Q 3156 559 3463 722 
L 3463 178 
Q 3153 47 2828 -22 
Q 2503 -91 2169 -91 
Q 1331 -91 842 396 
Q 353 884 353 1716 
Q 353 2575 817 3079 
Q 1281 3584 2069 3584 
Q 2775 3584 3186 3129 
Q 3597 2675 3597 1894 
z
M 3022 2063 
Q 3016 2534 2758 2815 
Q 2500 3097 2075 3097 
Q 1594 3097 1305 2825 
Q 1016 2553 972 2059 
L 3022 2063 
z
" transform="scale(0.015625)"/>
      </defs>
      <use xlink:href="#DejaVuSans-56"/>
      <use xlink:href="#DejaVuSans-61" transform="translate(60.658203 0)"/>
      <use xlink:href="#DejaVuSans-6c" transform="translate(121.9375 0)"/>
      <use xlink:href="#DejaVuSans-75" transform="translate(149.720703 0)"/>
      <use xlink:href="#DejaVuSans-65" transform="translate(213.099609 0)"/>
     </g>
    </g>
   </g>
   <g id="line2d_27">
    <path d="M 83.972727 324.18789 
L 85.713822 326.496351 
L 87.454918 319.036353 
L 89.196013 322.512802 
L 90.937108 328.852394 
L 92.678203 327.361411 
L 94.419298 328.239702 
L 96.160393 325.447274 
L 97.901489 328.775019 
L 99.642584 331.26224 
L 101.383679 330.455015 
L 103.124774 329.227352 
L 104.865869 330.061567 
L 106.606964 327.959381 
L 108.34806 331.632642 
L 110.089155 331.389826 
L 111.83025 333.527062 
L 113.571345 329.581718 
L 115.31244 329.610285 
L 117.053535 334.910614 
L 118.794631 326.193773 
L 120.535726 333.685843 
L 122.276821 331.514432 
L 124.017916 333.222994 
L 125.759011 331.513118 
L 127.500106 332.47816 
L 129.241201 329.204481 
L 130.982297 333.041605 
L 132.723392 334.208717 
L 134.464487 334.024874 
L 136.205582 331.94442 
L 137.946677 328.37938 
L 139.687772 331.864679 
L 143.169963 334.399132 
L 144.911058 335.149049 
L 146.652153 333.333142 
L 148.393248 333.578149 
L 150.134343 333.936283 
L 151.875439 330.899724 
L 153.616534 334.531887 
L 155.357629 328.883589 
L 157.098724 332.437501 
L 158.839819 332.851629 
L 160.580914 334.153599 
L 162.32201 332.408759 
L 164.063105 334.123455 
L 165.8042 336.299949 
L 167.545295 335.416926 
L 169.28639 333.428656 
L 171.027485 336.389417 
L 172.768581 334.94917 
L 174.509676 336.030231 
L 176.250771 335.976165 
L 177.991866 336.267089 
L 179.732961 336.94962 
L 181.474056 335.487379 
L 183.215152 332.732192 
L 184.956247 332.026966 
L 186.697342 334.525315 
L 188.438437 332.397893 
L 190.179532 332.348559 
L 191.920627 334.054931 
L 193.661722 333.739208 
L 195.402818 335.895723 
L 197.143913 336.850864 
L 198.885008 338.806711 
L 200.626103 336.171049 
L 202.367198 334.768394 
L 204.108293 334.469847 
L 205.849389 337.585621 
L 207.590484 333.457223 
L 209.331579 335.28382 
L 211.072674 339.751512 
L 212.813769 337.889075 
L 214.554864 335.572553 
L 216.29596 336.375484 
L 218.037055 336.694974 
L 219.77815 334.850238 
L 221.519245 337.517622 
L 223.26034 337.295223 
L 225.001435 337.839303 
L 226.742531 337.122334 
L 228.483626 339.811274 
L 230.224721 337.16457 
L 231.965816 337.757984 
L 233.706911 337.766397 
L 235.448006 339.833531 
L 237.189102 338.082995 
L 238.930197 339.39811 
L 240.671292 336.011041 
L 242.412387 338.781474 
L 244.153482 336.779622 
L 245.894577 336.645377 
L 247.635673 336.26814 
L 249.376768 335.622938 
L 251.117863 336.384334 
L 252.858958 338.692883 
L 254.600053 338.245456 
L 256.341148 339.046285 
L 258.082243 334.292138 
L 259.823339 335.147471 
L 261.564434 343.558667 
L 263.305529 338.33913 
L 265.046624 336.24045 
L 266.787719 341.845898 
L 268.528814 335.905187 
L 270.26991 337.003073 
L 272.011005 338.772361 
L 273.7521 336.250965 
L 275.493195 337.380134 
L 277.23429 337.989584 
L 278.975385 337.339212 
L 280.716481 341.517733 
L 282.457576 344.504782 
L 284.198671 337.338161 
L 285.939766 342.99934 
L 287.680861 342.267124 
L 289.421956 337.318006 
L 291.163052 340.020265 
L 292.904147 337.912735 
L 294.645242 338.999317 
L 296.386337 341.130682 
L 298.127432 339.994678 
L 299.868527 339.821 
L 301.609623 345.598987 
L 303.350718 344.980775 
L 305.091813 341.387518 
L 306.832908 341.204552 
L 308.574003 342.744431 
L 310.315098 341.517032 
L 312.056194 343.561208 
L 313.797289 343.790267 
L 315.538384 345.560168 
L 317.279479 343.886482 
L 319.020574 343.509771 
L 320.761669 343.802447 
L 322.502764 341.512037 
L 324.24386 342.083106 
L 325.984955 339.126815 
L 327.72605 344.003903 
L 329.467145 344.127545 
L 331.20824 345.280987 
L 332.949335 346.836639 
L 334.690431 344.000748 
L 336.431526 347.087517 
L 338.172621 342.929764 
L 339.913716 345.584529 
L 341.654811 342.418983 
L 343.395906 343.987779 
L 345.137002 344.709129 
L 346.878097 343.446065 
L 348.619192 343.392087 
L 350.360287 344.158916 
L 352.101382 346.148062 
L 353.842477 344.493127 
L 355.583573 346.426104 
L 357.324668 344.843813 
L 359.065763 346.175402 
L 360.806858 346.858283 
L 362.547953 346.138861 
L 364.289048 342.373592 
L 366.030144 343.608877 
L 367.771239 348.045725 
L 369.512334 345.160762 
L 371.253429 348.77093 
L 372.994524 344.518189 
L 374.735619 344.366944 
L 376.476715 346.724388 
L 378.21781 346.06245 
L 379.958905 346.754795 
L 381.7 350.748948 
L 383.441095 346.645173 
L 385.18219 346.996822 
L 386.923285 344.080927 
L 388.664381 348.262428 
L 390.405476 345.066913 
L 392.146571 347.970102 
L 393.887666 343.723933 
L 395.628761 347.766017 
L 397.369856 342.223486 
L 399.110952 347.38291 
L 400.852047 347.143511 
L 402.593142 347.501032 
L 404.334237 347.449419 
L 406.075332 347.921118 
L 407.816427 347.616174 
L 409.557523 344.123602 
L 411.298618 347.142021 
L 413.039713 349.312206 
L 414.780808 348.393694 
L 416.521903 348.116177 
L 418.262998 352.942616 
L 420.004094 349.365746 
L 421.745189 350.332366 
L 423.486284 349.996051 
L 425.227379 347.716245 
L 426.968474 353.019028 
L 428.709569 346.814207 
L 430.450665 351.486421 
L 432.19176 350.002624 
L 433.932855 352.220302 
L 435.67395 350.597878 
L 437.415045 350.431823 
L 439.15614 349.116183 
L 440.897236 351.168158 
L 442.638331 354.001946 
L 444.379426 352.876195 
L 446.120521 348.372575 
L 447.861616 356.373937 
L 449.602711 353.309601 
L 451.343806 348.948814 
L 453.084902 352.600869 
L 454.825997 351.774278 
L 456.567092 352.520339 
L 458.308187 351.766742 
L 460.049282 353.867788 
L 461.790377 352.289002 
L 463.531473 354.478991 
L 465.272568 354.082476 
L 467.013663 357.4217 
L 468.754758 351.428149 
L 470.495853 356.867455 
L 472.236948 353.378739 
L 473.978044 350.635996 
L 475.719139 351.097355 
L 477.460234 352.55723 
L 479.201329 354.791383 
L 480.942424 354.571262 
L 482.683519 357.963852 
L 484.424615 352.514468 
L 486.16571 353.376986 
L 487.906805 355.735658 
L 489.6479 353.939292 
L 491.388995 358.219286 
L 493.13009 351.005609 
L 494.871186 355.361926 
L 496.612281 353.361564 
L 498.353376 357.148477 
L 500.094471 356.328809 
L 501.835566 354.428342 
L 503.576661 356.320659 
L 505.317757 357.445973 
L 507.058852 356.723834 
L 508.799947 354.826872 
L 510.541042 360.450635 
L 512.282137 358.378067 
L 514.023232 357.007397 
L 515.764327 356.009319 
L 517.505423 356.527285 
L 519.246518 358.96894 
L 520.987613 358.326016 
L 522.728708 357.838281 
L 524.469803 355.895578 
L 526.210898 359.718068 
L 527.951994 356.134013 
L 529.693089 360.154629 
L 531.434184 356.444565 
L 534.916374 364.755076 
L 536.657469 360.873701 
L 540.13966 355.921866 
L 541.880755 359.170396 
L 543.62185 357.965254 
L 545.362945 358.401376 
L 547.10404 360.610117 
L 548.845136 358.67381 
L 550.586231 360.80614 
L 552.327326 362.331648 
L 554.068421 360.783181 
L 555.809516 360.590488 
L 559.291707 363.309835 
L 561.032802 360.742697 
L 562.773897 360.100562 
L 564.514992 358.270723 
L 566.256087 362.175671 
L 567.997182 360.513639 
L 569.738278 360.397532 
L 571.479373 363.094972 
L 573.220468 360.998132 
L 574.961563 364.165781 
L 576.702658 361.315431 
L 578.443753 363.254717 
L 580.184848 360.199757 
L 581.925944 363.984918 
L 583.667039 362.988154 
L 585.408134 362.83095 
L 587.149229 363.269964 
L 588.890324 364.1359 
L 590.631419 363.095585 
L 592.372515 364.505513 
L 594.11361 363.016195 
L 595.854705 365.268311 
L 597.5958 359.617559 
L 599.336895 361.001111 
L 601.07799 362.656834 
L 602.819086 363.685757 
L 604.560181 360.829536 
L 606.301276 361.516011 
L 608.042371 362.405168 
L 609.783466 365.779881 
L 611.524561 363.693293 
L 613.265657 364.554059 
L 615.006752 364.611104 
L 616.747847 361.768729 
L 618.488942 359.67995 
L 620.230037 362.864599 
L 621.971132 362.370818 
L 623.712228 365.026985 
L 625.453323 363.506033 
L 627.194418 360.99042 
L 628.935513 365.769103 
L 630.676608 364.720902 
L 632.417703 364.705917 
L 635.899894 363.557383 
L 637.640989 365.478091 
L 639.382084 365.255342 
L 641.123179 366.278745 
L 642.864274 367.087197 
L 644.605369 366.360852 
L 646.346465 366.213374 
L 648.08756 370.266851 
L 649.828655 365.638099 
L 651.56975 363.977294 
L 653.310845 370.152059 
L 655.05194 366.804598 
L 656.793036 366.873823 
L 658.534131 371.350453 
L 660.275226 370.040596 
L 662.016321 366.736336 
L 663.757416 370.294892 
L 665.498511 367.966189 
L 667.239607 369.351493 
L 668.980702 369.400389 
L 670.721797 366.803634 
L 672.462892 369.806368 
L 674.203987 370.149517 
L 675.945082 370.378751 
L 677.686178 373.467273 
L 679.427273 367.493175 
L 679.427273 367.493175 
" clip-path="url(#pcacb23f87a)" style="fill: none; stroke: #ff0000; stroke-width: 1.5; stroke-linecap: square"/>
   </g>
   <g id="line2d_28">
    <path d="M 83.972727 70.856833 
L 85.713822 70.146612 
L 87.454918 68.360236 
L 89.196013 68.476255 
L 90.937108 70.188235 
L 92.678203 71.390661 
L 94.419298 68.662376 
L 96.160393 69.402829 
L 97.901489 66.883711 
L 99.642584 67.425688 
L 101.383679 66.900273 
L 103.124774 67.075703 
L 104.865869 71.31793 
L 106.606964 65.766372 
L 108.34806 66.095063 
L 110.089155 65.587875 
L 111.83025 67.428843 
L 113.571345 67.909217 
L 115.31244 66.302653 
L 117.053535 68.535929 
L 118.794631 68.064405 
L 120.535726 68.216527 
L 122.276821 65.640977 
L 124.017916 66.213799 
L 125.759011 68.727834 
L 127.500106 65.763042 
L 129.241201 64.111876 
L 130.982297 66.566587 
L 132.723392 66.116795 
L 134.464487 68.389854 
L 136.205582 67.036008 
L 137.946677 66.198464 
L 139.687772 64.862143 
L 141.428868 67.930248 
L 143.169963 67.126265 
L 144.911058 68.191027 
L 146.652153 64.681017 
L 148.393248 66.521547 
L 150.134343 66.91736 
L 151.875439 64.908936 
L 153.616534 69.256754 
L 155.357629 65.236401 
L 157.098724 64.878617 
L 158.839819 64.78617 
L 160.580914 68.57247 
L 162.32201 65.870824 
L 164.063105 63.548431 
L 165.8042 66.470022 
L 167.545295 65.2959 
L 169.28639 65.874943 
L 171.027485 63.794226 
L 172.768581 67.695055 
L 174.509676 66.089017 
L 176.250771 66.022946 
L 177.991866 65.467212 
L 179.732961 65.4503 
L 181.474056 64.170849 
L 183.215152 67.58999 
L 184.956247 64.342775 
L 186.697342 65.528639 
L 188.438437 66.063167 
L 190.179532 67.711354 
L 191.920627 65.276972 
L 193.661722 64.966245 
L 195.402818 65.537226 
L 197.143913 65.53153 
L 198.885008 65.669982 
L 200.626103 66.516902 
L 202.367198 67.098487 
L 204.108293 63.53625 
L 205.849389 64.414279 
L 207.590484 64.515226 
L 209.331579 63.36231 
L 211.072674 64.649909 
L 212.813769 66.504635 
L 214.554864 65.965374 
L 216.29596 64.401573 
L 218.037055 64.224653 
L 219.77815 63.71983 
L 221.519245 60.462801 
L 223.26034 64.140355 
L 225.001435 64.654729 
L 226.742531 62.694237 
L 228.483626 64.518205 
L 230.224721 63.381675 
L 233.706911 65.829026 
L 235.448006 64.283801 
L 237.189102 63.284935 
L 238.930197 62.503209 
L 240.671292 61.866332 
L 242.412387 66.56133 
L 244.153482 63.287914 
L 245.894577 61.292722 
L 247.635673 65.792398 
L 249.376768 65.149299 
L 251.117863 63.806406 
L 252.858958 63.154545 
L 254.600053 66.174629 
L 256.341148 66.062203 
L 258.082243 63.99761 
L 259.823339 63.901833 
L 261.564434 64.765578 
L 263.305529 64.231575 
L 265.046624 64.013295 
L 266.787719 62.545445 
L 268.528814 65.001646 
L 270.26991 64.775217 
L 272.011005 63.518462 
L 273.7521 62.803772 
L 275.493195 63.696258 
L 278.975385 62.060953 
L 280.716481 64.207478 
L 282.457576 61.625093 
L 284.198671 63.672687 
L 287.680861 62.373871 
L 289.421956 59.845727 
L 291.163052 61.670835 
L 292.904147 63.938198 
L 294.645242 62.202559 
L 296.386337 62.229636 
L 298.127432 59.490923 
L 299.868527 62.029845 
L 301.609623 58.997142 
L 303.350718 63.757685 
L 305.091813 61.82874 
L 306.832908 61.995758 
L 308.574003 60.69256 
L 310.315098 62.795096 
L 312.056194 61.020813 
L 313.797289 59.528516 
L 315.538384 62.036943 
L 317.279479 59.812341 
L 319.020574 60.691509 
L 320.761669 61.008458 
L 322.502764 58.69842 
L 324.24386 60.238036 
L 325.984955 58.087305 
L 329.467145 62.843467 
L 331.20824 57.6029 
L 332.949335 61.262402 
L 334.690431 59.388662 
L 336.431526 60.023787 
L 338.172621 59.596602 
L 339.913716 59.821542 
L 341.654811 60.818656 
L 343.395906 58.787011 
L 345.137002 59.973751 
L 346.878097 59.029564 
L 348.619192 60.09792 
L 350.360287 57.697537 
L 352.101382 59.968056 
L 353.842477 57.453232 
L 355.583573 58.620168 
L 357.324668 60.994087 
L 359.065763 60.807002 
L 360.806858 56.687016 
L 362.547953 58.022811 
L 364.289048 59.961133 
L 366.030144 58.368239 
L 367.771239 58.555149 
L 369.512334 60.319442 
L 371.253429 58.178525 
L 372.994524 58.860093 
L 374.735619 57.328713 
L 376.476715 58.468835 
L 378.21781 56.918528 
L 379.958905 56.196039 
L 383.441095 56.793747 
L 385.18219 55.563193 
L 386.923285 57.360347 
L 388.664381 57.023156 
L 390.405476 57.527277 
L 392.146571 55.565734 
L 393.887666 58.689482 
L 395.628761 59.233123 
L 397.369856 55.791901 
L 399.110952 57.846154 
L 400.852047 56.080546 
L 402.593142 58.022636 
L 404.334237 58.463227 
L 406.075332 57.844839 
L 407.816427 57.873494 
L 409.557523 58.127088 
L 413.039713 55.756324 
L 414.780808 53.268927 
L 416.521903 56.699459 
L 418.262998 56.174833 
L 420.004094 54.627067 
L 421.745189 55.785679 
L 423.486284 56.690609 
L 425.227379 54.698133 
L 426.968474 54.086317 
L 428.709569 56.974873 
L 430.450665 56.255012 
L 432.19176 58.084238 
L 433.932855 56.966548 
L 435.67395 58.101062 
L 437.415045 54.655283 
L 439.15614 57.557947 
L 440.897236 58.192721 
L 442.638331 56.959626 
L 444.379426 54.738091 
L 446.120521 54.88627 
L 447.861616 55.652485 
L 449.602711 57.121299 
L 451.343806 55.239672 
L 453.084902 55.964264 
L 454.825997 54.451199 
L 456.567092 54.042416 
L 458.308187 53.939629 
L 460.049282 55.415365 
L 461.790377 54.144327 
L 463.531473 54.928243 
L 465.272568 54.950763 
L 467.013663 56.532529 
L 470.495853 52.618293 
L 472.236948 54.424209 
L 473.978044 53.255608 
L 475.719139 53.239572 
L 477.460234 51.360048 
L 479.201329 52.853485 
L 480.942424 51.703548 
L 482.683519 51.733868 
L 484.424615 53.807311 
L 486.16571 51.484655 
L 487.906805 52.475284 
L 489.6479 51.165603 
L 491.388995 51.93655 
L 493.13009 52.147733 
L 494.871186 49.924095 
L 496.612281 53.029266 
L 498.353376 51.990879 
L 500.094471 53.833161 
L 501.835566 53.249386 
L 503.576661 50.562024 
L 507.058852 52.706183 
L 508.799947 48.639125 
L 510.541042 52.578685 
L 512.282137 51.863469 
L 514.023232 50.878535 
L 515.764327 50.828675 
L 517.505423 49.524251 
L 519.246518 52.410966 
L 520.987613 48.49007 
L 522.728708 48.716938 
L 524.469803 50.618631 
L 526.210898 49.252868 
L 527.951994 49.523374 
L 529.693089 51.285214 
L 531.434184 49.908585 
L 533.175279 51.299235 
L 534.916374 53.499476 
L 536.657469 49.742093 
L 538.398565 50.191622 
L 540.13966 50.33279 
L 541.880755 50.931374 
L 543.62185 50.188731 
L 545.362945 50.078495 
L 547.10404 50.722821 
L 548.845136 49.694599 
L 550.586231 49.22991 
L 552.327326 49.330156 
L 554.068421 46.933454 
L 555.809516 47.239362 
L 557.550611 45.405141 
L 559.291707 48.99349 
L 561.032802 45.790703 
L 562.773897 47.321556 
L 564.514992 46.226562 
L 566.256087 48.866518 
L 567.997182 46.433188 
L 569.738278 48.182848 
L 571.479373 47.280985 
L 573.220468 47.251016 
L 574.961563 48.371159 
L 578.443753 47.395952 
L 580.184848 46.435028 
L 581.925944 47.482265 
L 583.667039 45.574087 
L 585.408134 48.227363 
L 587.149229 46.477002 
L 588.890324 48.304124 
L 590.631419 49.052201 
L 592.372515 49.389392 
L 594.11361 44.788944 
L 595.854705 46.333643 
L 597.5958 47.290449 
L 599.336895 47.103451 
L 601.07799 47.575589 
L 602.819086 48.438808 
L 604.560181 47.351788 
L 606.301276 47.870806 
L 608.042371 46.277649 
L 609.783466 47.203697 
L 611.524561 48.332077 
L 613.265657 45.794471 
L 615.006752 48.227976 
L 616.747847 46.888939 
L 618.488942 43.967874 
L 620.230037 47.354417 
L 621.971132 47.473327 
L 623.712228 49.184343 
L 625.453323 44.590993 
L 627.194418 45.588984 
L 628.935513 45.632272 
L 630.676608 45.900412 
L 632.417703 46.58198 
L 634.158799 46.622288 
L 637.640989 43.932209 
L 639.382084 46.808146 
L 641.123179 45.410136 
L 642.864274 44.634807 
L 644.605369 45.913469 
L 646.346465 43.482242 
L 648.08756 45.615886 
L 649.828655 45.612819 
L 651.56975 45.21867 
L 653.310845 44.091516 
L 655.05194 44.413109 
L 656.793036 42.012727 
L 658.534131 43.780263 
L 660.275226 44.231896 
L 662.016321 44.426254 
L 663.757416 44.072939 
L 665.498511 42.612889 
L 667.239607 43.551818 
L 668.980702 44.300771 
L 670.721797 43.579771 
L 672.462892 44.110356 
L 674.203987 44.166438 
L 675.945082 42.820215 
L 677.686178 43.03832 
L 679.427273 43.43282 
L 679.427273 43.43282 
" clip-path="url(#pcacb23f87a)" style="fill: none; stroke: #0000ff; stroke-width: 1.5; stroke-linecap: square"/>
   </g>
   <g id="patch_3">
    <path d="M 54.2 390.04 
L 54.2 25.44 
" style="fill: none; stroke: #000000; stroke-width: 0.8; stroke-linejoin: miter; stroke-linecap: square"/>
   </g>
   <g id="patch_4">
    <path d="M 709.2 390.04 
L 709.2 25.44 
" style="fill: none; stroke: #000000; stroke-width: 0.8; stroke-linejoin: miter; stroke-linecap: square"/>
   </g>
   <g id="patch_5">
    <path d="M 54.2 390.04 
L 709.2 390.04 
" style="fill: none; stroke: #000000; stroke-width: 0.8; stroke-linejoin: miter; stroke-linecap: square"/>
   </g>
   <g id="patch_6">
    <path d="M 54.2 25.44 
L 709.2 25.44 
" style="fill: none; stroke: #000000; stroke-width: 0.8; stroke-linejoin: miter; stroke-linecap: square"/>
   </g>
   <g id="text_16">
    <!-- gan_IS_FID_mnist_generatorcnn_discriminator Trial 8 -->
    <g transform="translate(223.399375 19.44) scale(0.12 -0.12)">
     <defs>
      <path id="DejaVuSans-67" d="M 2906 1791 
Q 2906 2416 2648 2759 
Q 2391 3103 1925 3103 
Q 1463 3103 1205 2759 
Q 947 2416 947 1791 
Q 947 1169 1205 825 
Q 1463 481 1925 481 
Q 2391 481 2648 825 
Q 2906 1169 2906 1791 
z
M 3481 434 
Q 3481 -459 3084 -895 
Q 2688 -1331 1869 -1331 
Q 1566 -1331 1297 -1286 
Q 1028 -1241 775 -1147 
L 775 -588 
Q 1028 -725 1275 -790 
Q 1522 -856 1778 -856 
Q 2344 -856 2625 -561 
Q 2906 -266 2906 331 
L 2906 616 
Q 2728 306 2450 153 
Q 2172 0 1784 0 
Q 1141 0 747 490 
Q 353 981 353 1791 
Q 353 2603 747 3093 
Q 1141 3584 1784 3584 
Q 2172 3584 2450 3431 
Q 2728 3278 2906 2969 
L 2906 3500 
L 3481 3500 
L 3481 434 
z
" transform="scale(0.015625)"/>
      <path id="DejaVuSans-6e" d="M 3513 2113 
L 3513 0 
L 2938 0 
L 2938 2094 
Q 2938 2591 2744 2837 
Q 2550 3084 2163 3084 
Q 1697 3084 1428 2787 
Q 1159 2491 1159 1978 
L 1159 0 
L 581 0 
L 581 3500 
L 1159 3500 
L 1159 2956 
Q 1366 3272 1645 3428 
Q 1925 3584 2291 3584 
Q 2894 3584 3203 3211 
Q 3513 2838 3513 2113 
z
" transform="scale(0.015625)"/>
      <path id="DejaVuSans-5f" d="M 3263 -1063 
L 3263 -1509 
L -63 -1509 
L -63 -1063 
L 3263 -1063 
z
" transform="scale(0.015625)"/>
      <path id="DejaVuSans-49" d="M 628 4666 
L 1259 4666 
L 1259 0 
L 628 0 
L 628 4666 
z
" transform="scale(0.015625)"/>
      <path id="DejaVuSans-53" d="M 3425 4513 
L 3425 3897 
Q 3066 4069 2747 4153 
Q 2428 4238 2131 4238 
Q 1616 4238 1336 4038 
Q 1056 3838 1056 3469 
Q 1056 3159 1242 3001 
Q 1428 2844 1947 2747 
L 2328 2669 
Q 3034 2534 3370 2195 
Q 3706 1856 3706 1288 
Q 3706 609 3251 259 
Q 2797 -91 1919 -91 
Q 1588 -91 1214 -16 
Q 841 59 441 206 
L 441 856 
Q 825 641 1194 531 
Q 1563 422 1919 422 
Q 2459 422 2753 634 
Q 3047 847 3047 1241 
Q 3047 1584 2836 1778 
Q 2625 1972 2144 2069 
L 1759 2144 
Q 1053 2284 737 2584 
Q 422 2884 422 3419 
Q 422 4038 858 4394 
Q 1294 4750 2059 4750 
Q 2388 4750 2728 4690 
Q 3069 4631 3425 4513 
z
" transform="scale(0.015625)"/>
      <path id="DejaVuSans-46" d="M 628 4666 
L 3309 4666 
L 3309 4134 
L 1259 4134 
L 1259 2759 
L 3109 2759 
L 3109 2228 
L 1259 2228 
L 1259 0 
L 628 0 
L 628 4666 
z
" transform="scale(0.015625)"/>
      <path id="DejaVuSans-44" d="M 1259 4147 
L 1259 519 
L 2022 519 
Q 2988 519 3436 956 
Q 3884 1394 3884 2338 
Q 3884 3275 3436 3711 
Q 2988 4147 2022 4147 
L 1259 4147 
z
M 628 4666 
L 1925 4666 
Q 3281 4666 3915 4102 
Q 4550 3538 4550 2338 
Q 4550 1131 3912 565 
Q 3275 0 1925 0 
L 628 0 
L 628 4666 
z
" transform="scale(0.015625)"/>
      <path id="DejaVuSans-6d" d="M 3328 2828 
Q 3544 3216 3844 3400 
Q 4144 3584 4550 3584 
Q 5097 3584 5394 3201 
Q 5691 2819 5691 2113 
L 5691 0 
L 5113 0 
L 5113 2094 
Q 5113 2597 4934 2840 
Q 4756 3084 4391 3084 
Q 3944 3084 3684 2787 
Q 3425 2491 3425 1978 
L 3425 0 
L 2847 0 
L 2847 2094 
Q 2847 2600 2669 2842 
Q 2491 3084 2119 3084 
Q 1678 3084 1418 2786 
Q 1159 2488 1159 1978 
L 1159 0 
L 581 0 
L 581 3500 
L 1159 3500 
L 1159 2956 
Q 1356 3278 1631 3431 
Q 1906 3584 2284 3584 
Q 2666 3584 2933 3390 
Q 3200 3197 3328 2828 
z
" transform="scale(0.015625)"/>
      <path id="DejaVuSans-69" d="M 603 3500 
L 1178 3500 
L 1178 0 
L 603 0 
L 603 3500 
z
M 603 4863 
L 1178 4863 
L 1178 4134 
L 603 4134 
L 603 4863 
z
" transform="scale(0.015625)"/>
      <path id="DejaVuSans-73" d="M 2834 3397 
L 2834 2853 
Q 2591 2978 2328 3040 
Q 2066 3103 1784 3103 
Q 1356 3103 1142 2972 
Q 928 2841 928 2578 
Q 928 2378 1081 2264 
Q 1234 2150 1697 2047 
L 1894 2003 
Q 2506 1872 2764 1633 
Q 3022 1394 3022 966 
Q 3022 478 2636 193 
Q 2250 -91 1575 -91 
Q 1294 -91 989 -36 
Q 684 19 347 128 
L 347 722 
Q 666 556 975 473 
Q 1284 391 1588 391 
Q 1994 391 2212 530 
Q 2431 669 2431 922 
Q 2431 1156 2273 1281 
Q 2116 1406 1581 1522 
L 1381 1569 
Q 847 1681 609 1914 
Q 372 2147 372 2553 
Q 372 3047 722 3315 
Q 1072 3584 1716 3584 
Q 2034 3584 2315 3537 
Q 2597 3491 2834 3397 
z
" transform="scale(0.015625)"/>
      <path id="DejaVuSans-74" d="M 1172 4494 
L 1172 3500 
L 2356 3500 
L 2356 3053 
L 1172 3053 
L 1172 1153 
Q 1172 725 1289 603 
Q 1406 481 1766 481 
L 2356 481 
L 2356 0 
L 1766 0 
Q 1100 0 847 248 
Q 594 497 594 1153 
L 594 3053 
L 172 3053 
L 172 3500 
L 594 3500 
L 594 4494 
L 1172 4494 
z
" transform="scale(0.015625)"/>
      <path id="DejaVuSans-72" d="M 2631 2963 
Q 2534 3019 2420 3045 
Q 2306 3072 2169 3072 
Q 1681 3072 1420 2755 
Q 1159 2438 1159 1844 
L 1159 0 
L 581 0 
L 581 3500 
L 1159 3500 
L 1159 2956 
Q 1341 3275 1631 3429 
Q 1922 3584 2338 3584 
Q 2397 3584 2469 3576 
Q 2541 3569 2628 3553 
L 2631 2963 
z
" transform="scale(0.015625)"/>
      <path id="DejaVuSans-64" d="M 2906 2969 
L 2906 4863 
L 3481 4863 
L 3481 0 
L 2906 0 
L 2906 525 
Q 2725 213 2448 61 
Q 2172 -91 1784 -91 
Q 1150 -91 751 415 
Q 353 922 353 1747 
Q 353 2572 751 3078 
Q 1150 3584 1784 3584 
Q 2172 3584 2448 3432 
Q 2725 3281 2906 2969 
z
M 947 1747 
Q 947 1113 1208 752 
Q 1469 391 1925 391 
Q 2381 391 2643 752 
Q 2906 1113 2906 1747 
Q 2906 2381 2643 2742 
Q 2381 3103 1925 3103 
Q 1469 3103 1208 2742 
Q 947 2381 947 1747 
z
" transform="scale(0.015625)"/>
      <path id="DejaVuSans-20" transform="scale(0.015625)"/>
      <path id="DejaVuSans-54" d="M -19 4666 
L 3928 4666 
L 3928 4134 
L 2272 4134 
L 2272 0 
L 1638 0 
L 1638 4134 
L -19 4134 
L -19 4666 
z
" transform="scale(0.015625)"/>
     </defs>
     <use xlink:href="#DejaVuSans-67"/>
     <use xlink:href="#DejaVuSans-61" transform="translate(63.476562 0)"/>
     <use xlink:href="#DejaVuSans-6e" transform="translate(124.755859 0)"/>
     <use xlink:href="#DejaVuSans-5f" transform="translate(188.134766 0)"/>
     <use xlink:href="#DejaVuSans-49" transform="translate(238.134766 0)"/>
     <use xlink:href="#DejaVuSans-53" transform="translate(267.626953 0)"/>
     <use xlink:href="#DejaVuSans-5f" transform="translate(331.103516 0)"/>
     <use xlink:href="#DejaVuSans-46" transform="translate(381.103516 0)"/>
     <use xlink:href="#DejaVuSans-49" transform="translate(438.623047 0)"/>
     <use xlink:href="#DejaVuSans-44" transform="translate(468.115234 0)"/>
     <use xlink:href="#DejaVuSans-5f" transform="translate(545.117188 0)"/>
     <use xlink:href="#DejaVuSans-6d" transform="translate(595.117188 0)"/>
     <use xlink:href="#DejaVuSans-6e" transform="translate(692.529297 0)"/>
     <use xlink:href="#DejaVuSans-69" transform="translate(755.908203 0)"/>
     <use xlink:href="#DejaVuSans-73" transform="translate(783.691406 0)"/>
     <use xlink:href="#DejaVuSans-74" transform="translate(835.791016 0)"/>
     <use xlink:href="#DejaVuSans-5f" transform="translate(875 0)"/>
     <use xlink:href="#DejaVuSans-67" transform="translate(925 0)"/>
     <use xlink:href="#DejaVuSans-65" transform="translate(988.476562 0)"/>
     <use xlink:href="#DejaVuSans-6e" transform="translate(1050 0)"/>
     <use xlink:href="#DejaVuSans-65" transform="translate(1113.378906 0)"/>
     <use xlink:href="#DejaVuSans-72" transform="translate(1174.902344 0)"/>
     <use xlink:href="#DejaVuSans-61" transform="translate(1216.015625 0)"/>
     <use xlink:href="#DejaVuSans-74" transform="translate(1277.294922 0)"/>
     <use xlink:href="#DejaVuSans-6f" transform="translate(1316.503906 0)"/>
     <use xlink:href="#DejaVuSans-72" transform="translate(1377.685547 0)"/>
     <use xlink:href="#DejaVuSans-63" transform="translate(1416.548828 0)"/>
     <use xlink:href="#DejaVuSans-6e" transform="translate(1471.529297 0)"/>
     <use xlink:href="#DejaVuSans-6e" transform="translate(1534.908203 0)"/>
     <use xlink:href="#DejaVuSans-5f" transform="translate(1598.287109 0)"/>
     <use xlink:href="#DejaVuSans-64" transform="translate(1648.287109 0)"/>
     <use xlink:href="#DejaVuSans-69" transform="translate(1711.763672 0)"/>
     <use xlink:href="#DejaVuSans-73" transform="translate(1739.546875 0)"/>
     <use xlink:href="#DejaVuSans-63" transform="translate(1791.646484 0)"/>
     <use xlink:href="#DejaVuSans-72" transform="translate(1846.626953 0)"/>
     <use xlink:href="#DejaVuSans-69" transform="translate(1887.740234 0)"/>
     <use xlink:href="#DejaVuSans-6d" transform="translate(1915.523438 0)"/>
     <use xlink:href="#DejaVuSans-69" transform="translate(2012.935547 0)"/>
     <use xlink:href="#DejaVuSans-6e" transform="translate(2040.71875 0)"/>
     <use xlink:href="#DejaVuSans-61" transform="translate(2104.097656 0)"/>
     <use xlink:href="#DejaVuSans-74" transform="translate(2165.376953 0)"/>
     <use xlink:href="#DejaVuSans-6f" transform="translate(2204.585938 0)"/>
     <use xlink:href="#DejaVuSans-72" transform="translate(2265.767578 0)"/>
     <use xlink:href="#DejaVuSans-20" transform="translate(2306.880859 0)"/>
     <use xlink:href="#DejaVuSans-54" transform="translate(2338.667969 0)"/>
     <use xlink:href="#DejaVuSans-72" transform="translate(2385.001953 0)"/>
     <use xlink:href="#DejaVuSans-69" transform="translate(2426.115234 0)"/>
     <use xlink:href="#DejaVuSans-61" transform="translate(2453.898438 0)"/>
     <use xlink:href="#DejaVuSans-6c" transform="translate(2515.177734 0)"/>
     <use xlink:href="#DejaVuSans-20" transform="translate(2542.960938 0)"/>
     <use xlink:href="#DejaVuSans-38" transform="translate(2574.748047 0)"/>
    </g>
   </g>
   <g id="legend_1">
    <g id="patch_7">
     <path d="M 61.2 63.3525 
L 183.373438 63.3525 
Q 185.373438 63.3525 185.373438 61.3525 
L 185.373438 32.44 
Q 185.373438 30.44 183.373438 30.44 
L 61.2 30.44 
Q 59.2 30.44 59.2 32.44 
L 59.2 61.3525 
Q 59.2 63.3525 61.2 63.3525 
z
" style="fill: #ffffff; opacity: 0.8; stroke: #cccccc; stroke-linejoin: miter"/>
    </g>
    <g id="line2d_29">
     <path d="M 63.2 38.538438 
L 73.2 38.538438 
L 83.2 38.538438 
" style="fill: none; stroke: #ff0000; stroke-width: 1.5; stroke-linecap: square"/>
    </g>
    <g id="text_17">
     <!-- discriminator_loss -->
     <g transform="translate(91.2 42.038438) scale(0.1 -0.1)">
      <use xlink:href="#DejaVuSans-64"/>
      <use xlink:href="#DejaVuSans-69" transform="translate(63.476562 0)"/>
      <use xlink:href="#DejaVuSans-73" transform="translate(91.259766 0)"/>
      <use xlink:href="#DejaVuSans-63" transform="translate(143.359375 0)"/>
      <use xlink:href="#DejaVuSans-72" transform="translate(198.339844 0)"/>
      <use xlink:href="#DejaVuSans-69" transform="translate(239.453125 0)"/>
      <use xlink:href="#DejaVuSans-6d" transform="translate(267.236328 0)"/>
      <use xlink:href="#DejaVuSans-69" transform="translate(364.648438 0)"/>
      <use xlink:href="#DejaVuSans-6e" transform="translate(392.431641 0)"/>
      <use xlink:href="#DejaVuSans-61" transform="translate(455.810547 0)"/>
      <use xlink:href="#DejaVuSans-74" transform="translate(517.089844 0)"/>
      <use xlink:href="#DejaVuSans-6f" transform="translate(556.298828 0)"/>
      <use xlink:href="#DejaVuSans-72" transform="translate(617.480469 0)"/>
      <use xlink:href="#DejaVuSans-5f" transform="translate(658.59375 0)"/>
      <use xlink:href="#DejaVuSans-6c" transform="translate(708.59375 0)"/>
      <use xlink:href="#DejaVuSans-6f" transform="translate(736.376953 0)"/>
      <use xlink:href="#DejaVuSans-73" transform="translate(797.558594 0)"/>
      <use xlink:href="#DejaVuSans-73" transform="translate(849.658203 0)"/>
     </g>
    </g>
    <g id="line2d_30">
     <path d="M 63.2 53.494688 
L 73.2 53.494688 
L 83.2 53.494688 
" style="fill: none; stroke: #0000ff; stroke-width: 1.5; stroke-linecap: square"/>
    </g>
    <g id="text_18">
     <!-- generator_loss -->
     <g transform="translate(91.2 56.994688) scale(0.1 -0.1)">
      <use xlink:href="#DejaVuSans-67"/>
      <use xlink:href="#DejaVuSans-65" transform="translate(63.476562 0)"/>
      <use xlink:href="#DejaVuSans-6e" transform="translate(125 0)"/>
      <use xlink:href="#DejaVuSans-65" transform="translate(188.378906 0)"/>
      <use xlink:href="#DejaVuSans-72" transform="translate(249.902344 0)"/>
      <use xlink:href="#DejaVuSans-61" transform="translate(291.015625 0)"/>
      <use xlink:href="#DejaVuSans-74" transform="translate(352.294922 0)"/>
      <use xlink:href="#DejaVuSans-6f" transform="translate(391.503906 0)"/>
      <use xlink:href="#DejaVuSans-72" transform="translate(452.685547 0)"/>
      <use xlink:href="#DejaVuSans-5f" transform="translate(493.798828 0)"/>
      <use xlink:href="#DejaVuSans-6c" transform="translate(543.798828 0)"/>
      <use xlink:href="#DejaVuSans-6f" transform="translate(571.582031 0)"/>
      <use xlink:href="#DejaVuSans-73" transform="translate(632.763672 0)"/>
      <use xlink:href="#DejaVuSans-73" transform="translate(684.863281 0)"/>
     </g>
    </g>
   </g>
  </g>
 </g>
 <defs>
  <clipPath id="pcacb23f87a">
   <rect x="54.2" y="25.44" width="655" height="364.6"/>
  </clipPath>
 </defs>
</svg>
