<?xml version="1.0" encoding="utf-8" standalone="no"?>
<!DOCTYPE svg PUBLIC "-//W3C//DTD SVG 1.1//EN"
  "http://www.w3.org/Graphics/SVG/1.1/DTD/svg11.dtd">
<svg xmlns:xlink="http://www.w3.org/1999/xlink" width="720pt" height="432pt" viewBox="0 0 720 432" xmlns="http://www.w3.org/2000/svg" version="1.1">
 <metadata>
  <rdf:RDF xmlns:dc="http://purl.org/dc/elements/1.1/" xmlns:cc="http://creativecommons.org/ns#" xmlns:rdf="http://www.w3.org/1999/02/22-rdf-syntax-ns#">
   <cc:Work>
    <dc:type rdf:resource="http://purl.org/dc/dcmitype/StillImage"/>
    <dc:date>2025-06-21T13:25:13.782237</dc:date>
    <dc:format>image/svg+xml</dc:format>
    <dc:creator>
     <cc:Agent>
      <dc:title>Matplotlib v3.10.1, https://matplotlib.org/</dc:title>
     </cc:Agent>
    </dc:creator>
   </cc:Work>
  </rdf:RDF>
 </metadata>
 <defs>
  <style type="text/css">*{stroke-linejoin: round; stroke-linecap: butt}</style>
 </defs>
 <g id="figure_1">
  <g id="patch_1">
   <path d="M 0 432 
L 720 432 
L 720 0 
L 0 0 
z
" style="fill: #ffffff"/>
  </g>
  <g id="axes_1">
   <g id="patch_2">
    <path d="M 47.81 390.04 
L 709.2 390.04 
L 709.2 25.44 
L 47.81 25.44 
z
" style="fill: #ffffff"/>
   </g>
   <g id="matplotlib.axis_1">
    <g id="xtick_1">
     <g id="line2d_1">
      <path d="M 77.873182 390.04 
L 77.873182 25.44 
" clip-path="url(#p0ceef2356a)" style="fill: none; stroke: #b0b0b0; stroke-width: 0.8; stroke-linecap: square"/>
     </g>
     <g id="line2d_2">
      <defs>
       <path id="mfc70141096" d="M 0 0 
L 0 3.5 
" style="stroke: #000000; stroke-width: 0.8"/>
      </defs>
      <g>
       <use xlink:href="#mfc70141096" x="77.873182" y="390.04" style="stroke: #000000; stroke-width: 0.8"/>
      </g>
     </g>
     <g id="text_1">
      <!-- 0 -->
      <g transform="translate(74.691932 404.638438) scale(0.1 -0.1)">
       <defs>
        <path id="DejaVuSans-30" d="M 2034 4250 
Q 1547 4250 1301 3770 
Q 1056 3291 1056 2328 
Q 1056 1369 1301 889 
Q 1547 409 2034 409 
Q 2525 409 2770 889 
Q 3016 1369 3016 2328 
Q 3016 3291 2770 3770 
Q 2525 4250 2034 4250 
z
M 2034 4750 
Q 2819 4750 3233 4129 
Q 3647 3509 3647 2328 
Q 3647 1150 3233 529 
Q 2819 -91 2034 -91 
Q 1250 -91 836 529 
Q 422 1150 422 2328 
Q 422 3509 836 4129 
Q 1250 4750 2034 4750 
z
" transform="scale(0.015625)"/>
       </defs>
       <use xlink:href="#DejaVuSans-30"/>
      </g>
     </g>
    </g>
    <g id="xtick_2">
     <g id="line2d_3">
      <path d="M 193.947243 390.04 
L 193.947243 25.44 
" clip-path="url(#p0ceef2356a)" style="fill: none; stroke: #b0b0b0; stroke-width: 0.8; stroke-linecap: square"/>
     </g>
     <g id="line2d_4">
      <g>
       <use xlink:href="#mfc70141096" x="193.947243" y="390.04" style="stroke: #000000; stroke-width: 0.8"/>
      </g>
     </g>
     <g id="text_2">
      <!-- 50 -->
      <g transform="translate(187.584743 404.638438) scale(0.1 -0.1)">
       <defs>
        <path id="DejaVuSans-35" d="M 691 4666 
L 3169 4666 
L 3169 4134 
L 1269 4134 
L 1269 2991 
Q 1406 3038 1543 3061 
Q 1681 3084 1819 3084 
Q 2600 3084 3056 2656 
Q 3513 2228 3513 1497 
Q 3513 744 3044 326 
Q 2575 -91 1722 -91 
Q 1428 -91 1123 -41 
Q 819 9 494 109 
L 494 744 
Q 775 591 1075 516 
Q 1375 441 1709 441 
Q 2250 441 2565 725 
Q 2881 1009 2881 1497 
Q 2881 1984 2565 2268 
Q 2250 2553 1709 2553 
Q 1456 2553 1204 2497 
Q 953 2441 691 2322 
L 691 4666 
z
" transform="scale(0.015625)"/>
       </defs>
       <use xlink:href="#DejaVuSans-35"/>
       <use xlink:href="#DejaVuSans-30" transform="translate(63.623047 0)"/>
      </g>
     </g>
    </g>
    <g id="xtick_3">
     <g id="line2d_5">
      <path d="M 310.021304 390.04 
L 310.021304 25.44 
" clip-path="url(#p0ceef2356a)" style="fill: none; stroke: #b0b0b0; stroke-width: 0.8; stroke-linecap: square"/>
     </g>
     <g id="line2d_6">
      <g>
       <use xlink:href="#mfc70141096" x="310.021304" y="390.04" style="stroke: #000000; stroke-width: 0.8"/>
      </g>
     </g>
     <g id="text_3">
      <!-- 100 -->
      <g transform="translate(300.477554 404.638438) scale(0.1 -0.1)">
       <defs>
        <path id="DejaVuSans-31" d="M 794 531 
L 1825 531 
L 1825 4091 
L 703 3866 
L 703 4441 
L 1819 4666 
L 2450 4666 
L 2450 531 
L 3481 531 
L 3481 0 
L 794 0 
L 794 531 
z
" transform="scale(0.015625)"/>
       </defs>
       <use xlink:href="#DejaVuSans-31"/>
       <use xlink:href="#DejaVuSans-30" transform="translate(63.623047 0)"/>
       <use xlink:href="#DejaVuSans-30" transform="translate(127.246094 0)"/>
      </g>
     </g>
    </g>
    <g id="xtick_4">
     <g id="line2d_7">
      <path d="M 426.095365 390.04 
L 426.095365 25.44 
" clip-path="url(#p0ceef2356a)" style="fill: none; stroke: #b0b0b0; stroke-width: 0.8; stroke-linecap: square"/>
     </g>
     <g id="line2d_8">
      <g>
       <use xlink:href="#mfc70141096" x="426.095365" y="390.04" style="stroke: #000000; stroke-width: 0.8"/>
      </g>
     </g>
     <g id="text_4">
      <!-- 150 -->
      <g transform="translate(416.551615 404.638438) scale(0.1 -0.1)">
       <use xlink:href="#DejaVuSans-31"/>
       <use xlink:href="#DejaVuSans-35" transform="translate(63.623047 0)"/>
       <use xlink:href="#DejaVuSans-30" transform="translate(127.246094 0)"/>
      </g>
     </g>
    </g>
    <g id="xtick_5">
     <g id="line2d_9">
      <path d="M 542.169426 390.04 
L 542.169426 25.44 
" clip-path="url(#p0ceef2356a)" style="fill: none; stroke: #b0b0b0; stroke-width: 0.8; stroke-linecap: square"/>
     </g>
     <g id="line2d_10">
      <g>
       <use xlink:href="#mfc70141096" x="542.169426" y="390.04" style="stroke: #000000; stroke-width: 0.8"/>
      </g>
     </g>
     <g id="text_5">
      <!-- 200 -->
      <g transform="translate(532.625676 404.638438) scale(0.1 -0.1)">
       <defs>
        <path id="DejaVuSans-32" d="M 1228 531 
L 3431 531 
L 3431 0 
L 469 0 
L 469 531 
Q 828 903 1448 1529 
Q 2069 2156 2228 2338 
Q 2531 2678 2651 2914 
Q 2772 3150 2772 3378 
Q 2772 3750 2511 3984 
Q 2250 4219 1831 4219 
Q 1534 4219 1204 4116 
Q 875 4013 500 3803 
L 500 4441 
Q 881 4594 1212 4672 
Q 1544 4750 1819 4750 
Q 2544 4750 2975 4387 
Q 3406 4025 3406 3419 
Q 3406 3131 3298 2873 
Q 3191 2616 2906 2266 
Q 2828 2175 2409 1742 
Q 1991 1309 1228 531 
z
" transform="scale(0.015625)"/>
       </defs>
       <use xlink:href="#DejaVuSans-32"/>
       <use xlink:href="#DejaVuSans-30" transform="translate(63.623047 0)"/>
       <use xlink:href="#DejaVuSans-30" transform="translate(127.246094 0)"/>
      </g>
     </g>
    </g>
    <g id="xtick_6">
     <g id="line2d_11">
      <path d="M 658.243487 390.04 
L 658.243487 25.44 
" clip-path="url(#p0ceef2356a)" style="fill: none; stroke: #b0b0b0; stroke-width: 0.8; stroke-linecap: square"/>
     </g>
     <g id="line2d_12">
      <g>
       <use xlink:href="#mfc70141096" x="658.243487" y="390.04" style="stroke: #000000; stroke-width: 0.8"/>
      </g>
     </g>
     <g id="text_6">
      <!-- 250 -->
      <g transform="translate(648.699737 404.638438) scale(0.1 -0.1)">
       <use xlink:href="#DejaVuSans-32"/>
       <use xlink:href="#DejaVuSans-35" transform="translate(63.623047 0)"/>
       <use xlink:href="#DejaVuSans-30" transform="translate(127.246094 0)"/>
      </g>
     </g>
    </g>
    <g id="text_7">
     <!-- Epoch -->
     <g transform="translate(363.194063 418.316562) scale(0.1 -0.1)">
      <defs>
       <path id="DejaVuSans-45" d="M 628 4666 
L 3578 4666 
L 3578 4134 
L 1259 4134 
L 1259 2753 
L 3481 2753 
L 3481 2222 
L 1259 2222 
L 1259 531 
L 3634 531 
L 3634 0 
L 628 0 
L 628 4666 
z
" transform="scale(0.015625)"/>
       <path id="DejaVuSans-70" d="M 1159 525 
L 1159 -1331 
L 581 -1331 
L 581 3500 
L 1159 3500 
L 1159 2969 
Q 1341 3281 1617 3432 
Q 1894 3584 2278 3584 
Q 2916 3584 3314 3078 
Q 3713 2572 3713 1747 
Q 3713 922 3314 415 
Q 2916 -91 2278 -91 
Q 1894 -91 1617 61 
Q 1341 213 1159 525 
z
M 3116 1747 
Q 3116 2381 2855 2742 
Q 2594 3103 2138 3103 
Q 1681 3103 1420 2742 
Q 1159 2381 1159 1747 
Q 1159 1113 1420 752 
Q 1681 391 2138 391 
Q 2594 391 2855 752 
Q 3116 1113 3116 1747 
z
" transform="scale(0.015625)"/>
       <path id="DejaVuSans-6f" d="M 1959 3097 
Q 1497 3097 1228 2736 
Q 959 2375 959 1747 
Q 959 1119 1226 758 
Q 1494 397 1959 397 
Q 2419 397 2687 759 
Q 2956 1122 2956 1747 
Q 2956 2369 2687 2733 
Q 2419 3097 1959 3097 
z
M 1959 3584 
Q 2709 3584 3137 3096 
Q 3566 2609 3566 1747 
Q 3566 888 3137 398 
Q 2709 -91 1959 -91 
Q 1206 -91 779 398 
Q 353 888 353 1747 
Q 353 2609 779 3096 
Q 1206 3584 1959 3584 
z
" transform="scale(0.015625)"/>
       <path id="DejaVuSans-63" d="M 3122 3366 
L 3122 2828 
Q 2878 2963 2633 3030 
Q 2388 3097 2138 3097 
Q 1578 3097 1268 2742 
Q 959 2388 959 1747 
Q 959 1106 1268 751 
Q 1578 397 2138 397 
Q 2388 397 2633 464 
Q 2878 531 3122 666 
L 3122 134 
Q 2881 22 2623 -34 
Q 2366 -91 2075 -91 
Q 1284 -91 818 406 
Q 353 903 353 1747 
Q 353 2603 823 3093 
Q 1294 3584 2113 3584 
Q 2378 3584 2631 3529 
Q 2884 3475 3122 3366 
z
" transform="scale(0.015625)"/>
       <path id="DejaVuSans-68" d="M 3513 2113 
L 3513 0 
L 2938 0 
L 2938 2094 
Q 2938 2591 2744 2837 
Q 2550 3084 2163 3084 
Q 1697 3084 1428 2787 
Q 1159 2491 1159 1978 
L 1159 0 
L 581 0 
L 581 4863 
L 1159 4863 
L 1159 2956 
Q 1366 3272 1645 3428 
Q 1925 3584 2291 3584 
Q 2894 3584 3203 3211 
Q 3513 2838 3513 2113 
z
" transform="scale(0.015625)"/>
      </defs>
      <use xlink:href="#DejaVuSans-45"/>
      <use xlink:href="#DejaVuSans-70" transform="translate(63.183594 0)"/>
      <use xlink:href="#DejaVuSans-6f" transform="translate(126.660156 0)"/>
      <use xlink:href="#DejaVuSans-63" transform="translate(187.841797 0)"/>
      <use xlink:href="#DejaVuSans-68" transform="translate(242.822266 0)"/>
     </g>
    </g>
   </g>
   <g id="matplotlib.axis_2">
    <g id="ytick_1">
     <g id="line2d_13">
      <path d="M 47.81 342.84222 
L 709.2 342.84222 
" clip-path="url(#p0ceef2356a)" style="fill: none; stroke: #b0b0b0; stroke-width: 0.8; stroke-linecap: square"/>
     </g>
     <g id="line2d_14">
      <defs>
       <path id="m681c82d3c9" d="M 0 0 
L -3.5 0 
" style="stroke: #000000; stroke-width: 0.8"/>
      </defs>
      <g>
       <use xlink:href="#m681c82d3c9" x="47.81" y="342.84222" style="stroke: #000000; stroke-width: 0.8"/>
      </g>
     </g>
     <g id="text_8">
      <!-- 0.2 -->
      <g transform="translate(24.906875 346.641439) scale(0.1 -0.1)">
       <defs>
        <path id="DejaVuSans-2e" d="M 684 794 
L 1344 794 
L 1344 0 
L 684 0 
L 684 794 
z
" transform="scale(0.015625)"/>
       </defs>
       <use xlink:href="#DejaVuSans-30"/>
       <use xlink:href="#DejaVuSans-2e" transform="translate(63.623047 0)"/>
       <use xlink:href="#DejaVuSans-32" transform="translate(95.410156 0)"/>
      </g>
     </g>
    </g>
    <g id="ytick_2">
     <g id="line2d_15">
      <path d="M 47.81 287.793072 
L 709.2 287.793072 
" clip-path="url(#p0ceef2356a)" style="fill: none; stroke: #b0b0b0; stroke-width: 0.8; stroke-linecap: square"/>
     </g>
     <g id="line2d_16">
      <g>
       <use xlink:href="#m681c82d3c9" x="47.81" y="287.793072" style="stroke: #000000; stroke-width: 0.8"/>
      </g>
     </g>
     <g id="text_9">
      <!-- 0.3 -->
      <g transform="translate(24.906875 291.592291) scale(0.1 -0.1)">
       <defs>
        <path id="DejaVuSans-33" d="M 2597 2516 
Q 3050 2419 3304 2112 
Q 3559 1806 3559 1356 
Q 3559 666 3084 287 
Q 2609 -91 1734 -91 
Q 1441 -91 1130 -33 
Q 819 25 488 141 
L 488 750 
Q 750 597 1062 519 
Q 1375 441 1716 441 
Q 2309 441 2620 675 
Q 2931 909 2931 1356 
Q 2931 1769 2642 2001 
Q 2353 2234 1838 2234 
L 1294 2234 
L 1294 2753 
L 1863 2753 
Q 2328 2753 2575 2939 
Q 2822 3125 2822 3475 
Q 2822 3834 2567 4026 
Q 2313 4219 1838 4219 
Q 1578 4219 1281 4162 
Q 984 4106 628 3988 
L 628 4550 
Q 988 4650 1302 4700 
Q 1616 4750 1894 4750 
Q 2613 4750 3031 4423 
Q 3450 4097 3450 3541 
Q 3450 3153 3228 2886 
Q 3006 2619 2597 2516 
z
" transform="scale(0.015625)"/>
       </defs>
       <use xlink:href="#DejaVuSans-30"/>
       <use xlink:href="#DejaVuSans-2e" transform="translate(63.623047 0)"/>
       <use xlink:href="#DejaVuSans-33" transform="translate(95.410156 0)"/>
      </g>
     </g>
    </g>
    <g id="ytick_3">
     <g id="line2d_17">
      <path d="M 47.81 232.743924 
L 709.2 232.743924 
" clip-path="url(#p0ceef2356a)" style="fill: none; stroke: #b0b0b0; stroke-width: 0.8; stroke-linecap: square"/>
     </g>
     <g id="line2d_18">
      <g>
       <use xlink:href="#m681c82d3c9" x="47.81" y="232.743924" style="stroke: #000000; stroke-width: 0.8"/>
      </g>
     </g>
     <g id="text_10">
      <!-- 0.4 -->
      <g transform="translate(24.906875 236.543143) scale(0.1 -0.1)">
       <defs>
        <path id="DejaVuSans-34" d="M 2419 4116 
L 825 1625 
L 2419 1625 
L 2419 4116 
z
M 2253 4666 
L 3047 4666 
L 3047 1625 
L 3713 1625 
L 3713 1100 
L 3047 1100 
L 3047 0 
L 2419 0 
L 2419 1100 
L 313 1100 
L 313 1709 
L 2253 4666 
z
" transform="scale(0.015625)"/>
       </defs>
       <use xlink:href="#DejaVuSans-30"/>
       <use xlink:href="#DejaVuSans-2e" transform="translate(63.623047 0)"/>
       <use xlink:href="#DejaVuSans-34" transform="translate(95.410156 0)"/>
      </g>
     </g>
    </g>
    <g id="ytick_4">
     <g id="line2d_19">
      <path d="M 47.81 177.694776 
L 709.2 177.694776 
" clip-path="url(#p0ceef2356a)" style="fill: none; stroke: #b0b0b0; stroke-width: 0.8; stroke-linecap: square"/>
     </g>
     <g id="line2d_20">
      <g>
       <use xlink:href="#m681c82d3c9" x="47.81" y="177.694776" style="stroke: #000000; stroke-width: 0.8"/>
      </g>
     </g>
     <g id="text_11">
      <!-- 0.5 -->
      <g transform="translate(24.906875 181.493995) scale(0.1 -0.1)">
       <use xlink:href="#DejaVuSans-30"/>
       <use xlink:href="#DejaVuSans-2e" transform="translate(63.623047 0)"/>
       <use xlink:href="#DejaVuSans-35" transform="translate(95.410156 0)"/>
      </g>
     </g>
    </g>
    <g id="ytick_5">
     <g id="line2d_21">
      <path d="M 47.81 122.645628 
L 709.2 122.645628 
" clip-path="url(#p0ceef2356a)" style="fill: none; stroke: #b0b0b0; stroke-width: 0.8; stroke-linecap: square"/>
     </g>
     <g id="line2d_22">
      <g>
       <use xlink:href="#m681c82d3c9" x="47.81" y="122.645628" style="stroke: #000000; stroke-width: 0.8"/>
      </g>
     </g>
     <g id="text_12">
      <!-- 0.6 -->
      <g transform="translate(24.906875 126.444847) scale(0.1 -0.1)">
       <defs>
        <path id="DejaVuSans-36" d="M 2113 2584 
Q 1688 2584 1439 2293 
Q 1191 2003 1191 1497 
Q 1191 994 1439 701 
Q 1688 409 2113 409 
Q 2538 409 2786 701 
Q 3034 994 3034 1497 
Q 3034 2003 2786 2293 
Q 2538 2584 2113 2584 
z
M 3366 4563 
L 3366 3988 
Q 3128 4100 2886 4159 
Q 2644 4219 2406 4219 
Q 1781 4219 1451 3797 
Q 1122 3375 1075 2522 
Q 1259 2794 1537 2939 
Q 1816 3084 2150 3084 
Q 2853 3084 3261 2657 
Q 3669 2231 3669 1497 
Q 3669 778 3244 343 
Q 2819 -91 2113 -91 
Q 1303 -91 875 529 
Q 447 1150 447 2328 
Q 447 3434 972 4092 
Q 1497 4750 2381 4750 
Q 2619 4750 2861 4703 
Q 3103 4656 3366 4563 
z
" transform="scale(0.015625)"/>
       </defs>
       <use xlink:href="#DejaVuSans-30"/>
       <use xlink:href="#DejaVuSans-2e" transform="translate(63.623047 0)"/>
       <use xlink:href="#DejaVuSans-36" transform="translate(95.410156 0)"/>
      </g>
     </g>
    </g>
    <g id="ytick_6">
     <g id="line2d_23">
      <path d="M 47.81 67.59648 
L 709.2 67.59648 
" clip-path="url(#p0ceef2356a)" style="fill: none; stroke: #b0b0b0; stroke-width: 0.8; stroke-linecap: square"/>
     </g>
     <g id="line2d_24">
      <g>
       <use xlink:href="#m681c82d3c9" x="47.81" y="67.59648" style="stroke: #000000; stroke-width: 0.8"/>
      </g>
     </g>
     <g id="text_13">
      <!-- 0.7 -->
      <g transform="translate(24.906875 71.395699) scale(0.1 -0.1)">
       <defs>
        <path id="DejaVuSans-37" d="M 525 4666 
L 3525 4666 
L 3525 4397 
L 1831 0 
L 1172 0 
L 2766 4134 
L 525 4134 
L 525 4666 
z
" transform="scale(0.015625)"/>
       </defs>
       <use xlink:href="#DejaVuSans-30"/>
       <use xlink:href="#DejaVuSans-2e" transform="translate(63.623047 0)"/>
       <use xlink:href="#DejaVuSans-37" transform="translate(95.410156 0)"/>
      </g>
     </g>
    </g>
    <g id="text_14">
     <!-- Value -->
     <g transform="translate(18.827188 221.47125) rotate(-90) scale(0.1 -0.1)">
      <defs>
       <path id="DejaVuSans-56" d="M 1831 0 
L 50 4666 
L 709 4666 
L 2188 738 
L 3669 4666 
L 4325 4666 
L 2547 0 
L 1831 0 
z
" transform="scale(0.015625)"/>
       <path id="DejaVuSans-61" d="M 2194 1759 
Q 1497 1759 1228 1600 
Q 959 1441 959 1056 
Q 959 750 1161 570 
Q 1363 391 1709 391 
Q 2188 391 2477 730 
Q 2766 1069 2766 1631 
L 2766 1759 
L 2194 1759 
z
M 3341 1997 
L 3341 0 
L 2766 0 
L 2766 531 
Q 2569 213 2275 61 
Q 1981 -91 1556 -91 
Q 1019 -91 701 211 
Q 384 513 384 1019 
Q 384 1609 779 1909 
Q 1175 2209 1959 2209 
L 2766 2209 
L 2766 2266 
Q 2766 2663 2505 2880 
Q 2244 3097 1772 3097 
Q 1472 3097 1187 3025 
Q 903 2953 641 2809 
L 641 3341 
Q 956 3463 1253 3523 
Q 1550 3584 1831 3584 
Q 2591 3584 2966 3190 
Q 3341 2797 3341 1997 
z
" transform="scale(0.015625)"/>
       <path id="DejaVuSans-6c" d="M 603 4863 
L 1178 4863 
L 1178 0 
L 603 0 
L 603 4863 
z
" transform="scale(0.015625)"/>
       <path id="DejaVuSans-75" d="M 544 1381 
L 544 3500 
L 1119 3500 
L 1119 1403 
Q 1119 906 1312 657 
Q 1506 409 1894 409 
Q 2359 409 2629 706 
Q 2900 1003 2900 1516 
L 2900 3500 
L 3475 3500 
L 3475 0 
L 2900 0 
L 2900 538 
Q 2691 219 2414 64 
Q 2138 -91 1772 -91 
Q 1169 -91 856 284 
Q 544 659 544 1381 
z
M 1991 3584 
L 1991 3584 
z
" transform="scale(0.015625)"/>
       <path id="DejaVuSans-65" d="M 3597 1894 
L 3597 1613 
L 953 1613 
Q 991 1019 1311 708 
Q 1631 397 2203 397 
Q 2534 397 2845 478 
Q 3156 559 3463 722 
L 3463 178 
Q 3153 47 2828 -22 
Q 2503 -91 2169 -91 
Q 1331 -91 842 396 
Q 353 884 353 1716 
Q 353 2575 817 3079 
Q 1281 3584 2069 3584 
Q 2775 3584 3186 3129 
Q 3597 2675 3597 1894 
z
M 3022 2063 
Q 3016 2534 2758 2815 
Q 2500 3097 2075 3097 
Q 1594 3097 1305 2825 
Q 1016 2553 972 2059 
L 3022 2063 
z
" transform="scale(0.015625)"/>
      </defs>
      <use xlink:href="#DejaVuSans-56"/>
      <use xlink:href="#DejaVuSans-61" transform="translate(60.658203 0)"/>
      <use xlink:href="#DejaVuSans-6c" transform="translate(121.9375 0)"/>
      <use xlink:href="#DejaVuSans-75" transform="translate(149.720703 0)"/>
      <use xlink:href="#DejaVuSans-65" transform="translate(213.099609 0)"/>
     </g>
    </g>
   </g>
   <g id="line2d_25">
    <path d="M 77.873182 230.750306 
L 80.194663 248.078998 
L 82.516144 243.101998 
L 84.837625 243.443602 
L 87.159107 246.827177 
L 89.480588 248.009831 
L 91.802069 251.111748 
L 94.12355 253.742766 
L 96.445032 256.861532 
L 98.766513 258.641871 
L 103.409475 262.88144 
L 105.730956 266.087388 
L 108.052438 267.294749 
L 110.373919 269.712802 
L 112.6954 271.579648 
L 115.016881 275.132302 
L 119.659844 277.932957 
L 121.981325 279.857733 
L 124.302806 283.810806 
L 126.624287 284.486419 
L 128.945769 287.053519 
L 131.26725 287.766586 
L 133.588731 288.725742 
L 135.910212 289.977482 
L 138.231694 292.861791 
L 140.553175 293.916101 
L 142.874656 295.70438 
L 145.196137 295.460407 
L 147.517618 297.249047 
L 152.160581 300.006768 
L 154.482062 299.708689 
L 156.803543 300.331966 
L 159.125025 301.184303 
L 161.446506 302.636834 
L 163.767987 302.516546 
L 166.089468 303.33781 
L 168.410949 305.099282 
L 170.732431 306.177003 
L 173.053912 306.400879 
L 177.696874 307.996076 
L 180.018356 309.927988 
L 182.339837 310.715981 
L 184.661318 310.990173 
L 186.982799 312.057559 
L 189.30428 311.843446 
L 191.625762 313.219788 
L 193.947243 313.204465 
L 198.590205 316.102998 
L 200.911687 316.833783 
L 203.233168 316.907561 
L 207.87613 317.54877 
L 210.197611 317.942012 
L 212.519093 319.301046 
L 214.840574 318.596403 
L 217.162055 319.751364 
L 221.805018 321.564579 
L 224.126499 321.308352 
L 226.44798 321.982274 
L 228.769461 321.654795 
L 231.090942 323.570745 
L 233.412424 323.78627 
L 235.733905 323.325805 
L 238.055386 324.750922 
L 240.376867 325.464309 
L 242.698349 324.149415 
L 245.01983 325.709996 
L 247.341311 326.026892 
L 249.662792 326.680004 
L 251.984273 327.006826 
L 254.305755 328.398771 
L 256.627236 327.265605 
L 258.948717 328.488954 
L 261.270198 328.587972 
L 263.59168 329.168233 
L 268.234642 328.37262 
L 270.556123 329.995182 
L 272.877604 330.284263 
L 275.199086 330.385175 
L 277.520567 331.418888 
L 279.842048 330.749272 
L 282.163529 332.437876 
L 284.485011 332.870566 
L 286.806492 331.798021 
L 289.127973 332.193953 
L 291.449454 333.257484 
L 293.770935 332.838911 
L 296.092417 333.811889 
L 298.413898 332.695696 
L 300.735379 333.089348 
L 303.05686 334.654686 
L 305.378342 334.971886 
L 307.699823 334.533241 
L 310.021304 335.996445 
L 312.342785 336.620518 
L 314.664266 336.255543 
L 316.985748 336.022062 
L 319.307229 337.334766 
L 321.62871 337.172249 
L 323.950191 336.15737 
L 326.271673 338.147671 
L 328.593154 337.806084 
L 330.914635 338.908972 
L 333.236116 338.836745 
L 335.557597 338.529913 
L 337.879079 339.594887 
L 340.20056 339.116663 
L 342.522041 339.249198 
L 344.843522 340.742572 
L 347.165004 340.196164 
L 349.486485 340.600054 
L 356.450928 342.325317 
L 358.77241 342.063634 
L 361.093891 341.961024 
L 363.415372 343.07857 
L 365.736853 341.465663 
L 368.058335 343.395328 
L 370.379816 343.086552 
L 372.701297 343.345036 
L 375.022778 342.99367 
L 377.344259 343.010396 
L 379.665741 344.465125 
L 381.987222 343.656133 
L 384.308703 344.934286 
L 386.630184 344.650931 
L 388.951665 344.970871 
L 391.273147 345.927049 
L 393.594628 345.875264 
L 395.916109 346.643086 
L 400.559072 346.787704 
L 405.202034 347.845254 
L 407.523515 346.994952 
L 409.844996 347.687274 
L 412.166478 347.055982 
L 414.487959 348.737023 
L 416.80944 348.046695 
L 419.130921 348.933574 
L 421.452403 349.166161 
L 423.773884 349.028524 
L 426.095365 349.313749 
L 428.416846 349.386804 
L 430.738327 350.786459 
L 435.38129 351.218985 
L 437.702771 351.193441 
L 440.024252 352.183309 
L 442.345734 352.380057 
L 444.667215 352.115963 
L 446.988696 351.986216 
L 449.310177 351.623563 
L 451.631658 352.281679 
L 453.95314 352.281121 
L 456.274621 353.84121 
L 460.917583 352.987117 
L 463.239065 353.590905 
L 465.560546 352.826249 
L 467.882027 353.777907 
L 470.203508 353.868911 
L 472.524989 353.82861 
L 474.846471 354.827936 
L 477.167952 355.184617 
L 479.489433 356.246187 
L 481.810914 354.942802 
L 484.132396 355.145259 
L 486.453877 356.117622 
L 488.775358 354.590189 
L 491.096839 355.883206 
L 495.739802 357.141475 
L 498.061283 356.705266 
L 500.382764 356.833232 
L 502.704245 356.364293 
L 505.025727 357.334326 
L 507.347208 357.659237 
L 509.668689 357.374209 
L 511.99017 357.853073 
L 514.311651 357.723171 
L 516.633133 358.751569 
L 521.276095 358.808194 
L 523.597576 359.043167 
L 525.919058 359.41107 
L 528.240539 358.29048 
L 530.56202 358.676922 
L 532.883501 359.494183 
L 535.204982 359.408388 
L 537.526464 360.369783 
L 539.847945 358.630993 
L 542.169426 360.214214 
L 544.490907 359.764191 
L 546.812389 360.179745 
L 549.13387 359.477842 
L 551.455351 361.238838 
L 553.776832 360.728474 
L 556.098313 361.930274 
L 558.419795 361.379789 
L 560.741276 361.719294 
L 563.062757 361.617077 
L 565.384238 362.926278 
L 567.70572 361.820231 
L 570.027201 362.769051 
L 572.348682 362.727667 
L 574.670163 363.000514 
L 579.313126 363.165468 
L 581.634607 363.753883 
L 583.956088 364.181298 
L 586.277569 363.620921 
L 588.599051 363.308913 
L 590.920532 363.556142 
L 593.242013 364.578838 
L 595.563494 364.274041 
L 597.884975 364.498187 
L 600.206457 364.375913 
L 602.527938 363.47668 
L 604.849419 365.504739 
L 607.1709 365.603363 
L 609.492382 366.348808 
L 611.813863 366.674884 
L 614.135344 366.680101 
L 616.456825 366.812726 
L 618.778306 366.833168 
L 621.099788 366.348726 
L 623.421269 366.37582 
L 625.74275 367.359519 
L 628.064231 368.053178 
L 630.385713 367.993518 
L 632.707194 368.257949 
L 635.028675 368.193793 
L 637.350156 368.756845 
L 639.671637 369.153761 
L 641.993119 368.397358 
L 644.3146 369.394198 
L 646.636081 368.762898 
L 648.957562 369.135313 
L 651.279044 368.165255 
L 653.600525 369.609297 
L 655.922006 369.3936 
L 658.243487 370.248775 
L 660.564968 370.277756 
L 662.88645 370.108767 
L 665.207931 370.819676 
L 667.529412 370.800859 
L 669.850893 365.38651 
L 672.172375 373.467273 
L 674.493856 371.440354 
L 676.815337 371.103835 
L 679.136818 371.430026 
L 679.136818 371.430026 
" clip-path="url(#p0ceef2356a)" style="fill: none; stroke: #ff0000; stroke-width: 1.5; stroke-linecap: square"/>
   </g>
   <g id="line2d_26">
    <path d="M 77.873182 171.433193 
L 80.194663 214.31677 
L 82.516144 233.418877 
L 84.837625 237.971308 
L 87.159107 235.561967 
L 89.480588 235.335335 
L 91.802069 231.103214 
L 94.12355 228.825333 
L 96.445032 224.35759 
L 98.766513 222.844143 
L 101.087994 218.983222 
L 103.409475 216.334043 
L 105.730956 212.163722 
L 108.052438 209.984162 
L 110.373919 207.394881 
L 112.6954 204.316851 
L 115.016881 199.160682 
L 117.338363 195.367238 
L 121.981325 191.98012 
L 124.302806 185.884417 
L 126.624287 185.256661 
L 128.945769 180.238794 
L 131.26725 178.920217 
L 133.588731 178.976998 
L 135.910212 176.004966 
L 138.231694 172.31967 
L 140.553175 171.570543 
L 142.874656 167.752195 
L 145.196137 167.512735 
L 147.517618 166.596004 
L 149.8391 162.470735 
L 152.160581 161.109863 
L 154.482062 160.85252 
L 156.803543 161.380955 
L 159.125025 159.180789 
L 161.446506 157.830155 
L 163.767987 156.799961 
L 166.089468 156.641546 
L 168.410949 155.661324 
L 170.732431 153.53177 
L 173.053912 151.037085 
L 175.375393 150.975005 
L 177.696874 150.614796 
L 180.018356 147.401565 
L 182.339837 146.629436 
L 184.661318 144.842667 
L 186.982799 143.774313 
L 189.30428 144.492138 
L 191.625762 141.376751 
L 193.947243 141.134173 
L 196.268724 140.216524 
L 198.590205 136.828734 
L 200.911687 136.046368 
L 203.233168 136.503634 
L 205.554649 136.684985 
L 207.87613 134.80001 
L 210.197611 136.840185 
L 212.519093 134.309014 
L 214.840574 134.936507 
L 217.162055 131.302168 
L 219.483536 131.473446 
L 221.805018 130.685732 
L 224.126499 130.656727 
L 226.44798 129.346254 
L 228.769461 128.395498 
L 233.412424 126.107265 
L 235.733905 126.947347 
L 238.055386 125.039043 
L 240.376867 123.432279 
L 242.698349 125.047114 
L 245.01983 122.390372 
L 247.341311 121.960143 
L 249.662792 124.729824 
L 251.984273 121.006926 
L 254.305755 120.050001 
L 256.627236 120.104666 
L 258.948717 121.252129 
L 261.270198 119.649697 
L 263.59168 116.774197 
L 265.913161 119.10584 
L 268.234642 119.266028 
L 270.556123 116.511046 
L 272.877604 117.115539 
L 275.199086 115.754438 
L 279.842048 116.351712 
L 282.163529 112.613097 
L 284.485011 113.509156 
L 286.806492 113.096941 
L 289.127973 111.97471 
L 291.449454 113.25447 
L 293.770935 110.891262 
L 296.092417 110.593561 
L 298.413898 112.558564 
L 300.735379 111.574077 
L 303.05686 110.287557 
L 305.378342 109.885514 
L 307.699823 106.730359 
L 310.021304 108.041652 
L 312.342785 106.697153 
L 314.664266 103.949883 
L 316.985748 104.659472 
L 319.307229 107.793725 
L 321.62871 105.51281 
L 323.950191 106.50271 
L 326.271673 105.461689 
L 328.593154 103.063635 
L 330.914635 104.261366 
L 335.557597 101.329332 
L 337.879079 100.409025 
L 340.20056 100.302255 
L 344.843522 102.099623 
L 347.165004 101.079929 
L 349.486485 100.251955 
L 351.807966 98.086077 
L 354.129447 99.108987 
L 356.450928 97.776137 
L 358.77241 97.341314 
L 361.093891 97.27464 
L 363.415372 97.357982 
L 365.736853 97.211215 
L 368.058335 96.069625 
L 370.379816 96.469142 
L 372.701297 94.636535 
L 375.022778 95.319087 
L 377.344259 95.627584 
L 379.665741 95.644023 
L 381.987222 93.002899 
L 384.308703 91.349608 
L 386.630184 93.866014 
L 388.951665 94.474182 
L 391.273147 91.671033 
L 395.916109 90.874755 
L 398.23759 89.498692 
L 400.559072 89.942144 
L 402.880553 90.668139 
L 405.202034 88.898432 
L 407.523515 88.343649 
L 409.844996 88.391817 
L 412.166478 87.912796 
L 414.487959 88.537403 
L 416.80944 87.571291 
L 419.130921 85.962394 
L 421.452403 87.458221 
L 423.773884 85.311571 
L 426.095365 85.486327 
L 428.416846 85.19148 
L 430.738327 83.602205 
L 433.059809 83.467677 
L 435.38129 81.778359 
L 437.702771 82.813868 
L 440.024252 82.623067 
L 442.345734 81.299306 
L 444.667215 80.510148 
L 446.988696 82.527256 
L 449.310177 80.886828 
L 451.631658 80.839152 
L 453.95314 81.005738 
L 456.274621 80.698849 
L 458.596102 78.136703 
L 460.917583 78.700049 
L 463.239065 80.370337 
L 465.560546 79.691984 
L 467.882027 77.620704 
L 470.203508 78.58885 
L 472.524989 76.990618 
L 474.846471 76.308033 
L 477.167952 77.83677 
L 479.489433 76.094986 
L 481.810914 76.135443 
L 484.132396 75.112763 
L 486.453877 75.959932 
L 488.775358 76.04964 
L 491.096839 74.847906 
L 493.41832 74.926752 
L 495.739802 75.419193 
L 498.061283 74.377351 
L 500.382764 74.561622 
L 502.704245 73.125973 
L 505.025727 74.18655 
L 507.347208 72.010107 
L 509.668689 72.180401 
L 511.99017 73.143822 
L 514.311651 71.92017 
L 516.633133 71.348095 
L 518.954614 71.549757 
L 521.276095 69.013992 
L 523.597576 70.745703 
L 525.919058 69.801771 
L 530.56202 69.706026 
L 532.883501 70.231771 
L 535.204982 69.555847 
L 537.526464 66.806181 
L 539.847945 71.016827 
L 542.169426 66.8008 
L 544.490907 68.300203 
L 546.812389 66.365189 
L 549.13387 68.668713 
L 551.455351 66.761327 
L 553.776832 67.914138 
L 556.098313 66.036382 
L 558.419795 65.296737 
L 560.741276 67.951183 
L 563.062757 65.980536 
L 565.384238 62.436397 
L 567.70572 63.528835 
L 570.027201 63.732695 
L 572.348682 63.80429 
L 574.670163 62.838506 
L 576.991644 63.999816 
L 579.313126 62.858653 
L 583.956088 63.718258 
L 586.277569 61.600515 
L 588.599051 63.737518 
L 590.920532 62.63212 
L 593.242013 59.27806 
L 597.884975 60.609401 
L 600.206457 60.798561 
L 602.527938 59.59896 
L 604.849419 57.440038 
L 607.1709 57.868725 
L 609.492382 58.145953 
L 611.813863 56.505065 
L 614.135344 58.728363 
L 616.456825 58.57418 
L 618.778306 57.370313 
L 621.099788 56.671716 
L 623.421269 57.120943 
L 625.74275 56.302353 
L 628.064231 54.975508 
L 630.385713 55.518708 
L 632.707194 54.497045 
L 635.028675 54.622354 
L 637.350156 55.377354 
L 639.671637 53.132925 
L 641.993119 54.850298 
L 644.3146 54.130898 
L 646.636081 52.726846 
L 648.957562 53.230672 
L 651.279044 52.769272 
L 653.600525 51.985889 
L 655.922006 51.802667 
L 658.243487 51.209396 
L 660.564968 49.684761 
L 662.88645 50.323936 
L 665.207931 48.091122 
L 667.529412 50.870614 
L 669.850893 55.512999 
L 672.172375 42.012727 
L 674.493856 47.021456 
L 676.815337 48.639572 
L 679.136818 49.609261 
L 679.136818 49.609261 
" clip-path="url(#p0ceef2356a)" style="fill: none; stroke: #0000ff; stroke-width: 1.5; stroke-linecap: square"/>
   </g>
   <g id="patch_3">
    <path d="M 47.81 390.04 
L 47.81 25.44 
" style="fill: none; stroke: #000000; stroke-width: 0.8; stroke-linejoin: miter; stroke-linecap: square"/>
   </g>
   <g id="patch_4">
    <path d="M 709.2 390.04 
L 709.2 25.44 
" style="fill: none; stroke: #000000; stroke-width: 0.8; stroke-linejoin: miter; stroke-linecap: square"/>
   </g>
   <g id="patch_5">
    <path d="M 47.81 390.04 
L 709.2 390.04 
" style="fill: none; stroke: #000000; stroke-width: 0.8; stroke-linejoin: miter; stroke-linecap: square"/>
   </g>
   <g id="patch_6">
    <path d="M 47.81 25.44 
L 709.2 25.44 
" style="fill: none; stroke: #000000; stroke-width: 0.8; stroke-linejoin: miter; stroke-linecap: square"/>
   </g>
   <g id="text_15">
    <!-- gan_IS_FID_mnist_generator_discriminator Trial 8 -->
    <g transform="translate(230.973438 19.44) scale(0.12 -0.12)">
     <defs>
      <path id="DejaVuSans-67" d="M 2906 1791 
Q 2906 2416 2648 2759 
Q 2391 3103 1925 3103 
Q 1463 3103 1205 2759 
Q 947 2416 947 1791 
Q 947 1169 1205 825 
Q 1463 481 1925 481 
Q 2391 481 2648 825 
Q 2906 1169 2906 1791 
z
M 3481 434 
Q 3481 -459 3084 -895 
Q 2688 -1331 1869 -1331 
Q 1566 -1331 1297 -1286 
Q 1028 -1241 775 -1147 
L 775 -588 
Q 1028 -725 1275 -790 
Q 1522 -856 1778 -856 
Q 2344 -856 2625 -561 
Q 2906 -266 2906 331 
L 2906 616 
Q 2728 306 2450 153 
Q 2172 0 1784 0 
Q 1141 0 747 490 
Q 353 981 353 1791 
Q 353 2603 747 3093 
Q 1141 3584 1784 3584 
Q 2172 3584 2450 3431 
Q 2728 3278 2906 2969 
L 2906 3500 
L 3481 3500 
L 3481 434 
z
" transform="scale(0.015625)"/>
      <path id="DejaVuSans-6e" d="M 3513 2113 
L 3513 0 
L 2938 0 
L 2938 2094 
Q 2938 2591 2744 2837 
Q 2550 3084 2163 3084 
Q 1697 3084 1428 2787 
Q 1159 2491 1159 1978 
L 1159 0 
L 581 0 
L 581 3500 
L 1159 3500 
L 1159 2956 
Q 1366 3272 1645 3428 
Q 1925 3584 2291 3584 
Q 2894 3584 3203 3211 
Q 3513 2838 3513 2113 
z
" transform="scale(0.015625)"/>
      <path id="DejaVuSans-5f" d="M 3263 -1063 
L 3263 -1509 
L -63 -1509 
L -63 -1063 
L 3263 -1063 
z
" transform="scale(0.015625)"/>
      <path id="DejaVuSans-49" d="M 628 4666 
L 1259 4666 
L 1259 0 
L 628 0 
L 628 4666 
z
" transform="scale(0.015625)"/>
      <path id="DejaVuSans-53" d="M 3425 4513 
L 3425 3897 
Q 3066 4069 2747 4153 
Q 2428 4238 2131 4238 
Q 1616 4238 1336 4038 
Q 1056 3838 1056 3469 
Q 1056 3159 1242 3001 
Q 1428 2844 1947 2747 
L 2328 2669 
Q 3034 2534 3370 2195 
Q 3706 1856 3706 1288 
Q 3706 609 3251 259 
Q 2797 -91 1919 -91 
Q 1588 -91 1214 -16 
Q 841 59 441 206 
L 441 856 
Q 825 641 1194 531 
Q 1563 422 1919 422 
Q 2459 422 2753 634 
Q 3047 847 3047 1241 
Q 3047 1584 2836 1778 
Q 2625 1972 2144 2069 
L 1759 2144 
Q 1053 2284 737 2584 
Q 422 2884 422 3419 
Q 422 4038 858 4394 
Q 1294 4750 2059 4750 
Q 2388 4750 2728 4690 
Q 3069 4631 3425 4513 
z
" transform="scale(0.015625)"/>
      <path id="DejaVuSans-46" d="M 628 4666 
L 3309 4666 
L 3309 4134 
L 1259 4134 
L 1259 2759 
L 3109 2759 
L 3109 2228 
L 1259 2228 
L 1259 0 
L 628 0 
L 628 4666 
z
" transform="scale(0.015625)"/>
      <path id="DejaVuSans-44" d="M 1259 4147 
L 1259 519 
L 2022 519 
Q 2988 519 3436 956 
Q 3884 1394 3884 2338 
Q 3884 3275 3436 3711 
Q 2988 4147 2022 4147 
L 1259 4147 
z
M 628 4666 
L 1925 4666 
Q 3281 4666 3915 4102 
Q 4550 3538 4550 2338 
Q 4550 1131 3912 565 
Q 3275 0 1925 0 
L 628 0 
L 628 4666 
z
" transform="scale(0.015625)"/>
      <path id="DejaVuSans-6d" d="M 3328 2828 
Q 3544 3216 3844 3400 
Q 4144 3584 4550 3584 
Q 5097 3584 5394 3201 
Q 5691 2819 5691 2113 
L 5691 0 
L 5113 0 
L 5113 2094 
Q 5113 2597 4934 2840 
Q 4756 3084 4391 3084 
Q 3944 3084 3684 2787 
Q 3425 2491 3425 1978 
L 3425 0 
L 2847 0 
L 2847 2094 
Q 2847 2600 2669 2842 
Q 2491 3084 2119 3084 
Q 1678 3084 1418 2786 
Q 1159 2488 1159 1978 
L 1159 0 
L 581 0 
L 581 3500 
L 1159 3500 
L 1159 2956 
Q 1356 3278 1631 3431 
Q 1906 3584 2284 3584 
Q 2666 3584 2933 3390 
Q 3200 3197 3328 2828 
z
" transform="scale(0.015625)"/>
      <path id="DejaVuSans-69" d="M 603 3500 
L 1178 3500 
L 1178 0 
L 603 0 
L 603 3500 
z
M 603 4863 
L 1178 4863 
L 1178 4134 
L 603 4134 
L 603 4863 
z
" transform="scale(0.015625)"/>
      <path id="DejaVuSans-73" d="M 2834 3397 
L 2834 2853 
Q 2591 2978 2328 3040 
Q 2066 3103 1784 3103 
Q 1356 3103 1142 2972 
Q 928 2841 928 2578 
Q 928 2378 1081 2264 
Q 1234 2150 1697 2047 
L 1894 2003 
Q 2506 1872 2764 1633 
Q 3022 1394 3022 966 
Q 3022 478 2636 193 
Q 2250 -91 1575 -91 
Q 1294 -91 989 -36 
Q 684 19 347 128 
L 347 722 
Q 666 556 975 473 
Q 1284 391 1588 391 
Q 1994 391 2212 530 
Q 2431 669 2431 922 
Q 2431 1156 2273 1281 
Q 2116 1406 1581 1522 
L 1381 1569 
Q 847 1681 609 1914 
Q 372 2147 372 2553 
Q 372 3047 722 3315 
Q 1072 3584 1716 3584 
Q 2034 3584 2315 3537 
Q 2597 3491 2834 3397 
z
" transform="scale(0.015625)"/>
      <path id="DejaVuSans-74" d="M 1172 4494 
L 1172 3500 
L 2356 3500 
L 2356 3053 
L 1172 3053 
L 1172 1153 
Q 1172 725 1289 603 
Q 1406 481 1766 481 
L 2356 481 
L 2356 0 
L 1766 0 
Q 1100 0 847 248 
Q 594 497 594 1153 
L 594 3053 
L 172 3053 
L 172 3500 
L 594 3500 
L 594 4494 
L 1172 4494 
z
" transform="scale(0.015625)"/>
      <path id="DejaVuSans-72" d="M 2631 2963 
Q 2534 3019 2420 3045 
Q 2306 3072 2169 3072 
Q 1681 3072 1420 2755 
Q 1159 2438 1159 1844 
L 1159 0 
L 581 0 
L 581 3500 
L 1159 3500 
L 1159 2956 
Q 1341 3275 1631 3429 
Q 1922 3584 2338 3584 
Q 2397 3584 2469 3576 
Q 2541 3569 2628 3553 
L 2631 2963 
z
" transform="scale(0.015625)"/>
      <path id="DejaVuSans-64" d="M 2906 2969 
L 2906 4863 
L 3481 4863 
L 3481 0 
L 2906 0 
L 2906 525 
Q 2725 213 2448 61 
Q 2172 -91 1784 -91 
Q 1150 -91 751 415 
Q 353 922 353 1747 
Q 353 2572 751 3078 
Q 1150 3584 1784 3584 
Q 2172 3584 2448 3432 
Q 2725 3281 2906 2969 
z
M 947 1747 
Q 947 1113 1208 752 
Q 1469 391 1925 391 
Q 2381 391 2643 752 
Q 2906 1113 2906 1747 
Q 2906 2381 2643 2742 
Q 2381 3103 1925 3103 
Q 1469 3103 1208 2742 
Q 947 2381 947 1747 
z
" transform="scale(0.015625)"/>
      <path id="DejaVuSans-20" transform="scale(0.015625)"/>
      <path id="DejaVuSans-54" d="M -19 4666 
L 3928 4666 
L 3928 4134 
L 2272 4134 
L 2272 0 
L 1638 0 
L 1638 4134 
L -19 4134 
L -19 4666 
z
" transform="scale(0.015625)"/>
      <path id="DejaVuSans-38" d="M 2034 2216 
Q 1584 2216 1326 1975 
Q 1069 1734 1069 1313 
Q 1069 891 1326 650 
Q 1584 409 2034 409 
Q 2484 409 2743 651 
Q 3003 894 3003 1313 
Q 3003 1734 2745 1975 
Q 2488 2216 2034 2216 
z
M 1403 2484 
Q 997 2584 770 2862 
Q 544 3141 544 3541 
Q 544 4100 942 4425 
Q 1341 4750 2034 4750 
Q 2731 4750 3128 4425 
Q 3525 4100 3525 3541 
Q 3525 3141 3298 2862 
Q 3072 2584 2669 2484 
Q 3125 2378 3379 2068 
Q 3634 1759 3634 1313 
Q 3634 634 3220 271 
Q 2806 -91 2034 -91 
Q 1263 -91 848 271 
Q 434 634 434 1313 
Q 434 1759 690 2068 
Q 947 2378 1403 2484 
z
M 1172 3481 
Q 1172 3119 1398 2916 
Q 1625 2713 2034 2713 
Q 2441 2713 2670 2916 
Q 2900 3119 2900 3481 
Q 2900 3844 2670 4047 
Q 2441 4250 2034 4250 
Q 1625 4250 1398 4047 
Q 1172 3844 1172 3481 
z
" transform="scale(0.015625)"/>
     </defs>
     <use xlink:href="#DejaVuSans-67"/>
     <use xlink:href="#DejaVuSans-61" transform="translate(63.476562 0)"/>
     <use xlink:href="#DejaVuSans-6e" transform="translate(124.755859 0)"/>
     <use xlink:href="#DejaVuSans-5f" transform="translate(188.134766 0)"/>
     <use xlink:href="#DejaVuSans-49" transform="translate(238.134766 0)"/>
     <use xlink:href="#DejaVuSans-53" transform="translate(267.626953 0)"/>
     <use xlink:href="#DejaVuSans-5f" transform="translate(331.103516 0)"/>
     <use xlink:href="#DejaVuSans-46" transform="translate(381.103516 0)"/>
     <use xlink:href="#DejaVuSans-49" transform="translate(438.623047 0)"/>
     <use xlink:href="#DejaVuSans-44" transform="translate(468.115234 0)"/>
     <use xlink:href="#DejaVuSans-5f" transform="translate(545.117188 0)"/>
     <use xlink:href="#DejaVuSans-6d" transform="translate(595.117188 0)"/>
     <use xlink:href="#DejaVuSans-6e" transform="translate(692.529297 0)"/>
     <use xlink:href="#DejaVuSans-69" transform="translate(755.908203 0)"/>
     <use xlink:href="#DejaVuSans-73" transform="translate(783.691406 0)"/>
     <use xlink:href="#DejaVuSans-74" transform="translate(835.791016 0)"/>
     <use xlink:href="#DejaVuSans-5f" transform="translate(875 0)"/>
     <use xlink:href="#DejaVuSans-67" transform="translate(925 0)"/>
     <use xlink:href="#DejaVuSans-65" transform="translate(988.476562 0)"/>
     <use xlink:href="#DejaVuSans-6e" transform="translate(1050 0)"/>
     <use xlink:href="#DejaVuSans-65" transform="translate(1113.378906 0)"/>
     <use xlink:href="#DejaVuSans-72" transform="translate(1174.902344 0)"/>
     <use xlink:href="#DejaVuSans-61" transform="translate(1216.015625 0)"/>
     <use xlink:href="#DejaVuSans-74" transform="translate(1277.294922 0)"/>
     <use xlink:href="#DejaVuSans-6f" transform="translate(1316.503906 0)"/>
     <use xlink:href="#DejaVuSans-72" transform="translate(1377.685547 0)"/>
     <use xlink:href="#DejaVuSans-5f" transform="translate(1418.798828 0)"/>
     <use xlink:href="#DejaVuSans-64" transform="translate(1468.798828 0)"/>
     <use xlink:href="#DejaVuSans-69" transform="translate(1532.275391 0)"/>
     <use xlink:href="#DejaVuSans-73" transform="translate(1560.058594 0)"/>
     <use xlink:href="#DejaVuSans-63" transform="translate(1612.158203 0)"/>
     <use xlink:href="#DejaVuSans-72" transform="translate(1667.138672 0)"/>
     <use xlink:href="#DejaVuSans-69" transform="translate(1708.251953 0)"/>
     <use xlink:href="#DejaVuSans-6d" transform="translate(1736.035156 0)"/>
     <use xlink:href="#DejaVuSans-69" transform="translate(1833.447266 0)"/>
     <use xlink:href="#DejaVuSans-6e" transform="translate(1861.230469 0)"/>
     <use xlink:href="#DejaVuSans-61" transform="translate(1924.609375 0)"/>
     <use xlink:href="#DejaVuSans-74" transform="translate(1985.888672 0)"/>
     <use xlink:href="#DejaVuSans-6f" transform="translate(2025.097656 0)"/>
     <use xlink:href="#DejaVuSans-72" transform="translate(2086.279297 0)"/>
     <use xlink:href="#DejaVuSans-20" transform="translate(2127.392578 0)"/>
     <use xlink:href="#DejaVuSans-54" transform="translate(2159.179688 0)"/>
     <use xlink:href="#DejaVuSans-72" transform="translate(2205.513672 0)"/>
     <use xlink:href="#DejaVuSans-69" transform="translate(2246.626953 0)"/>
     <use xlink:href="#DejaVuSans-61" transform="translate(2274.410156 0)"/>
     <use xlink:href="#DejaVuSans-6c" transform="translate(2335.689453 0)"/>
     <use xlink:href="#DejaVuSans-20" transform="translate(2363.472656 0)"/>
     <use xlink:href="#DejaVuSans-38" transform="translate(2395.259766 0)"/>
    </g>
   </g>
   <g id="legend_1">
    <g id="patch_7">
     <path d="M 54.81 63.3525 
L 176.983438 63.3525 
Q 178.983438 63.3525 178.983438 61.3525 
L 178.983438 32.44 
Q 178.983438 30.44 176.983438 30.44 
L 54.81 30.44 
Q 52.81 30.44 52.81 32.44 
L 52.81 61.3525 
Q 52.81 63.3525 54.81 63.3525 
z
" style="fill: #ffffff; opacity: 0.8; stroke: #cccccc; stroke-linejoin: miter"/>
    </g>
    <g id="line2d_27">
     <path d="M 56.81 38.538438 
L 66.81 38.538438 
L 76.81 38.538438 
" style="fill: none; stroke: #ff0000; stroke-width: 1.5; stroke-linecap: square"/>
    </g>
    <g id="text_16">
     <!-- discriminator_loss -->
     <g transform="translate(84.81 42.038438) scale(0.1 -0.1)">
      <use xlink:href="#DejaVuSans-64"/>
      <use xlink:href="#DejaVuSans-69" transform="translate(63.476562 0)"/>
      <use xlink:href="#DejaVuSans-73" transform="translate(91.259766 0)"/>
      <use xlink:href="#DejaVuSans-63" transform="translate(143.359375 0)"/>
      <use xlink:href="#DejaVuSans-72" transform="translate(198.339844 0)"/>
      <use xlink:href="#DejaVuSans-69" transform="translate(239.453125 0)"/>
      <use xlink:href="#DejaVuSans-6d" transform="translate(267.236328 0)"/>
      <use xlink:href="#DejaVuSans-69" transform="translate(364.648438 0)"/>
      <use xlink:href="#DejaVuSans-6e" transform="translate(392.431641 0)"/>
      <use xlink:href="#DejaVuSans-61" transform="translate(455.810547 0)"/>
      <use xlink:href="#DejaVuSans-74" transform="translate(517.089844 0)"/>
      <use xlink:href="#DejaVuSans-6f" transform="translate(556.298828 0)"/>
      <use xlink:href="#DejaVuSans-72" transform="translate(617.480469 0)"/>
      <use xlink:href="#DejaVuSans-5f" transform="translate(658.59375 0)"/>
      <use xlink:href="#DejaVuSans-6c" transform="translate(708.59375 0)"/>
      <use xlink:href="#DejaVuSans-6f" transform="translate(736.376953 0)"/>
      <use xlink:href="#DejaVuSans-73" transform="translate(797.558594 0)"/>
      <use xlink:href="#DejaVuSans-73" transform="translate(849.658203 0)"/>
     </g>
    </g>
    <g id="line2d_28">
     <path d="M 56.81 53.494688 
L 66.81 53.494688 
L 76.81 53.494688 
" style="fill: none; stroke: #0000ff; stroke-width: 1.5; stroke-linecap: square"/>
    </g>
    <g id="text_17">
     <!-- generator_loss -->
     <g transform="translate(84.81 56.994688) scale(0.1 -0.1)">
      <use xlink:href="#DejaVuSans-67"/>
      <use xlink:href="#DejaVuSans-65" transform="translate(63.476562 0)"/>
      <use xlink:href="#DejaVuSans-6e" transform="translate(125 0)"/>
      <use xlink:href="#DejaVuSans-65" transform="translate(188.378906 0)"/>
      <use xlink:href="#DejaVuSans-72" transform="translate(249.902344 0)"/>
      <use xlink:href="#DejaVuSans-61" transform="translate(291.015625 0)"/>
      <use xlink:href="#DejaVuSans-74" transform="translate(352.294922 0)"/>
      <use xlink:href="#DejaVuSans-6f" transform="translate(391.503906 0)"/>
      <use xlink:href="#DejaVuSans-72" transform="translate(452.685547 0)"/>
      <use xlink:href="#DejaVuSans-5f" transform="translate(493.798828 0)"/>
      <use xlink:href="#DejaVuSans-6c" transform="translate(543.798828 0)"/>
      <use xlink:href="#DejaVuSans-6f" transform="translate(571.582031 0)"/>
      <use xlink:href="#DejaVuSans-73" transform="translate(632.763672 0)"/>
      <use xlink:href="#DejaVuSans-73" transform="translate(684.863281 0)"/>
     </g>
    </g>
   </g>
  </g>
 </g>
 <defs>
  <clipPath id="p0ceef2356a">
   <rect x="47.81" y="25.44" width="661.39" height="364.6"/>
  </clipPath>
 </defs>
</svg>
